<?xml version="1.0" encoding="UTF-8" standalone="no"?><!-- Generator: Gravit.io --><svg xmlns="http://www.w3.org/2000/svg" xmlns:xlink="http://www.w3.org/1999/xlink" style="isolation:isolate" viewBox="0 0 560 560" width="560pt" height="560pt"><defs><clipPath id="_clipPath_SGeuSyqsUrS2pskJPn7aUGDZ3eyb0vZY"><rect width="560" height="560"/></clipPath></defs><g clip-path="url(#_clipPath_SGeuSyqsUrS2pskJPn7aUGDZ3eyb0vZY)"><g><path d=" M 54.266 122.967 C 54.266 235.842 -4.203 313.355 -4.203 367.744 C -4.203 422.134 27.063 536.364 277.275 536.364 C 527.487 536.364 564.203 382.692 564.203 322.868 C 564.22 42.728 54.266 -76.935 54.266 122.967 Z " fill="rgb(239,239,239)"/></g><g><path d=" M 115.74 313.581 L 86.339 326.192 L 102.836 367.984 L 77.834 384.483 L 59.064 336.97 C 53.167 322.231 60.139 305.483 74.755 299.282 L 113.028 282.859 C 114.247 282.349 115.529 282.002 116.84 281.833 L 115.74 313.581 Z " fill="rgb(229,126,37)"/><path d=" M 135.925 385.889 C 121.487 366.968 97.231 361.209 81.755 373.022 C 66.275 384.838 65.431 409.75 79.87 428.672 C 94.308 447.59 118.564 453.349 134.043 441.536 C 149.523 429.723 150.367 404.809 135.925 385.889 L 135.925 385.889 Z " fill="rgb(242,156,31)"/><path d=" M 474.796 135.772 L 502.101 236.303 C 504.411 245.476 502.361 255.208 496.547 262.669 C 490.733 270.135 481.804 274.495 472.343 274.491 L 441.521 274.491 L 440.289 243.82 L 472.343 243.82 L 446.038 146.738 L 474.796 135.772 Z " fill="rgb(229,126,37)"/><path d=" M 475.86 94.4 C 486.567 116.867 480.467 142.184 462.078 150.949 C 443.702 159.714 420.003 148.604 409.29 126.137 C 398.581 103.668 404.797 78.351 423.183 69.586 C 441.56 60.825 465.154 71.931 475.86 94.4 Z " fill="rgb(242,156,31)"/><g><path d=" M 370.888 465.452 L 370.888 482.226 C 370.868 488.395 365.873 493.393 359.704 493.41 L 292.601 493.41 C 286.432 493.393 281.436 488.395 281.419 482.226 L 281.419 465.452 C 281.412 455.067 285.531 445.108 292.876 437.764 C 300.218 430.422 310.177 426.302 320.562 426.31 L 331.746 426.31 C 342.128 426.302 352.087 430.422 359.432 437.764 C 366.774 445.108 370.896 455.067 370.888 465.452 L 370.888 465.452 Z " fill="rgb(53,73,94)"/><path d=" M 282 465.452 L 282 482.226 C 281.98 488.395 276.984 493.393 270.816 493.41 L 203.715 493.41 C 197.546 493.393 192.549 488.395 192.531 482.226 L 192.531 465.452 C 192.524 455.067 196.646 445.108 203.987 437.764 C 211.329 430.422 221.291 426.302 231.673 426.31 L 242.858 426.31 C 253.24 426.302 263.202 430.422 270.543 437.764 C 277.885 445.108 282.007 455.067 282 465.452 L 282 465.452 Z " fill="rgb(63,92,108)"/></g><clipPath id="_clipPath_ElHTUNXuAqyoBgknMaZQtlic9MWJAVoU"><rect x="102.729" y="100.365" width="348.253" height="348.253" transform="matrix(1,0,0,1,0,0)" fill="rgb(255,255,255)"/></clipPath><g clip-path="url(#_clipPath_ElHTUNXuAqyoBgknMaZQtlic9MWJAVoU)"><g><circle vector-effect="non-scaling-stroke" cx="276.85513228193565" cy="274.49123285714916" r="166.33357729804936" fill="rgb(255,255,255)"/><path d=" M 276.855 105.314 C 183.349 105.314 107.614 181.049 107.614 274.491 C 107.614 367.934 183.349 443.732 276.855 443.732 C 370.361 443.732 446.096 367.997 446.096 274.491 C 446.033 180.33 370.298 105.314 276.855 105.314 L 276.855 105.314 L 276.855 105.314 Z  M 276.855 423.127 C 194.921 423.127 128.536 356.742 128.536 274.808 C 128.536 192.874 194.921 126.49 276.855 126.49 C 358.789 126.49 425.174 192.874 425.174 274.808 C 425.174 356.742 358.726 423.127 276.855 423.127 L 276.855 423.127 Z " fill-rule="evenodd" fill="rgb(233,89,39)"/></g></g><path d=" M 192.531 319.1 C 193.758 320.751 194.837 321.978 196.021 323.374 C 197.206 324.728 198.391 325.997 199.618 327.287 C 202.093 329.784 204.568 332.216 207.191 334.48 C 212.395 339.05 217.896 343.133 223.608 346.729 C 235.031 353.922 247.45 358.978 260.248 361.537 C 261.074 361.728 261.856 361.898 262.681 362.024 L 265.093 362.342 C 266.7 362.511 268.33 362.828 269.937 362.934 L 274.782 363.251 C 275.586 363.315 276.369 363.378 277.193 363.378 L 279.605 363.378 L 284.45 363.315 L 289.295 362.871 C 292.531 362.701 295.725 362.024 298.92 361.474 C 311.719 359.041 324.073 354.281 335.772 347.935 L 344.404 342.879 C 344.763 342.646 345.123 342.456 345.483 342.265 L 345.906 341.969 L 346.159 341.779 L 346.731 341.419 L 348.995 339.896 L 353.563 336.786 C 355.108 335.813 356.568 334.586 358.048 333.486 L 362.47 330.144 C 361.708 334.417 360.82 338.732 359.91 343.133 C 358.916 347.448 357.731 351.722 356.568 356.122 L 361.857 352.526 C 362.724 351.912 363.612 351.299 364.438 350.622 L 366.955 348.675 C 367.568 345.925 368.14 343.196 368.711 340.446 L 369.536 336.363 L 370.192 332.216 C 371.08 326.738 371.842 321.301 372.519 315.991 C 367.928 315.208 363.401 314.298 359.022 313.325 L 355.785 312.585 L 352.485 311.675 C 350.327 311.061 348.169 310.385 346.054 309.729 L 343.938 311.315 C 343.283 311.844 342.563 312.394 341.843 312.839 L 337.507 315.694 C 340.807 316.985 344.213 318.317 347.661 319.417 C 351.046 320.454 354.6 321.427 358.154 322.337 L 353.881 325.574 C 352.443 326.611 351.11 327.817 349.608 328.747 L 345.228 331.73 L 343.071 333.19 L 342.5 333.549 L 342.246 333.74 L 341.843 333.994 C 341.526 334.226 341.167 334.417 340.807 334.586 L 332.578 339.41 C 321.45 345.439 309.73 349.965 297.735 352.208 C 294.752 352.695 291.706 353.372 288.66 353.498 L 284.132 353.922 L 279.605 353.985 L 277.341 353.985 C 276.58 353.985 275.861 353.922 275.078 353.858 L 270.551 353.562 C 269.049 353.435 267.568 353.181 266.024 352.949 L 263.76 352.631 C 262.977 352.526 262.258 352.335 261.539 352.208 C 249.607 349.902 237.972 345.142 227.268 338.373 C 221.915 335.03 216.775 331.116 211.867 326.843 C 209.412 324.728 207.085 322.464 204.779 320.095 C 203.637 318.931 202.516 317.704 201.437 316.477 C 200.401 315.271 199.258 313.918 198.391 312.775 L 192.531 319.1 Z " fill="rgb(233,89,39)"/><clipPath id="_clipPath_NVxFD2Hj2DJNTiMMak4Oa8UqJOore5Dx"><rect x="125.036" y="132.136" width="303.637" height="303.637" transform="matrix(1,0,0,1,0,0)" fill="rgb(255,255,255)"/></clipPath><g clip-path="url(#_clipPath_NVxFD2Hj2DJNTiMMak4Oa8UqJOore5Dx)"><g><circle vector-effect="non-scaling-stroke" cx="227.03518105438192" cy="249.41586878332993" r="21.688389538110698" fill="rgb(52,54,87)"/><circle vector-effect="non-scaling-stroke" cx="335.4771287449354" cy="249.41586878332993" r="21.688389538110698" fill="rgb(52,54,87)"/></g></g></g></g></svg>