<?xml version="1.0" encoding="UTF-8" standalone="no"?><!-- Generator: Gravit.io --><svg xmlns="http://www.w3.org/2000/svg" xmlns:xlink="http://www.w3.org/1999/xlink" style="isolation:isolate" viewBox="0 0 512 512" width="512pt" height="512pt"><defs><clipPath id="_clipPath_ZwCP69G91UPrzbgTy1QBKZOz17zALAIc"><rect width="512" height="512"/></clipPath></defs><g clip-path="url(#_clipPath_ZwCP69G91UPrzbgTy1QBKZOz17zALAIc)"><g><g><path d=" M 59.264 119.14 C 59.264 217.515 8.306 285.07 8.306 332.473 C 8.306 379.876 35.556 479.431 253.625 479.431 C 471.694 479.431 503.694 345.5 503.694 293.362 C 503.708 49.209 59.264 -55.083 59.264 119.14 Z " fill="rgb(239,239,239)"/></g><g><path d=" M 109.333 298.667 C 97.572 298.667 88 289.095 88 277.334 C 88 265.572 97.572 256 109.333 256 C 121.095 256 130.667 265.572 130.667 277.334 C 130.667 289.095 121.095 298.667 109.333 298.667 Z  M 109.333 270.223 C 105.422 270.223 102.222 273.408 102.222 277.334 C 102.222 281.259 105.422 284.445 109.333 284.445 C 113.244 284.445 116.444 281.259 116.444 277.334 C 116.444 273.408 113.244 270.223 109.333 270.223 Z " fill="rgb(164,175,193)"/></g><g><path d=" M 171.192 435.894 L 191.303 415.784 L 201.358 425.839 L 181.248 445.949 L 171.192 435.894 Z " fill="rgb(164,175,193)"/></g><g><path d=" M 246.899 465.217 L 246.368 436.781 L 260.585 436.516 L 261.116 464.951 L 246.899 465.217 Z " fill="rgb(164,175,193)"/></g><g><path d=" M 308.486 425.856 L 318.541 415.8 L 338.651 435.911 L 328.596 445.966 L 308.486 425.856 Z " fill="rgb(164,175,193)"/></g></g><g><g><g><path d=" M 176.165 87.39 C 176.326 87.378 176.488 87.371 176.651 87.367 C 176.489 87.371 176.327 87.378 176.165 87.39 Z " fill="rgb(0,0,0)"/></g></g></g><path d=" M 169.134 87.357 L 168.677 153.267 L 256 153.267 L 267.285 121.996 L 256 87.357 L 169.134 87.357 Z " fill="rgb(181,181,181)"/><path d=" M 342.866 87.357 L 256 87.357 L 256 153.267 L 343.323 153.267 L 342.866 87.357 Z " fill="rgb(149,149,149)"/><path d=" M 256 255.183 L 178.263 93.001 C 176.541 89.378 172.902 87.367 169.134 87.367 C 162.847 87.367 159.852 92.873 159.468 96.744 L 153.064 203.922 C 152.84 205.88 153.207 207.86 154.118 209.609 L 193.381 284.965 C 195.143 288.347 198.586 290.283 202.153 290.283 C 203.691 290.283 248.987 268.435 250.356 267.785 C 255.286 265.443 258.342 260.113 256 255.183 Z " fill="rgb(210,210,210)"/><path d=" M 256 255.183 L 333.737 93.001 C 335.459 89.378 339.098 87.367 342.866 87.367 C 349.153 87.367 352.148 92.873 352.532 96.744 L 358.936 203.922 C 359.16 205.88 358.793 207.86 357.882 209.609 L 318.619 284.965 C 316.857 288.347 313.414 290.283 309.847 290.283 C 308.309 290.283 263.013 268.435 261.644 267.785 C 256.714 265.443 253.658 260.113 256 255.183 Z " fill="rgb(183,183,183)"/><path d=" M 249.013 258.078 L 229.985 277.106 L 203.074 277.106 C 197.616 277.106 193.192 281.53 193.192 286.988 L 193.192 313.898 L 174.164 332.926 C 170.305 336.785 170.305 343.042 174.164 346.901 L 193.192 365.929 L 193.192 392.84 C 193.192 398.297 197.616 402.721 203.074 402.721 L 229.985 402.721 L 249.013 421.749 C 250.866 423.602 253.379 424.643 256 424.643 L 268.783 344.823 L 256 255.183 C 253.471 255.183 250.942 256.148 249.013 258.078 L 249.013 258.078 Z " fill="rgb(240,163,139)"/><path d=" M 337.836 332.926 L 318.808 313.897 L 318.808 286.987 C 318.808 281.53 314.384 277.105 308.926 277.105 L 282.015 277.105 L 262.987 258.077 C 261.057 256.148 258.528 255.183 256 255.183 L 256 424.643 C 258.621 424.643 261.134 423.602 262.987 421.749 L 282.015 402.721 L 308.926 402.721 C 314.384 402.721 318.808 398.297 318.808 392.84 L 318.808 365.929 L 337.836 346.901 C 341.695 343.042 341.695 336.785 337.836 332.926 Z " fill="rgb(220,134,109)"/><path d=" M 218.795 339.955 C 218.795 360.471 235.485 377.16 256 377.16 L 260.153 341.79 L 256 302.75 C 235.485 302.75 218.795 319.44 218.795 339.955 L 218.795 339.955 Z " fill="rgb(238,177,159)"/><path d=" M 256 302.75 L 256 377.16 C 276.515 377.16 293.205 360.471 293.205 339.955 C 293.205 319.44 276.515 302.75 256 302.75 L 256 302.75 Z " fill="rgb(198,121,97)"/></g></svg>