<?xml version="1.0" encoding="UTF-8" standalone="no"?><!-- Generator: Gravit.io --><svg xmlns="http://www.w3.org/2000/svg" xmlns:xlink="http://www.w3.org/1999/xlink" style="isolation:isolate" viewBox="0 0 512 512" width="512pt" height="512pt"><defs><clipPath id="_clipPath_FuMHAVQ3XsCJuR2WdCccnKbD3UPEnQ8h"><rect width="512" height="512"/></clipPath></defs><g clip-path="url(#_clipPath_FuMHAVQ3XsCJuR2WdCccnKbD3UPEnQ8h)"><g><g><path d=" M 59.264 119.14 C 59.264 217.515 8.306 285.07 8.306 332.473 C 8.306 379.876 35.556 479.431 253.625 479.431 C 471.694 479.431 503.694 345.5 503.694 293.362 C 503.708 49.209 59.264 -55.083 59.264 119.14 Z " fill="rgb(239,239,239)"/></g></g><g><path d=" M 271.297 109.147 L 271.297 83.141 C 271.297 74.693 264.449 67.844 256 67.844 C 247.551 67.844 240.703 74.693 240.703 83.141 L 240.703 109.147 L 271.297 109.147 Z " fill="rgb(246,226,102)"/><path d=" M 278.946 135.917 L 233.054 135.917 L 233.054 116.718 C 233.054 112.536 236.444 109.147 240.626 109.147 L 271.374 109.147 C 275.556 109.147 278.945 112.536 278.945 116.718 L 278.945 135.917 L 278.946 135.917 Z " fill="rgb(64,115,200)"/><path d=" M 243.763 171.865 L 268.238 171.865 L 268.238 228.465 L 243.763 228.465 L 243.763 171.865 Z " fill="rgb(241,211,51)"/><path d=" M 240.703 93.849 L 271.297 93.849 L 271.297 109.147 L 240.703 109.147 L 240.703 93.849 Z " fill="rgb(241,211,51)"/><path d=" M 136.47 169.326 L 113.948 156.323 C 106.631 152.099 97.276 154.605 93.052 161.922 C 88.828 169.239 91.334 178.594 98.651 182.818 L 121.172 195.821 L 136.47 169.326 Z " fill="rgb(246,226,102)"/><path d=" M 163.478 176.087 L 140.532 215.83 L 123.906 206.231 C 120.285 204.14 119.044 199.51 121.134 195.888 L 136.509 169.259 C 138.6 165.637 143.23 164.397 146.852 166.487 L 163.478 176.087 Z " fill="rgb(64,115,200)"/><path d=" M 177.015 224.534 L 189.252 203.338 L 238.268 231.638 L 226.03 252.834 L 177.015 224.534 Z " fill="rgb(241,211,51)"/><path d=" M 107.922 188.173 L 123.219 161.678 L 136.467 169.327 L 121.17 195.822 L 107.922 188.173 Z " fill="rgb(241,211,51)"/><path d=" M 121.172 316.179 L 98.651 329.182 C 91.334 333.406 88.828 342.761 93.052 350.078 C 97.276 357.395 106.631 359.901 113.948 355.677 L 136.47 342.674 L 121.172 316.179 Z " fill="rgb(246,226,102)"/><path d=" M 140.532 296.17 L 163.478 335.913 L 146.852 345.512 C 143.231 347.603 138.6 346.363 136.509 342.741 L 121.134 316.111 C 119.043 312.49 120.284 307.859 123.906 305.768 L 140.532 296.17 Z " fill="rgb(64,115,200)"/><path d=" M 189.251 308.669 L 177.014 287.473 L 226.029 259.173 L 238.267 280.369 L 189.251 308.669 Z " fill="rgb(241,211,51)"/><path d=" M 123.216 350.324 L 107.918 323.829 L 121.166 316.181 L 136.463 342.676 L 123.216 350.324 Z " fill="rgb(241,211,51)"/><path d=" M 240.703 402.853 L 240.703 428.859 C 240.703 437.307 247.551 444.156 256 444.156 C 264.449 444.156 271.297 437.307 271.297 428.859 L 271.297 402.853 L 240.703 402.853 Z " fill="rgb(246,226,102)"/><path d=" M 233.054 376.083 L 278.945 376.083 L 278.945 395.282 C 278.945 399.464 275.556 402.853 271.374 402.853 L 240.626 402.853 C 236.444 402.853 233.054 399.464 233.054 395.282 L 233.054 376.083 Z " fill="rgb(64,115,200)"/><path d=" M 268.237 340.135 L 243.762 340.135 L 243.762 283.535 L 268.237 283.535 L 268.237 340.135 Z " fill="rgb(241,211,51)"/><path d=" M 271.297 418.151 L 240.703 418.151 L 240.703 402.853 L 271.297 402.853 L 271.297 418.151 Z " fill="rgb(241,211,51)"/><path d=" M 375.53 342.674 L 398.052 355.677 C 405.368 359.901 414.724 357.395 418.948 350.078 C 423.172 342.761 420.666 333.406 413.349 329.182 L 390.828 316.179 L 375.53 342.674 Z " fill="rgb(246,226,102)"/><path d=" M 348.522 335.913 L 371.468 296.17 L 388.094 305.769 C 391.715 307.86 392.957 312.49 390.866 316.112 L 375.491 342.741 C 373.4 346.363 368.77 347.603 365.148 345.513 L 348.522 335.913 Z " fill="rgb(64,115,200)"/><path d=" M 334.986 287.463 L 322.748 308.659 L 273.733 280.36 L 285.971 259.164 L 334.986 287.463 Z " fill="rgb(241,211,51)"/><path d=" M 404.082 323.82 L 388.784 350.315 L 375.537 342.666 L 390.834 316.171 L 404.082 323.82 Z " fill="rgb(241,211,51)"/><path d=" M 390.828 195.821 L 413.349 182.818 C 420.666 178.594 423.172 169.239 418.948 161.922 C 414.724 154.605 405.368 152.099 398.052 156.323 L 375.53 169.326 L 390.828 195.821 Z " fill="rgb(246,226,102)"/><path d=" M 371.468 215.83 L 348.522 176.087 L 365.148 166.488 C 368.769 164.397 373.4 165.637 375.491 169.259 L 390.866 195.889 C 392.957 199.51 391.716 204.141 388.094 206.232 L 371.468 215.83 Z " fill="rgb(64,115,200)"/><path d=" M 322.748 203.328 L 334.985 224.524 L 285.97 252.824 L 273.732 231.628 L 322.748 203.328 Z " fill="rgb(241,211,51)"/><path d=" M 388.781 161.669 L 404.078 188.164 L 390.83 195.812 L 375.533 169.318 L 388.781 161.669 Z " fill="rgb(241,211,51)"/><path d=" M 256 133.622 C 188.412 133.622 133.622 188.412 133.622 256 C 133.622 323.588 188.412 378.378 256 378.378 C 323.588 378.378 378.378 323.588 378.378 256 C 378.378 188.412 323.588 133.622 256 133.622 L 256 133.622 Z  M 256 340.135 C 209.534 340.135 171.865 302.466 171.865 256 C 171.865 209.534 209.534 171.865 256 171.865 C 302.466 171.865 340.135 209.534 340.135 256 C 340.135 302.466 302.466 340.135 256 340.135 Z " fill="rgb(228,149,66)"/><path d=" M 334.751 162.334 C 352.664 183.619 363.463 211.089 363.463 241.085 C 363.463 308.673 308.672 363.463 241.085 363.463 C 211.089 363.463 183.618 352.664 162.334 334.751 C 184.783 361.423 218.409 378.378 256 378.378 C 323.588 378.378 378.378 323.588 378.378 256 C 378.378 218.409 361.423 184.783 334.751 162.334 Z " fill="rgb(226,132,36)"/><circle vector-effect="non-scaling-stroke" cx="255.99999719646902" cy="256.00000000000006" r="30.594424181355606" fill="rgb(228,149,66)"/><path d=" M 271.606 229.686 C 274.322 234.256 275.886 239.59 275.886 245.292 C 275.886 262.189 262.189 275.886 245.292 275.886 C 239.59 275.886 234.256 274.322 229.686 271.606 C 235.019 280.579 244.805 286.594 256 286.594 C 272.897 286.594 286.594 272.897 286.594 256 C 286.594 244.805 280.579 235.019 271.606 229.686 L 271.606 229.686 Z " fill="rgb(226,132,36)"/><circle vector-effect="non-scaling-stroke" cx="255.999997196469" cy="256.00000000000006" r="9.178474251111524" fill="rgb(241,211,51)"/></g></g></svg>