<?xml version="1.0" encoding="UTF-8" standalone="no"?><!-- Generator: Gravit.io --><svg xmlns="http://www.w3.org/2000/svg" xmlns:xlink="http://www.w3.org/1999/xlink" style="isolation:isolate" viewBox="0 0 512 512" width="512pt" height="512pt"><defs><clipPath id="_clipPath_WZLMJPg0nRxZRmXSGro0ioaiL6eYO3OS"><rect width="512" height="512"/></clipPath></defs><g clip-path="url(#_clipPath_WZLMJPg0nRxZRmXSGro0ioaiL6eYO3OS)"><g><g><path d=" M 59.264 119.14 C 59.264 217.515 8.306 285.07 8.306 332.473 C 8.306 379.876 35.556 479.431 253.625 479.431 C 471.694 479.431 503.694 345.5 503.694 293.362 C 503.708 49.209 59.264 -55.083 59.264 119.14 Z " fill="rgb(239,239,239)"/></g><g><path d=" M 109.333 298.667 C 97.572 298.667 88 289.095 88 277.334 C 88 265.572 97.572 256 109.333 256 C 121.095 256 130.667 265.572 130.667 277.334 C 130.667 289.095 121.095 298.667 109.333 298.667 Z  M 109.333 270.223 C 105.422 270.223 102.222 273.408 102.222 277.334 C 102.222 281.259 105.422 284.445 109.333 284.445 C 113.244 284.445 116.444 281.259 116.444 277.334 C 116.444 273.408 113.244 270.223 109.333 270.223 Z " fill="rgb(164,175,193)"/></g><g><path d=" M 171.192 435.894 L 191.303 415.784 L 201.358 425.839 L 181.248 445.949 L 171.192 435.894 Z " fill="rgb(164,175,193)"/></g><g><path d=" M 246.899 465.217 L 246.368 436.781 L 260.585 436.516 L 261.116 464.951 L 246.899 465.217 Z " fill="rgb(164,175,193)"/></g><g><path d=" M 308.486 425.856 L 318.541 415.8 L 338.651 435.911 L 328.596 445.966 L 308.486 425.856 Z " fill="rgb(164,175,193)"/></g></g><g><path d=" M 352.968 101.861 L 293.32 101.861 L 256.602 118.262 L 256 118.002 L 256 263.63 L 296.752 263.63 L 360.858 148.547 C 361.607 147.203 362 145.69 362 144.151 L 362 110.893 C 362 105.905 357.956 101.861 352.968 101.861 L 352.968 101.861 Z " fill="rgb(0,153,133)"/><path d=" M 218.68 101.861 L 159.032 101.861 C 154.044 101.861 150 105.905 150 110.893 L 150 144.151 C 150 145.69 150.393 147.202 151.142 148.547 L 215.248 263.63 L 256 263.63 L 256 118.001 L 218.68 101.861 Z " fill="rgb(181,251,73)"/></g><g><path d=" M 218.68 101.861 L 218.68 269.795 L 256 269.795 L 264.91 190.442 L 256 101.861 L 218.68 101.861 Z " fill="rgb(132,227,107)"/></g><path d=" M 256 101.861 L 293.32 101.861 L 293.32 269.795 L 256 269.795 L 256 101.861 Z " fill="rgb(0,204,113)"/><g><path d=" M 176.171 330.31 C 176.171 374.328 211.983 410.139 256 410.139 L 264.91 334.247 L 256 250.482 C 211.983 250.482 176.171 286.293 176.171 330.31 L 176.171 330.31 Z " fill="rgb(255,215,74)"/><path d=" M 256 250.482 L 256 410.139 C 300.017 410.139 335.829 374.328 335.829 330.31 C 335.829 286.293 300.017 250.482 256 250.482 L 256 250.482 Z " fill="rgb(253,191,0)"/></g><g><path d=" M 246.968 312.247 L 246.968 348.373 C 246.968 353.361 251.012 357.405 256 357.405 L 260.516 330.31 L 256 303.215 C 251.012 303.215 246.968 307.259 246.968 312.247 Z " fill="rgb(253,191,0)"/></g><path d=" M 256 303.215 L 256 357.405 C 260.988 357.405 265.032 353.361 265.032 348.373 L 265.032 312.247 C 265.032 307.259 260.988 303.215 256 303.215 Z " fill="rgb(255,145,2)"/></g></svg>