<?xml version="1.0" encoding="UTF-8" standalone="no"?><!-- Generator: Gravit.io --><svg xmlns="http://www.w3.org/2000/svg" xmlns:xlink="http://www.w3.org/1999/xlink" style="isolation:isolate" viewBox="0 0 512 512" width="512pt" height="512pt"><defs><clipPath id="_clipPath_qRteJsTX1iLqtqQn9jKdYTqKmcVcLd6u"><rect width="512" height="512"/></clipPath></defs><g clip-path="url(#_clipPath_qRteJsTX1iLqtqQn9jKdYTqKmcVcLd6u)"><g><g><path d=" M 59.264 119.14 C 59.264 217.515 8.306 285.07 8.306 332.473 C 8.306 379.876 35.556 479.431 253.625 479.431 C 471.694 479.431 503.694 345.5 503.694 293.362 C 503.708 49.209 59.264 -55.083 59.264 119.14 Z " fill="rgb(239,239,239)"/></g><g><path d=" M 109.333 298.667 C 97.572 298.667 88 289.095 88 277.334 C 88 265.572 97.572 256 109.333 256 C 121.095 256 130.667 265.572 130.667 277.334 C 130.667 289.095 121.095 298.667 109.333 298.667 Z  M 109.333 270.223 C 105.422 270.223 102.222 273.408 102.222 277.334 C 102.222 281.259 105.422 284.445 109.333 284.445 C 113.244 284.445 116.444 281.259 116.444 277.334 C 116.444 273.408 113.244 270.223 109.333 270.223 Z " fill="rgb(164,175,193)"/></g><g><path d=" M 171.192 435.894 L 191.303 415.784 L 201.358 425.839 L 181.248 445.949 L 171.192 435.894 Z " fill="rgb(164,175,193)"/></g><g><path d=" M 246.899 465.217 L 246.368 436.781 L 260.585 436.516 L 261.116 464.951 L 246.899 465.217 Z " fill="rgb(164,175,193)"/></g><g><path d=" M 308.486 425.856 L 318.541 415.8 L 338.651 435.911 L 328.596 445.966 L 308.486 425.856 Z " fill="rgb(164,175,193)"/></g></g><g><path d=" M 354.139 100 L 293.77 100 L 256.609 116.599 L 256 116.336 L 256 263.722 L 297.244 263.722 L 362.124 147.249 C 362.882 145.889 363.28 144.358 363.28 142.801 L 363.28 109.141 C 363.28 104.093 359.187 100 354.139 100 L 354.139 100 Z " fill="rgb(0,96,127)"/><path d=" M 218.23 100 L 157.861 100 C 152.813 100 148.72 104.093 148.72 109.141 L 148.72 142.801 C 148.72 144.358 149.118 145.888 149.876 147.249 L 214.756 263.722 L 256 263.722 L 256 116.335 L 218.23 100 Z " fill="rgb(0,192,241)"/></g><g><path d=" M 218.23 100 L 218.23 269.961 L 256 269.961 L 265.018 189.65 L 256 100 L 218.23 100 Z " fill="rgb(0,96,127)"/></g><path d=" M 256 100 L 293.77 100 L 293.77 269.961 L 256 269.961 L 256 100 Z " fill="rgb(0,70,95)"/><g><linearGradient id="_lgradient_2" x1="0" y1="0.5" x2="1.1000160233575667" y2="0.397633565038765" gradientTransform="matrix(89.81,0,0,161.585,175.207,250.415)" gradientUnits="userSpaceOnUse"><stop offset="0%" stop-opacity="1" style="stop-color:rgb(69,69,69)"/><stop offset="100%" stop-opacity="1" style="stop-color:rgb(93,93,93)"/></linearGradient><path d=" M 175.207 331.207 C 175.207 375.757 211.451 412 256 412 L 265.018 335.192 L 256 250.415 C 211.451 250.415 175.207 286.658 175.207 331.207 L 175.207 331.207 Z " fill="url(#_lgradient_2)"/><linearGradient id="_lgradient_3" x1="0" y1="0.5" x2="0.36465426408027174" y2="-0.07106444130647638" gradientTransform="matrix(80.793,0,0,161.585,256,250.415)" gradientUnits="userSpaceOnUse"><stop offset="0%" stop-opacity="1" style="stop-color:rgb(116,116,116)"/><stop offset="99.56521739130434%" stop-opacity="1" style="stop-color:rgb(46,46,46)"/></linearGradient><path d=" M 256 250.415 L 256 412 C 300.549 412 336.793 375.757 336.793 331.207 C 336.793 286.658 300.549 250.415 256 250.415 L 256 250.415 Z " fill="url(#_lgradient_3)"/></g><g><path d=" M 246.859 313.127 L 246.859 349.69 C 246.859 354.738 250.952 358.83 256 358.83 L 260.57 331.408 L 256 303.986 C 250.952 303.986 246.859 308.079 246.859 313.127 Z " fill="rgb(253,191,0)"/></g><path d=" M 256 303.986 L 256 358.83 C 261.048 358.83 265.141 354.738 265.141 349.69 L 265.141 313.127 C 265.141 308.079 261.048 303.986 256 303.986 Z " fill="rgb(255,145,2)"/></g></svg>