<?xml version="1.0" encoding="UTF-8" standalone="no"?><!-- Generator: Gravit.io --><svg xmlns="http://www.w3.org/2000/svg" xmlns:xlink="http://www.w3.org/1999/xlink" style="isolation:isolate" viewBox="0 0 512 512" width="512pt" height="512pt"><defs><clipPath id="_clipPath_8Y0S3cAk3CNkWyqQyUSZBV1NeujXiolr"><rect width="512" height="512"/></clipPath></defs><g clip-path="url(#_clipPath_8Y0S3cAk3CNkWyqQyUSZBV1NeujXiolr)"><g><g><path d=" M 59.264 119.14 C 59.264 217.515 8.306 285.07 8.306 332.473 C 8.306 379.876 35.556 479.431 253.625 479.431 C 471.694 479.431 503.694 345.5 503.694 293.362 C 503.708 49.209 59.264 -55.083 59.264 119.14 Z " fill="rgb(239,239,239)"/></g></g><g><path d=" M 238.823 349.573 C 236.818 349.573 234.813 348.802 233.284 347.273 L 167.715 281.704 C 164.781 278.77 164.645 274.046 167.409 270.954 L 216.552 215.909 C 251.364 175.172 307.858 148.573 357.703 149.638 C 361.883 149.74 365.259 153.105 365.35 157.285 C 366.505 206.858 339.816 263.636 298.943 298.55 L 244.023 347.579 C 242.55 348.915 240.681 349.573 238.823 349.573 Z " fill="rgb(236,239,241)"/></g><g><path d=" M 210.502 215.399 C 179.803 215.399 150.961 227.34 129.267 249.022 L 128.95 249.339 C 127.114 251.174 126.469 253.893 127.296 256.363 C 128.123 258.832 130.264 260.622 132.835 260.985 L 175.645 267.125 C 175.974 267.17 176.302 267.193 176.619 267.193 C 178.568 267.193 180.437 266.366 181.74 264.893 L 215.623 226.83 C 217.424 224.813 217.866 221.925 216.756 219.455 C 215.657 216.985 213.21 215.399 210.502 215.399 Z " fill="rgb(33,150,243)"/></g><g><path d=" M 312.356 202.644 C 303.429 193.615 288.781 193.615 279.753 202.644 C 270.826 211.57 270.826 226.218 279.753 235.247 C 284.261 239.665 290.163 241.964 296.054 241.964 C 301.945 241.964 307.836 239.665 312.356 235.247 C 321.282 226.218 321.282 211.57 312.356 202.644 Z " fill="rgb(33,150,243)"/></g><g><path d=" M 178.432 336.579 C 166.311 324.56 145.387 324.56 133.266 336.579 C 122.957 346.99 109.725 389.822 107.199 398.318 C 106.395 401.049 107.097 403.971 109.114 405.897 C 110.53 407.313 112.444 408.117 114.472 408.117 C 115.174 408.117 115.888 408.016 116.692 407.812 C 125.177 405.285 168.021 392.054 178.432 381.745 C 184.391 375.684 187.732 367.698 187.732 359.213 C 187.732 350.626 184.391 342.651 178.432 336.579 Z " fill="rgb(255,152,0)"/></g><g><path d=" M 335.885 404.538 C 334.401 404.538 332.928 404.107 331.659 403.235 L 300.246 381.87 L 268.844 403.246 C 266.272 404.991 262.862 404.98 260.302 403.19 C 257.742 401.4 256.552 398.205 257.323 395.18 L 267.099 356.585 L 237.702 331.481 C 235.368 329.487 234.485 326.27 235.459 323.359 C 236.433 320.447 239.095 318.431 242.165 318.25 L 279.605 316.131 L 293.177 279.121 C 294.264 276.165 297.085 274.194 300.234 274.194 C 303.384 274.194 306.204 276.165 307.292 279.121 L 320.863 316.131 L 358.304 318.25 C 361.374 318.431 364.036 320.447 365.01 323.359 C 365.984 326.27 365.101 329.487 362.767 331.481 L 333.37 356.585 L 343.146 395.18 C 343.917 398.205 342.738 401.388 340.167 403.19 C 338.898 404.085 337.391 404.538 335.885 404.538 Z " fill="rgb(255,193,7)"/></g><g><path d=" M 340.507 413 C 338.841 413 337.165 412.513 335.726 411.527 L 300.246 387.387 L 264.765 411.527 C 261.854 413.498 258.002 413.487 255.114 411.459 C 252.213 409.432 250.877 405.829 251.749 402.419 L 262.794 358.805 L 229.579 330.45 C 226.951 328.196 225.943 324.56 227.042 321.274 C 228.152 317.989 231.143 315.701 234.621 315.508 L 276.921 313.118 L 292.259 271.316 C 293.494 267.952 296.689 265.731 300.246 265.731 C 303.803 265.731 306.997 267.952 308.221 271.305 L 323.559 313.107 L 365.86 315.497 C 369.337 315.701 372.328 317.978 373.438 321.263 C 374.548 324.56 373.54 328.185 370.901 330.439 L 337.686 358.794 L 348.731 402.408 C 349.603 405.829 348.267 409.432 345.367 411.448 C 343.905 412.49 342.206 413 340.507 413 Z  M 300.246 368.615 C 301.911 368.615 303.588 369.103 305.026 370.088 L 326.765 384.883 L 319.923 357.865 C 319.13 354.738 320.172 351.419 322.631 349.323 L 343.758 331.277 L 317.023 329.759 C 313.636 329.567 310.679 327.38 309.524 324.197 L 300.246 298.901 L 290.968 324.197 C 289.801 327.38 286.856 329.567 283.468 329.759 L 256.733 331.277 L 277.861 349.323 C 280.319 351.43 281.373 354.738 280.568 357.865 L 273.726 384.883 L 295.465 370.088 C 296.904 369.103 298.58 368.615 300.246 368.615 Z " fill="rgb(51,53,86)"/></g><g><path d=" M 177.684 273.355 C 177.288 273.355 176.88 273.333 176.472 273.265 L 123.489 265.675 C 120.306 265.222 117.644 263.001 116.636 259.954 C 115.616 256.907 116.409 253.542 118.697 251.265 C 145.534 224.428 182.182 209.259 219.633 209.259 C 224.323 209.259 228.129 213.066 228.129 217.756 C 228.129 222.446 224.323 226.252 219.633 226.252 C 192.49 226.252 165.823 235.303 144.254 251.503 L 178.896 256.465 C 183.541 257.133 186.758 261.427 186.101 266.083 C 185.467 270.297 181.842 273.355 177.684 273.355 Z " fill="rgb(51,53,86)"/></g><g><path d=" M 110.496 413 C 108.275 413 106.1 412.128 104.492 410.508 C 102.283 408.299 101.456 405.059 102.362 402.057 C 105.217 392.53 120.046 344.407 131.612 332.841 C 145.104 319.337 168.667 319.337 182.17 332.841 C 196.093 346.774 196.093 369.454 182.17 383.388 C 170.604 394.954 122.47 409.783 112.943 412.637 C 112.138 412.887 111.311 413 110.496 413 Z  M 156.885 339.366 C 152.082 339.366 147.279 341.201 143.62 344.849 C 138.681 349.788 130.173 371.629 123.557 391.431 C 143.359 384.815 165.212 376.307 170.14 371.368 C 177.446 364.05 177.446 352.155 170.14 344.849 C 166.48 341.201 161.689 339.366 156.885 339.366 Z  M 176.155 377.384 L 176.268 377.384 L 176.155 377.384 Z " fill="rgb(51,53,86)"/></g><g><path d=" M 296.088 247.232 C 288.521 247.232 281.407 244.287 276.06 238.94 C 265.015 227.895 265.015 209.928 276.06 198.883 C 286.742 188.189 305.389 188.177 316.105 198.883 C 327.151 209.928 327.151 227.895 316.105 238.94 C 310.758 244.287 303.644 247.232 296.088 247.232 Z  M 310.101 232.936 L 310.215 232.936 L 310.101 232.936 Z  M 296.088 207.594 C 293.052 207.594 290.209 208.772 288.079 210.902 C 283.661 215.32 283.661 222.502 288.079 226.932 C 292.35 231.202 299.827 231.214 304.097 226.932 C 308.515 222.514 308.515 215.331 304.097 210.902 C 301.956 208.772 299.102 207.594 296.088 207.594 Z " fill="rgb(51,53,86)"/></g><g><path d=" M 204.634 326.111 C 202.459 326.111 200.284 325.285 198.63 323.619 L 159.434 284.423 C 156.251 281.24 156.104 276.119 159.106 272.766 L 212.349 213.066 C 250.174 168.84 311.642 140.111 365.588 141.119 C 370.119 141.221 373.778 144.88 373.88 149.412 C 374.786 187.781 360.716 230.206 335.262 265.788 C 332.543 269.594 327.253 270.501 323.401 267.759 C 319.583 265.029 318.711 259.727 321.43 255.91 C 342.931 225.856 355.596 190.692 356.831 158.18 C 309.943 160.026 257.991 185.855 225.127 224.247 L 177.118 278.091 L 210.638 311.611 C 213.958 314.93 213.958 320.311 210.638 323.631 C 208.973 325.285 206.809 326.111 204.634 326.111 Z " fill="rgb(51,53,86)"/></g></g></svg>