<?xml version="1.0" encoding="UTF-8" standalone="no"?><!-- Generator: Gravit.io --><svg xmlns="http://www.w3.org/2000/svg" xmlns:xlink="http://www.w3.org/1999/xlink" style="isolation:isolate" viewBox="0 0 512 512" width="512pt" height="512pt"><defs><clipPath id="_clipPath_EJh9lkHeH9FfzVBIOKQlMYHnkypV1WJE"><rect width="512" height="512"/></clipPath></defs><g clip-path="url(#_clipPath_EJh9lkHeH9FfzVBIOKQlMYHnkypV1WJE)"><path d=" M 379.463 145.655 C 390.577 130.886 397.242 112.587 397.242 92.689 C 397.242 43.934 357.721 4.413 308.966 4.413 C 270.751 4.413 238.31 28.742 226.022 62.71 L 308.966 145.654 L 379.463 145.654 L 379.463 145.655 Z " fill="rgb(236,240,241)"/><path d=" M 167.724 4.414 L 26.483 145.655 L 308.966 145.655 L 167.724 4.414 Z " fill="rgb(36,174,95)"/><path d=" M 308.966 39.724 C 279.711 39.724 256 63.435 256 92.69 L 308.966 145.656 C 338.221 145.656 361.932 121.945 361.932 92.69 C 361.932 63.435 338.22 39.724 308.966 39.724 Z " fill="rgb(189,195,199)"/><path d=" M 379.463 145.655 L 472.638 145.655 C 475.26 137.295 476.69 128.397 476.69 119.172 C 476.69 70.417 437.169 30.896 388.414 30.896 C 383.223 30.896 378.174 31.434 373.231 32.291 C 388.079 48.092 397.242 69.296 397.242 92.689 C 397.241 112.596 390.585 130.904 379.463 145.655 Z " fill="rgb(228,176,158)"/><path d=" M 379.33 145.655 L 434.238 145.655 C 438.749 137.86 441.38 128.83 441.38 119.172 C 441.38 91.559 420.247 68.908 393.278 66.454 C 395.856 74.743 397.242 83.553 397.242 92.69 C 397.241 112.631 390.497 130.895 379.33 145.655 Z " fill="rgb(218,97,56)"/><path d=" M 167.724 57.379 L 79.448 145.655 L 256 145.655 L 167.724 57.379 Z " fill="rgb(18,141,71)"/><path d=" M 481.836 507.586 L 30.164 507.586 C 13.506 507.586 0 494.08 0 477.422 L 0 166.991 C 0 150.333 13.506 136.827 30.164 136.827 L 481.845 136.827 C 498.494 136.827 512 150.333 512 166.991 L 512 477.431 C 512 494.08 498.494 507.586 481.836 507.586 Z " fill="rgb(40,43,78)"/><g><g opacity="0.55"><path d=" M 476.69 269.241 C 471.817 269.241 467.862 265.286 467.862 260.413 L 467.862 242.758 C 467.862 237.885 471.817 233.93 476.69 233.93 C 481.563 233.93 485.518 237.885 485.518 242.758 L 485.518 260.413 C 485.517 265.287 481.562 269.241 476.69 269.241 Z " fill="rgb(236,240,241)"/></g><g opacity="0.55"><path d=" M 476.69 198.621 C 471.817 198.621 467.862 194.666 467.862 189.793 L 467.862 180.965 L 459.034 180.965 C 454.161 180.965 450.206 177.01 450.206 172.137 C 450.206 167.264 454.161 163.309 459.034 163.309 L 476.689 163.309 C 481.562 163.309 485.517 167.264 485.517 172.137 L 485.517 189.792 C 485.517 194.666 481.562 198.621 476.69 198.621 Z " fill="rgb(236,240,241)"/></g><g opacity="0.55"><path d=" M 406.069 180.966 L 370.759 180.966 C 365.886 180.966 361.931 177.011 361.931 172.138 C 361.931 167.265 365.886 163.31 370.759 163.31 L 406.069 163.31 C 410.942 163.31 414.897 167.265 414.897 172.138 C 414.897 177.011 410.942 180.966 406.069 180.966 Z  M 317.793 180.966 L 282.483 180.966 C 277.61 180.966 273.655 177.011 273.655 172.138 C 273.655 167.265 277.61 163.31 282.483 163.31 L 317.793 163.31 C 322.666 163.31 326.621 167.265 326.621 172.138 C 326.621 177.011 322.666 180.966 317.793 180.966 Z  M 229.517 180.966 L 194.207 180.966 C 189.334 180.966 185.379 177.011 185.379 172.138 C 185.379 167.265 189.334 163.31 194.207 163.31 L 229.517 163.31 C 234.39 163.31 238.345 167.265 238.345 172.138 C 238.345 177.011 234.39 180.966 229.517 180.966 Z  M 141.241 180.966 L 105.931 180.966 C 101.058 180.966 97.103 177.011 97.103 172.138 C 97.103 167.265 101.058 163.31 105.931 163.31 L 141.241 163.31 C 146.114 163.31 150.069 167.265 150.069 172.138 C 150.069 177.011 146.114 180.966 141.241 180.966 Z " fill="rgb(236,240,241)"/></g><g opacity="0.55"><path d=" M 35.31 198.621 C 30.437 198.621 26.482 194.666 26.482 189.793 L 26.482 172.138 C 26.482 167.265 30.437 163.31 35.31 163.31 L 52.965 163.31 C 57.838 163.31 61.793 167.265 61.793 172.138 C 61.793 177.011 57.838 180.966 52.965 180.966 L 44.137 180.966 L 44.137 189.794 C 44.138 194.666 40.183 198.621 35.31 198.621 Z " fill="rgb(236,240,241)"/></g><g opacity="0.55"><path d=" M 35.31 402.335 C 30.437 402.335 26.482 398.38 26.482 393.507 L 26.482 352.768 C 26.482 347.895 30.437 343.94 35.31 343.94 C 40.183 343.94 44.138 347.895 44.138 352.768 L 44.138 393.507 C 44.138 398.38 40.183 402.335 35.31 402.335 Z  M 35.31 300.473 C 30.437 300.473 26.482 296.518 26.482 291.645 L 26.482 250.906 C 26.482 246.033 30.437 242.078 35.31 242.078 C 40.183 242.078 44.138 246.033 44.138 250.906 L 44.138 291.645 C 44.138 296.519 40.183 300.473 35.31 300.473 Z " fill="rgb(236,240,241)"/></g><g opacity="0.55"><path d=" M 52.966 481.103 L 35.31 481.103 C 30.437 481.103 26.482 477.148 26.482 472.275 L 26.482 454.62 C 26.482 449.747 30.437 445.792 35.31 445.792 C 40.183 445.792 44.138 449.747 44.138 454.62 L 44.138 463.448 L 52.966 463.448 C 57.839 463.448 61.794 467.403 61.794 472.276 C 61.793 477.149 57.838 481.103 52.966 481.103 Z " fill="rgb(236,240,241)"/></g><g opacity="0.55"><path d=" M 406.069 481.103 L 370.759 481.103 C 365.886 481.103 361.931 477.148 361.931 472.275 C 361.931 467.402 365.886 463.447 370.759 463.447 L 406.069 463.447 C 410.942 463.447 414.897 467.402 414.897 472.275 C 414.897 477.149 410.942 481.103 406.069 481.103 Z  M 317.793 481.103 L 282.483 481.103 C 277.61 481.103 273.655 477.148 273.655 472.275 C 273.655 467.402 277.61 463.447 282.483 463.447 L 317.793 463.447 C 322.666 463.447 326.621 467.402 326.621 472.275 C 326.621 477.149 322.666 481.103 317.793 481.103 Z  M 229.517 481.103 L 194.207 481.103 C 189.334 481.103 185.379 477.148 185.379 472.275 C 185.379 467.402 189.334 463.447 194.207 463.447 L 229.517 463.447 C 234.39 463.447 238.345 467.402 238.345 472.275 C 238.345 477.149 234.39 481.103 229.517 481.103 Z  M 141.241 481.103 L 105.931 481.103 C 101.058 481.103 97.103 477.148 97.103 472.275 C 97.103 467.402 101.058 463.447 105.931 463.447 L 141.241 463.447 C 146.114 463.447 150.069 467.402 150.069 472.275 C 150.069 477.149 146.114 481.103 141.241 481.103 Z " fill="rgb(236,240,241)"/></g><g opacity="0.55"><path d=" M 476.69 481.103 L 459.035 481.103 C 454.162 481.103 450.207 477.148 450.207 472.275 C 450.207 467.402 454.162 463.447 459.035 463.447 L 467.863 463.447 L 467.863 454.619 C 467.863 449.746 471.818 445.791 476.691 445.791 C 481.564 445.791 485.519 449.746 485.519 454.619 L 485.519 472.274 C 485.517 477.149 481.562 481.103 476.69 481.103 Z " fill="rgb(236,240,241)"/></g><g opacity="0.55"><path d=" M 476.69 410.483 C 471.817 410.483 467.862 406.528 467.862 401.655 L 467.862 384 C 467.862 379.127 471.817 375.172 476.69 375.172 C 481.563 375.172 485.518 379.127 485.518 384 L 485.518 401.655 C 485.517 406.528 481.562 410.483 476.69 410.483 Z " fill="rgb(236,240,241)"/></g></g><path d=" M 512 384 L 397.241 384 C 363.114 384 335.448 356.334 335.448 322.207 L 335.448 322.207 C 335.448 288.08 363.114 260.414 397.241 260.414 L 512 260.414 L 512 384 L 512 384 Z " fill="rgb(68,72,121)"/><circle vector-effect="non-scaling-stroke" cx="397.241" cy="322.207" r="26.483000000000004" fill="rgb(236,240,241)"/><path d=" M 476.69 348.69 C 471.817 348.69 467.862 344.735 467.862 339.862 L 467.862 304.552 C 467.862 299.679 471.817 295.724 476.69 295.724 C 481.563 295.724 485.518 299.679 485.518 304.552 L 485.518 339.862 C 485.517 344.735 481.562 348.69 476.69 348.69 Z " fill="rgb(148,151,167)"/><g opacity="0.75"><path d=" M 253.476 304.731 L 253.476 261.889 C 253.476 252.244 245.645 244.413 236 244.414 L 236 244.414 C 226.355 244.413 218.524 252.244 218.524 261.889 L 218.524 304.731 L 175.683 304.731 C 166.038 304.731 158.207 312.561 158.207 322.207 L 158.207 322.207 C 158.207 331.852 166.038 339.682 175.683 339.682 L 218.524 339.682 L 218.524 382.524 C 218.524 392.169 226.355 400 236 400 L 236 400 C 245.645 400 253.476 392.169 253.476 382.524 L 253.476 339.682 L 296.317 339.682 C 305.962 339.682 313.793 331.852 313.793 322.207 L 313.793 322.207 C 313.793 312.561 305.962 304.731 296.317 304.731 L 253.476 304.731 Z " fill-rule="evenodd" fill="rgb(236,240,241)"/></g></g></svg>