<?xml version="1.0" encoding="utf-8"?>
<!-- Generator: Adobe Illustrator 24.0.1, SVG Export Plug-In . SVG Version: 6.00 Build 0)  -->
<svg version="1.1" id="artwork" xmlns="http://www.w3.org/2000/svg" xmlns:xlink="http://www.w3.org/1999/xlink" x="0px" y="0px"
	 viewBox="0 0 155 60" style="enable-background:new 0 0 155 60;" xml:space="preserve">
<style type="text/css">
	.st0{fill:#A6A6A6;}
	.st1{fill:#FFFFFF;}
	.st2{fill:#FFFFFF;stroke:#FFFFFF;stroke-width:0.2;stroke-miterlimit:10;}
	.st3{fill:url(#SVGID_1_);}
	.st4{fill:url(#SVGID_2_);}
	.st5{fill:url(#SVGID_3_);}
	.st6{fill:url(#SVGID_4_);}
	.st7{opacity:0.2;enable-background:new    ;}
	.st8{opacity:0.12;enable-background:new    ;}
	.st9{opacity:0.25;fill:#FFFFFF;enable-background:new    ;}
</style>
<g>
	<g>
		<g>
			<path class="st0" d="M142.7,4.4H12.9c-0.5,0-0.9,0-1.4,0c-0.4,0-0.8,0-1.2,0c-0.9,0-1.7,0.1-2.6,0.2C6.8,4.8,6,5,5.2,5.4
				C4.5,5.8,3.8,6.3,3.1,6.9C2.5,7.6,2,8.3,1.6,9C1.2,9.8,1,10.6,0.8,11.5c-0.1,0.9-0.2,1.7-0.2,2.6c0,0.4,0,0.8,0,1.2v29.8
				c0,0.4,0,0.8,0,1.2c0,0.9,0.1,1.7,0.2,2.6c0.1,0.9,0.4,1.7,0.8,2.5c0.4,0.8,0.9,1.5,1.5,2.1c0.6,0.6,1.3,1.1,2.1,1.5
				c0.8,0.4,1.6,0.7,2.5,0.8c0.9,0.1,1.7,0.2,2.6,0.2c0.4,0,0.8,0,1.2,0c0.5,0,0.9,0,1.4,0h129.8c0.5,0,0.9,0,1.4,0
				c0.4,0,0.8,0,1.2,0c0.9,0,1.7-0.1,2.6-0.2c0.9-0.1,1.7-0.4,2.5-0.8c0.8-0.4,1.5-0.9,2.1-1.5c0.6-0.6,1.1-1.3,1.5-2.1
				c0.4-0.8,0.7-1.6,0.8-2.5c0.1-0.9,0.2-1.7,0.2-2.6c0-0.4,0-0.8,0-1.2c0-0.5,0-0.9,0-1.4v-27c0-0.5,0-0.9,0-1.4c0-0.4,0-0.8,0-1.2
				c0-0.9-0.1-1.7-0.2-2.6c-0.1-0.9-0.4-1.7-0.8-2.5c-0.8-1.6-2.1-2.8-3.6-3.6c-0.8-0.4-1.6-0.7-2.5-0.8c-0.9-0.1-1.7-0.2-2.6-0.2
				c-0.4,0-0.8,0-1.2,0C143.6,4.4,143.2,4.4,142.7,4.4L142.7,4.4z"/>
			<path d="M11.5,54.9c-0.4,0-0.8,0-1.2,0c-0.8,0-1.6-0.1-2.4-0.2c-0.7-0.1-1.5-0.4-2.1-0.7c-0.7-0.3-1.3-0.8-1.8-1.3
				c-0.5-0.5-1-1.1-1.3-1.8c-0.3-0.7-0.6-1.4-0.7-2.1c-0.1-0.8-0.2-1.6-0.2-2.4c0-0.3,0-1.2,0-1.2V15.3c0,0,0-0.9,0-1.2
				c0-0.8,0.1-1.6,0.2-2.4C2,11,2.3,10.2,2.6,9.6C3,8.9,3.4,8.3,3.9,7.7c0.5-0.5,1.1-1,1.8-1.3c0.7-0.3,1.4-0.6,2.1-0.7
				c0.8-0.1,1.6-0.2,2.4-0.2l1.2,0h132.6l1.2,0c0.8,0,1.6,0.1,2.4,0.2c0.7,0.1,1.5,0.4,2.2,0.7c1.3,0.7,2.4,1.8,3.1,3.1
				c0.3,0.7,0.6,1.4,0.7,2.1c0.1,0.8,0.2,1.6,0.2,2.4c0,0.4,0,0.8,0,1.1c0,0.5,0,0.9,0,1.4v27c0,0.5,0,0.9,0,1.4c0,0.4,0,0.8,0,1.2
				c0,0.8-0.1,1.6-0.2,2.4c-0.1,0.7-0.4,1.5-0.7,2.2c-0.3,0.7-0.8,1.3-1.3,1.8c-0.5,0.5-1.1,1-1.8,1.3c-0.7,0.3-1.4,0.6-2.2,0.7
				c-0.8,0.1-1.6,0.2-2.4,0.2c-0.4,0-0.8,0-1.2,0l-1.4,0L11.5,54.9z"/>
		</g>
		<g id="_Group__1_">
			<g id="_Group_2_1_">
				<g id="_Group_3_1_">
					<path id="_Path__1_" class="st1" d="M32.5,30.6c0-2.2,1.2-4.2,3-5.4c-1.2-1.7-3.1-2.7-5.2-2.8c-2.2-0.2-4.3,1.3-5.4,1.3
						c-1.1,0-2.8-1.3-4.7-1.2c-2.4,0.1-4.6,1.4-5.8,3.5c-2.5,4.3-0.6,10.7,1.8,14.2c1.2,1.7,2.6,3.6,4.4,3.6
						c1.8-0.1,2.5-1.1,4.6-1.1c2.1,0,2.8,1.1,4.6,1.1c1.9,0,3.1-1.7,4.3-3.4c0.9-1.2,1.5-2.6,2-4C34,35.3,32.5,33,32.5,30.6z"/>
					<path id="_Path_2_1_" class="st1" d="M29,20.1c1-1.3,1.6-2.9,1.4-4.5c-1.6,0.2-3.1,0.9-4.1,2.1c-1,1.2-1.6,2.8-1.5,4.3
						C26.4,22.1,28,21.4,29,20.1z"/>
				</g>
			</g>
			<g>
				<path class="st1" d="M55.2,39.4H49l-1.5,4.3H45l5.8-16h2.7l5.8,16h-2.6L55.2,39.4z M49.7,37.4h4.8l-2.4-7h-0.1L49.7,37.4z"/>
				<path class="st1" d="M71.7,37.9c0,3.6-1.9,6-4.9,6c-1.5,0.1-2.9-0.7-3.7-2h-0.1v5.8h-2.4V32h2.3V34h0c0.8-1.3,2.2-2.1,3.7-2.1
					C69.8,31.9,71.7,34.3,71.7,37.9z M69.3,37.9c0-2.4-1.2-3.9-3.1-3.9c-1.8,0-3.1,1.6-3.1,3.9c0,2.4,1.2,3.9,3.1,3.9
					C68.1,41.8,69.3,40.3,69.3,37.9z"/>
				<path class="st1" d="M84.6,37.9c0,3.6-1.9,6-4.9,6c-1.5,0.1-2.9-0.7-3.7-2H76v5.8h-2.4V32h2.3V34h0c0.8-1.3,2.2-2.1,3.7-2.1
					C82.7,31.9,84.6,34.3,84.6,37.9z M82.1,37.9c0-2.4-1.2-3.9-3.1-3.9c-1.8,0-3.1,1.6-3.1,3.9c0,2.4,1.2,3.9,3.1,3.9
					C80.9,41.8,82.1,40.3,82.1,37.9L82.1,37.9z"/>
				<path class="st1" d="M93.1,39.3c0.2,1.6,1.7,2.6,3.8,2.6c2,0,3.5-1,3.5-2.5c0-1.2-0.9-2-3-2.5l-2.1-0.5
					c-2.9-0.7-4.3-2.1-4.3-4.3c0-2.8,2.4-4.7,5.8-4.7c3.4,0,5.7,1.9,5.8,4.7h-2.4c-0.1-1.6-1.5-2.6-3.4-2.6c-1.9,0-3.3,1-3.3,2.4
					c0,1.1,0.8,1.8,2.9,2.3l1.8,0.4c3.3,0.8,4.7,2.1,4.7,4.4c0,3-2.4,4.9-6.2,4.9c-3.6,0-6-1.8-6.1-4.7L93.1,39.3z"/>
				<path class="st1" d="M108.1,29.3V32h2.2v1.9h-2.2v6.4c0,1,0.4,1.5,1.4,1.5c0.3,0,0.5,0,0.8-0.1v1.9c-0.4,0.1-0.9,0.1-1.3,0.1
					c-2.4,0-3.3-0.9-3.3-3.2v-6.7H104V32h1.7v-2.8H108.1z"/>
				<path class="st1" d="M111.6,37.9c0-3.7,2.2-6,5.5-6c3.4,0,5.5,2.3,5.5,6c0,3.7-2.1,6-5.5,6C113.8,43.9,111.6,41.6,111.6,37.9z
					 M120.3,37.9c0-2.5-1.2-4-3.1-4c-1.9,0-3.1,1.5-3.1,4c0,2.5,1.2,4,3.1,4C119.1,41.9,120.3,40.4,120.3,37.9L120.3,37.9z"/>
				<path class="st1" d="M124.7,32h2.3v2h0.1c0.3-1.3,1.5-2.2,2.8-2.1c0.3,0,0.6,0,0.8,0.1v2.2c-0.3-0.1-0.7-0.2-1.1-0.1
					c-1.3-0.1-2.5,1-2.5,2.3c0,0.1,0,0.2,0,0.4v6.9h-2.4L124.7,32z"/>
				<path class="st1" d="M141.7,40.3c-0.3,2.1-2.4,3.6-5,3.6c-3.4,0-5.5-2.3-5.5-5.9c0-3.7,2.1-6,5.4-6c3.2,0,5.3,2.2,5.3,5.8v0.8
					h-8.3v0.1c-0.1,1.7,1.1,3.2,2.8,3.3c0.1,0,0.3,0,0.4,0c1.2,0.1,2.3-0.6,2.7-1.6L141.7,40.3z M133.6,36.8h5.8
					c0.1-1.5-1.1-2.9-2.6-3c-0.1,0-0.1,0-0.2,0C135,33.8,133.6,35.1,133.6,36.8C133.6,36.8,133.6,36.8,133.6,36.8z"/>
			</g>
		</g>
	</g>
	<g id="_Group_4_1_">
		<g>
			<path class="st1" d="M49.4,15.6c1.9-0.1,3.5,1.3,3.6,3.2c0,0.2,0,0.4,0,0.7c0,2.5-1.3,3.9-3.6,3.9h-2.8v-7.7H49.4z M47.8,22.2
				h1.5c1.3,0.1,2.5-0.9,2.6-2.3c0-0.2,0-0.3,0-0.5c0.2-1.3-0.7-2.6-2.1-2.7c-0.2,0-0.3,0-0.5,0h-1.5V22.2z"/>
			<path class="st1" d="M54.4,20.4c-0.1-1.5,1-2.9,2.5-3c1.5-0.1,2.9,1,3,2.5c0,0.2,0,0.3,0,0.5c0.1,1.5-1,2.9-2.5,3
				c-1.5,0.1-2.9-1-3-2.5C54.3,20.8,54.3,20.6,54.4,20.4z M58.7,20.4c0-1.3-0.6-2-1.6-2c-1,0-1.6,0.7-1.6,2c0,1.3,0.6,2,1.6,2
				C58.1,22.4,58.7,21.7,58.7,20.4L58.7,20.4z"/>
			<path class="st1" d="M67.1,23.3h-1.2l-1.2-4.3h-0.1l-1.2,4.3h-1.2l-1.6-5.8h1.2l1,4.4H63l1.2-4.4h1.1l1.2,4.4h0.1l1-4.4h1.1
				L67.1,23.3z"/>
			<path class="st1" d="M70.1,17.5h1.1v0.9h0.1c0.3-0.7,1-1.1,1.7-1c1-0.1,1.9,0.7,2,1.7c0,0.1,0,0.3,0,0.4v3.8h-1.1v-3.5
				c0-0.9-0.4-1.4-1.3-1.4c-0.7,0-1.4,0.5-1.4,1.3c0,0.1,0,0.1,0,0.2v3.4h-1.1L70.1,17.5z"/>
			<path class="st1" d="M76.8,15.3H78v8.1h-1.1V15.3z"/>
			<path class="st1" d="M79.6,20.4c-0.1-1.5,1-2.9,2.5-3c1.5-0.1,2.9,1,3,2.5c0,0.2,0,0.3,0,0.5c0.1,1.5-1,2.9-2.5,3
				c-1.5,0.1-2.9-1-3-2.5C79.5,20.8,79.5,20.6,79.6,20.4z M83.9,20.4c0-1.3-0.6-2-1.6-2c-1,0-1.6,0.7-1.6,2c0,1.3,0.6,2,1.6,2
				C83.3,22.4,83.9,21.7,83.9,20.4z"/>
			<path class="st1" d="M86.3,21.7c0-1,0.8-1.6,2.2-1.7l1.6-0.1v-0.5c0-0.6-0.4-1-1.2-1c-0.6,0-1.1,0.2-1.2,0.6h-1.1
				c0.1-1,1.1-1.6,2.4-1.6c1.5,0,2.3,0.7,2.3,2v4H90v-0.8h-0.1c-0.4,0.6-1,0.9-1.7,0.9c-1,0.1-1.8-0.6-1.9-1.6
				C86.3,21.8,86.3,21.8,86.3,21.7z M90,21.2v-0.5l-1.4,0.1c-0.8,0.1-1.2,0.3-1.2,0.8c0,0.5,0.5,0.8,1.1,0.8
				C89.2,22.5,89.9,22,90,21.2C90,21.2,90,21.2,90,21.2z"/>
			<path class="st1" d="M92.6,20.4c0-1.8,0.9-3,2.4-3c0.7,0,1.4,0.4,1.8,1h0.1v-3.2h1.1v8.1H97v-0.9h-0.1c-0.4,0.7-1.1,1-1.8,1
				C93.6,23.4,92.6,22.3,92.6,20.4z M93.8,20.4c0,1.2,0.6,2,1.6,2c1,0,1.6-0.8,1.6-2c0-1.2-0.6-2-1.6-2
				C94.4,18.5,93.8,19.2,93.8,20.4L93.8,20.4z"/>
			<path class="st1" d="M102.8,20.4c-0.1-1.5,1-2.9,2.5-3s2.9,1,3,2.5c0,0.2,0,0.3,0,0.5c0.1,1.5-1,2.9-2.5,3s-2.9-1-3-2.5
				C102.8,20.8,102.8,20.6,102.8,20.4z M107.1,20.4c0-1.3-0.6-2-1.6-2c-1,0-1.6,0.7-1.6,2c0,1.3,0.6,2,1.6,2
				C106.5,22.4,107.1,21.7,107.1,20.4z"/>
			<path class="st1" d="M109.8,17.5h1.1v0.9h0.1c0.3-0.7,1-1.1,1.7-1c1-0.1,1.9,0.7,2,1.7c0,0.1,0,0.3,0,0.4v3.8h-1.1v-3.5
				c0-0.9-0.4-1.4-1.3-1.4c-0.7,0-1.4,0.5-1.4,1.3c0,0.1,0,0.1,0,0.2v3.4h-1.1V17.5z"/>
			<path class="st1" d="M121.2,16.1v1.5h1.3v1h-1.3v3c0,0.6,0.3,0.9,0.8,0.9c0.1,0,0.3,0,0.4,0v1c-0.2,0-0.4,0.1-0.6,0.1
				c-1.3,0-1.8-0.4-1.8-1.6v-3.3h-0.9v-1h0.9v-1.5H121.2z"/>
			<path class="st1" d="M124.1,15.3h1.1v3.2h0.1c0.3-0.7,1-1.1,1.8-1c1.1-0.1,2,0.8,2,1.8c0,0.1,0,0.2,0,0.4v3.8h-1.1v-3.5
				c0-0.9-0.4-1.4-1.2-1.4c-0.7-0.1-1.4,0.5-1.5,1.2c0,0.1,0,0.2,0,0.2v3.4h-1.1L124.1,15.3z"/>
			<path class="st1" d="M135.8,21.8c-0.3,1.1-1.4,1.8-2.5,1.7c-1.5,0-2.7-1.1-2.7-2.6c0-0.1,0-0.3,0-0.4c-0.2-1.5,0.8-2.8,2.3-3
				c0.1,0,0.3,0,0.4,0c1.6,0,2.6,1.1,2.6,2.9v0.4h-4.1v0.1c-0.1,0.8,0.6,1.6,1.4,1.7c0,0,0.1,0,0.1,0c0.6,0.1,1.1-0.2,1.4-0.7
				L135.8,21.8z M131.7,19.9h2.9c0.1-0.8-0.5-1.4-1.3-1.5c0,0-0.1,0-0.1,0C132.4,18.4,131.7,19,131.7,19.9
				C131.7,19.9,131.7,19.9,131.7,19.9L131.7,19.9z"/>
		</g>
	</g>
</g>
</svg>
