<svg width="71" height="71" viewBox="0 0 71 71" fill="none" xmlns="http://www.w3.org/2000/svg">
<path d="M57.2233 70.4286H13.2054C5.9116 70.4286 0 64.517 0 57.2233V13.2054C0 5.9116 5.9116 0 13.2054 0H57.2233C64.517 0 70.4286 5.9116 70.4286 13.2054V57.2233C70.4286 64.517 64.517 70.4286 57.2233 70.4286Z" fill="#FFE6E2"/>
<path d="M51.7213 30.8117C52.3287 30.8117 52.8217 30.3187 52.8217 29.7112V27.5103C52.8217 27.1032 52.5972 26.7312 52.2385 26.5398L35.7318 17.7362C35.4083 17.5645 35.0209 17.5645 34.6974 17.7362L18.1907 26.5398C17.8319 26.7312 17.6074 27.1032 17.6074 27.5103V29.7112C17.6074 30.3187 18.1004 30.8117 18.7079 30.8117H22.0092V48.4188H19.0754C18.2633 48.4188 17.6074 49.0747 17.6074 49.8868V51.3548C17.6074 52.1648 18.2633 52.8206 19.0754 52.8206H51.3559C52.1659 52.8206 52.8217 52.1648 52.8217 51.3526V49.8846C52.8217 49.0747 52.1659 48.4188 51.3537 48.4188H48.4199V30.8117H51.7213ZM45.4862 48.4188H24.9452V30.8117H45.4862V48.4188Z" fill="#FC573B"/>
<path d="M34.6575 40.7173H35.7733C36.2751 40.7173 36.6823 41.1266 36.6823 41.6417C36.6823 42.1435 36.2729 42.5506 35.7733 42.5506H32.6481C32.0406 42.5506 31.5476 43.0436 31.5476 43.6511C31.5476 44.2585 32.0406 44.7515 32.6481 44.7515H34.1139V45.852C34.1139 46.4594 34.6069 46.9524 35.2143 46.9524C35.8217 46.9524 36.3147 46.4594 36.3147 45.852V44.6965C37.7717 44.4368 38.8832 43.1691 38.8832 41.6262C38.8832 39.9118 37.4878 38.5164 35.7733 38.5164H34.6575C34.1557 38.5164 33.7485 38.107 33.7485 37.592C33.7485 37.0902 34.1579 36.683 34.6575 36.683H37.7827C38.3902 36.683 38.8832 36.19 38.8832 35.5826C38.8832 34.9751 38.3902 34.4821 37.7827 34.4821H36.3147V33.3817C36.3147 32.7743 35.8217 32.2812 35.2143 32.2812C34.6069 32.2812 34.1139 32.7743 34.1139 33.3817V34.5372C32.6569 34.7969 31.5454 36.0646 31.5454 37.6074C31.5454 39.3219 32.9408 40.7173 34.6575 40.7173Z" fill="#FD907E"/>
</svg>
