<svg width="150" height="141" viewBox="0 0 150 141" fill="none" xmlns="http://www.w3.org/2000/svg">
<path fill-rule="evenodd" clip-rule="evenodd" d="M98.7075 94.507V99.7637C98.7075 105.11 94.3593 109.459 89.0126 109.459H56.6948C51.3481 109.459 47 105.11 47 99.7637V41.5946C47 36.2479 51.3481 31.8998 56.6948 31.8998H89.0126C94.3593 31.8998 98.7075 36.2479 98.7075 41.5946V46.3543H92.2459V41.5946C92.2459 39.8059 90.7965 38.3614 89.0126 38.3614H87.3984C85.6097 38.3614 84.1652 39.8108 84.1652 41.5946C84.1652 43.3785 82.7207 44.8279 80.9271 44.8279H64.7707C62.982 44.8279 61.5374 43.3785 61.5374 41.5946C61.5374 39.8059 60.088 38.3614 58.3042 38.3614H56.69C54.9013 38.3614 53.4568 39.8108 53.4568 41.5946V99.7637C53.4568 101.548 54.9061 102.997 56.69 102.997H89.0078C90.7965 102.997 92.241 101.548 92.241 99.7637V94.507H98.7075Z" fill="#A91F23"/>
<path d="M120.847 52.8534H80.4191C77.0286 52.8534 74.2656 55.6111 74.2656 59.0069V81.8544C74.2656 85.2449 77.0234 88.0079 80.4191 88.0079H120.847C124.237 88.0079 127 85.2502 127 81.8544V59.0069C126.995 55.6164 124.237 52.8534 120.847 52.8534ZM85.692 73.0697H83.9361C82.4808 73.0697 81.2997 71.8886 81.2997 70.4333C81.2997 68.978 82.4808 67.7968 83.9361 67.7968H85.692C87.1474 67.7968 88.3285 68.978 88.3285 70.4333C88.3285 71.8886 87.1474 73.0697 85.692 73.0697ZM100.63 77.4621C96.7546 77.4621 93.6014 74.3089 93.6014 70.4333C93.6014 66.5577 96.7546 63.4045 100.63 63.4045C104.506 63.4045 107.659 66.5577 107.659 70.4333C107.664 74.3089 104.511 77.4621 100.63 77.4621ZM117.33 73.0697H115.574C114.118 73.0697 112.937 71.8886 112.937 70.4333C112.937 68.978 114.118 67.7968 115.574 67.7968H117.33C118.785 67.7968 119.966 68.978 119.966 70.4333C119.966 71.8886 118.785 73.0697 117.33 73.0697Z" fill="#A91F23"/>
</svg>
