<svg width="150" height="141" viewBox="0 0 150 141" fill="none" xmlns="http://www.w3.org/2000/svg">
<path d="M75.9975 70.3585C78.7587 70.3585 80.9972 68.1201 80.9972 65.3588C80.9972 62.5976 78.7587 60.3591 75.9975 60.3591C73.2362 60.3591 70.9978 62.5976 70.9978 65.3588C70.9978 68.1201 73.2362 70.3585 75.9975 70.3585Z" fill="#A91F23"/>
<path d="M106.831 35.3607H45.1644C40.1097 35.3607 36 39.4705 36 44.5251V89.5223C36 94.577 40.1097 98.6868 45.1644 98.6868H49.3292V112.856C49.3292 113.876 49.9541 114.801 50.8991 115.176C51.204 115.296 51.519 115.356 51.834 115.356C52.504 115.356 53.1639 115.086 53.6489 114.576L68.743 98.6868H106.836C111.89 98.6868 116 94.577 116 89.5223V44.5251C115.995 39.4705 111.885 35.3607 106.831 35.3607ZM95.9963 71.1935C95.9963 75.3282 92.6315 78.693 88.4967 78.693C85.2519 78.693 82.5071 76.6081 81.4672 73.7133C79.8923 74.7483 78.0174 75.3582 75.9975 75.3582C70.4828 75.3582 65.9981 70.8735 65.9981 65.3588C65.9981 59.8442 70.4828 55.3595 75.9975 55.3595C81.5122 55.3595 85.9969 59.8442 85.9969 65.3588V71.1935C85.9969 72.5684 87.1218 73.6933 88.4967 73.6933C89.8716 73.6933 90.9966 72.5684 90.9966 71.1935V65.3588C90.9966 57.0894 84.267 50.3598 75.9975 50.3598C67.728 50.3598 60.9984 57.0894 60.9984 65.3588C60.9984 73.6283 67.728 80.3579 75.9975 80.3579C77.3774 80.3579 78.4973 81.4778 78.4973 82.8577C78.4973 84.2377 77.3774 85.3576 75.9975 85.3576C64.9682 85.3576 55.9988 76.3882 55.9988 65.3588C55.9988 54.3295 64.9682 45.3601 75.9975 45.3601C87.0268 45.3601 95.9963 54.3295 95.9963 65.3588V71.1935Z" fill="#A91F23"/>
</svg>
