<?xml version="1.0" encoding="UTF-8" standalone="no"?><!-- Generator: Gravit.io --><svg xmlns="http://www.w3.org/2000/svg" xmlns:xlink="http://www.w3.org/1999/xlink" style="isolation:isolate" viewBox="0 0 60 40" width="60pt" height="40pt"><defs><clipPath id="_clipPath_ZQHrD1whTzzjfVlwkGWKrmQtcVJ7N5OG"><rect width="60" height="40"/></clipPath></defs><g clip-path="url(#_clipPath_ZQHrD1whTzzjfVlwkGWKrmQtcVJ7N5OG)"><path d=" M 43.158 8.099 C 51.781 12.072 57.67 18.499 58.02 18.888 L 58.02 18.888 C 58.586 19.521 58.586 20.479 58.02 21.112 C 57.512 21.678 45.298 35 30 35 C 29.871 35 29.742 34.999 29.613 34.997 L 31.328 31.592 L 31.328 31.592 C 37.138 30.93 41.667 25.983 41.667 20 C 41.667 17.877 41.097 15.885 40.102 14.168 L 43.158 8.099 Z  M 32.35 5.104 C 31.576 5.036 30.792 5 30 5 C 14.702 5 2.488 18.322 1.98 18.888 C 1.414 19.521 1.414 20.479 1.98 21.112 C 2.352 21.526 8.98 28.758 18.496 32.617 L 21.072 27.501 C 19.364 25.472 18.333 22.854 18.333 20 C 18.333 13.568 23.568 8.333 30 8.333 C 30.239 8.333 30.477 8.341 30.713 8.355 L 32.35 5.104 Z " fill-rule="evenodd" fill="rgb(255,255,255)"/><path d=" M 29.016 11.724 C 24.883 12.213 21.667 15.738 21.667 20 C 21.667 21.504 22.067 22.916 22.767 24.135 L 29.016 11.724 Z  M 33.317 27.641 C 35.842 26.534 37.712 24.204 38.191 21.405 C 37.559 21.608 36.934 21.683 36.335 21.649 L 33.317 27.641 Z " fill-rule="evenodd" fill="rgb(255,255,255)"/><path d="M 40.857 0.501 L 40.857 0.501 C 41.935 1.064 42.352 2.395 41.789 3.473 L 23.445 38.568 C 22.882 39.645 21.55 40.062 20.473 39.499 L 20.473 39.499 C 19.395 38.936 18.978 37.605 19.541 36.527 L 37.885 1.432 C 38.448 0.355 39.78 -0.062 40.857 0.501 Z" style="stroke:none;fill:#FFFFFF;stroke-miterlimit:10;"/></g></svg>