<?xml version="1.0" encoding="utf-8"?>
<!-- Generator: Adobe Illustrator 24.0.1, SVG Export Plug-In . SVG Version: 6.00 Build 0)  -->
<svg version="1.1" id="Layer_1" xmlns="http://www.w3.org/2000/svg" xmlns:xlink="http://www.w3.org/1999/xlink" x="0px" y="0px"
	 viewBox="0 0 290 64" style="enable-background:new 0 0 290 64;" xml:space="preserve">
<style type="text/css">
	.st0{opacity:0;fill:#E5E5E5;}
	.st1{fill:#F4F4F4;}
	.st2{fill:#E5E5E5;}
	.st3{opacity:0.8;fill:#E5E5E5;}
	.st4{opacity:0.5;}
	.st5{opacity:0.45;}
	.st6{opacity:0.3;}
</style>
<rect x="0" y="0.1" class="st0" width="290" height="62.4"/>
<g>
	<path class="st1" d="M50.9,62.3h-48c-1.5,0-2.8-1.2-2.8-2.8V2.8c0-1.5,1.2-2.8,2.8-2.8h48c1.5,0,2.8,1.2,2.8,2.8v56.7
		C53.6,61.1,52.4,62.3,50.9,62.3z"/>
	<circle class="st2" cx="26.9" cy="23.5" r="17.8"/>
	<path class="st3" d="M45.2,53.8H8.5c-0.8,0-1.4-0.6-1.4-1.4v-4.2c0-0.8,0.6-1.4,1.4-1.4h36.7c0.8,0,1.4,0.6,1.4,1.4v4.2
		C46.6,53.1,46,53.8,45.2,53.8z"/>
</g>
<g class="st4">
	<path class="st1" d="M109,62.3H61c-1.5,0-2.8-1.2-2.8-2.8V2.8c0-1.5,1.2-2.8,2.8-2.8h48c1.5,0,2.8,1.2,2.8,2.8v56.7
		C111.7,61.1,110.5,62.3,109,62.3z"/>
	<circle class="st2" cx="85" cy="23.5" r="17.8"/>
	<path class="st3" d="M103.4,53.8H66.6c-0.8,0-1.4-0.6-1.4-1.4v-4.2c0-0.8,0.6-1.4,1.4-1.4h36.7c0.8,0,1.4,0.6,1.4,1.4v4.2
		C104.7,53.1,104.1,53.8,103.4,53.8z"/>
</g>
<g>
	<path class="st1" d="M169.6,62.3h-48c-1.5,0-2.8-1.2-2.8-2.8V2.8c0-1.5,1.2-2.8,2.8-2.8h48c1.5,0,2.8,1.2,2.8,2.8v56.7
		C172.3,61.1,171.1,62.3,169.6,62.3z"/>
	<circle class="st2" cx="145.6" cy="23.5" r="17.8"/>
	<path class="st3" d="M163.9,53.8h-36.7c-0.8,0-1.4-0.6-1.4-1.4v-4.2c0-0.8,0.6-1.4,1.4-1.4h36.7c0.8,0,1.4,0.6,1.4,1.4v4.2
		C165.3,53.1,164.7,53.8,163.9,53.8z"/>
</g>
<g class="st5">
	<path class="st1" d="M227.7,62.3h-48c-1.5,0-2.8-1.2-2.8-2.8V2.8c0-1.5,1.2-2.8,2.8-2.8h48c1.5,0,2.8,1.2,2.8,2.8v56.7
		C230.4,61.1,229.2,62.3,227.7,62.3z"/>
	<circle class="st2" cx="203.7" cy="23.5" r="17.8"/>
	<path class="st3" d="M222.1,53.8h-36.7c-0.8,0-1.4-0.6-1.4-1.4v-4.2c0-0.8,0.6-1.4,1.4-1.4h36.7c0.8,0,1.4,0.6,1.4,1.4v4.2
		C223.4,53.1,222.8,53.8,222.1,53.8z"/>
</g>
<g class="st6">
	<path class="st1" d="M287.2,62.3h-48c-1.5,0-2.8-1.2-2.8-2.8V2.8c0-1.5,1.2-2.8,2.8-2.8h48c1.5,0,2.8,1.2,2.8,2.8v56.7
		C289.9,61.1,288.7,62.3,287.2,62.3z"/>
	<circle class="st2" cx="263.2" cy="23.5" r="17.8"/>
	<path class="st3" d="M281.5,53.8h-36.7c-0.8,0-1.4-0.6-1.4-1.4v-4.2c0-0.8,0.6-1.4,1.4-1.4h36.7c0.8,0,1.4,0.6,1.4,1.4v4.2
		C282.9,53.1,282.3,53.8,281.5,53.8z"/>
</g>
</svg>
