<?xml version="1.0" encoding="iso-8859-1"?>
<!-- Generator: Adobe Illustrator 19.0.0, SVG Export Plug-In . SVG Version: 6.00 Build 0)  -->
<svg version="1.1" id="Capa_1" xmlns="http://www.w3.org/2000/svg" xmlns:xlink="http://www.w3.org/1999/xlink" x="0px" y="0px"
	 viewBox="0 0 512 512" style="enable-background:new 0 0 512 512;" xml:space="preserve">
<path style="fill:#4A5660;" d="M215.487,512h239.61c21.182,0,38.354-17.172,38.354-38.354V38.354C493.45,17.172,476.279,0,455.096,0
	h-239.61c-21.182,0-38.354,17.172-38.354,38.354v435.292C177.133,494.828,194.305,512,215.487,512z"/>
<path style="fill:#DDDDDD;" d="M201.629,401.818v15.37c0,8.86,7.183,16.042,16.042,16.042h235.24c8.86,0,16.042-7.183,16.042-16.042
	V94.812c0-8.86-7.183-16.042-16.042-16.042h-235.24c-8.86,0-16.042,7.183-16.042,16.042v20.196V401.818z"/>
<g>
	<path style="fill:#5E6970;" d="M385.445,47.615H285.14c-4.329,0-7.837-3.509-7.837-7.837s3.508-7.837,7.837-7.837h100.305
		c4.329,0,7.837,3.509,7.837,7.837S389.774,47.615,385.445,47.615z"/>
	<circle style="fill:#5E6970;" cx="335.289" cy="473.913" r="17.24"/>
</g>
<polygon style="fill:#E05F5F;" points="411.847,258.075 337.597,183.824 337.597,215.759 267.851,215.759 267.851,300.391 
	337.597,300.391 337.597,332.327 "/>
<circle style="fill:#F4B74A;" cx="135.589" cy="258.079" r="117.039"/>
<path style="fill:#FFD488;" d="M218.343,258.076c0,45.704-37.052,82.756-82.756,82.756c-21.901,0-41.817-8.516-56.613-22.413
	c-10.856-10.167-18.954-23.239-23.082-37.982c-1.996-7.105-3.062-14.608-3.062-22.361c0-45.704,37.052-82.756,82.756-82.756
	c7.753,0,15.256,1.066,22.361,3.062c14.744,4.127,27.815,12.225,37.982,23.082C209.838,216.259,218.343,236.175,218.343,258.076z"/>
<path style="fill:#F9C662;" d="M195.93,201.464L78.975,318.419c-10.856-10.167-18.954-23.239-23.082-37.982l102.055-102.055
	C172.692,182.509,185.764,190.607,195.93,201.464z"/>
<g>
	<path style="fill:#E0A33F;" d="M135.591,315.162c-20.615,0-37.387-14.563-37.387-32.462c0-4.328,3.508-7.837,7.837-7.837
		s7.837,3.509,7.837,7.837c0,9.258,9.741,16.788,21.714,16.788c11.972,0,21.713-7.532,21.713-16.788
		c0-9.257-9.741-16.788-21.713-16.788c-20.615,0-37.387-14.563-37.387-32.462s16.773-32.462,37.387-32.462
		s37.386,14.563,37.386,32.462c0,4.328-3.508,7.837-7.837,7.837c-4.329,0-7.837-3.509-7.837-7.837
		c0-9.257-9.741-16.788-21.713-16.788c-11.973,0-21.714,7.532-21.714,16.788c0,9.258,9.741,16.788,21.714,16.788
		c20.615,0,37.386,14.563,37.386,32.462C172.978,300.6,156.206,315.162,135.591,315.162z"/>
	<path style="fill:#E0A33F;" d="M135.591,325.012c-4.329,0-7.837-3.509-7.837-7.837V198.974c0-4.328,3.508-7.837,7.837-7.837
		c4.329,0,7.837,3.509,7.837,7.837v118.202C143.427,321.504,139.92,325.012,135.591,325.012z"/>
	<path style="fill:#E0A33F;" d="M135.588,348.669c-23.12,0-45.13-8.714-61.977-24.537c-12.077-11.309-20.815-25.69-25.264-41.582
		c-2.224-7.916-3.352-16.152-3.352-24.473c0-49.952,40.64-90.593,90.593-90.593c8.321,0,16.557,1.128,24.481,3.353
		c15.886,4.447,30.268,13.187,41.583,25.27c15.815,16.825,24.53,38.837,24.53,61.969
		C226.181,308.029,185.541,348.669,135.588,348.669z M135.588,183.157c-41.31,0-74.919,33.609-74.919,74.919
		c0,6.888,0.932,13.698,2.77,20.242c3.677,13.138,10.901,25.024,20.893,34.381c13.939,13.092,32.139,20.296,51.256,20.296
		c41.31,0,74.919-33.609,74.919-74.919c0-19.128-7.206-37.327-20.287-51.245c-9.366-10.002-21.252-17.226-34.383-20.902
		C149.286,184.089,142.475,183.157,135.588,183.157z"/>
</g>
<g>
</g>
<g>
</g>
<g>
</g>
<g>
</g>
<g>
</g>
<g>
</g>
<g>
</g>
<g>
</g>
<g>
</g>
<g>
</g>
<g>
</g>
<g>
</g>
<g>
</g>
<g>
</g>
<g>
</g>
</svg>
