<svg height="512" viewBox="0 0 512 512" width="512" xmlns="http://www.w3.org/2000/svg" xmlns:xlink="http://www.w3.org/1999/xlink"><linearGradient id="New_Gradient_Swatch_16" gradientUnits="userSpaceOnUse" x1="303.876" x2="470.571" y1="297.939" y2="105.418"><stop offset="0" stop-color="#b8e1e3"/><stop offset="1" stop-color="#edf7f8"/></linearGradient><linearGradient id="New_Gradient_Swatch_20" gradientUnits="userSpaceOnUse" x1="268" x2="458.627" y1="236" y2="45.373"><stop offset="0" stop-color="#83cacf"/><stop offset="1" stop-color="#dcf0f1"/></linearGradient><linearGradient id="New_Gradient_Swatch_16-2" x1="6.683" x2="434.689" xlink:href="#New_Gradient_Swatch_16" y1="462.695" y2="34.689"/><g id="_29-Receipt" data-name="29-Receipt"><g id="gradient"><path d="m368 64v160a32 32 0 0 0 32 32h64a32 32 0 0 0 32-32v-152a8 8 0 0 0 -8-8z" fill="url(#New_Gradient_Swatch_16)"/><path d="m432 224v-192a32 32 0 0 0 -32-32h-112v256h176a32 32 0 0 1 -32-32z" fill="url(#New_Gradient_Swatch_20)"/><path d="m400 0h-320a32 32 0 0 0 -32 32v470.343a4 4 0 0 0 6.828 2.829l25.172-25.172 29.681 29.681a4 4 0 0 0 5.047.5l45.272-30.181 45.781 30.521a4 4 0 0 0 4.438 0l45.781-30.521 45.272 30.181a4 4 0 0 0 5.047-.5l29.681-29.681 25.172 25.172a4 4 0 0 0 6.828-2.829v-470.343a32 32 0 0 1 32-32z" fill="url(#New_Gradient_Swatch_16-2)"/><path d="m224 148h-32a20 20 0 0 1 0-40h40a12.013 12.013 0 0 1 12 12 12 12 0 0 0 24 0 36.04 36.04 0 0 0 -36-36h-12v-20a12 12 0 0 0 -24 0v20h-4a44 44 0 0 0 0 88h32a20 20 0 0 1 0 40h-40a12.013 12.013 0 0 1 -12-12 12 12 0 0 0 -24 0 36.04 36.04 0 0 0 36 36h12v20a12 12 0 0 0 24 0v-20h4a44 44 0 0 0 0-88z" fill="#8f86c0"/><g fill="#c7c3df"><path d="m96 396a12 12 0 0 1 -12-12v-64a12 12 0 0 1 24 0v64a12 12 0 0 1 -12 12z"/><path d="m128 396a12 12 0 0 1 -12-12v-64a12 12 0 0 1 24 0v64a12 12 0 0 1 -12 12z"/><path d="m176 396a12 12 0 0 1 -12-12v-64a12 12 0 0 1 24 0v64a12 12 0 0 1 -12 12z"/><path d="m208 396a12 12 0 0 1 -12-12v-64a12 12 0 0 1 24 0v64a12 12 0 0 1 -12 12z"/><path d="m240 396a12 12 0 0 1 -12-12v-64a12 12 0 0 1 24 0v64a12 12 0 0 1 -12 12z"/><path d="m288 396a12 12 0 0 1 -12-12v-64a12 12 0 0 1 24 0v64a12 12 0 0 1 -12 12z"/><path d="m320 396a12 12 0 0 1 -12-12v-64a12 12 0 0 1 24 0v64a12 12 0 0 1 -12 12z"/></g></g></g></svg>