<?xml version="1.0" encoding="utf-8"?>
<!-- Generator: Adobe Illustrator 24.0.1, SVG Export Plug-In . SVG Version: 6.00 Build 0)  -->
<svg version="1.1" id="Capa_1" xmlns="http://www.w3.org/2000/svg" xmlns:xlink="http://www.w3.org/1999/xlink" x="0px" y="0px"
	 viewBox="0 0 512 512" style="enable-background:new 0 0 512 512;" xml:space="preserve">
<style type="text/css">
	.st0{fill:#4C4C4C;}
	.st1{fill:#DDDDDD;}
	.st2{fill:#5E6970;}
	.st3{fill:url(#SVGID_1_);}
	.st4{fill:#F4B74A;}
	.st5{fill:#FFD488;}
	.st6{fill:#F9C662;}
	.st7{fill:#E0A33F;}
</style>
<path class="st0" d="M215.5,512h239.6c21.2,0,38.4-17.2,38.4-38.4V38.4c0-21.2-17.2-38.4-38.4-38.4H215.5
	c-21.2,0-38.4,17.2-38.4,38.4v435.3C177.1,494.8,194.3,512,215.5,512z"/>
<path class="st1" d="M201.6,401.8v15.4c0,8.9,7.2,16,16,16h235.2c8.9,0,16-7.2,16-16V94.8c0-8.9-7.2-16-16-16H217.7
	c-8.9,0-16,7.2-16,16V115V401.8z"/>
<g>
	<path class="st2" d="M385.4,47.6H285.1c-4.3,0-7.8-3.5-7.8-7.8s3.5-7.8,7.8-7.8h100.3c4.3,0,7.8,3.5,7.8,7.8S389.8,47.6,385.4,47.6
		z"/>
	<circle class="st2" cx="335.3" cy="473.9" r="17.2"/>
</g>
<linearGradient id="SVGID_1_" gradientUnits="userSpaceOnUse" x1="267.851" y1="258.0755" x2="411.847" y2="258.0755">
	<stop  offset="0" style="stop-color:#F5524E"/>
	<stop  offset="1" style="stop-color:#D0342F"/>
</linearGradient>
<polygon class="st3" points="411.8,258.1 337.6,183.8 337.6,215.8 267.9,215.8 267.9,300.4 337.6,300.4 337.6,332.3 "/>
<circle class="st4" cx="135.6" cy="258.1" r="117"/>
<path class="st5" d="M218.3,258.1c0,45.7-37.1,82.8-82.8,82.8c-21.9,0-41.8-8.5-56.6-22.4c-10.9-10.2-19-23.2-23.1-38
	c-2-7.1-3.1-14.6-3.1-22.4c0-45.7,37.1-82.8,82.8-82.8c7.8,0,15.3,1.1,22.4,3.1c14.7,4.1,27.8,12.2,38,23.1
	C209.8,216.3,218.3,236.2,218.3,258.1z"/>
<path class="st6" d="M195.9,201.5l-117,117c-10.9-10.2-19-23.2-23.1-38l102.1-102.1C172.7,182.5,185.8,190.6,195.9,201.5z"/>
<g>
	<path class="st7" d="M135.6,315.2c-20.6,0-37.4-14.6-37.4-32.5c0-4.3,3.5-7.8,7.8-7.8s7.8,3.5,7.8,7.8c0,9.3,9.7,16.8,21.7,16.8
		c12,0,21.7-7.5,21.7-16.8c0-9.3-9.7-16.8-21.7-16.8c-20.6,0-37.4-14.6-37.4-32.5S115,201,135.6,201s37.4,14.6,37.4,32.5
		c0,4.3-3.5,7.8-7.8,7.8c-4.3,0-7.8-3.5-7.8-7.8c0-9.3-9.7-16.8-21.7-16.8c-12,0-21.7,7.5-21.7,16.8c0,9.3,9.7,16.8,21.7,16.8
		c20.6,0,37.4,14.6,37.4,32.5C173,300.6,156.2,315.2,135.6,315.2z"/>
	<path class="st7" d="M135.6,325c-4.3,0-7.8-3.5-7.8-7.8V199c0-4.3,3.5-7.8,7.8-7.8s7.8,3.5,7.8,7.8v118.2
		C143.4,321.5,139.9,325,135.6,325z"/>
	<path class="st7" d="M135.6,348.7c-23.1,0-45.1-8.7-62-24.5c-12.1-11.3-20.8-25.7-25.3-41.6c-2.2-7.9-3.4-16.2-3.4-24.5
		c0-50,40.6-90.6,90.6-90.6c8.3,0,16.6,1.1,24.5,3.4c15.9,4.4,30.3,13.2,41.6,25.3c15.8,16.8,24.5,38.8,24.5,62
		C226.2,308,185.5,348.7,135.6,348.7z M135.6,183.2c-41.3,0-74.9,33.6-74.9,74.9c0,6.9,0.9,13.7,2.8,20.2
		c3.7,13.1,10.9,25,20.9,34.4c13.9,13.1,32.1,20.3,51.3,20.3c41.3,0,74.9-33.6,74.9-74.9c0-19.1-7.2-37.3-20.3-51.2
		c-9.4-10-21.3-17.2-34.4-20.9C149.3,184.1,142.5,183.2,135.6,183.2z"/>
</g>
</svg>
