<?xml version="1.0" encoding="utf-8"?>
<!-- Generator: Adobe Illustrator 24.0.1, SVG Export Plug-In . SVG Version: 6.00 Build 0)  -->
<svg version="1.1" id="Capa_1" xmlns="http://www.w3.org/2000/svg" xmlns:xlink="http://www.w3.org/1999/xlink" x="0px" y="0px"
	 viewBox="0 0 512 512" style="enable-background:new 0 0 512 512;" xml:space="preserve">
<style type="text/css">
	.st0{fill:#ECF0F1;}
	.st1{fill:#24AE5F;}
	.st2{fill:#BDC3C7;}
	.st3{fill:#CB9080;}
	.st4{fill:#7F5B53;}
	.st5{fill:#128D47;}
	.st6{fill:url(#SVGID_1_);}
	.st7{fill:#FFFFFF;}
	.st8{fill:url(#SVGID_2_);}
</style>
<path class="st0" d="M379.5,145.7c11.1-14.8,17.8-33.1,17.8-53c0-48.8-39.5-88.3-88.3-88.3c-38.2,0-70.7,24.3-82.9,58.3l82.9,82.9
	L379.5,145.7L379.5,145.7z"/>
<polygon class="st1" points="167.7,4.4 26.5,145.7 309,145.7 "/>
<path class="st2" d="M309,39.7c-29.3,0-53,23.7-53,53l53,53c29.3,0,53-23.7,53-53S338.2,39.7,309,39.7z"/>
<path class="st3" d="M379.5,145.7h93.2c2.6-8.4,4.1-17.3,4.1-26.5c0-48.8-39.5-88.3-88.3-88.3c-5.2,0-10.2,0.5-15.2,1.4
	c14.8,15.8,24,37,24,60.4C397.2,112.6,390.6,130.9,379.5,145.7z"/>
<path class="st4" d="M379.3,145.7h54.9c4.5-7.8,7.1-16.8,7.1-26.5c0-27.6-21.1-50.3-48.1-52.7c2.6,8.3,4,17.1,4,26.2
	C397.2,112.6,390.5,130.9,379.3,145.7z"/>
<polygon class="st5" points="167.7,57.4 79.4,145.7 256,145.7 "/>
<linearGradient id="SVGID_1_" gradientUnits="userSpaceOnUse" x1="0" y1="322.2065" x2="512" y2="322.2065">
	<stop  offset="0" style="stop-color:#F5524E"/>
	<stop  offset="1" style="stop-color:#D0342F"/>
</linearGradient>
<path class="st6" d="M481.8,507.6H30.2C13.5,507.6,0,494.1,0,477.4V167c0-16.7,13.5-30.2,30.2-30.2h451.7
	c16.6,0,30.2,13.5,30.2,30.2v310.4C512,494.1,498.5,507.6,481.8,507.6z"/>
<g>
	<path class="st7" d="M476.7,269.2c-4.9,0-8.8-4-8.8-8.8v-17.7c0-4.9,4-8.8,8.8-8.8c4.9,0,8.8,4,8.8,8.8v17.7
		C485.5,265.3,481.6,269.2,476.7,269.2z"/>
	<path class="st7" d="M476.7,198.6c-4.9,0-8.8-4-8.8-8.8V181H459c-4.9,0-8.8-4-8.8-8.8s4-8.8,8.8-8.8h17.7c4.9,0,8.8,4,8.8,8.8v17.7
		C485.5,194.7,481.6,198.6,476.7,198.6z"/>
	<path class="st7" d="M406.1,181h-35.3c-4.9,0-8.8-4-8.8-8.8s4-8.8,8.8-8.8h35.3c4.9,0,8.8,4,8.8,8.8S410.9,181,406.1,181z
		 M317.8,181h-35.3c-4.9,0-8.8-4-8.8-8.8s4-8.8,8.8-8.8h35.3c4.9,0,8.8,4,8.8,8.8S322.7,181,317.8,181z M229.5,181h-35.3
		c-4.9,0-8.8-4-8.8-8.8s4-8.8,8.8-8.8h35.3c4.9,0,8.8,4,8.8,8.8S234.4,181,229.5,181z M141.2,181h-35.3c-4.9,0-8.8-4-8.8-8.8
		s4-8.8,8.8-8.8h35.3c4.9,0,8.8,4,8.8,8.8S146.1,181,141.2,181z"/>
	<path class="st7" d="M35.3,198.6c-4.9,0-8.8-4-8.8-8.8v-17.7c0-4.9,4-8.8,8.8-8.8H53c4.9,0,8.8,4,8.8,8.8s-4,8.8-8.8,8.8h-8.8v8.8
		C44.1,194.7,40.2,198.6,35.3,198.6z"/>
	<path class="st7" d="M35.3,402.3c-4.9,0-8.8-4-8.8-8.8v-40.7c0-4.9,4-8.8,8.8-8.8s8.8,4,8.8,8.8v40.7
		C44.1,398.4,40.2,402.3,35.3,402.3z M35.3,300.5c-4.9,0-8.8-4-8.8-8.8v-40.7c0-4.9,4-8.8,8.8-8.8s8.8,4,8.8,8.8v40.7
		C44.1,296.5,40.2,300.5,35.3,300.5z"/>
	<path class="st7" d="M53,481.1H35.3c-4.9,0-8.8-4-8.8-8.8v-17.7c0-4.9,4-8.8,8.8-8.8s8.8,4,8.8,8.8v8.8H53c4.9,0,8.8,4,8.8,8.8
		C61.8,477.1,57.8,481.1,53,481.1z"/>
	<path class="st7" d="M406.1,481.1h-35.3c-4.9,0-8.8-4-8.8-8.8c0-4.9,4-8.8,8.8-8.8h35.3c4.9,0,8.8,4,8.8,8.8
		C414.9,477.1,410.9,481.1,406.1,481.1z M317.8,481.1h-35.3c-4.9,0-8.8-4-8.8-8.8c0-4.9,4-8.8,8.8-8.8h35.3c4.9,0,8.8,4,8.8,8.8
		C326.6,477.1,322.7,481.1,317.8,481.1z M229.5,481.1h-35.3c-4.9,0-8.8-4-8.8-8.8c0-4.9,4-8.8,8.8-8.8h35.3c4.9,0,8.8,4,8.8,8.8
		C238.3,477.1,234.4,481.1,229.5,481.1z M141.2,481.1h-35.3c-4.9,0-8.8-4-8.8-8.8c0-4.9,4-8.8,8.8-8.8h35.3c4.9,0,8.8,4,8.8,8.8
		C150.1,477.1,146.1,481.1,141.2,481.1z"/>
	<path class="st7" d="M476.7,481.1H459c-4.9,0-8.8-4-8.8-8.8c0-4.9,4-8.8,8.8-8.8h8.8v-8.8c0-4.9,4-8.8,8.8-8.8c4.9,0,8.8,4,8.8,8.8
		v17.7C485.5,477.1,481.6,481.1,476.7,481.1z"/>
	<path class="st7" d="M476.7,410.5c-4.9,0-8.8-4-8.8-8.8V384c0-4.9,4-8.8,8.8-8.8c4.9,0,8.8,4,8.8,8.8v17.7
		C485.5,406.5,481.6,410.5,476.7,410.5z"/>
</g>
<linearGradient id="SVGID_2_" gradientUnits="userSpaceOnUse" x1="335.448" y1="322.207" x2="512" y2="322.207">
	<stop  offset="0" style="stop-color:#6E2523"/>
	<stop  offset="1" style="stop-color:#D0342F"/>
</linearGradient>
<path class="st8" d="M512,384H397.2c-34.1,0-61.8-27.7-61.8-61.8l0,0c0-34.1,27.7-61.8,61.8-61.8H512V384z"/>
<circle class="st0" cx="397.2" cy="322.2" r="26.5"/>
<path class="st7" d="M476.7,348.7c-4.9,0-8.8-4-8.8-8.8v-35.3c0-4.9,4-8.8,8.8-8.8c4.9,0,8.8,4,8.8,8.8v35.3
	C485.5,344.7,481.6,348.7,476.7,348.7z"/>
</svg>
