<?xml version="1.0" encoding="utf-8"?>
<!-- Generator: Adobe Illustrator 24.0.1, SVG Export Plug-In . SVG Version: 6.00 Build 0)  -->
<svg version="1.1" id="Capa_1" xmlns="http://www.w3.org/2000/svg" xmlns:xlink="http://www.w3.org/1999/xlink" x="0px" y="0px"
	 viewBox="0 0 512 512" style="enable-background:new 0 0 512 512;" xml:space="preserve">
<style type="text/css">
	.st0{fill:#5B362A;}
	.st1{fill:#38211A;}
	.st2{fill:#8CD96B;}
	.st3{fill:#5AB267;}
	.st4{fill:url(#SVGID_1_);}
	.st5{fill:url(#SVGID_2_);}
</style>
<g>
	<g>
		<path class="st0" d="M146.6,217.1l-21.3,21.3l-47.6-17.6L52,194.9l-26.6-56.7c4.2-7.5,8.7-14.7,13.8-21.9
			c10.2-14.1,33-15.9,45.6-3.3l61.8,61.8C158.3,186.6,158,205.7,146.6,217.1z"/>
		<path class="st1" d="M407.7,451.3c-0.6,8.7-5.1,16.5-12,21.6c-7.2,5.1-14.4,9.6-22.2,13.5l-51.6-21.6l-22-22L274,386.8l21-21.3
			c11.4-11.4,31.2-11.4,42.3,0l61.8,61.8C405.3,433.6,408.6,442.3,407.7,451.3L407.7,451.3z"/>
	</g>
	<g>
		<g>
			<path class="st2" d="M302.1,180c-8.3,0-15,6.7-15,15c0,8.3,6.7,15,15,15c0,0,0,0,0,0c0.9,7.6,7.4,14.1,15,14.1c0.2,0,0.5,0,0.8,0
				c7.9-0.5,14.2-6.2,14.2-14.1c0-8.3-3.4-15.8-8.8-21.2S310.4,180,302.1,180z"/>
			<path class="st2" d="M302.1,120.1c-8.3,0-15,6.7-15,15s6.7,15,15,15c16.5,0,31.5,6.7,42.4,17.6s17.6,25.9,17.6,42.4
				c0,8.3,6.7,15,15,15c8.3,0,15-6.7,15-15c0-24.8-10.1-47.3-26.4-63.6S326.9,120.1,302.1,120.1z"/>
			<path class="st2" d="M302.1,60.1c-8.3,0-15,6.7-15,15s6.7,15,15,15c33.1,0,63.1,13.5,84.8,35.2S422,177,422,210
				c0,8.3,6.7,15,15,15c8.3,0,15-6.7,15-15c0-41.3-16.8-78.8-44-106C380.9,76.9,343.4,60.1,302.1,60.1L302.1,60.1z"/>
			<path class="st2" d="M450.5,61.7c-38-38-90.5-61.5-148.4-61.5c-8.3,0-15,6.7-15,15s6.7,15,15,15c49.6,0,94.6,20.2,127.2,52.8
				S482,160.4,482,210c0,8.3,6.7,15,15,15c8.3,0,15-6.7,15-15C512,152.1,488.5,99.7,450.5,61.7L450.5,61.7z"/>
		</g>
		<g>
			<path class="st3" d="M497,225c8.3,0,15-6.7,15-15c0-57.9-23.5-110.3-61.5-148.4l-21.2,21.2C461.8,115.4,482,160.4,482,210
				C482,218.3,488.7,225,497,225L497,225z"/>
			<path class="st3" d="M317.1,224.1c0.2,0,0.5,0,0.8,0c7.9-0.5,14.2-6.2,14.2-14.1c0-8.3-3.4-15.8-8.8-21.2L302.1,210c0,0,0,0,0,0
				C303,217.7,309.5,224.1,317.1,224.1z"/>
			<path class="st3" d="M377.1,225c8.3,0,15-6.7,15-15c0-24.8-10.1-47.3-26.4-63.6l-21.2,21.2c10.9,10.9,17.6,25.9,17.6,42.4
				C362.1,218.3,368.8,225,377.1,225z"/>
			<path class="st3" d="M437,225c8.3,0,15-6.7,15-15c0-41.3-16.8-78.8-44-106l-21.2,21.2C408.6,147,422,177,422,210
				C422,218.3,428.7,225,437,225L437,225z"/>
		</g>
	</g>
	<linearGradient id="SVGID_1_" gradientUnits="userSpaceOnUse" x1="-7.196293e-04" y1="325.0691" x2="373.561" y2="325.0691">
		<stop  offset="0" style="stop-color:#F5524E"/>
		<stop  offset="1" style="stop-color:#D0342F"/>
	</linearGradient>
	<path class="st4" d="M274,386.8c0,0-17.7,12.6-27.9,14.7c-20.1,5.1-42.3,0-57.3-14.7l-31.8-31.8l-31.8-31.8
		c-15.6-15.6-20.7-37.8-15.3-57.9c2.4-9.9,7.5-19.2,15.3-27L25.4,138.3c-5.1,9.6-9.6,19.5-12.9,29.7
		c-27.3,74.7-9.6,160.1,49.2,218.9l31.8,31.8l31.8,31.8c39.6,39.6,92.4,61.5,148.4,61.5c24.3,0,48-4.2,70.5-12.3
		c10.2-3.3,20.1-7.8,29.4-13.2L274,386.8z"/>
	<linearGradient id="SVGID_2_" gradientUnits="userSpaceOnUse" x1="93.4895" y1="433.4693" x2="373.563" y2="433.4693">
		<stop  offset="0" style="stop-color:#F5524E"/>
		<stop  offset="1" style="stop-color:#D0342F"/>
	</linearGradient>
	<path class="st5" d="M273.7,511.9c24.3,0,48-4.2,70.5-12.3c10.2-3.3,20.1-7.8,29.4-13.2L274,386.8c0,0-17.7,12.6-27.9,14.7
		c-20.1,5.1-42.3,0-57.3-14.7l-31.8-31.8l-63.6,63.6l31.8,31.8C164.9,490,217.6,511.9,273.7,511.9z"/>
</g>
</svg>
