<?xml version="1.0" encoding="utf-8"?>
<!-- Generator: Adobe Illustrator 24.0.1, SVG Export Plug-In . SVG Version: 6.00 Build 0)  -->
<svg version="1.1" id="Layer_1" xmlns="http://www.w3.org/2000/svg" xmlns:xlink="http://www.w3.org/1999/xlink" x="0px" y="0px"
	 viewBox="0 0 512 512" style="enable-background:new 0 0 512 512;" xml:space="preserve">
<style type="text/css">
	.st0{fill:url(#SVGID_1_);}
	.st1{fill:#FEC982;}
	.st2{fill:#FFD190;}
	.st3{fill:#F0B97D;}
	.st4{fill:#6B7F9E;}
	.st5{fill:#FFFFFF;}
	.st6{fill:#8597B1;}
	.st7{fill:#FFF1DF;}
	.st8{fill:#FFE356;}
	.st9{fill:#FCD34E;}
</style>
<linearGradient id="SVGID_1_" gradientUnits="userSpaceOnUse" x1="0" y1="256" x2="512" y2="256">
	<stop  offset="0" style="stop-color:#F5524E"/>
	<stop  offset="1" style="stop-color:#D0342F"/>
</linearGradient>
<circle class="st0" cx="256" cy="256" r="256"/>
<path class="st1" d="M260.5,363.5l52.1-31.4c12.1-7.3,18.5,6.7,11.2,10.8l-40.7,22.5L260.5,363.5z"/>
<g>
	<path class="st2" d="M283.4,360.6l55.9-34.4c13.1-8.1,20.1,8.4,12.9,12.5l-38.3,22.5l-30.5-0.5L283.4,360.6L283.4,360.6z"/>
	<path class="st2" d="M148.2,372.6L42.2,396.8c-16-24.4-28.1-51.6-35.1-80.8l132.5-8.7c21.3-3,40.9-2.9,49.6,1.9
		c15.4,8.6,13.7,27.4,49,37.2l50.3,8.7l80.8-19.8c14.8-2.6,17.8,14,8,17.9l-108.5,38.5C254.1,396.8,219,385,148.2,372.6z"/>
</g>
<path class="st3" d="M304.4,351.2c5.5,5.9-5.5,9.1-21.1,12.4c-11.2,2.4-26.3,5.3-33.6,7c-14.1,0.5-50.3-8.1-75.7-17.4
	c13-0.2,67.5,16,76.1,14.3c8.6-1.7,49.8-12.5,52.6-14.1C305.3,351.9,304,352.2,304.4,351.2z"/>
<path class="st4" d="M92.8,300.6L107,405.8l-51.7,9.1c-24.5-30.8-41.9-67.5-50.1-107.5L92.8,300.6z"/>
<polygon class="st5" points="111.9,301.3 125.8,399.9 106.7,402.5 92.8,303.7 "/>
<path class="st6" d="M97.7,391.5c0.5,3.9-2.2,7.5-6,8s-7.4-2.3-7.9-6.2c-0.5-3.9,2.2-7.5,6-8S97.2,387.5,97.7,391.5z"/>
<path class="st2" d="M175.8,305.8c26.4-4.2,44,11.3,57.2,30l24,5.6c0,0,22.5-4.9,34.5-1.2c11.9,3.7,15.6,13.4,11,16
	s-44,9.6-52.6,11.2c-8.7,1.7-57.7-8.5-76-14.2c-18.3-5.6-29-40.9,1.8-47.5L175.8,305.8L175.8,305.8z"/>
<path class="st7" d="M368.9,356.1l12.8-4.2c1.6-0.5,0.2-4.5-1.8-4.5s-13.6,2.9-13.6,2.9C367.7,351.8,369.2,354.1,368.9,356.1z"/>
<path class="st5" d="M285.4,359.3l16.2-3.6c1.3-0.2,0.2-6.6-2.9-7.9c-3.1-1.2-16.6,1.6-16.6,1.6c1.1,2.3,2.9,6.3,3.1,9.8
	L285.4,359.3z"/>
<path class="st2" d="M263,201l35.4-2.7c5-0.4,18.4-8.7,18.4-8.7L304,168.1l-33-3.9l-25.4,23.4l-9.8,20.1
	c-5.9,10.5-25.1,8.5-20.4-4.9l11.1-33.6c0,0,27.8-30,38.1-34.2c10.3-4.2,82.5-7.8,82.5-7.8s59.1,32.3,81.1,46.2l69.8-1
	c6.6,19.1,11,39.2,12.9,60l-87.9-2c0,0-55.9,10.9-74.9,8.1c-19.1-2.7-45.5-11-45.5-11s-33.3,0.6-42.8-3.7
	c-13.4-4.7-12.3-21.6,3.3-22.8L263,201L263,201z"/>
<path class="st5" d="M215.9,198.7c0.6,0.2,3.8,1.6,3.8,1.6l-3.2,9.8c0,0-3.8,1.8-3.2-2.4c0.6-4.2,2.6-9.1,2.6-9.1L215.9,198.7
	L215.9,198.7z"/>
<path class="st8" d="M273.9,200.6c-0.4-1.6-0.7-3.1-1.2-4.7c-2.3-7-6.1-13.4-11-18.6c-9-9.4-21.5-15.3-35.5-15.3
	c-27,0-48.9,21.9-48.9,48.9s21.9,48.9,48.9,48.9c16.7,0,31.5-8.4,40.3-21.3c3.3-4.8,5.7-10.2,7.2-16c0.4-1.4,0.6-2.9,0.8-4.3
	c0.4-2.4,0.6-4.9,0.6-7.4c0-3.6-0.4-7-1.1-10.4l0,0L273.9,200.6z"/>
<path class="st9" d="M271.6,201c-0.4-1.4-0.7-3-1.2-4.4c-2.1-6.7-5.7-12.7-10.5-17.7c-8.5-9-20.5-14.6-33.8-14.6
	c-25.7,0-46.6,20.9-46.6,46.6s20.9,46.6,46.6,46.6c15.9,0,30-8,38.3-20.2c3.1-4.5,5.5-9.7,6.8-15.3c0.4-1.3,0.6-2.7,0.8-4.2
	c0.4-2.3,0.5-4.7,0.5-7c0-3.5-0.4-6.7-1.1-9.9l0,0L271.6,201z"/>
<g>
	<path class="st8" d="M226.1,174.5c-20.1,0-36.4,16.2-36.4,36.4c0,20.1,16.4,36.4,36.4,36.4s36.4-16.4,36.4-36.4
		S246.3,174.5,226.1,174.5L226.1,174.5z M226.1,179.1c17.6,0,31.9,14.3,31.9,31.9s-14.3,31.9-31.9,31.9s-31.9-14.3-31.9-31.9
		S208.6,179.1,226.1,179.1z"/>
	<path class="st8" d="M223.3,233.3v-5.1c-3.7-0.1-7.2-1.2-9.3-2.4l1.7-6.5c2.3,1.3,5.5,2.4,9.1,2.4c3.1,0,5.3-1.2,5.3-3.3
		c0-2-1.8-3.3-5.7-4.8c-5.9-1.9-9.8-4.7-9.8-10c0-4.8,3.3-8.6,9.2-9.7v-5.1h5.4v4.8c3.7,0.1,6.1,1,7.9,1.8l-1.6,6.2
		c-1.4-0.6-3.9-1.9-7.9-1.9c-3.6,0-4.7,1.6-4.7,3.1c0,1.8,1.9,3,6.6,4.7c6.5,2.3,9.1,5.3,9.1,10.3c0,4.9-3.5,9-9.7,10.2v5.6h-5.4
		L223.3,233.3z"/>
</g>
<path class="st2" d="M263,201c15.6-1.2,30.2-2.5,35.4-2.7c5-0.4,18.4-8.7,18.4-8.7s34.8,14.3,32.5,28.8s-5.4,14.9-9.3,18.9
	c-17.7-3.5-37.5-9.6-37.5-9.6s-33.3,0.6-42.8-3.7c-13.4-4.7-12.3-21.6,3.3-22.8L263,201L263,201z"/>
<polygon class="st5" points="431.8,160 437.7,252.7 462.2,251.1 456.3,158.4 "/>
<path class="st4" d="M452,148.8l7.2,112.2l52.8-0.8c0-1.4,0-2.9,0-4.3c0-39.4-9-76.7-24.8-110.1l-35.2,3L452,148.8z"/>
<path class="st5" d="M252.9,214.4l17-0.5v10.3c0,0-14.7,0.6-17.4-1.7c-2.7-2.4-1.6-7.3,0.5-8V214.4z"/>
<path class="st6" d="M483.1,245.6c0.5,3.9-2.1,7.5-6,8s-7.4-2.3-7.9-6.2s2.1-7.5,6-8C479,238.9,482.6,241.7,483.1,245.6z"/>
</svg>
