<?xml version="1.0" encoding="utf-8"?>
<!-- Generator: Adobe Illustrator 24.0.1, SVG Export Plug-In . SVG Version: 6.00 Build 0)  -->
<svg version="1.1" id="Layer_1" xmlns="http://www.w3.org/2000/svg" xmlns:xlink="http://www.w3.org/1999/xlink" x="0px" y="0px"
	 viewBox="0 0 512 512" style="enable-background:new 0 0 512 512;" xml:space="preserve">
<style type="text/css">
	.st0{fill:url(#SVGID_1_);}
	.st1{fill:url(#SVGID_2_);}
	.st2{fill:url(#SVGID_3_);}
	.st3{fill:url(#SVGID_4_);}
	.st4{fill:#D6F4FC;}
	.st5{fill:#BDEFFC;}
	.st6{fill:#F1FAFC;}
</style>
<linearGradient id="SVGID_1_" gradientUnits="userSpaceOnUse" x1="44.872" y1="371.7719" x2="467.1269" y2="371.7719">
	<stop  offset="0" style="stop-color:#F5524E"/>
	<stop  offset="1" style="stop-color:#D0342F"/>
</linearGradient>
<path class="st0" d="M467.1,240.1v229.3c0,18.9-15.3,34.1-34.1,34.1H79c-18.8,0-34.1-15.3-34.1-34.1V240.1L467.1,240.1z"/>
<linearGradient id="SVGID_2_" gradientUnits="userSpaceOnUse" x1="8.6178" y1="183.9752" x2="503.3811" y2="183.9752">
	<stop  offset="0" style="stop-color:#F5524E"/>
	<stop  offset="1" style="stop-color:#D0342F"/>
</linearGradient>
<path class="st1" d="M503.4,162v44c0,18.9-15.3,34.1-34.1,34.1H42.7c-18.8,0-34.1-15.3-34.1-34.1v-44c0-18.9,15.3-34.1,34.1-34.1
	h426.5C488.1,127.9,503.4,143.1,503.4,162z"/>
<linearGradient id="SVGID_3_" gradientUnits="userSpaceOnUse" x1="8.6167" y1="177.6527" x2="490.892" y2="177.6527">
	<stop  offset="0" style="stop-color:#F5524E"/>
	<stop  offset="1" style="stop-color:#D0342F"/>
</linearGradient>
<path class="st2" d="M469.5,170.5H85.4c-18.8,0-34.1,15.3-34.1,34.1v1.4c0,27.5-41.3,28.9-42.6,1.5c-0.1-1.2,0,1.9,0-45.6
	c0-18.9,15.3-34.1,34.1-34.1h426.5C498.8,127.9,497.4,170.5,469.5,170.5L469.5,170.5z"/>
<linearGradient id="SVGID_4_" gradientUnits="userSpaceOnUse" x1="44.872" y1="258.2057" x2="467.1269" y2="258.2057">
	<stop  offset="0" style="stop-color:#F5524E"/>
	<stop  offset="1" style="stop-color:#D0342F"/>
</linearGradient>
<path class="st3" d="M44.9,240.1h422.3v36.3H44.9V240.1z"/>
<path class="st4" d="M294.4,503.5h-76.8c0-7.5,0-256.4,0-263.4h76.8V503.5z"/>
<path class="st5" d="M217.6,240.1h76.8v36.3h-76.8V240.1z"/>
<path class="st4" d="M332.8,240.1c-7.3,0-146.2,0-153.5,0c0-15.3,0-96.3,0-112.2h153.5V240.1z"/>
<path class="st6" d="M332.8,127.9v42.7H179.2v-42.7L332.8,127.9z"/>
<path d="M469.3,119.3H360.9c14.1-12.5,23-30.8,23-51.1c0-57-66.1-88.7-110.5-53.6c-3.7,2.9-4.3,8.3-1.4,12c2.9,3.7,8.3,4.3,12,1.4
	c33.3-26.3,82.9-2.6,82.9,40.2c0,27.1-21.1,49.3-47.7,51.1h-54.7V68.3c0-37.6-30.6-68.2-68.2-68.2S128,30.7,128,68.3
	c0,20.3,8.9,38.5,23,51.1H42.7c-23.5,0-42.7,19.1-42.7,42.7v44c0,21.3,15.8,39.1,36.3,42.2v221.2c0,23.5,19.1,42.7,42.7,42.7h354
	c23.5,0,42.7-19.1,42.7-42.7V285.8c0-4.7-3.8-8.5-8.5-8.5c-4.7,0-8.5,3.8-8.5,8.5v183.5c0,14.1-11.5,25.6-25.6,25.6H226.1V248.6
	h59.7v215.6c0,4.7,3.8,8.5,8.5,8.5c4.7,0,8.5-3.8,8.5-8.5V248.6h94.9c4.7,0,8.5-3.8,8.5-8.5s-3.8-8.5-8.5-8.5h-56.5v-95.2h128
	c14.1,0,25.6,11.5,25.6,25.6v44c0,14.1-11.5,25.6-25.6,25.6h-16.5c-4.7,0-8.5,3.8-8.5,8.5s3.8,8.5,8.5,8.5h16.5
	c23.5,0,42.7-19.1,42.7-42.7v-44C511.9,138.5,492.8,119.3,469.3,119.3z M145.1,68.3c0-28.2,23-51.2,51.2-51.2s51.2,23,51.2,51.2
	v51.1h-54.7C166.2,117.5,145.1,95.3,145.1,68.3z M209.1,494.9H79c-14.1,0-25.6-11.5-25.6-25.6V248.6h155.7V494.9z M324.2,231.6H42.7
	c-14.1,0-25.6-11.5-25.6-25.6v-44c0-14.1,11.5-25.6,25.6-25.6h128v68.4c0,4.7,3.8,8.5,8.5,8.5c4.7,0,8.5-3.8,8.5-8.5v-68.4h136.5
	V231.6z"/>
</svg>
