<svg width="17" height="18" viewBox="0 0 17 18" fill="none" xmlns="http://www.w3.org/2000/svg">
<path d="M11.6877 17.0013H2.47933C1.50325 17.0013 0.708496 16.2066 0.708496 15.2305V5.3138C0.708496 4.33772 1.50325 3.54297 2.47933 3.54297H3.18766C3.38316 3.54297 3.54183 3.70164 3.54183 3.89714C3.54183 4.09264 3.38316 4.2513 3.18766 4.2513H2.47933C1.89354 4.2513 1.41683 4.72801 1.41683 5.3138V15.2305C1.41683 15.8163 1.89354 16.293 2.47933 16.293H11.6877C12.2735 16.293 12.7502 15.8163 12.7502 15.2305V14.5221C12.7502 14.3266 12.9088 14.168 13.1043 14.168C13.2998 14.168 13.4585 14.3266 13.4585 14.5221V15.2305C13.4585 16.2066 12.6637 17.0013 11.6877 17.0013Z" fill="black"/>
<path d="M14.521 12.75H6.72933C5.75325 12.75 4.9585 11.9552 4.9585 10.9792V1.77083C4.9585 0.79475 5.75325 0 6.72933 0H14.521C15.4971 0 16.2918 0.79475 16.2918 1.77083V10.9792C16.2918 11.9552 15.4971 12.75 14.521 12.75ZM6.72933 0.708333C6.14354 0.708333 5.66683 1.18504 5.66683 1.77083V10.9792C5.66683 11.565 6.14354 12.0417 6.72933 12.0417H14.521C15.1068 12.0417 15.5835 11.565 15.5835 10.9792V1.77083C15.5835 1.18504 15.1068 0.708333 14.521 0.708333H6.72933Z" fill="black"/>
</svg>
