<svg width="28" height="28" viewBox="0 0 28 28" fill="none" xmlns="http://www.w3.org/2000/svg">
<path d="M18.4701 13.2208V14.9706H14.9705V18.4702H13.2207V14.9706H9.72109V13.2208H13.2207V9.72119H14.9705V13.2208H18.4701Z" fill="#4C4C4C"/>
<path d="M14 28C6.26802 28 0 21.732 0 14C0 6.26802 6.26802 0 14 0C21.732 0 28 6.26802 28 14C27.9793 21.7234 21.7234 27.9793 14 28ZM14 1.50538C7.09944 1.50538 1.50538 7.09944 1.50538 14C1.50538 20.9006 7.09944 26.4946 14 26.4946C20.9006 26.4946 26.4946 20.9006 26.4946 14C26.4946 7.09944 20.9006 1.50538 14 1.50538Z" fill="#4C4C4C"/>
</svg>
