<?xml version="1.0" encoding="utf-8"?>
<!-- Generator: Adobe Illustrator 24.0.1, SVG Export Plug-In . SVG Version: 6.00 Build 0)  -->
<svg version="1.1" id="Layer_1" xmlns="http://www.w3.org/2000/svg" xmlns:xlink="http://www.w3.org/1999/xlink" x="0px" y="0px"
	 viewBox="0 0 290 77" style="enable-background:new 0 0 290 77;" xml:space="preserve">
<style type="text/css">
	.st0{opacity:0;}
	.st1{fill:#F2F2F2;}
	.st2{opacity:0.85;}
	.st3{fill:#E2E2E2;}
</style>
<g class="st0">
	<rect class="st1" width="290" height="77"/>
</g>
<g class="st2">
	<path class="st3" d="M121.7,36H2.8c-1.3,0-2.3-1-2.3-2.3V13.3c0-1.3,1-2.3,2.3-2.3h118.9c1.3,0,2.3,1,2.3,2.3v20.4
		C124,35,123,36,121.7,36z"/>
</g>
<g>
	<path class="st1" d="M68.5,64H2.8c-1.3,0-2.3-1-2.3-2.3V46c0-1.3,1-2.3,2.3-2.3h65.8c1.3,0,2.3,1,2.3,2.3v15.7
		C70.8,63,69.8,64,68.5,64z"/>
</g>
<g class="st2">
	<path class="st1" d="M148.8,64H83.1c-1.3,0-2.3-1-2.3-2.3V46c0-1.3,1-2.3,2.3-2.3h65.8c1.3,0,2.3,1,2.3,2.3v15.7
		C151.1,63,150.1,64,148.8,64z"/>
</g>
<g>
	<path class="st1" d="M226.7,64H161c-1.3,0-2.3-1-2.3-2.3V46c0-1.3,1-2.3,2.3-2.3h65.8c1.3,0,2.3,1,2.3,2.3v15.7
		C229,63,228,64,226.7,64z"/>
</g>
</svg>
