<?xml version="1.0" encoding="utf-8"?>
<!-- Generator: Adobe Illustrator 24.0.1, SVG Export Plug-In . SVG Version: 6.00 Build 0)  -->
<svg version="1.1" id="Layer_1" xmlns="http://www.w3.org/2000/svg" xmlns:xlink="http://www.w3.org/1999/xlink" x="0px" y="0px"
	 viewBox="0 0 400 300" style="enable-background:new 0 0 400 300;" xml:space="preserve">
<style type="text/css">
	.st0{clip-path:url(#SVGID_2_);fill:#282B4E;}
	.st1{opacity:0.32;clip-path:url(#SVGID_2_);}
	.st2{fill:url(#SVGID_3_);}
	.st3{fill:url(#SVGID_4_);}
	.st4{fill:url(#SVGID_5_);}
	.st5{fill:url(#SVGID_6_);}
	.st6{clip-path:url(#SVGID_2_);fill:#FFC050;}
	.st7{clip-path:url(#SVGID_2_);fill:#DA6138;}
	.st8{clip-path:url(#SVGID_2_);fill:#146666;}
	.st9{clip-path:url(#SVGID_2_);fill:#FFFFFF;}
	.st10{clip-path:url(#SVGID_2_);fill:url(#SVGID_7_);}
	.st11{clip-path:url(#SVGID_2_);fill:#5ED18D;}
	.st12{clip-path:url(#SVGID_2_);fill:#FF912E;}
	.st13{clip-path:url(#SVGID_2_);fill:#E0944F;}
	.st14{clip-path:url(#SVGID_2_);fill:#FFB92C;}
	.st15{clip-path:url(#SVGID_2_);fill:#EA8B24;}
	.st16{clip-path:url(#SVGID_2_);fill:none;stroke:#F7931E;stroke-width:6;stroke-miterlimit:10;}
	.st17{clip-path:url(#SVGID_2_);fill:none;stroke:#F7931E;stroke-width:2;stroke-miterlimit:10;}
	.st18{clip-path:url(#SVGID_2_);fill:#2C9390;}
	.st19{clip-path:url(#SVGID_2_);fill:#F2AE16;}
	.st20{clip-path:url(#SVGID_2_);fill:#FFD008;}
	.st21{clip-path:url(#SVGID_2_);fill:none;stroke:#F7931E;stroke-miterlimit:10;}
	.st22{clip-path:url(#SVGID_2_);fill:url(#SVGID_8_);}
	.st23{clip-path:url(#SVGID_2_);fill:url(#SVGID_9_);}
	.st24{clip-path:url(#SVGID_2_);fill:url(#SVGID_10_);}
	.st25{clip-path:url(#SVGID_2_);fill:url(#SVGID_11_);}
	.st26{clip-path:url(#SVGID_2_);fill:#D8D8D8;}
	.st27{opacity:0.24;clip-path:url(#SVGID_2_);}
	.st28{fill:#3E2928;}
	.st29{opacity:0.53;clip-path:url(#SVGID_2_);}
	.st30{fill:#FFFFFF;}
	.st31{fill:#DA6138;}
	.st32{clip-path:url(#SVGID_2_);fill:#FF8F6F;}
	.st33{clip-path:url(#SVGID_2_);fill:#003B94;}
	.st34{clip-path:url(#SVGID_2_);fill:#3E2928;}
	.st35{clip-path:url(#SVGID_2_);fill:#FFB5A9;}
	.st36{clip-path:url(#SVGID_2_);fill:#515151;}
</style>
<g>
	<defs>
		<rect id="SVGID_1_" width="400" height="300"/>
	</defs>
	<clipPath id="SVGID_2_">
		<use xlink:href="#SVGID_1_"  style="overflow:visible;"/>
	</clipPath>
	<path class="st0" d="M17.7,165.1L250.3,300l126.8-73.2L145.6,92.7L17.7,165.1L17.7,165.1z"/>
	<g class="st1">
		
			<linearGradient id="SVGID_3_" gradientUnits="userSpaceOnUse" x1="0.3394" y1="299.3186" x2="0.739" y2="299.7039" gradientTransform="matrix(90.64 0 0 -55.98 63.033 16947.3672)">
			<stop  offset="0" style="stop-color:#FFFFFF;stop-opacity:3.000000e-02"/>
			<stop  offset="0.99" style="stop-color:#2A1700"/>
		</linearGradient>
		<path class="st2" d="M144.3,170.1c-7.7-5.3-15.7-10.3-22.5-16.8L63,189l36.7,20.4l54-32.1C150.6,174.9,147.6,172.3,144.3,170.1z"
			/>
	</g>
	<g class="st1">
		
			<linearGradient id="SVGID_4_" gradientUnits="userSpaceOnUse" x1="0.1242" y1="299.2812" x2="0.9938" y2="299.775" gradientTransform="matrix(80.904 0 0 -47.655 144.424 14496.6367)">
			<stop  offset="1" style="stop-color:#FFFFFF;stop-opacity:3.000000e-02"/>
			<stop  offset="1" style="stop-color:#F7F6F5;stop-opacity:6.711356e-02"/>
		</linearGradient>
		<path class="st3" d="M216,208.6c-7.7-5.3-9.3-1.9-16.1-8.4l-55.5,30.5l26.9,17.2l54-32.1C222.2,213.3,219.2,210.7,216,208.6z"/>
	</g>
	<g class="st1">
		
			<linearGradient id="SVGID_5_" gradientUnits="userSpaceOnUse" x1="7.508370e-02" y1="299.3393" x2="0.9811" y2="299.7626" gradientTransform="matrix(98.337 0 0 -47.655 220.543 14534.3623)">
			<stop  offset="1" style="stop-color:#FFFFFF;stop-opacity:3.000000e-02"/>
			<stop  offset="1" style="stop-color:#F9F8F7;stop-opacity:5.924770e-02"/>
		</linearGradient>
		<path class="st4" d="M292.1,246.3c-7.7-5.3-9.3-1.9-16.1-8.4l-55.5,30.5l26.9,17.2l71.4-40.5C315.8,242.6,295.3,248.5,292.1,246.3
			z"/>
	</g>
	<g class="st1">
		
			<linearGradient id="SVGID_6_" gradientUnits="userSpaceOnUse" x1="2.567214e-02" y1="299.6102" x2="0.9996" y2="299.3834" gradientTransform="matrix(109.176 0 0 -64.087 16.764 19348.4238)">
			<stop  offset="1" style="stop-color:#FFFFFF;stop-opacity:3.000000e-02"/>
			<stop  offset="1" style="stop-color:#F7F7F6;stop-opacity:6.468312e-02"/>
		</linearGradient>
		<path class="st5" d="M125.9,143.4l-72.5,43L16.8,166L89,122.3"/>
	</g>
	<path class="st6" d="M180,65.5v46.3l-81.6,47.5v-54.7L180,65.5L180,65.5z"/>
	<path class="st7" d="M62.5,137.7V90.8l36,20.8v47.8"/>
	<path class="st8" d="M98.4,159.4v-47.8l-36-20.8v46.9L98.4,159.4L98.4,159.4z"/>
	<path class="st9" d="M98.1,112.1L62.2,91.4l83.9-47.7L180,65.5L98.1,112.1L98.1,112.1z"/>
	<linearGradient id="SVGID_7_" gradientUnits="userSpaceOnUse" x1="125.94" y1="55.832" x2="159.061" y2="55.832">
		<stop  offset="0" style="stop-color:#F5524E"/>
		<stop  offset="1" style="stop-color:#D0342F"/>
	</linearGradient>
	<path class="st10" d="M141,45.5c-5.4-0.5-11.1-2.1-15-5.8v16c0,4.4,1.7,8.6,4.8,11.7c3.1,3.1,7.3,4.9,11.7,4.9l0,0
		c9.1,0,16.6-7.4,16.6-16.6V39.4C153.4,41.7,147,46,141,45.5z"/>
	<ellipse vector-effect="non-scaling-stroke" class="st11" cx="142.5" cy="39.6" rx="16.6" ry="8.8"/>
	<path class="st11" d="M142.5,41c0,0-11.3-1.7-14.3-19.9C128.2,21.2,137.9,26.5,142.5,41z"/>
	<path class="st11" d="M144.2,38.8c0,0-12.9-23.2,0-38.8C148.1,12.6,148.1,26.1,144.2,38.8L144.2,38.8z"/>
	<path class="st11" d="M142.5,24.2c0,0-11.3-1.7-14.3-19.9C128.2,4.3,137.9,9.6,142.5,24.2z"/>
	<path class="st11" d="M143.9,31.6c0,0-2.8-11,12.8-20.8C156.7,10.8,155.5,21.7,143.9,31.6z"/>
	<ellipse vector-effect="non-scaling-stroke" class="st8" cx="142.5" cy="39.6" rx="16.6" ry="8.8"/>
	<path class="st11" d="M142.5,41c0,0-11.3-1.7-14.3-19.9C128.2,21.2,137.9,26.5,142.5,41z"/>
	<path class="st11" d="M144.2,38.8c0,0-12.9-23.2,0-38.8C148.1,12.6,148.1,26.1,144.2,38.8L144.2,38.8z"/>
	<path class="st11" d="M142.5,24.2c0,0-11.3-1.7-14.3-19.9C128.2,4.3,137.9,9.6,142.5,24.2z"/>
	<path class="st11" d="M143.9,31.6c0,0-2.8-11,12.8-20.8C156.7,10.8,155.5,21.7,143.9,31.6z"/>
	<ellipse vector-effect="non-scaling-stroke" class="st12" cx="97.5" cy="84.7" rx="28.1" ry="16.4"/>
	<path class="st13" d="M69.5,84.7v-4.7l3.1,3.8L69.5,84.7L69.5,84.7z"/>
	<path class="st13" d="M125.6,79.9v4.7h-3.6l2.6-3.8L125.6,79.9L125.6,79.9z"/>
	<ellipse vector-effect="non-scaling-stroke" class="st14" cx="97.5" cy="79.9" rx="28.1" ry="16.4"/>
	<path class="st15" d="M111.8,77.7c0.2,0.4,0.3,0.8,0.2,1.3l-0.1,0.4h-5.1c0-0.1,0.1-0.3,0.1-0.4c0-0.3-0.1-0.7-0.3-0.9
		c-0.3-0.5-0.7-0.9-1.3-1.1c-0.7-0.4-1.6-0.6-2.4-0.6c-0.8-0.1-1.6,0.1-2.3,0.3c-0.7,0.3-1,0.7-0.8,1.2c0.2,0.6,0.6,1.2,1.1,1.6
		c0.6,0.6,1.1,1.2,1.6,1.8c0.5,0.5,0.6,1.3,0.3,2c-0.6,0.9-1.4,1.6-2.5,1.9c-1.7,0.7-3.6,1.1-5.4,1.1c-2,0.1-4-0.2-5.9-0.8l-3,1.3
		l-3.4-1.7l2.9-1.3c-0.5-0.4-1-0.8-1.4-1.3c-0.3-0.3-0.5-0.7-0.7-1.1c-0.1-0.3-0.2-0.6-0.2-0.9c0-0.2,0-0.4,0-0.6l0.1-0.2h5.1
		c-0.1,0.2-0.1,0.3-0.1,0.5c0,0.4,0.2,0.8,0.4,1.2c0.4,0.6,1,1.1,1.7,1.4c0.9,0.5,1.9,0.7,3,0.8c0.9,0.1,1.9-0.1,2.7-0.4
		c0.7-0.3,1-0.7,0.8-1.2c-0.3-0.6-0.6-1.2-1.1-1.6c-0.6-0.6-1.1-1.2-1.6-1.8c-0.5-0.6-0.5-1.3-0.2-2c0.6-0.9,1.5-1.6,2.6-2
		c1.7-0.7,3.4-1,5.2-1c1.9-0.1,3.8,0.2,5.6,0.9l2.9-1.3l3.2,1.8l-3,1.3C111,76.5,111.5,77.1,111.8,77.7z"/>
	<ellipse vector-effect="non-scaling-stroke" class="st16" cx="97.6" cy="80.1" rx="23.6" ry="13.8"/>
	<ellipse vector-effect="non-scaling-stroke" class="st12" cx="97.5" cy="75.6" rx="28.1" ry="16.4"/>
	<path class="st13" d="M69.5,75.6v-4.7l3.1,3.8L69.5,75.6L69.5,75.6z"/>
	<path class="st13" d="M125.6,70.9v4.7h-3.6l2.6-3.8L125.6,70.9L125.6,70.9z"/>
	<ellipse vector-effect="non-scaling-stroke" class="st14" cx="97.5" cy="70.9" rx="28.1" ry="16.4"/>
	<path class="st15" d="M111.8,68.7c0.2,0.4,0.3,0.8,0.2,1.3l-0.1,0.4h-5.1c0-0.1,0.1-0.3,0.1-0.4c0-0.3-0.1-0.7-0.3-0.9
		c-0.3-0.5-0.7-0.9-1.3-1.1c-0.7-0.4-1.6-0.6-2.4-0.6c-0.8-0.1-1.6,0.1-2.3,0.3c-0.7,0.3-1,0.7-0.8,1.2c0.2,0.6,0.6,1.2,1.1,1.6
		c0.6,0.6,1.1,1.2,1.6,1.8c0.5,0.5,0.6,1.3,0.3,2c-0.6,0.9-1.4,1.6-2.5,1.9c-1.7,0.7-3.6,1.1-5.4,1.1c-2,0.1-4-0.2-5.9-0.8l-3,1.3
		L82.4,76l2.9-1.3c-0.5-0.4-1-0.8-1.4-1.3c-0.3-0.3-0.5-0.7-0.7-1.1C83.1,72,83,71.7,83,71.4c0-0.2,0-0.4,0-0.6l0.1-0.2h5.1
		c-0.1,0.2-0.1,0.3-0.1,0.5c0,0.4,0.2,0.8,0.4,1.2c0.4,0.6,1,1.1,1.7,1.4c0.9,0.5,1.9,0.7,3,0.8c0.9,0.1,1.9-0.1,2.7-0.4
		c0.7-0.3,1-0.7,0.8-1.2c-0.3-0.6-0.6-1.2-1.1-1.6c-0.6-0.6-1.1-1.2-1.6-1.8c-0.5-0.6-0.5-1.3-0.2-2c0.6-0.9,1.5-1.6,2.6-2
		c1.7-0.7,3.4-1,5.2-1c1.9-0.1,3.8,0.2,5.6,0.9l2.9-1.3l3.2,1.8l-3,1.3C111,67.4,111.5,68,111.8,68.7z"/>
	<ellipse vector-effect="non-scaling-stroke" class="st17" cx="97.6" cy="71.1" rx="23.6" ry="13.8"/>
	<ellipse vector-effect="non-scaling-stroke" class="st12" cx="86.6" cy="68.7" rx="28.1" ry="16.4"/>
	<path class="st13" d="M58.5,68.7V64l3.1,3.8L58.5,68.7L58.5,68.7z"/>
	<path class="st13" d="M114.6,64v4.7h-3.6l2.6-3.8L114.6,64L114.6,64z"/>
	<ellipse vector-effect="non-scaling-stroke" class="st14" cx="86.6" cy="64" rx="28.1" ry="16.4"/>
	<path class="st15" d="M100.8,61.8c0.2,0.4,0.3,0.8,0.2,1.3l-0.1,0.4h-5.1c0-0.1,0.1-0.3,0.1-0.4c0-0.3-0.1-0.7-0.3-0.9
		c-0.3-0.5-0.7-0.9-1.3-1.1c-0.7-0.4-1.6-0.6-2.4-0.6c-0.8-0.1-1.6,0.1-2.3,0.3c-0.7,0.3-1,0.7-0.8,1.2c0.2,0.6,0.6,1.2,1.1,1.6
		c0.6,0.6,1.1,1.2,1.6,1.8c0.5,0.5,0.6,1.3,0.3,2c-0.5,0.9-1.4,1.7-2.4,2c-1.7,0.7-3.6,1.1-5.4,1.1c-2,0.1-4-0.2-5.9-0.8l-3,1.3
		l-3.5-1.7l2.9-1.3c-0.5-0.4-1-0.8-1.4-1.3c-0.3-0.3-0.5-0.7-0.7-1.1c-0.1-0.3-0.2-0.6-0.2-0.9c0-0.2,0-0.4,0-0.6l0.1-0.2h5.1
		c-0.1,0.2-0.1,0.3-0.1,0.5c0,0.4,0.2,0.8,0.4,1.2c0.4,0.6,1,1.1,1.7,1.4c0.9,0.5,1.9,0.7,3,0.8c0.9,0.1,1.9-0.1,2.7-0.4
		c0.7-0.3,1-0.7,0.8-1.2c-0.3-0.6-0.6-1.2-1.1-1.6c-0.6-0.6-1.1-1.2-1.6-1.8c-0.5-0.6-0.5-1.3-0.2-2c0.6-0.9,1.5-1.6,2.6-2
		c1.7-0.7,3.4-1,5.2-1c1.9-0.1,3.8,0.2,5.6,0.9l2.9-1.3l3.2,1.8l-3,1.3C100.1,60.6,100.5,61.1,100.8,61.8z"/>
	<ellipse vector-effect="non-scaling-stroke" class="st17" cx="86.6" cy="64.2" rx="23.6" ry="13.8"/>
	<path class="st8" d="M111.3,161.3l33.4-19.8c1.4-0.8,3.1-0.8,4.5,0l26.4,15.6c1.3,0.8,2.2,2.3,2.1,3.8c0,1.6-0.9,3-2.2,3.8
		l-31.9,18.1c-1.3,0.8-3,0.8-4.3,0l-27.8-15.7c-1.1-0.6-1.7-1.7-1.7-2.9C109.7,163.1,110.3,161.9,111.3,161.3L111.3,161.3z"/>
	<path class="st8" d="M109.7,164.2l0-5.5l3.8,1.2l-1.1,4.4L109.7,164.2L109.7,164.2z"/>
	<path class="st8" d="M177.6,160.6v-5.1l-3.2,1.5l1.5,2.9L177.6,160.6L177.6,160.6z"/>
	<path class="st18" d="M111.3,155.8l33.4-19.8c1.4-0.8,3.1-0.8,4.5,0l26.4,15.6c1.3,0.8,2.2,2.3,2.1,3.8c0,1.6-0.9,3-2.2,3.8
		l-31.9,18.1c-1.3,0.8-3,0.8-4.3,0l-27.9-15.7c-1-0.6-1.7-1.7-1.7-2.9C109.7,157.6,110.3,156.5,111.3,155.8L111.3,155.8z"/>
	<path class="st9" d="M139.8,148.9l3.8-1.6l7.9,15.3l-3.8,1.6L139.8,148.9L139.8,148.9z"/>
	<path class="st9" d="M158.1,152.7c1.7,0,3.4,0.3,5,0.9c1.3,0.6,2,1.3,2,2.2c0,0.9-0.7,1.6-2.1,2.2c-3.3,1.2-6.9,1.1-10.1-0.1
		c-1.3-0.6-2-1.3-2-2.2c0-0.9,0.7-1.6,2.1-2.2C154.6,152.9,156.4,152.7,158.1,152.7z M161,155.9c0-0.3-0.3-0.7-0.9-0.9
		c-0.7-0.3-1.4-0.4-2.1-0.4c-0.7,0-1.4,0.1-2.1,0.4c-0.6,0.3-0.9,0.6-0.9,0.9c0,0.3,0.3,0.7,0.9,0.9c0.7,0.3,1.4,0.4,2.1,0.4
		c0.7,0,1.4-0.1,2.1-0.4C160.7,156.5,161,156.2,161,155.9z"/>
	<path class="st9" d="M140.5,155.7c0,0.9-0.7,1.6-2.1,2.2c-3.3,1.2-6.9,1.1-10.1-0.1c-1.3-0.6-2-1.3-2-2.2c0-0.9,0.7-1.6,2.1-2.2
		c3.3-1.2,6.9-1.1,10.1,0.1C139.8,154.1,140.5,154.8,140.5,155.7z M131.3,156.5c0.7,0.3,1.4,0.4,2.1,0.4c0.7,0,1.4-0.1,2.1-0.4
		c0.6-0.3,0.9-0.6,0.9-0.9c0-0.3-0.3-0.7-0.9-0.9c-1.4-0.6-2.9-0.6-4.2-0.1c-0.6,0.3-0.9,0.6-0.9,0.9S130.7,156.3,131.3,156.5"/>
	<path class="st19" d="M326.2,32.1c-5.3,0.3-10.5,1.5-15.4,3.7c-7.7,3.5,15.4,9.8,15.4,9.8"/>
	<path class="st15" d="M306.2,66.1c-4.8-13.7,1.5-28.4,14-32.8s26.6,3.2,31.4,16.9c4.8,13.7-1.5,28.4-14,32.8
		C325,87.4,311,79.8,306.2,66.1z"/>
	<path class="st20" d="M299,67.7c-4.8-13.7,1.5-28.4,14-32.8c12.5-4.4,26.6,3.2,31.4,16.9s-1.5,28.4-14,32.8
		C317.9,89,303.8,81.4,299,67.7z"/>
	<path vector-effect="non-scaling-stroke" class="st21" d="M301.8,66.7c-4.2-12,1.3-24.9,12.3-28.7s23.3,2.8,27.5,14.8
		s-1.3,24.9-12.3,28.7C318.3,85.4,306,78.8,301.8,66.7z"/>
	<path class="st15" d="M326.7,47.4c0.7,0.3,1.3,0.8,1.9,1.3l0.6,0.6l-3.1,3.3c-0.1-0.2-0.3-0.3-0.6-0.6c-0.5-0.4-1-0.7-1.5-0.9
		c-0.7-0.4-1.6-0.6-2.4-0.6c-0.9,0-1.7,0.2-2.4,0.8c-0.6,0.4-0.9,1.1-0.9,1.8c0,0.8,0.5,1.6,1.3,1.9c0.9,0.6,1.9,1,3,1.3
		c1.2,0.3,2.3,0.7,3.5,1.2c1.2,0.4,2.2,1.2,3,2.2c0.9,1.1,1.3,2.5,1.3,3.9c0,1.7-0.6,3.4-1.7,4.7c-1.3,1.4-3,2.3-4.8,2.6v3.3h-4.5
		v-3.2c-0.9-0.1-1.7-0.4-2.6-0.7c-0.7-0.3-1.4-0.6-2.1-1c-0.5-0.3-1-0.6-1.4-1c-0.3-0.2-0.6-0.5-0.9-0.8l-0.3-0.3l3-3.1
		c0.2,0.2,0.4,0.4,0.7,0.7c0.6,0.5,1.2,0.9,1.9,1.1c1,0.5,2,0.7,3.1,0.7c1,0.1,2.1-0.3,2.9-0.9c0.7-0.5,1.1-1.4,1-2.2
		c0-0.8-0.5-1.6-1.3-2c-0.9-0.6-1.9-1-3-1.3c-1.2-0.3-2.3-0.7-3.5-1.2c-1.2-0.5-2.2-1.2-3-2.2c-0.9-1.1-1.3-2.5-1.3-3.9
		c0-1.6,0.7-3.2,1.8-4.3c1.2-1.3,2.9-2.2,4.6-2.5V43h4.5v3.3C324.8,46.5,325.8,46.9,326.7,47.4z"/>
	<linearGradient id="SVGID_8_" gradientUnits="userSpaceOnUse" x1="323.857" y1="136.563" x2="350.552" y2="136.563">
		<stop  offset="0" style="stop-color:#F5524E"/>
		<stop  offset="1" style="stop-color:#D0342F"/>
	</linearGradient>
	<path class="st22" d="M331.8,165.9l10.5,6v-45.3l8.2,4.7l-12.9-30l-13.8,15.4l8.4,4.6L331.8,165.9L331.8,165.9z"/>
	<linearGradient id="SVGID_9_" gradientUnits="userSpaceOnUse" x1="356.542" y1="138.3525" x2="383.236" y2="138.3525">
		<stop  offset="0" style="stop-color:#F5524E"/>
		<stop  offset="1" style="stop-color:#D0342F"/>
	</linearGradient>
	<path class="st23" d="M364.5,186l10.5,5.7v-81.5l8.2,4.7l-12.9-30l-13.8,15.4l8.4,4.6L364.5,186L364.5,186z"/>
	<linearGradient id="SVGID_10_" gradientUnits="userSpaceOnUse" x1="221.2944" y1="45.1998" x2="288.5476" y2="45.1998">
		<stop  offset="0" style="stop-color:#F5524E"/>
		<stop  offset="1" style="stop-color:#D0342F"/>
	</linearGradient>
	<path class="st24" d="M223.7,57.2c-6.9-18,1.4-37.9,18.7-44.6c17.2-6.6,36.8,2.6,43.7,20.6c6.9,18-1.4,37.9-18.7,44.6
		C250.2,84.4,230.6,75.2,223.7,57.2z"/>
	<linearGradient id="SVGID_11_" gradientUnits="userSpaceOnUse" x1="219.9532" y1="46.239" x2="284.5038" y2="46.239">
		<stop  offset="0" style="stop-color:#F5524E"/>
		<stop  offset="1" style="stop-color:#D0342F"/>
	</linearGradient>
	<path class="st25" d="M222.5,57.7c-6.9-18,0.8-37.7,17.2-44c16.4-6.3,35.4,3.1,42.3,21.1s-0.8,37.7-17.2,44
		C248.3,85.1,229.4,75.7,222.5,57.7z"/>
	<path class="st26" d="M213.9,38.8l40,7.4l-20.3-37C233.7,9.1,216,17.8,213.9,38.8z"/>
	<g class="st27">
		<path class="st28" d="M254,46.2l30-3.8c0,0-0.6-17.2-20-27.5c-8.5-4.3-18.6-4.3-27.2,0L254,46.2z"/>
	</g>
	<g class="st29">
		<path class="st30" d="M269.6,218.5l59.2-5.1c0,0,5.3,4.7,4.3,6.3l-63.5,5.4C269.6,225.1,267.3,219.9,269.6,218.5z"/>
	</g>
	<g class="st29">
		<path class="st30" d="M271.8,230l62.3-4.9l-1.8,2.4l-58.4,5L271.8,230L271.8,230z"/>
	</g>
	<path class="st7" d="M300.7,247.3c-22.2,0-39.7-11.5-39.7-26.2s17.4-26.2,39.7-26.2c22.2,0,39.7,11.5,39.7,26.2
		S322.9,247.3,300.7,247.3z M300.7,203.9c-16.7,0-30.7,7.9-30.7,17.2c0,9.3,14.1,17.2,30.7,17.2s30.7-7.9,30.7-17.2
		C331.3,211.8,317.3,204,300.7,203.9L300.7,203.9z"/>
	<path class="st7" d="M269.2,231l-49,29.1c-7.1,4.2-0.6,15.3,6.4,11.1l49-29.1C282.7,237.9,276.3,226.8,269.2,231z"/>
	<g class="st27">
		<path class="st31" d="M269.2,231l-49,29.1c-7.1,4.2-0.6,15.3,6.4,11.1l49-29.1C282.7,237.9,276.3,226.8,269.2,231z"/>
	</g>
	<path class="st9" d="M300.7,247.3c-22.2,0-39.7-11.5-39.7-26.2s17.4-26.2,39.7-26.2c22.2,0,39.7,11.5,39.7,26.2
		S322.9,247.3,300.7,247.3z M300.7,203.9c-16.7,0-30.7,7.9-30.7,17.2c0,9.3,14.1,17.2,30.7,17.2s30.7-7.9,30.7-17.2
		C331.3,211.8,317.3,204,300.7,203.9L300.7,203.9z"/>
	<path class="st32" d="M199.4,66.8c-5.1,4.4-9,10.1-11.2,16.5c-4,10.9,5.9,28.7,5.9,28.7l15.4-12.1"/>
	<path class="st33" d="M197.7,210.9l-4.2-2.3l1.1-6c0,0,6.2,0.6,6.7,2.8"/>
	<path class="st9" d="M199.2,210.8c0.9-0.6,1.9-1.1,2.9-1.6c2.4-1.3,5.9-2.7,7.4-5.1c0.6-1,0.5-2.3-0.2-3.2c-2.2-2.6-7,1.7-9.4-1.3
		c-0.5-0.6-0.7-9.7-0.7-9.7l-9.3,2.6c0,0-1.6,18.4-1.4,19.6l3.4,2.2c0.9-0.2,1.9-0.5,2.7-1c1-0.7,0.1-9.4,1.3-8.1
		c1.2,1.2,1.8,5.9,1.8,5.9C198.2,211,198.7,210.9,199.2,210.8z"/>
	<path class="st33" d="M215.5,219.8l-4.2-2.3l1.1-6c0,0,6.2,0.6,6.7,2.8"/>
	<path class="st9" d="M217,219.7c0.9-0.6,1.9-1.1,2.9-1.6c2.4-1.3,5.9-2.7,7.4-5.1c0.6-1,0.5-2.3-0.2-3.2c-2.2-2.6-7,1.7-9.4-1.3
		c-0.5-0.6-0.7-9.7-0.7-9.7l-9.3,2.6c0,0-1.6,18.4-1.4,19.6l3.4,2.2c0.9-0.2,1.9-0.5,2.7-1c1-0.7,0.1-9.4,1.3-8.1
		c1.2,1.2,1.8,5.9,1.8,5.9C216,219.9,216.5,219.8,217,219.7z"/>
	<path class="st34" d="M185.2,159.9l-2.7,36.6c0,0,4.3,6,19,2.7l0,0l0.1-24.7"/>
	<path class="st34" d="M202.1,167.2c-0.3,3.2,0,37.9,0,37.9s4,7.6,21.7,0l-0.2-29.5"/>
	<path class="st34" d="M186.8,169.3c4.6,2.7,9.4,4.8,14.4,6.4h0.1c0.5-0.2,1.1,0,1.3,0.5c3.1,0.9,6.3,1.6,9.5,2.1
		c4.1,0.7,7.5-2.4,11.7-2.6c0-16.1,0.1-62.2-6.8-71.8l-20.3-6.8c-0.1,1.7-9.9,13-9.6,26.8c0.1,12.3-0.5,24.6-1.8,36.8"/>
	<path class="st32" d="M218.8,85.2l-1.9,18.5c0,0-15.2,0.6-21.7-3.8V84.1"/>
	<path class="st35" d="M238.2,73l-1.6,2.1c0.8-1.7,1.6-3.5,2.2-5.3c0.4-1.3-1.5-1.7-2-0.5l-0.2,0.6c0.2-0.6,0.4-1.3,0.5-2
		c0.1-0.5-0.2-1.1-0.7-1.2c-0.5-0.1-1.1,0.2-1.2,0.7c-0.4,1.7-0.9,3.4-1.5,5.1c0.3-1.5,0.6-3,0.7-4.5c0.1-1.3-1.9-1.3-2,0
		c-0.2,1.7-0.5,3.4-0.9,5.1c0-0.6-0.1-1.2-0.2-1.7c0-0.3-0.2-0.6-0.4-0.7c0-0.2-0.1-0.4-0.2-0.7c-0.2-0.5-0.6-0.7-1.1-0.7
		c-0.5,0.1-0.8,0.5-0.9,1l-0.1,7.7c-0.4,0.8-0.8,1.5-1.4,2.2c1,0.7,1.9,1.4,2.8,2.2c0.8,0.7,1.6,1.4,2.3,2.2
		c0.7-0.8,1.3-1.6,1.9-2.5c0.1-0.1,0.1-0.1,0.2-0.2c1.8-2.7,3.7-5.3,5.6-7.9C240.7,73,238.9,72,238.2,73z"/>
	<path class="st32" d="M209.2,68.3c0,0,7.2,1.9,10.1,6.6c1.8,3.2,3.4,6.5,4.8,9.9l5.3-8.2c0,0,6.4,2,9,5.1c0,0-7.7,16.7-14.3,18.1
		c-6.6,1.4-13.7-9.9-13.7-9.9s-1.5,4.7-1.2-0.3"/>
	<path class="st36" d="M213.8,86.2c-2.1-1.7-3.6-3.9-4.5-6.4c-0.9-2.9,0.2-5.5,1.3-8.2c1.1-2.7,1.7-5.6,1.9-8.5
		c0.1-2.9-0.2-5.7-0.4-8.6c0-0.1,0-0.2,0-0.4c-0.9-3.2-2.9-5.9-6.8-6.3c-10-0.8-10.6,10.3-10.5,14.8c0.1,4.5,0.6,7.6-2.8,9.5
		c-3.3,1.9-5.7,6.8-2.6,10.8s0.3,2.6-1.8,6.1c-2.1,3.5-1.6,8,2.8,9.6c4.3,1.6,24.5-1.4,26.4-3.3c0.7-0.8,1-1.7,0.9-2.7
		C217.2,90,215.8,87.8,213.8,86.2L213.8,86.2z"/>
</g>
</svg>
