<?xml version="1.0" encoding="utf-8"?>
<!-- Generator: Adobe Illustrator 24.0.1, SVG Export Plug-In . SVG Version: 6.00 Build 0)  -->
<svg version="1.1" id="Layer_1" xmlns="http://www.w3.org/2000/svg" xmlns:xlink="http://www.w3.org/1999/xlink" x="0px" y="0px"
	 viewBox="0 0 400 300" style="enable-background:new 0 0 400 300;" xml:space="preserve">
<style type="text/css">
	.st0{clip-path:url(#SVGID_2_);}
	.st1{fill:none;}
	.st2{opacity:0.45;}
	.st3{fill:#E6E6E6;}
	.st4{fill:#FFD200;}
	.st5{opacity:8.000000e-02;}
	.st6{fill:#282B4E;}
	.st7{fill:#24285B;}
	.st8{fill:#FFFFFF;filter:url(#Adobe_OpacityMaskFilter);}
	
		.st9{mask:url(#_mask_R1VS1hyKcmfnBNt0YI7wbxSVEnCPhD1e_1_);fill:none;stroke:#FFD200;stroke-width:1.423;stroke-linecap:round;stroke-linejoin:round;}
	.st10{fill:#FFFFFF;filter:url(#Adobe_OpacityMaskFilter_1_);}
	
		.st11{mask:url(#_mask_v7rLMNOqg5YZz29zL88tnlUQYgYipzC0_1_);fill:none;stroke:#FFD200;stroke-width:1.423;stroke-linecap:round;stroke-linejoin:round;}
	.st12{fill:url(#SVGID_3_);}
	.st13{fill:#FFFFFF;}
	.st14{fill:url(#SVGID_4_);}
</style>
<g>
	<defs>
		<rect id="SVGID_1_" width="400" height="300"/>
	</defs>
	<clipPath id="SVGID_2_">
		<use xlink:href="#SVGID_1_"  style="overflow:visible;"/>
	</clipPath>
	<g class="st0">
		<rect x="-479.7" y="381.4" class="st1" width="267.7" height="167.4"/>
		<g class="st2">
			<ellipse vector-effect="non-scaling-stroke" class="st3" cx="200" cy="258.2" rx="194" ry="19.8"/>
		</g>
		<path class="st4" d="M250,218.3v12.1c0,5.5,15.3,9.9,34.2,9.9c19,0,34.2-4.6,34.2-10v-12.1L250,218.3z"/>
		<path class="st4" d="M250,232.9V245c0,5.5,15.3,9.9,34.2,9.9c19,0,34.2-4.6,34.2-10v-12.1L250,232.9z"/>
		<g class="st5">
			<path d="M250,232.9V245c0,5.5,15.3,9.9,34.2,9.9c19,0,34.2-4.6,34.2-10v-12.1L250,232.9z"/>
		</g>
		<path class="st4" d="M250.7,232.5c0-5.4,15.2-9.9,33.9-9.9c18.7,0,33.9,4.4,33.9,9.8c0,5.4-15.2,9.9-33.9,9.9
			C265.9,242.3,250.7,237.9,250.7,232.5z"/>
		<g class="st5">
			<path d="M250,218.3v12.1c0,5.5,15.3,9.9,34.2,9.9c19,0,34.2-4.6,34.2-10v-12.1L250,218.3z"/>
		</g>
		<path class="st4" d="M252.4,203.8v12.1c0,5.5,15.3,9.9,34.2,9.9c19,0,34.2-4.5,34.2-10v-12.2L252.4,203.8z"/>
		<path class="st4" d="M249.9,189.1v12.1c0,5.5,15.3,9.9,34.2,9.9c19,0,34.2-4.5,34.2-10v-12.2L249.9,189.1z"/>
		<path class="st4" d="M250.6,218c0-5.4,15.2-9.9,33.9-9.9c18.7,0,33.9,4.4,33.9,9.8c0,5.4-15.2,9.9-33.9,9.9
			C265.8,227.8,250.6,223.4,250.6,218z"/>
		<g class="st5">
			<path d="M252.4,203.8v12.1c0,5.5,15.3,9.9,34.2,9.9c19,0,34.2-4.5,34.2-10v-12.2L252.4,203.8z"/>
		</g>
		<path class="st4" d="M253.1,203.6c0-5.4,15.2-9.9,33.9-9.9c18.7,0,33.9,4.4,33.9,9.8c0,5.4-15.2,9.9-33.9,9.9
			C268.3,213.4,253.1,209,253.1,203.6z"/>
		<g class="st5">
			<path d="M249.9,189.1v12.1c0,5.5,15.3,9.9,34.2,9.9c19,0,34.2-4.5,34.2-10v-12.2L249.9,189.1z"/>
		</g>
		<path class="st4" d="M249.9,189.1c0-5.4,15.3-9.9,34.2-9.9c18.9,0,34.2,4.4,34.2,9.8c0,5.4-15.3,9.9-34.2,9.9
			C265.3,199,249.9,194.6,249.9,189.1z"/>
		<path class="st6" d="M145.3,89.5c0,0-26.5,42.1-35.6,88.3s2.8,79.7,82.3,80.4c79.5,0.8,101.1-30.2,90-74.3
			c-11.2-44.2-70.4-101-70.4-101L145.3,89.5z"/>
		<path class="st7" d="M145.3,89.5c0,0-38.6-28.6-26.5-46.3c0,0,37.7-11.2,51.6-16.8c0,0,87-11.7,41.2,56.5L145.3,89.5z"/>
		<path class="st1" d="M142.1,89.5c0,0,40.9-7.8,75.3-6.6"/>
		<defs>
			<filter id="Adobe_OpacityMaskFilter" filterUnits="userSpaceOnUse" x="141.4" y="82.1" width="76.8" height="8.1">
				<feColorMatrix  type="matrix" values="1 0 0 0 0  0 1 0 0 0  0 0 1 0 0  0 0 0 1 0"/>
			</filter>
		</defs>
		<mask maskUnits="userSpaceOnUse" x="141.4" y="82.1" width="76.8" height="8.1" id="_mask_R1VS1hyKcmfnBNt0YI7wbxSVEnCPhD1e_1_">
			<rect x="-800" y="-600" class="st8" width="1600" height="1200"/>
			<path d="M142.1,89.5c0,0,40.9-7.8,75.3-6.6"/>
		</mask>
		<path vector-effect="non-scaling-stroke" class="st9" d="M142.1,89.5c0,0,40.9-7.8,75.3-6.6"/>
		<path class="st1" d="M213.7,82.8c0,0,20.5-47,45.1-22.4l-43.5,22.5l0,0c0,0,65.6,21.2,32.1,45.4
			C213.9,152.5,213.7,82.8,213.7,82.8z"/>
		<defs>
			<filter id="Adobe_OpacityMaskFilter_1_" filterUnits="userSpaceOnUse" x="213" y="52.6" width="46.5" height="81.6">
				<feColorMatrix  type="matrix" values="1 0 0 0 0  0 1 0 0 0  0 0 1 0 0  0 0 0 1 0"/>
			</filter>
		</defs>
		<mask maskUnits="userSpaceOnUse" x="213" y="52.6" width="46.5" height="81.6" id="_mask_v7rLMNOqg5YZz29zL88tnlUQYgYipzC0_1_">
			<rect x="-800" y="-600" class="st10" width="1600" height="1200"/>
			<path d="M213.7,82.8c0,0,20.5-47,45.1-22.4l-43.5,22.5l0,0c0,0,65.6,21.2,32.1,45.4C213.9,152.5,213.7,82.8,213.7,82.8z"/>
		</mask>
		<path vector-effect="non-scaling-stroke" class="st11" d="M213.7,82.8c0,0,20.5-47,45.1-22.4l-43.5,22.5l0,0
			c0,0,65.6,21.2,32.1,45.4C213.9,152.5,213.7,82.8,213.7,82.8z"/>
		<linearGradient id="SVGID_3_" gradientUnits="userSpaceOnUse" x1="167.7397" y1="185.9696" x2="247.5961" y2="185.9696">
			<stop  offset="0" style="stop-color:#F5524E"/>
			<stop  offset="1" style="stop-color:#D0342F"/>
		</linearGradient>
		<circle vector-effect="non-scaling-stroke" class="st12" cx="207.7" cy="186" r="39.9"/>
		<path class="st13" d="M206,162.4c1.3-0.2,1.7,0.2,1.9,1.5l0.4,2.7c5.2,0,8.6,2.1,11.4,6.2c0.9,1.2,0.7,2-0.7,2.9l-2.6,1.6
			c-1.2,0.8-1.8,0.6-2.8-0.6c-1.6-2.7-4.8-4-7.8-3.2c-4.8,0.7-6.7,2.4-6.2,5.6c0.3,2.1,2.4,3.1,4.4,3.2c1.4,0.1,2.7,0.1,4.1,0
			c2.5-0.2,5.1-0.1,7.6,0.4c1.3,0.2,2.5,0.7,3.6,1.3c2.3,1.8,3.8,4.5,4.1,7.4c0.9,6.1-2.6,10.8-9.6,12.9l0.4,2.9
			c0.2,1.3-0.1,1.8-1.4,2l-3.1,0.5c-1.3,0.2-1.8-0.2-2-1.5l-0.4-2.8c-5.2,0.4-10.1-2.3-12.5-6.9c-0.3-0.5-0.4-1.1-0.2-1.6
			c0.2-0.5,0.6-1,1.1-1.2l2.6-1.4c1.3-0.7,2-0.5,2.8,0.8c1.7,2.9,4.4,4.1,8.2,3.6c5.1-0.8,7.5-2.7,7-6.1c-0.2-1.6-1.4-2.8-2.9-3.1
			c-1.9-0.4-3.8-0.5-5.7-0.2c-2.6,0.2-5.2,0.1-7.7-0.5c-1.2-0.2-2.4-0.7-3.5-1.4c-2.3-1.7-3.8-4.3-4.1-7.1c-0.9-6,2.3-10.6,9.3-12.6
			l-0.4-2.7c-0.2-1.3,0.2-1.8,1.5-2L206,162.4z"/>
		<linearGradient id="SVGID_4_" gradientUnits="userSpaceOnUse" x1="116.4382" y1="40.8693" x2="227.5644" y2="40.8693">
			<stop  offset="0" style="stop-color:#F5524E"/>
			<stop  offset="1" style="stop-color:#D0342F"/>
		</linearGradient>
		<path class="st14" d="M118.8,42.4c0,0-8.8,14.1,7.4,17.3c0,0,30.9-10.8,43.7-6.4c0,0,50.3,13.4,56.5-4.2c6.2-17.7-16.3-28-31.8-27
			C179.1,23.1,124.4,25.5,118.8,42.4z"/>
		<path class="st4" d="M71.2,220.1v13.6c0,6.1,17.2,11.1,38.3,11.1c21.2,0,38.3-5.1,38.3-11.2V220L71.2,220.1z"/>
		<path class="st4" d="M71.2,236.4V250c0,6.1,17.2,11.1,38.3,11.1c21.2,0,38.3-5,38.3-11.2v-13.6L71.2,236.4z"/>
		<g class="st5">
			<path d="M71.2,236.4V250c0,6.1,17.2,11.1,38.3,11.1c21.2,0,38.3-5,38.3-11.2v-13.6L71.2,236.4z"/>
		</g>
		<path class="st4" d="M72,236c0-6.1,17-11.1,37.9-11.1c20.9,0,38,4.9,38,11c0,6.1-17,11.1-37.9,11.1C89,247,72,242.1,72,236z"/>
		<g class="st5">
			<path d="M71.2,220.1v13.6c0,6.1,17.2,11.1,38.3,11.1c21.2,0,38.3-5.1,38.3-11.2V220L71.2,220.1z"/>
		</g>
		<path class="st4" d="M74,203.8v13.6c0,6.1,17.2,11.1,38.3,11.1c21.2,0,38.3-5,38.3-11.2v-13.6L74,203.8z"/>
		<path class="st4" d="M71.2,187.5V201c0,6.1,17.2,11.1,38.3,11.1c21.1,0,38.3-5.1,38.3-11.2v-13.6L71.2,187.5z"/>
		<path class="st4" d="M71.9,219.8c0-6.1,17-11.1,37.9-11.1c20.9,0,38,4.9,38,11c0,6.1-17,11.1-37.9,11.1
			C89,230.8,72,225.8,71.9,219.8z"/>
		<g class="st5">
			<path d="M74,203.8v13.6c0,6.1,17.2,11.1,38.3,11.1c21.2,0,38.3-5,38.3-11.2v-13.6L74,203.8z"/>
		</g>
		<path class="st4" d="M74.7,203.7c0-6.1,17-11.1,37.9-11.1c20.9,0,38,4.9,38,11s-17,11.1-37.9,11.1
			C91.7,214.7,74.7,209.8,74.7,203.7z"/>
		<g class="st5">
			<path d="M71.2,187.5V201c0,6.1,17.2,11.1,38.3,11.1c21.1,0,38.3-5.1,38.3-11.2v-13.6L71.2,187.5z"/>
		</g>
		<g class="st5">
			<circle vector-effect="non-scaling-stroke" cx="72.7" cy="235.2" r="28.4"/>
		</g>
		<g class="st5">
			<path d="M91.6,206.7c0,0,29.8,9.1,25,54.2c0,0-19.4,0.6-28.6-1.7C79.7,257.1,91.6,206.7,91.6,206.7z"/>
		</g>
		<path class="st4" d="M71.2,187.5c0-6.1,17.1-11.1,38.3-11.1c21.1,0,38.3,4.9,38.3,11c0,6.1-17.1,11.1-38.3,11.1
			C88.4,198.5,71.2,193.6,71.2,187.5z"/>
		<circle vector-effect="non-scaling-stroke" class="st4" cx="72.7" cy="235.2" r="28.4"/>
		<g class="st5">
			<circle vector-effect="non-scaling-stroke" cx="72.7" cy="235.2" r="28.4"/>
		</g>
		<g class="st5">
			<circle vector-effect="non-scaling-stroke" cx="71.3" cy="226.6" r="28.4"/>
		</g>
		<circle vector-effect="non-scaling-stroke" class="st4" cx="71.3" cy="226.6" r="28.4"/>
		<path class="st13" d="M72.4,211.7c0.8,0,1.1,0.3,1.1,1.1v1.7c2.9,0.3,5.4,2.2,6.4,4.9c0.4,0.8,0.2,1.3-0.7,1.7l-1.7,0.8
			c-0.8,0.4-1.2,0.2-1.6-0.6c-0.7-1.8-2.6-2.9-4.5-2.7c-3.1,0-4.3,0.9-4.3,2.9c0,1.3,1.2,2.1,2.4,2.3c0.8,0.2,1.7,0.3,2.5,0.4
			c1.6,0.1,3.1,0.4,4.6,0.9c0.8,0.2,1.5,0.6,2.1,1.1c1.3,1.3,1.9,3.1,1.9,4.9c0,3.8-2.6,6.4-7.1,7.1v1.8c0,0.8-0.2,1.1-1.1,1.1h-1.9
			c-0.8,0-1.1-0.3-1.1-1.1v-1.8c-3.2-0.2-6-2.3-7-5.4c-0.2-0.3-0.2-0.7,0-1c0.2-0.3,0.4-0.5,0.8-0.6l1.7-0.6
			c0.9-0.3,1.3-0.1,1.6,0.8c0.7,1.9,2.7,3.1,4.7,2.9c3.2,0,4.8-1,4.8-3.1c0.1-1-0.6-1.9-1.5-2.2c-1.1-0.4-2.3-0.6-3.5-0.7
			c-1.6-0.1-3.2-0.4-4.7-1c-0.7-0.3-1.4-0.7-2-1.2c-1.3-1.2-2-3-1.9-4.8c0-3.8,2.4-6.3,6.9-6.9v-1.7c0-0.8,0.3-1.1,1.1-1.1
			L72.4,211.7z"/>
	</g>
</g>
</svg>
