<?xml version="1.0" encoding="UTF-8" standalone="no"?><!-- Generator: Gravit.io --><svg xmlns="http://www.w3.org/2000/svg" xmlns:xlink="http://www.w3.org/1999/xlink" style="isolation:isolate" viewBox="0 0 400 300" width="400pt" height="300pt"><defs><clipPath id="_clipPath_Z9AOeEuCEDr9uBNJ3DjLctLs4aiEtH9L"><rect width="400" height="300"/></clipPath></defs><g clip-path="url(#_clipPath_Z9AOeEuCEDr9uBNJ3DjLctLs4aiEtH9L)"><path d=" M 206.264 47.741 C 144.782 39.479 59.174 44.863 20.646 102.063 C 11.448 115.709 6.739 132.949 10.553 148.963 C 19.2 185.247 64.379 210.928 95.43 225.496 C 132.609 242.86 173.354 251.934 214.182 254.275 C 254.418 256.575 296.912 256.217 335.054 241.69 C 362.663 231.169 387.049 211.107 391.91 180.551 C 400.668 125.472 341.168 88.913 297.779 71.673 C 268.345 60.053 237.619 52.017 206.264 47.741 L 206.264 47.741 Z " fill="rgb(40,43,78)"/><path d=" M 138.837 118.977 C 141.808 112.609 143.696 105.75 147.019 99.539 C 153.591 87.284 165.532 78.129 170.076 64.985 C 175.547 67.179 177.379 74.149 176.778 80.017 C 176.176 85.886 173.899 91.578 174.177 97.465 C 189.681 84.688 209.268 77.923 229.353 78.407 C 234.185 78.546 239.415 79.332 242.812 82.739 C 245.181 85.136 246.274 88.487 247.282 91.699 C 249.874 99.909 252.494 108.554 250.791 116.987 C 250.263 119.597 249.328 122.189 249.559 124.836 C 249.893 128.455 252.336 132.167 250.818 135.462 C 250.244 136.684 249.171 137.637 248.726 138.915 C 247.912 141.275 249.504 143.737 249.837 146.209 C 250.522 151.179 246.135 155.354 241.775 157.816 C 228.816 165.11 213.432 166.47 199.4 171.404 C 154.23 187.269 137.106 177.819 136.587 176.199 C 133.042 165.295 125.748 151.586 124.961 140.192 C 124.425 132.426 135.495 126.141 138.837 118.977 Z " fill="rgb(119,84,52)"/><path d=" M 162.301 153.41 C 160.08 157.038 165.254 161.343 167.485 164.962 C 168.605 166.813 169.826 168.664 171.752 169.645 C 173.455 170.488 175.454 170.423 177.352 170.349 C 181.165 170.182 185.108 169.988 188.505 168.238 C 193.754 165.545 196.586 159.787 198.78 154.308 C 205.259 138.165 209.184 120.06 203.871 103.463 C 202.343 98.687 199.678 93.781 195.013 91.939 C 190.486 90.162 185.395 91.764 180.925 93.67 C 178.333 94.781 173.381 96.105 171.937 98.696 C 170.65 100.992 177.472 128.65 162.301 153.41 Z " fill="rgb(57,43,30)"/><path d=" M 140.355 191.823 C 139.706 192.87 138.763 193.701 137.643 194.211 C 117.566 206.161 60.325 232.532 42.507 247.61 C 36.139 253.035 29.752 258.718 22.356 262.494 Q 19.579 259.014 17.034 255.33 C 14.489 251.646 16.969 255.228 16.932 255.201 C 0.271 231.051 -7.347 201.894 1.891 174.579 C 7.926 174.005 19.996 165.323 24.652 163.157 C 41.757 155.28 97.545 135.906 115.631 130.547 C 117.177 130.066 118.954 129.621 120.435 130.325 C 121.575 131.056 122.484 132.096 123.055 133.324 C 130.676 146.696 136.022 161.241 138.874 176.365 C 139.651 180.336 140.225 184.372 140.651 188.398 C 140.875 189.545 140.773 190.732 140.355 191.823 Z " fill="rgb(218,97,56)"/><path d="M 181.944 48.8 L 234.056 48.8 C 239.45 48.8 243.83 53.18 243.83 58.574 L 243.83 168.646 C 243.83 174.04 239.45 178.42 234.056 178.42 L 181.944 178.42 C 176.55 178.42 172.17 174.04 172.17 168.646 L 172.17 58.574 C 172.17 53.18 176.55 48.8 181.944 48.8 Z" style="stroke:none;fill:#6F6F6F;stroke-miterlimit:10;"/><rect x="175.778" y="56.988" width="64.423" height="108.057" transform="matrix(1,0,0,1,0,0)" fill="rgb(255,255,255)"/><circle vector-effect="non-scaling-stroke" cx="206.67540180667612" cy="86.49674857600375" r="21.020873565624925" fill="rgb(40,43,78)"/><path d="M 186.889 135.46 L 225.311 135.46 C 227.17 135.46 228.68 136.969 228.68 138.829 L 228.68 146.491 C 228.68 148.351 227.17 149.86 225.311 149.86 L 186.889 149.86 C 185.03 149.86 183.52 148.351 183.52 146.491 L 183.52 138.829 C 183.52 136.969 185.03 135.46 186.889 135.46 Z" style="stroke:none;fill:#DA6138;stroke-miterlimit:10;"/><path d=" M 190.088 144.422 C 190.082 144.731 190.097 145.041 190.135 145.348 L 188.82 145.348 C 188.858 145.041 188.873 144.731 188.866 144.422 L 188.866 141.414 L 188.172 141.414 C 187.793 141.414 187.691 141.414 187.247 141.414 L 187.247 140.275 C 187.555 140.295 187.864 140.295 188.172 140.275 L 190.792 140.275 C 191.1 140.293 191.409 140.293 191.717 140.275 L 191.717 141.414 C 191.409 141.397 191.1 141.397 190.792 141.414 L 190.116 141.414 L 190.088 144.422 Z " fill="rgb(255,255,255)"/><path d=" M 195.17 145.32 C 195.096 145.004 194.997 144.695 194.874 144.394 C 194.689 143.867 194.615 143.737 194.466 143.608 C 194.341 143.493 194.174 143.433 194.004 143.441 L 193.393 143.441 L 193.393 144.422 C 193.384 144.731 193.4 145.041 193.439 145.348 L 192.152 145.348 C 192.197 145.041 192.216 144.732 192.208 144.422 L 192.208 141.192 C 192.211 140.898 192.192 140.604 192.152 140.312 L 193.078 140.312 L 194.633 140.312 C 195.559 140.312 196.16 140.812 196.16 141.673 C 196.184 142.035 196.057 142.39 195.809 142.654 C 195.644 142.792 195.451 142.893 195.244 142.95 C 195.549 143.043 195.688 143.182 195.873 143.608 C 195.966 143.793 196.049 143.996 196.318 144.644 C 196.382 144.811 196.457 144.959 196.605 145.274 L 195.17 145.32 Z  M 194.318 142.423 C 194.471 142.437 194.622 142.383 194.732 142.276 C 194.843 142.17 194.901 142.021 194.892 141.867 C 194.892 141.534 194.698 141.358 194.328 141.358 L 193.402 141.358 L 193.402 142.423 L 194.318 142.423 Z " fill="rgb(255,255,255)"/><path d=" M 200.446 145.32 C 200.414 145.104 200.368 144.891 200.307 144.681 L 200.141 144.172 L 198.437 144.172 L 198.28 144.681 C 198.21 144.889 198.16 145.103 198.132 145.32 L 196.734 145.32 C 196.849 145.087 196.945 144.846 197.021 144.598 L 198.308 140.997 C 198.394 140.792 198.459 140.578 198.502 140.359 L 200.057 140.359 C 200.112 140.575 200.18 140.789 200.261 140.997 L 201.557 144.598 C 201.668 144.913 201.77 145.153 201.844 145.32 L 200.446 145.32 Z  M 199.28 141.377 L 198.724 143.163 L 199.854 143.163 L 199.28 141.377 Z " fill="rgb(255,255,255)"/><path d=" M 205.111 142.793 C 205.267 143.022 205.409 143.26 205.537 143.506 C 205.537 143.237 205.537 142.96 205.537 142.626 L 205.537 141.266 C 205.542 140.956 205.523 140.647 205.481 140.34 L 206.759 140.34 C 206.721 140.647 206.705 140.957 206.712 141.266 L 206.712 144.431 C 206.71 144.741 206.725 145.05 206.759 145.357 L 205.444 145.357 C 205.314 145.094 205.166 144.84 205 144.598 L 203.899 142.932 C 203.739 142.697 203.593 142.453 203.463 142.201 C 203.499 142.508 203.515 142.817 203.51 143.126 L 203.51 144.468 C 203.487 144.777 203.487 145.086 203.51 145.394 L 202.242 145.394 C 202.266 145.086 202.266 144.777 202.242 144.468 L 202.242 141.331 C 202.264 141.022 202.264 140.713 202.242 140.405 L 203.538 140.405 C 203.648 140.667 203.787 140.915 203.954 141.145 L 205.111 142.793 Z " fill="rgb(255,255,255)"/><path d=" M 208.536 143.7 C 208.539 143.86 208.591 144.015 208.684 144.144 C 208.862 144.343 209.121 144.449 209.387 144.431 C 209.841 144.431 210.119 144.228 210.119 143.885 C 210.125 143.709 210.027 143.546 209.869 143.469 C 209.568 143.36 209.258 143.28 208.943 143.228 C 208.615 143.177 208.3 143.06 208.018 142.886 C 207.648 142.622 207.433 142.192 207.444 141.738 C 207.444 140.812 208.184 140.238 209.36 140.238 C 209.989 140.181 210.607 140.433 211.017 140.914 C 211.17 141.128 211.272 141.376 211.313 141.636 L 210.054 141.775 C 209.98 141.386 209.767 141.22 209.313 141.22 C 208.86 141.22 208.675 141.423 208.675 141.692 C 208.679 141.867 208.794 142.019 208.962 142.071 C 209.227 142.172 209.504 142.24 209.785 142.275 C 210.111 142.331 210.424 142.444 210.711 142.608 C 211.136 142.864 211.386 143.334 211.359 143.83 C 211.373 144.238 211.223 144.635 210.943 144.931 C 210.503 145.296 209.938 145.475 209.369 145.431 C 208.908 145.445 208.45 145.347 208.036 145.144 C 207.735 144.976 207.508 144.702 207.397 144.376 C 207.326 144.198 207.279 144.011 207.259 143.821 L 208.536 143.7 Z " fill="rgb(255,255,255)"/><path d=" M 213.275 144.283 C 213.264 144.63 213.279 144.976 213.321 145.32 L 212.035 145.32 C 212.084 144.983 212.103 144.642 212.09 144.302 L 212.09 141.192 C 212.112 140.902 212.112 140.611 212.09 140.322 C 212.331 140.322 212.507 140.322 212.96 140.322 L 214.691 140.322 C 215.024 140.346 215.358 140.346 215.691 140.322 L 215.691 141.46 C 215.359 141.425 215.025 141.41 214.691 141.414 L 213.321 141.414 L 213.321 142.395 L 214.441 142.395 C 214.749 142.418 215.059 142.418 215.367 142.395 L 215.367 143.506 C 215.06 143.472 214.751 143.457 214.441 143.46 L 213.321 143.46 L 213.275 144.283 Z " fill="rgb(255,255,255)"/><path d=" M 219.884 145.366 C 219.557 145.34 219.229 145.34 218.903 145.366 L 217.052 145.366 C 216.598 145.366 216.431 145.366 216.172 145.366 C 216.196 145.077 216.196 144.786 216.172 144.496 L 216.172 141.192 C 216.193 140.902 216.193 140.611 216.172 140.322 C 216.422 140.322 216.589 140.322 217.052 140.322 L 218.958 140.322 C 219.267 140.34 219.576 140.34 219.884 140.322 L 219.884 141.442 C 219.576 141.423 219.267 141.423 218.958 141.442 L 217.403 141.442 L 217.403 142.321 L 218.69 142.321 C 219.088 142.321 219.227 142.321 219.616 142.321 L 219.616 143.422 C 219.308 143.388 218.999 143.373 218.69 143.376 L 217.403 143.376 L 217.403 144.385 L 218.94 144.385 C 219.264 144.404 219.588 144.404 219.912 144.385 L 219.884 145.366 Z " fill="rgb(255,255,255)"/><path d=" M 223.512 145.32 C 223.438 145.005 223.343 144.696 223.226 144.394 C 223.031 143.867 222.957 143.737 222.809 143.608 C 222.683 143.493 222.517 143.433 222.346 143.441 L 221.735 143.441 L 221.735 144.422 C 221.727 144.731 221.742 145.041 221.782 145.348 L 220.495 145.348 C 220.54 145.041 220.558 144.732 220.55 144.422 L 220.55 141.192 C 220.553 140.898 220.535 140.604 220.495 140.312 L 221.421 140.312 L 222.966 140.312 C 223.938 140.312 224.494 140.812 224.494 141.673 C 224.518 142.035 224.39 142.39 224.142 142.654 C 223.978 142.794 223.785 142.895 223.577 142.95 C 223.883 143.043 224.022 143.182 224.207 143.608 C 224.299 143.793 224.383 143.996 224.651 144.644 C 224.716 144.811 224.79 144.959 224.938 145.274 L 223.512 145.32 Z  M 222.67 142.423 C 222.822 142.437 222.973 142.383 223.081 142.276 C 223.19 142.169 223.246 142.02 223.235 141.867 C 223.235 141.534 223.04 141.358 222.67 141.358 L 221.745 141.358 L 221.745 142.423 L 222.67 142.423 Z " fill="rgb(255,255,255)"/><linearGradient id="_lgradient_67" x1="0" y1="0.5" x2="0.8252388795289611" y2="1.06478384512465" gradientTransform="matrix(29.404,0,0,92.146,214.713,87.293)" gradientUnits="userSpaceOnUse"><stop offset="100%" stop-opacity="0" style="stop-color:rgb(1,1,1)"/><stop offset="100%" stop-opacity="0.007316546736271425" style="stop-color:rgb(1,1,1)"/></linearGradient><path d=" M 228.131 120.68 C 228.853 121.8 230.047 122.624 230.455 123.892 C 231.186 126.197 228.974 128.335 228.418 130.695 C 227.557 134.398 230.825 137.887 230.492 141.627 C 230.251 144.468 227.965 147.097 228.64 149.856 C 225.864 145.801 218.875 147.532 216.413 151.799 C 213.951 156.066 214.654 161.37 215.487 166.221 C 216.413 171.293 218.07 177.152 222.892 178.939 C 226.53 180.272 230.519 178.689 234.065 177.134 Q 231.464 167.609 229.325 157.964 C 233.618 157.906 237.854 158.941 241.636 160.972 C 243.173 156.15 243.191 150.994 243.2 145.94 L 243.247 111.257 L 243.247 93.356 C 243.247 89.783 245.459 89.524 242.83 87.293 C 239.424 92.911 228.992 89.949 228.465 96.614 C 228.104 101.103 231.241 104.389 230.121 109.082 C 229.353 112.738 225.706 116.876 228.131 120.68 Z " fill="url(#_lgradient_67)"/><path d=" M 305.624 274.639 C 305.191 275.193 304.641 275.645 304.014 275.962 C 298.395 279.248 292.388 282.673 285.862 282.645 C 276.282 282.58 274.894 290.652 268.368 283.645 C 259.751 274.389 242.701 255.293 234.731 245.445 C 227.946 237.114 225.595 228.728 224.882 217.944 C 224.623 214.427 224.401 210.743 225.725 207.448 C 226.428 205.597 230.047 198.053 230.89 196.211 C 231.082 195.778 231.252 195.337 231.399 194.887 C 232.852 190.592 232.213 185.946 230.63 181.493 L 230.63 181.493 C 229.641 178.78 228.402 176.165 226.928 173.681 C 222.892 166.804 217.885 160.028 217.302 152.114 C 217.172 150.087 217.366 147.884 218.662 146.273 C 220.597 143.821 224.438 143.691 227.215 145.144 C 229.992 146.597 231.926 149.18 233.741 151.735 C 238.739 158.927 243.423 166.322 247.717 173.95 C 250.069 170.812 254.428 169.655 258.242 170.497 C 262.055 171.339 265.314 173.848 267.729 176.921 C 269.312 178.985 270.701 181.336 272.996 182.53 C 274.847 183.502 276.995 183.567 278.966 184.178 C 286.131 186.316 289.296 194.415 292.656 201.098 C 295.146 206.069 298.21 210.78 300.061 216.047 C 301.774 221.017 302.255 226.349 302.477 231.606 C 303.06 244.75 302.153 258.144 305.643 270.834 C 305.976 272.084 306.337 273.556 305.624 274.639 Z " fill="rgb(119,84,52)"/><linearGradient id="_lgradient_68" x1="0" y1="0.5" x2="0.9121035887686657" y2="0.9099598069998092" gradientTransform="matrix(54.315,0,0,20.823,251.448,264.27)" gradientUnits="userSpaceOnUse"><stop offset="100%" stop-opacity="0" style="stop-color:rgb(1,1,1)"/><stop offset="100%" stop-opacity="0.010856348792774011" style="stop-color:rgb(1,1,1)"/></linearGradient><path d=" M 251.448 264.67 C 255.039 268.243 262.842 277.564 266.443 281.137 C 268.063 282.756 269.784 284.432 271.997 285.061 C 273.848 285.58 271.58 279.572 273.459 279.258 C 282.549 277.739 297.303 275.25 305.763 271.593 L 304.291 264.781 C 301.422 263.254 289.269 265.623 285.779 265.799 Q 277.004 266.234 268.192 265.919 C 265.175 265.817 253.577 266.78 251.448 264.67 Z " fill="url(#_lgradient_68)"/><path d=" M 330 290 C 329.892 290.115 265.69 290.8 259.14 294 C 249.171 268.499 259.14 282.182 259.14 282.182 L 264.471 280.6 L 312.891 266.364 L 330 290 Z " fill="rgb(218,97,56)"/><path d=" M 179.897 86.784 C 181.665 81.832 181.508 76.361 180.314 71.242 C 179.527 67.845 178.222 64.439 175.741 61.986 C 175.158 61.292 174.329 60.851 173.427 60.755 C 171.733 60.755 170.743 62.606 170.169 64.199 Q 166.559 74.204 163.615 84.442 C 162.546 87.586 161.972 90.877 161.912 94.198 C 162.079 99.881 165.208 104.296 170.317 99.816 C 174.288 96.318 178.083 91.847 179.897 86.784 Z " fill="rgb(119,84,52)"/><path d=" M 234.648 84.081 C 231.667 85.155 229.094 87.95 229.214 91.125 C 229.316 93.717 231.177 95.994 233.417 97.299 C 235.739 98.478 238.242 99.263 240.822 99.622 C 236.274 100.325 232.345 103.179 230.27 107.286 C 228.816 110.202 228.585 114.09 230.853 116.441 C 231.679 117.248 232.662 117.878 233.741 118.292 C 235.584 119.065 237.548 119.512 239.544 119.616 C 235.073 119.403 230.686 123.114 230.455 127.576 C 230.223 132.037 234.555 136.267 238.989 135.657 C 235.62 135.11 232.186 137.684 231.343 140.988 C 230.641 144.409 231.953 147.931 234.722 150.059 C 237.511 152.09 241.006 152.899 244.404 152.299 C 246.098 152.04 247.884 151.374 248.791 149.939 C 249.698 148.504 249.476 146.653 249.282 144.968 C 247.097 126.113 254.595 107.24 249.893 88.653 C 249.273 86.228 245.052 84.303 242.673 83.618 C 240.008 83.006 237.224 83.166 234.648 84.081 L 234.648 84.081 Z " fill="rgb(119,84,52)"/><linearGradient id="_lgradient_69" x1="0" y1="0.5" x2="0.5366093400619958" y2="1.3438307982991788" gradientTransform="matrix(134.206,0,0,86.332,6.565,176.163)" gradientUnits="userSpaceOnUse"><stop offset="100%" stop-opacity="0" style="stop-color:rgb(1,1,1)"/><stop offset="100%" stop-opacity="0.007495240522268356" style="stop-color:rgb(1,1,1)"/></linearGradient><path d=" M 140.355 191.823 C 139.706 192.87 138.763 193.701 137.643 194.211 C 117.566 206.161 60.325 232.532 42.507 247.61 C 36.139 253.035 29.752 258.718 22.356 262.494 C 20.367 260.274 18.585 257.876 17.034 255.33 C 17.034 255.33 16.969 255.228 16.932 255.201 C 13.148 248.959 9.688 242.527 6.565 235.929 C 27.04 238.188 136.578 176.199 136.578 176.199 C 137.345 176.123 138.12 176.167 138.874 176.328 C 139.651 180.299 140.225 184.335 140.651 188.361 C 140.882 189.52 140.78 190.721 140.355 191.823 L 140.355 191.823 Z " fill="url(#_lgradient_69)"/><linearGradient id="_lgradient_70" x1="0" y1="0.5" x2="0.6250792104239292" y2="-0.28056132410964174" gradientTransform="matrix(38.025,0,0,76.382,259.14,279.507)" gradientUnits="userSpaceOnUse"><stop offset="0%" stop-opacity="0" style="stop-color:rgb(1,1,1)"/></linearGradient><path d=" M 297.164 340.691 L 293.462 343.857 C 287.963 348.644 281.861 352.69 275.31 355.89 C 265.341 330.389 259.14 282.182 259.14 282.182 L 264.471 280.6 C 266.717 280.107 268.988 279.743 271.275 279.507 C 275.282 288.384 279.253 297.261 282.447 306.499 C 284.354 312.052 286.001 317.662 288.13 323.16 C 290.259 328.658 293.332 332.981 296.303 337.97 C 296.789 338.802 297.083 339.731 297.164 340.691 Z " fill="url(#_lgradient_70)"/><path d=" M 242.053 215.945 C 242.138 216.748 241.92 217.553 241.442 218.203 C 240.377 219.296 238.572 218.49 237.313 217.62 C 234.37 215.649 231.241 213.353 230.529 209.901 C 230.315 208.234 230.393 206.542 230.76 204.902 C 231.177 202.125 231.436 199.247 231.593 196.377 C 231.592 195.874 231.526 195.374 231.399 194.887 C 232.852 190.592 232.213 185.946 230.63 181.493 C 234.148 188.334 238.082 198.636 238.832 200.506 C 240.841 205.411 241.933 210.645 242.053 215.945 Z " fill="rgb(40,43,78)"/><path d=" M 199.622 119.412 L 210.35 119.412 L 208.379 116.552 L 210.822 116.552 L 214.682 121.272 L 199.854 121.272 L 199.622 119.412 L 199.622 119.412 Z " fill="rgb(40,43,78)"/><path d=" M 214.682 124.642 L 203.963 124.642 L 205.935 127.502 L 203.491 127.502 L 199.622 122.781 L 214.451 122.781 L 214.682 124.642 L 214.682 124.642 Z " fill="rgb(40,43,78)"/><path d=" M 206.027 100.002 L 206.027 96.762 C 204.279 96.76 202.566 96.266 201.085 95.336 L 201.862 93.18 C 203.242 94.073 204.847 94.555 206.49 94.568 C 208.786 94.568 210.341 93.235 210.341 91.403 C 210.341 89.57 209.082 88.524 206.638 87.552 C 203.343 86.256 201.307 84.775 201.307 81.998 C 201.307 79.221 203.214 77.278 206.185 76.796 L 206.185 73.529 L 208.193 73.529 L 208.193 76.667 C 209.667 76.68 211.114 77.068 212.396 77.796 L 211.581 79.934 C 210.354 79.2 208.948 78.819 207.518 78.833 C 205.028 78.833 204.093 80.323 204.093 81.609 C 204.093 83.294 205.287 84.127 208.092 85.312 C 211.424 86.673 213.108 88.348 213.108 91.227 C 213.108 93.781 211.331 96.169 207.999 96.716 L 207.999 100.076 L 206.027 100.002 Z " fill="rgb(218,97,56)"/><g><ellipse vector-effect="non-scaling-stroke" cx="309.7318338588709" cy="135.2945688553289" rx="39.77687304383841" ry="23.304614167342635" fill="rgb(255,145,46)"/><path d=" M 349.508 128.56 L 349.508 135.294 L 344.444 135.294 L 348.154 129.895 L 349.508 128.56 L 349.508 128.56 Z " fill="rgb(224,148,79)"/><ellipse vector-effect="non-scaling-stroke" cx="309.7318338588709" cy="128.56037958877587" rx="39.77687304383841" ry="23.304614167342635" fill="rgb(255,185,44)"/><path d=" M 329.895 125.459 C 330.172 126.004 330.28 126.619 330.209 127.225 L 330.053 127.835 L 322.788 127.835 C 322.853 127.637 322.898 127.432 322.926 127.225 C 322.898 126.757 322.749 126.304 322.493 125.909 C 322.091 125.205 321.481 124.643 320.747 124.299 C 319.691 123.744 318.522 123.434 317.329 123.397 C 316.227 123.315 315.12 123.483 314.09 123.888 Q 312.559 124.536 312.913 125.596 C 313.254 126.46 313.783 127.239 314.463 127.873 C 315.246 128.672 315.982 129.518 316.662 130.406 C 317.326 131.188 317.478 132.281 317.056 133.213 C 316.255 134.534 314.997 135.513 313.521 135.961 C 311.08 136.981 308.468 137.528 305.825 137.571 C 302.969 137.664 300.119 137.26 297.402 136.375 L 293.22 138.162 L 288.331 135.786 L 292.395 134.038 C 291.661 133.553 290.999 132.964 290.432 132.291 C 290.015 131.811 289.689 131.26 289.47 130.66 C 289.33 130.235 289.244 129.793 289.216 129.347 C 289.165 129.04 289.165 128.728 289.216 128.423 L 289.352 128.069 L 296.617 128.069 C 296.542 128.308 296.484 128.551 296.44 128.796 C 296.474 129.39 296.677 129.963 297.029 130.445 C 297.626 131.321 298.465 132.002 299.445 132.409 C 300.757 133.071 302.195 133.446 303.665 133.507 C 305.005 133.602 306.349 133.386 307.592 132.88 Q 309.104 132.232 308.731 131.172 C 308.372 130.301 307.822 129.523 307.121 128.895 C 306.321 128.104 305.58 127.258 304.902 126.361 C 304.257 125.568 304.134 124.471 304.588 123.553 C 305.455 122.21 306.769 121.215 308.298 120.747 C 310.646 119.799 313.151 119.307 315.681 119.293 C 318.352 119.203 321.015 119.617 323.534 120.51 L 327.696 118.723 L 332.251 121.199 L 328.07 122.984 C 328.886 123.634 329.517 124.487 329.895 125.459 L 329.895 125.459 Z " fill="rgb(234,139,36)"/><path d=" M 309.791 151.512 C 289.333 151.512 273.313 141.557 273.313 128.854 C 273.313 116.152 289.333 106.198 309.791 106.198 C 330.249 106.198 346.269 116.152 346.269 128.854 C 346.269 141.557 330.249 151.512 309.791 151.512 Z  M 309.791 112.382 C 293.378 112.382 279.497 119.922 279.497 128.854 C 279.497 137.789 293.378 145.327 309.791 145.327 C 326.204 145.327 340.085 137.789 340.085 128.854 C 340.085 119.922 326.223 112.382 309.791 112.382 L 309.791 112.382 Z " fill="rgb(247,147,30)"/><ellipse vector-effect="non-scaling-stroke" cx="309.7318338588709" cy="122.45445287770303" rx="39.77687304383841" ry="23.304614167342635" fill="rgb(255,145,46)"/><path d=" M 349.508 115.74 L 349.508 122.455 L 344.444 122.455 L 348.154 117.056 L 349.508 115.74 L 349.508 115.74 Z " fill="rgb(224,148,79)"/><ellipse vector-effect="non-scaling-stroke" cx="309.7318338588709" cy="115.7398968160088" rx="39.77687304383841" ry="23.30461416734262" fill="rgb(255,185,44)"/><path d=" M 329.895 112.618 C 330.172 113.163 330.28 113.778 330.209 114.386 L 330.053 114.994 L 322.788 114.994 C 322.853 114.796 322.898 114.593 322.926 114.386 C 322.898 113.916 322.749 113.463 322.493 113.07 C 322.091 112.366 321.481 111.804 320.747 111.46 C 319.691 110.903 318.522 110.595 317.329 110.556 C 316.227 110.474 315.12 110.642 314.09 111.047 Q 312.559 111.695 312.913 112.755 C 313.254 113.62 313.783 114.398 314.463 115.032 C 315.246 115.831 315.982 116.677 316.662 117.565 C 317.326 118.347 317.478 119.44 317.056 120.374 C 316.255 121.695 314.997 122.672 313.521 123.122 C 311.08 124.14 308.468 124.687 305.825 124.732 C 302.969 124.825 300.119 124.419 297.402 123.534 L 293.22 125.321 L 288.331 122.945 L 292.395 121.199 C 291.661 120.714 290.999 120.125 290.432 119.45 C 290.015 118.97 289.689 118.419 289.47 117.821 C 289.33 117.396 289.244 116.952 289.216 116.506 C 289.165 116.201 289.165 115.889 289.216 115.582 L 289.352 115.23 L 296.617 115.23 C 296.542 115.467 296.484 115.71 296.44 115.956 C 296.474 116.551 296.677 117.124 297.029 117.606 C 297.626 118.48 298.465 119.161 299.445 119.568 C 300.757 120.232 302.195 120.607 303.665 120.668 C 305.005 120.761 306.349 120.547 307.592 120.039 Q 309.104 119.391 308.731 118.331 C 308.372 117.462 307.822 116.683 307.121 116.054 C 306.321 115.265 305.58 114.417 304.902 113.521 C 304.257 112.729 304.134 111.63 304.588 110.714 C 305.455 109.369 306.769 108.375 308.298 107.906 C 310.646 106.958 313.151 106.466 315.681 106.454 C 318.352 106.363 321.015 106.776 323.534 107.671 L 327.696 105.884 L 332.251 108.358 L 328.07 110.145 C 328.886 110.793 329.517 111.646 329.895 112.618 L 329.895 112.618 Z " fill="rgb(234,139,36)"/><path d=" M 309.791 138.671 C 289.333 138.671 273.313 128.718 273.313 116.015 C 273.313 103.313 289.333 93.359 309.791 93.359 C 330.249 93.359 346.269 103.313 346.269 116.015 C 346.269 128.718 330.249 138.671 309.791 138.671 Z  M 309.791 99.543 C 293.378 99.543 279.497 107.081 279.497 116.015 C 279.497 124.948 293.378 132.488 309.791 132.488 C 326.204 132.488 340.085 124.948 340.085 116.015 C 340.085 107.081 326.223 99.581 309.791 99.581 L 309.791 99.543 Z " fill="rgb(247,147,30)"/><ellipse vector-effect="non-scaling-stroke" cx="309.7318338588709" cy="109.57507049035947" rx="39.77687304383841" ry="23.30461416734262" fill="rgb(255,145,46)"/><path d=" M 349.508 102.841 L 349.508 109.575 L 344.444 109.575 L 348.154 104.176 L 349.508 102.841 L 349.508 102.841 Z " fill="rgb(224,148,79)"/><ellipse vector-effect="non-scaling-stroke" cx="309.7318338588709" cy="102.84088122380645" rx="39.77687304383841" ry="23.30461416734262" fill="rgb(255,185,44)"/><path d=" M 329.895 99.739 C 330.172 100.284 330.28 100.899 330.209 101.506 L 330.053 102.114 L 322.788 102.114 C 322.853 101.916 322.898 101.713 322.926 101.506 C 322.898 101.037 322.749 100.583 322.493 100.191 C 322.091 99.487 321.481 98.924 320.747 98.581 C 319.691 98.024 318.522 97.716 317.329 97.677 C 316.227 97.596 315.12 97.763 314.09 98.168 Q 312.559 98.816 312.913 99.876 C 313.254 100.741 313.783 101.519 314.463 102.153 C 315.246 102.953 315.982 103.798 316.662 104.686 C 317.326 105.467 317.478 106.561 317.056 107.494 C 316.255 108.815 314.997 109.793 313.521 110.243 C 311.08 111.262 308.468 111.807 305.825 111.853 C 302.969 111.946 300.119 111.539 297.402 110.655 L 293.22 112.441 L 288.331 110.066 L 292.395 108.319 C 291.661 107.834 290.999 107.245 290.432 106.571 C 290.015 106.093 289.689 105.539 289.47 104.942 C 289.33 104.516 289.244 104.073 289.216 103.626 C 289.165 103.321 289.165 103.01 289.216 102.703 L 289.352 102.351 L 296.617 102.351 C 296.542 102.587 296.484 102.831 296.44 103.076 C 296.474 103.672 296.677 104.245 297.029 104.726 C 297.626 105.601 298.465 106.282 299.445 106.688 C 300.757 107.352 302.195 107.727 303.665 107.789 C 305.005 107.881 306.349 107.668 307.592 107.16 Q 309.104 106.511 308.731 105.452 C 308.372 104.583 307.822 103.803 307.121 103.174 C 306.321 102.386 305.58 101.538 304.902 100.643 C 304.257 99.849 304.134 98.751 304.588 97.835 C 305.455 96.489 306.769 95.496 308.298 95.026 C 310.646 94.08 313.151 93.586 315.681 93.574 C 318.352 93.485 321.015 93.897 323.534 94.792 L 327.696 93.005 L 332.349 95.655 L 328.168 97.442 C 328.924 98.054 329.518 98.842 329.895 99.739 Z " fill="rgb(234,139,36)"/><path d=" M 309.791 125.792 C 289.333 125.792 273.313 115.838 273.313 103.136 C 273.313 90.433 289.333 80.479 309.791 80.479 C 330.249 80.479 346.269 90.433 346.269 103.136 C 346.269 115.838 330.249 125.792 309.791 125.792 Z  M 309.791 86.663 C 293.378 86.663 279.497 94.203 279.497 103.136 C 279.497 112.068 293.378 119.608 309.791 119.608 C 326.204 119.608 340.085 112.068 340.085 103.136 C 340.085 94.203 326.223 86.663 309.791 86.663 Z " fill="rgb(247,147,30)"/><ellipse vector-effect="non-scaling-stroke" cx="309.7318338588709" cy="100.05296613386312" rx="39.77687304383841" ry="23.304614167342635" fill="rgb(255,145,46)"/><path d=" M 349.508 93.318 L 349.508 100.052 L 344.444 100.052 L 348.154 94.653 L 349.508 93.318 L 349.508 93.318 Z " fill="rgb(224,148,79)"/><ellipse vector-effect="non-scaling-stroke" cx="309.7318338588709" cy="93.31877686731015" rx="39.77687304383841" ry="23.30461416734262" fill="rgb(255,185,44)"/><path d=" M 329.895 90.197 C 330.172 90.742 330.28 91.356 330.209 91.964 L 330.053 92.572 L 322.788 92.572 C 322.853 92.374 322.898 92.171 322.926 91.964 C 322.898 91.495 322.749 91.043 322.493 90.649 C 322.091 89.944 321.481 89.382 320.747 89.039 C 319.691 88.482 318.522 88.173 317.329 88.135 C 316.227 88.054 315.12 88.222 314.09 88.627 Q 312.559 89.273 312.913 90.335 C 313.254 91.199 313.783 91.977 314.463 92.612 C 315.246 93.411 315.982 94.257 316.662 95.144 C 317.326 95.925 317.478 97.018 317.056 97.952 C 316.255 99.273 314.997 100.252 313.521 100.701 C 311.08 101.72 308.468 102.267 305.825 102.311 C 302.969 102.403 300.119 101.999 297.402 101.112 L 293.22 102.899 L 288.331 100.524 L 292.395 98.777 C 291.661 98.292 290.999 97.703 290.432 97.029 C 290.015 96.551 289.689 95.997 289.47 95.4 C 289.33 94.974 289.244 94.532 289.216 94.084 C 289.165 93.779 289.165 93.467 289.216 93.163 L 289.352 92.809 L 296.617 92.809 C 296.542 93.047 296.484 93.289 296.44 93.534 C 296.474 94.13 296.677 94.702 297.029 95.184 C 297.626 96.058 298.465 96.742 299.445 97.148 C 300.757 97.81 302.195 98.185 303.665 98.246 C 305.005 98.341 306.349 98.125 307.592 97.619 Q 309.104 96.971 308.731 95.911 C 308.372 95.04 307.822 94.263 307.121 93.634 C 306.321 92.844 305.58 91.998 304.902 91.101 C 304.257 90.307 304.134 89.209 304.588 88.292 C 305.455 86.949 306.769 85.954 308.298 85.484 C 310.646 84.538 313.151 84.044 315.681 84.032 C 318.352 83.943 321.015 84.354 323.534 85.25 L 327.696 83.463 L 332.251 85.936 L 328.07 87.723 C 328.886 88.371 329.517 89.226 329.895 90.197 L 329.895 90.197 Z " fill="rgb(234,139,36)"/><path d=" M 309.791 116.25 C 289.333 116.25 273.313 106.296 273.313 93.593 C 273.313 80.891 289.333 70.937 309.791 70.937 C 330.249 70.937 346.289 80.891 346.289 93.692 C 346.289 106.492 330.249 116.25 309.791 116.25 Z  M 309.791 77.121 C 293.378 77.121 279.497 84.661 279.497 93.593 C 279.497 102.526 293.378 110.066 309.791 110.066 C 326.204 110.066 340.085 102.526 340.085 93.593 C 340.085 84.661 326.223 77.14 309.791 77.14 L 309.791 77.121 Z " fill="rgb(247,147,30)"/><ellipse vector-effect="non-scaling-stroke" cx="316.17152505254285" cy="87.15395054166089" rx="39.77687304383841" ry="23.30461416734263" fill="rgb(255,145,46)"/><path d=" M 355.948 80.439 L 355.948 87.154 L 350.903 87.154 L 354.613 81.755 L 355.948 80.439 L 355.948 80.439 Z " fill="rgb(224,148,79)"/><ellipse vector-effect="non-scaling-stroke" cx="316.17152505254285" cy="80.43939447996652" rx="39.77687304383841" ry="23.30461416734263" fill="rgb(255,185,44)"/><path d=" M 336.275 77.317 C 336.552 77.862 336.662 78.477 336.59 79.085 L 336.433 79.693 L 329.168 79.693 C 329.235 79.495 329.28 79.292 329.306 79.085 C 329.278 78.615 329.129 78.163 328.874 77.769 C 328.472 77.065 327.861 76.503 327.127 76.159 C 326.071 75.602 324.904 75.294 323.711 75.255 C 322.607 75.175 321.5 75.343 320.472 75.748 Q 318.939 76.396 319.293 77.456 C 319.635 78.319 320.165 79.097 320.845 79.733 C 321.628 80.532 322.362 81.378 323.044 82.264 C 323.706 83.047 323.858 84.139 323.436 85.073 C 322.637 86.393 321.378 87.373 319.903 87.821 C 317.462 88.841 314.85 89.387 312.205 89.431 C 309.35 89.524 306.499 89.119 303.782 88.235 L 299.601 90.02 L 294.713 87.644 L 298.777 85.898 C 298.041 85.412 297.381 84.824 296.813 84.149 C 296.395 83.671 296.069 83.118 295.852 82.52 C 295.712 82.094 295.626 81.653 295.596 81.205 C 295.545 80.9 295.545 80.588 295.596 80.283 L 295.733 79.929 L 302.997 79.929 C 302.924 80.167 302.864 80.409 302.82 80.654 C 302.854 81.25 303.059 81.823 303.409 82.305 C 304.006 83.179 304.846 83.862 305.825 84.269 C 307.137 84.931 308.577 85.306 310.047 85.367 C 311.385 85.462 312.729 85.246 313.973 84.74 Q 315.484 84.092 315.111 83.032 C 314.752 82.161 314.202 81.383 313.501 80.754 C 312.701 79.964 311.96 79.118 311.284 78.221 C 310.637 77.428 310.514 76.329 310.968 75.413 C 311.835 74.069 313.149 73.074 314.679 72.607 C 317.026 71.659 319.531 71.165 322.061 71.153 C 324.732 71.063 327.397 71.477 329.914 72.37 L 334.077 70.583 L 338.631 73.057 L 334.45 74.844 C 335.268 75.492 335.897 76.347 336.275 77.317 L 336.275 77.317 Z " fill="rgb(234,139,36)"/><path d=" M 316.25 101.82 C 296.99 101.82 281.303 92.357 281.303 80.714 C 281.303 69.071 297.01 59.608 316.25 59.608 C 335.49 59.608 351.197 69.071 351.197 80.714 C 351.197 92.357 335.51 101.82 316.25 101.82 Z  M 316.25 62.691 C 298.698 62.691 284.405 70.779 284.405 80.695 C 284.405 90.61 298.698 98.698 316.25 98.698 C 333.802 98.698 348.056 90.649 348.056 80.714 C 348.056 70.779 333.802 62.711 316.25 62.711 L 316.25 62.691 Z " fill="rgb(247,147,30)"/><ellipse vector-effect="non-scaling-stroke" cx="330.2681661411291" cy="73.39107393567342" rx="39.77687304383841" ry="23.304614167342624" fill="rgb(255,145,46)"/><ellipse vector-effect="non-scaling-stroke" cx="330.2681661411291" cy="66.65688466912019" rx="39.77687304383841" ry="23.30461416734263" fill="rgb(255,185,44)"/><path d=" M 350.451 63.536 C 350.728 64.08 350.836 64.695 350.764 65.301 L 350.609 65.911 L 343.344 65.911 C 343.409 65.713 343.454 65.508 343.482 65.301 C 343.454 64.834 343.305 64.38 343.049 63.988 C 342.647 63.283 342.037 62.719 341.303 62.378 C 340.246 61.821 339.078 61.511 337.885 61.474 C 336.783 61.391 335.676 61.56 334.646 61.964 Q 333.115 62.612 333.469 63.672 C 333.81 64.538 334.341 65.315 335.019 65.95 C 335.802 66.748 336.538 67.595 337.218 68.483 C 337.882 69.264 338.034 70.357 337.612 71.291 C 336.811 72.61 335.553 73.589 334.077 74.04 C 331.636 75.057 329.024 75.604 326.381 75.65 C 323.525 75.741 320.675 75.336 317.958 74.451 L 313.776 76.238 L 308.887 73.863 L 312.951 72.114 C 312.217 71.629 311.555 71.04 310.987 70.368 C 310.571 69.888 310.245 69.336 310.026 68.739 C 309.886 68.313 309.8 67.87 309.772 67.423 C 309.721 67.116 309.721 66.805 309.772 66.5 L 309.908 66.146 L 317.173 66.146 C 317.098 66.384 317.04 66.628 316.996 66.873 C 317.03 67.468 317.233 68.041 317.585 68.521 C 318.182 69.397 319.021 70.079 320.001 70.485 C 321.313 71.149 322.751 71.522 324.221 71.585 C 325.561 71.678 326.905 71.464 328.148 70.956 Q 329.66 70.308 329.287 69.248 C 328.928 68.378 328.378 67.6 327.677 66.971 C 326.877 66.181 326.136 65.335 325.458 64.438 C 324.813 63.644 324.69 62.548 325.144 61.631 C 326.011 60.286 327.325 59.291 328.854 58.823 C 331.202 57.875 333.707 57.383 336.237 57.371 C 338.908 57.28 341.571 57.693 344.09 58.588 L 348.252 56.802 L 352.807 59.275 L 348.625 61.062 C 349.442 61.71 350.072 62.563 350.451 63.536 Z " fill="rgb(234,139,36)"/><path d=" M 330.385 87.527 C 311.401 87.527 295.969 78.279 295.969 66.932 C 295.969 55.584 311.42 46.336 330.385 46.336 C 349.352 46.336 364.804 55.584 364.804 66.932 C 364.804 78.279 349.312 87.527 330.385 87.527 Z  M 330.385 48.398 C 312.54 48.398 298.031 56.704 298.031 66.932 C 298.031 77.161 312.54 85.465 330.385 85.465 C 348.233 85.465 362.742 77.161 362.742 66.932 C 362.742 56.704 348.174 48.398 330.385 48.398 Z " fill="rgb(247,147,30)"/><ellipse vector-effect="non-scaling-stroke" cx="310.9687257649729" cy="53.77750228177692" rx="39.77687304383841" ry="23.30461416734263" fill="rgb(255,145,46)"/><path d=" M 350.745 47.044 L 350.745 53.778 L 345.7 53.778 L 349.391 48.379 L 350.745 47.044 L 350.745 47.044 Z " fill="rgb(224,148,79)"/><ellipse vector-effect="non-scaling-stroke" cx="310.9687257649729" cy="47.04331301522369" rx="39.77687304383841" ry="23.304614167342624" fill="rgb(255,185,44)"/><path d=" M 331.151 43.922 C 331.428 44.467 331.538 45.082 331.466 45.688 L 331.309 46.298 L 324.044 46.298 C 324.109 46.1 324.156 45.895 324.182 45.688 C 324.154 45.22 324.005 44.767 323.75 44.372 C 323.348 43.668 322.737 43.106 322.003 42.762 C 320.947 42.207 319.778 41.897 318.587 41.86 C 317.483 41.778 316.376 41.946 315.348 42.351 Q 313.815 42.999 314.169 44.059 C 314.51 44.924 315.041 45.702 315.719 46.336 C 316.504 47.135 317.238 47.981 317.919 48.869 C 318.582 49.651 318.734 50.744 318.312 51.678 C 317.513 52.997 316.253 53.976 314.777 54.426 C 312.336 55.444 309.726 55.991 307.081 56.036 C 304.225 56.127 301.375 55.722 298.658 54.838 L 294.477 56.625 L 289.589 54.249 L 293.651 52.501 C 292.917 52.016 292.255 51.427 291.689 50.754 C 291.271 50.274 290.945 49.722 290.728 49.125 C 290.587 48.698 290.502 48.256 290.472 47.809 C 290.421 47.503 290.421 47.191 290.472 46.886 L 290.608 46.532 L 297.873 46.532 C 297.8 46.771 297.74 47.014 297.696 47.259 C 297.73 47.855 297.935 48.428 298.285 48.908 C 298.882 49.784 299.721 50.465 300.701 50.872 C 302.013 51.534 303.453 51.909 304.921 51.972 C 306.261 52.065 307.605 51.851 308.849 51.343 Q 310.36 50.695 309.987 49.635 C 309.628 48.764 309.078 47.986 308.377 47.358 C 307.577 46.567 306.836 45.721 306.159 44.824 C 305.513 44.031 305.39 42.934 305.844 42.018 C 306.711 40.673 308.025 39.678 309.554 39.21 C 311.902 38.262 314.407 37.77 316.937 37.758 C 319.608 37.666 322.273 38.08 324.79 38.973 L 328.952 37.188 L 333.507 39.662 L 329.326 41.449 C 330.142 42.097 330.773 42.95 331.151 43.922 L 331.151 43.922 Z " fill="rgb(234,139,36)"/><path d=" M 311.047 67.913 C 292.063 67.913 276.631 58.666 276.631 47.319 C 276.631 35.971 292.063 26.723 311.047 26.723 C 330.033 26.723 345.463 35.971 345.463 47.319 C 345.463 58.666 330.012 67.913 311.047 67.913 Z  M 311.047 28.785 C 293.201 28.785 278.693 37.09 278.693 47.319 C 278.693 57.548 293.201 65.852 311.047 65.852 C 328.895 65.852 343.403 57.548 343.403 47.319 C 343.403 37.09 328.874 28.804 311.047 28.804 L 311.047 28.785 Z " fill="rgb(247,147,30)"/></g></g></svg>