<?xml version="1.0" encoding="utf-8"?>
<!-- Generator: Adobe Illustrator 24.0.1, SVG Export Plug-In . SVG Version: 6.00 Build 0)  -->
<svg version="1.1" id="Layer_1" xmlns="http://www.w3.org/2000/svg" xmlns:xlink="http://www.w3.org/1999/xlink" x="0px" y="0px"
	 viewBox="0 0 400 300" style="enable-background:new 0 0 400 300;" xml:space="preserve">
<style type="text/css">
	.st0{clip-path:url(#SVGID_2_);}
	.st1{fill:none;}
	.st2{fill:#FFFFFF;filter:url(#Adobe_OpacityMaskFilter);}
	.st3{mask:url(#_mask_OfV93yKvHmVwr4ohrenjwx1CCvvu0gEH_1_);fill:none;stroke:#FFFFFF;stroke-width:0.96;stroke-miterlimit:10;}
	.st4{opacity:0.18;}
	.st5{fill:#DA6138;}
	.st6{fill:#FFFFFF;}
	.st7{fill:#282B4E;}
	.st8{fill:url(#SVGID_3_);}
	.st9{fill:url(#SVGID_4_);}
	.st10{fill:url(#SVGID_5_);}
	.st11{fill:url(#SVGID_6_);}
	.st12{fill:url(#SVGID_7_);}
	.st13{fill:url(#SVGID_8_);}
	.st14{fill:url(#SVGID_9_);}
	.st15{fill:url(#SVGID_10_);}
	.st16{fill:url(#SVGID_11_);}
	.st17{fill:url(#SVGID_12_);}
	.st18{fill:url(#SVGID_13_);}
	.st19{fill:#FDB9A9;}
	.st20{fill:url(#SVGID_14_);}
	.st21{fill:#473F47;}
	.st22{fill:url(#SVGID_15_);}
	.st23{opacity:0.38;}
</style>
<g>
	<defs>
		<rect id="SVGID_1_" width="400" height="300"/>
	</defs>
	<clipPath id="SVGID_2_">
		<use xlink:href="#SVGID_1_"  style="overflow:visible;"/>
	</clipPath>
	<g class="st0">
		<g>
			<path class="st1" d="M307.5,61.5c0,0,89.1,39.6,92.2,94.7c3.1,55.1-163.3,45.2-199.6,68.9C163.6,249,6,285.1,9,243.7
				c3-41.4,40.5-55.7,40.5-55.7"/>
			<defs>
				<filter id="Adobe_OpacityMaskFilter" filterUnits="userSpaceOnUse" x="8.5" y="61.1" width="391.7" height="201.9">
					<feColorMatrix  type="matrix" values="1 0 0 0 0  0 1 0 0 0  0 0 1 0 0  0 0 0 1 0"/>
				</filter>
			</defs>
			
				<mask maskUnits="userSpaceOnUse" x="8.5" y="61.1" width="391.7" height="201.9" id="_mask_OfV93yKvHmVwr4ohrenjwx1CCvvu0gEH_1_">
				<rect x="-800" y="-600" class="st2" width="1600" height="1200"/>
				<path d="M307.5,61.5c0,0,89.1,39.6,92.2,94.7c3.1,55.1-163.3,45.2-199.6,68.9C163.6,249,6,285.1,9,243.7
					c3-41.4,40.5-55.7,40.5-55.7"/>
			</mask>
			<path vector-effect="non-scaling-stroke" class="st3" d="M307.5,61.5c0,0,89.1,39.6,92.2,94.7c3.1,55.1-163.3,45.2-199.6,68.9
				C163.6,249,6,285.1,9,243.7c3-41.4,40.5-55.7,40.5-55.7"/>
			<g class="st4">
				<path class="st5" d="M74.1,239.5l54.4-145.1c1.8-4.8,6.4-8,11.6-8h229c6.8,0,12.4,5.6,12.4,12.4c0,1.3-0.2,2.5-0.6,3.7
					l-52.6,164.7c-1.8,5.5-7.1,9-12.8,8.5L84.7,256.1c-6.8-0.6-11.9-6.5-11.4-13.4C73.5,241.7,73.7,240.6,74.1,239.5z"/>
			</g>
			<path class="st6" d="M374.8,88l-52.7,164.8c-1.8,5.5-7.1,9-12.9,8.5l-69.1-5.8L78.6,241.7c-3.3-0.3-6.3-1.8-8.5-4.3
				c-2.1-2.5-3.2-5.8-2.9-9c0.1-1.2,0.4-2.3,0.8-3.4l12.9-34.1l23.4-62.5l18.1-48.3c1.8-4.8,6.4-8,11.6-8h229c3.3,0,6.4,1.3,8.8,3.6
				c2.3,2.3,3.6,5.5,3.6,8.8C375.4,85.7,375.2,86.9,374.8,88L374.8,88z"/>
			<g class="st4">
				<path class="st5" d="M147.9,231.4l16.9-46.4h70.3l-18.3,47.6L147.9,231.4L147.9,231.4z"/>
			</g>
			<path class="st7" d="M374.8,88l-52.7,164.8c-1.8,5.5-7.1,9-12.9,8.5l-69.1-5.8l63.7-173l0.5-1.3l70.8,0.7c0,0.2,0,0.4,0,0.6
				C375.5,84.3,375.3,86.2,374.8,88z"/>
			<path class="st5" d="M375.3,81.8v0.7v0.7l-71.4-0.7l-181.4-1.8v-1.4l181.9,1.8l70.8,0.7H375.3L375.3,81.8z"/>
			<g>
				<g class="st4">
					<path class="st5" d="M263.3,32l-22.3,74c-0.7,2.5-2.9,4.1-5.5,4.1l-59.3-1.7l30-80.1l52.1-3.1c1.7-0.1,3.3,0.7,4.3,2
						C263.6,28.7,263.9,30.5,263.3,32L263.3,32z"/>
				</g>
				<path class="st6" d="M127.4,87.9l23.1-65.4c0.7-2.1,2.7-3.6,4.9-3.8l97.3-5.8c1.7-0.1,3.3,0.7,4.3,2.1c1,1.3,1.3,3.1,0.7,4.7
					l-22.3,74.1c-0.7,2.5-2.9,4.1-5.5,4.2L131.9,95c-1.7-0.1-3.2-1-4.1-2.4C127,91.1,126.8,89.4,127.4,87.9z"/>
				<linearGradient id="SVGID_3_" gradientUnits="userSpaceOnUse" x1="146.856" y1="72.5455" x2="165.826" y2="72.5455">
					<stop  offset="0" style="stop-color:#F5524E"/>
					<stop  offset="1" style="stop-color:#D0342F"/>
				</linearGradient>
				<path class="st8" d="M159.3,81h-12.5l6.6-16.9h12.4L159.3,81L159.3,81z"/>
				<linearGradient id="SVGID_4_" gradientUnits="userSpaceOnUse" x1="177.551" y1="70.5245" x2="198.086" y2="70.5245">
					<stop  offset="0" style="stop-color:#F5524E"/>
					<stop  offset="1" style="stop-color:#D0342F"/>
				</linearGradient>
				<path class="st9" d="M190,81h-12.5l8.1-21h12.4L190,81L190,81z"/>
				
					<linearGradient id="SVGID_5_" gradientUnits="userSpaceOnUse" x1="-1.533704e-02" y1="302.9055" x2="1.4207" y2="293.4156" gradientTransform="matrix(25.779 0 0 -34.445 162.185 10380.0654)">
					<stop  offset="0" style="stop-color:#000000"/>
					<stop  offset="0" style="stop-color:#000000"/>
					<stop  offset="1" style="stop-color:#000000"/>
					<stop  offset="1" style="stop-color:#000000"/>
				</linearGradient>
				<path class="st10" d="M174.6,81h-12.5l13.3-34.4H188L174.6,81L174.6,81z"/>
				
					<linearGradient id="SVGID_6_" gradientUnits="userSpaceOnUse" x1="0.4605" y1="299.3651" x2="0.7416" y2="300.3247" gradientTransform="matrix(30.003 0 0 -45.368 192.88 13646.043)">
					<stop  offset="0" style="stop-color:#000000"/>
					<stop  offset="0" style="stop-color:#000000"/>
					<stop  offset="0" style="stop-color:#000000"/>
					<stop  offset="0" style="stop-color:#000000"/>
				</linearGradient>
				<path class="st11" d="M205.3,81h-12.5l17.5-45.4h12.5L205.3,81L205.3,81z"/>
				<linearGradient id="SVGID_7_" gradientUnits="userSpaceOnUse" x1="208.245" y1="51.9915" x2="243.127" y2="51.9915">
					<stop  offset="0" style="stop-color:#F5524E"/>
					<stop  offset="1" style="stop-color:#D0342F"/>
				</linearGradient>
				<path class="st12" d="M220.7,81h-12.5l22.4-58h12.5L220.7,81L220.7,81z"/>
			</g>
			<path class="st6" d="M342,123.6c2.4-8.7-2.7-17.8-11.4-20.3c-8.7-2.5-17.8,2.4-20.5,11.1c-2.7,8.7,2.1,17.9,10.7,20.7
				c8.6,2.8,17.9-1.8,20.9-10.4l0.2-0.5L342,123.6z"/>
			<path class="st6" d="M305.6,229c1.8-8.6-3.3-17-11.7-19.4c-8.4-2.4-17.2,2-20.3,10.2c0,0.2,0,0.4,0,0.5c0,0.2,0,0.4-0.2,0.5
				c-2.3,8.4,2.2,17.2,10.4,20.1c8.2,3,17.3-0.8,20.9-8.8c0.2-0.5,0.3-1.1,0.5-1.6C305.3,230.1,305.5,229.6,305.6,229z"/>
			<path class="st6" d="M322.6,170.7c0-9.2-7.5-16.7-16.7-16.7c-9.2,0-16.7,7.5-16.7,16.7v1.2c0,9.2,7.5,16.7,16.7,16.7
				c9.2,0,16.7-7.5,16.7-16.7V170.7z"/>
			<linearGradient id="SVGID_8_" gradientUnits="userSpaceOnUse" x1="312.2021" y1="119.0156" x2="337.964" y2="119.0156">
				<stop  offset="0" style="stop-color:#F5524E"/>
				<stop  offset="1" style="stop-color:#D0342F"/>
			</linearGradient>
			<path class="st13" d="M325.4,119L325.4,119l3.9-12.6c-1.1-0.3-2.3-0.5-3.4-0.6c-5.9-0.2-11.3,3.6-13.1,9.2
				c-0.3,1.1-0.5,2.3-0.6,3.4c0,1.2,0.1,2.3,0.3,3.4c0.5,2.3,1.6,4.3,3.2,6c3.2,3.5,8,5,12.6,3.9c1.1-0.3,2.2-0.7,3.2-1.2
				c1-0.5,2-1.2,2.8-2c1.7-1.6,2.9-3.5,3.6-5.7L325.4,119z"/>
			<linearGradient id="SVGID_9_" gradientUnits="userSpaceOnUse" x1="292.9122" y1="171.218" x2="312.72" y2="171.218">
				<stop  offset="0" style="stop-color:#F5524E"/>
				<stop  offset="1" style="stop-color:#D0342F"/>
			</linearGradient>
			<path class="st14" d="M306.2,171.2L306.2,171.2V158c-2.3,0-4.6,0.6-6.6,1.8c-1,0.6-2,1.3-2.8,2.1c-3.3,3.3-4.7,8.2-3.4,12.7
				c1.2,4.6,4.8,8.1,9.4,9.3c2.2,0.6,4.6,0.6,6.8,0c1.1-0.3,2.2-0.7,3.2-1.3L306.2,171.2z"/>
			<linearGradient id="SVGID_10_" gradientUnits="userSpaceOnUse" x1="276.1851" y1="225.1831" x2="293.44" y2="225.1831">
				<stop  offset="0" style="stop-color:#F5524E"/>
				<stop  offset="1" style="stop-color:#D0342F"/>
			</linearGradient>
			<path class="st15" d="M289.4,225.5l4.1-12.5c-2.2-0.7-4.5-0.8-6.8-0.4c-5.8,1.2-10.1,6.2-10.4,12.2c-0.1,1.1,0,2.3,0.3,3.4
				c0.2,1.1,0.6,2.2,1.1,3.2c1.5,3.1,4.3,5.5,7.6,6.6L289.4,225.5L289.4,225.5z"/>
			<g class="st4">
				<path class="st5" d="M168,171.3l16.9-46.4h70.3l-18.4,47.6L168,171.3L168,171.3z"/>
			</g>
			<linearGradient id="SVGID_11_" gradientUnits="userSpaceOnUse" x1="262.148" y1="52.49" x2="291.253" y2="52.49">
				<stop  offset="0" style="stop-color:#F5524E"/>
				<stop  offset="1" style="stop-color:#D0342F"/>
			</linearGradient>
			<path class="st16" d="M262.1,37.2l29.1,13.5l-4.9,17.2L262.1,37.2L262.1,37.2z"/>
			<linearGradient id="SVGID_12_" gradientUnits="userSpaceOnUse" x1="262.148" y1="41.4015" x2="307.495" y2="41.4015">
				<stop  offset="0" style="stop-color:#F5524E"/>
				<stop  offset="1" style="stop-color:#D0342F"/>
			</linearGradient>
			<path class="st17" d="M262.1,37.2h45.3l-13.8,8.4L262.1,37.2L262.1,37.2z"/>
			<path class="st5" d="M298.9,58.2l-7.7-7.6l-29.1-13.5l31.5,8.4L298.9,58.2L298.9,58.2z"/>
			
				<linearGradient id="SVGID_13_" gradientUnits="userSpaceOnUse" x1="0.4999" y1="299.5081" x2="0.5161" y2="298.5083" gradientTransform="matrix(36.801 0 0 -21.041 262.148 6349.4854)">
				<stop  offset="1" style="stop-color:#000000"/>
				<stop  offset="1" style="stop-color:#000000"/>
				<stop  offset="1" style="stop-color:#000000"/>
				<stop  offset="1" style="stop-color:#000000"/>
			</linearGradient>
			<path class="st18" d="M298.9,58.2l-7.7-7.6l-29.1-13.5l31.5,8.4L298.9,58.2L298.9,58.2z"/>
			<path class="st5" d="M298.9,58.2l-7.7-7.6l-29.1-13.5L298.9,58.2L298.9,58.2z"/>
			<g>
				<path class="st19" d="M118.3,87.1c-0.2,0.6-0.5,1.2-1,1.6c-0.7,0.4-1.5,0.6-2.3,0.6c-0.9,0.1-1.7,0.3-2.4,0.8
					c-0.2,0.4-0.2,0.9,0,1.2l1,5.3c0.1,0.4,0.1,0.9,0,1.3c-0.3,0.4-0.7,0.8-1.2,0.9c-1.9,0.8-4.3,1.4-5.8,0
					c-0.7-0.8-1.2-1.8-1.4-2.9c-2-6-3-12.2-3-18.5c-0.1-3.8,1.5-7.5,4.3-10.1c2.7-1.9,6.1-2.7,9.4-2.2c1.5,0.2,2.8,1.1,3.5,2.4
					c0.4,1,0,1.9,0,2.9c0,1.5,0.1,3,0.3,4.5c0.1,0.7,0.3,1.4,0.5,2c0.3,0.6,0.4,1.2,0.5,1.8c-0.1,1.2-0.4,2.3-1,3.3
					c-0.5,1.2-0.9,2.4-1.2,3.7C118.4,86.2,118.4,86.6,118.3,87.1L118.3,87.1z"/>
				<path class="st19" d="M122.6,126.5c0,0,6.6,7,12.1,7l29.9-23c2.6-1.3,4.7-3.5,5.6-6.3c0.2-1,0.2-1.9,0.3-2.9
					c0.4-1.9,1.3-3.7,2.5-5.3c0.4-0.4,0.6-1,0.6-1.6c-0.2-0.7-1.1-1-1.8-1.1c-2.3-0.7-4.7-0.5-6.9,0.6c-1.5,1.2-2.6,3-3,4.9
					c-0.7-0.9-1.6-1.7-2.6-2.1c-0.7,0.4-1,1.2-0.7,1.9c0.2,0.7,0.5,1.4,0.9,2c0.5,2.5-0.6,5.1-2.8,6.6c-1.3,1-2.6,1.9-4,2.6
					l-14.9,8.7c-1.5,0.9-3.3,1.8-4.9,1c-0.8-0.4-1.3-1.2-2.1-1.5c-1.3-0.3-2.6,0.1-3.5,1.1C125.1,121.3,123.6,123.8,122.6,126.5z"/>
				<path class="st19" d="M63.1,223.9c-0.5,4-2.7,7.6-6.1,9.9c-6.1,2.9-14,3.6-20.5,5c-4,0.9-8,1.8-11.9,2.8c-3.3,0.9-6.8,0.8-9,3.7
					c-1.3,1.7-2.2,4.1-4.3,4.6c-1.5,0.2-3.1-0.5-3.9-1.8c-0.8-1.3-1.2-2.8-1.3-4.4c-0.1-0.6-0.1-1.2,0-1.7c0.2-0.6,0.5-1.2,0.9-1.6
					c2.3-2.1,5-3.5,8-4.2c2.5-0.9,5-2,7.4-3.3c1.9-1,4-1.7,6-2.4l12-4.4c2.8-1,7.1-1.4,8.2-4.6c0.4-1.6,0.6-3.2,0.6-4.8
					c0.2-3.2,1.2-6.4,2.9-9.1c0.2-0.5,0.5-0.9,1-1.1c0.5-0.3,1-0.4,1.6-0.4c1.5-0.2,3.1,0,4.5,0.5c1.9,0.9,3.4,2.6,4,4.6
					c0.6,2,0.9,4.1,0.7,6.2C63.8,219.4,63.5,221.7,63.1,223.9L63.1,223.9z"/>
				<path class="st5" d="M9.1,239.1c-0.2,0.9-0.9,1.5-1.1,2.4c-0.1,0.7-0.1,1.4,0,2.1l0.6,3.3c0,0.7,0.4,1.4,0.9,1.8
					c0.5,0.4,1.2,0.6,1.9,0.5c0.3,0,0.5,0.2,0.7,0.4c0.1,0.2,0.1,0.4,0,0.6l-0.9,4.2c-0.4,1.7-1,3.4-1.8,5c-0.3,0.1-0.5,0.1-0.8,0
					c-2.1,0-2.9-5.3-3.7-7.3c-0.6-2-0.8-4.2-0.5-6.3c0-1.2,0.2-2.3,0.4-3.3c0-1.1,0.2-2.2,0.6-3.3c0.3-0.5,0.8-0.8,1.4-0.8
					C7.5,238.4,9.3,238.1,9.1,239.1z"/>
				<path class="st19" d="M98.2,224.5c2.3,3.4,3,7.6,1.8,11.6c-2.8,6.1-8.3,11.8-12.4,17.1c-2.5,3.3-4.9,6.6-7.3,9.9
					c-1.9,2.8-4.6,5-4.5,8.6c0,2.2,1,4.6-0.3,6.3c-1,1.2-2.6,1.6-4.1,1.2c-1.5-0.5-2.8-1.3-3.8-2.5c-0.4-0.4-0.8-0.8-1.1-1.3
					c-0.3-0.6-0.4-1.2-0.4-1.9c0.4-3,1.5-5.9,3.3-8.4c1.3-2.4,2.4-4.8,3.3-7.4c0.9-2,1.9-3.9,3.1-5.8l6.3-11.1
					c1.5-2.6,4.5-5.7,3.3-8.8c-0.7-1.5-1.6-2.8-2.7-4.1c-1.9-2.6-3.2-5.6-3.7-8.8c-0.1-0.5-0.1-1,0-1.5c0.2-0.5,0.5-1,1-1.3
					c1.1-1.1,2.4-2,3.8-2.5c2-0.5,4.2-0.2,6,0.9c1.8,1.1,3.3,2.5,4.6,4.2C95.9,220.6,97.1,222.5,98.2,224.5L98.2,224.5z"/>
				<path class="st5" d="M67,271.1c0.4,0.8,0.4,1.7,0.8,2.5c0.4,0.6,0.9,1.1,1.4,1.5l2.5,2.1c0.3,0.3,0.6,0.5,1,0.6
					c0.9,0.2,1.9-0.1,2.7-0.7c0.1-0.2,0.4-0.3,0.6-0.2c0.2,0,0.4,0.2,0.5,0.4l2,3.8c0.9,1.6,1.5,3.2,1.9,5c-0.1,0.2-0.3,0.5-0.5,0.6
					c-1.6,1.3-5.7-2.2-7.5-3.3c-1.8-1.1-3.4-2.5-4.6-4.2c-0.7-0.9-1.3-1.9-1.9-2.8c-0.7-0.8-1.2-1.8-1.6-2.8
					c-0.1-0.6,0.1-1.2,0.6-1.6C65.3,271.6,66.5,270.2,67,271.1z"/>
				<linearGradient id="SVGID_14_" gradientUnits="userSpaceOnUse" x1="34.175" y1="166.0588" x2="130.8054" y2="166.0588">
					<stop  offset="0" style="stop-color:#F5524E"/>
					<stop  offset="1" style="stop-color:#D0342F"/>
				</linearGradient>
				<path class="st20" d="M130.8,118.2c-0.1,0.4-0.4,0.8-0.8,1.1c-2.5,2.4-5,4.7-7.5,7.1c-0.8,0.8-1.7,1.5-2.6,2.1
					c-0.8,0.5-1.7,0.8-2.5,1.3c-0.3,0.2-0.5,0.4-0.8,0.6c-1.7,1.6-3.1,3.6-3.9,5.8c-0.6,1.3-1.2,2.8-1.7,4.2
					c-1.3,3.7-2.3,7.5-2.9,11.3c-3.8,22,1.1,44.3,3.7,66.4c0.3,2.4,0.6,4.9,0.8,7.3c0,1,0.2,2.1,0.3,3.1c0.2,0.9,0,1.9-0.4,2.7
					c-0.5,0.6-1.2,1.1-2,1.3c-11.1,4.5-23.6,8.1-34.9,4c-7.3-2.6-13.1-8.1-19.5-12.5c-6.4-4.4-14.3-7.8-21.8-5.7
					c0.1-5.4,2.1-10.5,5.6-14.6c1.2-1.6,2.5-3.1,4-4.5l3-2.9c9.9-9.6,18.3-17.9,23.6-31.5c2.1-5.5,2.6-11.9,6.2-16.7
					c3.3-4.1,5.8-4.5,6.6-10.1c1-6.9,2.6-13.7,4.7-20.3c2-6,5.1-11.6,9.2-16.4c1.8-2.2,3.9-4.2,6.3-5.7c2.4-1.5,5.3-2.1,8.2-1.7
					c2.9,0.5,5.3,2.4,6.3,5.2c2.5,7.5,9.1,10.7,12.7,17.8C130.7,117.3,130.8,117.8,130.8,118.2z"/>
				<path class="st21" d="M121.2,64.8c-0.5,2.3-2.2,4.3-4.5,5.1c-5.1,2-12.1,1.2-10.7,8.4c1.4,5.3,0.9,11-1.2,16
					c-1.4,1.9-2.4,4-2.9,6.3c0,1,0.2,2,0.4,3c1.5,8.8-4.3,17.3-13.1,18.9c-0.6,0.1-1.3,0.2-1.9,0.2c-1.9-0.1-3.9,0.2-5.6,1
					c-1.6,1.3-2.7,3.1-3.3,5.2c-0.7,2.1-2,4-3.7,5.4c-3.5,2.4-8.2,0.9-12.2-0.7c-3-1.1-5.8-2.6-8.3-4.5c-2.5-1.9-4.2-4.9-4.5-8.1
					c0.3-2.1,0.3-4.1-0.1-6.2c-0.7-1.1-1.5-2.2-2.3-3.3c-1.5-3.6-1.1-7.8,1-11c0.4-0.6,0.6-1.2,0.7-1.9c-0.1-0.6-0.2-1.3-0.5-1.9
					c-0.8-4.5,1.5-9,5.6-11c4-1.9,8.3-3.2,12.7-3.9c6.6-1.7,11.9-6.4,14.5-12.6c2.5-5.4,4.7-11.3,10.5-14c9-3.4,19-2.3,27,3.1
					C120.9,59.8,121.9,62.4,121.2,64.8z"/>
				
					<linearGradient id="SVGID_15_" gradientUnits="userSpaceOnUse" x1="-1.919" y1="300.0493" x2="3.7936" y2="298.7877" gradientTransform="matrix(24.434 0 0 -74.706 95.556 22530.0039)">
					<stop  offset="0" style="stop-color:#000000"/>
					<stop  offset="0" style="stop-color:#000000"/>
					<stop  offset="0" style="stop-color:#000000"/>
					<stop  offset="1" style="stop-color:#000000"/>
				</linearGradient>
				<path class="st22" d="M120,128.6c-0.8,0.5-1.7,0.8-2.5,1.3c-0.3,0.2-0.5,0.4-0.8,0.6c-2.9,2.6-4.8,6.1-5.7,9.9
					c-1.3,3.7-2.3,7.5-3,11.3c-1.5,10-1.8,20.1-0.9,30.2c0.5,3.7,0.4,7.4-0.3,11c-4.4-5.1-7.1-11.4-8-18.1c-0.5-3.6-0.3-7.4-1.1-11
					c-0.6-2.6-1.6-5.1-2.1-7.7c0-0.1,0-0.3,0-0.4c-0.7-4.7,1.1-5.4,3.8-8.2c2.6-2.8,4.5-6.2,5.7-9.9c2.2-6.6,4.5-13,6.9-19.4
					C111.5,119.9,118,125.3,120,128.6z"/>
				<g class="st23">
					<path class="st6" d="M112.6,225.4c-11.4,3.5-23.6,3.1-34.7-0.9c-4.2-1.4-8.1-3.7-11.5-6.6c-1.3-1.2-2.4-2.5-3.7-3.6
						c-2-1.6-4.2-3-6.6-4.1c-5.1-2.4-10.4-4-15.6-6.1l-0.6-0.2c1.2-1.6,2.5-3.1,4-4.5l3-2.9h0.7c3.3,0.4,6.5,1.3,9.6,2.7
						c4.9,2.8,9.5,6,13.8,9.7c4.3,2.9,8.9,5.4,13.6,7.5c3,1.5,6.2,2.7,9.4,3.5c3.3,0.4,6.6,0.5,9.9,0.2c2.8,0.1,5.6-0.6,8.1-1.9
						C112.1,220.6,112.4,222.9,112.6,225.4z"/>
				</g>
			</g>
		</g>
	</g>
</g>
</svg>
