<?xml version="1.0" encoding="utf-8"?>
<!-- Generator: Adobe Illustrator 24.0.1, SVG Export Plug-In . SVG Version: 6.00 Build 0)  -->
<svg version="1.1" id="Layer_1" xmlns="http://www.w3.org/2000/svg" xmlns:xlink="http://www.w3.org/1999/xlink" x="0px" y="0px"
	 viewBox="0 0 400 300" style="enable-background:new 0 0 400 300;" xml:space="preserve">
<style type="text/css">
	.st0{fill:none;}
	.st1{fill:#282B4E;}
	.st2{fill:#DA6138;}
	.st3{fill:#3D3D3D;}
	.st4{fill:#68E1FD;}
	.st5{fill:url(#SVGID_1_);}
	.st6{fill:url(#SVGID_2_);}
	.st7{fill:#F3A984;}
	.st8{fill:#FFFFFF;}
	.st9{fill:#606060;}
	.st10{fill:url(#SVGID_3_);}
	.st11{fill:url(#SVGID_4_);}
	.st12{fill:url(#SVGID_5_);}
	.st13{fill:url(#SVGID_6_);}
	.st14{fill:url(#SVGID_7_);}
	.st15{fill:url(#SVGID_8_);}
	.st16{fill:url(#SVGID_9_);}
	.st17{fill:url(#SVGID_10_);}
	.st18{fill:url(#SVGID_11_);}
	.st19{fill:url(#SVGID_12_);}
	.st20{fill:url(#SVGID_13_);}
	.st21{fill:url(#SVGID_14_);}
	.st22{fill:url(#SVGID_15_);}
	.st23{fill:url(#SVGID_16_);}
	.st24{fill:url(#SVGID_17_);}
	.st25{fill:url(#SVGID_18_);}
	.st26{fill:url(#SVGID_19_);}
	.st27{fill:url(#SVGID_20_);}
	.st28{opacity:0.82;fill:url(#SVGID_21_);}
</style>
<rect class="st0" width="400" height="300"/>
<path class="st1" d="M206.2,280.1l167.9-94.2c2.5-1.4,4-4,4.1-6.8c0.1-2.8-1.4-5.5-3.8-7L211.6,71.3c-2.5-1.6-5.7-1.6-8.2-0.1
	l-177.5,103c-2.5,1.4-4,4.1-4,6.9c0,2.9,1.5,5.5,4,6.9L184.2,280C191,284,199.3,284,206.2,280.1z"/>
<path class="st2" d="M62.8,120.7c-4.3,0-9.2,0.1-12.3,3.2c-3,3.1-3.1,8.2-1.2,12.1c1.9,3.9,5.3,6.8,8.7,9.3
	c28.1,21,64.4,27.8,94.7,45.5c18.4,10.7,36.2,25.9,57.4,25.6c16.9-0.3,31.8-10.4,45.5-20.2c1.2-0.9,2.5-1.9,2.8-3.4
	c0.4-2.1-1.6-3.9-3.4-5.2l-63-45.9c-7.6-5.5-15.3-11.1-23.9-15C137,112.8,96.1,120.9,62.8,120.7z"/>
<path class="st3" d="M110.2,151.6c0,0-18.3-16.5-0.2-35.8L164,85.7c4.7-0.1,9.3,0.9,13.5,3.1c6.4,3.5,82.8,63.3,88.8,69.3
	c6,6,7.1,18.2,7.1,18.2s0.4,4-1.1,5.8c-1.6,1.7-53.3,30-55.3,29.5c-2-0.5-8.9-3.1-8.9-3.1L110.2,151.6z"/>
<path class="st4" d="M177.3,44.5c0.1-1.7,1.4-3,3.1-2.9c0.4,0,0.9,0.1,1.2,0.3l54,26.2c0,0,3.6,2.2,3.5,6.4s0,36.9,0,36.9
	s0.4,3.7-5.5,0.3c-5.9-3.4-54.4-31.7-54.4-31.7s-2.1-0.9-2.4-6.3C176.6,69.3,177,52.7,177.3,44.5z"/>
<linearGradient id="SVGID_1_" gradientUnits="userSpaceOnUse" x1="223.3346" y1="221.0849" x2="285.6861" y2="221.0849" gradientTransform="matrix(1 0 0 -1 -46.6 298.41)">
	<stop  offset="0" style="stop-color:#010101;stop-opacity:0"/>
	<stop  offset="0.95" style="stop-color:#010101"/>
</linearGradient>
<path class="st5" d="M177.3,44.5c0.1-1.7,1.4-3,3.1-2.9c0.4,0,0.9,0.1,1.2,0.3l54,26.2c0,0,3.6,2.2,3.5,6.4s0,36.9,0,36.9
	s0.4,3.7-5.5,0.3c-5.9-3.4-54.4-31.7-54.4-31.7s-2.1-0.9-2.4-6.3C176.6,69.3,177,52.7,177.3,44.5z"/>
<path class="st2" d="M176.5,46.1c0.1-1.7,1.5-3,3.1-2.9c0.4,0,0.8,0.1,1.2,0.3l54,26.2c0,0,3.6,2.2,3.5,6.4c-0.1,4.1,0,36.9,0,36.9
	s0.4,3.7-5.5,0.3c-5.9-3.4-54.4-31.7-54.4-31.7s-2.1-0.9-2.4-6.3C175.7,71,176.2,54.3,176.5,46.1z"/>
<linearGradient id="SVGID_2_" gradientUnits="userSpaceOnUse" x1="212.7018" y1="229.0441" x2="194.9449" y2="178.8782" gradientTransform="matrix(1 0 0 -1 0 302)">
	<stop  offset="0" style="stop-color:#010101;stop-opacity:0"/>
	<stop  offset="0.95" style="stop-color:#010101"/>
</linearGradient>
<polygon class="st6" points="175.8,64.4 237.7,97.7 239.1,111.3 176,75.2 "/>
<path class="st7" d="M343.4,142.9c-2.5,4.5-5.7,8.7-8.7,12.9c-5.3-1.6-11.5-2.6-15-6.8c-26.4-31-40.1-30.5-63.7-40.7
	c-16.7-7.2-35.7-12-50.2-22.9c-2.4-1.8-4.8-4.6-3.7-7.3c1.1-2.7,4.5-3.2,7.4-3.2c7.8,0.1,15.5,1,23,3c0.9,0.3,1.8,0.4,2.8,0.2
	c1.6-0.5,2.4-2.4,2.3-4.1c-0.3-5.3-4.7-7.5-9.5-9.6c-7-3.2-14.8-7.3-21.9-10.4c7,0.4,13.5-3.5,20.5-4.7c2.8-0.4,5.5-0.7,8.3-0.8
	c7-0.3,14.1-0.5,21.1-0.8c2.4-0.1,4.8-0.2,7.1,0.5c2.7,0.8,4.9,2.6,7,4.5c10.7,9.4,19.4,20.9,29,31.5c9.6,10.5,40.5,25.2,43.4,26.7
	C347.5,121.5,350.3,130.7,343.4,142.9z"/>
<path class="st8" d="M107.4,81.4C98,68.9,80,65.1,71.4,52.1c14.8-8.6,31.7-12.5,48.4-16.4c4.6,6.3,11.2,10.7,17.4,15.5
	c6.2,4.8,12.3,10.3,14.9,17.6c1.6,4.6,1.8,9.5,1.9,14.3l0.2,7.1c0.2,1.2-0.4,2.4-1.5,2.8c-4.2,2.6-8.6,4.9-13.1,7
	c-2.6,1.1-5.2,2.1-7.7,3.3c-4.3,2-8,4.8-11.8,7.7c-4.9,3.8-4.2-2.1-4.7-5.9C114.4,96.7,112.5,88.1,107.4,81.4z"/>
<path class="st4" d="M110,115.8c0,0,52.6-29.8,53.9-30.1c1.3-0.3,10.5,0.8,17,6.3c6.5,5.5,41.8,33.3,41.8,33.3s0.8,3.2-0.5,5
	s-43.3,25.6-47.6,24.5C170.3,153.6,128.5,109.8,110,115.8z"/>
<path class="st9" d="M110,115.8c0,0,52.6-29.8,53.9-30.1c1.3-0.3,10.5,0.8,17,6.3c6.5,5.5,41.8,33.3,41.8,33.3s0.8,3.2-0.5,5
	s-43.3,25.6-47.6,24.5C170.3,153.6,128.5,109.8,110,115.8z"/>
<linearGradient id="SVGID_3_" gradientUnits="userSpaceOnUse" x1="224.4948" y1="165.9558" x2="153.246" y2="3.475" gradientTransform="matrix(1 0 0 -1 -46.6 298.41)">
	<stop  offset="0" style="stop-color:#010101;stop-opacity:0"/>
	<stop  offset="0.95" style="stop-color:#010101"/>
</linearGradient>
<path class="st10" d="M109.8,119.3c0,0,1.7-6.3,19,6.7s92.9,73.9,92.9,73.9l-2,10.3c0,0-107.9-52.9-109.5-58.6S95.5,133,109.8,119.3
	z"/>
<linearGradient id="SVGID_4_" gradientUnits="userSpaceOnUse" x1="264.4795" y1="148.5807" x2="178.0086" y2="-48.6024" gradientTransform="matrix(1 0 0 -1 0 302)">
	<stop  offset="0" style="stop-color:#010101;stop-opacity:0"/>
	<stop  offset="0.95" style="stop-color:#010101"/>
</linearGradient>
<polygon class="st11" points="224.4,198.6 270.7,171.9 272.2,182 222.7,207.2 "/>
<polygon class="st0" points="243.6,164.5 234.2,169.9 225.2,162.8 234.6,157.4 "/>
<linearGradient id="SVGID_5_" gradientUnits="userSpaceOnUse" x1="186.4188" y1="141.3816" x2="205.1547" y2="141.3816" gradientTransform="matrix(1 0 0 -1 0 302)">
	<stop  offset="0" style="stop-color:#FFFFFF;stop-opacity:0"/>
	<stop  offset="0.66" style="stop-color:#FFFFFF"/>
</linearGradient>
<polygon class="st12" points="205.2,161.3 195.5,166.9 186.4,159.7 196.5,154.4 "/>
<linearGradient id="SVGID_6_" gradientUnits="userSpaceOnUse" x1="196.4506" y1="147.058" x2="215.5822" y2="147.058" gradientTransform="matrix(1 0 0 -1 0 302)">
	<stop  offset="0" style="stop-color:#FFFFFF;stop-opacity:0"/>
	<stop  offset="0.66" style="stop-color:#FFFFFF"/>
</linearGradient>
<polygon class="st13" points="215.6,155.2 205.2,161.3 196.5,154.4 207.2,148.6 "/>
<linearGradient id="SVGID_7_" gradientUnits="userSpaceOnUse" x1="207.2335" y1="152.6775" x2="225.0239" y2="152.6775" gradientTransform="matrix(1 0 0 -1 0 302)">
	<stop  offset="0" style="stop-color:#FFFFFF;stop-opacity:0"/>
	<stop  offset="0.66" style="stop-color:#FFFFFF"/>
</linearGradient>
<polygon class="st14" points="225,149.8 215.6,155.2 207.2,148.6 217,143.4 217,143.4 "/>
<linearGradient id="SVGID_8_" gradientUnits="userSpaceOnUse" x1="217.0038" y1="158.0656" x2="234.7875" y2="158.0656" gradientTransform="matrix(1 0 0 -1 0 302)">
	<stop  offset="0" style="stop-color:#FFFFFF;stop-opacity:0"/>
	<stop  offset="0.66" style="stop-color:#FFFFFF"/>
</linearGradient>
<polygon class="st15" points="234.8,144.1 225,149.8 217,143.4 226.9,138.1 "/>
<linearGradient id="SVGID_9_" gradientUnits="userSpaceOnUse" x1="225.0239" y1="151.2659" x2="244.5779" y2="151.2659" gradientTransform="matrix(1 0 0 -1 0 302)">
	<stop  offset="0" style="stop-color:#FFFFFF;stop-opacity:0"/>
	<stop  offset="0.66" style="stop-color:#FFFFFF"/>
</linearGradient>
<polygon class="st16" points="244.6,151.6 234.6,157.4 225,149.8 234.8,144.1 "/>
<linearGradient id="SVGID_10_" gradientUnits="userSpaceOnUse" x1="234.5997" y1="143.9734" x2="253.7313" y2="143.9734" gradientTransform="matrix(1 0 0 -1 0 302)">
	<stop  offset="0" style="stop-color:#FFFFFF;stop-opacity:0"/>
	<stop  offset="0.66" style="stop-color:#FFFFFF"/>
</linearGradient>
<polygon class="st17" points="253.7,158.6 243.6,164.5 234.6,157.4 244.6,151.6 "/>
<linearGradient id="SVGID_11_" gradientUnits="userSpaceOnUse" x1="243.5854" y1="137.1" x2="262.3415" y2="137.1" gradientTransform="matrix(1 0 0 -1 0 302)">
	<stop  offset="0" style="stop-color:#FFFFFF;stop-opacity:0"/>
	<stop  offset="0.66" style="stop-color:#FFFFFF"/>
</linearGradient>
<polygon class="st18" points="262.3,165.2 252.1,171.2 243.6,164.5 253.7,158.6 "/>
<linearGradient id="SVGID_12_" gradientUnits="userSpaceOnUse" x1="234.1705" y1="131.4269" x2="252.075" y2="131.4269" gradientTransform="matrix(1 0 0 -1 0 302)">
	<stop  offset="0" style="stop-color:#FFFFFF;stop-opacity:0"/>
	<stop  offset="0.66" style="stop-color:#FFFFFF"/>
</linearGradient>
<polygon class="st19" points="252.1,171.2 242.7,176.7 234.2,169.9 243.6,164.5 "/>
<linearGradient id="SVGID_13_" gradientUnits="userSpaceOnUse" x1="223.7431" y1="125.6532" x2="242.6869" y2="125.6532" gradientTransform="matrix(1 0 0 -1 0 302)">
	<stop  offset="0" style="stop-color:#FFFFFF;stop-opacity:0"/>
	<stop  offset="0.66" style="stop-color:#FFFFFF"/>
</linearGradient>
<polygon class="st20" points="242.7,176.7 232.3,182.8 223.7,176 234.2,169.9 "/>
<linearGradient id="SVGID_14_" gradientUnits="userSpaceOnUse" x1="214.0935" y1="119.8326" x2="232.3063" y2="119.8326" gradientTransform="matrix(1 0 0 -1 0 302)">
	<stop  offset="0" style="stop-color:#FFFFFF;stop-opacity:0"/>
	<stop  offset="0.66" style="stop-color:#FFFFFF"/>
</linearGradient>
<polygon class="st21" points="232.3,182.8 222.7,188.4 214.1,181.6 223.7,176 "/>
<linearGradient id="SVGID_15_" gradientUnits="userSpaceOnUse" x1="205.0809" y1="126.7999" x2="223.7431" y2="126.7999" gradientTransform="matrix(1 0 0 -1 0 302)">
	<stop  offset="0" style="stop-color:#FFFFFF;stop-opacity:0"/>
	<stop  offset="0.66" style="stop-color:#FFFFFF"/>
</linearGradient>
<polygon class="st22" points="223.7,176 214.1,181.6 205.1,174.5 214.8,168.8 "/>
<linearGradient id="SVGID_16_" gradientUnits="userSpaceOnUse" x1="195.4581" y1="134.1427" x2="214.7574" y2="134.1427" gradientTransform="matrix(1 0 0 -1 0 302)">
	<stop  offset="0" style="stop-color:#FFFFFF;stop-opacity:0"/>
	<stop  offset="0.66" style="stop-color:#FFFFFF"/>
</linearGradient>
<polygon class="st23" points="214.8,168.8 205.1,174.5 195.5,166.9 205.2,161.3 "/>
<linearGradient id="SVGID_17_" gradientUnits="userSpaceOnUse" x1="215.5822" y1="145.7068" x2="234.5997" y2="145.7068" gradientTransform="matrix(1 0 0 -1 0 302)">
	<stop  offset="0" style="stop-color:#FFFFFF;stop-opacity:0"/>
	<stop  offset="0.66" style="stop-color:#FFFFFF"/>
</linearGradient>
<polygon class="st24" points="234.6,157.4 225.2,162.8 215.6,155.2 225,149.8 "/>
<linearGradient id="SVGID_18_" gradientUnits="userSpaceOnUse" x1="205.1547" y1="139.9633" x2="225.1647" y2="139.9633" gradientTransform="matrix(1 0 0 -1 0 302)">
	<stop  offset="0" style="stop-color:#FFFFFF;stop-opacity:0"/>
	<stop  offset="0.66" style="stop-color:#FFFFFF"/>
</linearGradient>
<polygon class="st25" points="225.2,162.8 214.8,168.8 205.2,161.3 215.6,155.2 "/>
<linearGradient id="SVGID_19_" gradientUnits="userSpaceOnUse" x1="225.1647" y1="138.3539" x2="243.5854" y2="138.3539" gradientTransform="matrix(1 0 0 -1 0 302)">
	<stop  offset="0" style="stop-color:#FFFFFF;stop-opacity:0"/>
	<stop  offset="0.66" style="stop-color:#FFFFFF"/>
</linearGradient>
<polygon class="st26" points="243.6,164.5 234.2,169.9 225.2,162.8 234.6,157.4 "/>
<linearGradient id="SVGID_20_" gradientUnits="userSpaceOnUse" x1="214.7574" y1="132.6037" x2="234.1705" y2="132.6037" gradientTransform="matrix(1 0 0 -1 0 302)">
	<stop  offset="0" style="stop-color:#FFFFFF;stop-opacity:0"/>
	<stop  offset="0.66" style="stop-color:#FFFFFF"/>
</linearGradient>
<polygon class="st27" points="234.2,169.9 223.7,176 214.8,168.8 225.2,162.8 "/>
<linearGradient id="SVGID_21_" gradientUnits="userSpaceOnUse" x1="131.1607" y1="122.3901" x2="218.2636" y2="122.3901">
	<stop  offset="0" style="stop-color:#FFFFFF"/>
	<stop  offset="1" style="stop-color:#FFFFFF"/>
</linearGradient>
<path class="st28" d="M131.2,117.5c0,0,22.7,11.7,42.3,33.8c0,0,39.8-17.7,44.8-23.7c0,0-24.7-23.7-44.5-34.1L131.2,117.5z"/>
</svg>
