<?xml version="1.0" encoding="UTF-8" standalone="no"?><!-- Generator: Gravit.io --><svg xmlns="http://www.w3.org/2000/svg" xmlns:xlink="http://www.w3.org/1999/xlink" style="isolation:isolate" viewBox="0 0 400 300" width="400pt" height="300pt"><defs><clipPath id="_clipPath_rg4toqPmIkQtAP9kmgu0Esk1ad7zYY4j"><rect width="400" height="300"/></clipPath></defs><g clip-path="url(#_clipPath_rg4toqPmIkQtAP9kmgu0Esk1ad7zYY4j)"><rect x="-479.687" y="381.413" width="267.687" height="167.395" transform="matrix(1,0,0,1,0,0)" fill="none"/><g opacity="0.45"><ellipse vector-effect="non-scaling-stroke" cx="200.00000000000006" cy="258.23446097662827" rx="194.00472267066834" ry="19.765539023371744" fill="rgb(230,230,230)"/></g><path d=" M 249.964 218.26 L 249.964 230.404 C 249.964 235.903 265.238 240.332 284.194 240.302 C 303.15 240.271 318.41 235.719 318.41 230.282 L 318.41 218.153 L 249.964 218.26 Z " fill="rgb(255,210,0)"/><path d=" M 249.979 232.894 L 249.979 245.022 C 249.979 250.521 265.254 254.95 284.21 254.92 C 303.166 254.889 318.425 250.337 318.41 244.9 L 318.41 232.771 L 249.979 232.894 Z " fill="rgb(255,210,0)"/><g opacity="0.08"><path d=" M 249.979 232.894 L 249.979 245.022 C 249.979 250.521 265.254 254.95 284.21 254.92 C 303.166 254.889 318.425 250.337 318.41 244.9 L 318.41 232.771 L 249.979 232.894 Z " fill="rgb(0,0,0)"/></g><path d=" M 250.656 232.456 C 250.647 227.01 265.834 222.562 284.549 222.529 C 303.264 222.497 318.467 226.891 318.476 232.337 C 318.486 237.783 303.299 242.231 284.583 242.264 C 265.868 242.297 250.666 237.902 250.656 232.456 Z " fill="rgb(255,210,0)"/><g opacity="0.08"><path d=" M 249.964 218.26 L 249.964 230.404 C 249.964 235.903 265.238 240.332 284.194 240.302 C 303.15 240.271 318.41 235.719 318.41 230.282 L 318.41 218.153 L 249.964 218.26 Z " fill="rgb(0,0,0)"/></g><path d=" M 252.423 203.765 L 252.423 215.893 C 252.423 221.392 267.698 225.821 286.669 225.791 C 305.64 225.76 320.884 221.285 320.869 215.786 L 320.869 203.566 L 252.423 203.765 Z " fill="rgb(255,210,0)"/><path d=" M 249.887 189.147 L 249.887 201.275 C 249.887 206.774 265.162 211.203 284.118 211.173 C 303.074 211.142 318.334 206.667 318.318 201.168 L 318.318 188.948 L 249.887 189.147 Z " fill="rgb(255,210,0)"/><path d=" M 250.631 217.975 C 250.621 212.529 265.808 208.081 284.524 208.049 C 303.239 208.016 318.441 212.411 318.451 217.857 C 318.46 223.303 303.273 227.751 284.558 227.784 C 265.843 227.816 250.64 223.421 250.631 217.975 Z " fill="rgb(255,210,0)"/><g opacity="0.08"><path d=" M 252.423 203.765 L 252.423 215.893 C 252.423 221.392 267.698 225.821 286.669 225.791 C 305.64 225.76 320.884 221.285 320.869 215.786 L 320.869 203.566 L 252.423 203.765 Z " fill="rgb(0,0,0)"/></g><path d=" M 253.065 203.598 C 253.056 198.152 268.242 193.704 286.958 193.671 C 305.673 193.638 320.875 198.033 320.885 203.479 C 320.894 208.925 305.708 213.373 286.992 213.406 C 268.277 213.439 253.075 209.044 253.065 203.598 Z " fill="rgb(255,210,0)"/><g opacity="0.08"><path d=" M 249.887 189.147 L 249.887 201.275 C 249.887 206.774 265.162 211.203 284.118 211.173 C 303.074 211.142 318.334 206.667 318.318 201.168 L 318.318 188.948 L 249.887 189.147 Z " fill="rgb(0,0,0)"/></g><path d=" M 249.939 189.123 C 249.93 183.677 265.26 179.228 284.153 179.195 C 303.045 179.162 318.391 183.557 318.4 189.003 C 318.41 194.449 303.079 198.897 284.187 198.93 C 265.295 198.963 249.949 194.569 249.939 189.123 Z " fill="rgb(255,210,0)"/><path d=" M 145.332 89.494 C 145.332 89.494 118.83 131.546 109.772 177.813 C 100.714 224.08 112.552 257.471 192.072 258.234 C 271.593 258.998 293.207 228.067 282.041 183.892 C 270.875 139.718 211.594 82.941 211.594 82.941 L 145.332 89.494 Z " fill="rgb(40,43,78)"/><path d=" M 145.332 89.494 C 145.332 89.494 106.748 60.9 118.83 43.227 C 118.83 43.227 156.497 32.076 170.443 26.425 C 170.443 26.425 257.403 14.724 211.594 82.941 L 145.332 89.494 Z " fill="rgb(36,40,91)"/><mask id="_mask_R1VS1hyKcmfnBNt0YI7wbxSVEnCPhD1e" x="-200%" y="-200%" width="400%" height="400%"><rect x="-200%" y="-200%" width="400%" height="400%" style="fill:white;"/><path d=" M 142.078 89.494 C 142.078 89.494 182.999 81.735 217.413 82.941" fill="black" stroke="none"/></mask><path d=" M 142.078 89.494 C 142.078 89.494 182.999 81.735 217.413 82.941" fill="none"/><path d=" M 142.078 89.494 C 142.078 89.494 182.999 81.735 217.413 82.941" fill="none" mask="url(#_mask_R1VS1hyKcmfnBNt0YI7wbxSVEnCPhD1e)" vector-effect="non-scaling-stroke" stroke-width="1.423" stroke="rgb(255,210,0)" stroke-linejoin="round" stroke-linecap="round" stroke-miterlimit="4"/><mask id="_mask_v7rLMNOqg5YZz29zL88tnlUQYgYipzC0" x="-200%" y="-200%" width="400%" height="400%"><rect x="-200%" y="-200%" width="400%" height="400%" style="fill:white;"/><path d=" M 213.686 82.819 C 213.686 82.819 234.154 35.788 258.793 60.426 C 258.793 60.426 215.321 82.941 215.321 82.941 L 215.321 82.941 C 215.321 82.941 280.88 104.143 247.398 128.323 C 213.915 152.503 213.686 82.819 213.686 82.819 Z " fill="black" stroke="none"/></mask><path d=" M 213.686 82.819 C 213.686 82.819 234.154 35.788 258.793 60.426 C 258.793 60.426 215.321 82.941 215.321 82.941 L 215.321 82.941 C 215.321 82.941 280.88 104.143 247.398 128.323 C 213.915 152.503 213.686 82.819 213.686 82.819 Z " fill="none"/><path d=" M 213.686 82.819 C 213.686 82.819 234.154 35.788 258.793 60.426 C 258.793 60.426 215.321 82.941 215.321 82.941 L 215.321 82.941 C 215.321 82.941 280.88 104.143 247.398 128.323 C 213.915 152.503 213.686 82.819 213.686 82.819 Z " fill="none" mask="url(#_mask_v7rLMNOqg5YZz29zL88tnlUQYgYipzC0)" vector-effect="non-scaling-stroke" stroke-width="1.423" stroke="rgb(255,210,0)" stroke-linejoin="round" stroke-linecap="round" stroke-miterlimit="4"/><circle vector-effect="non-scaling-stroke" cx="207.66792935837134" cy="185.96957293986625" r="39.928221798372334" fill="rgb(218,97,56)"/><path d=" M 205.957 162.37 C 207.24 162.171 207.698 162.569 207.882 163.898 L 208.294 166.632 C 213.533 166.632 216.863 168.724 219.704 172.864 C 220.575 174.101 220.392 174.865 218.987 175.766 L 216.436 177.37 C 215.244 178.164 214.587 177.981 213.671 176.744 C 212.075 174.07 208.918 172.756 205.896 173.505 C 201.146 174.208 199.175 175.919 199.649 179.096 C 199.954 181.158 202.047 182.151 204.048 182.273 C 205.416 182.36 206.788 182.36 208.157 182.273 C 210.706 182.024 213.278 182.143 215.794 182.624 C 217.048 182.842 218.254 183.282 219.353 183.923 C 221.655 185.733 223.135 188.39 223.462 191.3 C 224.348 197.41 220.896 202.115 213.854 204.238 L 214.282 207.14 C 214.465 208.423 214.144 208.928 212.861 209.111 L 209.806 209.569 C 208.523 209.752 208.019 209.371 207.821 208.042 L 207.408 205.2 C 202.224 205.649 197.282 202.922 194.898 198.296 C 194.582 197.827 194.5 197.239 194.677 196.701 C 194.853 196.164 195.267 195.738 195.799 195.547 L 198.396 194.142 C 199.71 193.439 200.382 193.683 201.191 194.982 C 202.887 197.93 205.621 199.121 209.425 198.556 C 214.557 197.792 216.879 195.807 216.39 192.446 C 216.228 190.887 215.036 189.632 213.488 189.391 C 211.617 189.022 209.701 188.94 207.805 189.147 C 205.223 189.372 202.621 189.197 200.092 188.627 C 198.849 188.386 197.66 187.925 196.578 187.268 C 194.261 185.57 192.765 182.975 192.454 180.119 C 191.553 174.101 194.761 169.519 201.757 167.518 L 201.359 164.783 C 201.161 163.5 201.543 162.996 202.887 162.798 L 205.957 162.37 Z " fill="rgb(255,255,255)"/><path d=" M 118.83 42.417 C 118.83 42.417 110.001 56.485 126.269 59.739 C 126.269 59.739 157.2 48.94 169.985 53.293 C 169.985 53.293 220.27 66.704 226.502 49.047 C 232.734 31.389 210.173 21.033 194.654 22.071 C 179.135 23.11 124.375 25.539 118.83 42.417 Z " fill="rgb(218,97,56)"/><path d=" M 71.173 220.139 L 71.173 233.718 C 71.173 239.828 88.342 244.823 109.497 244.793 C 130.653 244.762 147.791 239.737 147.776 233.581 L 147.776 220.002 L 71.173 220.139 Z " fill="rgb(255,210,0)"/><path d=" M 71.173 236.422 L 71.173 250.001 C 71.173 256.111 88.342 261.121 109.497 261.076 C 130.653 261.03 147.791 256.035 147.776 249.879 L 147.776 236.3 L 71.173 236.422 Z " fill="rgb(255,210,0)"/><g opacity="0.08"><path d=" M 71.173 236.422 L 71.173 250.001 C 71.173 256.111 88.342 261.121 109.497 261.076 C 130.653 261.03 147.791 256.035 147.776 249.879 L 147.776 236.3 L 71.173 236.422 Z " fill="rgb(0,0,0)"/></g><path d=" M 71.978 235.96 C 71.968 229.865 88.967 224.887 109.917 224.85 C 130.866 224.814 147.883 229.732 147.894 235.828 C 147.905 241.923 130.905 246.901 109.955 246.938 C 89.006 246.974 71.989 242.055 71.978 235.96 Z " fill="rgb(255,210,0)"/><g opacity="0.08"><path d=" M 71.173 220.139 L 71.173 233.718 C 71.173 239.828 88.342 244.823 109.497 244.793 C 130.653 244.762 147.791 239.737 147.776 233.581 L 147.776 220.002 L 71.173 220.139 Z " fill="rgb(0,0,0)"/></g><path d=" M 73.953 203.826 L 73.953 217.405 C 73.953 223.515 91.122 228.525 112.277 228.479 C 133.433 228.433 150.571 223.439 150.556 217.283 L 150.556 203.704 L 73.953 203.826 Z " fill="rgb(255,210,0)"/><path d=" M 71.173 187.466 L 71.173 201.046 C 71.173 207.156 88.342 212.166 109.482 212.12 C 130.622 212.074 147.776 207.064 147.776 200.924 L 147.776 187.329 L 71.173 187.466 Z " fill="rgb(255,210,0)"/><path d=" M 71.95 219.754 C 71.94 213.659 88.939 208.68 109.889 208.644 C 130.838 208.607 147.855 213.526 147.866 219.621 C 147.876 225.716 130.877 230.695 109.927 230.731 C 88.978 230.768 71.961 225.849 71.95 219.754 Z " fill="rgb(255,210,0)"/><g opacity="0.08"><path d=" M 73.953 203.826 L 73.953 217.405 C 73.953 223.515 91.122 228.525 112.277 228.479 C 133.433 228.433 150.571 223.439 150.556 217.283 L 150.556 203.704 L 73.953 203.826 Z " fill="rgb(0,0,0)"/></g><path d=" M 74.672 203.665 C 74.661 197.569 91.661 192.591 112.61 192.555 C 133.559 192.518 150.576 197.437 150.587 203.532 C 150.598 209.627 133.598 214.605 112.649 214.642 C 91.699 214.679 74.682 209.76 74.672 203.665 Z " fill="rgb(255,210,0)"/><g opacity="0.08"><path d=" M 71.173 187.466 L 71.173 201.046 C 71.173 207.156 88.342 212.166 109.482 212.12 C 130.622 212.074 147.776 207.064 147.776 200.924 L 147.776 187.329 L 71.173 187.466 Z " fill="rgb(0,0,0)"/></g><g opacity="0.08"><circle vector-effect="non-scaling-stroke" cx="72.65432856425808" cy="235.18484862248096" r="28.426327760815184" fill="rgb(0,0,0)"/></g><g opacity="0.08"><path d=" M 91.58 206.713 C 91.58 206.713 121.335 215.801 116.554 260.892 C 116.554 260.892 97.155 261.534 87.944 259.166 C 79.711 257.058 91.58 206.713 91.58 206.713 Z " fill="rgb(0,0,0)"/></g><path d=" M 71.176 187.464 C 71.165 181.369 88.322 176.391 109.466 176.354 C 130.609 176.317 147.783 181.235 147.794 187.331 C 147.805 193.426 130.648 198.404 109.504 198.441 C 88.361 198.478 71.187 193.559 71.176 187.464 Z " fill="rgb(255,210,0)"/><circle vector-effect="non-scaling-stroke" cx="72.65432856425808" cy="235.18484862248096" r="28.426327760815184" fill="rgb(255,210,0)"/><g opacity="0.08"><circle vector-effect="non-scaling-stroke" cx="72.65432856425808" cy="235.18484862248096" r="28.426327760815184" fill="rgb(0,0,0)"/></g><g opacity="0.08"><circle vector-effect="non-scaling-stroke" cx="71.2643254335571" cy="226.6309832027841" r="28.426327760815184" fill="rgb(0,0,0)"/></g><circle vector-effect="non-scaling-stroke" cx="71.2643254335571" cy="226.6309832027841" r="28.426327760815184" fill="rgb(255,210,0)"/><path d=" M 72.44 211.692 C 73.25 211.692 73.494 211.967 73.494 212.777 L 73.494 214.488 C 76.373 214.789 78.848 216.659 79.925 219.345 C 80.353 220.185 80.17 220.643 79.238 221.056 L 77.512 221.835 C 76.717 222.217 76.336 222.033 75.877 221.193 C 75.136 219.413 73.322 218.323 71.402 218.505 C 68.347 218.505 67.064 219.375 67.064 221.376 C 67.064 222.66 68.255 223.469 69.477 223.714 C 70.309 223.893 71.15 224.02 71.998 224.095 C 73.561 224.183 75.103 224.492 76.58 225.012 C 77.333 225.247 78.033 225.626 78.642 226.127 C 79.896 227.445 80.567 229.212 80.506 231.03 C 80.506 234.834 77.939 237.415 73.433 238.087 L 73.433 239.905 C 73.433 240.714 73.189 240.989 72.379 240.989 L 70.47 240.989 C 69.66 240.989 69.386 240.714 69.386 239.905 L 69.386 238.118 C 66.18 237.909 63.417 235.785 62.39 232.741 C 62.237 232.424 62.238 232.054 62.393 231.738 C 62.548 231.422 62.84 231.195 63.184 231.122 L 64.91 230.495 C 65.781 230.19 66.163 230.389 66.544 231.275 C 67.278 233.203 69.21 234.404 71.264 234.207 C 74.487 234.207 76.091 233.199 76.091 231.152 C 76.145 230.167 75.512 229.274 74.564 228.999 C 73.449 228.597 72.28 228.371 71.096 228.326 C 69.49 228.237 67.908 227.897 66.407 227.318 C 65.67 227.056 64.987 226.663 64.391 226.157 C 63.123 224.908 62.437 223.186 62.497 221.407 C 62.497 217.634 64.879 215.114 69.355 214.518 L 69.355 212.807 C 69.355 211.998 69.63 211.723 70.439 211.723 L 72.44 211.692 Z " fill="rgb(255,255,255)"/></g></svg>