<?xml version="1.0" encoding="UTF-8" standalone="no"?><!-- Generator: Gravit.io --><svg xmlns="http://www.w3.org/2000/svg" xmlns:xlink="http://www.w3.org/1999/xlink" style="isolation:isolate" viewBox="0 0 400 300" width="400pt" height="300pt"><defs><clipPath id="_clipPath_CJdCTORygAG7CofByLfYpt1SXGH0QAl8"><rect width="400" height="300"/></clipPath></defs><g clip-path="url(#_clipPath_CJdCTORygAG7CofByLfYpt1SXGH0QAl8)"><g><mask id="_mask_OfV93yKvHmVwr4ohrenjwx1CCvvu0gEH" x="-200%" y="-200%" width="400%" height="400%"><rect x="-200%" y="-200%" width="400%" height="400%" style="fill:white;"/><path d=" M 307.467 61.548 C 307.467 61.548 396.572 101.131 399.638 156.247 C 402.705 211.362 236.365 201.424 199.99 225.191 C 163.616 248.958 5.964 285.077 9.002 243.676 C 12.041 202.276 49.494 187.993 49.494 187.993" fill="black" stroke="none"/></mask><path d=" M 307.467 61.548 C 307.467 61.548 396.572 101.131 399.638 156.247 C 402.705 211.362 236.365 201.424 199.99 225.191 C 163.616 248.958 5.964 285.077 9.002 243.676 C 12.041 202.276 49.494 187.993 49.494 187.993" fill="none"/><path d=" M 307.467 61.548 C 307.467 61.548 396.572 101.131 399.638 156.247 C 402.705 211.362 236.365 201.424 199.99 225.191 C 163.616 248.958 5.964 285.077 9.002 243.676 C 12.041 202.276 49.494 187.993 49.494 187.993" fill="none" mask="url(#_mask_OfV93yKvHmVwr4ohrenjwx1CCvvu0gEH)" vector-effect="non-scaling-stroke" stroke-width="0.96" stroke="rgb(255,255,255)" stroke-linejoin="miter" stroke-linecap="butt" stroke-miterlimit="10"/><g opacity="0.18"><path d=" M 74.141 239.531 L 128.519 94.43 C 130.339 89.595 134.966 86.394 140.132 86.394 L 369.113 86.394 C 375.955 86.41 381.494 91.961 381.494 98.803 C 381.49 100.064 381.299 101.318 380.926 102.523 L 328.309 267.216 C 326.542 272.702 321.216 276.237 315.474 275.735 L 84.676 256.142 C 77.847 255.584 72.762 249.597 73.318 242.768 C 73.451 241.657 73.728 240.569 74.141 239.531 Z " fill="rgb(218,97,56)"/></g><path d=" M 374.792 88.012 L 322.091 252.791 C 320.295 258.268 314.971 261.794 309.227 261.31 L 240.113 255.46 L 78.571 241.66 C 75.291 241.407 72.248 239.856 70.115 237.35 C 67.983 234.845 66.939 231.593 67.213 228.314 C 67.328 227.149 67.595 226.003 68.008 224.907 L 80.928 190.832 L 104.297 128.362 L 122.414 80.09 C 124.234 75.255 128.861 72.054 134.027 72.054 L 363.008 72.054 C 366.292 72.054 369.441 73.359 371.763 75.68 C 374.084 78.002 375.389 81.151 375.389 84.435 C 375.372 85.651 375.171 86.857 374.792 88.012 L 374.792 88.012 Z " fill="rgb(255,255,255)"/><g opacity="0.18"><path d=" M 147.941 231.381 L 164.837 185.011 L 235.144 185.011 L 216.8 232.659 L 147.941 231.381 L 147.941 231.381 Z " fill="rgb(218,97,56)"/></g><path d=" M 374.792 88.012 L 322.091 252.791 C 320.295 258.268 314.971 261.794 309.227 261.31 L 240.113 255.46 L 303.861 82.419 L 304.343 81.084 L 375.162 81.822 C 375.151 82.03 375.151 82.239 375.162 82.447 C 375.466 84.306 375.339 86.21 374.792 88.012 Z " fill="rgb(40,43,78)"/><path d=" M 375.275 81.822 L 375.275 82.475 L 375.275 83.185 L 303.861 82.447 L 122.414 80.601 L 122.414 79.238 L 304.343 81.084 L 375.162 81.822 L 375.275 81.822 L 375.275 81.822 Z " fill="rgb(218,97,56)"/><g><g opacity="0.18"><path d=" M 263.298 32.038 L 240.979 106.061 C 240.302 108.513 238.06 110.202 235.517 110.176 L 176.24 108.465 L 206.242 28.36 L 258.31 25.302 C 259.988 25.231 261.592 25.997 262.591 27.346 C 263.591 28.696 263.856 30.454 263.298 32.038 L 263.298 32.038 Z " fill="rgb(218,97,56)"/></g><path d=" M 127.449 87.856 L 150.534 22.498 C 151.257 20.353 153.192 18.848 155.449 18.675 L 252.739 12.922 C 254.42 12.87 256.02 13.644 257.022 14.995 C 258.025 16.345 258.302 18.101 257.764 19.695 L 235.444 93.755 C 234.759 96.205 232.527 97.901 229.982 97.905 L 131.891 94.956 C 130.23 94.86 128.718 93.964 127.836 92.554 C 126.953 91.143 126.809 89.392 127.449 87.856 Z " fill="rgb(255,255,255)"/><path d=" M 159.309 81.011 L 146.856 81.011 L 153.41 64.08 L 165.826 64.08 L 159.309 81.011 L 159.309 81.011 Z " fill="rgb(218,97,56)"/><path d=" M 190.003 81.011 L 177.551 81.011 L 185.67 60.038 L 198.086 60.038 L 190.003 81.011 L 190.003 81.011 Z " fill="rgb(218,97,56)"/><linearGradient id="_lgradient_71" x1="0.1838135593220347" y1="-2.9356851311953367" x2="1.6198587570621532" y2="6.554258371629556" gradientTransform="matrix(25.779,0,0,34.445,162.185,46.566)" gradientUnits="userSpaceOnUse"><stop offset="0%" stop-opacity="1" style="stop-color:rgb(0,0,0)"/><stop offset="0%" stop-opacity="1" style="stop-color:rgb(0,0,0)"/><stop offset="100%" stop-opacity="1" style="stop-color:rgb(0,0,0)"/><stop offset="100%" stop-opacity="1" style="stop-color:rgb(0,0,0)"/></linearGradient><path d=" M 174.638 81.011 L 162.185 81.011 L 175.512 46.566 L 187.964 46.566 L 174.638 81.011 L 174.638 81.011 Z " fill="url(#_lgradient_71)"/><linearGradient id="_lgradient_72" x1="0" y1="0.5" x2="0.2811681430193663" y2="-0.45965852017842324" gradientTransform="matrix(30.003,0,0,45.368,192.88,35.643)" gradientUnits="userSpaceOnUse"><stop offset="0%" stop-opacity="1" style="stop-color:rgb(0,0,0)"/><stop offset="0%" stop-opacity="1" style="stop-color:rgb(0,0,0)"/><stop offset="0%" stop-opacity="1" style="stop-color:rgb(0,0,0)"/><stop offset="0%" stop-opacity="1" style="stop-color:rgb(0,0,0)"/></linearGradient><path d=" M 205.332 81.011 L 192.88 81.011 L 210.43 35.643 L 222.882 35.643 L 205.332 81.011 L 205.332 81.011 Z " fill="url(#_lgradient_72)"/><path d=" M 220.698 81.011 L 208.245 81.011 L 230.674 22.972 L 243.127 22.972 L 220.698 81.011 L 220.698 81.011 Z " fill="rgb(218,97,56)"/></g><path d=" M 341.967 123.592 C 344.328 114.844 339.243 105.817 330.537 103.304 C 321.832 100.791 312.718 105.718 310.053 114.378 C 307.388 123.039 312.156 132.237 320.769 135.053 C 329.381 137.868 338.661 133.262 341.627 124.699 L 341.797 124.16 L 341.967 123.592 Z " fill="rgb(255,255,255)"/><path d=" M 305.65 229.024 C 307.422 220.473 302.307 212.001 293.914 209.588 C 285.521 207.175 276.687 211.637 273.648 219.824 C 273.648 219.995 273.648 220.193 273.648 220.364 C 273.648 220.534 273.648 220.733 273.449 220.903 C 271.117 229.29 275.631 238.058 283.812 241.033 C 291.992 244.008 301.084 240.187 304.684 232.261 C 304.854 231.722 304.996 231.182 305.167 230.643 C 305.337 230.103 305.451 229.564 305.65 229.024 Z " fill="rgb(255,255,255)"/><path d=" M 322.63 170.672 C 322.63 161.466 315.167 154.003 305.962 154.003 C 296.756 154.003 289.294 161.466 289.294 170.672 L 289.294 171.836 C 289.294 181.041 296.756 188.504 305.962 188.504 C 315.167 188.504 322.63 181.041 322.63 171.836 L 322.63 170.672 Z " fill="rgb(255,255,255)"/><path d=" M 325.384 119.02 L 325.384 119.02 L 329.303 106.441 C 328.197 106.101 327.052 105.9 325.896 105.845 C 319.951 105.621 314.592 109.4 312.805 115.073 C 312.465 116.18 312.264 117.324 312.209 118.481 C 312.173 119.635 312.278 120.788 312.521 121.917 C 313.023 124.172 314.121 126.251 315.702 127.936 C 318.874 131.427 323.687 132.927 328.281 131.855 C 329.392 131.595 330.469 131.204 331.489 130.691 C 332.515 130.149 333.469 129.481 334.329 128.703 C 336.006 127.152 337.257 125.196 337.964 123.024 L 325.384 119.02 Z " fill="rgb(218,97,56)"/><path d=" M 306.189 171.211 L 306.189 171.211 L 306.189 158.036 C 303.884 158.053 301.624 158.67 299.63 159.825 C 298.588 160.386 297.632 161.094 296.79 161.926 C 293.446 165.245 292.138 170.103 293.365 174.653 C 294.592 179.203 298.165 182.745 302.725 183.932 C 304.954 184.556 307.311 184.556 309.54 183.932 C 310.65 183.645 311.719 183.216 312.72 182.654 L 306.189 171.211 Z " fill="rgb(218,97,56)"/><path d=" M 289.351 225.503 L 293.44 212.981 C 291.237 212.278 288.891 212.151 286.625 212.612 C 280.786 213.852 276.511 218.861 276.203 224.822 C 276.142 225.965 276.237 227.112 276.487 228.229 C 276.72 229.354 277.102 230.443 277.623 231.466 C 279.171 234.568 281.888 236.928 285.176 238.026 L 289.265 225.475 L 289.351 225.503 Z " fill="rgb(218,97,56)"/><g opacity="0.18"><path d=" M 168.045 171.268 L 184.94 124.87 L 255.276 124.87 L 236.904 172.517 L 168.045 171.268 L 168.045 171.268 Z " fill="rgb(218,97,56)"/></g><path d=" M 262.148 37.185 L 291.253 50.644 L 286.341 67.795 L 262.148 37.185 L 262.148 37.185 Z " fill="rgb(218,97,56)"/><path d=" M 262.148 37.185 L 307.495 37.185 L 293.695 45.618 L 262.148 37.185 L 262.148 37.185 Z " fill="rgb(218,97,56)"/><path d=" M 298.948 58.226 L 291.253 50.644 L 262.148 37.185 L 293.695 45.618 L 298.948 58.226 L 298.948 58.226 Z " fill="rgb(218,97,56)"/><linearGradient id="_lgradient_73" x1="0" y1="0.5" x2="0.016285340859923617" y2="1.4998673850431747" gradientTransform="matrix(36.801,0,0,21.041,262.148,37.185)" gradientUnits="userSpaceOnUse"><stop offset="100%" stop-opacity="1" style="stop-color:rgb(0,0,0)"/><stop offset="100%" stop-opacity="1" style="stop-color:rgb(0,0,0)"/><stop offset="100%" stop-opacity="1" style="stop-color:rgb(0,0,0)"/><stop offset="100%" stop-opacity="1" style="stop-color:rgb(0,0,0)"/></linearGradient><path d=" M 298.948 58.226 L 291.253 50.644 L 262.148 37.185 L 293.695 45.618 L 298.948 58.226 L 298.948 58.226 Z " fill="url(#_lgradient_73)"/><path d=" M 298.948 58.226 L 291.253 50.644 L 262.148 37.185 L 298.948 58.226 L 298.948 58.226 Z " fill="rgb(218,97,56)"/><g><path d=" M 118.281 87.08 C 118.118 87.7 117.761 88.253 117.262 88.657 C 116.549 89.058 115.747 89.273 114.929 89.282 C 114.061 89.344 113.224 89.626 112.497 90.103 C 112.298 90.496 112.298 90.96 112.497 91.352 L 113.45 96.677 C 113.581 97.094 113.581 97.541 113.45 97.959 C 113.183 98.402 112.741 98.712 112.234 98.813 C 110.327 99.569 107.961 100.226 106.449 98.813 C 105.724 98.008 105.235 97.019 105.036 95.954 C 103.061 89.985 102.062 83.737 102.078 77.45 C 101.973 73.603 103.558 69.904 106.416 67.327 C 109.139 65.416 112.498 64.638 115.783 65.158 C 117.269 65.334 118.573 66.231 119.267 67.557 C 119.694 68.51 119.267 69.43 119.267 70.449 C 119.249 71.945 119.348 73.439 119.563 74.919 C 119.703 75.607 119.879 76.287 120.089 76.957 C 120.343 77.522 120.52 78.119 120.615 78.732 C 120.562 79.887 120.235 81.014 119.662 82.018 C 119.139 83.215 118.732 84.458 118.446 85.732 C 118.435 86.186 118.38 86.637 118.281 87.08 L 118.281 87.08 Z " fill="rgb(253,185,169)"/><path d=" M 122.554 126.52 C 122.554 126.52 129.127 133.553 134.649 133.553 C 134.649 133.553 164.524 110.546 164.524 110.546 C 167.168 109.292 169.186 107.013 170.112 104.236 C 170.342 103.283 170.276 102.297 170.44 101.344 C 170.868 99.42 171.735 97.62 172.971 96.085 C 173.392 95.661 173.597 95.068 173.53 94.475 C 173.333 93.752 172.478 93.522 171.755 93.39 C 169.475 92.723 167.028 92.922 164.886 93.949 C 163.371 95.188 162.317 96.902 161.895 98.813 C 161.242 97.871 160.328 97.14 159.266 96.71 C 158.604 97.094 158.313 97.897 158.576 98.616 C 158.821 99.311 159.106 99.992 159.43 100.654 C 159.881 103.197 158.801 105.769 156.669 107.227 C 155.396 108.213 154.044 109.092 152.627 109.856 L 137.705 118.566 C 136.193 119.453 134.419 120.374 132.775 119.552 C 132.019 119.158 131.494 118.402 130.672 118.04 C 129.374 117.757 128.024 118.182 127.122 119.158 C 125.134 121.29 123.582 123.791 122.554 126.52 Z " fill="rgb(253,185,169)"/><path d=" M 63.098 223.871 C 62.615 227.89 60.392 231.494 57.018 233.731 C 50.905 236.59 43.049 237.313 36.476 238.726 C 32.499 239.614 28.522 240.501 24.611 241.553 C 21.325 242.44 17.808 242.342 15.573 245.234 C 14.225 246.943 13.338 249.375 11.235 249.868 C 9.694 250.109 8.157 249.412 7.323 248.093 C 6.529 246.768 6.077 245.266 6.009 243.722 C 5.911 243.146 5.911 242.557 6.009 241.98 C 6.183 241.368 6.498 240.805 6.929 240.337 C 9.185 238.282 11.919 236.824 14.883 236.097 C 17.432 235.201 19.905 234.102 22.278 232.81 C 24.223 231.853 26.246 231.061 28.325 230.444 L 40.322 226.073 C 43.148 225.054 47.388 224.659 48.472 221.438 C 48.88 219.86 49.089 218.237 49.097 216.607 C 49.328 213.376 50.319 210.246 51.989 207.47 C 52.192 207.005 52.523 206.606 52.942 206.32 C 53.437 206.053 53.991 205.917 54.553 205.925 C 56.085 205.743 57.638 205.924 59.088 206.451 C 60.992 207.373 62.447 209.018 63.131 211.02 C 63.763 213.015 64.009 215.112 63.854 217.199 C 63.795 219.44 63.542 221.673 63.098 223.871 L 63.098 223.871 Z " fill="rgb(253,185,169)"/><path d=" M 9.098 239.055 C 8.901 239.909 8.244 240.6 8.014 241.454 C 7.882 242.149 7.882 242.863 8.014 243.558 L 8.638 246.844 C 8.668 247.543 8.993 248.196 9.532 248.641 C 10.071 249.086 10.773 249.281 11.465 249.178 C 11.743 249.198 11.996 249.343 12.155 249.572 C 12.22 249.753 12.22 249.95 12.155 250.131 L 11.235 254.305 C 10.856 256.054 10.249 257.745 9.427 259.334 C 9.168 259.402 8.897 259.402 8.638 259.334 C 6.535 259.334 5.713 254.009 4.957 252.004 C 4.333 249.974 4.164 247.83 4.464 245.727 C 4.464 244.577 4.661 243.459 4.826 242.44 C 4.837 241.316 5.048 240.203 5.45 239.154 C 5.72 238.627 6.272 238.306 6.863 238.332 C 7.521 238.365 9.328 238.102 9.098 239.055 Z " fill="rgb(218,97,56)"/><path d=" M 98.2 224.495 C 100.522 227.878 101.198 232.127 100.04 236.064 C 97.247 242.177 91.725 247.863 87.682 253.188 C 85.184 256.474 82.752 259.761 80.419 263.048 C 78.513 265.841 75.785 268.043 75.949 271.692 C 75.949 273.861 76.935 276.293 75.653 278.035 C 74.629 279.215 73.005 279.679 71.512 279.218 C 70.056 278.726 68.745 277.879 67.699 276.753 C 67.266 276.366 66.9 275.911 66.615 275.405 C 66.348 274.818 66.224 274.176 66.253 273.532 C 66.618 270.504 67.749 267.619 69.54 265.151 C 70.84 262.782 71.939 260.308 72.827 257.756 C 73.68 255.749 74.714 253.824 75.916 252.004 L 82.194 240.895 C 83.705 238.299 86.696 235.242 85.48 232.087 C 84.768 230.622 83.874 229.253 82.818 228.012 C 80.909 225.403 79.627 222.389 79.071 219.204 C 78.973 218.704 78.973 218.191 79.071 217.692 C 79.269 217.169 79.597 216.705 80.024 216.344 C 81.093 215.215 82.41 214.348 83.87 213.813 C 85.907 213.265 88.08 213.573 89.884 214.668 C 91.668 215.757 93.221 217.187 94.453 218.875 C 95.859 220.638 97.113 222.519 98.2 224.495 L 98.2 224.495 Z " fill="rgb(253,185,169)"/><path d=" M 66.976 271.067 C 67.371 271.856 67.338 272.809 67.732 273.598 C 68.099 274.201 68.592 274.717 69.178 275.11 L 71.709 277.18 C 72.004 277.437 72.337 277.648 72.695 277.805 C 73.645 277.96 74.618 277.723 75.39 277.147 C 75.538 276.967 75.774 276.884 76.002 276.933 C 76.231 276.981 76.413 277.153 76.475 277.377 L 78.48 281.19 C 79.341 282.748 79.983 284.418 80.386 286.153 C 80.267 286.403 80.086 286.618 79.86 286.777 C 78.217 288.125 74.174 284.608 72.334 283.491 C 70.523 282.423 68.965 280.977 67.765 279.251 C 67.108 278.331 66.483 277.377 65.859 276.457 C 65.184 275.618 64.651 274.675 64.281 273.664 C 64.145 273.064 64.362 272.439 64.84 272.053 C 65.267 271.56 66.483 270.213 66.976 271.067 Z " fill="rgb(218,97,56)"/><path d=" M 130.803 118.204 C 130.674 118.638 130.409 119.018 130.047 119.289 C 127.55 121.688 125.019 124.022 122.554 126.421 C 121.759 127.182 120.901 127.874 119.99 128.492 C 119.169 128.985 118.281 129.313 117.46 129.806 C 117.181 129.982 116.917 130.18 116.671 130.398 C 114.929 131.997 113.579 133.977 112.727 136.182 C 112.102 137.53 111.511 138.943 111.018 140.357 C 109.701 144.029 108.722 147.813 108.093 151.663 C 104.313 173.618 109.243 196 111.806 218.02 C 112.135 220.452 112.365 222.885 112.562 225.317 C 112.562 226.336 112.76 227.387 112.825 228.439 C 112.996 229.37 112.846 230.332 112.398 231.167 C 111.872 231.784 111.174 232.23 110.393 232.449 C 99.284 236.952 86.762 240.501 75.489 236.491 C 68.192 233.895 62.342 228.439 55.966 224.035 C 49.59 219.631 41.636 216.213 34.175 218.382 C 34.262 213.006 36.254 207.835 39.796 203.789 C 41.006 202.19 42.335 200.685 43.773 199.286 L 46.731 196.361 C 56.591 186.731 65.037 178.416 70.329 164.908 C 72.465 159.419 72.892 152.977 76.508 148.179 C 79.794 144.07 82.325 143.643 83.081 138.122 C 84.07 131.219 85.642 124.414 87.781 117.777 C 89.754 111.761 92.867 106.182 96.951 101.344 C 98.704 99.102 100.841 97.188 103.261 95.691 C 105.704 94.181 108.605 93.587 111.445 94.015 C 114.307 94.495 116.698 96.46 117.722 99.175 C 120.253 106.635 126.826 109.889 130.409 116.955 C 130.686 117.311 130.826 117.754 130.803 118.204 Z " fill="rgb(218,97,56)"/><path d=" M 121.239 64.829 C 120.703 67.172 119.022 69.087 116.769 69.923 C 111.675 71.928 104.642 71.107 106.055 78.37 C 107.426 83.696 106.987 89.327 104.806 94.376 C 103.391 96.23 102.403 98.373 101.914 100.654 C 101.946 101.661 102.078 102.663 102.308 103.645 C 103.827 112.485 97.976 120.911 89.161 122.576 C 88.533 122.701 87.895 122.778 87.255 122.806 C 85.332 122.666 83.404 122.993 81.635 123.759 C 80.037 125.102 78.889 126.903 78.348 128.919 C 77.664 131.04 76.372 132.914 74.634 134.309 C 71.118 136.675 66.418 135.229 62.474 133.619 C 59.491 132.559 56.688 131.052 54.158 129.149 C 51.609 127.207 49.988 124.287 49.689 121.097 C 49.984 119.045 49.951 116.959 49.59 114.918 C 48.889 113.77 48.109 112.672 47.256 111.631 C 45.737 108.01 46.119 103.87 48.275 100.588 C 48.634 100.019 48.869 99.38 48.965 98.715 C 48.914 98.069 48.759 97.437 48.505 96.841 C 47.742 92.333 50.026 87.857 54.126 85.831 C 58.167 83.977 62.431 82.651 66.812 81.887 C 73.372 80.218 78.751 75.534 81.306 69.266 C 83.837 63.876 85.973 57.993 91.758 55.298 C 100.721 51.857 110.801 53.024 118.741 58.42 C 120.858 59.803 121.862 62.378 121.239 64.829 Z " fill="rgb(71,63,71)"/><linearGradient id="_lgradient_74" x1="-1.9995802274524621" y1="0.3154421469423663" x2="3.7130356812840626" y2="1.5770110820667562" gradientTransform="matrix(24.434,0,0,74.706,95.556,118.204)" gradientUnits="userSpaceOnUse"><stop offset="0%" stop-opacity="1" style="stop-color:rgb(0,0,0)"/><stop offset="0%" stop-opacity="1" style="stop-color:rgb(0,0,0)"/><stop offset="0%" stop-opacity="1" style="stop-color:rgb(0,0,0)"/><stop offset="100%" stop-opacity="1" style="stop-color:rgb(0,0,0)"/></linearGradient><path d=" M 119.99 128.59 C 119.169 129.083 118.281 129.412 117.46 129.905 C 117.176 130.073 116.911 130.271 116.671 130.497 C 113.806 133.114 111.829 136.561 111.018 140.357 C 109.702 144.042 108.712 147.837 108.06 151.695 C 106.572 161.693 106.274 171.832 107.172 181.9 C 107.641 185.565 107.53 189.28 106.844 192.91 C 102.479 187.765 99.704 181.462 98.857 174.768 C 98.397 171.12 98.528 167.373 97.772 163.758 C 97.181 161.161 96.129 158.663 95.702 156.034 C 95.718 155.903 95.718 155.77 95.702 155.639 C 95.012 150.907 96.852 150.217 99.514 147.489 C 102.109 144.664 104.04 141.295 105.167 137.629 Q 108.454 127.769 112.037 118.204 C 111.544 119.946 117.953 125.336 119.99 128.59 Z " fill="url(#_lgradient_74)"/><g opacity="0.38"><path d=" M 112.595 225.415 C 101.223 228.873 89.037 228.562 77.855 224.528 C 73.639 223.107 69.742 220.874 66.385 217.955 C 65.103 216.771 63.953 215.457 62.638 214.339 C 60.635 212.699 58.425 211.329 56.065 210.264 C 50.97 207.832 45.646 206.287 40.486 204.183 L 39.927 203.953 C 41.147 202.362 42.476 200.858 43.904 199.451 L 46.895 196.526 L 47.552 196.526 C 50.846 196.974 54.064 197.87 57.116 199.188 C 61.992 201.981 66.602 205.216 70.888 208.851 C 75.198 211.747 79.75 214.265 84.494 216.377 C 87.484 217.913 90.652 219.072 93.927 219.828 C 97.195 220.278 100.504 220.344 103.787 220.025 C 106.594 220.09 109.37 219.422 111.839 218.086 C 112.135 220.551 112.365 222.95 112.595 225.415 Z " fill="rgb(255,255,255)"/></g></g></g></g></svg>