<?xml version="1.0" encoding="utf-8"?>
<!-- Generator: Adobe Illustrator 24.0.1, SVG Export Plug-In . SVG Version: 6.00 Build 0)  -->
<svg version="1.1" id="Layer_1" xmlns="http://www.w3.org/2000/svg" xmlns:xlink="http://www.w3.org/1999/xlink" x="0px" y="0px"
	 viewBox="0 0 400 300" style="enable-background:new 0 0 400 300;" xml:space="preserve">
<style type="text/css">
	.st0{clip-path:url(#SVGID_2_);}
	.st1{fill:#282B4E;}
	.st2{fill:#775434;}
	.st3{fill:#392B1E;}
	.st4{fill:url(#SVGID_3_);}
	.st5{fill:#6F6F6F;}
	.st6{fill:#FFFFFF;}
	.st7{fill:url(#SVGID_4_);}
	.st8{fill:url(#SVGID_5_);}
	.st9{fill:url(#SVGID_6_);}
	.st10{fill:url(#SVGID_7_);}
	.st11{fill:url(#SVGID_8_);}
	.st12{fill:url(#SVGID_9_);}
	.st13{fill:#DA6138;}
	.st14{fill:#FF912E;}
	.st15{fill:#E0944F;}
	.st16{fill:#FFB92C;}
	.st17{fill:#EA8B24;}
	.st18{fill:#F7931E;}
</style>
<g>
	<defs>
		<rect id="SVGID_1_" width="400" height="300"/>
	</defs>
	<clipPath id="SVGID_2_">
		<use xlink:href="#SVGID_1_"  style="overflow:visible;"/>
	</clipPath>
	<g class="st0">
		<path class="st1" d="M206.3,47.7c-61.5-8.3-147.1-2.9-185.6,54.3c-9.2,13.6-13.9,30.9-10.1,46.9c8.6,36.3,53.8,62,84.9,76.5
			c37.2,17.4,77.9,26.4,118.8,28.8c40.2,2.3,82.7,1.9,120.9-12.6c27.6-10.5,52-30.6,56.9-61.1c8.8-55.1-50.7-91.6-94.1-108.9
			C268.3,60.1,237.6,52,206.3,47.7L206.3,47.7z"/>
		<path class="st2" d="M138.8,119c3-6.4,4.9-13.2,8.2-19.4c6.6-12.3,18.5-21.4,23.1-34.6c5.5,2.2,7.3,9.2,6.7,15
			c-0.6,5.9-2.9,11.6-2.6,17.4c15.5-12.8,35.1-19.5,55.2-19.1c4.8,0.1,10.1,0.9,13.5,4.3c2.4,2.4,3.5,5.7,4.5,9
			c2.6,8.2,5.2,16.9,3.5,25.3c-0.5,2.6-1.5,5.2-1.2,7.8c0.3,3.6,2.8,7.3,1.3,10.6c-0.6,1.2-1.6,2.2-2.1,3.5
			c-0.8,2.4,0.8,4.8,1.1,7.3c0.7,5-3.7,9.1-8.1,11.6c-13,7.3-28.3,8.7-42.4,13.6c-45.2,15.9-62.3,6.4-62.8,4.8
			c-3.5-10.9-10.8-24.6-11.6-36C124.4,132.4,135.5,126.1,138.8,119z"/>
		<path class="st3" d="M162.3,153.4c-2.2,3.6,3,7.9,5.2,11.6c1.1,1.9,2.3,3.7,4.3,4.7c1.7,0.8,3.7,0.8,5.6,0.7
			c3.8-0.2,7.8-0.4,11.2-2.1c5.2-2.7,8.1-8.5,10.3-13.9c6.5-16.1,10.4-34.2,5.1-50.8c-1.5-4.8-4.2-9.7-8.9-11.5
			c-4.5-1.8-9.6-0.2-14.1,1.7c-2.6,1.1-7.5,2.4-9,5C170.6,101,177.5,128.6,162.3,153.4z"/>
		<linearGradient id="SVGID_3_" gradientUnits="userSpaceOnUse" x1="-2.0846" y1="196.2265" x2="140.7668" y2="196.2265">
			<stop  offset="0" style="stop-color:#F5524E"/>
			<stop  offset="1" style="stop-color:#D0342F"/>
		</linearGradient>
		<path class="st4" d="M140.4,191.8c-0.6,1-1.6,1.9-2.7,2.4c-20.1,11.9-77.3,38.3-95.1,53.4c-6.4,5.4-12.8,11.1-20.2,14.9
			c-1.9-2.3-3.6-4.7-5.3-7.2c-2.5-3.7-0.1-0.1-0.1-0.1c-16.7-24.2-24.3-53.3-15-80.6c6-0.6,18.1-9.3,22.8-11.4
			c17.1-7.9,72.9-27.3,91-32.6c1.5-0.5,3.3-0.9,4.8-0.2c1.1,0.7,2,1.8,2.6,3c7.6,13.4,13,27.9,15.8,43c0.8,4,1.4,8,1.8,12
			C140.9,189.5,140.8,190.7,140.4,191.8z"/>
		<path class="st5" d="M181.9,48.8h52.1c5.4,0,9.8,4.4,9.8,9.8v110.1c0,5.4-4.4,9.8-9.8,9.8h-52.1c-5.4,0-9.8-4.4-9.8-9.8V58.6
			C172.2,53.2,176.6,48.8,181.9,48.8z"/>
		<rect x="175.8" y="57" class="st6" width="64.4" height="108.1"/>
		<circle vector-effect="non-scaling-stroke" class="st1" cx="206.7" cy="86.5" r="21"/>
		<linearGradient id="SVGID_4_" gradientUnits="userSpaceOnUse" x1="183.52" y1="142.66" x2="228.68" y2="142.66">
			<stop  offset="0" style="stop-color:#F5524E"/>
			<stop  offset="1" style="stop-color:#D0342F"/>
		</linearGradient>
		<path class="st7" d="M186.9,135.5h38.4c1.9,0,3.4,1.5,3.4,3.4v7.7c0,1.9-1.5,3.4-3.4,3.4h-38.4c-1.9,0-3.4-1.5-3.4-3.4v-7.7
			C183.5,137,185,135.5,186.9,135.5z"/>
		<path class="st6" d="M190.1,144.4c0,0.3,0,0.6,0,0.9h-1.3c0-0.3,0.1-0.6,0-0.9v-3h-0.7c-0.4,0-0.5,0-0.9,0v-1.1c0.3,0,0.6,0,0.9,0
			h2.6c0.3,0,0.6,0,0.9,0v1.1c-0.3,0-0.6,0-0.9,0h-0.7L190.1,144.4z"/>
		<path class="st6" d="M195.2,145.3c-0.1-0.3-0.2-0.6-0.3-0.9c-0.2-0.5-0.3-0.7-0.4-0.8c-0.1-0.1-0.3-0.2-0.5-0.2h-0.6v1
			c0,0.3,0,0.6,0,0.9h-1.3c0-0.3,0.1-0.6,0.1-0.9v-3.2c0-0.3,0-0.6-0.1-0.9h0.9h1.6c0.9,0,1.5,0.5,1.5,1.4c0,0.4-0.1,0.7-0.4,1
			c-0.2,0.1-0.4,0.2-0.6,0.3c0.3,0.1,0.4,0.2,0.6,0.7c0.1,0.2,0.2,0.4,0.4,1c0.1,0.2,0.1,0.3,0.3,0.6L195.2,145.3z M194.3,142.4
			c0.2,0,0.3,0,0.4-0.1c0.1-0.1,0.2-0.3,0.2-0.4c0-0.3-0.2-0.5-0.6-0.5h-0.9v1.1H194.3z"/>
		<path class="st6" d="M200.4,145.3c0-0.2-0.1-0.4-0.1-0.6l-0.2-0.5h-1.7l-0.2,0.5c-0.1,0.2-0.1,0.4-0.1,0.6h-1.4
			c0.1-0.2,0.2-0.5,0.3-0.7l1.3-3.6c0.1-0.2,0.2-0.4,0.2-0.6h1.6c0.1,0.2,0.1,0.4,0.2,0.6l1.3,3.6c0.1,0.3,0.2,0.6,0.3,0.7H200.4z
			 M199.3,141.4l-0.6,1.8h1.1L199.3,141.4z"/>
		<path class="st6" d="M205.1,142.8c0.2,0.2,0.3,0.5,0.4,0.7c0-0.3,0-0.5,0-0.9v-1.4c0-0.3,0-0.6-0.1-0.9h1.3c0,0.3-0.1,0.6,0,0.9
			v3.2c0,0.3,0,0.6,0,0.9h-1.3c-0.1-0.3-0.3-0.5-0.4-0.8l-1.1-1.7c-0.2-0.2-0.3-0.5-0.4-0.7c0,0.3,0.1,0.6,0,0.9v1.3
			c0,0.3,0,0.6,0,0.9h-1.3c0-0.3,0-0.6,0-0.9v-3.1c0-0.3,0-0.6,0-0.9h1.3c0.1,0.3,0.2,0.5,0.4,0.7L205.1,142.8z"/>
		<path class="st6" d="M208.5,143.7c0,0.2,0.1,0.3,0.1,0.4c0.2,0.2,0.4,0.3,0.7,0.3c0.5,0,0.7-0.2,0.7-0.5c0-0.2-0.1-0.3-0.2-0.4
			c-0.3-0.1-0.6-0.2-0.9-0.2c-0.3-0.1-0.6-0.2-0.9-0.3c-0.4-0.3-0.6-0.7-0.6-1.1c0-0.9,0.7-1.5,1.9-1.5c0.6-0.1,1.2,0.2,1.7,0.7
			c0.2,0.2,0.3,0.5,0.3,0.7l-1.3,0.1c-0.1-0.4-0.3-0.6-0.7-0.6c-0.5,0-0.6,0.2-0.6,0.5c0,0.2,0.1,0.3,0.3,0.4
			c0.3,0.1,0.5,0.2,0.8,0.2c0.3,0.1,0.6,0.2,0.9,0.3c0.4,0.3,0.7,0.7,0.6,1.2c0,0.4-0.1,0.8-0.4,1.1c-0.4,0.4-1,0.5-1.6,0.5
			c-0.5,0-0.9-0.1-1.3-0.3c-0.3-0.2-0.5-0.4-0.6-0.8c-0.1-0.2-0.1-0.4-0.1-0.6L208.5,143.7z"/>
		<path class="st6" d="M213.3,144.3c0,0.3,0,0.7,0,1H212c0-0.3,0.1-0.7,0.1-1v-3.1c0-0.3,0-0.6,0-0.9c0.2,0,0.4,0,0.9,0h1.7
			c0.3,0,0.7,0,1,0v1.1c-0.3,0-0.7-0.1-1,0h-1.4v1h1.1c0.3,0,0.6,0,0.9,0v1.1c-0.3,0-0.6,0-0.9,0h-1.1L213.3,144.3z"/>
		<path class="st6" d="M219.9,145.4c-0.3,0-0.7,0-1,0h-1.9c-0.5,0-0.6,0-0.9,0c0-0.3,0-0.6,0-0.9v-3.3c0-0.3,0-0.6,0-0.9
			c0.2,0,0.4,0,0.9,0h1.9c0.3,0,0.6,0,0.9,0v1.1c-0.3,0-0.6,0-0.9,0h-1.6v0.9h1.3c0.4,0,0.5,0,0.9,0v1.1c-0.3,0-0.6,0-0.9,0h-1.3v1
			h1.5c0.3,0,0.6,0,1,0L219.9,145.4z"/>
		<path class="st6" d="M223.5,145.3c-0.1-0.3-0.2-0.6-0.3-0.9c-0.2-0.5-0.3-0.7-0.4-0.8c-0.1-0.1-0.3-0.2-0.5-0.2h-0.6v1
			c0,0.3,0,0.6,0,0.9h-1.3c0-0.3,0.1-0.6,0.1-0.9v-3.2c0-0.3,0-0.6-0.1-0.9h0.9h1.5c1,0,1.5,0.5,1.5,1.4c0,0.4-0.1,0.7-0.4,1
			c-0.2,0.1-0.4,0.2-0.6,0.3c0.3,0.1,0.4,0.2,0.6,0.7c0.1,0.2,0.2,0.4,0.4,1c0.1,0.2,0.1,0.3,0.3,0.6L223.5,145.3z M222.7,142.4
			c0.2,0,0.3,0,0.4-0.1c0.1-0.1,0.2-0.3,0.2-0.4c0-0.3-0.2-0.5-0.6-0.5h-0.9v1.1H222.7z"/>
		
			<linearGradient id="SVGID_5_" gradientUnits="userSpaceOnUse" x1="0.186" y1="299.7717" x2="1.0112" y2="299.2069" gradientTransform="matrix(29.404 0 0 -92.146 214.713 27731.0938)">
			<stop  offset="1" style="stop-color:#010101;stop-opacity:0"/>
			<stop  offset="1" style="stop-color:#010101;stop-opacity:7.316547e-03"/>
		</linearGradient>
		<path class="st8" d="M228.1,120.7c0.7,1.1,1.9,1.9,2.3,3.2c0.7,2.3-1.5,4.4-2,6.8c-0.9,3.7,2.4,7.2,2.1,10.9
			c-0.2,2.8-2.5,5.5-1.9,8.2c-2.8-4.1-9.8-2.3-12.2,1.9c-2.5,4.3-1.8,9.6-0.9,14.4c0.9,5.1,2.6,10.9,7.4,12.7
			c3.6,1.3,7.6-0.2,11.2-1.8c-1.7-6.4-3.3-12.7-4.7-19.2c4.3-0.1,8.5,1,12.3,3c1.5-4.8,1.6-10,1.6-15l0-34.7V93.4
			c0-3.6,2.2-3.8-0.4-6.1c-3.4,5.6-13.8,2.7-14.4,9.3c-0.4,4.5,2.8,7.8,1.7,12.5C229.4,112.7,225.7,116.9,228.1,120.7z"/>
		<path class="st2" d="M305.6,274.6c-0.4,0.6-1,1-1.6,1.3c-5.6,3.3-11.6,6.7-18.2,6.7c-9.6-0.1-11,8-17.5,1
			c-8.6-9.3-25.7-28.4-33.6-38.2c-6.8-8.3-9.1-16.7-9.8-27.5c-0.3-3.5-0.5-7.2,0.8-10.5c0.7-1.9,4.3-9.4,5.2-11.2
			c0.2-0.4,0.4-0.9,0.5-1.3c1.5-4.3,0.8-8.9-0.8-13.4l0,0c-1-2.7-2.2-5.3-3.7-7.8c-4-6.9-9-13.7-9.6-21.6c-0.1-2,0.1-4.2,1.4-5.8
			c1.9-2.5,5.8-2.6,8.6-1.1c2.8,1.5,4.7,4,6.5,6.6c5,7.2,9.7,14.6,14,22.2c2.4-3.1,6.7-4.3,10.5-3.5c3.8,0.8,7.1,3.4,9.5,6.4
			c1.6,2.1,3,4.4,5.3,5.6c1.9,1,4,1,6,1.6c7.2,2.1,10.3,10.2,13.7,16.9c2.5,5,5.6,9.7,7.4,14.9c1.7,5,2.2,10.3,2.4,15.6
			c0.6,13.1-0.3,26.5,3.2,39.2C306,272.1,306.3,273.6,305.6,274.6z"/>
		
			<linearGradient id="SVGID_6_" gradientUnits="userSpaceOnUse" x1="0.1106" y1="299.746" x2="1.0227" y2="299.3361" gradientTransform="matrix(54.315 0 0 -20.823 251.448 6511.1699)">
			<stop  offset="1" style="stop-color:#010101;stop-opacity:0"/>
			<stop  offset="1" style="stop-color:#010101;stop-opacity:1.085635e-02"/>
		</linearGradient>
		<path class="st9" d="M251.4,264.7c3.6,3.6,11.4,12.9,15,16.5c1.6,1.6,3.3,3.3,5.6,3.9c1.9,0.5-0.4-5.5,1.5-5.8
			c9.1-1.5,23.8-4,32.3-7.7l-1.5-6.8c-2.9-1.5-15,0.8-18.5,1c-5.9,0.3-11.7,0.3-17.6,0.1C265.2,265.8,253.6,266.8,251.4,264.7z"/>
		<linearGradient id="SVGID_7_" gradientUnits="userSpaceOnUse" x1="254.7094" y1="280.182" x2="330" y2="280.182">
			<stop  offset="0" style="stop-color:#F5524E"/>
			<stop  offset="1" style="stop-color:#D0342F"/>
		</linearGradient>
		<path class="st10" d="M330,290c-0.1,0.1-64.3,0.8-70.9,4c-10-25.5,0-11.8,0-11.8l5.3-1.6l48.4-14.2L330,290z"/>
		<path class="st2" d="M179.9,86.8c1.8-5,1.6-10.4,0.4-15.5c-0.8-3.4-2.1-6.8-4.6-9.3c-0.6-0.7-1.4-1.1-2.3-1.2
			c-1.7,0-2.7,1.9-3.3,3.4c-2.4,6.7-4.6,13.4-6.6,20.2c-1.1,3.1-1.6,6.4-1.7,9.8c0.2,5.7,3.3,10.1,8.4,5.6
			C174.3,96.3,178.1,91.8,179.9,86.8z"/>
		<path class="st2" d="M234.6,84.1c-3,1.1-5.6,3.9-5.4,7c0.1,2.6,2,4.9,4.2,6.2c2.3,1.2,4.8,2,7.4,2.3c-4.5,0.7-8.5,3.6-10.6,7.7
			c-1.5,2.9-1.7,6.8,0.6,9.2c0.8,0.8,1.8,1.4,2.9,1.9c1.8,0.8,3.8,1.2,5.8,1.3c-4.5-0.2-8.9,3.5-9.1,8c-0.2,4.5,4.1,8.7,8.5,8.1
			c-3.4-0.5-6.8,2-7.6,5.3c-0.7,3.4,0.6,6.9,3.4,9.1c2.8,2,6.3,2.8,9.7,2.2c1.7-0.3,3.5-0.9,4.4-2.4s0.7-3.3,0.5-5
			c-2.2-18.9,5.3-37.7,0.6-56.3c-0.6-2.4-4.8-4.3-7.2-5C240,83,237.2,83.2,234.6,84.1L234.6,84.1z"/>
		
			<linearGradient id="SVGID_8_" gradientUnits="userSpaceOnUse" x1="0.3925" y1="299.7496" x2="0.9291" y2="298.9057" gradientTransform="matrix(134.206 0 0 -86.332 6.565 26075.7637)">
			<stop  offset="1" style="stop-color:#010101;stop-opacity:0"/>
			<stop  offset="1" style="stop-color:#010101;stop-opacity:7.495240e-03"/>
		</linearGradient>
		<path class="st11" d="M140.4,191.8c-0.6,1-1.6,1.9-2.7,2.4c-20.1,11.9-77.3,38.3-95.1,53.4c-6.4,5.4-12.8,11.1-20.2,14.9
			c-2-2.2-3.8-4.6-5.3-7.2c0,0-0.1-0.1-0.1-0.1c-3.8-6.2-7.2-12.7-10.4-19.3c20.5,2.3,130-59.7,130-59.7c0.8-0.1,1.5,0,2.3,0.1
			c0.8,4,1.4,8,1.8,12C140.9,189.5,140.8,190.7,140.4,191.8L140.4,191.8z"/>
		
			<linearGradient id="SVGID_9_" gradientUnits="userSpaceOnUse" x1="0.2646" y1="299.2881" x2="0.8897" y2="300.0686" gradientTransform="matrix(38.025 0 0 -76.382 259.14 23194.1074)">
			<stop  offset="0" style="stop-color:#010101;stop-opacity:0"/>
			<stop  offset="1" style="stop-color:#000000"/>
		</linearGradient>
		<path class="st12" d="M297.2,340.7l-3.7,3.2c-5.5,4.8-11.6,8.8-18.2,12c-10-25.5-16.2-73.7-16.2-73.7l5.3-1.6
			c2.2-0.5,4.5-0.9,6.8-1.1c4,8.9,8,17.8,11.2,27c1.9,5.6,3.6,11.2,5.7,16.7c2.1,5.5,5.2,9.8,8.2,14.8
			C296.8,338.8,297.1,339.7,297.2,340.7z"/>
		<path class="st1" d="M242.1,215.9c0.1,0.8-0.1,1.6-0.6,2.3c-1.1,1.1-2.9,0.3-4.1-0.6c-2.9-2-6.1-4.3-6.8-7.7
			c-0.2-1.7-0.1-3.4,0.2-5c0.4-2.8,0.7-5.7,0.8-8.5c0-0.5-0.1-1-0.2-1.5c1.5-4.3,0.8-8.9-0.8-13.4c3.5,6.8,7.5,17.1,8.2,19
			C240.8,205.4,241.9,210.6,242.1,215.9z"/>
		<path class="st1" d="M199.6,119.4h10.7l-2-2.9h2.4l3.9,4.7h-14.8L199.6,119.4L199.6,119.4z"/>
		<path class="st1" d="M214.7,124.6H204l2,2.9h-2.4l-3.9-4.7h14.8L214.7,124.6L214.7,124.6z"/>
		<path class="st13" d="M206,100v-3.2c-1.7,0-3.5-0.5-4.9-1.4l0.8-2.2c1.4,0.9,3,1.4,4.6,1.4c2.3,0,3.9-1.3,3.9-3.2
			c0-1.8-1.3-2.9-3.7-3.9c-3.3-1.3-5.3-2.8-5.3-5.6s1.9-4.7,4.9-5.2v-3.3h2v3.1c1.5,0,2.9,0.4,4.2,1.1l-0.8,2.1
			c-1.2-0.7-2.6-1.1-4.1-1.1c-2.5,0-3.4,1.5-3.4,2.8c0,1.7,1.2,2.5,4,3.7c3.3,1.4,5,3,5,5.9c0,2.6-1.8,4.9-5.1,5.5v3.4L206,100z"/>
		<g>
			<ellipse vector-effect="non-scaling-stroke" class="st14" cx="309.7" cy="135.3" rx="39.8" ry="23.3"/>
			<path class="st15" d="M349.5,128.6v6.7h-5.1l3.7-5.4L349.5,128.6L349.5,128.6z"/>
			<ellipse vector-effect="non-scaling-stroke" class="st16" cx="309.7" cy="128.6" rx="39.8" ry="23.3"/>
			<path class="st17" d="M329.9,125.5c0.3,0.5,0.4,1.2,0.3,1.8l-0.2,0.6h-7.3c0.1-0.2,0.1-0.4,0.1-0.6c0-0.5-0.2-0.9-0.4-1.3
				c-0.4-0.7-1-1.3-1.7-1.6c-1.1-0.6-2.2-0.9-3.4-0.9c-1.1-0.1-2.2,0.1-3.2,0.5c-1,0.4-1.4,1-1.2,1.7c0.3,0.9,0.9,1.6,1.6,2.3
				c0.8,0.8,1.5,1.6,2.2,2.5c0.7,0.8,0.8,1.9,0.4,2.8c-0.8,1.3-2.1,2.3-3.5,2.7c-2.4,1-5.1,1.6-7.7,1.6c-2.9,0.1-5.7-0.3-8.4-1.2
				l-4.2,1.8l-4.9-2.4l4.1-1.7c-0.7-0.5-1.4-1.1-2-1.7c-0.4-0.5-0.7-1-1-1.6c-0.1-0.4-0.2-0.9-0.3-1.3c-0.1-0.3-0.1-0.6,0-0.9
				l0.1-0.4h7.3c-0.1,0.2-0.1,0.5-0.2,0.7c0,0.6,0.2,1.2,0.6,1.6c0.6,0.9,1.4,1.6,2.4,2c1.3,0.7,2.8,1,4.2,1.1
				c1.3,0.1,2.7-0.1,3.9-0.6c1-0.4,1.4-1,1.1-1.7c-0.4-0.9-0.9-1.6-1.6-2.3c-0.8-0.8-1.5-1.6-2.2-2.5c-0.6-0.8-0.8-1.9-0.3-2.8
				c0.9-1.3,2.2-2.3,3.7-2.8c2.3-0.9,4.9-1.4,7.4-1.5c2.7-0.1,5.3,0.3,7.9,1.2l4.2-1.8l4.6,2.5l-4.2,1.8
				C328.9,123.6,329.5,124.5,329.9,125.5L329.9,125.5z"/>
			<path class="st18" d="M309.8,151.5c-20.5,0-36.5-10-36.5-22.7c0-12.7,16-22.7,36.5-22.7c20.5,0,36.5,10,36.5,22.7
				C346.3,141.6,330.2,151.5,309.8,151.5z M309.8,112.4c-16.4,0-30.3,7.5-30.3,16.5c0,8.9,13.9,16.5,30.3,16.5
				c16.4,0,30.3-7.5,30.3-16.5C340.1,119.9,326.2,112.4,309.8,112.4L309.8,112.4z"/>
			<ellipse vector-effect="non-scaling-stroke" class="st14" cx="309.7" cy="122.5" rx="39.8" ry="23.3"/>
			<path class="st15" d="M349.5,115.7v6.7h-5.1l3.7-5.4L349.5,115.7L349.5,115.7z"/>
			<ellipse vector-effect="non-scaling-stroke" class="st16" cx="309.7" cy="115.7" rx="39.8" ry="23.3"/>
			<path class="st17" d="M329.9,112.6c0.3,0.5,0.4,1.2,0.3,1.8l-0.2,0.6h-7.3c0.1-0.2,0.1-0.4,0.1-0.6c0-0.5-0.2-0.9-0.4-1.3
				c-0.4-0.7-1-1.3-1.7-1.6c-1.1-0.6-2.2-0.9-3.4-0.9c-1.1-0.1-2.2,0.1-3.2,0.5c-1,0.4-1.4,1-1.2,1.7c0.3,0.9,0.9,1.6,1.6,2.3
				c0.8,0.8,1.5,1.6,2.2,2.5c0.7,0.8,0.8,1.9,0.4,2.8c-0.8,1.3-2.1,2.3-3.5,2.7c-2.4,1-5.1,1.6-7.7,1.6c-2.9,0.1-5.7-0.3-8.4-1.2
				l-4.2,1.8l-4.9-2.4l4.1-1.7c-0.7-0.5-1.4-1.1-2-1.7c-0.4-0.5-0.7-1-1-1.6c-0.1-0.4-0.2-0.9-0.3-1.3c-0.1-0.3-0.1-0.6,0-0.9
				l0.1-0.4h7.3c-0.1,0.2-0.1,0.5-0.2,0.7c0,0.6,0.2,1.2,0.6,1.7c0.6,0.9,1.4,1.6,2.4,2c1.3,0.7,2.8,1,4.2,1.1
				c1.3,0.1,2.7-0.1,3.9-0.6c1-0.4,1.4-1,1.1-1.7c-0.4-0.9-0.9-1.6-1.6-2.3c-0.8-0.8-1.5-1.6-2.2-2.5c-0.6-0.8-0.8-1.9-0.3-2.8
				c0.9-1.3,2.2-2.3,3.7-2.8c2.3-0.9,4.9-1.4,7.4-1.5c2.7-0.1,5.3,0.3,7.9,1.2l4.2-1.8l4.6,2.5l-4.2,1.8
				C328.9,110.8,329.5,111.6,329.9,112.6L329.9,112.6z"/>
			<path class="st18" d="M309.8,138.7c-20.5,0-36.5-10-36.5-22.7c0-12.7,16-22.7,36.5-22.7c20.5,0,36.5,10,36.5,22.7
				C346.3,128.7,330.2,138.7,309.8,138.7z M309.8,99.5c-16.4,0-30.3,7.5-30.3,16.5c0,8.9,13.9,16.5,30.3,16.5
				c16.4,0,30.3-7.5,30.3-16.5C340.1,107.1,326.2,99.6,309.8,99.5L309.8,99.5z"/>
			<ellipse vector-effect="non-scaling-stroke" class="st14" cx="309.7" cy="109.6" rx="39.8" ry="23.3"/>
			<path class="st15" d="M349.5,102.8v6.7h-5.1l3.7-5.4L349.5,102.8L349.5,102.8z"/>
			<ellipse vector-effect="non-scaling-stroke" class="st16" cx="309.7" cy="102.8" rx="39.8" ry="23.3"/>
			<path class="st17" d="M329.9,99.7c0.3,0.5,0.4,1.2,0.3,1.8l-0.2,0.6h-7.3c0.1-0.2,0.1-0.4,0.1-0.6c0-0.5-0.2-0.9-0.4-1.3
				c-0.4-0.7-1-1.3-1.7-1.6c-1.1-0.6-2.2-0.9-3.4-0.9c-1.1-0.1-2.2,0.1-3.2,0.5c-1,0.4-1.4,1-1.2,1.7c0.3,0.9,0.9,1.6,1.6,2.3
				c0.8,0.8,1.5,1.6,2.2,2.5c0.7,0.8,0.8,1.9,0.4,2.8c-0.8,1.3-2.1,2.3-3.5,2.7c-2.4,1-5.1,1.6-7.7,1.6c-2.9,0.1-5.7-0.3-8.4-1.2
				l-4.2,1.8l-4.9-2.4l4.1-1.7c-0.7-0.5-1.4-1.1-2-1.7c-0.4-0.5-0.7-1-1-1.6c-0.1-0.4-0.2-0.9-0.3-1.3c-0.1-0.3-0.1-0.6,0-0.9
				l0.1-0.4h7.3c-0.1,0.2-0.1,0.5-0.2,0.7c0,0.6,0.2,1.2,0.6,1.7c0.6,0.9,1.4,1.6,2.4,2c1.3,0.7,2.8,1,4.2,1.1
				c1.3,0.1,2.7-0.1,3.9-0.6c1-0.4,1.4-1,1.1-1.7c-0.4-0.9-0.9-1.6-1.6-2.3c-0.8-0.8-1.5-1.6-2.2-2.5c-0.6-0.8-0.8-1.9-0.3-2.8
				c0.9-1.3,2.2-2.3,3.7-2.8c2.3-0.9,4.9-1.4,7.4-1.5c2.7-0.1,5.3,0.3,7.9,1.2l4.2-1.8l4.7,2.7l-4.2,1.8
				C328.9,98.1,329.5,98.8,329.9,99.7z"/>
			<path class="st18" d="M309.8,125.8c-20.5,0-36.5-10-36.5-22.7c0-12.7,16-22.7,36.5-22.7c20.5,0,36.5,10,36.5,22.7
				C346.3,115.8,330.2,125.8,309.8,125.8z M309.8,86.7c-16.4,0-30.3,7.5-30.3,16.5c0,8.9,13.9,16.5,30.3,16.5
				c16.4,0,30.3-7.5,30.3-16.5C340.1,94.2,326.2,86.7,309.8,86.7z"/>
			<ellipse vector-effect="non-scaling-stroke" class="st14" cx="309.7" cy="100.1" rx="39.8" ry="23.3"/>
			<path class="st15" d="M349.5,93.3v6.7h-5.1l3.7-5.4L349.5,93.3L349.5,93.3z"/>
			<ellipse vector-effect="non-scaling-stroke" class="st16" cx="309.7" cy="93.3" rx="39.8" ry="23.3"/>
			<path class="st17" d="M329.9,90.2c0.3,0.5,0.4,1.2,0.3,1.8l-0.2,0.6h-7.3c0.1-0.2,0.1-0.4,0.1-0.6c0-0.5-0.2-0.9-0.4-1.3
				c-0.4-0.7-1-1.3-1.7-1.6c-1.1-0.6-2.2-0.9-3.4-0.9c-1.1-0.1-2.2,0.1-3.2,0.5c-1,0.4-1.4,1-1.2,1.7c0.3,0.9,0.9,1.6,1.6,2.3
				c0.8,0.8,1.5,1.6,2.2,2.5c0.7,0.8,0.8,1.9,0.4,2.8c-0.8,1.3-2.1,2.3-3.5,2.7c-2.4,1-5.1,1.6-7.7,1.6c-2.9,0.1-5.7-0.3-8.4-1.2
				l-4.2,1.8l-4.9-2.4l4.1-1.7c-0.7-0.5-1.4-1.1-2-1.7c-0.4-0.5-0.7-1-1-1.6c-0.1-0.4-0.2-0.9-0.3-1.3c-0.1-0.3-0.1-0.6,0-0.9
				l0.1-0.4h7.3c-0.1,0.2-0.1,0.5-0.2,0.7c0,0.6,0.2,1.2,0.6,1.7c0.6,0.9,1.4,1.6,2.4,2c1.3,0.7,2.8,1,4.2,1.1
				c1.3,0.1,2.7-0.1,3.9-0.6c1-0.4,1.4-1,1.1-1.7c-0.4-0.9-0.9-1.6-1.6-2.3c-0.8-0.8-1.5-1.6-2.2-2.5c-0.6-0.8-0.8-1.9-0.3-2.8
				c0.9-1.3,2.2-2.3,3.7-2.8c2.3-0.9,4.9-1.4,7.4-1.5c2.7-0.1,5.3,0.3,7.9,1.2l4.2-1.8l4.6,2.5l-4.2,1.8
				C328.9,88.4,329.5,89.2,329.9,90.2L329.9,90.2z"/>
			<path class="st18" d="M309.8,116.2c-20.5,0-36.5-10-36.5-22.7c0-12.7,16-22.7,36.5-22.7c20.5,0,36.5,10,36.5,22.8
				C346.3,106.5,330.2,116.2,309.8,116.2z M309.8,77.1c-16.4,0-30.3,7.5-30.3,16.5c0,8.9,13.9,16.5,30.3,16.5
				c16.4,0,30.3-7.5,30.3-16.5C340.1,84.7,326.2,77.1,309.8,77.1L309.8,77.1z"/>
			<ellipse vector-effect="non-scaling-stroke" class="st14" cx="316.2" cy="87.2" rx="39.8" ry="23.3"/>
			<path class="st15" d="M355.9,80.4v6.7h-5l3.7-5.4L355.9,80.4L355.9,80.4z"/>
			<ellipse vector-effect="non-scaling-stroke" class="st16" cx="316.2" cy="80.4" rx="39.8" ry="23.3"/>
			<path class="st17" d="M336.3,77.3c0.3,0.5,0.4,1.2,0.3,1.8l-0.2,0.6h-7.3c0.1-0.2,0.1-0.4,0.1-0.6c0-0.5-0.2-0.9-0.4-1.3
				c-0.4-0.7-1-1.3-1.7-1.6c-1.1-0.6-2.2-0.9-3.4-0.9c-1.1-0.1-2.2,0.1-3.2,0.5c-1,0.4-1.4,1-1.2,1.7c0.3,0.9,0.9,1.6,1.6,2.3
				c0.8,0.8,1.5,1.6,2.2,2.5c0.7,0.8,0.8,1.9,0.4,2.8c-0.8,1.3-2.1,2.3-3.5,2.7c-2.4,1-5.1,1.6-7.7,1.6c-2.9,0.1-5.7-0.3-8.4-1.2
				l-4.2,1.8l-4.9-2.4l4.1-1.7c-0.7-0.5-1.4-1.1-2-1.7c-0.4-0.5-0.7-1-1-1.6c-0.1-0.4-0.2-0.9-0.3-1.3c-0.1-0.3-0.1-0.6,0-0.9
				l0.1-0.4h7.3c-0.1,0.2-0.1,0.5-0.2,0.7c0,0.6,0.2,1.2,0.6,1.7c0.6,0.9,1.4,1.6,2.4,2c1.3,0.7,2.8,1,4.2,1.1
				c1.3,0.1,2.7-0.1,3.9-0.6c1-0.4,1.4-1,1.1-1.7c-0.4-0.9-0.9-1.6-1.6-2.3c-0.8-0.8-1.5-1.6-2.2-2.5c-0.6-0.8-0.8-1.9-0.3-2.8
				c0.9-1.3,2.2-2.3,3.7-2.8c2.3-0.9,4.9-1.4,7.4-1.5c2.7-0.1,5.3,0.3,7.9,1.2l4.2-1.8l4.6,2.5l-4.2,1.8
				C335.3,75.5,335.9,76.3,336.3,77.3L336.3,77.3z"/>
			<path class="st18" d="M316.2,101.8c-19.3,0-34.9-9.5-34.9-21.1s15.7-21.1,34.9-21.1s34.9,9.5,34.9,21.1S335.5,101.8,316.2,101.8z
				 M316.2,62.7c-17.6,0-31.8,8.1-31.8,18c0,9.9,14.3,18,31.8,18s31.8-8,31.8-18S333.8,62.7,316.2,62.7L316.2,62.7z"/>
			<ellipse vector-effect="non-scaling-stroke" class="st14" cx="330.3" cy="73.4" rx="39.8" ry="23.3"/>
			<ellipse vector-effect="non-scaling-stroke" class="st16" cx="330.3" cy="66.7" rx="39.8" ry="23.3"/>
			<path class="st17" d="M350.5,63.5c0.3,0.5,0.4,1.2,0.3,1.8l-0.2,0.6h-7.3c0.1-0.2,0.1-0.4,0.1-0.6c0-0.5-0.2-0.9-0.4-1.3
				c-0.4-0.7-1-1.3-1.7-1.6c-1.1-0.6-2.2-0.9-3.4-0.9c-1.1-0.1-2.2,0.1-3.2,0.5c-1,0.4-1.4,1-1.2,1.7c0.3,0.9,0.9,1.6,1.6,2.3
				c0.8,0.8,1.5,1.6,2.2,2.5c0.7,0.8,0.8,1.9,0.4,2.8c-0.8,1.3-2.1,2.3-3.5,2.7c-2.4,1-5.1,1.6-7.7,1.6c-2.9,0.1-5.7-0.3-8.4-1.2
				l-4.2,1.8l-4.9-2.4l4.1-1.7c-0.7-0.5-1.4-1.1-2-1.7c-0.4-0.5-0.7-1-1-1.6c-0.1-0.4-0.2-0.9-0.3-1.3c-0.1-0.3-0.1-0.6,0-0.9
				l0.1-0.4h7.3c-0.1,0.2-0.1,0.5-0.2,0.7c0,0.6,0.2,1.2,0.6,1.6c0.6,0.9,1.4,1.6,2.4,2c1.3,0.7,2.8,1,4.2,1.1
				c1.3,0.1,2.7-0.1,3.9-0.6c1-0.4,1.4-1,1.1-1.7c-0.4-0.9-0.9-1.6-1.6-2.3c-0.8-0.8-1.5-1.6-2.2-2.5c-0.6-0.8-0.8-1.9-0.3-2.8
				c0.9-1.3,2.2-2.3,3.7-2.8c2.3-0.9,4.9-1.4,7.4-1.5c2.7-0.1,5.3,0.3,7.9,1.2l4.2-1.8l4.6,2.5l-4.2,1.8
				C349.4,61.7,350.1,62.6,350.5,63.5z"/>
			<path class="st18" d="M330.4,87.5c-19,0-34.4-9.2-34.4-20.6c0-11.3,15.5-20.6,34.4-20.6c19,0,34.4,9.2,34.4,20.6
				C364.8,78.3,349.3,87.5,330.4,87.5z M330.4,48.4c-17.8,0-32.4,8.3-32.4,18.5c0,10.2,14.5,18.5,32.4,18.5
				c17.8,0,32.4-8.3,32.4-18.5C362.7,56.7,348.2,48.4,330.4,48.4z"/>
			<ellipse vector-effect="non-scaling-stroke" class="st14" cx="311" cy="53.8" rx="39.8" ry="23.3"/>
			<path class="st15" d="M350.7,47v6.7h-5l3.7-5.4L350.7,47L350.7,47z"/>
			<ellipse vector-effect="non-scaling-stroke" class="st16" cx="311" cy="47" rx="39.8" ry="23.3"/>
			<path class="st17" d="M331.2,43.9c0.3,0.5,0.4,1.2,0.3,1.8l-0.2,0.6H324c0.1-0.2,0.1-0.4,0.1-0.6c0-0.5-0.2-0.9-0.4-1.3
				c-0.4-0.7-1-1.3-1.7-1.6c-1.1-0.6-2.2-0.9-3.4-0.9c-1.1-0.1-2.2,0.1-3.2,0.5c-1,0.4-1.4,1-1.2,1.7c0.3,0.9,0.9,1.6,1.5,2.3
				c0.8,0.8,1.5,1.6,2.2,2.5c0.7,0.8,0.8,1.9,0.4,2.8c-0.8,1.3-2.1,2.3-3.5,2.7c-2.4,1-5.1,1.6-7.7,1.6c-2.9,0.1-5.7-0.3-8.4-1.2
				l-4.2,1.8l-4.9-2.4l4.1-1.7c-0.7-0.5-1.4-1.1-2-1.7c-0.4-0.5-0.7-1-1-1.6c-0.1-0.4-0.2-0.9-0.3-1.3c-0.1-0.3-0.1-0.6,0-0.9
				l0.1-0.4h7.3c-0.1,0.2-0.1,0.5-0.2,0.7c0,0.6,0.2,1.2,0.6,1.6c0.6,0.9,1.4,1.6,2.4,2c1.3,0.7,2.8,1,4.2,1.1
				c1.3,0.1,2.7-0.1,3.9-0.6c1-0.4,1.4-1,1.1-1.7c-0.4-0.9-0.9-1.6-1.6-2.3c-0.8-0.8-1.5-1.6-2.2-2.5c-0.6-0.8-0.8-1.9-0.3-2.8
				c0.9-1.3,2.2-2.3,3.7-2.8c2.3-0.9,4.9-1.4,7.4-1.5c2.7-0.1,5.3,0.3,7.9,1.2l4.2-1.8l4.6,2.5l-4.2,1.8
				C330.1,42.1,330.8,43,331.2,43.9L331.2,43.9z"/>
			<path class="st18" d="M311,67.9c-19,0-34.4-9.2-34.4-20.6c0-11.3,15.4-20.6,34.4-20.6c19,0,34.4,9.2,34.4,20.6
				C345.5,58.7,330,67.9,311,67.9z M311,28.8c-17.8,0-32.4,8.3-32.4,18.5s14.5,18.5,32.4,18.5c17.8,0,32.4-8.3,32.4-18.5
				S328.9,28.8,311,28.8L311,28.8z"/>
		</g>
	</g>
</g>
</svg>
