<?xml version="1.0" encoding="UTF-8" standalone="no"?><!-- Generator: Gravit.io --><svg xmlns="http://www.w3.org/2000/svg" xmlns:xlink="http://www.w3.org/1999/xlink" style="isolation:isolate" viewBox="0 0 400 300" width="400pt" height="300pt"><defs><clipPath id="_clipPath_4R2CEgo2SX46K1klMkjLg9uZ4y9en9XB"><rect width="400" height="300"/></clipPath></defs><g clip-path="url(#_clipPath_4R2CEgo2SX46K1klMkjLg9uZ4y9en9XB)"><g><path d=" M 206.188 297.14 L 374.051 202.943 C 376.522 201.552 378.076 198.961 378.138 196.126 C 378.2 193.291 376.761 190.633 374.353 189.136 L 211.623 88.337 C 209.107 86.778 205.937 86.731 203.375 88.214 L 25.852 191.243 C 23.381 192.679 21.86 195.322 21.86 198.18 C 21.86 201.038 23.381 203.681 25.852 205.117 L 184.154 297.017 C 190.961 300.95 199.338 300.997 206.188 297.14 Z " fill="rgb(40,43,78)"/><linearGradient id="_lgradient_52" x1="0.4808320232192529" y1="0.5971506849315071" x2="0.6474180674809531" y2="0.20060938610456336" gradientTransform="matrix(185.346,0,0,102.266,124.621,152.443)" gradientUnits="userSpaceOnUse"><stop offset="0%" stop-opacity="0" style="stop-color:rgb(128,128,128)"/><stop offset="100%" stop-opacity="0.68" style="stop-color:rgb(183,183,183)"/></linearGradient><path d=" M 254.895 254.709 L 309.967 222.814 L 171.782 152.443 L 124.621 187.286 C 131.716 191.601 247.935 250.215 254.895 254.709 Z " fill="url(#_lgradient_52)"/><linearGradient id="_lgradient_53" x1="0" y1="0.5" x2="0.8648374310842863" y2="-0.0020520070625474895" gradientTransform="matrix(76.624,0,0,54.31,83.255,203.559)" gradientUnits="userSpaceOnUse"><stop offset="100%" stop-opacity="0" style="stop-color:rgb(128,128,128)"/><stop offset="100%" stop-opacity="0.028058361391694712" style="stop-color:rgb(124,129,126)"/></linearGradient><path d=" M 116.754 257.87 L 159.879 227.095 L 130.416 203.559 L 83.255 238.436 C 90.338 242.74 109.794 253.376 116.754 257.87 Z " fill="url(#_lgradient_53)"/><linearGradient id="_lgradient_54" x1="0" y1="0.5" x2="0.894353770980091" y2="0.05263959458430939" gradientTransform="matrix(48.191,0,0,29.442,55.764,210.934)" gradientUnits="userSpaceOnUse"><stop offset="100%" stop-opacity="0" style="stop-color:rgb(128,128,128)"/><stop offset="100%" stop-opacity="0.0397456279809221" style="stop-color:rgb(123,129,126)"/></linearGradient><path d=" M 103.955 217.994 L 85.284 210.934 L 55.764 229.168 C 62.365 233.18 69.403 236.329 75.937 240.375 C 84.903 232.418 94.463 225.302 103.955 217.994 Z " fill="url(#_lgradient_54)"/><linearGradient id="_lgradient_55" x1="0" y1="0.5" x2="0.8699563951488557" y2="0.0068713448403062705" gradientTransform="matrix(43.742,0,0,30.26,27.006,187.589)" gradientUnits="userSpaceOnUse"><stop offset="0%" stop-opacity="0.5852790501734766" style="stop-color:rgb(111,111,111)"/><stop offset="100%" stop-opacity="0.04975124378109453" style="stop-color:rgb(122,129,125)"/></linearGradient><path d=" M 48.647 217.849 L 70.748 200.029 L 56.47 187.589 L 27.006 205.79 C 34.089 210.093 41.688 213.366 48.647 217.849 Z " fill="url(#_lgradient_55)"/><path d=" M 296.003 100.576 L 199.889 45.089 L 199.889 135.33 L 292.91 187.847 C 294.468 188.728 296.377 188.715 297.923 187.813 C 299.469 186.91 300.419 185.255 300.419 183.465 L 300.419 108.286 C 300.427 105.113 298.745 102.175 296.003 100.576 L 296.003 100.576 Z " fill="rgb(218,97,56)"/><path d=" M 221.183 37.815 L 211.007 37.277 C 210.609 37.856 210.275 38.476 210.01 39.126 L 211.276 43.497 L 225.173 46.153 L 221.183 37.815 Z " fill="rgb(218,97,56)"/><path d=" M 245.772 25.33 C 245.077 25.33 242.175 22.82 237.501 25.106 C 232.828 27.392 218.695 48.641 218.695 48.641 L 228.277 54.85 L 237.86 43.497 L 240.583 61.72 C 240.583 61.72 250.77 69.509 268.702 60.835 L 267.413 48.619 C 267.413 48.619 275.382 42.197 276.939 32.469 C 278.497 22.741 251.824 22.842 251.824 22.842" fill="rgb(218,97,56)"/><path d=" M 268.702 60.835 C 270.884 67.348 272.114 74.143 272.356 81.008 L 242.488 67.055 L 240.572 61.765" fill="rgb(255,195,57)"/><g opacity="0.36"><path d=" M 296.003 100.576 L 199.889 45.089 L 199.889 135.33 L 292.91 187.847 C 294.468 188.728 296.377 188.715 297.923 187.813 C 299.469 186.91 300.419 185.255 300.419 183.465 L 300.419 108.286 C 300.427 105.113 298.745 102.175 296.003 100.576 L 296.003 100.576 Z " fill="rgb(0,0,0)"/></g><path d=" M 199.889 45.089 C 199.889 45.089 184.491 36.784 173.126 42.78 C 163.533 47.846 161.605 57.349 169.092 67.985 C 176.578 78.621 206.412 94.176 206.412 94.176" fill="rgb(218,97,56)"/><g opacity="0.36"><path d=" M 199.889 45.089 C 199.889 45.089 184.491 36.784 173.126 42.78 C 163.533 47.846 161.605 57.349 169.092 67.985 C 176.578 78.621 206.412 94.176 206.412 94.176" fill="rgb(0,0,0)"/></g><path d=" M 292.327 66.674 L 189.377 32.436 L 189.377 122.676 L 282.397 175.194 C 283.956 176.075 285.865 176.062 287.411 175.16 C 288.957 174.257 289.907 172.602 289.906 170.812 L 293.112 92.159 C 293.134 88.965 295.073 68.265 292.327 66.674 Z " fill="rgb(135,216,171)"/><path d=" M 242.432 7.791 C 237.942 9.136 234.994 13.427 235.349 18.101 C 235.686 25.801 243.721 21.8 243.721 21.8 L 251.835 22.842 C 251.835 22.842 253.303 22.539 253.841 16.118 C 254.379 9.696 248.921 7.286 242.432 7.791 Z " fill="rgb(231,72,59)"/><path d=" M 237.658 15.434 C 237.03 18.057 238.129 21.363 239.406 23.414 C 240.748 25.648 242.92 27.26 245.447 27.897 C 248.137 28.513 250.188 27.022 251.23 24.59 C 252.406 22.011 252.578 19.086 251.712 16.387 C 250.829 14.09 248.987 12.293 246.669 11.467 C 244.134 10.696 241.383 11.187 239.272 12.789 C 238.449 13.462 237.88 14.395 237.658 15.434 Z " fill="rgb(255,195,57)"/><path d=" M 236.627 18.18 C 239.291 19.213 242.055 19.964 244.875 20.421 C 245.16 19.305 245.534 18.215 245.996 17.16 C 246.075 17.507 246.669 20.421 246.669 20.421 L 248.451 21.139 L 248.764 22.853 C 248.764 22.853 250.378 19.413 251.096 21.139 C 251.096 21.139 250.076 26.171 250.076 26.171 C 251.581 24.902 252.858 23.386 253.852 21.688 C 255.141 19.222 257.136 9.528 246.669 8.474 C 236.201 7.421 236.627 18.18 236.627 18.18 Z " fill="rgb(231,72,59)"/><path d=" M 246.691 8.407 C 246.691 8.407 248.339 0.562 253.326 0.035 C 256.004 -0.199 258.653 0.739 260.588 2.607 C 262.522 4.475 263.552 7.089 263.412 9.774 C 263.412 9.774 263.244 13.943 262.168 16.084 L 257.573 17.205 C 257.573 17.205 256.979 3.823 249.033 8.743" fill="rgb(231,72,59)"/><path d=" M 251.185 46.658 C 250.667 47.013 250.119 47.324 249.549 47.588 C 247.834 47.834 246.119 47.924 244.349 48.07 C 243.531 48.137 241.457 48.193 241.547 49.504 C 241.637 50.815 243.262 50.625 244.057 50.625 C 244.584 50.625 245.122 50.535 245.649 50.468 C 244.919 51.174 244.332 52.015 243.923 52.945 C 243.519 53.886 242.802 55.971 243.452 56.946 C 244.102 57.921 244.976 56.946 245.167 56.195 C 245.45 55.112 245.876 54.072 246.433 53.102 C 245.903 54.839 245.826 56.683 246.209 58.459 C 246.292 58.681 246.491 58.839 246.726 58.87 C 246.961 58.9 247.193 58.798 247.33 58.604 C 247.708 57.463 247.952 56.283 248.058 55.085 C 248.227 54.321 248.455 53.572 248.742 52.844 C 248.433 54.355 248.358 55.905 248.518 57.439 C 248.532 57.563 248.583 57.68 248.664 57.775 C 248.664 57.775 248.664 57.854 248.664 57.887 C 248.668 58.082 248.761 58.264 248.915 58.382 C 249.07 58.5 249.271 58.54 249.459 58.492 C 250.389 58.246 250.49 57.125 250.58 56.251 C 250.657 54.918 250.806 53.589 251.028 52.272 C 251.016 53.669 251.302 55.053 251.869 56.329 C 251.94 56.479 252.074 56.589 252.235 56.628 C 252.396 56.667 252.566 56.632 252.698 56.531 C 252.969 56.468 253.16 56.226 253.158 55.948 C 253.158 55.343 253.158 54.738 253.158 54.133 L 253.236 53.012 C 254.441 52.864 255.574 52.356 256.486 51.555 C 254.418 50.282 252.618 48.619 251.185 46.658 Z " fill="rgb(255,195,57)"/><path d=" M 213.08 35.417 C 212.853 35.519 212.635 35.643 212.43 35.786 C 211.875 36.2 211.394 36.704 211.007 37.277 L 221.183 37.815 C 219.246 35.405 216.017 34.45 213.08 35.417 Z " fill="rgb(218,97,56)"/><path d=" M 223.01 42.488 L 222.775 42.365 C 222.74 42.24 222.66 42.132 222.551 42.063 L 221.643 41.48 C 221.604 41.416 221.55 41.362 221.486 41.323 C 220.763 40.905 220.14 40.335 219.659 39.653 C 219.557 39.494 219.378 39.4 219.188 39.406 C 219.035 39.194 218.775 39.085 218.516 39.126 C 218.245 39.158 217.988 39.267 217.776 39.44 C 217.651 39.194 217.44 39.002 217.182 38.902 C 216.644 38.768 216.081 38.999 215.793 39.474 C 215.738 39.151 215.546 38.869 215.266 38.7 C 214.952 38.512 214.554 38.539 214.268 38.768 C 214.139 38.605 213.984 38.465 213.809 38.353 L 213.73 38.274 C 213.462 38.013 213.049 37.972 212.733 38.174 C 212.194 38.39 211.781 38.839 211.612 39.395 C 211.45 39.485 211.341 39.648 211.321 39.832 C 211.198 40.751 210.548 44.898 212.542 44.315 C 212.65 44.281 212.744 44.215 212.811 44.125 C 212.811 44.27 212.811 44.405 212.879 44.551 C 213.024 45.47 213.181 46.333 214.224 46.389 C 214.224 47.274 214.493 48.518 215.277 48.451 C 215.414 48.503 215.566 48.494 215.695 48.425 C 215.824 48.356 215.917 48.235 215.949 48.092 C 216.197 47.738 216.358 47.331 216.42 46.904 C 216.633 47.139 216.947 47.207 217.406 46.904 C 217.469 46.855 217.525 46.798 217.575 46.736 C 217.7 46.661 217.793 46.541 217.832 46.4 C 218.026 45.99 218.191 45.567 218.325 45.133 L 219.368 42.41 L 219.726 42.522 C 220.354 42.899 221.006 43.236 221.676 43.531 C 222.203 43.755 223.066 44.035 223.257 43.228 C 223.381 42.955 223.274 42.632 223.01 42.488 L 223.01 42.488 Z " fill="rgb(255,195,57)"/><mask id="_mask_6bqbADsIg4BOp2oeZN3IFeBHcFF5KppK" x="-200%" y="-200%" width="400%" height="400%"><rect x="-200%" y="-200%" width="400%" height="400%" style="fill:white;"/><path d=" M 189.377 40.606 C 189.377 40.998 205.314 45.245 206.345 45.57 C 218.415 49.347 230.452 53.214 242.488 57.092 Q 258.055 62.101 273.611 67.178 C 280.089 69.285 288.27 70.081 288.27 78.733 C 288.27 83.854 287.004 123.158 287.004 123.158" fill="black" stroke="none"/></mask><path d=" M 189.377 40.606 C 189.377 40.998 205.314 45.245 206.345 45.57 C 218.415 49.347 230.452 53.214 242.488 57.092 Q 258.055 62.101 273.611 67.178 C 280.089 69.285 288.27 70.081 288.27 78.733 C 288.27 83.854 287.004 123.158 287.004 123.158" fill="none"/><path d=" M 189.377 40.606 C 189.377 40.998 205.314 45.245 206.345 45.57 C 218.415 49.347 230.452 53.214 242.488 57.092 Q 258.055 62.101 273.611 67.178 C 280.089 69.285 288.27 70.081 288.27 78.733 C 288.27 83.854 287.004 123.158 287.004 123.158" fill="none" mask="url(#_mask_6bqbADsIg4BOp2oeZN3IFeBHcFF5KppK)" vector-effect="non-scaling-stroke" stroke-width="2" stroke="rgb(57,181,74)" stroke-linejoin="miter" stroke-linecap="butt" stroke-miterlimit="10"/><path d=" M 212.228 107.063 C 204.86 90.661 208.718 72.925 220.838 67.48 C 232.957 62.036 248.779 70.932 256.147 87.335 C 263.515 103.737 259.657 121.474 247.537 126.918 C 235.418 132.362 219.596 123.466 212.228 107.063 Z " fill="rgb(209,234,228)"/><path d=" M 232.677 160.966 C 227.409 144.37 233.088 127.736 245.351 123.844 C 257.614 119.951 271.846 130.265 277.114 146.861 C 282.382 163.457 276.703 180.091 264.44 183.984 C 252.177 187.876 237.944 177.562 232.677 160.966 Z " fill="rgb(209,234,228)"/><g opacity="0.2"><path d=" M 291.744 126.252 L 291.901 122.441 L 207.286 75.348 L 207.555 90.792 L 260.521 121.365" fill="rgb(0,0,0)"/></g><path d=" M 305.529 134.915 L 209.416 79.405 L 209.416 169.657 L 302.436 222.175 C 303.994 223.056 305.903 223.043 307.449 222.141 C 308.995 221.238 309.946 219.583 309.945 217.793 L 309.945 142.592 C 309.941 139.43 308.26 136.508 305.529 134.915 L 305.529 134.915 Z " fill="rgb(135,216,171)"/><mask id="_mask_40Sluou7wY9SDCT9Ll4dUmfI7J50Uqex" x="-200%" y="-200%" width="400%" height="400%"><rect x="-200%" y="-200%" width="400%" height="400%" style="fill:white;"/><path d=" M 209.416 86.555 L 293.795 135.307 C 293.795 135.307 304.24 139.79 304.442 148.005 C 304.442 148.005 304.442 207.975 304.442 207.975 C 304.442 207.975 305.059 217.894 299.119 215.921 L 264.97 196.869" fill="black" stroke="none"/></mask><path d=" M 209.416 86.555 L 293.795 135.307 C 293.795 135.307 304.24 139.79 304.442 148.005 C 304.442 148.005 304.442 207.975 304.442 207.975 C 304.442 207.975 305.059 217.894 299.119 215.921 L 264.97 196.869" fill="none"/><path d=" M 209.416 86.555 L 293.795 135.307 C 293.795 135.307 304.24 139.79 304.442 148.005 C 304.442 148.005 304.442 207.975 304.442 207.975 C 304.442 207.975 305.059 217.894 299.119 215.921 L 264.97 196.869" fill="none" mask="url(#_mask_40Sluou7wY9SDCT9Ll4dUmfI7J50Uqex)" vector-effect="non-scaling-stroke" stroke-width="2" stroke="rgb(57,181,74)" stroke-linejoin="miter" stroke-linecap="butt" stroke-miterlimit="10"/><path d=" M 260.521 122.049 L 164.474 66.55 L 164.474 156.791 L 257.495 209.309 C 259.053 210.19 260.962 210.177 262.508 209.275 C 264.054 208.372 265.004 206.717 265.004 204.927 L 265.004 129.748 C 264.994 126.565 263.285 123.629 260.521 122.049 L 260.521 122.049 Z " fill="rgb(218,97,56)"/><path d=" M 164.474 74.261 L 164.474 56.464 C 164.474 56.464 165.517 69.184 179.47 75.068" fill="rgb(218,97,56)"/><path d=" M 165.73 72.535 C 165.553 72.535 165.387 72.452 165.281 72.311 Q 164.945 71.851 164.62 71.381 C 164.493 71.217 164.467 70.997 164.552 70.808 C 164.637 70.619 164.819 70.492 165.026 70.478 C 165.232 70.465 165.43 70.566 165.539 70.742 Q 165.853 71.201 166.178 71.639 C 166.305 71.808 166.326 72.036 166.231 72.225 C 166.136 72.415 165.942 72.535 165.73 72.535 Z " fill="rgb(46,49,146)"/><path d=" M 254.334 126.128 C 254.227 126.128 254.122 126.097 254.032 126.039 L 252.194 124.828 C 252.014 124.726 251.905 124.532 251.911 124.325 C 251.918 124.118 252.038 123.931 252.224 123.839 C 252.409 123.747 252.631 123.766 252.799 123.887 L 254.648 125.075 C 254.857 125.21 254.952 125.465 254.882 125.703 C 254.812 125.941 254.594 126.105 254.346 126.106 L 254.334 126.128 Z  M 248.787 122.587 C 248.702 122.607 248.614 122.607 248.529 122.587 L 246.669 121.466 C 246.498 121.36 246.398 121.171 246.405 120.971 C 246.411 120.77 246.525 120.589 246.702 120.494 C 246.879 120.4 247.092 120.407 247.263 120.513 L 249.123 121.634 C 249.33 121.768 249.425 122.021 249.358 122.257 C 249.291 122.494 249.078 122.66 248.832 122.665 L 248.787 122.587 Z  M 243.183 119.146 C 243.081 119.147 242.98 119.12 242.892 119.068 L 241.02 117.947 C 240.76 117.787 240.676 117.447 240.832 117.184 C 240.988 116.921 241.326 116.832 241.592 116.983 L 243.463 118.104 C 243.681 118.233 243.785 118.493 243.717 118.737 C 243.649 118.981 243.425 119.149 243.172 119.146 L 243.183 119.146 Z  M 237.58 115.784 C 237.481 115.783 237.384 115.756 237.299 115.706 L 235.417 114.585 C 235.156 114.424 235.073 114.085 235.229 113.822 C 235.385 113.559 235.722 113.47 235.988 113.621 L 237.871 114.742 C 238.087 114.87 238.191 115.126 238.126 115.369 C 238.061 115.612 237.842 115.781 237.591 115.784 L 237.58 115.784 Z  M 231.909 112.422 C 231.81 112.421 231.713 112.394 231.628 112.343 L 229.734 111.223 C 229.56 111.123 229.453 110.937 229.452 110.736 C 229.452 110.535 229.559 110.35 229.733 110.249 C 229.906 110.148 230.121 110.148 230.295 110.248 L 232.189 111.368 C 232.405 111.497 232.509 111.753 232.444 111.996 C 232.379 112.238 232.16 112.408 231.909 112.411 L 231.909 112.422 Z  M 226.215 109.161 C 226.118 109.163 226.021 109.14 225.935 109.093 L 224.03 107.973 C 223.844 107.881 223.724 107.694 223.718 107.486 C 223.712 107.279 223.821 107.085 224.001 106.983 C 224.182 106.88 224.404 106.886 224.579 106.998 L 226.484 108.118 C 226.713 108.241 226.827 108.505 226.76 108.756 C 226.693 109.006 226.463 109.178 226.204 109.172 L 226.215 109.161 Z  M 220.5 105.933 C 220.402 105.935 220.305 105.912 220.219 105.866 L 218.314 104.745 C 218.128 104.653 218.008 104.466 218.002 104.258 C 217.996 104.051 218.105 103.857 218.286 103.755 C 218.466 103.652 218.688 103.658 218.863 103.77 L 220.78 104.891 C 221.008 105.014 221.122 105.277 221.056 105.528 C 220.989 105.779 220.759 105.951 220.5 105.944 L 220.5 105.933 Z  M 214.773 102.728 C 214.679 102.728 214.586 102.705 214.504 102.66 L 212.587 101.54 C 212.336 101.38 212.254 101.051 212.4 100.792 C 212.546 100.533 212.87 100.433 213.136 100.565 L 215.053 101.685 C 215.279 101.807 215.393 102.068 215.33 102.317 C 215.266 102.566 215.041 102.74 214.784 102.739 L 214.773 102.728 Z  M 209.035 99.522 C 208.941 99.523 208.848 99.5 208.766 99.455 L 206.849 98.334 C 206.598 98.174 206.516 97.846 206.662 97.587 C 206.808 97.328 207.131 97.228 207.398 97.359 L 209.304 98.48 C 209.53 98.602 209.644 98.863 209.58 99.112 C 209.517 99.361 209.292 99.535 209.035 99.533 L 209.035 99.522 Z  M 203.308 96.317 C 203.21 96.319 203.113 96.296 203.027 96.25 L 201.122 95.129 C 200.871 94.969 200.789 94.641 200.935 94.382 C 201.081 94.122 201.405 94.022 201.671 94.154 L 203.577 95.275 C 203.805 95.398 203.919 95.661 203.852 95.912 C 203.786 96.163 203.556 96.335 203.296 96.328 L 203.308 96.317 Z  M 197.581 93.089 C 197.483 93.092 197.387 93.068 197.301 93.022 L 195.395 91.901 C 195.126 91.747 195.033 91.403 195.188 91.134 C 195.343 90.864 195.686 90.772 195.956 90.926 L 197.861 92.047 C 198.089 92.17 198.203 92.434 198.137 92.684 C 198.07 92.935 197.84 93.107 197.581 93.1 L 197.581 93.089 Z  M 191.876 89.839 C 191.778 89.838 191.681 89.811 191.596 89.761 L 189.702 88.64 C 189.433 88.485 189.34 88.142 189.495 87.872 C 189.649 87.603 189.993 87.51 190.262 87.665 L 192.156 88.786 C 192.373 88.914 192.477 89.17 192.412 89.413 C 192.346 89.656 192.128 89.825 191.876 89.828 L 191.876 89.839 Z  M 186.172 86.589 C 186.078 86.59 185.985 86.566 185.903 86.522 L 183.986 85.468 C 183.714 85.32 183.614 84.979 183.762 84.706 C 183.911 84.434 184.252 84.334 184.524 84.482 L 186.452 85.536 C 186.678 85.658 186.792 85.918 186.729 86.167 C 186.665 86.416 186.44 86.59 186.183 86.589 L 186.172 86.589 Z  M 180.411 83.429 C 180.314 83.431 180.217 83.408 180.131 83.361 L 178.226 82.241 C 177.993 82.072 177.927 81.754 178.071 81.506 C 178.215 81.257 178.524 81.158 178.786 81.277 L 180.68 82.398 C 180.909 82.521 181.023 82.784 180.956 83.035 C 180.889 83.286 180.659 83.458 180.4 83.451 L 180.411 83.429 Z  M 174.808 80.066 C 174.696 80.068 174.587 80.037 174.494 79.977 Q 173.564 79.372 172.678 78.722 C 172.496 78.614 172.39 78.412 172.405 78.201 C 172.419 77.99 172.552 77.804 172.747 77.723 C 172.942 77.641 173.167 77.676 173.328 77.814 Q 174.202 78.441 175.11 79.047 C 175.32 79.182 175.415 79.441 175.342 79.681 C 175.269 79.92 175.047 80.082 174.796 80.078 L 174.808 80.066 Z  M 169.585 76.099 C 169.448 76.097 169.316 76.045 169.215 75.953 Q 168.386 75.214 167.601 74.429 C 167.459 74.287 167.404 74.08 167.456 73.886 C 167.508 73.692 167.659 73.54 167.854 73.488 C 168.048 73.436 168.255 73.491 168.397 73.633 Q 169.159 74.396 169.966 75.113 C 170.136 75.268 170.195 75.511 170.113 75.726 C 170.031 75.942 169.826 76.085 169.596 76.088 L 169.585 76.099 Z " fill="rgb(46,49,146)"/><path d=" M 259.131 130.253 C 258.858 130.251 258.626 130.052 258.582 129.782 L 258.425 128.919 L 257.697 128.437 C 257.509 128.337 257.395 128.139 257.401 127.926 C 257.408 127.714 257.534 127.523 257.727 127.434 C 257.921 127.345 258.147 127.373 258.313 127.507 L 259.434 128.258 L 259.669 129.603 C 259.695 129.75 259.661 129.901 259.575 130.023 C 259.489 130.145 259.357 130.228 259.21 130.253 L 259.131 130.253 Z " fill="rgb(46,49,146)"/><path d=" M 258.862 204.198 C 258.553 204.254 258.257 204.048 258.201 203.739 C 258.145 203.429 258.351 203.133 258.66 203.077 C 259.243 202.853 259.49 202.596 259.501 202.506 L 259.501 201.957 C 259.501 201.647 259.752 201.396 260.061 201.396 C 260.371 201.396 260.622 201.647 260.622 201.957 L 260.622 202.517 C 260.622 203.156 260.05 203.739 259.064 204.12 C 259.002 204.159 258.934 204.185 258.862 204.198 L 258.862 204.198 Z  M 254.514 203.84 C 254.392 203.84 254.275 203.8 254.178 203.728 L 254.065 203.638 L 252.239 202.853 C 251.954 202.73 251.823 202.398 251.947 202.114 C 252.071 201.829 252.402 201.698 252.687 201.822 L 254.57 202.629 L 254.85 202.82 C 255.043 202.964 255.122 203.216 255.045 203.445 C 254.969 203.674 254.755 203.828 254.514 203.828 L 254.514 203.84 Z  M 248.361 201.038 C 248.276 201.038 248.191 201.019 248.114 200.982 L 246.086 199.951 C 245.81 199.808 245.703 199.47 245.845 199.194 C 245.987 198.919 246.326 198.811 246.601 198.953 L 248.607 199.973 C 248.843 200.087 248.968 200.349 248.909 200.604 C 248.85 200.859 248.623 201.039 248.361 201.038 Z  M 260.106 198.068 L 260.106 198.068 C 259.958 198.065 259.816 198.003 259.713 197.896 C 259.61 197.789 259.554 197.645 259.557 197.496 Q 259.557 196.376 259.557 195.255 C 259.557 194.945 259.808 194.694 260.117 194.694 C 260.427 194.694 260.678 194.945 260.678 195.255 Q 260.678 196.376 260.678 197.496 C 260.666 197.801 260.411 198.041 260.106 198.034 L 260.106 198.068 Z  M 242.387 197.821 C 242.289 197.821 242.192 197.794 242.107 197.743 L 240.146 196.622 C 239.88 196.461 239.795 196.115 239.955 195.849 C 240.116 195.583 240.463 195.497 240.729 195.658 L 242.668 196.779 C 242.884 196.907 242.988 197.164 242.923 197.406 C 242.858 197.649 242.639 197.819 242.387 197.821 Z  M 236.593 194.291 C 236.486 194.291 236.381 194.26 236.291 194.201 L 234.385 192.98 C 234.144 192.806 234.081 192.473 234.242 192.222 C 234.403 191.971 234.732 191.891 234.991 192.038 L 236.896 193.249 C 237.104 193.383 237.199 193.639 237.13 193.877 C 237.06 194.115 236.841 194.279 236.593 194.28 L 236.593 194.291 Z  M 260.285 191.276 L 260.285 191.276 C 260.137 191.27 259.997 191.206 259.896 191.096 C 259.795 190.987 259.741 190.842 259.748 190.693 L 259.826 188.452 C 259.849 188.148 260.104 187.913 260.409 187.914 C 260.557 187.92 260.698 187.985 260.799 188.094 C 260.899 188.203 260.953 188.348 260.947 188.497 L 260.868 190.738 C 260.839 191.039 260.576 191.262 260.274 191.243 L 260.285 191.276 Z  M 230.878 190.626 C 230.77 190.627 230.665 190.595 230.575 190.537 L 228.67 189.326 C 228.428 189.152 228.365 188.819 228.526 188.568 C 228.687 188.318 229.016 188.237 229.275 188.385 L 231.18 189.606 C 231.389 189.741 231.484 189.997 231.414 190.235 C 231.344 190.473 231.126 190.637 230.878 190.637 L 230.878 190.626 Z  M 225.151 186.973 C 225.043 186.972 224.938 186.941 224.848 186.883 L 222.932 185.684 C 222.761 185.578 222.661 185.389 222.668 185.188 C 222.674 184.988 222.788 184.806 222.965 184.712 C 223.142 184.618 223.355 184.625 223.526 184.731 L 225.442 185.942 C 225.651 186.076 225.746 186.332 225.676 186.57 C 225.606 186.808 225.388 186.972 225.139 186.973 L 225.151 186.973 Z  M 260.532 184.485 L 260.532 184.485 C 260.383 184.479 260.243 184.414 260.142 184.305 C 260.041 184.195 259.988 184.05 259.994 183.902 L 260.084 181.66 C 260.102 181.354 260.359 181.116 260.667 181.122 C 260.815 181.128 260.955 181.193 261.056 181.302 C 261.157 181.412 261.211 181.557 261.204 181.705 L 261.115 183.947 C 261.085 184.247 260.822 184.471 260.521 184.451 L 260.532 184.485 Z  M 219.379 183.364 C 219.276 183.365 219.175 183.338 219.088 183.285 L 217.149 182.165 C 216.888 182.004 216.805 181.665 216.961 181.402 C 217.117 181.139 217.455 181.05 217.72 181.201 L 219.659 182.322 C 219.877 182.451 219.981 182.71 219.913 182.954 C 219.845 183.198 219.621 183.366 219.368 183.364 L 219.379 183.364 Z  M 213.529 179.923 C 213.43 179.922 213.333 179.895 213.249 179.845 L 211.287 178.724 C 211.036 178.564 210.954 178.236 211.1 177.977 C 211.246 177.717 211.57 177.617 211.836 177.749 L 213.798 178.87 C 214.014 178.998 214.118 179.254 214.053 179.497 C 213.988 179.74 213.769 179.909 213.518 179.912 L 213.529 179.923 Z  M 260.801 177.682 L 260.801 177.682 C 260.652 177.676 260.512 177.611 260.411 177.502 C 260.31 177.393 260.257 177.248 260.263 177.099 L 260.353 174.858 C 260.355 174.708 260.419 174.566 260.529 174.464 C 260.639 174.363 260.786 174.31 260.935 174.32 C 261.084 174.325 261.224 174.39 261.325 174.499 C 261.426 174.609 261.48 174.754 261.473 174.902 L 261.384 177.144 C 261.366 177.449 261.106 177.683 260.801 177.671 L 260.801 177.682 Z  M 207.611 176.561 C 207.517 176.562 207.425 176.538 207.342 176.494 L 205.359 175.373 C 205.086 175.225 204.986 174.883 205.134 174.611 C 205.283 174.339 205.624 174.238 205.897 174.387 L 207.88 175.508 C 208.107 175.63 208.221 175.89 208.157 176.139 C 208.093 176.388 207.868 176.562 207.611 176.561 L 207.611 176.561 Z  M 201.649 173.311 C 201.555 173.311 201.463 173.288 201.38 173.244 L 199.385 172.123 C 199.194 172.037 199.067 171.852 199.055 171.643 C 199.043 171.434 199.149 171.236 199.33 171.129 C 199.51 171.023 199.734 171.026 199.912 171.137 L 201.907 172.257 C 202.133 172.38 202.247 172.64 202.184 172.889 C 202.12 173.138 201.895 173.312 201.638 173.311 L 201.649 173.311 Z  M 261.048 170.857 L 261.048 170.857 C 260.899 170.851 260.759 170.786 260.658 170.677 C 260.557 170.567 260.504 170.422 260.51 170.274 L 260.577 168.032 C 260.589 167.725 260.841 167.483 261.148 167.483 C 261.297 167.486 261.438 167.548 261.541 167.655 C 261.644 167.762 261.701 167.906 261.698 168.055 L 261.63 170.296 C 261.64 170.455 261.582 170.61 261.471 170.723 C 261.36 170.836 261.206 170.897 261.048 170.89 L 261.048 170.857 Z  M 195.653 170.106 C 195.563 170.105 195.474 170.082 195.395 170.038 L 193.4 168.974 C 193.209 168.888 193.082 168.703 193.07 168.494 C 193.059 168.285 193.165 168.087 193.345 167.98 C 193.525 167.874 193.75 167.876 193.927 167.988 L 195.922 169.052 C 196.147 169.173 196.261 169.431 196.2 169.679 C 196.14 169.926 195.919 170.102 195.664 170.106 L 195.653 170.106 Z  M 189.657 166.923 C 189.563 166.923 189.471 166.9 189.388 166.856 L 187.393 165.735 C 187.144 165.579 187.058 165.256 187.196 164.996 C 187.335 164.736 187.651 164.628 187.92 164.749 L 189.915 165.869 C 190.141 165.991 190.255 166.252 190.192 166.501 C 190.128 166.75 189.903 166.924 189.646 166.923 L 189.657 166.923 Z  M 261.227 164.054 L 261.227 164.054 C 261.078 164.051 260.937 163.989 260.834 163.882 C 260.731 163.775 260.675 163.631 260.678 163.482 Q 260.678 162.361 260.678 161.241 C 260.675 161.091 260.733 160.947 260.838 160.841 C 260.944 160.735 261.089 160.677 261.238 160.68 C 261.548 160.68 261.798 160.931 261.798 161.241 Q 261.798 162.361 261.798 163.482 C 261.802 163.635 261.742 163.782 261.634 163.89 C 261.527 163.998 261.379 164.057 261.227 164.054 Z  M 183.684 163.695 C 183.59 163.696 183.497 163.672 183.415 163.628 L 181.431 162.507 C 181.159 162.359 181.058 162.017 181.207 161.745 C 181.355 161.473 181.697 161.372 181.969 161.521 L 183.953 162.642 C 184.179 162.764 184.293 163.024 184.23 163.273 C 184.166 163.523 183.941 163.696 183.684 163.695 L 183.684 163.695 Z  M 177.744 160.423 C 177.646 160.425 177.55 160.402 177.464 160.355 L 175.491 159.235 C 175.317 159.135 175.21 158.949 175.209 158.748 C 175.209 158.547 175.316 158.361 175.489 158.261 C 175.663 158.16 175.877 158.159 176.052 158.26 L 178.013 159.38 C 178.241 159.503 178.355 159.767 178.289 160.018 C 178.222 160.268 177.992 160.44 177.733 160.434 L 177.744 160.423 Z  M 261.261 157.329 C 260.951 157.329 260.7 157.079 260.7 156.769 Q 260.7 155.648 260.7 154.528 C 260.697 154.379 260.753 154.235 260.856 154.128 C 260.959 154.021 261.101 153.959 261.249 153.956 C 261.55 153.971 261.793 154.205 261.821 154.505 Q 261.821 155.626 261.821 156.747 C 261.821 157.056 261.57 157.307 261.261 157.307 L 261.261 157.329 Z  M 171.849 157.105 C 171.75 157.105 171.653 157.078 171.569 157.027 L 169.619 155.906 C 169.358 155.746 169.275 155.406 169.431 155.143 C 169.587 154.88 169.925 154.791 170.19 154.942 L 172.129 156.063 C 172.345 156.191 172.45 156.448 172.384 156.69 C 172.319 156.933 172.1 157.103 171.849 157.105 L 171.849 157.105 Z  M 261.126 150.538 C 260.825 150.538 260.578 150.301 260.566 150 Q 260.566 148.879 260.476 147.758 C 260.476 147.449 260.727 147.198 261.036 147.198 C 261.346 147.198 261.597 147.449 261.597 147.758 Q 261.597 148.879 261.686 150 C 261.692 150.148 261.639 150.293 261.538 150.403 C 261.437 150.512 261.297 150.577 261.148 150.583 L 261.126 150.538 Z  M 260.756 143.757 C 260.463 143.758 260.219 143.534 260.196 143.242 Q 260.117 142.121 260.016 141 C 259.991 140.695 260.215 140.425 260.521 140.395 C 260.825 140.375 261.091 140.597 261.126 140.9 Q 261.227 142.02 261.305 143.141 C 261.325 143.447 261.095 143.711 260.79 143.735 L 260.756 143.757 Z  M 260.106 137.033 C 259.821 137.035 259.58 136.823 259.546 136.54 Q 259.411 135.419 259.266 134.298 C 259.226 133.992 259.441 133.711 259.748 133.671 C 260.052 133.637 260.329 133.85 260.375 134.153 Q 260.532 135.273 260.667 136.394 C 260.685 136.543 260.644 136.693 260.551 136.811 C 260.459 136.929 260.322 137.005 260.173 137.022 L 260.106 137.033 Z " fill="rgb(46,49,146)"/><path d=" M 165.987 153.541 C 165.884 153.539 165.783 153.508 165.696 153.452 L 164.743 152.858 C 164.573 152.752 164.473 152.563 164.479 152.362 C 164.486 152.162 164.599 151.98 164.776 151.886 C 164.953 151.792 165.167 151.799 165.337 151.905 L 166.29 152.499 C 166.497 152.633 166.592 152.885 166.525 153.122 C 166.459 153.359 166.245 153.525 165.999 153.53 L 165.987 153.541 Z " fill="rgb(46,49,146)"/><path d=" M 243.304 166.08 C 241.948 162.705 243.362 158.954 246.462 157.708 C 249.561 156.463 253.178 158.191 254.535 161.565 C 255.891 164.94 254.477 168.691 251.377 169.937 C 248.278 171.183 244.661 169.455 243.304 166.08 Z " fill="rgb(68,60,229)"/><path d=" M 264.97 32.2 C 264.97 32.2 254.334 42.825 249.583 43.934 C 251.278 48.22 254.539 51.702 258.705 53.673 C 258.705 53.673 269.229 50.614 271.795 43.889 C 271.795 43.889 266.091 51.813 259.075 52.384 C 255.618 50.64 252.755 47.91 250.849 44.539 C 250.849 44.539 259.994 40.505 264.97 32.2 Z " fill="rgb(24,24,132)"/><path d=" M 237.467 36.436 L 241.536 49.515 L 238.14 48.652 L 237.467 36.436 L 237.467 36.436 Z " fill="rgb(24,24,132)"/><path d=" M 248.787 161.117 C 245.178 161.117 245.178 166.721 248.787 166.721 C 252.396 166.721 252.407 161.117 248.787 161.117 Z " fill="rgb(255,185,44)"/><path d=" M 104.941 213.444 C 105.073 214.349 104.936 215.272 104.549 216.1 C 103.91 217.221 102.924 219.182 100.515 218.824 C 98.105 218.465 93.499 215.618 91.549 214.744 C 89.599 213.87 84.477 212.873 84.41 211.942 C 84.342 211.012 84.41 208.524 84.41 208.524" fill="rgb(76,13,10)"/><path d=" M 94.754 205.521 C 94.754 205.521 95.359 207.482 98.789 209.04 C 98.789 209.04 105.513 212.144 104.885 214.206 C 104.358 216.157 102.518 217.456 100.503 217.3 C 98.352 217.3 93.544 213.343 90.417 212.492 C 87.29 211.64 84.746 211.113 84.578 210.082 C 84.41 209.051 84.578 203.638 84.578 203.638" fill="rgb(68,60,229)"/><path d=" M 71.577 196.286 C 71.577 196.286 72.048 199.648 70.759 200.029 C 68.829 200.475 66.805 200.262 65.01 199.424 C 62.544 198.393 55.271 191.456 54.565 188.934 C 54.565 188.934 54.072 187.488 58.073 183.924" fill="rgb(76,13,10)"/><path d=" M 66.758 187.264 C 66.758 187.264 66.052 189.931 66.758 191.287 C 66.758 191.287 71.801 194.896 71.566 196.297 C 71.566 196.297 69.526 199.368 66.444 198.113 C 66.444 198.113 58.185 192.509 57.131 190.783 C 57.131 190.783 55.136 187.6 56.313 185.841 C 56.313 185.841 63.676 179.038 63.676 179.038" fill="rgb(68,60,229)"/><path d=" M 89.162 131.889 L 105.345 139.185 L 67.969 188.497 C 67.969 188.497 59.843 188.497 58.465 180.439 L 89.162 131.889 Z " fill="rgb(211,59,51)"/><path d=" M 133.262 154.315 C 131.477 153.031 129.342 152.323 127.143 152.286 C 126.168 152.286 126.168 153.777 127.143 153.81 C 128.651 153.828 130.132 154.212 131.458 154.931 C 132.287 155.391 134.506 156.769 134.383 157.935 C 134.237 159.313 131.402 157.016 130.808 156.612 C 129.53 155.749 128.275 154.841 127.042 153.911 C 126.258 153.328 125.496 154.64 126.28 155.222 C 127.569 156.186 135.605 163.146 135.952 158.36 C 136.075 156.657 134.529 155.245 133.262 154.315 Z " fill="rgb(231,72,59)"/><path d=" M 91.627 145.842 C 91.627 145.842 93.51 162.989 95.942 173.378 C 95.942 173.378 96.783 205.823 96.783 205.823 C 96.783 205.823 84.858 211.685 83.76 205.823 C 83.76 205.823 81.204 180.372 81.204 180.372 C 81.204 180.372 75.04 163.224 74.099 153.967 C 73.359 146.705 79.075 138.277 79.075 138.277" fill="rgb(231,72,59)"/><mask id="_mask_3R4TDN8mmpC7Vzz83pbQyB3pZSIZewo2" x="-200%" y="-200%" width="400%" height="400%"><rect x="-200%" y="-200%" width="400%" height="400%" style="fill:white;"/><path d=" M 113.627 202.506 L 108.617 172.022 C 108.246 168.854 109.797 165.768 112.562 164.177 C 117.359 161.207 130.046 152.611 130.046 152.611 C 130.046 152.611 136.445 150.751 137.476 155.424 C 138.182 158.641 143.326 183.98 143.326 183.98" fill="black" stroke="none"/></mask><path d=" M 113.627 202.506 L 108.617 172.022 C 108.246 168.854 109.797 165.768 112.562 164.177 C 117.359 161.207 130.046 152.611 130.046 152.611 C 130.046 152.611 136.445 150.751 137.476 155.424 C 138.182 158.641 143.326 183.98 143.326 183.98" fill="none"/><path d=" M 113.627 202.506 L 108.617 172.022 C 108.246 168.854 109.797 165.768 112.562 164.177 C 117.359 161.207 130.046 152.611 130.046 152.611 C 130.046 152.611 136.445 150.751 137.476 155.424 C 138.182 158.641 143.326 183.98 143.326 183.98" fill="none" mask="url(#_mask_3R4TDN8mmpC7Vzz83pbQyB3pZSIZewo2)" vector-effect="non-scaling-stroke" stroke-width="6" stroke="rgb(66,33,11)" stroke-linejoin="miter" stroke-linecap="butt" stroke-miterlimit="10"/><path d=" M 169.036 213.724 L 152.707 222.948 C 152.39 223.177 152.298 223.61 152.495 223.948 C 152.691 224.287 153.113 224.421 153.469 224.259 L 169.798 215.036 C 170.115 214.806 170.207 214.374 170.01 214.035 C 169.813 213.697 169.392 213.562 169.036 213.724 Z " fill="rgb(231,72,59)"/><path d=" M 151.732 223.968 C 151.328 219.138 147.518 215.417 145.232 211.405 C 145.008 211.065 144.558 210.961 144.208 211.167 C 143.858 211.374 143.732 211.818 143.92 212.178 C 145.613 215.159 147.989 217.781 149.322 220.964 C 150.275 223.206 150.667 225.66 149.322 227.857 C 148.392 229.403 147.249 230.356 145.344 229.986 Q 143.181 230.401 143.506 227.969 Q 141.959 225.503 144.996 224.988 C 145.96 224.853 145.545 223.385 144.593 223.52 C 138.474 224.36 141.387 233.606 147.551 231.454 C 150.645 230.412 151.99 226.994 151.732 223.968 Z " fill="rgb(231,72,59)"/><path d=" M 125.675 214.016 C 126.069 215.749 125.463 217.558 124.103 218.703 C 122.744 219.849 120.859 220.14 119.217 219.457 C 117.576 218.775 116.452 217.233 116.306 215.462 C 115.88 212.682 116.709 210.06 120.217 209.701 C 122.899 209.441 125.308 211.346 125.675 214.016 L 125.675 214.016 Z " fill="rgb(158,51,18)"/><path d=" M 121.371 220.034 C 122.291 219.796 123.155 219.381 123.915 218.813 C 124.98 217.95 124.184 215.731 124.184 215.731" fill="rgb(158,51,18)"/><path d=" M 115.107 215.911 C 114.679 213.129 116.43 210.548 119.016 210.149 C 121.602 209.751 124.049 211.685 124.478 214.467 C 124.907 217.249 123.155 219.83 120.569 220.229 C 117.983 220.627 115.536 218.693 115.107 215.911 Z " fill="rgb(241,90,36)"/><path d=" M 116.769 215.655 C 116.493 213.864 117.624 212.201 119.292 211.944 C 120.961 211.686 122.54 212.932 122.816 214.723 C 123.092 216.514 121.962 218.177 120.293 218.434 C 118.624 218.692 117.045 217.446 116.769 215.655 Z " fill="rgb(242,171,28)"/><path d=" M 151.194 226.366 C 151.588 228.1 150.982 229.908 149.622 231.054 C 148.263 232.199 146.378 232.49 144.736 231.808 C 143.095 231.125 141.971 229.584 141.825 227.812 C 141.399 225.033 142.228 222.41 145.736 222.051 C 148.418 221.792 150.827 223.696 151.194 226.366 L 151.194 226.366 Z " fill="rgb(158,51,18)"/><path d=" M 146.89 232.418 C 147.81 232.18 148.674 231.765 149.434 231.197 C 150.499 230.334 149.703 228.115 149.703 228.115" fill="rgb(158,51,18)"/><path d=" M 140.629 228.254 C 140.201 225.473 141.952 222.891 144.538 222.492 C 147.124 222.094 149.571 224.029 150 226.81 C 150.429 229.592 148.677 232.174 146.091 232.572 C 143.505 232.971 141.058 231.036 140.629 228.254 Z " fill="rgb(241,90,36)"/><path d=" M 142.291 227.998 C 142.015 226.207 143.146 224.544 144.814 224.287 C 146.483 224.03 148.062 225.275 148.338 227.066 C 148.614 228.858 147.484 230.521 145.815 230.778 C 144.146 231.035 142.567 229.789 142.291 227.998 Z " fill="rgb(242,171,28)"/><path d=" M 111.621 206.518 L 151.709 229.235 C 153.207 230.084 155.048 230.054 156.517 229.157 L 184.535 212.043 C 184.965 211.786 185.228 211.322 185.228 210.822 C 185.228 210.321 184.965 209.857 184.535 209.6 L 145.052 186.805 C 143.916 186.146 142.513 186.146 141.376 186.805 L 111.61 204.041 C 111.165 204.296 110.891 204.77 110.894 205.283 C 110.896 205.796 111.174 206.267 111.621 206.518 Z " fill="rgb(218,97,56)"/><path d=" M 110.926 205.005 L 110.926 201.565 L 113.762 203.683 L 110.926 205.005 L 110.926 205.005 Z " fill="rgb(218,97,56)"/><path d=" M 185.23 207.168 L 185.23 210.687 L 182.204 208.928 L 185.23 207.168 L 185.23 207.168 Z " fill="rgb(218,97,56)"/><g style="opacity:0.36;"><g opacity="0.36"><path d=" M 111.621 206.518 L 151.709 229.235 C 153.207 230.084 155.048 230.054 156.517 229.157 L 184.535 212.043 C 184.965 211.786 185.228 211.322 185.228 210.822 C 185.228 210.321 184.965 209.857 184.535 209.6 L 145.052 186.805 C 143.916 186.146 142.513 186.146 141.376 186.805 L 111.61 204.041 C 111.165 204.296 110.891 204.77 110.894 205.283 C 110.896 205.796 111.174 206.267 111.621 206.518 Z " fill="rgb(0,0,0)"/></g><g opacity="0.36"><path d=" M 110.926 205.005 L 110.926 201.565 L 113.762 203.683 L 110.926 205.005 L 110.926 205.005 Z " fill="rgb(0,0,0)"/></g><g opacity="0.36"><path d=" M 185.23 207.168 L 185.23 210.687 L 182.204 208.928 L 185.23 207.168 L 185.23 207.168 Z " fill="rgb(0,0,0)"/></g></g><path d=" M 111.621 202.764 L 151.709 225.481 C 153.207 226.33 155.048 226.3 156.517 225.402 L 184.535 208.289 C 184.965 208.032 185.228 207.568 185.228 207.067 C 185.228 206.567 184.965 206.103 184.535 205.846 L 145.052 183.106 C 143.916 182.447 142.513 182.447 141.376 183.106 L 111.61 200.343 C 111.192 200.604 110.939 201.063 110.941 201.556 C 110.943 202.049 111.2 202.506 111.621 202.764 Z " fill="rgb(218,97,56)"/><ellipse vector-effect="non-scaling-stroke" cx="149.32222900712014" cy="206.8543461224577" rx="22.705942201217482" ry="13.303037212658012" fill="rgb(255,145,46)"/><path d=" M 126.616 206.854 L 126.616 203.01 L 129.082 206.081 L 126.616 206.854 L 126.616 206.854 Z " fill="rgb(224,148,79)"/><path d=" M 172.028 203.01 L 172.028 206.854 L 169.137 206.854 L 171.255 203.772 L 172.028 203.01 L 172.028 203.01 Z " fill="rgb(224,148,79)"/><ellipse vector-effect="non-scaling-stroke" cx="149.32222900712014" cy="203.01025028088932" rx="22.705942201217482" ry="13.303037212658012" fill="rgb(255,185,44)"/><path d=" M 160.832 201.24 C 160.99 201.551 161.052 201.902 161.011 202.248 L 160.922 202.596 L 156.775 202.596 C 156.812 202.483 156.838 202.366 156.854 202.248 C 156.838 201.981 156.753 201.722 156.607 201.497 C 156.377 201.095 156.029 200.774 155.61 200.578 C 155.007 200.261 154.34 200.084 153.659 200.063 C 153.03 200.016 152.398 200.112 151.81 200.343 Q 150.936 200.713 151.138 201.318 C 151.333 201.811 151.635 202.256 152.023 202.618 C 152.47 203.074 152.89 203.557 153.278 204.064 C 153.657 204.51 153.744 205.134 153.503 205.666 C 153.046 206.42 152.328 206.979 151.485 207.235 C 150.092 207.817 148.601 208.129 147.092 208.154 C 145.462 208.207 143.835 207.976 142.284 207.471 L 139.897 208.491 L 137.106 207.135 L 139.426 206.137 C 139.007 205.86 138.629 205.524 138.305 205.14 C 138.067 204.866 137.881 204.551 137.756 204.209 C 137.676 203.966 137.627 203.714 137.611 203.459 C 137.582 203.284 137.582 203.106 137.611 202.932 L 137.689 202.73 L 141.836 202.73 C 141.793 202.866 141.76 203.005 141.735 203.145 C 141.754 203.484 141.87 203.811 142.071 204.086 C 142.412 204.586 142.891 204.975 143.45 205.207 C 144.199 205.585 145.02 205.799 145.859 205.834 C 146.624 205.888 147.391 205.765 148.101 205.476 Q 148.964 205.106 148.751 204.501 C 148.546 204.004 148.232 203.56 147.832 203.201 C 147.375 202.75 146.952 202.267 146.565 201.755 C 146.197 201.302 146.127 200.676 146.386 200.152 C 146.881 199.385 147.631 198.817 148.504 198.55 C 149.844 198.009 151.274 197.728 152.718 197.72 C 154.243 197.669 155.763 197.905 157.201 198.415 L 159.577 197.395 L 162.177 198.808 L 159.79 199.827 C 160.256 200.198 160.616 200.685 160.832 201.24 L 160.832 201.24 Z " fill="rgb(234,139,36)"/><path d=" M 149.356 216.112 C 137.678 216.112 128.533 210.429 128.533 203.178 C 128.533 195.927 137.678 190.245 149.356 190.245 C 161.034 190.245 170.179 195.927 170.179 203.178 C 170.179 210.429 161.034 216.112 149.356 216.112 Z  M 149.356 193.775 C 139.987 193.775 132.063 198.079 132.063 203.178 C 132.063 208.278 139.987 212.581 149.356 212.581 C 158.725 212.581 166.649 208.278 166.649 203.178 C 166.649 198.079 158.736 193.775 149.356 193.775 L 149.356 193.775 Z " fill="rgb(247,147,30)"/><ellipse vector-effect="non-scaling-stroke" cx="149.32222900712014" cy="199.52478728751393" rx="22.705942201217482" ry="13.303037212658012" fill="rgb(255,145,46)"/><path d=" M 126.616 199.525 L 126.616 195.692 L 129.082 198.763 L 126.616 199.525 L 126.616 199.525 Z " fill="rgb(224,148,79)"/><path d=" M 172.028 195.692 L 172.028 199.525 L 169.137 199.525 L 171.255 196.443 L 172.028 195.692 L 172.028 195.692 Z " fill="rgb(224,148,79)"/><ellipse vector-effect="non-scaling-stroke" cx="149.32222900712014" cy="195.69189872245155" rx="22.705942201217482" ry="13.303037212658012" fill="rgb(255,185,44)"/><path d=" M 160.832 193.91 C 160.99 194.221 161.052 194.572 161.011 194.919 L 160.922 195.266 L 156.775 195.266 C 156.812 195.153 156.838 195.037 156.854 194.919 C 156.838 194.651 156.753 194.392 156.607 194.168 C 156.377 193.766 156.029 193.445 155.61 193.249 C 155.007 192.931 154.34 192.755 153.659 192.733 C 153.03 192.686 152.398 192.782 151.81 193.013 Q 150.936 193.383 151.138 193.988 C 151.333 194.482 151.635 194.926 152.023 195.288 C 152.47 195.744 152.89 196.227 153.278 196.734 C 153.657 197.18 153.744 197.804 153.503 198.337 C 153.046 199.091 152.328 199.649 151.485 199.906 C 150.092 200.487 148.601 200.799 147.092 200.825 C 145.462 200.878 143.835 200.646 142.284 200.141 L 139.897 201.161 L 137.106 199.805 L 139.426 198.808 C 139.007 198.531 138.629 198.195 138.305 197.81 C 138.067 197.536 137.881 197.221 137.756 196.88 C 137.676 196.637 137.627 196.384 137.611 196.129 C 137.582 195.955 137.582 195.777 137.611 195.602 L 137.689 195.401 L 141.836 195.401 C 141.793 195.536 141.76 195.675 141.735 195.815 C 141.754 196.155 141.87 196.482 142.071 196.757 C 142.412 197.256 142.891 197.645 143.45 197.877 C 144.199 198.256 145.02 198.47 145.859 198.505 C 146.624 198.558 147.391 198.436 148.101 198.146 Q 148.964 197.776 148.751 197.171 C 148.546 196.675 148.232 196.23 147.832 195.871 C 147.375 195.421 146.952 194.937 146.565 194.425 C 146.197 193.973 146.127 193.346 146.386 192.823 C 146.881 192.055 147.631 191.488 148.504 191.22 C 149.844 190.679 151.274 190.398 152.718 190.391 C 154.243 190.339 155.763 190.575 157.201 191.086 L 159.577 190.066 L 162.177 191.478 L 159.79 192.498 C 160.256 192.868 160.616 193.355 160.832 193.91 L 160.832 193.91 Z " fill="rgb(234,139,36)"/><path d=" M 149.356 208.782 C 137.678 208.782 128.533 203.1 128.533 195.849 C 128.533 188.598 137.678 182.916 149.356 182.916 C 161.034 182.916 170.179 188.598 170.179 195.849 C 170.179 203.1 161.034 208.782 149.356 208.782 Z  M 149.356 186.446 C 139.987 186.446 132.063 190.749 132.063 195.849 C 132.063 200.948 139.987 205.252 149.356 205.252 C 158.725 205.252 166.649 200.948 166.649 195.849 C 166.649 190.749 158.736 186.468 149.356 186.468 L 149.356 186.446 Z " fill="rgb(247,147,30)"/><ellipse vector-effect="non-scaling-stroke" cx="149.32222900712014" cy="192.172813899558" rx="22.705942201217482" ry="13.303037212658012" fill="rgb(255,145,46)"/><path d=" M 126.616 192.173 L 126.616 188.329 L 129.082 191.4 L 126.616 192.173 L 126.616 192.173 Z " fill="rgb(224,148,79)"/><path d=" M 172.028 188.329 L 172.028 192.173 L 169.137 192.173 L 171.255 189.091 L 172.028 188.329 L 172.028 188.329 Z " fill="rgb(224,148,79)"/><ellipse vector-effect="non-scaling-stroke" cx="149.32222900712014" cy="188.3287180579896" rx="22.705942201217482" ry="13.303037212658012" fill="rgb(255,185,44)"/><path d=" M 160.832 186.558 C 160.99 186.869 161.052 187.22 161.011 187.567 L 160.922 187.914 L 156.775 187.914 C 156.812 187.801 156.838 187.685 156.854 187.567 C 156.838 187.299 156.753 187.04 156.607 186.816 C 156.377 186.414 156.029 186.093 155.61 185.897 C 155.007 185.579 154.34 185.403 153.659 185.381 C 153.03 185.335 152.398 185.43 151.81 185.661 Q 150.936 186.031 151.138 186.636 C 151.333 187.13 151.635 187.574 152.023 187.936 C 152.47 188.393 152.89 188.875 153.278 189.382 C 153.657 189.828 153.744 190.452 153.503 190.985 C 153.046 191.739 152.328 192.297 151.485 192.554 C 150.092 193.136 148.601 193.447 147.092 193.473 C 145.462 193.526 143.835 193.294 142.284 192.789 L 139.897 193.809 L 137.106 192.453 L 139.426 191.456 C 139.007 191.179 138.629 190.843 138.305 190.458 C 138.067 190.185 137.881 189.869 137.756 189.528 C 137.676 189.285 137.627 189.032 137.611 188.777 C 137.582 188.603 137.582 188.425 137.611 188.25 L 137.689 188.049 L 141.836 188.049 C 141.793 188.184 141.76 188.323 141.735 188.463 C 141.754 188.803 141.87 189.13 142.071 189.405 C 142.412 189.904 142.891 190.293 143.45 190.525 C 144.199 190.904 145.02 191.118 145.859 191.153 C 146.624 191.206 147.391 191.084 148.101 190.794 Q 148.964 190.424 148.751 189.819 C 148.546 189.323 148.232 188.878 147.832 188.519 C 147.375 188.069 146.952 187.585 146.565 187.074 C 146.197 186.621 146.127 185.994 146.386 185.471 C 146.881 184.703 147.631 184.136 148.504 183.868 C 149.844 183.328 151.274 183.046 152.718 183.039 C 154.243 182.988 155.763 183.223 157.201 183.734 L 159.577 182.714 L 162.233 184.227 L 159.846 185.247 C 160.278 185.596 160.617 186.046 160.832 186.558 Z " fill="rgb(234,139,36)"/><path d=" M 149.356 201.43 C 137.678 201.43 128.533 195.748 128.533 188.497 C 128.533 181.246 137.678 175.564 149.356 175.564 C 161.034 175.564 170.179 181.246 170.179 188.497 C 170.179 195.748 161.034 201.43 149.356 201.43 Z  M 149.356 179.094 C 139.987 179.094 132.063 183.398 132.063 188.497 C 132.063 193.596 139.987 197.9 149.356 197.9 C 158.725 197.9 166.649 193.596 166.649 188.497 C 166.649 183.398 158.736 179.094 149.356 179.094 Z " fill="rgb(247,147,30)"/><ellipse vector-effect="non-scaling-stroke" cx="149.32222900712014" cy="186.73728479413327" rx="22.705942201217482" ry="13.303037212658012" fill="rgb(255,145,46)"/><path d=" M 126.616 186.737 L 126.616 182.893 L 129.082 185.964 L 126.616 186.737 L 126.616 186.737 Z " fill="rgb(224,148,79)"/><path d=" M 172.028 182.893 L 172.028 186.737 L 169.137 186.737 L 171.255 183.655 L 172.028 182.893 L 172.028 182.893 Z " fill="rgb(224,148,79)"/><ellipse vector-effect="non-scaling-stroke" cx="149.32222900712014" cy="182.89318895256488" rx="22.705942201217482" ry="13.303037212658012" fill="rgb(255,185,44)"/><path d=" M 160.832 181.111 C 160.99 181.422 161.052 181.773 161.011 182.12 L 160.922 182.467 L 156.775 182.467 C 156.812 182.354 156.838 182.238 156.854 182.12 C 156.838 181.852 156.753 181.594 156.607 181.369 C 156.377 180.967 156.029 180.646 155.61 180.45 C 155.007 180.132 154.34 179.956 153.659 179.934 C 153.03 179.888 152.398 179.984 151.81 180.215 Q 150.936 180.584 151.138 181.19 C 151.333 181.683 151.635 182.127 152.023 182.49 C 152.47 182.946 152.89 183.429 153.278 183.935 C 153.657 184.381 153.744 185.005 153.503 185.538 C 153.046 186.292 152.328 186.851 151.485 187.107 C 150.092 187.689 148.601 188.001 147.092 188.026 C 145.462 188.079 143.835 187.848 142.284 187.342 L 139.897 188.362 L 137.106 187.006 L 139.426 186.009 C 139.007 185.732 138.629 185.396 138.305 185.011 C 138.067 184.738 137.881 184.422 137.756 184.081 C 137.676 183.838 137.627 183.586 137.611 183.33 C 137.582 183.156 137.582 182.978 137.611 182.804 L 137.689 182.602 L 141.836 182.602 C 141.793 182.738 141.76 182.876 141.735 183.016 C 141.754 183.356 141.87 183.683 142.071 183.958 C 142.412 184.457 142.891 184.847 143.45 185.079 C 144.199 185.457 145.02 185.671 145.859 185.706 C 146.624 185.76 147.391 185.637 148.101 185.348 Q 148.964 184.978 148.751 184.373 C 148.546 183.876 148.232 183.432 147.832 183.073 C 147.375 182.622 146.952 182.139 146.565 181.627 C 146.197 181.174 146.127 180.547 146.386 180.024 C 146.881 179.257 147.631 178.689 148.504 178.421 C 149.844 177.881 151.274 177.599 152.718 177.592 C 154.243 177.541 155.763 177.776 157.201 178.287 L 159.577 177.267 L 162.177 178.679 L 159.79 179.699 C 160.256 180.069 160.616 180.557 160.832 181.111 L 160.832 181.111 Z " fill="rgb(234,139,36)"/><path d=" M 149.356 195.983 C 137.678 195.983 128.533 190.301 128.533 183.05 C 128.533 175.799 137.678 170.117 149.356 170.117 C 161.034 170.117 170.19 175.799 170.19 183.106 C 170.19 190.413 161.034 195.983 149.356 195.983 Z  M 149.356 173.647 C 139.987 173.647 132.063 177.951 132.063 183.05 C 132.063 188.149 139.987 192.453 149.356 192.453 C 158.725 192.453 166.649 188.149 166.649 183.05 C 166.649 177.951 158.736 173.658 149.356 173.658 L 149.356 173.647 Z " fill="rgb(247,147,30)"/><ellipse vector-effect="non-scaling-stroke" cx="152.9982157010981" cy="179.37410412967137" rx="22.705942201217482" ry="13.303037212658012" fill="rgb(255,145,46)"/><path d=" M 130.303 179.374 L 130.303 175.541 L 132.769 178.612 L 130.303 179.374 L 130.303 179.374 Z " fill="rgb(224,148,79)"/><path d=" M 175.704 175.541 L 175.704 179.374 L 172.824 179.374 L 174.942 176.292 L 175.704 175.541 L 175.704 175.541 Z " fill="rgb(224,148,79)"/><ellipse vector-effect="non-scaling-stroke" cx="152.9982157010981" cy="175.54121556460896" rx="22.705942201217482" ry="13.303037212658012" fill="rgb(255,185,44)"/><path d=" M 164.474 173.759 C 164.632 174.07 164.695 174.421 164.654 174.768 L 164.564 175.115 L 160.417 175.115 C 160.455 175.002 160.481 174.886 160.496 174.768 C 160.48 174.5 160.395 174.242 160.249 174.017 C 160.02 173.615 159.671 173.294 159.252 173.098 C 158.649 172.78 157.983 172.604 157.302 172.582 C 156.672 172.536 156.04 172.632 155.453 172.863 Q 154.578 173.233 154.78 173.838 C 154.975 174.331 155.278 174.775 155.666 175.138 C 156.113 175.594 156.532 176.077 156.921 176.583 C 157.299 177.03 157.386 177.653 157.145 178.186 C 156.689 178.94 155.97 179.499 155.128 179.755 C 153.735 180.337 152.244 180.649 150.734 180.674 C 149.104 180.727 147.477 180.496 145.926 179.991 L 143.539 181.01 L 140.749 179.654 L 143.069 178.657 C 142.649 178.38 142.272 178.044 141.948 177.659 C 141.709 177.386 141.523 177.07 141.399 176.729 C 141.319 176.486 141.27 176.234 141.253 175.978 C 141.224 175.804 141.224 175.626 141.253 175.452 L 141.331 175.25 L 145.478 175.25 C 145.436 175.386 145.402 175.524 145.377 175.664 C 145.396 176.004 145.513 176.331 145.713 176.606 C 146.054 177.105 146.533 177.495 147.092 177.727 C 147.841 178.105 148.663 178.319 149.502 178.354 C 150.266 178.408 151.033 178.285 151.743 177.996 Q 152.606 177.626 152.393 177.021 C 152.188 176.524 151.874 176.08 151.474 175.721 C 151.017 175.27 150.594 174.787 150.208 174.275 C 149.839 173.822 149.769 173.195 150.028 172.672 C 150.523 171.905 151.273 171.337 152.146 171.07 C 153.486 170.529 154.916 170.247 156.36 170.24 C 157.885 170.189 159.406 170.425 160.843 170.935 L 163.219 169.915 L 165.819 171.327 L 163.432 172.347 C 163.899 172.717 164.258 173.205 164.474 173.759 L 164.474 173.759 Z " fill="rgb(234,139,36)"/><path d=" M 153.043 187.746 C 142.049 187.746 133.094 182.344 133.094 175.698 C 133.094 169.052 142.06 163.65 153.043 163.65 C 164.026 163.65 172.992 169.052 172.992 175.698 C 172.992 182.344 164.037 187.746 153.043 187.746 Z  M 153.043 165.41 C 143.024 165.41 134.865 170.027 134.865 175.687 C 134.865 181.347 143.024 185.964 153.043 185.964 C 163.062 185.964 171.199 181.369 171.199 175.698 C 171.199 170.027 163.062 165.421 153.043 165.421 L 153.043 165.41 Z " fill="rgb(247,147,30)"/><ellipse vector-effect="non-scaling-stroke" cx="161.0450402324279" cy="171.5178032989441" rx="22.705942201217482" ry="13.303037212658012" fill="rgb(255,145,46)"/><path d=" M 138.339 171.518 L 138.339 167.674 L 140.816 170.745 L 138.339 171.518 L 138.339 171.518 Z " fill="rgb(224,148,79)"/><path d=" M 183.751 167.674 L 183.751 171.518 L 180.871 171.518 L 182.978 168.425 L 183.751 167.674 L 183.751 167.674 Z " fill="rgb(224,148,79)"/><ellipse vector-effect="non-scaling-stroke" cx="161.0450402324279" cy="167.67370745737566" rx="22.705942201217482" ry="13.303037212658012" fill="rgb(255,185,44)"/><path d=" M 172.566 165.892 C 172.724 166.203 172.786 166.554 172.745 166.9 L 172.656 167.248 L 168.509 167.248 C 168.546 167.135 168.572 167.018 168.588 166.9 C 168.572 166.633 168.487 166.374 168.341 166.15 C 168.111 165.748 167.763 165.426 167.344 165.231 C 166.741 164.913 166.074 164.736 165.393 164.715 C 164.764 164.668 164.132 164.764 163.544 164.995 Q 162.67 165.365 162.872 165.97 C 163.067 166.464 163.37 166.908 163.757 167.27 C 164.204 167.726 164.624 168.209 165.012 168.716 C 165.391 169.162 165.478 169.786 165.237 170.319 C 164.78 171.072 164.062 171.631 163.219 171.888 C 161.826 172.469 160.335 172.781 158.826 172.807 C 157.196 172.859 155.569 172.628 154.018 172.123 L 151.631 173.143 L 148.84 171.787 L 151.16 170.789 C 150.741 170.512 150.363 170.176 150.039 169.792 C 149.801 169.518 149.615 169.203 149.49 168.862 C 149.41 168.619 149.361 168.366 149.345 168.111 C 149.316 167.936 149.316 167.758 149.345 167.584 L 149.423 167.382 L 153.57 167.382 C 153.527 167.518 153.494 167.657 153.469 167.797 C 153.488 168.137 153.604 168.464 153.805 168.738 C 154.146 169.238 154.625 169.627 155.184 169.859 C 155.933 170.238 156.754 170.451 157.593 170.487 C 158.358 170.54 159.125 170.418 159.835 170.128 Q 160.698 169.758 160.485 169.153 C 160.28 168.656 159.966 168.212 159.566 167.853 C 159.109 167.402 158.686 166.919 158.299 166.407 C 157.931 165.954 157.861 165.328 158.12 164.805 C 158.615 164.037 159.365 163.469 160.238 163.202 C 161.578 162.661 163.008 162.38 164.452 162.373 C 165.977 162.321 167.497 162.557 168.935 163.068 L 171.311 162.048 L 173.911 163.46 L 171.524 164.48 C 171.99 164.85 172.35 165.337 172.566 165.892 Z " fill="rgb(234,139,36)"/><path d=" M 161.112 179.587 C 150.275 179.587 141.466 174.308 141.466 167.831 C 141.466 161.353 150.286 156.074 161.112 156.074 C 171.939 156.074 180.759 161.353 180.759 167.831 C 180.759 174.308 171.916 179.587 161.112 179.587 Z  M 161.112 157.251 C 150.925 157.251 142.643 161.992 142.643 167.831 C 142.643 173.67 150.925 178.41 161.112 178.41 C 171.3 178.41 179.582 173.67 179.582 167.831 C 179.582 161.992 171.266 157.251 161.112 157.251 Z " fill="rgb(247,147,30)"/><ellipse vector-effect="non-scaling-stroke" cx="150.0282874270001" cy="160.3217340694198" rx="22.705942201217482" ry="13.303037212658012" fill="rgb(255,145,46)"/><path d=" M 127.322 160.322 L 127.322 156.478 L 129.799 159.548 L 127.322 160.322 L 127.322 160.322 Z " fill="rgb(224,148,79)"/><path d=" M 172.734 156.478 L 172.734 160.322 L 169.854 160.322 L 171.961 157.24 L 172.734 156.478 L 172.734 156.478 Z " fill="rgb(224,148,79)"/><ellipse vector-effect="non-scaling-stroke" cx="150.0282874270001" cy="156.47763822785137" rx="22.705942201217482" ry="13.303037212658012" fill="rgb(255,185,44)"/><path d=" M 161.549 154.696 C 161.707 155.007 161.77 155.358 161.729 155.704 L 161.639 156.052 L 157.492 156.052 C 157.529 155.939 157.556 155.822 157.571 155.704 C 157.555 155.437 157.47 155.178 157.324 154.953 C 157.095 154.551 156.746 154.23 156.327 154.034 C 155.724 153.717 155.057 153.54 154.377 153.519 C 153.747 153.472 153.115 153.568 152.528 153.799 Q 151.653 154.169 151.855 154.774 C 152.05 155.268 152.353 155.712 152.74 156.074 C 153.188 156.53 153.607 157.013 153.996 157.52 C 154.374 157.966 154.461 158.59 154.22 159.123 C 153.764 159.876 153.045 160.435 152.202 160.692 C 150.809 161.273 149.319 161.585 147.809 161.611 C 146.179 161.663 144.552 161.432 143.001 160.927 L 140.614 161.947 L 137.824 160.591 L 140.143 159.593 C 139.724 159.316 139.346 158.98 139.023 158.596 C 138.784 158.322 138.598 158.007 138.474 157.666 C 138.394 157.422 138.345 157.17 138.328 156.915 C 138.299 156.74 138.299 156.562 138.328 156.388 L 138.406 156.186 L 142.553 156.186 C 142.511 156.322 142.477 156.461 142.452 156.601 C 142.471 156.941 142.588 157.268 142.788 157.542 C 143.129 158.042 143.608 158.431 144.167 158.663 C 144.916 159.041 145.738 159.255 146.576 159.291 C 147.341 159.344 148.108 159.222 148.818 158.932 Q 149.681 158.562 149.468 157.957 C 149.263 157.46 148.949 157.016 148.549 156.657 C 148.092 156.206 147.669 155.723 147.283 155.211 C 146.914 154.758 146.844 154.132 147.103 153.609 C 147.598 152.841 148.348 152.273 149.221 152.006 C 150.561 151.465 151.991 151.184 153.435 151.177 C 154.96 151.125 156.481 151.361 157.918 151.871 L 160.294 150.852 L 162.894 152.264 L 160.507 153.284 C 160.973 153.654 161.333 154.141 161.549 154.696 L 161.549 154.696 Z " fill="rgb(234,139,36)"/><path d=" M 150.073 168.391 C 139.236 168.391 130.427 163.112 130.427 156.635 C 130.427 150.157 139.236 144.878 150.073 144.878 C 160.911 144.878 169.719 150.157 169.719 156.635 C 169.719 163.112 160.899 168.391 150.073 168.391 Z  M 150.073 146.055 C 139.886 146.055 131.604 150.796 131.604 156.635 C 131.604 162.474 139.886 167.214 150.073 167.214 C 160.261 167.214 168.543 162.474 168.543 156.635 C 168.543 150.796 160.249 146.066 150.073 146.066 L 150.073 146.055 Z " fill="rgb(247,147,30)"/><path d=" M 113.212 152.992 L 116.776 157.475 C 116.776 157.475 119.477 158.047 119.836 158.977 C 120.094 160.334 119.732 161.736 118.85 162.799 C 118.032 163.538 115.88 164.58 115.14 164.278 C 114.4 163.975 115.364 161.902 114.255 161.319 C 113.613 160.985 112.823 161.176 112.405 161.767 L 111.363 159.526 L 108.763 155.727" fill="rgb(255,209,136)"/><path d=" M 124.801 145.842 L 128.365 150.325 C 128.365 150.325 131.066 150.896 131.424 151.827 C 131.682 153.184 131.321 154.585 130.438 155.648 C 129.62 156.388 127.468 157.43 126.728 157.128 C 125.989 156.825 126.953 154.752 125.843 154.169 C 125.201 153.835 124.411 154.026 123.994 154.617 L 122.952 152.376 L 120.351 148.577" fill="rgb(255,209,136)"/><path d=" M 97.32 146.122 C 97.527 145.409 97.821 144.724 98.195 144.082 L 98.464 143.937 L 99.674 141.359 L 99.775 141.55 C 102.935 134.007 108.035 131.665 107.071 123.618 C 104.949 121.267 102.612 119.121 100.089 117.207 C 98.405 117.07 96.711 117.142 95.045 117.42 C 90.361 118.205 86.999 122.295 84.331 125.938 C 80.42 131.557 77.206 137.632 74.76 144.026 C 76.699 146.088 81.675 147.792 84.208 149.159 C 86.579 149.537 88.997 149.507 91.358 149.07 C 93.457 148.33 95.459 147.34 97.32 146.122 L 97.32 146.122 Z " fill="rgb(68,60,229)"/><path d=" M 103.866 119.09 C 104.46 119.538 127.815 144.127 127.076 146.212 C 126.336 148.296 123.086 151.39 120.867 150.504 C 118.648 149.619 110.523 138.624 110.523 138.624 L 100.223 128.347 L 103.866 119.09 Z " fill="rgb(68,60,229)"/><path d=" M 109.772 159.179 C 112.518 158.226 115.151 156.377 115.969 153.653 L 99.506 132.36 L 92.457 119.045 C 91.235 119.998 84.981 126.756 88.668 133.559 C 92.356 140.362 105.446 157.116 109.772 159.179 Z " fill="rgb(68,60,229)"/><path d=" M 111.307 114.013 C 111.307 114.013 108.595 120.928 101.333 119.774 C 101.333 119.774 99.965 106.224 105.255 106.325 C 110.545 106.426 112.921 111.021 111.307 114.013 Z " fill="rgb(255,209,136)"/><path d=" M 111.397 106.123 C 111.603 104.659 110.692 103.269 109.267 102.873 C 107.705 102.248 105.988 102.115 104.347 102.492 C 101.77 102.223 98.968 102.268 97.388 104.386 C 95.807 106.504 96.054 109.329 96.491 111.906 C 96.475 112.815 96.569 113.722 96.771 114.607 C 97.192 115.528 97.53 116.484 97.78 117.465 L 99.327 114.607 C 99.327 114.607 99.764 114.092 104.078 115.392 C 104.078 115.392 108.774 113.565 108.774 113.565 C 110.248 114.272 111.98 114.179 113.371 113.32 C 114.761 112.46 115.618 110.952 115.644 109.317 C 115.611 106.785 112.551 106.247 111.397 106.123 Z " fill="rgb(76,13,10)"/><path d=" M 97.511 146.201 C 98.083 145.741 88.187 132.752 88.187 132.752 L 90.977 149.204 C 93.351 148.699 95.583 147.674 97.511 146.201 Z " fill="rgb(41,41,178)"/><path d=" M 101.288 111.469 C 98.699 112.086 99.652 115.728 101.142 116.916 C 101.307 117.06 101.528 117.123 101.744 117.088 C 101.961 117.054 102.151 116.925 102.263 116.737 C 102.621 116.848 103.003 116.654 103.126 116.3 C 103.574 114.887 104.022 110.83 101.288 111.469 Z " fill="rgb(255,209,136)"/><linearGradient id="_lgradient_56" x1="0" y1="0.5" x2="0.8092372358523945" y2="-0.08748199641348675" gradientTransform="matrix(72.937,0,0,49.525,143.338,237.372)" gradientUnits="userSpaceOnUse"><stop offset="100%" stop-opacity="0" style="stop-color:rgb(128,128,128)"/><stop offset="100%" stop-opacity="0.043706293706293725" style="stop-color:rgb(122,129,125)"/></linearGradient><path d=" M 172.734 286.897 L 216.274 253.566 L 186.743 237.372 L 143.338 269.402 C 150.421 273.751 165.775 282.403 172.734 286.897 Z " fill="url(#_lgradient_56)"/><ellipse vector-effect="non-scaling-stroke" cx="199.95670426136522" cy="246.9203596315162" rx="18.693737212058608" ry="10.949509146391634" fill="rgb(255,145,46)"/><path d=" M 181.263 246.92 L 181.263 243.76 L 183.303 246.293 L 181.263 246.92 L 181.263 246.92 Z " fill="rgb(224,148,79)"/><path d=" M 218.639 243.76 L 218.639 246.92 L 216.274 246.92 L 218.012 244.388 L 218.639 243.76 L 218.639 243.76 Z " fill="rgb(224,148,79)"/><ellipse vector-effect="non-scaling-stroke" cx="199.95670426136522" cy="243.75990765681564" rx="18.693737212058608" ry="10.949509146391648" fill="rgb(255,185,44)"/><path d=" M 209.438 242.292 C 209.567 242.548 209.618 242.836 209.584 243.121 L 209.505 243.412 L 206.143 243.412 C 206.175 243.318 206.197 243.22 206.21 243.121 C 206.177 242.895 206.084 242.682 205.941 242.505 C 205.75 242.172 205.46 241.905 205.112 241.743 C 204.616 241.486 204.068 241.344 203.509 241.328 C 202.99 241.29 202.469 241.371 201.985 241.563 Q 201.268 241.866 201.436 242.37 C 201.59 242.794 201.839 243.178 202.165 243.491 C 202.532 243.866 202.876 244.262 203.196 244.679 C 203.506 245.043 203.58 245.553 203.386 245.99 C 203.011 246.61 202.42 247.069 201.727 247.279 C 200.579 247.756 199.351 248.011 198.108 248.03 C 196.766 248.074 195.428 247.884 194.151 247.47 L 192.19 248.31 L 189.893 247.189 L 191.798 246.371 C 191.454 246.144 191.144 245.868 190.879 245.553 C 190.684 245.329 190.532 245.07 190.431 244.791 C 190.367 244.591 190.33 244.384 190.318 244.175 C 190.296 244.034 190.296 243.89 190.318 243.749 L 190.386 243.592 L 193.748 243.592 C 193.714 243.706 193.688 243.822 193.669 243.939 C 193.687 244.219 193.784 244.487 193.95 244.713 C 194.22 245.137 194.61 245.473 195.07 245.676 C 195.687 245.987 196.364 246.163 197.054 246.192 C 197.677 246.234 198.302 246.135 198.881 245.9 Q 199.587 245.598 199.419 245.105 C 199.258 244.678 199.001 244.295 198.668 243.984 C 198.292 243.614 197.944 243.217 197.626 242.796 C 197.32 242.423 197.263 241.905 197.48 241.474 C 197.887 240.846 198.502 240.382 199.217 240.162 C 200.321 239.716 201.5 239.484 202.691 239.479 C 203.949 239.435 205.204 239.629 206.39 240.05 L 208.351 239.21 L 210.492 240.33 L 208.53 241.171 C 208.926 241.459 209.239 241.845 209.438 242.292 Z " fill="rgb(234,139,36)"/><path d=" M 199.99 253.566 C 191.025 253.566 183.818 249.229 183.818 243.894 C 183.818 238.56 191.069 234.223 199.99 234.223 C 208.911 234.223 216.162 238.56 216.162 243.894 C 216.162 249.229 208.911 253.566 199.99 253.566 Z  M 199.99 235.186 C 191.607 235.186 184.782 239.086 184.782 243.894 C 184.782 248.702 191.607 252.602 199.99 252.602 C 208.373 252.602 215.199 248.702 215.199 243.894 C 215.199 239.086 208.373 235.186 199.99 235.186 Z " fill="rgb(247,147,30)"/></g></g></svg>