<?xml version="1.0" encoding="utf-8"?>
<!-- Generator: Adobe Illustrator 24.0.1, SVG Export Plug-In . SVG Version: 6.00 Build 0)  -->
<svg version="1.1" id="Layer_1" xmlns="http://www.w3.org/2000/svg" xmlns:xlink="http://www.w3.org/1999/xlink" x="0px" y="0px"
	 viewBox="0 0 400 300" style="enable-background:new 0 0 400 300;" xml:space="preserve">
<style type="text/css">
	.st0{fill:none;}
	.st1{fill:#282B4E;}
	.st2{fill:#E8B66B;}
	.st3{fill:#D7A964;}
	.st4{fill:#FBCC85;}
	.st5{fill:#DA6138;}
	.st6{fill:#F27553;}
	.st7{fill:#F26949;}
	.st8{fill:#FCD79F;}
	.st9{fill:#3C4266;}
	.st10{clip-path:url(#SVGID_2_);}
	.st11{fill:#77463F;}
	.st12{fill:#8C5853;}
	.st13{fill:#191919;}
	.st14{fill:#DFDBFF;}
	.st15{fill:#CBC7E9;}
	.st16{fill:#FFFFFF;}
	.st17{fill:#1D0300;}
	.st18{fill:#663830;}
	.st19{fill:#ED6D4A;}
</style>
<rect class="st0" width="400" height="300"/>
<path class="st1" d="M206.2,280.1l167.9-94.2c2.5-1.4,4-4,4.1-6.8c0.1-2.8-1.4-5.5-3.8-7L211.6,71.3c-2.5-1.6-5.7-1.6-8.2-0.1
	l-177.5,103c-2.5,1.4-4,4.1-4,6.9c0,2.9,1.5,5.5,4,6.9L184.2,280C191,284,199.3,284,206.2,280.1z"/>
<path class="st2" d="M-317.8-377.8c3.2-15.3-13.3-32.5-37.5-38.6c-24.5-6.2-29.1,6-33.1,21.5c-1.6,6.2-2.8,12-2.1,17.1H-317.8z"/>
<path class="st3" d="M-317.8-377.8h-15.9c3.2-15.3-13.3-32.5-37.5-38.6c-0.9-0.2-1.9-0.5-2.8-0.6c4.5-1.5,10.4-1.4,18.6,0.6
	C-331.1-410.2-314.6-393.1-317.8-377.8z"/>
<path class="st2" d="M-237-377.8c0.7-5.1-0.6-10.9-2.1-17.1c-3.9-15.5-8.5-27.7-33.1-21.5c-24.1,6.1-40.7,23.3-37.5,38.6H-237z"/>
<path class="st3" d="M-293.8-398.5v20.8h-15.9c-2-9.6,3.7-19.8,14.1-27.7C-294.4-403.4-293.8-401-293.8-398.5z"/>
<path class="st3" d="M-237-377.8h-14.2c0.7-5.1-0.6-10.9-2.1-17.1c-2.7-10.6-5.7-19.6-15.1-22.3c21.3-4.1,25.6,7.6,29.3,22.3
	C-237.6-388.7-236.4-382.9-237-377.8L-237-377.8z"/>
<path class="st4" d="M-301.2-377.8v-20.8c0-4.1-3.3-7.4-7.4-7.4h-10.1c-4.1,0-7.4,3.3-7.4,7.4v20.8H-301.2z"/>
<path class="st2" d="M-301.2-398.5v20.8h-9.5v-20.8c0-4.1-3.3-7.4-7.4-7.4h9.5C-304.6-406-301.2-402.6-301.2-398.5L-301.2-398.5z"/>
<path class="st5" d="M-229.9-359.8v112.1c0,4.1-3.3,7.4-7.4,7.4h-152.8c-4.1,0-7.4-3.3-7.4-7.4v-112.1H-229.9z"/>
<path class="st6" d="M-397.5-297.7c6.8,4.8,17.1,10.1,31.6,12.3c0.7,0.1,1.5,0.2,2.2,0.2c7.2,0,13.4-5.2,14.6-12.3l8.9-52h52.9
	l8.9,52c1.2,7.1,7.4,12.3,14.6,12.3c0.7,0,1.5-0.1,2.2-0.2c14.5-2.2,24.9-7.5,31.6-12.3v-62.1h-167.6V-297.7z"/>
<path class="st4" d="M-327.1-359.8h26.8v119.6h-26.8V-359.8z"/>
<path class="st2" d="M-310.7-359.8h10.4v119.6h-10.4V-359.8z"/>
<path class="st2" d="M-327.1-359.8h26.8v10.2h-26.8V-359.8z"/>
<path class="st7" d="M-227.7-357h-172c-2,0-3.7-1.7-3.7-3.7v-17.2c0-2,1.7-3.7,3.7-3.7h172c2,0,3.7,1.7,3.7,3.7v17.2
	C-224-358.7-225.6-357-227.7-357z"/>
<path class="st8" d="M-332.1-381.7h36.8v24.7h-36.8V-381.7z"/>
<path class="st4" d="M-305.5-381.7h10.2v24.7h-10.2V-381.7z"/>
<path class="st4" d="M-371.8-384.1l-28.8,67.4c-1.2,2.8-0.6,6.1,1.6,8.2c5.1,4.9,15.9,13,34.2,15.7c4,0.6,7.7-2.1,8.4-6.1l14.2-83.2
	c0.4-2.3-1.4-4.3-3.7-4.3h-22.6C-369.8-386.3-371.2-385.4-371.8-384.1z"/>
<path class="st2" d="M-342.1-382l-14.2,83.2c-0.7,4-4.4,6.7-8.4,6.1c-2.9-0.4-5.7-1-8.2-1.7c1.3-1.1,2.2-2.6,2.5-4.4l14.2-83.2
	c0.4-2.3-1.4-4.3-3.7-4.3h14.2C-343.5-386.3-341.8-384.3-342.1-382z"/>
<path class="st4" d="M-255.7-384.1l28.8,67.4c1.2,2.8,0.6,6.1-1.6,8.2c-5.1,4.9-15.9,13-34.2,15.7c-4,0.6-7.7-2.1-8.4-6.1
	l-14.2-83.2c-0.4-2.3,1.4-4.3,3.7-4.3h22.6C-257.6-386.3-256.3-385.4-255.7-384.1L-255.7-384.1z"/>
<path class="st2" d="M-228.5-308.4c-5.1,4.9-15.9,13-34.2,15.7c-2.3,0.4-4.6-0.4-6.2-2c12.8-3.6,20.9-9.8,25-13.8
	c2.2-2.1,2.9-5.4,1.7-8.2l-28.8-67.4c-0.6-1.4-1.9-2.3-3.4-2.3h15.3c1.5,0,2.8,0.9,3.4,2.3l28.8,67.4
	C-225.6-313.8-226.3-310.6-228.5-308.4L-228.5-308.4z"/>
<path class="st9" d="M-227.7-384.4h-6.6c-0.4-3.4-1.1-7-2.2-11.2c-2-7.9-4.3-15.4-9.6-20.2c-5.9-5.3-14.4-6.3-26.7-3.2
	c-10.8,2.7-20.6,7.8-27.8,14.2c-1.9-2.4-4.7-3.9-8-3.9h-10.1c-3.2,0-6.1,1.5-8,3.9c-2.7-2.4-5.8-4.7-9.2-6.7c-1.3-0.8-2.9-0.3-3.7,1
	c-0.8,1.3-0.3,2.9,1,3.7c3.8,2.2,7.1,4.7,9.8,7.4c0,0.3,0,0.5,0,0.8v3.6c-4.5-3.4-9.7-6.4-15.5-8.9c-1.4-0.6-3,0-3.6,1.4
	c-0.6,1.4,0,3,1.4,3.6c6.9,3,12.8,6.7,17.6,10.9c0,0,0,0,0,0v3.6h-10.7c-0.2-0.9-0.7-1.7-1.3-2.4c-1.2-1.4-3-2.3-4.9-2.3h-22.6
	c-2.6,0-4.9,1.5-5.9,3.9l-0.3,0.8h-13.1c0.3-2.9,1.1-6.1,2-9.8c4-15.8,8-25,29.8-19.5c2.3,0.6,4.6,1.3,6.9,2.1
	c1.4,0.5,3-0.2,3.5-1.6c0.5-1.4-0.2-3-1.6-3.5c-2.4-0.9-4.9-1.7-7.4-2.3c-12.3-3.1-20.8-2.1-26.7,3.2c-5.4,4.8-7.6,12.3-9.6,20.2
	c-1.1,4.2-1.9,7.8-2.2,11.2h-6.6c-3.5,0-6.4,2.9-6.4,6.4v17.2c0,3.4,2.6,6.1,5.9,6.4v29.9l-2.8,6.7c-1.6,3.8-0.7,8.4,2.3,11.3
	c0.2,0.2,0.4,0.4,0.6,0.6v58.3c0,5.6,4.5,10.1,10.1,10.1h29.2c1.5,0,2.7-1.2,2.7-2.7s-1.2-2.7-2.7-2.7h-29.2c-2.6,0-4.7-2.1-4.7-4.7
	v-53.9c6.3,4.5,16,9.5,29.6,11.5c0.5,0.1,1,0.1,1.5,0.1c4.8,0,9.1-3.5,10-8.4l9.6-56h14.3v111.3H-349c-1.5,0-2.7,1.2-2.7,2.7
	s1.2,2.7,2.7,2.7h111.7c5.6,0,10.1-4.5,10.1-10.1v-58.3c0.2-0.2,0.4-0.4,0.6-0.6c3-2.9,3.9-7.4,2.3-11.3l-2.8-6.7v-29.9
	c3.3-0.3,5.9-3,5.9-6.4v-17.2C-221.3-381.5-224.2-384.4-227.7-384.4L-227.7-384.4z M-400.7-360.7v-17.2c0-0.6,0.4-1,1-1h22.8
	l-8.2,19.2h-14.6C-400.3-359.7-400.7-360.1-400.7-360.7z M-387.5-354.3l-7.4,17.2v-17.2H-387.5z M-344.8-382.4l-14.2,83.2
	c-0.4,2.5-2.8,4.2-5.3,3.9c-17.7-2.7-28.1-10.6-32.7-15c-1.4-1.3-1.8-3.4-1-5.2l28.8-67.4c0.2-0.4,0.5-0.6,0.9-0.6h11.3l-3.1,13.7
	c-0.3,1.5,0.6,2.9,2,3.2c0.2,0,0.4,0.1,0.6,0.1c1.2,0,2.4-0.9,2.6-2.1l3.4-14.9h5.7c0.4,0,0.7,0.2,0.8,0.4
	C-344.9-383.1-344.7-382.8-344.8-382.4L-344.8-382.4z M-334.8-359.7h-8.4l3.3-19.2h5.1L-334.8-359.7L-334.8-359.7z M-271.6-413.7
	c10.4-2.6,17.3-2,21.8,2c4.2,3.8,6.2,10.5,8,17.5c0.8,3.3,1.6,6.7,2,9.8h-13.1l-0.3-0.8c-1-2.4-3.3-3.9-5.9-3.9h-22.6
	c-1.9,0-3.7,0.8-4.9,2.3c-0.6,0.7-1,1.5-1.3,2.4h-10.7v-3.5c1-0.7,6-3.9,14.3-6.6c1.4-0.5,2.2-2,1.7-3.4c-0.5-1.4-2-2.2-3.4-1.7
	c-5.6,1.8-9.9,3.9-12.6,5.5v-4.3c0-0.3,0-0.5,0-0.8C-291.9-405.9-282.3-411-271.6-413.7z M-284.2-359.7h-8.4v-19.2h5.1L-284.2-359.7
	z M-323.5-398.5c0-2.6,2.1-4.7,4.7-4.7h10.1c2.6,0,4.7,2.1,4.7,4.7v14.2h-19.5L-323.5-398.5L-323.5-398.5z M-303-242.9h-21.4v-111.3
	h21.4V-242.9z M-298-359.7h-31.3v-19.2h31.3V-359.7z M-230.4-310.4c-4.6,4.5-15,12.3-32.7,15c-2.5,0.4-4.9-1.4-5.3-3.9l-2.2-13
	c-0.3-1.5-1.7-2.5-3.1-2.2c-1.5,0.3-2.5,1.7-2.2,3.1l2.2,13c0.8,4.9,5.2,8.4,10,8.4c0.5,0,1,0,1.5-0.1c13.6-2.1,23.3-7.1,29.6-11.5
	v53.9c0,2.6-2.1,4.7-4.7,4.7h-60.3v-111.3h14.3l5.3,31.2c0.3,1.5,1.7,2.5,3.1,2.2c1.5-0.3,2.5-1.7,2.2-3.1l-10-58.5
	c-0.1-0.4,0.1-0.7,0.2-0.8c0.1-0.1,0.4-0.4,0.8-0.4h5l2.1,10.6c0.3,1.3,1.4,2.2,2.7,2.2c0.2,0,0.3,0,0.5-0.1
	c1.5-0.3,2.4-1.7,2.1-3.2l-1.9-9.5h12c0.4,0,0.8,0.2,0.9,0.6l28.8,67.4C-228.6-313.8-229-311.7-230.4-310.4L-230.4-310.4z
	 M-240-354.3h7.4v17.2L-240-354.3z M-226.7-360.7c0,0.6-0.4,1-1,1h-14.6l-8.2-19.2h22.8c0.6,0,1,0.4,1,1V-360.7z"/>
<g>
	<defs>
		<rect id="SVGID_1_" x="66.3" y="7.1" width="272.3" height="272.3"/>
	</defs>
	<clipPath id="SVGID_2_">
		<use xlink:href="#SVGID_1_"  style="overflow:visible;"/>
	</clipPath>
	<g class="st10">
		<path class="st11" d="M167.5,226.5c0,0,15.6-28.6,20.6-30.9c5-2.4,34.6-6.4,32.9-39.6c-1.7-33.3-58.1-15.5-59.1-15.5
			c-1,0-12.9,75.9-12.9,75.9L167.5,226.5z"/>
		<path class="st11" d="M253.5,109.8c-2.7,3.3-8.5,7.6-19.1,4.3c-16.2-5-4.4-29.2-4.4-29.2l10.5,8.9l12.5,10.6
			C254.6,105.8,254.8,108.1,253.5,109.8z"/>
		<path class="st12" d="M253,104.4l-0.7,1.1c-1.1,1.6-3.3,2-4.9,0.8c-4-2.9-10.8-7.8-10.9-8.2c-0.1-0.4,2.3-2.7,4-4.3L253,104.4z"/>
		<path class="st11" d="M214,83.9l22.4-21.4c4-3.8,10.3-3.6,14,0.5v0c3.5,3.9,3.3,9.8-0.4,13.5l-24.4,24L214,83.9z"/>
		<path class="st11" d="M246.9,142.1c0,1.5-0.4,2.9-1,4.2c-1.4,2.6-4.1,4.4-7.3,4.5l-8.2,0.3L229,118c0,0,8.1-1.6,13.8,5.7
			c1.5,1.9,2.5,4.7,3.1,7.7C246.6,134.9,246.9,138.8,246.9,142.1z"/>
		<path class="st12" d="M246.9,142.1c0,1.5-0.4,2.9-1,4.2l-1.9-0.2c-1.1-0.1-2-1.1-2-2.2l-0.4-9.3c-0.1-1.3,0.8-2.4,2.1-2.7l2.4-0.5
			C246.6,134.9,246.9,138.8,246.9,142.1z"/>
		<path class="st13" d="M153.2,190.6V52.3c0-5.6,4.5-10.1,10.1-10.1h66c5.6,0,10.1,4.5,10.1,10.1v138.3c0,5.6-4.5,10.1-10.1,10.1
			h-66C157.8,200.7,153.2,196.1,153.2,190.6z"/>
		<path class="st14" d="M236.6,52.9v137c0,4.3-3.5,7.8-7.8,7.8H164c-4.3,0-7.8-3.5-7.8-7.8v-137c0-4.3,3.5-7.8,7.8-7.8h64.7
			C233.1,45.1,236.6,48.6,236.6,52.9z"/>
		<rect x="168.1" y="81.2" class="st15" width="56.2" height="56.2"/>
		<path class="st5" d="M208.8,171.5H187c-3.7,0-6.8-3-6.8-6.8l0,0c0-3.7,3-6.8,6.8-6.8h21.8c3.7,0,6.8,3,6.8,6.8l0,0
			C215.6,168.5,212.5,171.5,208.8,171.5z"/>
		<g>
			<path class="st16" d="M193.9,165.2v1.6h-0.9v-4.5h1.5c0.2,0,0.5,0,0.7,0.1c0.2,0.1,0.4,0.2,0.5,0.3s0.2,0.3,0.3,0.5
				c0.1,0.2,0.1,0.4,0.1,0.6c0,0.2,0,0.4-0.1,0.6s-0.2,0.3-0.3,0.4s-0.3,0.2-0.5,0.3c-0.2,0.1-0.4,0.1-0.7,0.1H193.9z M193.9,164.5
				h0.7c0.1,0,0.2,0,0.3-0.1c0.1,0,0.2-0.1,0.2-0.2c0.1-0.1,0.1-0.1,0.1-0.2c0-0.1,0-0.2,0-0.3c0-0.1,0-0.2,0-0.3
				c0-0.1-0.1-0.2-0.1-0.2c-0.1-0.1-0.1-0.1-0.2-0.2c-0.1,0-0.2-0.1-0.3-0.1h-0.7V164.5z"/>
			<path class="st16" d="M199.3,166H198l-0.3,0.9h-0.9l1.5-4.5h0.8l1.4,4.5h-0.9L199.3,166z M198.2,165.2h0.9l-0.5-1.6L198.2,165.2z
				"/>
			<path class="st16" d="M202.7,164.5l0.9-2.1h0.9l-1.4,2.9l0,1.5h-0.9l0-1.6l-1.4-2.9h0.9L202.7,164.5z"/>
		</g>
		<g id="XMLID_2_">
			<g>
				<rect x="217.3" y="130.5" class="st16" width="2.1" height="2.1"/>
				<rect x="217.3" y="128.2" class="st16" width="2.1" height="2.4"/>
				<rect x="217.3" y="124.1" class="st16" width="2.1" height="4.1"/>
				<rect x="217.3" y="122" class="st16" width="2.1" height="2.1"/>
				<rect x="217.3" y="119.8" class="st16" width="2.1" height="2.1"/>
				<rect x="217.3" y="115.5" class="st16" width="2.1" height="4.3"/>
				<rect x="217.3" y="111.2" class="st16" width="2.1" height="4.3"/>
				<rect x="217.3" y="106.9" class="st16" width="2.1" height="4.3"/>
				<rect x="217.3" y="102.6" class="st16" width="2.1" height="4.3"/>
				<rect x="217.3" y="100.5" class="st16" width="2.1" height="2.1"/>
				<rect x="217.3" y="98.3" class="st16" width="2.1" height="2.1"/>
				<rect x="217.3" y="96.2" class="st16" width="2.1" height="2.1"/>
				<rect x="217.3" y="94" class="st16" width="2.1" height="2.1"/>
				<rect x="217.3" y="91.9" class="st16" width="2.1" height="2.1"/>
				<rect x="217.3" y="89.7" class="st16" width="2.1" height="2.2"/>
				<rect x="217.3" y="87.6" class="st16" width="2.1" height="2.1"/>
				<rect x="217.3" y="85.5" class="st16" width="2.1" height="2.1"/>
				<rect x="215.1" y="130.5" class="st16" width="2.1" height="2.1"/>
				<rect x="215.1" y="128.2" class="st17" width="2.1" height="2.4"/>
				<rect x="215.1" y="124.1" class="st17" width="2.1" height="4.1"/>
				<rect x="215.1" y="122" class="st16" width="2.1" height="2.1"/>
				<rect x="215.1" y="119.8" class="st17" width="2.1" height="2.1"/>
				<rect x="215.1" y="115.5" class="st17" width="2.1" height="4.3"/>
				<rect x="215.1" y="111.2" class="st17" width="2.1" height="4.3"/>
				<rect x="215.1" y="106.9" class="st17" width="2.1" height="4.3"/>
				<rect x="215.1" y="102.6" class="st17" width="2.1" height="4.3"/>
				<rect x="215.1" y="100.5" class="st17" width="2.1" height="2.1"/>
				<rect x="215.1" y="98.3" class="st16" width="2.1" height="2.1"/>
				<rect x="215.1" y="96.2" class="st17" width="2.1" height="2.1"/>
				<rect x="215.1" y="94" class="st17" width="2.1" height="2.1"/>
				<rect x="215.1" y="91.9" class="st17" width="2.1" height="2.1"/>
				<rect x="215.1" y="89.7" class="st17" width="2.1" height="2.2"/>
				<rect x="215.1" y="87.6" class="st17" width="2.1" height="2.1"/>
				<rect x="215.1" y="85.5" class="st16" width="2.1" height="2.1"/>
				<rect x="213" y="130.5" class="st16" width="2.2" height="2.1"/>
				<rect x="213" y="128.2" class="st16" width="2.2" height="2.4"/>
				<rect x="213" y="124.1" class="st16" width="2.2" height="4.1"/>
				<rect x="213" y="122" class="st17" width="2.2" height="2.1"/>
				<rect x="213" y="119.8" class="st16" width="2.2" height="2.1"/>
				<rect x="213" y="115.5" class="st16" width="2.2" height="4.3"/>
				<rect x="213" y="111.2" class="st17" width="2.2" height="4.3"/>
				<rect x="213" y="106.9" class="st17" width="2.2" height="4.3"/>
				<rect x="213" y="102.6" class="st17" width="2.2" height="4.3"/>
				<rect x="213" y="100.5" class="st16" width="2.2" height="2.1"/>
				<rect x="213" y="98.3" class="st16" width="2.2" height="2.1"/>
				<rect x="213" y="96.2" class="st17" width="2.2" height="2.1"/>
				<rect x="213" y="94" class="st16" width="2.2" height="2.1"/>
				<rect x="213" y="91.9" class="st16" width="2.2" height="2.1"/>
				<rect x="213" y="89.7" class="st16" width="2.2" height="2.2"/>
				<rect x="213" y="87.6" class="st17" width="2.2" height="2.1"/>
				<rect x="213" y="85.5" class="st16" width="2.2" height="2.1"/>
				<rect x="210.8" y="130.5" class="st16" width="2.1" height="2.1"/>
				<rect x="210.8" y="128.2" class="st17" width="2.1" height="2.4"/>
				<rect x="210.8" y="124.1" class="st16" width="2.1" height="4.1"/>
				<rect x="210.8" y="122" class="st16" width="2.1" height="2.1"/>
				<rect x="210.8" y="119.8" class="st17" width="2.1" height="2.1"/>
				<rect x="210.8" y="115.5" class="st16" width="2.1" height="4.3"/>
				<rect x="210.8" y="111.2" class="st17" width="2.1" height="4.3"/>
				<rect x="210.8" y="106.9" class="st17" width="2.1" height="4.3"/>
				<rect x="210.8" y="102.6" class="st17" width="2.1" height="4.3"/>
				<rect x="210.8" y="100.5" class="st16" width="2.1" height="2.1"/>
				<rect x="210.8" y="98.3" class="st16" width="2.1" height="2.1"/>
				<rect x="210.8" y="96.2" class="st17" width="2.1" height="2.1"/>
				<rect x="210.8" y="94" class="st16" width="2.1" height="2.1"/>
				<rect x="210.8" y="91.9" class="st17" width="2.1" height="2.1"/>
				<rect x="210.8" y="89.7" class="st16" width="2.1" height="2.2"/>
				<rect x="210.8" y="87.6" class="st17" width="2.1" height="2.1"/>
				<rect x="210.8" y="85.5" class="st16" width="2.1" height="2.1"/>
				<rect x="208.7" y="130.5" class="st16" width="2.1" height="2.1"/>
				<rect x="208.7" y="128.2" class="st17" width="2.1" height="2.4"/>
				<rect x="208.7" y="124.1" class="st16" width="2.1" height="4.1"/>
				<rect x="208.7" y="122" class="st16" width="2.1" height="2.1"/>
				<rect x="208.7" y="119.8" class="st16" width="2.1" height="2.1"/>
				<rect x="208.7" y="115.5" class="st16" width="2.1" height="4.3"/>
				<rect x="208.7" y="111.2" class="st16" width="2.1" height="4.3"/>
				<rect x="208.7" y="106.9" class="st16" width="2.1" height="4.3"/>
				<rect x="208.7" y="102.6" class="st17" width="2.1" height="4.3"/>
				<rect x="208.7" y="100.5" class="st16" width="2.1" height="2.1"/>
				<rect x="208.7" y="98.3" class="st16" width="2.1" height="2.1"/>
				<rect x="208.7" y="96.2" class="st17" width="2.1" height="2.1"/>
				<rect x="208.7" y="94" class="st16" width="2.1" height="2.1"/>
				<rect x="208.7" y="91.9" class="st16" width="2.1" height="2.1"/>
				<rect x="208.7" y="89.7" class="st16" width="2.1" height="2.2"/>
				<rect x="208.7" y="87.6" class="st17" width="2.1" height="2.1"/>
				<rect x="208.7" y="85.5" class="st16" width="2.1" height="2.1"/>
				<rect x="206.5" y="130.5" class="st16" width="2.1" height="2.1"/>
				<rect x="206.5" y="128.2" class="st17" width="2.1" height="2.4"/>
				<rect x="206.5" y="124.1" class="st16" width="2.1" height="4.1"/>
				<rect x="206.5" y="122" class="st16" width="2.1" height="2.1"/>
				<rect x="206.5" y="119.8" class="st16" width="2.1" height="2.1"/>
				<rect x="206.5" y="115.5" class="st16" width="2.1" height="4.3"/>
				<rect x="206.5" y="111.2" class="st16" width="2.1" height="4.3"/>
				<rect x="206.5" y="106.9" class="st17" width="2.1" height="4.3"/>
				<rect x="206.5" y="102.6" class="st17" width="2.1" height="4.3"/>
				<rect x="206.5" y="100.5" class="st17" width="2.1" height="2.1"/>
				<rect x="206.5" y="98.3" class="st16" width="2.1" height="2.1"/>
				<rect x="206.5" y="96.2" class="st17" width="2.1" height="2.1"/>
				<rect x="206.5" y="94" class="st17" width="2.1" height="2.1"/>
				<rect x="206.5" y="91.9" class="st17" width="2.1" height="2.1"/>
				<rect x="206.5" y="89.7" class="st17" width="2.1" height="2.2"/>
				<rect x="206.5" y="87.6" class="st17" width="2.1" height="2.1"/>
				<rect x="206.5" y="85.5" class="st16" width="2.1" height="2.1"/>
				<rect x="204.4" y="130.5" class="st16" width="2.1" height="2.1"/>
				<rect x="204.4" y="128.2" class="st17" width="2.1" height="2.4"/>
				<rect x="204.4" y="124.1" class="st16" width="2.1" height="4.1"/>
				<rect x="204.4" y="122" class="st16" width="2.1" height="2.1"/>
				<rect x="204.4" y="119.8" class="st16" width="2.1" height="2.1"/>
				<rect x="204.4" y="115.5" class="st17" width="2.1" height="4.3"/>
				<rect x="204.4" y="111.2" class="st16" width="2.1" height="4.3"/>
				<rect x="204.4" y="106.9" class="st16" width="2.1" height="4.3"/>
				<rect x="204.4" y="102.6" class="st16" width="2.1" height="4.3"/>
				<rect x="204.4" y="100.5" class="st16" width="2.1" height="2.1"/>
				<rect x="204.4" y="98.3" class="st16" width="2.1" height="2.1"/>
				<rect x="204.4" y="96.2" class="st16" width="2.1" height="2.1"/>
				<rect x="204.4" y="94" class="st16" width="2.1" height="2.1"/>
				<rect x="204.4" y="91.9" class="st16" width="2.1" height="2.1"/>
				<rect x="204.4" y="89.7" class="st16" width="2.1" height="2.2"/>
				<rect x="204.4" y="87.6" class="st16" width="2.1" height="2.1"/>
				<rect x="204.4" y="85.5" class="st16" width="2.1" height="2.1"/>
				<rect x="202.3" y="130.5" class="st16" width="2.1" height="2.1"/>
				<rect x="202.3" y="128.2" class="st17" width="2.1" height="2.4"/>
				<rect x="202.3" y="124.1" class="st16" width="2.1" height="4.1"/>
				<rect x="202.3" y="122" class="st16" width="2.1" height="2.1"/>
				<rect x="202.3" y="119.8" class="st17" width="2.1" height="2.1"/>
				<rect x="202.3" y="115.5" class="st17" width="2.1" height="4.3"/>
				<rect x="202.3" y="111.2" class="st17" width="2.1" height="4.3"/>
				<rect x="202.3" y="106.9" class="st17" width="2.1" height="4.3"/>
				<rect x="202.3" y="102.6" class="st16" width="2.1" height="4.3"/>
				<rect x="202.3" y="100.5" class="st17" width="2.1" height="2.1"/>
				<rect x="202.3" y="98.3" class="st16" width="2.1" height="2.1"/>
				<rect x="202.3" y="96.2" class="st16" width="2.1" height="2.1"/>
				<rect x="202.3" y="94" class="st17" width="2.1" height="2.1"/>
				<rect x="202.3" y="91.9" class="st16" width="2.1" height="2.1"/>
				<rect x="202.3" y="89.7" class="st16" width="2.1" height="2.2"/>
				<rect x="202.3" y="87.6" class="st17" width="2.1" height="2.1"/>
				<rect x="202.3" y="85.5" class="st16" width="2.1" height="2.1"/>
				<rect x="200.1" y="130.5" class="st16" width="2.2" height="2.1"/>
				<rect x="200.1" y="128.2" class="st16" width="2.2" height="2.4"/>
				<rect x="200.1" y="124.1" class="st16" width="2.2" height="4.1"/>
				<rect x="200.1" y="122" class="st16" width="2.2" height="2.1"/>
				<rect x="200.1" y="119.8" class="st17" width="2.2" height="2.1"/>
				<rect x="200.1" y="115.5" class="st16" width="2.2" height="4.3"/>
				<rect x="200.1" y="111.2" class="st17" width="2.2" height="4.3"/>
				<rect x="200.1" y="106.9" class="st16" width="2.2" height="4.3"/>
				<rect x="200.1" y="102.6" class="st16" width="2.2" height="4.3"/>
				<rect x="200.1" y="100.5" class="st17" width="2.2" height="2.1"/>
				<rect x="200.1" y="98.3" class="st17" width="2.2" height="2.1"/>
				<rect x="200.1" y="96.2" class="st16" width="2.2" height="2.1"/>
				<rect x="200.1" y="94" class="st16" width="2.2" height="2.1"/>
				<rect x="200.1" y="91.9" class="st17" width="2.2" height="2.1"/>
				<rect x="200.1" y="89.7" class="st17" width="2.2" height="2.2"/>
				<rect x="200.1" y="87.6" class="st17" width="2.2" height="2.1"/>
				<rect x="200.1" y="85.5" class="st16" width="2.2" height="2.1"/>
				<rect x="197.9" y="130.5" class="st16" width="2.1" height="2.1"/>
				<rect x="197.9" y="128.2" class="st17" width="2.1" height="2.4"/>
				<rect x="197.9" y="124.1" class="st16" width="2.1" height="4.1"/>
				<rect x="197.9" y="122" class="st16" width="2.1" height="2.1"/>
				<rect x="197.9" y="119.8" class="st16" width="2.1" height="2.1"/>
				<rect x="197.9" y="115.5" class="st16" width="2.1" height="4.3"/>
				<rect x="197.9" y="111.2" class="st16" width="2.1" height="4.3"/>
				<rect x="197.9" y="106.9" class="st17" width="2.1" height="4.3"/>
				<rect x="197.9" y="102.6" class="st16" width="2.1" height="4.3"/>
				<rect x="197.9" y="100.5" class="st17" width="2.1" height="2.1"/>
				<rect x="197.9" y="98.3" class="st16" width="2.1" height="2.1"/>
				<rect x="197.9" y="96.2" class="st17" width="2.1" height="2.1"/>
				<rect x="197.9" y="94" class="st16" width="2.1" height="2.1"/>
				<rect x="197.9" y="91.9" class="st17" width="2.1" height="2.1"/>
				<rect x="197.9" y="89.7" class="st16" width="2.1" height="2.2"/>
				<rect x="197.9" y="87.6" class="st17" width="2.1" height="2.1"/>
				<rect x="197.9" y="85.5" class="st16" width="2.1" height="2.1"/>
				<rect x="195.8" y="130.5" class="st16" width="2.1" height="2.1"/>
				<rect x="195.8" y="128.2" class="st16" width="2.1" height="2.4"/>
				<rect x="195.8" y="124.1" class="st17" width="2.1" height="4.1"/>
				<rect x="195.8" y="122" class="st17" width="2.1" height="2.1"/>
				<rect x="195.8" y="119.8" class="st17" width="2.1" height="2.1"/>
				<rect x="195.8" y="115.5" class="st16" width="2.1" height="4.3"/>
				<rect x="195.8" y="111.2" class="st16" width="2.1" height="4.3"/>
				<rect x="195.8" y="106.9" class="st16" width="2.1" height="4.3"/>
				<rect x="195.8" y="102.6" class="st16" width="2.1" height="4.3"/>
				<rect x="195.8" y="100.5" class="st16" width="2.1" height="2.1"/>
				<rect x="195.8" y="98.3" class="st16" width="2.1" height="2.1"/>
				<rect x="195.8" y="96.2" class="st16" width="2.1" height="2.1"/>
				<rect x="195.8" y="94" class="st16" width="2.1" height="2.1"/>
				<rect x="195.8" y="91.9" class="st16" width="2.1" height="2.1"/>
				<rect x="195.8" y="89.7" class="st16" width="2.1" height="2.2"/>
				<rect x="195.8" y="87.6" class="st17" width="2.1" height="2.1"/>
				<rect x="195.8" y="85.5" class="st16" width="2.1" height="2.1"/>
				<rect x="193.7" y="130.5" class="st16" width="2.1" height="2.1"/>
				<rect x="193.7" y="128.2" class="st17" width="2.1" height="2.4"/>
				<rect x="193.7" y="124.1" class="st16" width="2.1" height="4.1"/>
				<rect x="193.7" y="122" class="st16" width="2.1" height="2.1"/>
				<rect x="193.7" y="119.8" class="st16" width="2.1" height="2.1"/>
				<rect x="193.7" y="115.5" class="st16" width="2.1" height="4.3"/>
				<rect x="193.7" y="111.2" class="st16" width="2.1" height="4.3"/>
				<rect x="193.7" y="106.9" class="st16" width="2.1" height="4.3"/>
				<rect x="193.7" y="102.6" class="st16" width="2.1" height="4.3"/>
				<rect x="193.7" y="100.5" class="st16" width="2.1" height="2.1"/>
				<rect x="193.7" y="98.3" class="st17" width="2.1" height="2.1"/>
				<rect x="193.7" y="96.2" class="st17" width="2.1" height="2.1"/>
				<rect x="193.7" y="94" class="st16" width="2.1" height="2.1"/>
				<rect x="193.7" y="91.9" class="st16" width="2.1" height="2.1"/>
				<rect x="193.7" y="89.7" class="st17" width="2.1" height="2.2"/>
				<rect x="193.7" y="87.6" class="st16" width="2.1" height="2.1"/>
				<rect x="193.7" y="85.5" class="st16" width="2.1" height="2.1"/>
				<rect x="191.5" y="130.5" class="st16" width="2.1" height="2.1"/>
				<rect x="191.5" y="128.2" class="st17" width="2.1" height="2.4"/>
				<rect x="191.5" y="124.1" class="st16" width="2.1" height="4.1"/>
				<rect x="191.5" y="122" class="st16" width="2.1" height="2.1"/>
				<rect x="191.5" y="119.8" class="st17" width="2.1" height="2.1"/>
				<rect x="191.5" y="115.5" class="st16" width="2.1" height="4.3"/>
				<rect x="191.5" y="111.2" class="st16" width="2.1" height="4.3"/>
				<rect x="191.5" y="106.9" class="st17" width="2.1" height="4.3"/>
				<rect x="191.5" y="102.6" class="st16" width="2.1" height="4.3"/>
				<rect x="191.5" y="100.5" class="st17" width="2.1" height="2.1"/>
				<rect x="191.5" y="98.3" class="st17" width="2.1" height="2.1"/>
				<rect x="191.5" y="96.2" class="st17" width="2.1" height="2.1"/>
				<rect x="191.5" y="94" class="st17" width="2.1" height="2.1"/>
				<rect x="191.5" y="91.9" class="st17" width="2.1" height="2.1"/>
				<rect x="191.5" y="89.7" class="st17" width="2.1" height="2.2"/>
				<rect x="191.5" y="87.6" class="st17" width="2.1" height="2.1"/>
				<rect x="191.5" y="85.5" class="st16" width="2.1" height="2.1"/>
				<rect x="185.1" y="130.5" class="st16" width="6.4" height="2.1"/>
				<rect x="185.1" y="128.2" class="st16" width="6.4" height="2.4"/>
				<rect x="185.1" y="124.1" class="st16" width="6.4" height="4.1"/>
				<rect x="185.1" y="122" class="st16" width="6.4" height="2.1"/>
				<rect x="185.1" y="119.8" class="st17" width="6.4" height="2.1"/>
				<rect x="185.1" y="115.5" class="st17" width="6.4" height="4.3"/>
				<rect x="185.1" y="111.2" class="st17" width="6.4" height="4.3"/>
				<rect x="185.1" y="106.9" class="st17" width="6.4" height="4.3"/>
				<rect x="185.1" y="102.6" class="st16" width="6.4" height="4.3"/>
				<rect x="185.1" y="100.5" class="st17" width="6.4" height="2.1"/>
				<rect x="185.1" y="98.3" class="st16" width="6.4" height="2.1"/>
				<rect x="185.1" y="96.2" class="st17" width="6.4" height="2.1"/>
				<rect x="185.1" y="94" class="st16" width="6.4" height="2.1"/>
				<rect x="185.1" y="91.9" class="st16" width="6.4" height="2.1"/>
				<rect x="185.1" y="89.7" class="st17" width="6.4" height="2.2"/>
				<rect x="185.1" y="87.6" class="st16" width="6.4" height="2.1"/>
				<rect x="185.1" y="85.5" class="st16" width="6.4" height="2.1"/>
				<rect x="182.9" y="130.5" class="st16" width="2.1" height="2.1"/>
				<rect x="182.9" y="128.2" class="st17" width="2.1" height="2.4"/>
				<rect x="182.9" y="124.1" class="st17" width="2.1" height="4.1"/>
				<rect x="182.9" y="122" class="st17" width="2.1" height="2.1"/>
				<rect x="182.9" y="119.8" class="st17" width="2.1" height="2.1"/>
				<rect x="182.9" y="115.5" class="st16" width="2.1" height="4.3"/>
				<rect x="182.9" y="111.2" class="st16" width="2.1" height="4.3"/>
				<rect x="182.9" y="106.9" class="st16" width="2.1" height="4.3"/>
				<rect x="182.9" y="102.6" class="st16" width="2.1" height="4.3"/>
				<rect x="182.9" y="100.5" class="st17" width="2.1" height="2.1"/>
				<rect x="182.9" y="98.3" class="st16" width="2.1" height="2.1"/>
				<rect x="182.9" y="96.2" class="st17" width="2.1" height="2.1"/>
				<rect x="182.9" y="94" class="st17" width="2.1" height="2.1"/>
				<rect x="182.9" y="91.9" class="st17" width="2.1" height="2.1"/>
				<rect x="182.9" y="89.7" class="st17" width="2.1" height="2.2"/>
				<rect x="182.9" y="87.6" class="st17" width="2.1" height="2.1"/>
				<rect x="182.9" y="85.5" class="st16" width="2.1" height="2.1"/>
				<rect x="180.8" y="130.5" class="st16" width="2.1" height="2.1"/>
				<rect x="180.8" y="128.2" class="st17" width="2.1" height="2.4"/>
				<rect x="180.8" y="124.1" class="st16" width="2.1" height="4.1"/>
				<rect x="180.8" y="122" class="st16" width="2.1" height="2.1"/>
				<rect x="180.8" y="119.8" class="st17" width="2.1" height="2.1"/>
				<rect x="180.8" y="115.5" class="st16" width="2.1" height="4.3"/>
				<rect x="180.8" y="111.2" class="st16" width="2.1" height="4.3"/>
				<rect x="180.8" y="106.9" class="st17" width="2.1" height="4.3"/>
				<rect x="180.8" y="102.6" class="st16" width="2.1" height="4.3"/>
				<rect x="180.8" y="100.5" class="st17" width="2.1" height="2.1"/>
				<rect x="180.8" y="98.3" class="st16" width="2.1" height="2.1"/>
				<rect x="180.8" y="96.2" class="st17" width="2.1" height="2.1"/>
				<rect x="180.8" y="94" class="st16" width="2.1" height="2.1"/>
				<rect x="180.8" y="91.9" class="st16" width="2.1" height="2.1"/>
				<rect x="180.8" y="89.7" class="st16" width="2.1" height="2.2"/>
				<rect x="180.8" y="87.6" class="st17" width="2.1" height="2.1"/>
				<rect x="180.8" y="85.5" class="st16" width="2.1" height="2.1"/>
				<rect x="178.7" y="130.5" class="st16" width="2.1" height="2.1"/>
				<rect x="178.7" y="128.2" class="st17" width="2.1" height="2.4"/>
				<rect x="178.7" y="124.1" class="st16" width="2.1" height="4.1"/>
				<rect x="178.7" y="122" class="st16" width="2.1" height="2.1"/>
				<rect x="178.7" y="119.8" class="st17" width="2.1" height="2.1"/>
				<rect x="178.7" y="115.5" class="st17" width="2.1" height="4.3"/>
				<rect x="178.7" y="111.2" class="st16" width="2.1" height="4.3"/>
				<rect x="178.7" y="106.9" class="st17" width="2.1" height="4.3"/>
				<rect x="178.7" y="102.6" class="st16" width="2.1" height="4.3"/>
				<rect x="178.7" y="100.5" class="st16" width="2.1" height="2.1"/>
				<rect x="178.7" y="98.3" class="st16" width="2.1" height="2.1"/>
				<rect x="178.7" y="96.2" class="st17" width="2.1" height="2.1"/>
				<rect x="178.7" y="94" class="st16" width="2.1" height="2.1"/>
				<rect x="178.7" y="91.9" class="st17" width="2.1" height="2.1"/>
				<rect x="178.7" y="89.7" class="st16" width="2.1" height="2.2"/>
				<rect x="178.7" y="87.6" class="st17" width="2.1" height="2.1"/>
				<polygon class="st16" points="180.8,85.5 180.8,87.6 178.7,87.6 178.7,85.6 178.7,85.5 				"/>
				<rect x="176.5" y="130.5" class="st16" width="2.2" height="2.1"/>
				<rect x="176.5" y="128.2" class="st17" width="2.2" height="2.4"/>
				<rect x="176.5" y="124.1" class="st16" width="2.2" height="4.1"/>
				<rect x="176.5" y="122" class="st16" width="2.2" height="2.1"/>
				<rect x="176.5" y="119.8" class="st17" width="2.2" height="2.1"/>
				<rect x="176.5" y="115.5" class="st16" width="2.2" height="4.3"/>
				<rect x="176.5" y="111.2" class="st17" width="2.2" height="4.3"/>
				<rect x="176.5" y="106.9" class="st17" width="2.2" height="4.3"/>
				<rect x="176.5" y="102.6" class="st17" width="2.2" height="4.3"/>
				<rect x="176.5" y="100.5" class="st17" width="2.2" height="2.1"/>
				<rect x="176.5" y="98.3" class="st16" width="2.2" height="2.1"/>
				<rect x="176.5" y="96.2" class="st17" width="2.2" height="2.1"/>
				<rect x="176.5" y="94" class="st16" width="2.2" height="2.1"/>
				<rect x="176.5" y="91.9" class="st16" width="2.2" height="2.1"/>
				<rect x="176.5" y="89.7" class="st16" width="2.2" height="2.2"/>
				<rect x="176.5" y="87.6" class="st17" width="2.2" height="2.1"/>
				<polygon class="st16" points="178.7,85.6 178.7,87.6 176.5,87.6 176.5,85.5 178.7,85.5 				"/>
				<rect x="174.3" y="130.5" class="st16" width="2.1" height="2.1"/>
				<rect x="174.3" y="128.2" class="st17" width="2.1" height="2.4"/>
				<rect x="174.3" y="124.1" class="st17" width="2.1" height="4.1"/>
				<rect x="174.3" y="122" class="st17" width="2.1" height="2.1"/>
				<rect x="174.3" y="119.8" class="st17" width="2.1" height="2.1"/>
				<rect x="174.3" y="115.5" class="st17" width="2.1" height="4.3"/>
				<rect x="174.3" y="111.2" class="st16" width="2.1" height="4.3"/>
				<rect x="174.3" y="106.9" class="st17" width="2.1" height="4.3"/>
				<rect x="174.3" y="102.6" class="st17" width="2.1" height="4.3"/>
				<rect x="174.3" y="100.5" class="st17" width="2.1" height="2.1"/>
				<rect x="174.3" y="98.3" class="st16" width="2.1" height="2.1"/>
				<rect x="174.3" y="96.2" class="st17" width="2.1" height="2.1"/>
				<rect x="174.3" y="94" class="st17" width="2.1" height="2.1"/>
				<rect x="174.3" y="91.9" class="st17" width="2.1" height="2.1"/>
				<rect x="174.3" y="89.7" class="st17" width="2.1" height="2.2"/>
				<rect x="174.3" y="87.6" class="st17" width="2.1" height="2.1"/>
				<rect x="174.3" y="85.5" class="st16" width="2.1" height="2.1"/>
				<rect x="172.2" y="130.5" class="st16" width="2.1" height="2.1"/>
				<rect x="172.2" y="128.2" class="st16" width="2.1" height="2.4"/>
				<rect x="172.2" y="124.1" class="st16" width="2.1" height="4.1"/>
				<rect x="172.2" y="122" class="st16" width="2.1" height="2.1"/>
				<rect x="172.2" y="119.8" class="st16" width="2.1" height="2.1"/>
				<rect x="172.2" y="115.5" class="st16" width="2.1" height="4.3"/>
				<rect x="172.2" y="111.2" class="st16" width="2.1" height="4.3"/>
				<rect x="172.2" y="106.9" class="st16" width="2.1" height="4.3"/>
				<rect x="172.2" y="102.6" class="st16" width="2.1" height="4.3"/>
				<rect x="172.2" y="100.5" class="st16" width="2.1" height="2.1"/>
				<rect x="172.2" y="98.3" class="st16" width="2.1" height="2.1"/>
				<rect x="172.2" y="96.2" class="st16" width="2.1" height="2.1"/>
				<rect x="172.2" y="94" class="st16" width="2.1" height="2.1"/>
				<rect x="172.2" y="91.9" class="st16" width="2.1" height="2.1"/>
				<rect x="172.2" y="89.7" class="st16" width="2.1" height="2.2"/>
				<rect x="172.2" y="87.6" class="st16" width="2.1" height="2.1"/>
				<rect x="172.2" y="85.5" class="st16" width="2.1" height="2.1"/>
			</g>
			<g>
			</g>
		</g>
		<rect x="178.5" y="123.9" class="st17" width="2.5" height="2.5"/>
		<rect x="186.3" y="121.8" class="st17" width="20.2" height="2.3"/>
		<rect x="186.3" y="126" class="st17" width="20.2" height="2.3"/>
		<rect x="184.8" y="115.3" class="st16" width="11.6" height="2"/>
		<rect x="191.3" y="106.8" class="st16" width="11.6" height="2"/>
		<rect x="190.8" y="111.2" class="st17" width="11.6" height="2"/>
		<rect x="200.1" y="106.9" class="st17" width="11.6" height="2"/>
		<rect x="193.2" y="124" class="st17" width="6.4" height="4.4"/>
		<rect x="195.3" y="97.5" class="st17" width="2.1" height="6.4"/>
		<rect x="177" y="117.5" class="st16" width="2.2" height="2.2"/>
		<rect x="174.9" y="106.9" class="st16" width="2.1" height="2.1"/>
		<rect x="179.3" y="106.8" class="st16" width="2.1" height="2.1"/>
		<rect x="185.7" y="102.4" class="st17" width="2.1" height="2.1"/>
		<rect x="187.2" y="109.1" class="st16" width="2.1" height="2.1"/>
		<rect x="213" y="104.5" class="st16" width="2.1" height="2.1"/>
		<rect x="213" y="109.6" class="st16" width="2.1" height="2.1"/>
		<rect x="196.5" y="103.8" class="st17" width="2.1" height="2.1"/>
		<rect x="196.5" y="115.4" class="st17" width="2.1" height="2.1"/>
		<rect x="209.3" y="115.3" class="st17" width="2.1" height="2.1"/>
		<rect x="209.3" y="121.8" class="st17" width="2.1" height="2.1"/>
		<rect x="211.4" y="126.2" class="st17" width="2.1" height="2.1"/>
		<rect x="176.4" y="117.3" class="st17" width="6.8" height="2.5"/>
		<rect x="196.7" y="100.5" class="st17" width="7.7" height="3.4"/>
		<path class="st5" d="M236.6,52.9v13.4h-80.4V52.9c0-4.3,3.5-7.8,7.8-7.8h64.7C233.1,45.1,236.6,48.6,236.6,52.9z"/>
		<g>
			<g>
				<path class="st16" d="M179,54.2c0.3,0,0.5,0,0.8,0.1s0.4,0.2,0.6,0.4c0.2,0.2,0.3,0.4,0.4,0.6c0.1,0.3,0.1,0.6,0.1,0.9
					c0,0.5-0.1,0.9-0.3,1.2c-0.2,0.3-0.5,0.6-0.9,0.8l-0.7,0.4c0.1,0,0.2,0,0.3,0.1s0.2,0.1,0.3,0.1c0.1,0,0.2,0.1,0.3,0.1
					s0.2,0,0.3,0c0.1,0,0.2,0,0.3-0.1c0.1,0,0.2-0.1,0.2-0.1l0.3,0.6c-0.1,0.1-0.2,0.1-0.3,0.2s-0.3,0.1-0.5,0.1
					c-0.2,0-0.3,0-0.5-0.1c-0.2,0-0.3-0.1-0.4-0.1c-0.1,0-0.3-0.1-0.4-0.1s-0.3-0.1-0.4-0.1c-0.1,0-0.2,0-0.3,0
					c-0.1,0-0.2,0.1-0.3,0.1l-0.3-0.5l1-0.6c-0.5-0.1-0.8-0.3-1.1-0.6s-0.4-0.8-0.4-1.4c0-0.3,0-0.6,0.1-0.9
					c0.1-0.3,0.2-0.5,0.4-0.7c0.2-0.2,0.4-0.3,0.6-0.4C178.5,54.2,178.7,54.2,179,54.2z M178,56.3c0,0.2,0,0.4,0.1,0.6
					c0.1,0.2,0.1,0.3,0.2,0.4c0.1,0.1,0.2,0.2,0.3,0.3c0.1,0.1,0.3,0.1,0.4,0.1c0.2,0,0.3,0,0.4-0.1c0.1-0.1,0.2-0.2,0.3-0.3
					c0.1-0.1,0.2-0.3,0.2-0.4c0.1-0.2,0.1-0.4,0.1-0.6c0-0.2,0-0.5-0.1-0.6s-0.1-0.3-0.2-0.4c-0.1-0.1-0.2-0.2-0.3-0.3
					c-0.1-0.1-0.3-0.1-0.4-0.1c-0.1,0-0.3,0-0.4,0.1c-0.1,0.1-0.2,0.1-0.3,0.3c-0.1,0.1-0.2,0.3-0.2,0.4C178,55.8,178,56,178,56.3z"
					/>
				<path class="st16" d="M182,54.3h1.5c0.2,0,0.4,0,0.6,0.1s0.3,0.2,0.4,0.3c0.1,0.1,0.2,0.2,0.3,0.4s0.1,0.3,0.1,0.5
					c0,0.2,0,0.3-0.1,0.4c0,0.1-0.1,0.2-0.2,0.3c-0.1,0.1-0.2,0.2-0.2,0.2c-0.1,0.1-0.2,0.1-0.3,0.1l1,1.6h-1l-0.8-1.5h-0.5v1.5H182
					V54.3z M182.9,56.1h0.3c0.2,0,0.4,0,0.6-0.1c0.1-0.1,0.2-0.2,0.2-0.5c0-0.2-0.1-0.3-0.2-0.4s-0.3-0.2-0.5-0.2h-0.4V56.1z"/>
				<path class="st16" d="M189,54.2c0.3,0,0.5,0,0.7,0.1c0.2,0.1,0.4,0.1,0.5,0.2l-0.2,0.6c-0.2-0.1-0.3-0.1-0.5-0.2
					c-0.2,0-0.3-0.1-0.5-0.1c-0.2,0-0.4,0-0.5,0.1c-0.1,0.1-0.2,0.2-0.2,0.3c0,0.1,0,0.2,0.1,0.3s0.3,0.1,0.5,0.2l0.4,0.1
					c0.3,0.1,0.6,0.3,0.7,0.4c0.2,0.2,0.3,0.4,0.3,0.7c0,0.2,0,0.3-0.1,0.5s-0.2,0.3-0.3,0.4c-0.1,0.1-0.3,0.2-0.5,0.3
					c-0.2,0.1-0.4,0.1-0.7,0.1c-0.5,0-0.9-0.1-1.3-0.3l0.2-0.6c0.2,0.1,0.4,0.2,0.5,0.2c0.2,0,0.4,0.1,0.5,0.1c0.2,0,0.4,0,0.5-0.1
					c0.1-0.1,0.2-0.2,0.2-0.3c0-0.1,0-0.1,0-0.1s-0.1-0.1-0.1-0.1c-0.1,0-0.1-0.1-0.2-0.1c-0.1,0-0.2-0.1-0.3-0.1l-0.3-0.1
					c-0.1-0.1-0.3-0.1-0.4-0.2c-0.1-0.1-0.2-0.1-0.3-0.2c-0.1-0.1-0.2-0.2-0.2-0.3c0-0.1-0.1-0.3-0.1-0.4c0-0.2,0-0.3,0.1-0.5
					c0.1-0.1,0.2-0.3,0.3-0.4c0.1-0.1,0.3-0.2,0.5-0.2C188.5,54.2,188.8,54.2,189,54.2z"/>
				<path class="st16" d="M193.4,57.7c0.2,0,0.4,0,0.5-0.1c0.1,0,0.3-0.1,0.3-0.1l0.2,0.6c-0.1,0.1-0.2,0.1-0.4,0.2
					c-0.2,0-0.4,0.1-0.7,0.1c-0.3,0-0.6,0-0.8-0.1c-0.3-0.1-0.5-0.2-0.7-0.4c-0.2-0.2-0.3-0.4-0.4-0.7c-0.1-0.3-0.2-0.5-0.2-0.9
					c0-0.3,0-0.6,0.1-0.8c0.1-0.3,0.2-0.5,0.4-0.6c0.2-0.2,0.4-0.3,0.7-0.4c0.3-0.1,0.5-0.1,0.9-0.1c0.3,0,0.5,0,0.7,0.1
					s0.3,0.1,0.4,0.2l-0.2,0.6c-0.1-0.1-0.2-0.1-0.4-0.1c-0.1,0-0.3-0.1-0.4-0.1c-0.2,0-0.3,0-0.5,0.1c-0.2,0.1-0.3,0.1-0.4,0.2
					c-0.1,0.1-0.2,0.3-0.3,0.4c-0.1,0.2-0.1,0.4-0.1,0.6c0,0.2,0,0.4,0.1,0.6c0.1,0.2,0.2,0.3,0.3,0.4c0.1,0.1,0.2,0.2,0.4,0.3
					C193,57.6,193.2,57.7,193.4,57.7z"/>
				<path class="st16" d="M196.5,54.3h0.9l1.5,4h-0.9l-0.3-0.9h-1.4l-0.3,0.9H195L196.5,54.3z M196.4,56.7h1l-0.2-0.5
					c-0.1-0.2-0.1-0.3-0.2-0.5c-0.1-0.2-0.1-0.3-0.1-0.5h0c0,0.2-0.1,0.3-0.2,0.5c-0.1,0.2-0.1,0.3-0.2,0.5L196.4,56.7z"/>
				<path class="st16" d="M199.7,54.3h0.8l1.4,2.1c0.1,0.1,0.2,0.3,0.3,0.4s0.1,0.2,0.2,0.3h0c0-0.3,0-0.5,0-0.8c0-0.3,0-0.5,0-0.8
					v-1.2h0.8v4h-0.8l-1.3-1.9c-0.1-0.1-0.1-0.2-0.2-0.3c-0.1-0.1-0.1-0.2-0.1-0.3c0-0.1-0.1-0.2-0.1-0.2c0-0.1-0.1-0.1-0.1-0.2h0
					c0,0.3,0,0.6,0,0.8c0,0.3,0,0.5,0,0.8v1.2h-0.8V54.3z"/>
				<path class="st16" d="M204.2,54.3h0.8l1.4,2.1c0.1,0.1,0.2,0.3,0.3,0.4s0.1,0.2,0.2,0.3h0c0-0.3,0-0.5,0-0.8c0-0.3,0-0.5,0-0.8
					v-1.2h0.8v4h-0.8l-1.3-1.9c-0.1-0.1-0.1-0.2-0.2-0.3c-0.1-0.1-0.1-0.2-0.1-0.3s-0.1-0.2-0.1-0.2c0-0.1-0.1-0.1-0.1-0.2h0
					c0,0.3,0,0.6,0,0.8s0,0.5,0,0.8v1.2h-0.8V54.3z"/>
				<path class="st16" d="M208.8,54.3h2.6v0.7h-1.7v0.9h1.6v0.7h-1.6v1.1h1.7v0.7h-2.6V54.3z"/>
				<path class="st16" d="M212.4,54.3h1.5c0.2,0,0.4,0,0.6,0.1s0.3,0.2,0.4,0.3c0.1,0.1,0.2,0.2,0.3,0.4c0.1,0.1,0.1,0.3,0.1,0.5
					c0,0.2,0,0.3-0.1,0.4s-0.1,0.2-0.2,0.3s-0.2,0.2-0.2,0.2c-0.1,0.1-0.2,0.1-0.3,0.1l1,1.6h-1l-0.8-1.5h-0.5v1.5h-0.9V54.3z
					 M213.2,56.1h0.3c0.2,0,0.4,0,0.6-0.1c0.1-0.1,0.2-0.2,0.2-0.5c0-0.2-0.1-0.3-0.2-0.4s-0.3-0.2-0.5-0.2h-0.4V56.1z"/>
			</g>
		</g>
		<path class="st18" d="M168.5,197.8l-13.3,21.3L120.9,204c0-1,10.8-25.5,10.8-25.5s2.7-60.5,2.4-63.8c-0.2-1.7,2.2-12.3,4.7-22.4
			c1.4-6,2.9-11.8,3.8-15.4c0,0,0,0,0,0c0.6-2.2,2.8-3.6,5-3.1c4.5,1,11.2,4.3,11.7,14.4c0.7,15.5-1.5,30.9-1.5,30.9
			s9,13.3,15.4,29.7C179.4,164.8,177.8,183.1,168.5,197.8z"/>
		<path class="st12" d="M146.9,81.2l-1.4,7c-0.6,2.8-3.4,4.7-6.2,4.1l-0.6-0.1c1.4-6,2.9-11.8,3.8-15.4l2.1,0.6
			C146.3,77.9,147.3,79.6,146.9,81.2z"/>
		<g>
			<path class="st11" d="M156,78.7c4.6,5.9,2.9,35.8,1.3,39.9"/>
		</g>
		<g>
			<path class="st11" d="M157.3,118.8c15.2,21.8,28.3,51.9,9.6,81.2"/>
		</g>
		<path class="st5" d="M175.1,228.6l-23.7,83.7l-27.8-7.1l-52.1-13.3l43-93.7c0,0,25.7,6.5,46.9,19.8
			C166.3,221.2,171,224.7,175.1,228.6z"/>
		<path class="st19" d="M175.1,228.6l-23.7,83.7l-27.8-7.1l37.7-87.1C166.3,221.2,171,224.7,175.1,228.6z"/>
		<path class="st18" d="M319.2,332.8l-60.4,11.7l-14.4-33.9l-18.4-8.8c-3.9-1.8-7-4.9-9-8.7l-22.2-42.7l-7.4-14.1
			c-0.2-0.4-0.3-0.8-0.5-1.1c-0.8-2.8,0.8-5.9,3.7-7c4.6-1.6,9.4-1.2,14.1,3.4c8.1,8.1,14.3,23.9,20.4,25.1L199.8,182
			c-2.1-6.3,3.4-12.7,9.9-11.1c2.3,0.6,4.4,2.1,5.6,5.3l19.4,43.4c0,0,7-8.9,13.7-6c3.2,1.4,6,6.4,6,6.4s6.3-7.2,12.7-3.1
			c1.9,1.2,4.1,6.7,4.1,6.7s7-6.5,14.5-0.8c4.6,3.5,11,44.9,9.2,52c-1.8,7.1-3.9,8.8-1.4,14.1C295.9,294.2,319.2,332.8,319.2,332.8z
			"/>
		<path class="st12" d="M202.3,179.1l1,3c0.9,2.9,4,4.4,6.9,3.5l0,0c3-1,4.5-4.4,3.3-7.3l-1.3-3c-1-2.3-3.6-3.3-5.8-2.3l-1.5,0.6
			C202.7,174.6,201.6,176.9,202.3,179.1z"/>
		<path class="st12" d="M198.4,248.1l-3.7,1.8l-7.4-14.1c-0.2-0.4-0.3-0.8-0.5-1.1c0.6-0.2,1.6-0.5,2.6-0.8c2.8-0.9,5.9,0.3,7.3,2.9
			l3.3,6.2C201.1,244.8,200.3,247.2,198.4,248.1z"/>
	</g>
</g>
</svg>
