<?xml version="1.0" encoding="UTF-8" standalone="no"?><!-- Generator: Gravit.io --><svg xmlns="http://www.w3.org/2000/svg" xmlns:xlink="http://www.w3.org/1999/xlink" style="isolation:isolate" viewBox="0 0 400 300" width="400pt" height="300pt"><defs><clipPath id="_clipPath_0hsGV7VzcPtqUtJJVIwquLFprdJ6ryDo"><rect width="400" height="300"/></clipPath></defs><g clip-path="url(#_clipPath_0hsGV7VzcPtqUtJJVIwquLFprdJ6ryDo)"><path d=" M -201.15 562.932 C -260.701 554.93 -343.618 560.145 -380.936 615.548 C -389.845 628.765 -394.407 645.463 -390.712 660.975 C -382.337 696.118 -338.577 720.992 -308.501 735.103 C -272.491 751.922 -233.026 760.711 -193.481 762.978 C -154.509 765.206 -113.35 764.859 -76.406 750.788 C -49.665 740.598 -26.045 721.166 -21.336 691.57 C -12.854 638.221 -70.484 602.811 -112.51 586.113 C -141.02 574.857 -170.78 567.075 -201.15 562.932 L -201.15 562.932 Z " fill="rgb(40,43,78)"/><g opacity="0.63"><linearGradient id="_lgradient_60" x1="0.761358671909131" y1="0.8090325092466424" x2="0.3847750109218002" y2="0.48399974384690453" gradientTransform="matrix(122.116,0,0,64.179,-160.258,674.432)" gradientUnits="userSpaceOnUse"><stop offset="0%" stop-opacity="0" style="stop-color:rgb(255,255,255)"/><stop offset="100%" stop-opacity="0.44" style="stop-color:rgb(187,187,187)"/></linearGradient><path d=" M -160.258 693.264 L -82.955 738.611 L -38.141 711.376 L -101.427 674.432" fill="url(#_lgradient_60)"/></g><g opacity="0.63"><linearGradient id="_lgradient_61" x1="0" y1="0.5" x2="0.7673512408123144" y2="-0.14122700600006044" gradientTransform="matrix(122.116,0,0,64.179,-265.275,597.036)" gradientUnits="userSpaceOnUse"><stop offset="100%" stop-opacity="0" style="stop-color:rgb(255,255,255)"/><stop offset="100%" stop-opacity="0.029010733971569475" style="stop-color:rgb(254,248,250)"/></linearGradient><path d=" M -265.275 615.868 L -187.972 661.215 L -143.159 633.98 L -206.445 597.036" fill="url(#_lgradient_61)"/></g><path d=" M -192.387 610.04 C -192.387 610.04 -193.814 587.14 -194.348 581.471 C -194.828 576.35 -196.535 553.836 -210.619 546.794 C -228.411 537.805 -248.924 526.148 -267.876 531.576 C -283.281 535.898 -288.469 589.073 -288.295 592.621 C -287.989 598.996 -240.335 632.66 -192.387 610.04 Z " fill="rgb(43,65,93)"/><path d=" M -222.943 540.499 C -222.943 540.499 -219.648 560.425 -238.427 562.012 C -251.565 563.119 -248.644 552.463 -248.644 552.463 C -248.644 552.463 -255.072 557.677 -261.901 553.65 C -268.73 549.622 -257.553 533.724 -252.445 532.67 C -247.337 531.616 -235.146 531.897 -222.943 540.499 Z " fill="rgb(218,97,56)"/><circle vector-effect="non-scaling-stroke" cx="-218.84821759946027" cy="490.39089185664267" r="14.831054333736347" fill="rgb(75,27,19)"/><path d=" M -261.101 502.781 C -263.459 499.82 -264.818 496.187 -264.982 492.405 C -265.195 490.585 -265.109 488.742 -264.728 486.95 C -264.158 485.084 -262.893 483.509 -261.194 482.549 C -259.924 481.714 -258.764 480.724 -257.74 479.601 C -257.74 479.601 -218.942 472.065 -214.5 494.659 L -214.5 494.659 C -213.687 500.994 -214.153 520.08 -231.505 528.082 C -249.124 536.191 -240.948 507.409 -240.948 507.409" fill="rgb(75,27,19)"/><path d=" M -251.711 534.924 L -228.598 523.601 L -230.558 539.699 C -230.558 539.699 -230.718 540.006 -231.025 540.486 C -235.226 544.354 -241.695 545.514 -248.084 545.087 C -249.507 544.974 -250.638 543.843 -250.751 542.42 C -250.978 539.899 -251.271 537.418 -251.711 534.924 Z " fill="rgb(255,172,115)"/><path d=" M -261.848 498.473 C -261.848 498.473 -263.181 490.911 -254.699 489.604 C -252.418 489.257 -250.244 489.244 -248.857 491.378 C -247.15 494.045 -246.91 497.1 -244.442 499.38 C -241.948 501.543 -238.442 502.101 -235.4 500.821 C -235.333 503.328 -235.707 505.222 -238.774 506.036 C -241.842 506.849 -259.447 503.408 -261.848 498.473 Z " fill="rgb(255,172,115)"/><path d=" M -231.199 491.311 C -240.441 488.017 -249.231 486.083 -259.033 487.403 C -259.917 487.452 -260.614 488.172 -260.634 489.057 C -261.354 485.136 -262.301 475.226 -254.312 472.226 C -244.282 468.451 -227.517 473.212 -222.889 482.255 C -220.576 486.707 -219.468 491.687 -219.675 496.699 C -222.983 494.112 -227.157 492.752 -231.199 491.311 Z " fill="rgb(75,27,19)"/><path d=" M -251.111 539.085 L -250.751 542.473 C -250.751 542.473 -235.333 542.033 -233.199 529.509 L -251.111 539.085 Z " fill="rgb(226,142,84)"/><path d=" M -261.941 497.78 C -261.941 497.78 -261.861 512.651 -261.941 518.186 C -262.021 524.014 -256.179 539.272 -249.937 539.259 C -240.268 539.259 -230.532 527.602 -230.532 525.054 C -230.532 525.054 -220.849 519.026 -226.317 514.385 C -231.785 509.743 -232.212 517.599 -232.212 517.599 C -232.212 517.599 -235.2 513.224 -235.4 501.714 C -235.4 501.714 -249.071 503.888 -261.941 497.78 Z " fill="rgb(255,172,115)"/><path d=" M -275.665 604.185 C -276.56 603.637 -277.423 603.04 -278.252 602.397 C -277.869 590.797 -276.319 579.264 -273.624 567.974 C -273.158 566 -270.117 566.84 -270.584 568.814 C -273.374 580.496 -274.912 592.443 -275.172 604.451 L -275.665 604.185 Z " fill="rgb(23,40,58)"/><path d=" M -216.594 617.188 C -217.041 617.196 -217.487 617.237 -217.928 617.308 L -219.088 577.59 C -219.088 576.721 -218.384 576.016 -217.514 576.016 C -216.645 576.016 -215.941 576.721 -215.941 577.59 L -214.794 617.055 C -215.397 617.05 -215.999 617.094 -216.594 617.188 Z " fill="rgb(23,40,58)"/><path d=" M -228.078 528.589 C -231.559 525.245 -233.925 520.909 -234.853 516.172 C -236.04 508.756 -226.13 512.171 -224.53 515.318 C -222.929 518.466 -223.49 526.868 -228.078 528.589 Z " fill="rgb(75,27,19)"/><g opacity="0.63"><linearGradient id="_lgradient_62" x1="0" y1="0.5" x2="0.9567060912971819" y2="0.20894424095223896" gradientTransform="matrix(122.103,0,0,64.179,-293.204,689.076)" gradientUnits="userSpaceOnUse"><stop offset="100%" stop-opacity="0" style="stop-color:rgb(255,255,255)"/><stop offset="100%" stop-opacity="0.02901073397156947" style="stop-color:rgb(254,248,250)"/></linearGradient><path d=" M -293.204 707.909 L -215.901 753.255 L -171.101 726.021 L -234.373 689.076" fill="url(#_lgradient_62)"/></g><path d=" M -80.367 697.052 C -80.367 697.052 -81.848 673.472 -82.395 667.63 C -82.888 662.295 -84.649 639.182 -99.146 631.859 C -117.458 622.59 -138.584 610.586 -158.097 616.188 C -173.915 620.723 -179.303 675.459 -179.13 679.113 C -178.81 685.675 -129.742 720.352 -80.367 697.052 Z " fill="rgb(43,65,93)"/><path d=" M -117.832 634.687 C -117.832 635.941 -119.285 637.808 -119.846 638.861 C -124.554 647.811 -128.675 657.267 -133.183 666.416 C -137.571 675.352 -138.384 700.466 -138.905 702.107 C -138.905 702.267 -156.883 695.585 -157.03 695.678 C -157.177 695.772 -158.51 682.688 -158.524 681.901 C -158.737 667.577 -159.791 660.268 -157.19 649.238 C -155.323 641.409 -151.855 636.114 -150.121 628.298 C -149.268 624.564 -148.667 620.096 -146.8 616.695 C -144.653 612.88 -117.832 626.298 -117.832 634.687 Z " fill="rgb(218,97,56)"/><path d=" M -109.763 704.881 C -110.256 704.881 -110.736 704.881 -111.23 704.961 Q -111.016 690.17 -111.15 675.392 C -111.074 674.554 -110.371 673.912 -109.529 673.912 C -108.688 673.912 -107.985 674.554 -107.909 675.392 Q -107.775 690.063 -107.989 704.734 L -109.763 704.881 Z " fill="rgb(23,40,58)"/><path d=" M -163.245 692.504 L -163.245 692.504 C -163.351 692.441 -163.463 692.387 -163.579 692.344 L -164.459 691.864 L -165.486 691.304 L -166.339 690.837 Q -166.339 673.258 -165.299 655.72 C -165.179 653.639 -161.938 653.626 -162.058 655.72 Q -163.072 673.805 -163.112 691.904 C -163.118 692.111 -163.163 692.314 -163.245 692.504 Z " fill="rgb(23,40,58)"/><path d=" M -146.734 616.682 C -146.734 616.682 -150.255 640.689 -148.254 643.089 L -140.038 636.647 L -135.157 646.851 L -114.737 629.125 L -146.734 616.682 Z " fill="rgb(43,65,93)"/><path d=" M -150.335 579.844 C -150.335 579.844 -150.255 595.169 -150.335 600.864 C -150.415 606.865 -147.881 623.083 -138.011 622.563 C -128.141 622.043 -118.005 610.56 -118.005 607.892 C -118.005 607.892 -108.029 601.69 -113.67 596.916 C -119.312 592.141 -119.739 600.223 -119.739 600.223 C -119.739 600.223 -122.793 595.782 -123.007 583.859 C -123.033 583.912 -137.117 586.099 -150.335 579.844 Z " fill="rgb(255,172,115)"/><path d=" M -118.485 623.817 C -123.513 628.458 -131.702 629.325 -139.278 628.232 C -140.448 628.146 -141.396 627.248 -141.545 626.084 C -141.665 623.764 -141.812 621.443 -142.012 619.136 L -115.991 606.412 L -118.005 622.99 C -118.005 622.99 -118.178 623.324 -118.485 623.817 Z " fill="rgb(255,172,115)"/><path d=" M -136.344 628.552 C -137.357 628.472 -138.371 628.365 -139.371 628.232 C -140.5 628.152 -141.415 627.287 -141.559 626.164 C -141.559 624.951 -141.679 623.75 -141.759 622.55 C -136.25 622.55 -126.448 621.216 -121.273 611.053 C -122.638 619.241 -128.449 625.987 -136.344 628.552 Z " fill="rgb(229,137,74)"/><path d=" M -84.555 622.59 C -93.771 612.414 -98.199 592.194 -98.199 592.194 L -98.306 592.194 C -100.973 569.961 -116.765 563.226 -130.649 562.439 C -144.533 561.652 -155.029 566.907 -155.776 576.243 C -156.523 585.579 -150.268 589.514 -150.268 589.514 C -150.268 589.514 -126.768 596.316 -125.221 593.421 C -123.673 590.527 -123.367 577.097 -121.993 594.675 C -121.539 600.477 -121.659 606.305 -121.699 612.12 C -121.712 619.203 -121.128 626.275 -119.952 633.26 C -119.099 638.488 -118.325 644.316 -113.284 647.171 C -105.561 651.492 -94.478 651.505 -86.876 646.811 C -84.179 659.84 -82.255 673.018 -81.114 686.276 C -81.114 686.276 -64.869 685.275 -63.029 661.268 C -63.029 661.268 -75.392 632.726 -84.555 622.59 Z " fill="rgb(75,27,19)"/><path d=" M -216.914 712.443 C -216.914 712.443 -218.395 688.863 -218.942 683.021 C -219.435 677.686 -221.196 654.573 -235.693 647.251 C -254.019 637.995 -275.132 625.991 -294.644 631.579 C -310.462 636.114 -315.85 690.85 -315.677 694.505 C -315.37 701.067 -266.302 735.743 -216.914 712.443 Z " fill="rgb(218,97,56)"/><path d=" M -286.068 600.37 C -286.068 600.37 -289.949 597.196 -292.203 589.847 C -292.203 589.847 -290.696 571.842 -282.734 570.855 C -282.734 570.855 -272.331 573.989 -272.331 573.989 C -272.331 573.989 -242.655 568.734 -238.081 592.008 L -238.081 592.008 C -237.24 598.53 -233.679 622.177 -252.965 627.351 C -272.251 632.526 -265.315 605.145 -265.315 605.145" fill="rgb(75,27,19)"/><path d=" M -286.895 595.235 C -286.895 595.235 -286.815 610.56 -286.895 616.255 C -286.975 622.257 -284.441 638.475 -274.571 637.955 C -264.702 637.434 -254.565 625.951 -254.565 623.284 C -254.565 623.284 -244.589 617.082 -250.231 612.307 C -255.873 607.532 -256.299 615.615 -256.299 615.615 C -256.299 615.615 -259.354 611.173 -259.567 599.25 C -259.594 599.276 -273.664 601.49 -286.895 595.235 Z " fill="rgb(255,172,115)"/><path d=" M -255.046 639.208 C -260.074 643.85 -268.263 644.717 -275.838 643.623 C -277.009 643.537 -277.957 642.639 -278.106 641.476 C -278.226 639.155 -278.373 636.834 -278.573 634.527 L -252.605 621.816 L -254.619 638.395 C -254.619 638.395 -254.739 638.715 -255.046 639.208 Z " fill="rgb(255,172,115)"/><path d=" M -272.891 643.93 C -273.905 643.85 -274.918 643.743 -275.918 643.61 C -277.047 643.53 -277.962 642.665 -278.106 641.542 C -278.106 640.329 -278.226 639.128 -278.306 637.928 C -272.798 637.928 -262.995 636.594 -257.82 626.431 C -259.185 634.619 -264.996 641.365 -272.891 643.93 L -272.891 643.93 Z " fill="rgb(229,137,74)"/><path d=" M -252.605 633.873 C -254.712 635.274 -256.873 636.541 -259.06 637.875 C -262.128 639.774 -265.381 641.356 -268.77 642.596 C -271.584 643.556 -276.505 644.943 -278.106 641.409 C -278.259 640.772 -278.295 640.112 -278.212 639.462 C -278.166 638.674 -278.193 637.884 -278.292 637.101 L -278.292 637.101 C -279.636 636.602 -280.81 635.732 -281.68 634.594 C -281.749 634.504 -281.795 634.398 -281.814 634.287 L -281.814 634.287 C -281.814 634.287 -288.656 653.853 -287.575 654.786 C -287.575 654.786 -278.239 650.932 -278.239 650.932 C -278.239 650.932 -274.718 658.147 -273.331 658.854 C -273.331 658.854 -253.939 643.743 -251.538 639.248 L -252.605 633.873 Z " fill="rgb(212,222,232)"/><path d=" M -285.241 653.973 C -285.655 654.133 -286.575 658.281 -285.241 662.242 C -285.241 662.242 -281.88 663.776 -281.24 663.575 C -280.6 663.375 -275.105 657.134 -275.332 656.787 C -275.558 656.44 -278.693 650.705 -278.693 650.705 L -285.241 653.973 Z " fill="rgb(244,122,99)"/><path d=" M -285.241 662.228 C -285.241 662.228 -297.245 709.082 -296.458 709.496 C -296.458 709.496 -285.201 715.284 -281.493 715.538 L -281.24 663.522" fill="rgb(244,122,99)"/><ellipse vector-effect="non-scaling-stroke" cx="-284.6943644031081" cy="611.466711318566" rx="5.161527002838113" ry="7.015408794555128" fill="none" stroke-width="0.75" stroke="rgb(66,33,11)" stroke-linejoin="miter" stroke-linecap="butt" stroke-miterlimit="10"/><ellipse vector-effect="non-scaling-stroke" cx="-270.17006748814504" cy="614.8010310878412" rx="5.72169272407632" ry="7.015408794555128" fill="none" stroke-width="0.75" stroke="rgb(66,33,11)" stroke-linejoin="miter" stroke-linecap="butt" stroke-miterlimit="10"/><mask id="_mask_7XHGIW6kVy9a236RLLON5XiRgJDKQIDI" x="-200%" y="-200%" width="400%" height="400%"><rect x="-200%" y="-200%" width="400%" height="400%" style="fill:white;"/><line x1="-279.533" y1="613.161" x2="-275.892" y2="613.681" fill="black" stroke="none"/></mask><line x1="-279.533" y1="613.161" x2="-275.892" y2="613.681" mask="url(#_mask_7XHGIW6kVy9a236RLLON5XiRgJDKQIDI)" vector-effect="non-scaling-stroke" stroke-width="1.5" stroke="rgb(66,33,11)" stroke-linejoin="miter" stroke-linecap="butt" stroke-miterlimit="10"/><mask id="_mask_SklnPMVnhIM2m490PN1zuiOKFsCKlf7r" x="-200%" y="-200%" width="400%" height="400%"><rect x="-200%" y="-200%" width="400%" height="400%" style="fill:white;"/><line x1="-264.448" y1="614.801" x2="-256.353" y2="612.774" fill="black" stroke="none"/></mask><line x1="-264.448" y1="614.801" x2="-256.353" y2="612.774" mask="url(#_mask_SklnPMVnhIM2m490PN1zuiOKFsCKlf7r)" vector-effect="non-scaling-stroke" stroke-width="1.5" stroke="rgb(66,33,11)" stroke-linejoin="miter" stroke-linecap="butt" stroke-miterlimit="10"/><path d=" M 17.662 165.105 L 250.342 300 L 377.182 226.767 L 145.566 92.68 L 17.662 165.105 L 17.662 165.105 Z " fill="rgb(40,43,78)"/><g opacity="0.32"><linearGradient id="_lgradient_63" x1="0.3782904047551656" y1="0.7218148487626035" x2="0.7779507500707616" y2="0.3364483047490174" gradientTransform="matrix(90.64,0,0,55.98,63.033,153.367)" gradientUnits="userSpaceOnUse"><stop offset="0%" stop-opacity="0.03" style="stop-color:rgb(255,255,255)"/><stop offset="99%" stop-opacity="1" style="stop-color:rgb(42,23,0)"/></linearGradient><path d=" M 144.347 170.12 C 136.651 164.848 128.659 159.858 121.873 153.367 L 63.033 188.951 L 99.707 209.347 L 153.673 177.278 C 150.582 174.854 147.554 172.301 144.347 170.12 Z " fill="url(#_lgradient_63)"/></g><g opacity="0.32"><linearGradient id="_lgradient_64" x1="0" y1="0.5" x2="0.8695871938261105" y2="0.006220583323251039" gradientTransform="matrix(80.904,0,0,47.655,144.424,200.137)" gradientUnits="userSpaceOnUse"><stop offset="100%" stop-opacity="0.03" style="stop-color:rgb(255,255,255)"/><stop offset="100%" stop-opacity="0.06711355984083256" style="stop-color:rgb(247,246,245)"/></linearGradient><path d=" M 216.015 208.565 C 208.319 203.292 206.702 206.628 199.917 200.137 L 144.424 230.59 L 171.362 247.792 L 225.328 215.722 C 222.25 213.298 219.209 210.732 216.015 208.565 Z " fill="url(#_lgradient_64)"/></g><g opacity="0.32"><linearGradient id="_lgradient_65" x1="0" y1="0.5" x2="0.9059811080351357" y2="0.07668187862621823" gradientTransform="matrix(98.337,0,0,47.655,220.543,237.863)" gradientUnits="userSpaceOnUse"><stop offset="100%" stop-opacity="0.03" style="stop-color:rgb(255,255,255)"/><stop offset="100%" stop-opacity="0.05924770088949197" style="stop-color:rgb(249,248,247)"/></linearGradient><path d=" M 292.109 246.291 C 284.412 241.019 282.796 244.354 276.01 237.863 L 220.543 268.316 L 247.482 285.518 L 318.88 245.008 C 315.802 242.571 295.303 248.459 292.109 246.291 Z " fill="url(#_lgradient_65)"/></g><g opacity="0.32"><linearGradient id="_lgradient_66" x1="0" y1="0.5" x2="0.9739274004094809" y2="0.7268599099259953" gradientTransform="matrix(109.176,0,0,64.087,16.764,122.324)" gradientUnits="userSpaceOnUse"><stop offset="100%" stop-opacity="0.03" style="stop-color:rgb(255,255,255)"/><stop offset="100%" stop-opacity="0.06468311432913201" style="stop-color:rgb(247,247,246)"/></linearGradient><path d=" M 125.94 143.387 L 53.438 186.411 L 16.764 166.015 L 89.009 122.324" fill="url(#_lgradient_66)"/></g><path d=" M 180.021 65.536 L 180.021 111.883 L 98.437 159.396 L 98.437 104.712 L 180.021 65.536 L 180.021 65.536 Z " fill="rgb(255,192,80)"/><path d=" M 62.468 137.73 L 62.468 90.794 L 98.437 111.562 L 98.437 159.396" fill="rgb(218,97,56)"/><path d=" M 98.437 159.396 L 98.437 111.562 L 62.468 90.794 L 62.468 137.73 L 98.437 159.396 L 98.437 159.396 Z " fill="rgb(20,102,102)"/><path d=" M 98.091 112.114 L 62.199 91.397 L 146.079 43.691 L 180.021 65.536 L 98.091 112.114 L 98.091 112.114 Z " fill="rgb(255,255,255)"/><path d=" M 140.974 45.474 C 135.586 45.012 129.916 43.383 125.94 39.702 L 125.94 55.659 C 125.936 60.053 127.679 64.269 130.786 67.377 C 133.892 70.486 138.106 72.232 142.5 72.232 L 142.5 72.232 C 151.646 72.232 159.061 64.818 159.061 55.672 L 159.061 39.432 C 153.404 41.728 146.99 46 140.974 45.474 Z " fill="rgb(218,97,56)"/><ellipse vector-effect="non-scaling-stroke" cx="142.500106896994" cy="39.59892247829992" rx="16.560482319237174" ry="8.774105272159744" fill="rgb(94,209,141)"/><path d=" M 142.5 41.048 C 142.5 41.048 131.237 39.394 128.249 21.166 C 128.249 21.204 137.857 26.502 142.5 41.048 Z " fill="rgb(94,209,141)"/><path d=" M 144.155 38.765 C 144.155 38.765 131.237 15.573 144.155 0 C 148.099 12.621 148.099 26.144 144.155 38.765 L 144.155 38.765 Z " fill="rgb(94,209,141)"/><path d=" M 142.5 24.193 C 142.5 24.193 131.237 22.538 128.249 4.31 C 128.249 4.31 137.857 9.608 142.5 24.193 Z " fill="rgb(94,209,141)"/><path d=" M 143.873 31.62 C 143.873 31.62 141.051 20.588 156.7 10.801 C 156.7 10.801 155.52 21.704 143.873 31.62 Z " fill="rgb(94,209,141)"/><ellipse vector-effect="non-scaling-stroke" cx="142.500106896994" cy="39.59892247829992" rx="16.560482319237174" ry="8.774105272159744" fill="rgb(20,102,102)"/><path d=" M 142.5 41.048 C 142.5 41.048 131.237 39.394 128.249 21.166 C 128.249 21.204 137.857 26.502 142.5 41.048 Z " fill="rgb(94,209,141)"/><path d=" M 144.155 38.765 C 144.155 38.765 131.237 15.573 144.155 0 C 148.099 12.621 148.099 26.144 144.155 38.765 L 144.155 38.765 Z " fill="rgb(94,209,141)"/><path d=" M 142.5 24.193 C 142.5 24.193 131.237 22.538 128.249 4.31 C 128.249 4.31 137.857 9.608 142.5 24.193 Z " fill="rgb(94,209,141)"/><path d=" M 143.873 31.62 C 143.873 31.62 141.051 20.588 156.7 10.801 C 156.7 10.801 155.52 21.704 143.873 31.62 Z " fill="rgb(94,209,141)"/><ellipse vector-effect="non-scaling-stroke" cx="97.53923119681869" cy="84.68807457134301" rx="28.079702398768546" ry="16.445033565656132" fill="rgb(255,145,46)"/><path d=" M 69.46 84.688 L 69.46 79.942 L 72.513 83.739 L 69.46 84.688 L 69.46 84.688 Z " fill="rgb(224,148,79)"/><path d=" M 125.606 79.942 L 125.606 84.688 L 122.053 84.688 L 124.657 80.878 L 125.606 79.942 L 125.606 79.942 Z " fill="rgb(224,148,79)"/><ellipse vector-effect="non-scaling-stroke" cx="97.53923119681869" cy="79.94184803523322" rx="28.079702398768546" ry="16.445033565656132" fill="rgb(255,185,44)"/><path d=" M 111.778 77.748 C 111.979 78.144 112.055 78.591 111.996 79.031 L 111.881 79.467 L 106.749 79.467 C 106.793 79.325 106.823 79.179 106.839 79.031 C 106.82 78.697 106.714 78.375 106.531 78.095 C 106.233 77.59 105.785 77.19 105.249 76.953 C 104.502 76.565 103.678 76.35 102.837 76.324 C 102.06 76.265 101.279 76.383 100.554 76.671 Q 99.476 77.133 99.72 77.877 C 99.961 78.485 100.333 79.032 100.81 79.48 C 101.363 80.043 101.882 80.638 102.362 81.263 C 102.829 81.812 102.938 82.581 102.645 83.239 C 102.082 84.169 101.196 84.858 100.156 85.176 C 98.435 85.891 96.594 86.274 94.73 86.304 C 92.717 86.373 90.707 86.091 88.791 85.471 L 85.84 86.753 L 82.39 85.073 L 85.25 83.79 C 84.732 83.432 84.27 83 83.878 82.507 C 83.583 82.172 83.353 81.785 83.198 81.366 C 83.1 81.067 83.039 80.756 83.018 80.442 C 82.984 80.23 82.984 80.013 83.018 79.801 L 83.121 79.557 L 88.252 79.557 C 88.198 79.725 88.155 79.897 88.124 80.07 C 88.145 80.491 88.288 80.896 88.534 81.237 C 88.943 81.877 89.532 82.381 90.227 82.687 C 91.153 83.152 92.168 83.415 93.203 83.457 C 94.14 83.521 95.078 83.372 95.949 83.02 Q 97.013 82.559 96.744 81.815 C 96.492 81.203 96.107 80.655 95.615 80.211 C 95.051 79.655 94.528 79.06 94.05 78.428 C 93.591 77.867 93.505 77.087 93.832 76.44 C 94.432 75.503 95.339 74.805 96.398 74.464 C 98.053 73.796 99.82 73.448 101.606 73.438 C 103.495 73.373 105.379 73.665 107.16 74.298 L 110.097 73.015 L 113.317 74.772 L 110.367 76.055 C 110.98 76.484 111.467 77.068 111.778 77.748 Z " fill="rgb(234,139,36)"/><ellipse vector-effect="non-scaling-stroke" cx="97.57771411467897" cy="80.14709026382177" rx="23.564373369820842" ry="13.802539872578777" fill="none" stroke-width="6" stroke="rgb(247,147,30)" stroke-linejoin="miter" stroke-linecap="butt" stroke-miterlimit="10"/><ellipse vector-effect="non-scaling-stroke" cx="97.53923119681869" cy="75.63176123487403" rx="28.079702398768546" ry="16.445033565656132" fill="rgb(255,145,46)"/><path d=" M 69.46 75.632 L 69.46 70.886 L 72.513 74.683 L 69.46 75.632 L 69.46 75.632 Z " fill="rgb(224,148,79)"/><path d=" M 125.606 70.886 L 125.606 75.632 L 122.053 75.632 L 124.657 71.822 L 125.606 70.886 L 125.606 70.886 Z " fill="rgb(224,148,79)"/><ellipse vector-effect="non-scaling-stroke" cx="97.53923119681869" cy="70.88553469876425" rx="28.079702398768546" ry="16.445033565656132" fill="rgb(255,185,44)"/><path d=" M 111.778 68.679 C 111.979 69.075 112.055 69.522 111.996 69.962 L 111.881 70.398 L 106.749 70.398 C 106.793 70.256 106.823 70.11 106.839 69.962 C 106.82 69.628 106.714 69.305 106.531 69.026 C 106.233 68.52 105.785 68.121 105.249 67.884 C 104.502 67.496 103.678 67.281 102.837 67.255 C 102.06 67.196 101.279 67.314 100.554 67.602 Q 99.476 68.063 99.72 68.807 C 99.961 69.416 100.333 69.963 100.81 70.411 C 101.363 70.973 101.882 71.569 102.362 72.194 C 102.829 72.743 102.938 73.511 102.645 74.169 C 102.082 75.1 101.196 75.789 100.156 76.106 C 98.435 76.822 96.594 77.205 94.73 77.235 C 92.717 77.304 90.707 77.022 88.791 76.401 L 85.84 77.684 L 82.39 76.004 L 85.25 74.721 C 84.732 74.363 84.27 73.931 83.878 73.438 C 83.583 73.103 83.353 72.716 83.198 72.297 C 83.1 71.997 83.039 71.687 83.018 71.373 C 82.984 71.161 82.984 70.944 83.018 70.732 L 83.121 70.488 L 88.252 70.488 C 88.198 70.656 88.155 70.827 88.124 71.001 C 88.145 71.422 88.288 71.827 88.534 72.168 C 88.943 72.808 89.532 73.312 90.227 73.618 C 91.153 74.083 92.168 74.345 93.203 74.387 C 94.14 74.452 95.078 74.303 95.949 73.951 Q 97.013 73.49 96.744 72.746 C 96.492 72.133 96.107 71.585 95.615 71.142 C 95.051 70.586 94.528 69.99 94.05 69.359 C 93.591 68.798 93.505 68.018 93.832 67.371 C 94.432 66.434 95.339 65.736 96.398 65.395 C 98.053 64.727 99.82 64.379 101.606 64.369 C 103.495 64.304 105.379 64.596 107.16 65.229 L 110.097 63.946 L 113.317 65.703 L 110.367 66.986 C 110.98 67.414 111.467 67.999 111.778 68.679 Z " fill="rgb(234,139,36)"/><ellipse vector-effect="non-scaling-stroke" cx="97.57771411467897" cy="71.077949288066" rx="23.564373369820842" ry="13.80253987257878" fill="none" stroke-width="2" stroke="rgb(247,147,30)" stroke-linejoin="miter" stroke-linecap="butt" stroke-miterlimit="10"/><ellipse vector-effect="non-scaling-stroke" cx="86.55877196733223" cy="68.70483602001109" rx="28.079702398768546" ry="16.445033565656132" fill="rgb(255,145,46)"/><path d=" M 58.479 68.705 L 58.479 63.959 L 61.532 67.756 L 58.479 68.705 L 58.479 68.705 Z " fill="rgb(224,148,79)"/><path d=" M 114.638 63.959 L 114.638 68.705 L 111.072 68.705 L 113.676 64.895 L 114.638 63.959 L 114.638 63.959 Z " fill="rgb(224,148,79)"/><ellipse vector-effect="non-scaling-stroke" cx="86.55877196733223" cy="63.958609483901284" rx="28.079702398768546" ry="16.445033565656136" fill="rgb(255,185,44)"/><path d=" M 100.81 61.765 C 101.011 62.161 101.087 62.608 101.028 63.048 L 100.913 63.484 L 95.782 63.484 C 95.826 63.342 95.856 63.196 95.872 63.048 C 95.853 62.714 95.747 62.391 95.564 62.111 C 95.266 61.606 94.817 61.207 94.281 60.97 C 93.534 60.582 92.71 60.367 91.869 60.341 C 91.092 60.282 90.311 60.4 89.586 60.688 Q 88.509 61.149 88.752 61.893 C 88.993 62.502 89.365 63.049 89.843 63.497 C 90.396 64.059 90.914 64.655 91.395 65.28 C 91.861 65.829 91.971 66.597 91.677 67.255 C 91.147 68.2 90.289 68.917 89.265 69.269 C 87.544 69.985 85.703 70.368 83.839 70.398 C 81.826 70.467 79.817 70.185 77.9 69.564 L 74.95 70.847 L 71.499 69.167 L 74.36 67.884 C 73.842 67.526 73.379 67.094 72.987 66.601 C 72.692 66.265 72.462 65.878 72.307 65.459 C 72.209 65.16 72.149 64.85 72.128 64.536 C 72.093 64.323 72.093 64.107 72.128 63.894 L 72.23 63.651 L 77.361 63.651 C 77.308 63.819 77.265 63.99 77.233 64.164 C 77.254 64.584 77.397 64.99 77.644 65.331 C 78.053 65.971 78.642 66.475 79.337 66.781 C 80.263 67.246 81.277 67.508 82.313 67.55 C 83.249 67.615 84.188 67.466 85.058 67.114 Q 86.123 66.652 85.853 65.908 C 85.602 65.296 85.216 64.748 84.724 64.305 C 84.16 63.749 83.637 63.153 83.159 62.522 C 82.7 61.961 82.615 61.181 82.941 60.534 C 83.541 59.597 84.448 58.898 85.507 58.558 C 87.162 57.89 88.93 57.541 90.715 57.532 C 92.604 57.467 94.488 57.759 96.269 58.391 L 99.207 57.109 L 102.427 58.866 L 99.476 60.149 C 100.05 60.566 100.51 61.122 100.81 61.765 Z " fill="rgb(234,139,36)"/><ellipse vector-effect="non-scaling-stroke" cx="86.61008252447934" cy="64.16385171248984" rx="23.564373369820842" ry="13.802539872578787" fill="none" stroke-width="2" stroke="rgb(247,147,30)" stroke-linejoin="miter" stroke-linecap="butt" stroke-miterlimit="10"/><path d=" M 111.342 161.32 L 144.694 141.515 C 146.074 140.696 147.79 140.696 149.17 141.515 L 175.531 157.164 C 176.872 157.964 177.687 159.416 177.671 160.977 C 177.656 162.538 176.811 163.973 175.454 164.745 L 143.603 182.82 C 142.266 183.574 140.631 183.574 139.293 182.82 L 111.444 167.157 C 110.393 166.572 109.733 165.471 109.712 164.268 C 109.69 163.065 110.312 161.942 111.342 161.32 L 111.342 161.32 Z " fill="rgb(20,102,102)"/><path d=" M 109.687 164.181 L 109.7 158.729 L 113.458 159.909 L 112.355 164.296 L 109.687 164.181 L 109.687 164.181 Z " fill="rgb(20,102,102)"/><path d=" M 177.648 160.576 L 177.648 155.471 L 174.467 156.959 L 175.967 159.909 L 177.648 160.576 L 177.648 160.576 Z " fill="rgb(20,102,102)"/><path d=" M 111.342 155.83 L 144.694 136.024 C 146.074 135.206 147.79 135.206 149.17 136.024 L 175.531 151.674 C 176.872 152.474 177.687 153.926 177.671 155.487 C 177.656 157.048 176.811 158.483 175.454 159.255 L 143.603 177.329 C 142.266 178.084 140.631 178.084 139.293 177.329 L 111.419 161.628 C 110.389 161.034 109.748 159.94 109.732 158.751 C 109.716 157.562 110.328 156.452 111.342 155.83 L 111.342 155.83 Z " fill="rgb(44,147,144)"/><path d=" M 139.845 148.929 L 143.603 147.325 L 151.544 162.578 L 147.785 164.181 L 139.845 148.929 L 139.845 148.929 Z " fill="rgb(255,255,255)"/><path d=" M 158.137 152.739 C 159.847 152.706 161.545 153.025 163.127 153.675 C 164.41 154.265 165.102 154.958 165.102 155.894 C 165.102 156.831 164.41 157.523 162.999 158.113 C 159.724 159.276 156.144 159.244 152.89 158.024 C 151.608 157.434 150.915 156.741 150.915 155.805 C 150.915 154.868 151.595 154.175 153.006 153.572 C 154.639 152.939 156.387 152.655 158.137 152.739 Z  M 161.01 155.894 C 161.01 155.548 160.703 155.227 160.1 154.945 C 159.432 154.656 158.711 154.507 157.983 154.509 C 157.26 154.478 156.539 154.6 155.867 154.868 C 155.264 155.125 154.956 155.433 154.969 155.779 C 154.981 156.125 155.276 156.446 155.879 156.728 C 156.547 157.017 157.268 157.166 157.996 157.164 C 158.719 157.195 159.44 157.073 160.112 156.805 C 160.715 156.549 161.01 156.241 161.01 155.894 Z " fill="rgb(255,255,255)"/><path d=" M 140.499 155.702 C 140.499 156.587 139.806 157.331 138.395 157.921 C 135.115 159.084 131.53 159.047 128.274 157.818 C 126.991 157.216 126.312 156.536 126.299 155.599 C 126.286 154.663 127.004 153.983 128.403 153.38 C 131.676 152.213 135.258 152.245 138.511 153.47 C 139.832 154.086 140.499 154.817 140.499 155.702 Z  M 131.289 156.549 C 131.957 156.838 132.677 156.986 133.405 156.985 C 134.128 157.016 134.85 156.893 135.522 156.625 C 136.125 156.369 136.433 156.061 136.42 155.715 C 136.407 155.368 136.112 155.048 135.509 154.765 C 134.156 154.213 132.645 154.19 131.276 154.701 C 130.673 154.958 130.378 155.266 130.378 155.612 C 130.378 155.958 130.686 156.279 131.289 156.561" fill="rgb(255,255,255)"/><path d=" M 326.243 32.146 C 320.931 32.424 315.714 33.672 310.85 35.828 C 303.153 39.355 326.243 45.615 326.243 45.615" fill="rgb(242,174,22)"/><path d=" M 306.192 66.124 C 301.405 52.401 307.689 37.711 320.216 33.341 C 332.743 28.971 346.8 36.566 351.587 50.289 C 356.375 64.013 350.091 78.703 337.563 83.073 C 325.036 87.443 310.979 79.848 306.192 66.124 Z " fill="rgb(234,139,36)"/><path d=" M 299.01 67.709 C 294.222 53.985 300.506 39.296 313.034 34.926 C 325.561 30.556 339.618 38.15 344.405 51.874 C 349.192 65.598 342.908 80.287 330.381 84.657 C 317.854 89.027 303.797 81.433 299.01 67.709 Z " fill="rgb(255,208,8)"/><path d=" M 301.807 66.733 C 297.613 54.707 303.124 41.833 314.107 38.002 C 325.09 34.171 337.412 40.824 341.607 52.85 C 345.802 64.876 340.291 77.75 329.308 81.581 C 318.325 85.412 306.002 78.759 301.807 66.733 Z " fill="none" vector-effect="non-scaling-stroke" stroke-width="1" stroke="rgb(247,147,30)" stroke-linejoin="miter" stroke-linecap="butt" stroke-miterlimit="10"/><path d=" M 326.743 47.398 C 327.442 47.734 328.089 48.165 328.668 48.681 L 329.219 49.271 L 326.141 52.593 Q 325.935 52.362 325.576 52.016 C 325.109 51.648 324.596 51.342 324.05 51.105 C 323.309 50.735 322.492 50.542 321.664 50.541 C 320.806 50.505 319.964 50.778 319.291 51.311 C 318.724 51.75 318.393 52.428 318.393 53.145 C 318.415 53.983 318.913 54.734 319.675 55.082 C 320.604 55.635 321.6 56.066 322.639 56.365 Q 324.383 56.865 326.141 57.532 C 327.319 57.982 328.353 58.744 329.129 59.738 C 329.997 60.855 330.45 62.237 330.412 63.651 C 330.454 65.39 329.846 67.082 328.706 68.397 C 327.44 69.773 325.744 70.677 323.896 70.963 L 323.896 74.311 L 319.406 74.311 L 319.406 71.091 C 318.53 70.961 317.669 70.737 316.841 70.424 C 316.126 70.168 315.438 69.841 314.788 69.449 C 314.29 69.139 313.811 68.8 313.351 68.435 C 313.032 68.189 312.732 67.919 312.453 67.627 L 312.171 67.281 L 315.16 64.138 Q 315.391 64.408 315.827 64.831 C 316.409 65.298 317.052 65.682 317.738 65.973 C 318.704 66.449 319.766 66.695 320.843 66.691 C 321.887 66.748 322.919 66.435 323.755 65.806 C 324.427 65.268 324.811 64.448 324.794 63.587 C 324.77 62.746 324.273 61.991 323.511 61.637 C 322.581 61.077 321.58 60.646 320.535 60.354 Q 318.778 59.867 317.033 59.2 C 315.859 58.747 314.831 57.985 314.057 56.993 C 313.189 55.877 312.736 54.494 312.774 53.081 C 312.807 51.459 313.453 49.91 314.583 48.745 C 315.8 47.41 317.44 46.536 319.226 46.269 L 319.226 42.96 L 323.716 42.96 L 323.716 46.308 C 324.775 46.514 325.796 46.882 326.743 47.398 Z " fill="rgb(234,139,36)"/><path d=" M 331.81 165.887 L 342.303 171.839 L 342.303 126.557 L 350.552 131.304 L 337.621 101.287 L 323.857 116.667 L 332.234 121.234 L 331.81 165.887 L 331.81 165.887 Z " fill="rgb(218,97,56)"/><path d=" M 364.495 186.001 L 374.988 191.748 L 374.988 110.215 L 383.236 114.961 L 370.306 84.957 L 356.542 100.338 L 364.919 104.904 L 364.495 186.001 L 364.495 186.001 Z " fill="rgb(218,97,56)"/><path d=" M 223.723 57.207 C 216.806 39.235 225.17 19.264 242.389 12.637 C 259.607 6.01 279.202 15.221 286.119 33.193 C 293.036 51.165 284.672 71.136 267.453 77.763 C 250.235 84.389 230.64 75.179 223.723 57.207 Z " fill="rgb(234,139,36)"/><path d=" M 222.491 57.684 C 215.574 39.712 223.284 19.993 239.696 13.676 C 256.109 7.36 275.049 16.822 281.966 34.794 C 288.883 52.766 281.173 72.485 264.761 78.802 C 248.348 85.118 229.408 75.656 222.491 57.684 Z " fill="rgb(218,97,56)"/><path d=" M 213.95 38.765 L 253.985 46.18 L 233.692 9.146 C 233.692 9.146 216.028 17.818 213.95 38.765 Z " fill="rgb(94,209,141)"/><g opacity="0.24"><path d=" M 253.985 46.18 L 284.027 42.331 C 284.027 42.331 283.45 25.168 264.029 14.829 C 255.482 10.555 245.421 10.555 236.873 14.829 L 253.985 46.18 Z " fill="rgb(62,41,40)"/></g><g opacity="0.53"><path d=" M 269.571 218.544 L 328.757 213.413 C 328.757 213.413 334.094 218.147 333.068 219.725 L 269.571 225.112 C 269.571 225.112 267.339 219.853 269.571 218.544 Z " fill="rgb(255,255,255)"/></g><g opacity="0.53"><path d=" M 271.803 230.012 L 334.094 225.125 L 332.285 227.562 L 273.881 232.514 L 271.803 230.012 L 271.803 230.012 Z " fill="rgb(255,255,255)"/></g><path d=" M 300.652 247.343 C 278.409 247.343 260.989 235.798 260.989 221.136 C 260.989 206.474 278.409 194.98 300.652 194.98 C 322.895 194.98 340.315 206.525 340.315 221.187 C 340.315 235.849 322.895 247.343 300.652 247.343 Z  M 300.652 203.908 C 283.976 203.908 269.968 211.797 269.968 221.136 C 269.968 230.474 284.079 238.363 300.652 238.363 C 317.225 238.363 331.336 230.474 331.336 221.136 C 331.336 211.797 317.277 203.959 300.652 203.959 L 300.652 203.908 Z " fill="rgb(218,97,56)"/><path d=" M 269.199 231 L 220.248 260.068 C 213.155 264.275 219.607 275.371 226.662 271.138 L 275.613 242.07 C 282.706 237.863 276.254 226.767 269.199 231 Z " fill="rgb(218,97,56)"/><g opacity="0.24"><path d=" M 269.199 231 L 220.248 260.068 C 213.155 264.275 219.607 275.371 226.662 271.138 L 275.613 242.07 C 282.706 237.863 276.254 226.767 269.199 231 Z " fill="rgb(218,97,56)"/></g><path d=" M 300.652 247.343 C 278.409 247.343 260.989 235.798 260.989 221.136 C 260.989 206.474 278.409 194.98 300.652 194.98 C 322.895 194.98 340.315 206.525 340.315 221.187 C 340.315 235.849 322.895 247.343 300.652 247.343 Z  M 300.652 203.908 C 283.976 203.908 269.968 211.797 269.968 221.136 C 269.968 230.474 284.079 238.363 300.652 238.363 C 317.225 238.363 331.336 230.474 331.336 221.136 C 331.336 211.797 317.277 203.959 300.652 203.959 L 300.652 203.908 Z " fill="rgb(255,255,255)"/><path d=" M 199.378 66.794 C 194.254 71.204 190.379 76.884 188.141 83.264 C 184.19 94.155 194.054 111.972 194.054 111.972 L 209.448 99.838" fill="rgb(255,143,111)"/><path d=" M 197.685 210.912 L 193.516 208.603 L 194.567 202.651 C 194.567 202.651 200.776 203.228 201.315 205.447" fill="rgb(0,59,148)"/><path d=" M 199.25 210.822 C 200.186 210.245 201.174 209.745 202.136 209.219 C 204.547 207.936 208.024 206.538 209.499 204.088 C 210.106 203.073 210.029 201.791 209.306 200.855 C 207.113 198.213 202.354 202.548 199.904 199.572 C 199.416 198.995 199.198 189.823 199.198 189.823 L 189.911 192.389 C 189.911 192.389 188.333 210.809 188.513 211.951 C 188.513 211.951 191.887 214.183 191.887 214.183 C 192.834 213.997 193.742 213.645 194.567 213.144 C 195.542 212.439 194.657 203.793 195.85 205.011 C 197.043 206.23 197.633 210.951 197.633 210.951 C 198.175 210.976 198.718 210.933 199.25 210.822 Z " fill="rgb(218,97,56)"/><path d=" M 215.451 219.814 L 211.282 217.505 L 212.334 211.553 C 212.334 211.553 218.542 212.131 219.081 214.35" fill="rgb(0,59,148)"/><path d=" M 217.029 219.725 C 217.965 219.147 218.953 218.647 219.915 218.121 C 222.327 216.838 225.803 215.44 227.278 212.99 C 227.885 211.976 227.809 210.693 227.086 209.758 C 224.892 207.115 220.133 211.451 217.683 208.475 C 217.195 207.898 216.977 198.726 216.977 198.726 L 207.69 201.291 C 207.69 201.291 206.112 219.712 206.292 220.853 C 206.292 220.853 209.666 223.085 209.666 223.085 C 210.613 222.899 211.521 222.548 212.347 222.046 C 213.322 221.341 212.436 212.695 213.629 213.914 C 214.822 215.132 215.412 219.853 215.412 219.853 C 215.954 219.879 216.498 219.836 217.029 219.725 Z " fill="rgb(218,97,56)"/><path d=" M 185.203 159.922 L 182.522 196.507 C 182.522 196.507 186.871 202.523 201.494 199.175 L 201.494 199.175 L 201.636 174.507" fill="rgb(62,41,40)"/><path d=" M 202.149 167.17 C 201.828 170.325 202.149 205.075 202.149 205.075 C 202.149 205.075 206.189 212.644 223.802 205.075 L 223.558 175.572" fill="rgb(62,41,40)"/><path d=" M 186.755 169.325 C 191.314 171.99 196.154 174.142 201.187 175.739 L 201.302 175.739 C 201.795 175.531 202.363 175.753 202.585 176.239 C 205.692 177.153 208.854 177.869 212.052 178.381 C 216.156 179.035 219.569 175.995 223.776 175.816 C 223.776 159.666 223.853 113.64 216.977 103.981 L 196.646 97.182 C 196.556 98.863 186.768 110.202 186.999 124.018 C 187.144 136.303 186.527 148.585 185.152 160.794" fill="rgb(62,41,40)"/><path d=" M 218.825 85.24 L 216.952 103.776 C 216.952 103.776 201.764 104.391 195.222 99.927 L 195.222 84.149" fill="rgb(255,143,111)"/><path d=" M 238.169 73.041 L 236.616 75.157 C 237.442 73.438 238.17 71.673 238.797 69.872 C 239.233 68.589 237.258 68.153 236.822 69.372 L 236.591 70 Q 236.873 69.026 237.117 68.025 C 237.255 67.479 236.925 66.925 236.379 66.787 C 235.834 66.649 235.279 66.979 235.141 67.525 C 234.713 69.238 234.199 70.929 233.602 72.592 C 233.935 71.116 234.175 69.621 234.32 68.115 C 234.449 66.832 232.422 66.832 232.294 68.115 C 232.129 69.847 231.825 71.563 231.383 73.246 Q 231.383 72.374 231.229 71.501 C 231.199 71.208 231.045 70.942 230.806 70.77 C 230.806 70.539 230.677 70.321 230.6 70.09 C 230.432 69.632 229.963 69.356 229.48 69.43 C 228.997 69.505 228.634 69.91 228.612 70.398 L 228.484 78.095 C 228.116 78.886 227.636 79.62 227.06 80.275 C 228.042 80.962 228.988 81.699 229.895 82.482 C 230.704 83.179 231.475 83.919 232.204 84.701 Q 233.179 83.482 234.089 82.212 C 234.163 82.148 234.228 82.075 234.282 81.994 Q 237.014 77.966 239.913 74.067 C 240.709 73.002 238.938 72.002 238.169 73.041 Z " fill="rgb(255,181,169)"/><path d=" M 209.217 68.346 C 209.217 68.346 216.387 70.283 219.299 74.926 C 221.119 78.12 222.722 81.433 224.097 84.842 L 229.395 76.607 C 229.395 76.607 235.808 78.582 238.374 81.738 C 238.374 81.738 230.677 98.414 224.097 99.85 C 217.516 101.287 210.397 89.973 210.397 89.973 C 210.397 89.973 208.934 94.668 209.217 89.652" fill="rgb(255,143,111)"/><path d=" M 213.783 86.163 C 211.709 84.483 210.138 82.264 209.242 79.749 C 208.383 76.825 209.46 74.246 210.525 71.514 C 211.609 68.814 212.242 65.954 212.398 63.048 C 212.488 60.187 212.154 57.34 211.962 54.492 C 211.933 54.369 211.933 54.242 211.962 54.12 C 211.013 50.9 209.037 48.181 205.163 47.86 C 195.145 47.013 194.58 58.122 194.657 62.612 C 194.734 67.101 195.209 70.167 191.887 72.066 C 188.564 73.964 186.165 78.89 189.321 82.892 C 192.477 86.894 189.642 85.458 187.538 88.985 C 185.434 92.513 185.973 96.977 190.309 98.58 C 194.644 100.184 214.81 97.169 216.67 95.297 C 217.326 94.547 217.666 93.572 217.619 92.577 C 217.164 90.043 215.8 87.763 213.783 86.163 L 213.783 86.163 Z " fill="rgb(81,81,81)"/></g></svg>