<?xml version="1.0" encoding="utf-8"?>
<!-- Generator: Adobe Illustrator 24.0.1, SVG Export Plug-In . SVG Version: 6.00 Build 0)  -->
<svg version="1.1" id="Layer_1" xmlns="http://www.w3.org/2000/svg" xmlns:xlink="http://www.w3.org/1999/xlink" x="0px" y="0px"
	 viewBox="0 0 400 300" style="enable-background:new 0 0 400 300;" xml:space="preserve">
<style type="text/css">
	.st0{fill:none;}
	.st1{fill:#282B4E;}
	.st2{fill:#E8B66B;}
	.st3{fill:#D7A964;}
	.st4{fill:#FBCC85;}
	.st5{fill:#DA6138;}
	.st6{fill:#F27553;}
	.st7{fill:#F26949;}
	.st8{fill:#FCD79F;}
	.st9{fill:#3C4266;}
</style>
<rect class="st0" width="400" height="300"/>
<path class="st1" d="M206.2,280.1l167.9-94.2c2.5-1.4,4-4,4.1-6.8c0.1-2.8-1.4-5.5-3.8-7L211.6,71.3c-2.5-1.6-5.7-1.6-8.2-0.1
	l-177.5,103c-2.5,1.4-4,4.1-4,6.9c0,2.9,1.5,5.5,4,6.9L184.2,280C191,284,199.3,284,206.2,280.1z"/>
<path class="st2" d="M191.5,77.8c3.2-15.3-13.3-32.5-37.5-38.6c-24.5-6.2-29.1,6-33.1,21.5c-1.6,6.2-2.8,12-2.1,17.1H191.5z"/>
<path class="st3" d="M191.5,77.8h-15.9c3.2-15.3-13.3-32.5-37.5-38.6c-0.9-0.2-1.9-0.5-2.8-0.6c4.5-1.5,10.4-1.4,18.6,0.6
	C178.2,45.4,194.7,62.5,191.5,77.8z"/>
<path class="st2" d="M272.3,77.8c0.7-5.1-0.6-10.9-2.1-17.1c-3.9-15.5-8.5-27.7-33.1-21.5c-24.1,6.1-40.7,23.3-37.5,38.6H272.3z"/>
<path class="st3" d="M215.5,57v20.8h-15.9c-2-9.6,3.7-19.8,14.1-27.7C214.8,52.2,215.5,54.5,215.5,57z"/>
<path class="st3" d="M272.3,77.8H258c0.7-5.1-0.6-10.9-2.1-17.1c-2.7-10.6-5.7-19.6-15.1-22.3c21.3-4.1,25.6,7.6,29.3,22.3
	C271.7,66.9,272.9,72.7,272.3,77.8L272.3,77.8z"/>
<path class="st4" d="M208,77.8V57c0-4.1-3.3-7.4-7.4-7.4h-10.1c-4.1,0-7.4,3.3-7.4,7.4v20.8H208z"/>
<path class="st2" d="M208,57v20.8h-9.5V57c0-4.1-3.3-7.4-7.4-7.4h9.5C204.7,49.6,208,52.9,208,57L208,57z"/>
<path class="st5" d="M279.4,95.8v112.1c0,4.1-3.3,7.4-7.4,7.4H119.2c-4.1,0-7.4-3.3-7.4-7.4V95.8H279.4z"/>
<path class="st6" d="M111.7,157.9c6.8,4.8,17.1,10.1,31.6,12.3c0.7,0.1,1.5,0.2,2.2,0.2c7.2,0,13.4-5.2,14.6-12.3l8.9-52H222l8.9,52
	c1.2,7.1,7.4,12.3,14.6,12.3c0.7,0,1.5-0.1,2.2-0.2c14.5-2.2,24.9-7.5,31.6-12.3V95.8H111.7V157.9z"/>
<path class="st4" d="M182.1,95.8H209v119.6h-26.8V95.8z"/>
<path class="st2" d="M198.5,95.8H209v119.6h-10.4V95.8z"/>
<path class="st2" d="M182.1,95.8H209V106h-26.8V95.8z"/>
<path class="st7" d="M281.6,98.6h-172c-2,0-3.7-1.7-3.7-3.7V77.6c0-2,1.7-3.7,3.7-3.7h172c2,0,3.7,1.7,3.7,3.7v17.2
	C285.3,96.9,283.6,98.6,281.6,98.6z"/>
<path class="st8" d="M177.2,73.9h36.8v24.7h-36.8V73.9z"/>
<path class="st4" d="M203.8,73.9h10.2v24.7h-10.2V73.9z"/>
<path class="st4" d="M137.5,71.5l-28.8,67.4c-1.2,2.8-0.6,6.1,1.6,8.2c5.1,4.9,15.9,13,34.2,15.7c4,0.6,7.7-2.1,8.4-6.1l14.2-83.2
	c0.4-2.3-1.4-4.3-3.7-4.3h-22.6C139.4,69.2,138.1,70.1,137.5,71.5z"/>
<path class="st2" d="M167.1,73.6l-14.2,83.2c-0.7,4-4.4,6.7-8.4,6.1c-2.9-0.4-5.7-1-8.2-1.7c1.3-1.1,2.2-2.6,2.5-4.4L153,73.6
	c0.4-2.3-1.4-4.3-3.7-4.3h14.2C165.8,69.2,167.5,71.3,167.1,73.6z"/>
<path class="st4" d="M253.6,71.5l28.8,67.4c1.2,2.8,0.6,6.1-1.6,8.2c-5.1,4.9-15.9,13-34.2,15.7c-4,0.6-7.7-2.1-8.4-6.1L224,73.6
	c-0.4-2.3,1.4-4.3,3.7-4.3h22.6C251.7,69.2,253,70.1,253.6,71.5L253.6,71.5z"/>
<path class="st2" d="M280.8,147.1c-5.1,4.9-15.9,13-34.2,15.7c-2.3,0.4-4.6-0.4-6.2-2c12.8-3.6,20.9-9.8,25-13.8
	c2.2-2.1,2.9-5.4,1.7-8.2l-28.8-67.4c-0.6-1.4-1.9-2.3-3.4-2.3h15.3c1.5,0,2.8,0.9,3.4,2.3l28.8,67.4
	C283.6,141.7,283,145,280.8,147.1L280.8,147.1z"/>
<path class="st9" d="M281.6,71.2H275c-0.4-3.4-1.1-7-2.2-11.2c-2-7.9-4.3-15.4-9.6-20.2c-5.9-5.3-14.4-6.3-26.7-3.2
	c-10.8,2.7-20.6,7.8-27.8,14.2c-1.9-2.4-4.7-3.9-8-3.9h-10.1c-3.2,0-6.1,1.5-8,3.9c-2.7-2.4-5.8-4.7-9.2-6.7c-1.3-0.8-2.9-0.3-3.7,1
	c-0.8,1.3-0.3,2.9,1,3.7c3.8,2.2,7.1,4.7,9.8,7.4c0,0.3,0,0.5,0,0.8v3.6c-4.5-3.4-9.7-6.4-15.5-8.9c-1.4-0.6-3,0-3.6,1.4
	c-0.6,1.4,0,3,1.4,3.6c6.9,3,12.8,6.7,17.6,10.9c0,0,0,0,0,0v3.6h-10.7c-0.2-0.9-0.7-1.7-1.3-2.4c-1.2-1.4-3-2.3-4.9-2.3h-22.6
	c-2.6,0-4.9,1.5-5.9,3.9l-0.3,0.8h-13.1c0.3-2.9,1.1-6.1,2-9.8c4-15.8,8-25,29.8-19.5c2.3,0.6,4.6,1.3,6.9,2.1
	c1.4,0.5,3-0.2,3.5-1.6c0.5-1.4-0.2-3-1.6-3.5c-2.4-0.9-4.9-1.7-7.4-2.3c-12.3-3.1-20.8-2.1-26.7,3.2c-5.4,4.8-7.6,12.3-9.6,20.2
	c-1.1,4.2-1.9,7.8-2.2,11.2h-6.6c-3.5,0-6.4,2.9-6.4,6.4v17.2c0,3.4,2.6,6.1,5.9,6.4v29.9l-2.8,6.7c-1.6,3.8-0.7,8.4,2.3,11.3
	c0.2,0.2,0.4,0.4,0.6,0.6v58.3c0,5.6,4.5,10.1,10.1,10.1h29.2c1.5,0,2.7-1.2,2.7-2.7s-1.2-2.7-2.7-2.7h-29.2c-2.6,0-4.7-2.1-4.7-4.7
	V154c6.3,4.5,16,9.5,29.6,11.5c0.5,0.1,1,0.1,1.5,0.1c4.8,0,9.1-3.5,10-8.4l9.6-56h14.3v111.3h-19.1c-1.5,0-2.7,1.2-2.7,2.7
	s1.2,2.7,2.7,2.7h111.7c5.6,0,10.1-4.5,10.1-10.1v-58.3c0.2-0.2,0.4-0.4,0.6-0.6c3-2.9,3.9-7.4,2.3-11.3l-2.8-6.7v-29.9
	c3.3-0.3,5.9-3,5.9-6.4V77.6C288,74.1,285.1,71.2,281.6,71.2L281.6,71.2z M108.5,94.9V77.6c0-0.6,0.4-1,1-1h22.8l-8.2,19.2h-14.6
	C109,95.9,108.5,95.4,108.5,94.9z M121.8,101.3l-7.4,17.2v-17.2H121.8z M164.5,73.1l-14.2,83.2c-0.4,2.5-2.8,4.2-5.3,3.9
	c-17.7-2.7-28.1-10.6-32.7-15c-1.4-1.3-1.8-3.4-1-5.2L140,72.6c0.2-0.4,0.5-0.6,0.9-0.6h11.3l-3.1,13.7c-0.3,1.5,0.6,2.9,2,3.2
	c0.2,0,0.4,0.1,0.6,0.1c1.2,0,2.4-0.9,2.6-2.1l3.4-14.9h5.7c0.4,0,0.7,0.2,0.8,0.4C164.4,72.4,164.5,72.7,164.5,73.1L164.5,73.1z
	 M174.5,95.9h-8.4l3.3-19.2h5.1L174.5,95.9L174.5,95.9z M237.7,41.8c10.4-2.6,17.3-2,21.8,2c4.2,3.8,6.2,10.5,8,17.5
	c0.8,3.3,1.6,6.7,2,9.8h-13.1l-0.3-0.8c-1-2.4-3.3-3.9-5.9-3.9h-22.6c-1.9,0-3.7,0.8-4.9,2.3c-0.6,0.7-1,1.5-1.3,2.4h-10.7v-3.5
	c1-0.7,6-3.9,14.3-6.6c1.4-0.5,2.2-2,1.7-3.4c-0.5-1.4-2-2.2-3.4-1.7c-5.6,1.8-9.9,3.9-12.6,5.5V57c0-0.3,0-0.5,0-0.8
	C217.4,49.7,226.9,44.6,237.7,41.8z M225,95.9h-8.4V76.6h5.1L225,95.9z M185.8,57c0-2.6,2.1-4.7,4.7-4.7h10.1c2.6,0,4.7,2.1,4.7,4.7
	v14.2h-19.5L185.8,57L185.8,57z M206.3,212.6h-21.4V101.3h21.4V212.6z M211.2,95.9h-31.3V76.6h31.3V95.9z M278.9,145.2
	c-4.6,4.5-15,12.3-32.7,15c-2.5,0.4-4.9-1.4-5.3-3.9l-2.2-13c-0.3-1.5-1.7-2.5-3.1-2.2c-1.5,0.3-2.5,1.7-2.2,3.1l2.2,13
	c0.8,4.9,5.2,8.4,10,8.4c0.5,0,1,0,1.5-0.1c13.6-2.1,23.3-7.1,29.6-11.5v53.9c0,2.6-2.1,4.7-4.7,4.7h-60.3V101.3H226l5.3,31.2
	c0.3,1.5,1.7,2.5,3.1,2.2c1.5-0.3,2.5-1.7,2.2-3.1l-10-58.5c-0.1-0.4,0.1-0.7,0.2-0.8c0.1-0.1,0.4-0.4,0.8-0.4h5l2.1,10.6
	c0.3,1.3,1.4,2.2,2.7,2.2c0.2,0,0.3,0,0.5-0.1c1.5-0.3,2.4-1.7,2.1-3.2l-1.9-9.5h12c0.4,0,0.8,0.2,0.9,0.6l28.8,67.4
	C280.7,141.7,280.3,143.8,278.9,145.2L278.9,145.2z M269.3,101.3h7.4v17.2L269.3,101.3z M282.6,94.9c0,0.6-0.4,1-1,1H267l-8.2-19.2
	h22.8c0.6,0,1,0.4,1,1V94.9z"/>
</svg>
