<?xml version="1.0" encoding="UTF-8" standalone="no"?><!-- Generator: Gravit.io --><svg xmlns="http://www.w3.org/2000/svg" xmlns:xlink="http://www.w3.org/1999/xlink" style="isolation:isolate" viewBox="0 0 400 300" width="400pt" height="300pt"><defs><clipPath id="_clipPath_AB4lRRuntoOnZaoCpPIINyT2VjVYCugx"><rect width="400" height="300"/></clipPath></defs><g clip-path="url(#_clipPath_AB4lRRuntoOnZaoCpPIINyT2VjVYCugx)"><path d=" M 205.099 95.471 C 145.548 87.468 62.63 92.683 25.312 148.086 C 16.403 161.303 11.842 178.002 15.536 193.513 C 23.912 228.657 67.672 253.531 97.747 267.642 C 133.758 284.46 173.223 293.249 212.768 295.516 C 251.739 297.744 292.898 297.397 329.843 283.326 C 356.584 273.136 380.204 253.704 384.912 224.109 C 393.395 170.76 335.764 135.349 293.739 118.651 C 265.229 107.396 235.468 99.613 205.099 95.471 L 205.099 95.471 Z " fill="rgb(40,43,78)"/><g opacity="0.63"><linearGradient id="_lgradient_57" x1="0.761358671909131" y1="0.8090325092466424" x2="0.3847750109218002" y2="0.48399974384690453" gradientTransform="matrix(122.116,0,0,64.179,245.991,206.97)" gradientUnits="userSpaceOnUse"><stop offset="0%" stop-opacity="0" style="stop-color:rgb(255,255,255)"/><stop offset="100%" stop-opacity="0.44" style="stop-color:rgb(187,187,187)"/></linearGradient><path d=" M 245.991 225.803 L 323.294 271.149 L 368.107 243.915 L 304.822 206.97" fill="url(#_lgradient_57)"/></g><g opacity="0.63"><linearGradient id="_lgradient_58" x1="0" y1="0.5" x2="0.7673512408123144" y2="-0.14122700600006044" gradientTransform="matrix(122.116,0,0,64.179,140.973,129.574)" gradientUnits="userSpaceOnUse"><stop offset="100%" stop-opacity="0" style="stop-color:rgb(255,255,255)"/><stop offset="100%" stop-opacity="0.029010733971569475" style="stop-color:rgb(254,248,250)"/></linearGradient><path d=" M 140.973 148.406 L 218.276 193.753 L 263.089 166.518 L 199.804 129.574" fill="url(#_lgradient_58)"/></g><path d=" M 213.862 142.578 C 213.862 142.578 212.434 119.678 211.901 114.009 C 211.421 108.888 209.714 86.375 195.629 79.332 C 177.838 70.343 157.325 58.686 138.373 64.115 C 122.968 68.436 117.78 121.612 117.953 125.159 C 118.26 131.535 165.914 165.198 213.862 142.578 Z " fill="rgb(43,65,93)"/><path d=" M 183.306 73.037 C 183.306 73.037 186.6 92.963 167.821 94.55 C 154.684 95.657 157.605 85.001 157.605 85.001 C 157.605 85.001 151.176 90.216 144.348 86.188 C 137.519 82.16 148.696 66.262 153.804 65.208 C 158.912 64.155 171.102 64.435 183.306 73.037 Z " fill="rgb(218,97,56)"/><circle vector-effect="non-scaling-stroke" cx="187.40040010525775" cy="22.92914591673405" r="14.831054333736347" fill="rgb(75,27,19)"/><path d=" M 145.148 35.319 C 142.789 32.358 141.431 28.725 141.267 24.943 C 141.054 23.123 141.139 21.281 141.52 19.488 C 142.091 17.622 143.356 16.047 145.055 15.087 C 146.325 14.252 147.485 13.262 148.509 12.139 C 148.509 12.139 187.307 4.604 191.748 27.197 L 191.748 27.197 C 192.562 33.532 192.095 52.618 174.743 60.62 C 157.125 68.729 165.301 39.948 165.301 39.948" fill="rgb(75,27,19)"/><path d=" M 154.537 67.462 L 177.651 56.139 L 175.69 72.237 C 175.69 72.237 175.53 72.544 175.223 73.024 C 171.022 76.892 164.554 78.052 158.165 77.625 C 156.742 77.512 155.611 76.381 155.498 74.958 C 155.271 72.437 154.977 69.956 154.537 67.462 Z " fill="rgb(255,172,115)"/><path d=" M 144.401 31.012 C 144.401 31.012 143.067 23.449 151.55 22.142 C 153.83 21.795 156.004 21.782 157.392 23.916 C 159.099 26.584 159.339 29.638 161.806 31.918 C 164.3 34.081 167.806 34.64 170.849 33.359 C 170.916 35.866 170.542 37.76 167.474 38.574 C 164.407 39.387 146.802 35.946 144.401 31.012 Z " fill="rgb(255,172,115)"/><path d=" M 175.05 23.849 C 165.807 20.555 157.018 18.621 147.215 19.942 C 146.332 19.99 145.634 20.711 145.615 21.595 C 144.894 17.674 143.948 7.765 151.937 4.764 C 161.966 0.989 178.731 5.751 183.359 14.793 C 185.672 19.245 186.78 24.225 186.573 29.238 C 183.266 26.65 179.091 25.29 175.05 23.849 Z " fill="rgb(75,27,19)"/><path d=" M 155.138 71.624 L 155.498 75.011 C 155.498 75.011 170.916 74.571 173.049 62.047 L 155.138 71.624 Z " fill="rgb(226,142,84)"/><path d=" M 144.308 30.318 C 144.308 30.318 144.388 45.189 144.308 50.724 C 144.228 56.552 150.069 71.81 156.311 71.797 C 165.981 71.797 175.717 60.14 175.717 57.593 C 175.717 57.593 185.4 51.564 179.932 46.923 C 174.463 42.282 174.036 50.137 174.036 50.137 C 174.036 50.137 171.049 45.763 170.849 34.252 C 170.849 34.252 157.178 36.426 144.308 30.318 Z " fill="rgb(255,172,115)"/><path d=" M 130.584 136.723 C 129.689 136.175 128.825 135.578 127.996 134.936 C 128.379 123.335 129.93 111.802 132.624 100.512 C 133.091 98.538 136.132 99.378 135.665 101.352 C 132.874 113.035 131.336 124.981 131.077 136.99 L 130.584 136.723 Z " fill="rgb(23,40,58)"/><path d=" M 189.654 149.727 C 189.208 149.735 188.762 149.775 188.321 149.847 L 187.16 110.128 C 187.16 109.259 187.865 108.554 188.734 108.554 C 189.603 108.554 190.308 109.259 190.308 110.128 L 191.455 149.593 C 190.852 149.588 190.25 149.633 189.654 149.727 Z " fill="rgb(23,40,58)"/><path d=" M 178.171 61.127 C 174.69 57.783 172.324 53.447 171.396 48.71 C 170.209 41.295 180.118 44.709 181.719 47.857 C 183.319 51.004 182.759 59.407 178.171 61.127 Z " fill="rgb(75,27,19)"/><g opacity="0.63"><linearGradient id="_lgradient_59" x1="0" y1="0.5" x2="0.9567060912971819" y2="0.20894424095223896" gradientTransform="matrix(122.103,0,0,64.179,113.045,221.615)" gradientUnits="userSpaceOnUse"><stop offset="100%" stop-opacity="0" style="stop-color:rgb(255,255,255)"/><stop offset="100%" stop-opacity="0.02901073397156947" style="stop-color:rgb(254,248,250)"/></linearGradient><path d=" M 113.045 240.447 L 190.348 285.794 L 235.148 258.559 L 171.876 221.615" fill="url(#_lgradient_59)"/></g><path d=" M 325.881 229.59 C 325.881 229.59 324.401 206.01 323.854 200.168 C 323.361 194.833 321.6 171.72 307.102 164.398 C 288.79 155.128 267.664 143.125 248.152 148.726 C 232.334 153.261 226.945 207.997 227.119 211.652 C 227.439 218.214 276.507 252.891 325.881 229.59 Z " fill="rgb(43,65,93)"/><path d=" M 288.417 167.225 C 288.417 168.479 286.963 170.346 286.403 171.4 C 281.695 180.349 277.574 189.805 273.066 198.955 C 268.678 207.891 267.864 233.005 267.344 234.645 C 267.344 234.805 249.365 228.123 249.219 228.217 C 249.072 228.31 247.738 215.226 247.725 214.439 C 247.512 200.115 246.458 192.806 249.059 181.776 C 250.926 173.947 254.394 168.652 256.127 160.837 C 256.981 157.102 257.581 152.634 259.448 149.233 C 261.596 145.419 288.417 158.836 288.417 167.225 Z " fill="rgb(218,97,56)"/><path d=" M 296.486 237.419 C 295.993 237.419 295.512 237.419 295.019 237.499 Q 295.232 222.708 295.099 207.931 C 295.175 207.092 295.878 206.451 296.719 206.451 C 297.561 206.451 298.264 207.092 298.34 207.931 Q 298.473 222.602 298.26 237.273 L 296.486 237.419 Z " fill="rgb(23,40,58)"/><path d=" M 243.004 225.042 L 243.004 225.042 C 242.897 224.979 242.786 224.926 242.67 224.882 L 241.79 224.402 L 240.763 223.842 L 239.909 223.375 Q 239.909 205.797 240.95 188.258 C 241.07 186.177 244.311 186.164 244.191 188.258 Q 243.177 206.343 243.137 224.442 C 243.131 224.649 243.086 224.853 243.004 225.042 Z " fill="rgb(23,40,58)"/><path d=" M 259.515 149.22 C 259.515 149.22 255.994 173.227 257.995 175.628 L 266.21 169.186 L 271.092 179.389 L 291.511 161.664 L 259.515 149.22 Z " fill="rgb(43,65,93)"/><path d=" M 255.914 112.382 C 255.914 112.382 255.994 127.707 255.914 133.402 C 255.834 139.404 258.368 155.622 268.238 155.102 C 278.107 154.581 288.244 143.098 288.244 140.431 C 288.244 140.431 298.22 134.229 292.578 129.454 C 286.937 124.679 286.51 132.762 286.51 132.762 C 286.51 132.762 283.455 128.32 283.242 116.397 C 283.215 116.45 269.131 118.637 255.914 112.382 Z " fill="rgb(255,172,115)"/><path d=" M 287.763 156.355 C 282.735 160.997 274.546 161.864 266.971 160.77 C 265.8 160.684 264.852 159.786 264.703 158.623 C 264.583 156.302 264.437 153.981 264.236 151.674 L 290.257 138.95 L 288.244 155.528 C 288.244 155.528 288.07 155.862 287.763 156.355 Z " fill="rgb(255,172,115)"/><path d=" M 269.905 161.09 C 268.891 161.01 267.878 160.903 266.877 160.77 C 265.749 160.69 264.833 159.825 264.69 158.703 C 264.69 157.489 264.57 156.289 264.49 155.088 C 269.998 155.088 279.801 153.755 284.976 143.592 C 283.61 151.779 277.8 158.526 269.905 161.09 Z " fill="rgb(229,137,74)"/><path d=" M 321.693 155.128 C 312.477 144.952 308.049 124.733 308.049 124.733 L 307.943 124.733 C 305.275 102.499 289.484 95.764 275.6 94.977 C 261.716 94.19 251.219 99.445 250.472 108.781 C 249.725 118.117 255.981 122.052 255.981 122.052 C 255.981 122.052 279.481 128.854 281.028 125.96 C 282.575 123.065 282.882 109.635 284.256 127.213 C 284.709 133.015 284.589 138.843 284.549 144.658 C 284.536 151.742 285.121 158.813 286.296 165.798 C 287.15 171.026 287.923 176.855 292.965 179.709 C 300.687 184.03 311.771 184.043 319.373 179.349 C 322.07 192.379 323.994 205.557 325.134 218.814 C 325.134 218.814 341.379 217.813 343.22 193.806 C 343.22 193.806 330.856 165.265 321.693 155.128 Z " fill="rgb(75,27,19)"/><path d=" M 189.334 244.981 C 189.334 244.981 187.854 221.401 187.307 215.559 C 186.814 210.225 185.053 187.111 170.555 179.789 C 152.23 170.533 131.117 158.529 111.605 164.118 C 95.787 168.652 90.398 223.388 90.572 227.043 C 90.879 233.605 139.946 268.282 189.334 244.981 Z " fill="rgb(218,97,56)"/><path d=" M 120.181 132.908 C 120.181 132.908 116.299 129.734 114.045 122.385 C 114.045 122.385 115.552 104.38 123.515 103.393 C 123.515 103.393 133.918 106.527 133.918 106.527 C 133.918 106.527 163.593 101.272 168.168 124.546 L 168.168 124.546 C 169.008 131.068 172.569 154.715 153.284 159.89 C 133.998 165.065 140.933 137.683 140.933 137.683" fill="rgb(75,27,19)"/><path d=" M 119.354 127.774 C 119.354 127.774 119.434 143.098 119.354 148.793 C 119.274 154.795 121.808 171.013 131.677 170.493 C 141.547 169.973 151.683 158.489 151.683 155.822 C 151.683 155.822 161.659 149.62 156.018 144.845 C 150.376 140.07 149.949 148.153 149.949 148.153 C 149.949 148.153 146.895 143.712 146.682 131.788 C 146.655 131.815 132.584 134.029 119.354 127.774 Z " fill="rgb(255,172,115)"/><path d=" M 151.203 171.747 C 146.175 176.388 137.986 177.255 130.41 176.161 C 129.24 176.076 128.292 175.178 128.143 174.014 C 128.023 171.693 127.876 169.372 127.676 167.065 L 153.644 154.355 L 151.63 170.933 C 151.63 170.933 151.51 171.253 151.203 171.747 Z " fill="rgb(255,172,115)"/><path d=" M 133.358 176.468 C 132.344 176.388 131.33 176.281 130.33 176.148 C 129.202 176.068 128.286 175.203 128.143 174.081 C 128.143 172.867 128.023 171.666 127.943 170.466 C 133.451 170.466 143.254 169.132 148.429 158.969 C 147.063 167.157 141.253 173.904 133.358 176.468 L 133.358 176.468 Z " fill="rgb(229,137,74)"/><path d=" M 153.644 166.412 C 151.536 167.812 149.376 169.079 147.189 170.413 C 144.121 172.312 140.867 173.894 137.479 175.134 C 134.665 176.094 129.743 177.482 128.143 173.947 C 127.99 173.31 127.954 172.65 128.036 172 C 128.082 171.212 128.055 170.422 127.956 169.639 L 127.956 169.639 C 126.613 169.14 125.438 168.271 124.568 167.132 C 124.5 167.042 124.454 166.937 124.435 166.825 L 124.435 166.825 C 124.435 166.825 117.593 186.391 118.673 187.324 C 118.673 187.324 128.009 183.47 128.009 183.47 C 128.009 183.47 131.531 190.685 132.918 191.392 C 132.918 191.392 152.31 176.281 154.711 171.787 L 153.644 166.412 Z " fill="rgb(212,222,232)"/><path d=" M 121.007 186.511 C 120.594 186.671 119.674 190.819 121.007 194.78 C 121.007 194.78 124.368 196.314 125.009 196.114 C 125.649 195.914 131.144 189.672 130.917 189.325 C 130.69 188.978 127.556 183.243 127.556 183.243 L 121.007 186.511 Z " fill="rgb(244,122,99)"/><path d=" M 121.007 194.767 C 121.007 194.767 109.004 241.621 109.791 242.034 C 109.791 242.034 121.047 247.822 124.755 248.076 L 125.009 196.06" fill="rgb(244,122,99)"/><ellipse vector-effect="non-scaling-stroke" cx="121.55425330160986" cy="144.00496537865732" rx="5.161527002838099" ry="7.015408794555157" fill="none" stroke-width="0.75" stroke="rgb(66,33,11)" stroke-linejoin="miter" stroke-linecap="butt" stroke-miterlimit="10"/><ellipse vector-effect="non-scaling-stroke" cx="136.07855021657295" cy="147.33928514793254" rx="5.721692724076348" ry="7.015408794555157" fill="none" stroke-width="0.75" stroke="rgb(66,33,11)" stroke-linejoin="miter" stroke-linecap="butt" stroke-miterlimit="10"/><mask id="_mask_9qcq69vHf1lL1QBhMrjyUSOLmNeXLKzT" x="-200%" y="-200%" width="400%" height="400%"><rect x="-200%" y="-200%" width="400%" height="400%" style="fill:white;"/><line x1="126.716" y1="145.699" x2="130.357" y2="146.219" fill="black" stroke="none"/></mask><line x1="126.716" y1="145.699" x2="130.357" y2="146.219" mask="url(#_mask_9qcq69vHf1lL1QBhMrjyUSOLmNeXLKzT)" vector-effect="non-scaling-stroke" stroke-width="1.5" stroke="rgb(66,33,11)" stroke-linejoin="miter" stroke-linecap="butt" stroke-miterlimit="10"/><mask id="_mask_tae7qUITTVHxhdQ6JajuXmZ9j2v07Fl6" x="-200%" y="-200%" width="400%" height="400%"><rect x="-200%" y="-200%" width="400%" height="400%" style="fill:white;"/><line x1="141.8" y1="147.339" x2="149.896" y2="145.312" fill="black" stroke="none"/></mask><line x1="141.8" y1="147.339" x2="149.896" y2="145.312" mask="url(#_mask_tae7qUITTVHxhdQ6JajuXmZ9j2v07Fl6)" vector-effect="non-scaling-stroke" stroke-width="1.5" stroke="rgb(66,33,11)" stroke-linejoin="miter" stroke-linecap="butt" stroke-miterlimit="10"/></g></svg>