<?xml version="1.0" encoding="utf-8"?>
<!-- Generator: Adobe Illustrator 24.0.1, SVG Export Plug-In . SVG Version: 6.00 Build 0)  -->
<svg version="1.1" id="Layer_1" xmlns="http://www.w3.org/2000/svg" xmlns:xlink="http://www.w3.org/1999/xlink" x="0px" y="0px"
	 viewBox="0 0 400 300" style="enable-background:new 0 0 400 300;" xml:space="preserve">
<style type="text/css">
	.st0{clip-path:url(#SVGID_2_);fill:#282B4E;}
	.st1{clip-path:url(#SVGID_2_);fill:url(#SVGID_3_);}
	.st2{clip-path:url(#SVGID_2_);fill:url(#SVGID_4_);}
	.st3{clip-path:url(#SVGID_2_);fill:url(#SVGID_5_);}
	.st4{clip-path:url(#SVGID_2_);fill:url(#SVGID_6_);}
	.st5{clip-path:url(#SVGID_2_);fill:#DA6138;}
	.st6{clip-path:url(#SVGID_2_);fill:#FFC339;}
	.st7{clip-path:url(#SVGID_2_);}
	.st8{clip-path:url(#SVGID_2_);fill:#CECECE;}
	.st9{clip-path:url(#SVGID_2_);fill:#E7483B;}
	.st10{clip-path:url(#SVGID_2_);fill:none;}
	.st11{clip-path:url(#SVGID_2_);fill:#FFFFFF;filter:url(#Adobe_OpacityMaskFilter);}
	
		.st12{clip-path:url(#SVGID_2_);mask:url(#_mask_6bqbADsIg4BOp2oeZN3IFeBHcFF5KppK_1_);fill:none;stroke:#727272;stroke-width:2;stroke-miterlimit:10;}
	.st13{clip-path:url(#SVGID_2_);fill:#FFFFFF;filter:url(#Adobe_OpacityMaskFilter_1_);}
	
		.st14{clip-path:url(#SVGID_2_);mask:url(#_mask_40Sluou7wY9SDCT9Ll4dUmfI7J50Uqex_1_);fill:none;stroke:#5B5B5B;stroke-width:2;stroke-miterlimit:10;}
	.st15{clip-path:url(#SVGID_2_);fill:url(#SVGID_7_);}
	.st16{clip-path:url(#SVGID_2_);fill:#2E3192;}
	.st17{clip-path:url(#SVGID_2_);fill:#443CE5;}
	.st18{clip-path:url(#SVGID_2_);fill:#181884;}
	.st19{clip-path:url(#SVGID_2_);fill:#FFB92C;}
	.st20{clip-path:url(#SVGID_2_);fill:#4C0D0A;}
	.st21{clip-path:url(#SVGID_2_);fill:#D33B33;}
	.st22{clip-path:url(#SVGID_2_);fill:#FFFFFF;filter:url(#Adobe_OpacityMaskFilter_2_);}
	
		.st23{clip-path:url(#SVGID_2_);mask:url(#_mask_3R4TDN8mmpC7Vzz83pbQyB3pZSIZewo2_1_);fill:none;stroke:#42210B;stroke-width:6;stroke-miterlimit:10;}
	.st24{clip-path:url(#SVGID_2_);fill:#9E3312;}
	.st25{clip-path:url(#SVGID_2_);fill:#F15A24;}
	.st26{clip-path:url(#SVGID_2_);fill:#F2AB1C;}
	.st27{opacity:0.36;clip-path:url(#SVGID_2_);}
	.st28{clip-path:url(#SVGID_2_);fill:#FF912E;}
	.st29{clip-path:url(#SVGID_2_);fill:#E0944F;}
	.st30{clip-path:url(#SVGID_2_);fill:#EA8B24;}
	.st31{clip-path:url(#SVGID_2_);fill:#F7931E;}
	.st32{clip-path:url(#SVGID_2_);fill:#FFD188;}
	.st33{clip-path:url(#SVGID_2_);fill:#2929B2;}
	.st34{clip-path:url(#SVGID_2_);fill:url(#SVGID_8_);}
</style>
<g>
	<defs>
		<rect id="SVGID_1_" width="400" height="300"/>
	</defs>
	<clipPath id="SVGID_2_">
		<use xlink:href="#SVGID_1_"  style="overflow:visible;"/>
	</clipPath>
	<path class="st0" d="M206.2,297.1l167.9-94.2c2.5-1.4,4-4,4.1-6.8c0.1-2.8-1.4-5.5-3.8-7L211.6,88.3c-2.5-1.6-5.7-1.6-8.2-0.1
		l-177.5,103c-2.5,1.4-4,4.1-4,6.9c0,2.9,1.5,5.5,4,6.9L184.2,297C191,301,199.3,301,206.2,297.1z"/>
	
		<linearGradient id="SVGID_3_" gradientUnits="userSpaceOnUse" x1="0.4676" y1="299.4084" x2="0.6342" y2="299.805" gradientTransform="matrix(185.346 0 0 -102.266 124.621 30832.2422)">
		<stop  offset="0" style="stop-color:#808080;stop-opacity:0"/>
		<stop  offset="1" style="stop-color:#B7B7B7;stop-opacity:0.68"/>
	</linearGradient>
	<path class="st1" d="M254.9,254.7l55.1-31.9l-138.2-70.4l-47.2,34.8C131.7,191.6,247.9,250.2,254.9,254.7z"/>
	
		<linearGradient id="SVGID_4_" gradientUnits="userSpaceOnUse" x1="0.1327" y1="299.2715" x2="0.9975" y2="299.7735" gradientTransform="matrix(76.624 0 0 -54.31 83.255 16496.5586)">
		<stop  offset="1" style="stop-color:#808080;stop-opacity:0"/>
		<stop  offset="1" style="stop-color:#7C817E;stop-opacity:2.805836e-02"/>
	</linearGradient>
	<path class="st2" d="M116.8,257.9l43.1-30.8l-29.5-23.5l-47.2,34.9C90.3,242.7,109.8,253.4,116.8,257.9z"/>
	
		<linearGradient id="SVGID_5_" gradientUnits="userSpaceOnUse" x1="0.1032" y1="299.2937" x2="0.9975" y2="299.7411" gradientTransform="matrix(48.191 0 0 -29.442 55.764 9043.5342)">
		<stop  offset="1" style="stop-color:#808080;stop-opacity:0"/>
		<stop  offset="1" style="stop-color:#7B817E;stop-opacity:3.974563e-02"/>
	</linearGradient>
	<path class="st3" d="M104,218l-18.7-7.1l-29.5,18.2c6.6,4,13.6,7.2,20.2,11.2C84.9,232.4,94.5,225.3,104,218z"/>
	
		<linearGradient id="SVGID_6_" gradientUnits="userSpaceOnUse" x1="0.1421" y1="299.2494" x2="1.012" y2="299.7425" gradientTransform="matrix(43.742 0 0 -30.26 27.006 9265.5889)">
		<stop  offset="0" style="stop-color:#6F6F6F;stop-opacity:0.5853"/>
		<stop  offset="1" style="stop-color:#7A817D;stop-opacity:4.975124e-02"/>
	</linearGradient>
	<path class="st4" d="M48.6,217.8L70.7,200l-14.3-12.4L27,205.8C34.1,210.1,41.7,213.4,48.6,217.8z"/>
	<path class="st5" d="M296,100.6l-96.1-55.5v90.2l93,52.5c1.6,0.9,3.5,0.9,5,0c1.5-0.9,2.5-2.6,2.5-4.3v-75.2
		C300.4,105.1,298.7,102.2,296,100.6L296,100.6z"/>
	<path class="st5" d="M221.2,37.8L211,37.3c-0.4,0.6-0.7,1.2-1,1.8l1.3,4.4l13.9,2.7L221.2,37.8z"/>
	<path class="st5" d="M245.8,25.3c-0.7,0-3.6-2.5-8.3-0.2c-4.7,2.3-18.8,23.5-18.8,23.5l9.6,6.2l9.6-11.4l2.7,18.2
		c0,0,10.2,7.8,28.1-0.9l-1.3-12.2c0,0,8-6.4,9.5-16.1c1.6-9.7-25.1-9.6-25.1-9.6"/>
	<path class="st6" d="M268.7,60.8c2.2,6.5,3.4,13.3,3.7,20.2l-29.9-14l-1.9-5.3"/>
	<path class="st7" d="M296,100.6l-96.1-55.5v90.2l93,52.5c1.6,0.9,3.5,0.9,5,0c1.5-0.9,2.5-2.6,2.5-4.3v-75.2
		C300.4,105.1,298.7,102.2,296,100.6L296,100.6z"/>
	<path class="st5" d="M199.9,45.1c0,0-15.4-8.3-26.8-2.3c-9.6,5.1-11.5,14.6-4,25.2c7.5,10.6,37.3,26.2,37.3,26.2"/>
	<path class="st7" d="M199.9,45.1c0,0-15.4-8.3-26.8-2.3c-9.6,5.1-11.5,14.6-4,25.2c7.5,10.6,37.3,26.2,37.3,26.2"/>
	<path class="st8" d="M292.3,66.7L189.4,32.4v90.2l93,52.5c1.6,0.9,3.5,0.9,5,0c1.5-0.9,2.5-2.6,2.5-4.3l3.2-78.7
		C293.1,89,295.1,68.3,292.3,66.7z"/>
	<path class="st9" d="M242.4,7.8c-4.5,1.3-7.4,5.6-7.1,10.3c0.3,7.7,8.4,3.7,8.4,3.7l8.1,1c0,0,1.5-0.3,2-6.7
		C254.4,9.7,248.9,7.3,242.4,7.8z"/>
	<path class="st6" d="M237.7,15.4c-0.6,2.6,0.5,5.9,1.7,8c1.3,2.2,3.5,3.8,6,4.5c2.7,0.6,4.7-0.9,5.8-3.3c1.2-2.6,1.3-5.5,0.5-8.2
		c-0.9-2.3-2.7-4.1-5-4.9c-2.5-0.8-5.3-0.3-7.4,1.3C238.4,13.5,237.9,14.4,237.7,15.4z"/>
	<path class="st9" d="M236.6,18.2c2.7,1,5.4,1.8,8.2,2.2c0.3-1.1,0.7-2.2,1.1-3.3c0.1,0.3,0.7,3.3,0.7,3.3l1.8,0.7l0.3,1.7
		c0,0,1.6-3.4,2.3-1.7l-1,5c1.5-1.3,2.8-2.8,3.8-4.5c1.3-2.5,3.3-12.2-7.2-13.2C236.2,7.4,236.6,18.2,236.6,18.2z"/>
	<path class="st9" d="M246.7,8.4c0,0,1.6-7.8,6.6-8.4c2.7-0.2,5.3,0.7,7.3,2.6c1.9,1.9,3,4.5,2.8,7.2c0,0-0.2,4.2-1.2,6.3l-4.6,1.1
		c0,0-0.6-13.4-8.5-8.5"/>
	<path class="st6" d="M251.2,46.7c-0.5,0.4-1.1,0.7-1.6,0.9c-1.7,0.2-3.4,0.3-5.2,0.5c-0.8,0.1-2.9,0.1-2.8,1.4
		c0.1,1.3,1.7,1.1,2.5,1.1c0.5,0,1.1-0.1,1.6-0.2c-0.7,0.7-1.3,1.5-1.7,2.5c-0.4,0.9-1.1,3-0.5,4c0.7,1,1.5,0,1.7-0.8
		c0.3-1.1,0.7-2.1,1.3-3.1c-0.5,1.7-0.6,3.6-0.2,5.4c0.1,0.2,0.3,0.4,0.5,0.4c0.2,0,0.5-0.1,0.6-0.3c0.4-1.1,0.6-2.3,0.7-3.5
		c0.2-0.8,0.4-1.5,0.7-2.2c-0.3,1.5-0.4,3.1-0.2,4.6c0,0.1,0.1,0.2,0.1,0.3c0,0,0,0.1,0,0.1c0,0.2,0.1,0.4,0.3,0.5
		c0.2,0.1,0.4,0.2,0.5,0.1c0.9-0.2,1-1.4,1.1-2.2c0.1-1.3,0.2-2.7,0.4-4c0,1.4,0.3,2.8,0.8,4.1c0.1,0.2,0.2,0.3,0.4,0.3
		c0.2,0,0.3,0,0.5-0.1c0.3-0.1,0.5-0.3,0.5-0.6c0-0.6,0-1.2,0-1.8l0.1-1.1c1.2-0.1,2.3-0.7,3.2-1.5
		C254.4,50.3,252.6,48.6,251.2,46.7z"/>
	<path class="st5" d="M213.1,35.4c-0.2,0.1-0.4,0.2-0.7,0.4c-0.6,0.4-1,0.9-1.4,1.5l10.2,0.5C219.2,35.4,216,34.5,213.1,35.4z"/>
	<path class="st6" d="M223,42.5l-0.2-0.1c0-0.1-0.1-0.2-0.2-0.3l-0.9-0.6c0-0.1-0.1-0.1-0.2-0.2c-0.7-0.4-1.3-1-1.8-1.7
		c-0.1-0.2-0.3-0.3-0.5-0.2c-0.2-0.2-0.4-0.3-0.7-0.3c-0.3,0-0.5,0.1-0.7,0.3c-0.1-0.2-0.3-0.4-0.6-0.5c-0.5-0.1-1.1,0.1-1.4,0.6
		c-0.1-0.3-0.2-0.6-0.5-0.8c-0.3-0.2-0.7-0.2-1,0.1c-0.1-0.2-0.3-0.3-0.5-0.4l-0.1-0.1c-0.3-0.3-0.7-0.3-1-0.1
		c-0.5,0.2-1,0.7-1.1,1.2c-0.2,0.1-0.3,0.3-0.3,0.4c-0.1,0.9-0.8,5.1,1.2,4.5c0.1,0,0.2-0.1,0.3-0.2c0,0.1,0,0.3,0.1,0.4
		c0.1,0.9,0.3,1.8,1.3,1.8c0,0.9,0.3,2.1,1.1,2.1c0.1,0.1,0.3,0,0.4,0c0.1-0.1,0.2-0.2,0.3-0.3c0.2-0.4,0.4-0.8,0.5-1.2
		c0.2,0.2,0.5,0.3,1,0c0.1,0,0.1-0.1,0.2-0.2c0.1-0.1,0.2-0.2,0.3-0.3c0.2-0.4,0.4-0.8,0.5-1.3l1-2.7l0.4,0.1c0.6,0.4,1.3,0.7,1.9,1
		c0.5,0.2,1.4,0.5,1.6-0.3C223.4,43,223.3,42.6,223,42.5L223,42.5z"/>
	<path class="st10" d="M189.4,40.6c0,0.4,15.9,4.6,17,5c12.1,3.8,24.1,7.6,36.1,11.5c10.4,3.3,20.8,6.7,31.1,10.1
		c6.5,2.1,14.7,2.9,14.7,11.6c0,5.1-1.3,44.4-1.3,44.4"/>
	<defs>
		<filter id="Adobe_OpacityMaskFilter" filterUnits="userSpaceOnUse" x="188.4" y="40.6" width="100.9" height="82.6">
			<feColorMatrix  type="matrix" values="1 0 0 0 0  0 1 0 0 0  0 0 1 0 0  0 0 0 1 0"/>
		</filter>
	</defs>
	<mask maskUnits="userSpaceOnUse" x="188.4" y="40.6" width="100.9" height="82.6" id="_mask_6bqbADsIg4BOp2oeZN3IFeBHcFF5KppK_1_">
		<rect x="-800" y="-600" class="st11" width="1600" height="1200"/>
		<path class="st7" d="M189.4,40.6c0,0.4,15.9,4.6,17,5c12.1,3.8,24.1,7.6,36.1,11.5c10.4,3.3,20.8,6.7,31.1,10.1
			c6.5,2.1,14.7,2.9,14.7,11.6c0,5.1-1.3,44.4-1.3,44.4"/>
	</mask>
	<path vector-effect="non-scaling-stroke" class="st12" d="M189.4,40.6c0,0.4,15.9,4.6,17,5c12.1,3.8,24.1,7.6,36.1,11.5
		c10.4,3.3,20.8,6.7,31.1,10.1c6.5,2.1,14.7,2.9,14.7,11.6c0,5.1-1.3,44.4-1.3,44.4"/>
	<path class="st7" d="M291.7,126.3l0.2-3.8l-84.6-47.1l0.3,15.4l53,30.6"/>
	<path class="st8" d="M305.5,134.9l-96.1-55.5v90.3l93,52.5c1.6,0.9,3.5,0.9,5,0c1.5-0.9,2.5-2.6,2.5-4.3v-75.2
		C309.9,139.4,308.3,136.5,305.5,134.9L305.5,134.9z"/>
	<defs>
		<filter id="Adobe_OpacityMaskFilter_1_" filterUnits="userSpaceOnUse" x="208.9" y="85.7" width="96.5" height="131.5">
			<feColorMatrix  type="matrix" values="1 0 0 0 0  0 1 0 0 0  0 0 1 0 0  0 0 0 1 0"/>
		</filter>
	</defs>
	<mask maskUnits="userSpaceOnUse" x="208.9" y="85.7" width="96.5" height="131.5" id="_mask_40Sluou7wY9SDCT9Ll4dUmfI7J50Uqex_1_">
		<rect x="-800" y="-600" class="st13" width="1600" height="1200"/>
		<path class="st7" d="M209.4,86.6l84.4,48.8c0,0,10.4,4.5,10.6,12.7v60c0,0,0.6,9.9-5.3,7.9L265,196.9"/>
	</mask>
	<path vector-effect="non-scaling-stroke" class="st14" d="M209.4,86.6l84.4,48.8c0,0,10.4,4.5,10.6,12.7v60c0,0,0.6,9.9-5.3,7.9
		L265,196.9"/>
	<linearGradient id="SVGID_7_" gradientUnits="userSpaceOnUse" x1="164.474" y1="138.2554" x2="265.004" y2="138.2554">
		<stop  offset="0" style="stop-color:#F5524E"/>
		<stop  offset="1" style="stop-color:#D0342F"/>
	</linearGradient>
	<path class="st15" d="M260.5,122l-96-55.5v90.2l93,52.5c1.6,0.9,3.5,0.9,5,0c1.5-0.9,2.5-2.6,2.5-4.3v-75.2
		C265,126.6,263.3,123.6,260.5,122L260.5,122z"/>
	<path class="st5" d="M164.5,74.3V56.5c0,0,1,12.7,15,18.6"/>
	<path class="st16" d="M165.7,72.5c-0.2,0-0.3-0.1-0.4-0.2c-0.2-0.3-0.4-0.6-0.7-0.9c-0.1-0.2-0.2-0.4-0.1-0.6
		c0.1-0.2,0.3-0.3,0.5-0.3c0.2,0,0.4,0.1,0.5,0.3c0.2,0.3,0.4,0.6,0.6,0.9c0.1,0.2,0.1,0.4,0.1,0.6
		C166.1,72.4,165.9,72.5,165.7,72.5z"/>
	<path class="st16" d="M254.3,126.1c-0.1,0-0.2,0-0.3-0.1l-1.8-1.2c-0.2-0.1-0.3-0.3-0.3-0.5c0-0.2,0.1-0.4,0.3-0.5
		c0.2-0.1,0.4-0.1,0.6,0l1.8,1.2c0.2,0.1,0.3,0.4,0.2,0.6C254.8,125.9,254.6,126.1,254.3,126.1L254.3,126.1z M248.8,122.6
		c-0.1,0-0.2,0-0.3,0l-1.9-1.1c-0.2-0.1-0.3-0.3-0.3-0.5c0-0.2,0.1-0.4,0.3-0.5c0.2-0.1,0.4-0.1,0.6,0l1.9,1.1
		c0.2,0.1,0.3,0.4,0.2,0.6C249.3,122.5,249.1,122.7,248.8,122.6L248.8,122.6z M243.2,119.1c-0.1,0-0.2,0-0.3-0.1l-1.9-1.1
		c-0.3-0.2-0.3-0.5-0.2-0.8s0.5-0.4,0.8-0.2l1.9,1.1c0.2,0.1,0.3,0.4,0.3,0.6C243.6,119,243.4,119.1,243.2,119.1L243.2,119.1z
		 M237.6,115.8c-0.1,0-0.2,0-0.3-0.1l-1.9-1.1c-0.3-0.2-0.3-0.5-0.2-0.8c0.2-0.3,0.5-0.4,0.8-0.2l1.9,1.1c0.2,0.1,0.3,0.4,0.3,0.6
		C238.1,115.6,237.8,115.8,237.6,115.8L237.6,115.8z M231.9,112.4c-0.1,0-0.2,0-0.3-0.1l-1.9-1.1c-0.2-0.1-0.3-0.3-0.3-0.5
		c0-0.2,0.1-0.4,0.3-0.5c0.2-0.1,0.4-0.1,0.6,0l1.9,1.1c0.2,0.1,0.3,0.4,0.3,0.6C232.4,112.2,232.2,112.4,231.9,112.4L231.9,112.4z
		 M226.2,109.2c-0.1,0-0.2,0-0.3-0.1L224,108c-0.2-0.1-0.3-0.3-0.3-0.5c0-0.2,0.1-0.4,0.3-0.5c0.2-0.1,0.4-0.1,0.6,0l1.9,1.1
		c0.2,0.1,0.3,0.4,0.3,0.6C226.7,109,226.5,109.2,226.2,109.2L226.2,109.2z M220.5,105.9c-0.1,0-0.2,0-0.3-0.1l-1.9-1.1
		c-0.2-0.1-0.3-0.3-0.3-0.5c0-0.2,0.1-0.4,0.3-0.5c0.2-0.1,0.4-0.1,0.6,0l1.9,1.1c0.2,0.1,0.3,0.4,0.3,0.6
		C221,105.8,220.8,106,220.5,105.9L220.5,105.9z M214.8,102.7c-0.1,0-0.2,0-0.3-0.1l-1.9-1.1c-0.3-0.2-0.3-0.5-0.2-0.7
		c0.1-0.3,0.5-0.4,0.7-0.2l1.9,1.1c0.2,0.1,0.3,0.4,0.3,0.6C215.3,102.6,215,102.7,214.8,102.7L214.8,102.7z M209,99.5
		c-0.1,0-0.2,0-0.3-0.1l-1.9-1.1c-0.3-0.2-0.3-0.5-0.2-0.7c0.1-0.3,0.5-0.4,0.7-0.2l1.9,1.1c0.2,0.1,0.3,0.4,0.3,0.6
		C209.5,99.4,209.3,99.5,209,99.5L209,99.5z M203.3,96.3c-0.1,0-0.2,0-0.3-0.1l-1.9-1.1c-0.3-0.2-0.3-0.5-0.2-0.7
		c0.1-0.3,0.5-0.4,0.7-0.2l1.9,1.1c0.2,0.1,0.3,0.4,0.3,0.6C203.8,96.2,203.6,96.3,203.3,96.3L203.3,96.3z M197.6,93.1
		c-0.1,0-0.2,0-0.3-0.1l-1.9-1.1c-0.3-0.2-0.4-0.5-0.2-0.8c0.2-0.3,0.5-0.4,0.8-0.2l1.9,1.1c0.2,0.1,0.3,0.4,0.3,0.6
		C198.1,92.9,197.8,93.1,197.6,93.1L197.6,93.1z M191.9,89.8c-0.1,0-0.2,0-0.3-0.1l-1.9-1.1c-0.3-0.2-0.4-0.5-0.2-0.8
		c0.2-0.3,0.5-0.4,0.8-0.2l1.9,1.1c0.2,0.1,0.3,0.4,0.3,0.6C192.3,89.7,192.1,89.8,191.9,89.8L191.9,89.8z M186.2,86.6
		c-0.1,0-0.2,0-0.3-0.1l-1.9-1.1c-0.3-0.1-0.4-0.5-0.2-0.8c0.1-0.3,0.5-0.4,0.8-0.2l1.9,1.1c0.2,0.1,0.3,0.4,0.3,0.6
		C186.7,86.4,186.4,86.6,186.2,86.6L186.2,86.6z M180.4,83.4c-0.1,0-0.2,0-0.3-0.1l-1.9-1.1c-0.2-0.2-0.3-0.5-0.2-0.7
		c0.1-0.2,0.5-0.3,0.7-0.2l1.9,1.1c0.2,0.1,0.3,0.4,0.3,0.6C180.9,83.3,180.7,83.5,180.4,83.4L180.4,83.4z M174.8,80.1
		c-0.1,0-0.2,0-0.3-0.1c-0.6-0.4-1.2-0.8-1.8-1.3c-0.2-0.1-0.3-0.3-0.3-0.5c0-0.2,0.1-0.4,0.3-0.5c0.2-0.1,0.4,0,0.6,0.1
		c0.6,0.4,1.2,0.8,1.8,1.2c0.2,0.1,0.3,0.4,0.2,0.6C175.3,79.9,175,80.1,174.8,80.1L174.8,80.1z M169.6,76.1c-0.1,0-0.3-0.1-0.4-0.1
		c-0.6-0.5-1.1-1-1.6-1.5c-0.1-0.1-0.2-0.3-0.1-0.5c0.1-0.2,0.2-0.3,0.4-0.4c0.2-0.1,0.4,0,0.5,0.1c0.5,0.5,1,1,1.6,1.5
		c0.2,0.2,0.2,0.4,0.1,0.6C170,75.9,169.8,76.1,169.6,76.1L169.6,76.1z"/>
	<path class="st16" d="M259.1,130.3c-0.3,0-0.5-0.2-0.5-0.5l-0.2-0.9l-0.7-0.5c-0.2-0.1-0.3-0.3-0.3-0.5c0-0.2,0.1-0.4,0.3-0.5
		c0.2-0.1,0.4-0.1,0.6,0.1l1.1,0.8l0.2,1.3c0,0.1,0,0.3-0.1,0.4C259.5,130.1,259.4,130.2,259.1,130.3L259.1,130.3z"/>
	<path class="st16" d="M258.9,204.2c-0.3,0.1-0.6-0.1-0.7-0.5c-0.1-0.3,0.2-0.6,0.5-0.7c0.6-0.2,0.8-0.5,0.8-0.6V202
		c0-0.3,0.3-0.6,0.6-0.6c0.3,0,0.6,0.3,0.6,0.6v0.6c0,0.6-0.6,1.2-1.6,1.6C259,204.2,258.9,204.2,258.9,204.2L258.9,204.2z
		 M254.5,203.8c-0.1,0-0.2,0-0.3-0.1l-0.1-0.1l-1.8-0.8c-0.3-0.1-0.4-0.5-0.3-0.7c0.1-0.3,0.5-0.4,0.7-0.3l1.9,0.8l0.3,0.2
		c0.2,0.1,0.3,0.4,0.2,0.6C255,203.7,254.8,203.8,254.5,203.8L254.5,203.8z M248.4,201c-0.1,0-0.2,0-0.2-0.1l-2-1
		c-0.3-0.1-0.4-0.5-0.2-0.8c0.1-0.3,0.5-0.4,0.8-0.2l2,1c0.2,0.1,0.4,0.4,0.3,0.6C248.9,200.9,248.6,201,248.4,201z M260.1,198.1
		L260.1,198.1c-0.1,0-0.3-0.1-0.4-0.2c-0.1-0.1-0.2-0.3-0.2-0.4c0-0.7,0-1.5,0-2.2c0-0.3,0.3-0.6,0.6-0.6c0.3,0,0.6,0.3,0.6,0.6
		c0,0.7,0,1.5,0,2.2C260.7,197.8,260.4,198,260.1,198.1L260.1,198.1z M242.4,197.8c-0.1,0-0.2,0-0.3-0.1l-2-1.1
		c-0.3-0.2-0.4-0.5-0.2-0.8c0.2-0.3,0.5-0.4,0.8-0.2l1.9,1.1c0.2,0.1,0.3,0.4,0.3,0.6C242.9,197.6,242.6,197.8,242.4,197.8z
		 M236.6,194.3c-0.1,0-0.2,0-0.3-0.1l-1.9-1.2c-0.2-0.2-0.3-0.5-0.1-0.8c0.2-0.3,0.5-0.3,0.7-0.2l1.9,1.2c0.2,0.1,0.3,0.4,0.2,0.6
		C237.1,194.1,236.8,194.3,236.6,194.3L236.6,194.3z M260.3,191.3L260.3,191.3c-0.1,0-0.3-0.1-0.4-0.2c-0.1-0.1-0.2-0.3-0.1-0.4
		l0.1-2.2c0-0.3,0.3-0.5,0.6-0.5c0.1,0,0.3,0.1,0.4,0.2c0.1,0.1,0.2,0.3,0.1,0.4l-0.1,2.2C260.8,191,260.6,191.3,260.3,191.3
		L260.3,191.3z M230.9,190.6c-0.1,0-0.2,0-0.3-0.1l-1.9-1.2c-0.2-0.2-0.3-0.5-0.1-0.8c0.2-0.2,0.5-0.3,0.7-0.2l1.9,1.2
		c0.2,0.1,0.3,0.4,0.2,0.6C231.3,190.5,231.1,190.6,230.9,190.6L230.9,190.6z M225.2,187c-0.1,0-0.2,0-0.3-0.1l-1.9-1.2
		c-0.2-0.1-0.3-0.3-0.3-0.5c0-0.2,0.1-0.4,0.3-0.5c0.2-0.1,0.4-0.1,0.6,0l1.9,1.2c0.2,0.1,0.3,0.4,0.2,0.6
		C225.6,186.8,225.4,187,225.2,187L225.2,187z M260.5,184.5L260.5,184.5c-0.1,0-0.3-0.1-0.4-0.2c-0.1-0.1-0.2-0.3-0.1-0.4l0.1-2.2
		c0-0.3,0.3-0.5,0.6-0.5c0.1,0,0.3,0.1,0.4,0.2c0.1,0.1,0.2,0.3,0.1,0.4l-0.1,2.2C261.1,184.2,260.8,184.5,260.5,184.5L260.5,184.5z
		 M219.4,183.4c-0.1,0-0.2,0-0.3-0.1l-1.9-1.1c-0.3-0.2-0.3-0.5-0.2-0.8c0.2-0.3,0.5-0.4,0.8-0.2l1.9,1.1c0.2,0.1,0.3,0.4,0.3,0.6
		C219.8,183.2,219.6,183.4,219.4,183.4L219.4,183.4z M213.5,179.9c-0.1,0-0.2,0-0.3-0.1l-2-1.1c-0.3-0.2-0.3-0.5-0.2-0.7
		c0.1-0.3,0.5-0.4,0.7-0.2l2,1.1c0.2,0.1,0.3,0.4,0.3,0.6C214,179.7,213.8,179.9,213.5,179.9L213.5,179.9z M260.8,177.7L260.8,177.7
		c-0.1,0-0.3-0.1-0.4-0.2c-0.1-0.1-0.2-0.3-0.1-0.4l0.1-2.2c0-0.2,0.1-0.3,0.2-0.4c0.1-0.1,0.3-0.2,0.4-0.1c0.1,0,0.3,0.1,0.4,0.2
		c0.1,0.1,0.2,0.3,0.1,0.4l-0.1,2.2C261.4,177.4,261.1,177.7,260.8,177.7L260.8,177.7z M207.6,176.6c-0.1,0-0.2,0-0.3-0.1l-2-1.1
		c-0.3-0.1-0.4-0.5-0.2-0.8c0.1-0.3,0.5-0.4,0.8-0.2l2,1.1c0.2,0.1,0.3,0.4,0.3,0.6C208.1,176.4,207.9,176.6,207.6,176.6
		L207.6,176.6z M201.6,173.3c-0.1,0-0.2,0-0.3-0.1l-2-1.1c-0.2-0.1-0.3-0.3-0.3-0.5c0-0.2,0.1-0.4,0.3-0.5c0.2-0.1,0.4-0.1,0.6,0
		l2,1.1c0.2,0.1,0.3,0.4,0.3,0.6C202.1,173.1,201.9,173.3,201.6,173.3L201.6,173.3z M261,170.9L261,170.9c-0.1,0-0.3-0.1-0.4-0.2
		c-0.1-0.1-0.2-0.3-0.1-0.4l0.1-2.2c0-0.3,0.3-0.5,0.6-0.5c0.1,0,0.3,0.1,0.4,0.2c0.1,0.1,0.2,0.3,0.2,0.4l-0.1,2.2
		c0,0.2,0,0.3-0.2,0.4C261.4,170.8,261.2,170.9,261,170.9L261,170.9z M195.7,170.1c-0.1,0-0.2,0-0.3-0.1l-2-1.1
		c-0.2-0.1-0.3-0.3-0.3-0.5c0-0.2,0.1-0.4,0.3-0.5c0.2-0.1,0.4-0.1,0.6,0l2,1.1c0.2,0.1,0.3,0.4,0.3,0.6
		C196.1,169.9,195.9,170.1,195.7,170.1L195.7,170.1z M189.7,166.9c-0.1,0-0.2,0-0.3-0.1l-2-1.1c-0.2-0.2-0.3-0.5-0.2-0.7
		c0.1-0.3,0.5-0.4,0.7-0.2l2,1.1c0.2,0.1,0.3,0.4,0.3,0.6C190.1,166.8,189.9,166.9,189.7,166.9L189.7,166.9z M261.2,164.1
		L261.2,164.1c-0.1,0-0.3-0.1-0.4-0.2c-0.1-0.1-0.2-0.3-0.2-0.4c0-0.7,0-1.5,0-2.2c0-0.1,0.1-0.3,0.2-0.4c0.1-0.1,0.3-0.2,0.4-0.2
		c0.3,0,0.6,0.3,0.6,0.6c0,0.7,0,1.5,0,2.2c0,0.2-0.1,0.3-0.2,0.4C261.5,164,261.4,164.1,261.2,164.1z M183.7,163.7
		c-0.1,0-0.2,0-0.3-0.1l-2-1.1c-0.3-0.1-0.4-0.5-0.2-0.8c0.1-0.3,0.5-0.4,0.8-0.2l2,1.1c0.2,0.1,0.3,0.4,0.3,0.6
		C184.2,163.5,183.9,163.7,183.7,163.7L183.7,163.7z M177.7,160.4c-0.1,0-0.2,0-0.3-0.1l-2-1.1c-0.2-0.1-0.3-0.3-0.3-0.5
		c0-0.2,0.1-0.4,0.3-0.5c0.2-0.1,0.4-0.1,0.6,0l2,1.1c0.2,0.1,0.3,0.4,0.3,0.6C178.2,160.3,178,160.4,177.7,160.4L177.7,160.4z
		 M261.3,157.3c-0.3,0-0.6-0.2-0.6-0.6c0-0.7,0-1.5,0-2.2c0-0.1,0.1-0.3,0.2-0.4c0.1-0.1,0.2-0.2,0.4-0.2c0.3,0,0.5,0.2,0.6,0.5
		c0,0.7,0,1.5,0,2.2C261.8,157.1,261.6,157.3,261.3,157.3L261.3,157.3z M171.8,157.1c-0.1,0-0.2,0-0.3-0.1l-1.9-1.1
		c-0.3-0.2-0.3-0.5-0.2-0.8s0.5-0.4,0.8-0.2l1.9,1.1c0.2,0.1,0.3,0.4,0.3,0.6C172.3,156.9,172.1,157.1,171.8,157.1L171.8,157.1z
		 M261.1,150.5c-0.3,0-0.5-0.2-0.6-0.5c0-0.7,0-1.5-0.1-2.2c0-0.3,0.3-0.6,0.6-0.6c0.3,0,0.6,0.3,0.6,0.6c0,0.7,0,1.5,0.1,2.2
		c0,0.1,0,0.3-0.1,0.4C261.4,150.5,261.3,150.6,261.1,150.5L261.1,150.5z M260.8,143.8c-0.3,0-0.5-0.2-0.6-0.5
		c-0.1-0.7-0.1-1.5-0.2-2.2c0-0.3,0.2-0.6,0.5-0.6c0.3,0,0.6,0.2,0.6,0.5c0.1,0.7,0.1,1.5,0.2,2.2
		C261.3,143.4,261.1,143.7,260.8,143.8L260.8,143.8z M260.1,137c-0.3,0-0.5-0.2-0.6-0.5c-0.1-0.7-0.2-1.5-0.3-2.2
		c0-0.3,0.2-0.6,0.5-0.6c0.3,0,0.6,0.2,0.6,0.5c0.1,0.7,0.2,1.5,0.3,2.2c0,0.1,0,0.3-0.1,0.4C260.5,136.9,260.3,137,260.1,137
		L260.1,137z"/>
	<path class="st16" d="M166,153.5c-0.1,0-0.2,0-0.3-0.1l-1-0.6c-0.2-0.1-0.3-0.3-0.3-0.5c0-0.2,0.1-0.4,0.3-0.5s0.4-0.1,0.6,0l1,0.6
		c0.2,0.1,0.3,0.4,0.2,0.6C166.5,153.4,166.2,153.5,166,153.5L166,153.5z"/>
	<path class="st17" d="M243.3,166.1c-1.4-3.4,0.1-7.1,3.2-8.4c3.1-1.2,6.7,0.5,8.1,3.9c1.4,3.4-0.1,7.1-3.2,8.4
		C248.3,171.2,244.7,169.5,243.3,166.1z"/>
	<path class="st18" d="M265,32.2c0,0-10.6,10.6-15.4,11.7c1.7,4.3,5,7.8,9.1,9.7c0,0,10.5-3.1,13.1-9.8c0,0-5.7,7.9-12.7,8.5
		c-3.5-1.7-6.3-4.5-8.2-7.8C250.8,44.5,260,40.5,265,32.2z"/>
	<path class="st18" d="M237.5,36.4l4.1,13.1l-3.4-0.9L237.5,36.4L237.5,36.4z"/>
	<path class="st19" d="M248.8,161.1c-3.6,0-3.6,5.6,0,5.6C252.4,166.7,252.4,161.1,248.8,161.1z"/>
	<path class="st20" d="M104.9,213.4c0.1,0.9,0,1.8-0.4,2.7c-0.6,1.1-1.6,3.1-4,2.7c-2.4-0.4-7-3.2-9-4.1c-2-0.9-7.1-1.9-7.1-2.8
		c-0.1-0.9,0-3.4,0-3.4"/>
	<path class="st17" d="M94.8,205.5c0,0,0.6,2,4,3.5c0,0,6.7,3.1,6.1,5.2c-0.5,2-2.4,3.2-4.4,3.1c-2.2,0-7-4-10.1-4.8
		c-3.1-0.9-5.7-1.4-5.8-2.4s0-6.4,0-6.4"/>
	<path class="st20" d="M71.6,196.3c0,0,0.5,3.4-0.8,3.7c-1.9,0.4-4,0.2-5.7-0.6c-2.5-1-9.7-8-10.4-10.5c0,0-0.5-1.4,3.5-5"/>
	<path class="st17" d="M66.8,187.3c0,0-0.7,2.7,0,4c0,0,5,3.6,4.8,5c0,0-2,3.1-5.1,1.8c0,0-8.3-5.6-9.3-7.3c0,0-2-3.2-0.8-4.9
		l7.4-6.8"/>
	<path class="st21" d="M89.2,131.9l16.2,7.3L68,188.5c0,0-8.1,0-9.5-8.1L89.2,131.9z"/>
	<path class="st9" d="M133.3,154.3c-1.8-1.3-3.9-2-6.1-2c-1,0-1,1.5,0,1.5c1.5,0,3,0.4,4.3,1.1c0.8,0.5,3,1.8,2.9,3
		c-0.1,1.4-3-0.9-3.6-1.3c-1.3-0.9-2.5-1.8-3.8-2.7c-0.8-0.6-1.5,0.7-0.8,1.3c1.3,1,9.3,7.9,9.7,3.1
		C136.1,156.7,134.5,155.2,133.3,154.3z"/>
	<path class="st9" d="M91.6,145.8c0,0,1.9,17.1,4.3,27.5l0.8,32.4c0,0-11.9,5.9-13,0l-2.6-25.5c0,0-6.2-17.1-7.1-26.4
		c-0.7-7.3,5-15.7,5-15.7"/>
	<path class="st10" d="M113.6,202.5l-5-30.5c-0.4-3.2,1.2-6.3,3.9-7.8c4.8-3,17.5-11.6,17.5-11.6s6.4-1.9,7.4,2.8
		c0.7,3.2,5.9,28.6,5.9,28.6"/>
	<defs>
		<filter id="Adobe_OpacityMaskFilter_2_" filterUnits="userSpaceOnUse" x="105.6" y="149.2" width="40.7" height="53.7">
			<feColorMatrix  type="matrix" values="1 0 0 0 0  0 1 0 0 0  0 0 1 0 0  0 0 0 1 0"/>
		</filter>
	</defs>
	<mask maskUnits="userSpaceOnUse" x="105.6" y="149.2" width="40.7" height="53.7" id="_mask_3R4TDN8mmpC7Vzz83pbQyB3pZSIZewo2_1_">
		<rect x="-800" y="-600" class="st22" width="1600" height="1200"/>
		<path class="st7" d="M113.6,202.5l-5-30.5c-0.4-3.2,1.2-6.3,3.9-7.8c4.8-3,17.5-11.6,17.5-11.6s6.4-1.9,7.4,2.8
			c0.7,3.2,5.9,28.6,5.9,28.6"/>
	</mask>
	<path vector-effect="non-scaling-stroke" class="st23" d="M113.6,202.5l-5-30.5c-0.4-3.2,1.2-6.3,3.9-7.8
		c4.8-3,17.5-11.6,17.5-11.6s6.4-1.9,7.4,2.8c0.7,3.2,5.9,28.6,5.9,28.6"/>
	<path class="st9" d="M169,213.7l-16.3,9.2c-0.3,0.2-0.4,0.7-0.2,1c0.2,0.3,0.6,0.5,1,0.3l16.3-9.2c0.3-0.2,0.4-0.7,0.2-1
		C169.8,213.7,169.4,213.6,169,213.7z"/>
	<path class="st9" d="M151.7,224c-0.4-4.8-4.2-8.6-6.5-12.6c-0.2-0.3-0.7-0.4-1-0.2c-0.3,0.2-0.5,0.7-0.3,1c1.7,3,4.1,5.6,5.4,8.8
		c1,2.2,1.3,4.7,0,6.9c-0.9,1.5-2.1,2.5-4,2.1c-1.4,0.3-2.1-0.4-1.8-2c-1-1.6-0.5-2.6,1.5-3c1-0.1,0.5-1.6-0.4-1.5
		c-6.1,0.8-3.2,10.1,3,7.9C150.6,230.4,152,227,151.7,224z"/>
	<path class="st24" d="M125.7,214c0.4,1.7-0.2,3.5-1.6,4.7c-1.4,1.1-3.2,1.4-4.9,0.8c-1.6-0.7-2.8-2.2-2.9-4
		c-0.4-2.8,0.4-5.4,3.9-5.8C122.9,209.4,125.3,211.3,125.7,214L125.7,214z"/>
	<path class="st24" d="M121.4,220c0.9-0.2,1.8-0.7,2.5-1.2c1.1-0.9,0.3-3.1,0.3-3.1"/>
	<path class="st25" d="M115.1,215.9c-0.4-2.8,1.3-5.4,3.9-5.8c2.6-0.4,5,1.5,5.5,4.3c0.4,2.8-1.3,5.4-3.9,5.8
		C118,220.6,115.5,218.7,115.1,215.9z"/>
	<path class="st26" d="M116.8,215.7c-0.3-1.8,0.9-3.5,2.5-3.7c1.7-0.3,3.2,1,3.5,2.8s-0.9,3.5-2.5,3.7
		C118.6,218.7,117,217.4,116.8,215.7z"/>
	<path class="st24" d="M151.2,226.4c0.4,1.7-0.2,3.5-1.6,4.7c-1.4,1.1-3.2,1.4-4.9,0.8c-1.6-0.7-2.8-2.2-2.9-4
		c-0.4-2.8,0.4-5.4,3.9-5.8C148.4,221.8,150.8,223.7,151.2,226.4L151.2,226.4z"/>
	<path class="st24" d="M146.9,232.4c0.9-0.2,1.8-0.7,2.5-1.2c1.1-0.9,0.3-3.1,0.3-3.1"/>
	<path class="st25" d="M140.6,228.3c-0.4-2.8,1.3-5.4,3.9-5.8c2.6-0.4,5,1.5,5.5,4.3c0.4,2.8-1.3,5.4-3.9,5.8
		C143.5,233,141.1,231,140.6,228.3z"/>
	<path class="st26" d="M142.3,228c-0.3-1.8,0.9-3.5,2.5-3.7c1.7-0.3,3.2,1,3.5,2.8c0.3,1.8-0.9,3.5-2.5,3.7
		C144.1,231,142.6,229.8,142.3,228z"/>
	<path class="st5" d="M111.6,206.5l40.1,22.7c1.5,0.8,3.3,0.8,4.8-0.1l28-17.1c0.4-0.3,0.7-0.7,0.7-1.2c0-0.5-0.3-1-0.7-1.2
		l-39.5-22.8c-1.1-0.7-2.5-0.7-3.7,0L111.6,204c-0.4,0.3-0.7,0.7-0.7,1.2C110.9,205.8,111.2,206.3,111.6,206.5z"/>
	<path class="st5" d="M110.9,205v-3.4l2.8,2.1L110.9,205L110.9,205z"/>
	<path class="st5" d="M185.2,207.2v3.5l-3-1.8L185.2,207.2L185.2,207.2z"/>
	<g class="st27">
		<path d="M111.6,206.5l40.1,22.7c1.5,0.8,3.3,0.8,4.8-0.1l28-17.1c0.4-0.3,0.7-0.7,0.7-1.2c0-0.5-0.3-1-0.7-1.2l-39.5-22.8
			c-1.1-0.7-2.5-0.7-3.7,0L111.6,204c-0.4,0.3-0.7,0.7-0.7,1.2C110.9,205.8,111.2,206.3,111.6,206.5z"/>
	</g>
	<g class="st27">
		<path d="M110.9,205v-3.4l2.8,2.1L110.9,205L110.9,205z"/>
	</g>
	<g class="st27">
		<path d="M185.2,207.2v3.5l-3-1.8L185.2,207.2L185.2,207.2z"/>
	</g>
	<path class="st5" d="M111.6,202.8l40.1,22.7c1.5,0.8,3.3,0.8,4.8-0.1l28-17.1c0.4-0.3,0.7-0.7,0.7-1.2c0-0.5-0.3-1-0.7-1.2
		l-39.5-22.7c-1.1-0.7-2.5-0.7-3.7,0l-29.8,17.2c-0.4,0.3-0.7,0.7-0.7,1.2S111.2,202.5,111.6,202.8z"/>
	<ellipse vector-effect="non-scaling-stroke" class="st28" cx="149.3" cy="206.9" rx="22.7" ry="13.3"/>
	<path class="st29" d="M126.6,206.9V203l2.5,3.1L126.6,206.9L126.6,206.9z"/>
	<path class="st29" d="M172,203v3.8h-2.9l2.1-3.1L172,203L172,203z"/>
	<ellipse vector-effect="non-scaling-stroke" class="st19" cx="149.3" cy="203" rx="22.7" ry="13.3"/>
	<path class="st30" d="M160.8,201.2c0.2,0.3,0.2,0.7,0.2,1l-0.1,0.3h-4.1c0-0.1,0.1-0.2,0.1-0.3c0-0.3-0.1-0.5-0.2-0.8
		c-0.2-0.4-0.6-0.7-1-0.9c-0.6-0.3-1.3-0.5-2-0.5c-0.6,0-1.3,0-1.8,0.3c-0.6,0.2-0.8,0.6-0.7,1c0.2,0.5,0.5,0.9,0.9,1.3
		c0.4,0.5,0.9,0.9,1.3,1.4c0.4,0.4,0.5,1.1,0.2,1.6c-0.5,0.8-1.2,1.3-2,1.6c-1.4,0.6-2.9,0.9-4.4,0.9c-1.6,0.1-3.3-0.2-4.8-0.7
		l-2.4,1l-2.8-1.4l2.3-1c-0.4-0.3-0.8-0.6-1.1-1c-0.2-0.3-0.4-0.6-0.5-0.9c-0.1-0.2-0.1-0.5-0.1-0.8c0-0.2,0-0.4,0-0.5l0.1-0.2h4.1
		c0,0.1-0.1,0.3-0.1,0.4c0,0.3,0.1,0.7,0.3,0.9c0.3,0.5,0.8,0.9,1.4,1.1c0.7,0.4,1.6,0.6,2.4,0.6c0.8,0.1,1.5-0.1,2.2-0.4
		c0.6-0.2,0.8-0.6,0.7-1c-0.2-0.5-0.5-0.9-0.9-1.3c-0.5-0.5-0.9-0.9-1.3-1.4c-0.4-0.5-0.4-1.1-0.2-1.6c0.5-0.8,1.2-1.3,2.1-1.6
		c1.3-0.5,2.8-0.8,4.2-0.8c1.5-0.1,3,0.2,4.5,0.7l2.4-1l2.6,1.4l-2.4,1C160.3,200.2,160.6,200.7,160.8,201.2L160.8,201.2z"/>
	<path class="st31" d="M149.4,216.1c-11.7,0-20.8-5.7-20.8-12.9c0-7.3,9.1-12.9,20.8-12.9c11.7,0,20.8,5.7,20.8,12.9
		C170.2,210.4,161,216.1,149.4,216.1z M149.4,193.8c-9.4,0-17.3,4.3-17.3,9.4c0,5.1,7.9,9.4,17.3,9.4s17.3-4.3,17.3-9.4
		C166.6,198.1,158.7,193.8,149.4,193.8L149.4,193.8z"/>
	<ellipse vector-effect="non-scaling-stroke" class="st28" cx="149.3" cy="199.5" rx="22.7" ry="13.3"/>
	<path class="st29" d="M126.6,199.5v-3.8l2.5,3.1L126.6,199.5L126.6,199.5z"/>
	<path class="st29" d="M172,195.7v3.8h-2.9l2.1-3.1L172,195.7L172,195.7z"/>
	<ellipse vector-effect="non-scaling-stroke" class="st19" cx="149.3" cy="195.7" rx="22.7" ry="13.3"/>
	<path class="st30" d="M160.8,193.9c0.2,0.3,0.2,0.7,0.2,1l-0.1,0.3h-4.1c0-0.1,0.1-0.2,0.1-0.3c0-0.3-0.1-0.5-0.2-0.8
		c-0.2-0.4-0.6-0.7-1-0.9c-0.6-0.3-1.3-0.5-2-0.5c-0.6,0-1.3,0-1.8,0.3c-0.6,0.2-0.8,0.6-0.7,1c0.2,0.5,0.5,0.9,0.9,1.3
		c0.4,0.5,0.9,0.9,1.3,1.4c0.4,0.4,0.5,1.1,0.2,1.6c-0.5,0.8-1.2,1.3-2,1.6c-1.4,0.6-2.9,0.9-4.4,0.9c-1.6,0.1-3.3-0.2-4.8-0.7
		l-2.4,1l-2.8-1.4l2.3-1c-0.4-0.3-0.8-0.6-1.1-1c-0.2-0.3-0.4-0.6-0.5-0.9c-0.1-0.2-0.1-0.5-0.1-0.8c0-0.2,0-0.4,0-0.5l0.1-0.2h4.1
		c0,0.1-0.1,0.3-0.1,0.4c0,0.3,0.1,0.7,0.3,0.9c0.3,0.5,0.8,0.9,1.4,1.1c0.7,0.4,1.6,0.6,2.4,0.6c0.8,0.1,1.5-0.1,2.2-0.4
		c0.6-0.2,0.8-0.6,0.7-1c-0.2-0.5-0.5-0.9-0.9-1.3c-0.5-0.4-0.9-0.9-1.3-1.4c-0.4-0.5-0.4-1.1-0.2-1.6c0.5-0.8,1.2-1.3,2.1-1.6
		c1.3-0.5,2.8-0.8,4.2-0.8c1.5-0.1,3,0.2,4.5,0.7l2.4-1l2.6,1.4l-2.4,1C160.3,192.9,160.6,193.4,160.8,193.9L160.8,193.9z"/>
	<path class="st31" d="M149.4,208.8c-11.7,0-20.8-5.7-20.8-12.9c0-7.3,9.1-12.9,20.8-12.9c11.7,0,20.8,5.7,20.8,12.9
		C170.2,203.1,161,208.8,149.4,208.8z M149.4,186.4c-9.4,0-17.3,4.3-17.3,9.4c0,5.1,7.9,9.4,17.3,9.4s17.3-4.3,17.3-9.4
		C166.6,190.7,158.7,186.5,149.4,186.4L149.4,186.4z"/>
	<ellipse vector-effect="non-scaling-stroke" class="st28" cx="149.3" cy="192.2" rx="22.7" ry="13.3"/>
	<path class="st29" d="M126.6,192.2v-3.8l2.5,3.1L126.6,192.2L126.6,192.2z"/>
	<path class="st29" d="M172,188.3v3.8h-2.9l2.1-3.1L172,188.3L172,188.3z"/>
	<ellipse vector-effect="non-scaling-stroke" class="st19" cx="149.3" cy="188.3" rx="22.7" ry="13.3"/>
	<path class="st30" d="M160.8,186.6c0.2,0.3,0.2,0.7,0.2,1l-0.1,0.3h-4.1c0-0.1,0.1-0.2,0.1-0.3c0-0.3-0.1-0.5-0.2-0.8
		c-0.2-0.4-0.6-0.7-1-0.9c-0.6-0.3-1.3-0.5-2-0.5c-0.6,0-1.3,0-1.8,0.3c-0.6,0.2-0.8,0.6-0.7,1c0.2,0.5,0.5,0.9,0.9,1.3
		c0.4,0.5,0.9,0.9,1.3,1.4c0.4,0.4,0.5,1.1,0.2,1.6c-0.5,0.8-1.2,1.3-2,1.6c-1.4,0.6-2.9,0.9-4.4,0.9c-1.6,0.1-3.3-0.2-4.8-0.7
		l-2.4,1l-2.8-1.4l2.3-1c-0.4-0.3-0.8-0.6-1.1-1c-0.2-0.3-0.4-0.6-0.5-0.9c-0.1-0.2-0.1-0.5-0.1-0.8c0-0.2,0-0.4,0-0.5l0.1-0.2h4.1
		c0,0.1-0.1,0.3-0.1,0.4c0,0.3,0.1,0.7,0.3,0.9c0.3,0.5,0.8,0.9,1.4,1.1c0.7,0.4,1.6,0.6,2.4,0.6c0.8,0.1,1.5-0.1,2.2-0.4
		c0.6-0.2,0.8-0.6,0.7-1c-0.2-0.5-0.5-0.9-0.9-1.3c-0.5-0.4-0.9-0.9-1.3-1.4c-0.4-0.5-0.4-1.1-0.2-1.6c0.5-0.8,1.2-1.3,2.1-1.6
		c1.3-0.5,2.8-0.8,4.2-0.8c1.5-0.1,3,0.2,4.5,0.7l2.4-1l2.7,1.5l-2.4,1C160.3,185.6,160.6,186,160.8,186.6z"/>
	<path class="st31" d="M149.4,201.4c-11.7,0-20.8-5.7-20.8-12.9c0-7.3,9.1-12.9,20.8-12.9c11.7,0,20.8,5.7,20.8,12.9
		C170.2,195.7,161,201.4,149.4,201.4z M149.4,179.1c-9.4,0-17.3,4.3-17.3,9.4s7.9,9.4,17.3,9.4s17.3-4.3,17.3-9.4
		S158.7,179.1,149.4,179.1z"/>
	<ellipse vector-effect="non-scaling-stroke" class="st28" cx="149.3" cy="186.7" rx="22.7" ry="13.3"/>
	<path class="st29" d="M126.6,186.7v-3.8l2.5,3.1L126.6,186.7L126.6,186.7z"/>
	<path class="st29" d="M172,182.9v3.8h-2.9l2.1-3.1L172,182.9L172,182.9z"/>
	<ellipse vector-effect="non-scaling-stroke" class="st19" cx="149.3" cy="182.9" rx="22.7" ry="13.3"/>
	<path class="st30" d="M160.8,181.1c0.2,0.3,0.2,0.7,0.2,1l-0.1,0.3h-4.1c0-0.1,0.1-0.2,0.1-0.3c0-0.3-0.1-0.5-0.2-0.8
		c-0.2-0.4-0.6-0.7-1-0.9c-0.6-0.3-1.3-0.5-2-0.5c-0.6,0-1.3,0-1.8,0.3c-0.6,0.2-0.8,0.6-0.7,1c0.2,0.5,0.5,0.9,0.9,1.3
		c0.4,0.5,0.9,0.9,1.3,1.4c0.4,0.4,0.5,1.1,0.2,1.6c-0.5,0.8-1.2,1.3-2,1.6c-1.4,0.6-2.9,0.9-4.4,0.9c-1.6,0.1-3.3-0.2-4.8-0.7
		l-2.4,1l-2.8-1.4l2.3-1c-0.4-0.3-0.8-0.6-1.1-1c-0.2-0.3-0.4-0.6-0.5-0.9c-0.1-0.2-0.1-0.5-0.1-0.8c0-0.2,0-0.4,0-0.5l0.1-0.2h4.1
		c0,0.1-0.1,0.3-0.1,0.4c0,0.3,0.1,0.7,0.3,0.9c0.3,0.5,0.8,0.9,1.4,1.1c0.7,0.4,1.6,0.6,2.4,0.6c0.8,0.1,1.5-0.1,2.2-0.4
		c0.6-0.2,0.8-0.6,0.7-1c-0.2-0.5-0.5-0.9-0.9-1.3c-0.5-0.5-0.9-0.9-1.3-1.4c-0.4-0.5-0.4-1.1-0.2-1.6c0.5-0.8,1.2-1.3,2.1-1.6
		c1.3-0.5,2.8-0.8,4.2-0.8c1.5-0.1,3,0.2,4.5,0.7l2.4-1l2.6,1.4l-2.4,1C160.3,180.1,160.6,180.6,160.8,181.1L160.8,181.1z"/>
	<path class="st31" d="M149.4,196c-11.7,0-20.8-5.7-20.8-12.9c0-7.3,9.1-12.9,20.8-12.9c11.7,0,20.8,5.7,20.8,13
		C170.2,190.4,161,196,149.4,196z M149.4,173.6c-9.4,0-17.3,4.3-17.3,9.4s7.9,9.4,17.3,9.4s17.3-4.3,17.3-9.4
		S158.7,173.7,149.4,173.6L149.4,173.6z"/>
	<ellipse vector-effect="non-scaling-stroke" class="st28" cx="153" cy="179.4" rx="22.7" ry="13.3"/>
	<path class="st29" d="M130.3,179.4v-3.8l2.5,3.1L130.3,179.4L130.3,179.4z"/>
	<path class="st29" d="M175.7,175.5v3.8h-2.9l2.1-3.1L175.7,175.5L175.7,175.5z"/>
	<ellipse vector-effect="non-scaling-stroke" class="st19" cx="153" cy="175.5" rx="22.7" ry="13.3"/>
	<path class="st30" d="M164.5,173.8c0.2,0.3,0.2,0.7,0.2,1l-0.1,0.3h-4.1c0-0.1,0.1-0.2,0.1-0.3c0-0.3-0.1-0.5-0.2-0.8
		c-0.2-0.4-0.6-0.7-1-0.9c-0.6-0.3-1.3-0.5-1.9-0.5c-0.6,0-1.3,0.1-1.8,0.3c-0.6,0.2-0.8,0.6-0.7,1c0.2,0.5,0.5,0.9,0.9,1.3
		c0.4,0.5,0.9,0.9,1.3,1.4c0.4,0.4,0.5,1.1,0.2,1.6c-0.5,0.8-1.2,1.3-2,1.6c-1.4,0.6-2.9,0.9-4.4,0.9c-1.6,0.1-3.3-0.2-4.8-0.7
		l-2.4,1l-2.8-1.4l2.3-1c-0.4-0.3-0.8-0.6-1.1-1c-0.2-0.3-0.4-0.6-0.5-0.9c-0.1-0.2-0.1-0.5-0.1-0.8c0-0.2,0-0.4,0-0.5l0.1-0.2h4.1
		c0,0.1-0.1,0.3-0.1,0.4c0,0.3,0.1,0.7,0.3,0.9c0.3,0.5,0.8,0.9,1.4,1.1c0.7,0.4,1.6,0.6,2.4,0.6c0.8,0.1,1.5-0.1,2.2-0.4
		c0.6-0.2,0.8-0.6,0.7-1c-0.2-0.5-0.5-0.9-0.9-1.3c-0.5-0.5-0.9-0.9-1.3-1.4c-0.4-0.5-0.4-1.1-0.2-1.6c0.5-0.8,1.2-1.3,2.1-1.6
		c1.3-0.5,2.8-0.8,4.2-0.8c1.5-0.1,3,0.2,4.5,0.7l2.4-1l2.6,1.4l-2.4,1C163.9,172.7,164.3,173.2,164.5,173.8L164.5,173.8z"/>
	<path class="st31" d="M153,187.7c-11,0-19.9-5.4-19.9-12s9-12,19.9-12s19.9,5.4,19.9,12S164,187.7,153,187.7z M153,165.4
		c-10,0-18.2,4.6-18.2,10.3S143,186,153,186s18.2-4.6,18.2-10.3S163.1,165.4,153,165.4L153,165.4z"/>
	<ellipse vector-effect="non-scaling-stroke" class="st28" cx="161" cy="171.5" rx="22.7" ry="13.3"/>
	<path class="st29" d="M138.3,171.5v-3.8l2.5,3.1L138.3,171.5L138.3,171.5z"/>
	<path class="st29" d="M183.8,167.7v3.8h-2.9l2.1-3.1L183.8,167.7L183.8,167.7z"/>
	<ellipse vector-effect="non-scaling-stroke" class="st19" cx="161" cy="167.7" rx="22.7" ry="13.3"/>
	<path class="st30" d="M172.6,165.9c0.2,0.3,0.2,0.7,0.2,1l-0.1,0.3h-4.1c0-0.1,0.1-0.2,0.1-0.3c0-0.3-0.1-0.5-0.2-0.8
		c-0.2-0.4-0.6-0.7-1-0.9c-0.6-0.3-1.3-0.5-2-0.5c-0.6,0-1.3,0-1.8,0.3c-0.6,0.2-0.8,0.6-0.7,1c0.2,0.5,0.5,0.9,0.9,1.3
		c0.4,0.5,0.9,0.9,1.3,1.4c0.4,0.4,0.5,1.1,0.2,1.6c-0.5,0.8-1.2,1.3-2,1.6c-1.4,0.6-2.9,0.9-4.4,0.9c-1.6,0.1-3.3-0.2-4.8-0.7
		l-2.4,1l-2.8-1.4l2.3-1c-0.4-0.3-0.8-0.6-1.1-1c-0.2-0.3-0.4-0.6-0.5-0.9c-0.1-0.2-0.1-0.5-0.1-0.8c0-0.2,0-0.4,0-0.5l0.1-0.2h4.1
		c0,0.1-0.1,0.3-0.1,0.4c0,0.3,0.1,0.7,0.3,0.9c0.3,0.5,0.8,0.9,1.4,1.1c0.7,0.4,1.6,0.6,2.4,0.6c0.8,0.1,1.5-0.1,2.2-0.4
		c0.6-0.2,0.8-0.6,0.6-1c-0.2-0.5-0.5-0.9-0.9-1.3c-0.5-0.5-0.9-0.9-1.3-1.4c-0.4-0.5-0.4-1.1-0.2-1.6c0.5-0.8,1.2-1.3,2.1-1.6
		c1.3-0.5,2.8-0.8,4.2-0.8c1.5-0.1,3,0.2,4.5,0.7l2.4-1l2.6,1.4l-2.4,1C172,164.9,172.4,165.3,172.6,165.9z"/>
	<path class="st31" d="M161.1,179.6c-10.8,0-19.6-5.3-19.6-11.8c0-6.5,8.8-11.8,19.6-11.8c10.8,0,19.6,5.3,19.6,11.8
		C180.8,174.3,171.9,179.6,161.1,179.6z M161.1,157.3c-10.2,0-18.5,4.7-18.5,10.6c0,5.8,8.3,10.6,18.5,10.6
		c10.2,0,18.5-4.7,18.5-10.6C179.6,162,171.3,157.3,161.1,157.3z"/>
	<ellipse vector-effect="non-scaling-stroke" class="st28" cx="150" cy="160.3" rx="22.7" ry="13.3"/>
	<path class="st29" d="M127.3,160.3v-3.8l2.5,3.1L127.3,160.3L127.3,160.3z"/>
	<path class="st29" d="M172.7,156.5v3.8h-2.9l2.1-3.1L172.7,156.5L172.7,156.5z"/>
	<ellipse vector-effect="non-scaling-stroke" class="st19" cx="150" cy="156.5" rx="22.7" ry="13.3"/>
	<path class="st30" d="M161.5,154.7c0.2,0.3,0.2,0.7,0.2,1l-0.1,0.3h-4.1c0-0.1,0.1-0.2,0.1-0.3c0-0.3-0.1-0.5-0.2-0.8
		c-0.2-0.4-0.6-0.7-1-0.9c-0.6-0.3-1.3-0.5-1.9-0.5c-0.6,0-1.3,0-1.8,0.3c-0.6,0.2-0.8,0.6-0.7,1c0.2,0.5,0.5,0.9,0.9,1.3
		c0.4,0.5,0.9,0.9,1.3,1.4c0.4,0.4,0.5,1.1,0.2,1.6c-0.5,0.8-1.2,1.3-2,1.6c-1.4,0.6-2.9,0.9-4.4,0.9c-1.6,0.1-3.3-0.2-4.8-0.7
		l-2.4,1l-2.8-1.4l2.3-1c-0.4-0.3-0.8-0.6-1.1-1c-0.2-0.3-0.4-0.6-0.5-0.9c-0.1-0.2-0.1-0.5-0.1-0.8c0-0.2,0-0.4,0-0.5l0.1-0.2h4.1
		c0,0.1-0.1,0.3-0.1,0.4c0,0.3,0.1,0.7,0.3,0.9c0.3,0.5,0.8,0.9,1.4,1.1c0.7,0.4,1.6,0.6,2.4,0.6c0.8,0.1,1.5-0.1,2.2-0.4
		c0.6-0.2,0.8-0.6,0.7-1c-0.2-0.5-0.5-0.9-0.9-1.3c-0.5-0.5-0.9-0.9-1.3-1.4c-0.4-0.5-0.4-1.1-0.2-1.6c0.5-0.8,1.2-1.3,2.1-1.6
		c1.3-0.5,2.8-0.8,4.2-0.8c1.5-0.1,3,0.2,4.5,0.7l2.4-1l2.6,1.4l-2.4,1C161,153.7,161.3,154.1,161.5,154.7L161.5,154.7z"/>
	<path class="st31" d="M150.1,168.4c-10.8,0-19.6-5.3-19.6-11.8c0-6.5,8.8-11.8,19.6-11.8c10.8,0,19.6,5.3,19.6,11.8
		C169.7,163.1,160.9,168.4,150.1,168.4z M150.1,146.1c-10.2,0-18.5,4.7-18.5,10.6c0,5.8,8.3,10.6,18.5,10.6
		c10.2,0,18.5-4.7,18.5-10.6C168.5,150.8,160.2,146.1,150.1,146.1L150.1,146.1z"/>
	<path class="st32" d="M113.2,153l3.6,4.5c0,0,2.7,0.6,3.1,1.5c0.3,1.4-0.1,2.8-1,3.8c-0.8,0.7-3,1.8-3.7,1.5
		c-0.7-0.3,0.2-2.4-0.9-3c-0.6-0.3-1.4-0.1-1.8,0.4l-1-2.2l-2.6-3.8"/>
	<path class="st32" d="M124.8,145.8l3.6,4.5c0,0,2.7,0.6,3.1,1.5c0.3,1.4-0.1,2.8-1,3.8c-0.8,0.7-3,1.8-3.7,1.5
		c-0.7-0.3,0.2-2.4-0.9-3c-0.6-0.3-1.4-0.1-1.8,0.4l-1-2.2l-2.6-3.8"/>
	<path class="st17" d="M97.3,146.1c0.2-0.7,0.5-1.4,0.9-2l0.3-0.1l1.2-2.6l0.1,0.2c3.2-7.5,8.3-9.9,7.3-17.9c-2.1-2.4-4.5-4.5-7-6.4
		c-1.7-0.1-3.4-0.1-5,0.2c-4.7,0.8-8,4.9-10.7,8.5c-3.9,5.6-7.1,11.7-9.6,18.1c1.9,2.1,6.9,3.8,9.4,5.1c2.4,0.4,4.8,0.3,7.2-0.1
		C93.5,148.3,95.5,147.3,97.3,146.1L97.3,146.1z"/>
	<path class="st17" d="M103.9,119.1c0.6,0.4,23.9,25,23.2,27.1c-0.7,2.1-4,5.2-6.2,4.3c-2.2-0.9-10.3-11.9-10.3-11.9l-10.3-10.3
		L103.9,119.1z"/>
	<path class="st17" d="M109.8,159.2c2.7-1,5.4-2.8,6.2-5.5l-16.5-21.3l-7-13.3c-1.2,1-7.5,7.7-3.8,14.5
		C92.4,140.4,105.4,157.1,109.8,159.2z"/>
	<path class="st32" d="M111.3,114c0,0-2.7,6.9-10,5.8c0,0-1.4-13.6,3.9-13.4C110.5,106.4,112.9,111,111.3,114z"/>
	<path class="st20" d="M111.4,106.1c0.2-1.5-0.7-2.9-2.1-3.2c-1.6-0.6-3.3-0.8-4.9-0.4c-2.6-0.3-5.4-0.2-7,1.9
		c-1.6,2.1-1.3,4.9-0.9,7.5c0,0.9,0.1,1.8,0.3,2.7c0.4,0.9,0.8,1.9,1,2.9l1.5-2.9c0,0,0.4-0.5,4.8,0.8l4.7-1.8
		c1.5,0.7,3.2,0.6,4.6-0.2c1.4-0.9,2.2-2.4,2.3-4C115.6,106.8,112.6,106.2,111.4,106.1z"/>
	<path class="st33" d="M97.5,146.2c0.6-0.5-9.3-13.4-9.3-13.4l2.8,16.5C93.4,148.7,95.6,147.7,97.5,146.2z"/>
	<path class="st32" d="M101.3,111.5c-2.6,0.6-1.6,4.3-0.1,5.4c0.2,0.1,0.4,0.2,0.6,0.2c0.2,0,0.4-0.2,0.5-0.4
		c0.4,0.1,0.7-0.1,0.9-0.4C103.6,114.9,104,110.8,101.3,111.5z"/>
	
		<linearGradient id="SVGID_8_" gradientUnits="userSpaceOnUse" x1="0.1722" y1="299.2627" x2="0.9815" y2="299.8502" gradientTransform="matrix(72.937 0 0 -49.525 143.338 15094.8721)">
		<stop  offset="1" style="stop-color:#808080;stop-opacity:0"/>
		<stop  offset="1" style="stop-color:#7A817D;stop-opacity:4.370629e-02"/>
	</linearGradient>
	<path class="st34" d="M172.7,286.9l43.5-33.3l-29.5-16.2l-43.4,32C150.4,273.8,165.8,282.4,172.7,286.9z"/>
	<ellipse vector-effect="non-scaling-stroke" class="st28" cx="200" cy="246.9" rx="18.7" ry="10.9"/>
	<path class="st29" d="M181.3,246.9v-3.2l2,2.5L181.3,246.9L181.3,246.9z"/>
	<path class="st29" d="M218.6,243.8v3.2h-2.4l1.7-2.5L218.6,243.8L218.6,243.8z"/>
	<ellipse vector-effect="non-scaling-stroke" class="st19" cx="200" cy="243.8" rx="18.7" ry="10.9"/>
	<path class="st30" d="M209.4,242.3c0.1,0.3,0.2,0.5,0.1,0.8l-0.1,0.3h-3.4c0-0.1,0.1-0.2,0.1-0.3c0-0.2-0.1-0.4-0.3-0.6
		c-0.2-0.3-0.5-0.6-0.8-0.8c-0.5-0.3-1-0.4-1.6-0.4c-0.5,0-1,0-1.5,0.2c-0.5,0.2-0.7,0.5-0.5,0.8c0.2,0.4,0.4,0.8,0.7,1.1
		c0.4,0.4,0.7,0.8,1,1.2c0.3,0.4,0.4,0.9,0.2,1.3c-0.4,0.6-1,1.1-1.7,1.3c-1.1,0.5-2.4,0.7-3.6,0.8c-1.3,0-2.7-0.1-4-0.6l-2,0.8
		l-2.3-1.1l1.9-0.8c-0.3-0.2-0.7-0.5-0.9-0.8c-0.2-0.2-0.3-0.5-0.4-0.8c-0.1-0.2-0.1-0.4-0.1-0.6c0-0.1,0-0.3,0-0.4l0.1-0.2h3.4
		c0,0.1-0.1,0.2-0.1,0.3c0,0.3,0.1,0.5,0.3,0.8c0.3,0.4,0.7,0.8,1.1,1c0.6,0.3,1.3,0.5,2,0.5c0.6,0,1.2-0.1,1.8-0.3
		c0.5-0.2,0.7-0.5,0.5-0.8c-0.2-0.4-0.4-0.8-0.8-1.1c-0.4-0.4-0.7-0.8-1-1.2c-0.3-0.4-0.4-0.9-0.1-1.3c0.4-0.6,1-1.1,1.7-1.3
		c1.1-0.4,2.3-0.7,3.5-0.7c1.3,0,2.5,0.1,3.7,0.6l2-0.8l2.1,1.1l-2,0.8C208.9,241.5,209.2,241.8,209.4,242.3z"/>
	<path class="st31" d="M200,253.6c-9,0-16.2-4.3-16.2-9.7c0-5.3,7.3-9.7,16.2-9.7c8.9,0,16.2,4.3,16.2,9.7
		C216.2,249.2,208.9,253.6,200,253.6z M200,235.2c-8.4,0-15.2,3.9-15.2,8.7s6.8,8.7,15.2,8.7c8.4,0,15.2-3.9,15.2-8.7
		S208.4,235.2,200,235.2z"/>
</g>
</svg>
