<?xml version="1.0" encoding="utf-8"?>
<!-- Generator: Adobe Illustrator 24.0.1, SVG Export Plug-In . SVG Version: 6.00 Build 0)  -->
<svg version="1.1" id="Layer_1" xmlns="http://www.w3.org/2000/svg" xmlns:xlink="http://www.w3.org/1999/xlink" x="0px" y="0px"
	 viewBox="0 0 400 300" style="enable-background:new 0 0 400 300;" xml:space="preserve">
<style type="text/css">
	.st0{clip-path:url(#SVGID_2_);fill:#282B4E;}
	.st1{clip-path:url(#SVGID_2_);fill:url(#SVGID_3_);}
	.st2{clip-path:url(#SVGID_2_);fill:url(#SVGID_4_);}
	.st3{clip-path:url(#SVGID_2_);fill:#2B415D;}
	.st4{clip-path:url(#SVGID_2_);fill:url(#SVGID_5_);}
	.st5{clip-path:url(#SVGID_2_);fill:#4B1B13;}
	.st6{clip-path:url(#SVGID_2_);fill:#FFAC73;}
	.st7{clip-path:url(#SVGID_2_);fill:#E28E54;}
	.st8{clip-path:url(#SVGID_2_);fill:#17283A;}
	.st9{clip-path:url(#SVGID_2_);fill:url(#SVGID_6_);}
	.st10{clip-path:url(#SVGID_2_);fill:#DA6138;}
	.st11{clip-path:url(#SVGID_2_);fill:#E5894A;}
	.st12{clip-path:url(#SVGID_2_);fill:url(#SVGID_7_);}
	.st13{clip-path:url(#SVGID_2_);fill:#D4DEE8;}
	.st14{clip-path:url(#SVGID_2_);fill:#F47A63;}
	.st15{clip-path:url(#SVGID_2_);fill:none;stroke:#42210B;stroke-width:0.75;stroke-miterlimit:10;}
	.st16{clip-path:url(#SVGID_2_);fill:#FFFFFF;filter:url(#Adobe_OpacityMaskFilter);}
	.st17{clip-path:url(#SVGID_2_);fill:none;}
	
		.st18{clip-path:url(#SVGID_2_);mask:url(#_mask_9qcq69vHf1lL1QBhMrjyUSOLmNeXLKzT_1_);fill:none;stroke:#42210B;stroke-width:1.5;stroke-miterlimit:10;}
	.st19{clip-path:url(#SVGID_2_);fill:#FFFFFF;filter:url(#Adobe_OpacityMaskFilter_1_);}
	
		.st20{clip-path:url(#SVGID_2_);mask:url(#_mask_tae7qUITTVHxhdQ6JajuXmZ9j2v07Fl6_1_);fill:none;stroke:#42210B;stroke-width:1.5;stroke-miterlimit:10;}
</style>
<g>
	<defs>
		<rect id="SVGID_1_" width="400" height="300"/>
	</defs>
	<clipPath id="SVGID_2_">
		<use xlink:href="#SVGID_1_"  style="overflow:visible;"/>
	</clipPath>
	<path class="st0" d="M205.1,95.5c-59.6-8-142.5-2.8-179.8,52.6c-8.9,13.2-13.5,29.9-9.8,45.4c8.4,35.1,52.1,60,82.2,74.1
		c36,16.8,75.5,25.6,115,27.9c39,2.2,80.1,1.9,117.1-12.2c26.7-10.2,50.4-29.6,55.1-59.2c8.5-53.3-49.1-88.8-91.2-105.5
		C265.2,107.4,235.5,99.6,205.1,95.5L205.1,95.5z"/>
	
		<linearGradient id="SVGID_3_" gradientUnits="userSpaceOnUse" x1="0.8271" y1="299.2672" x2="0.4506" y2="299.5922" gradientTransform="matrix(122.116 0 0 -64.179 245.991 19460.6699)">
		<stop  offset="0" style="stop-color:#FFFFFF;stop-opacity:0"/>
		<stop  offset="1" style="stop-color:#BBBBBB;stop-opacity:0.44"/>
	</linearGradient>
	<path class="st1" d="M246,225.8l77.3,45.3l44.8-27.2L304.8,207"/>
	
		<linearGradient id="SVGID_4_" gradientUnits="userSpaceOnUse" x1="0.2023" y1="299.2579" x2="0.9697" y2="299.8991" gradientTransform="matrix(122.116 0 0 -64.179 140.973 19383.2734)">
		<stop  offset="1" style="stop-color:#FFFFFF;stop-opacity:0"/>
		<stop  offset="1" style="stop-color:#FEF8FA;stop-opacity:2.901073e-02"/>
	</linearGradient>
	<path class="st2" d="M141,148.4l77.3,45.3l44.8-27.2l-63.3-36.9"/>
	<path class="st3" d="M213.9,142.6c0,0-1.4-22.9-2-28.6c-0.5-5.1-2.2-27.6-16.3-34.7c-17.8-9-38.3-20.6-57.3-15.2
		c-15.4,4.3-20.6,57.5-20.4,61C118.3,131.5,165.9,165.2,213.9,142.6z"/>
	<linearGradient id="SVGID_5_" gradientUnits="userSpaceOnUse" x1="142.1987" y1="79.7037" x2="183.5282" y2="79.7037">
		<stop  offset="0" style="stop-color:#F5524E"/>
		<stop  offset="1" style="stop-color:#D0342F"/>
	</linearGradient>
	<path class="st4" d="M183.3,73c0,0,3.3,19.9-15.5,21.5c-13.1,1.1-10.2-9.5-10.2-9.5s-6.4,5.2-13.3,1.2c-6.8-4,4.3-19.9,9.5-21
		C158.9,64.2,171.1,64.4,183.3,73z"/>
	<circle vector-effect="non-scaling-stroke" class="st5" cx="187.4" cy="22.9" r="14.8"/>
	<path class="st5" d="M145.1,35.3c-2.4-3-3.7-6.6-3.9-10.4c-0.2-1.8-0.1-3.7,0.3-5.5c0.6-1.9,1.8-3.4,3.5-4.4
		c1.3-0.8,2.4-1.8,3.5-2.9c0,0,38.8-7.5,43.2,15.1l0,0c0.8,6.3,0.3,25.4-17,33.4c-17.6,8.1-9.4-20.7-9.4-20.7"/>
	<path class="st6" d="M154.5,67.5l23.1-11.3l-2,16.1c0,0-0.2,0.3-0.5,0.8c-4.2,3.9-10.7,5-17.1,4.6c-1.4-0.1-2.6-1.2-2.7-2.7
		C155.3,72.4,155,70,154.5,67.5z"/>
	<path class="st6" d="M144.4,31c0,0-1.3-7.6,7.1-8.9c2.3-0.3,4.5-0.4,5.8,1.8c1.7,2.7,1.9,5.7,4.4,8c2.5,2.2,6,2.7,9,1.4
		c0.1,2.5-0.3,4.4-3.4,5.2C164.4,39.4,146.8,35.9,144.4,31z"/>
	<path class="st5" d="M175.1,23.8c-9.2-3.3-18-5.2-27.8-3.9c-0.9,0-1.6,0.8-1.6,1.7c-0.7-3.9-1.7-13.8,6.3-16.8
		c10-3.8,26.8,1,31.4,10c2.3,4.5,3.4,9.4,3.2,14.4C183.3,26.6,179.1,25.3,175.1,23.8z"/>
	<path class="st7" d="M155.1,71.6l0.4,3.4c0,0,15.4-0.4,17.6-13L155.1,71.6z"/>
	<path class="st6" d="M144.3,30.3c0,0,0.1,14.9,0,20.4c-0.1,5.8,5.8,21.1,12,21.1c9.7,0,19.4-11.7,19.4-14.2c0,0,9.7-6,4.2-10.7
		c-5.5-4.6-5.9,3.2-5.9,3.2s-3-4.4-3.2-15.9C170.8,34.3,157.2,36.4,144.3,30.3z"/>
	<path class="st8" d="M130.6,136.7c-0.9-0.5-1.8-1.1-2.6-1.8c0.4-11.6,1.9-23.1,4.6-34.4c0.5-2,3.5-1.1,3,0.8
		c-2.8,11.7-4.3,23.6-4.6,35.6L130.6,136.7z"/>
	<path class="st8" d="M189.7,149.7c-0.4,0-0.9,0-1.3,0.1l-1.2-39.7c0-0.9,0.7-1.6,1.6-1.6c0.9,0,1.6,0.7,1.6,1.6l1.1,39.5
		C190.9,149.6,190.2,149.6,189.7,149.7z"/>
	<path class="st5" d="M178.2,61.1c-3.5-3.3-5.8-7.7-6.8-12.4c-1.2-7.4,8.7-4,10.3-0.9C183.3,51,182.8,59.4,178.2,61.1z"/>
	
		<linearGradient id="SVGID_6_" gradientUnits="userSpaceOnUse" x1="4.722399e-02" y1="299.3448" x2="1.0039" y2="299.6358" gradientTransform="matrix(122.103 0 0 -64.179 113.045 19475.3145)">
		<stop  offset="1" style="stop-color:#FFFFFF;stop-opacity:0"/>
		<stop  offset="1" style="stop-color:#FEF8FA;stop-opacity:2.901073e-02"/>
	</linearGradient>
	<path class="st9" d="M113,240.4l77.3,45.3l44.8-27.2l-63.3-36.9"/>
	<path class="st3" d="M325.9,229.6c0,0-1.5-23.6-2-29.4c-0.5-5.3-2.3-28.4-16.8-35.8c-18.3-9.3-39.4-21.3-58.9-15.7
		c-15.8,4.5-21.2,59.3-21,62.9C227.4,218.2,276.5,252.9,325.9,229.6z"/>
	<path class="st10" d="M288.4,167.2c0,1.3-1.5,3.1-2,4.2c-4.7,8.9-8.8,18.4-13.3,27.6c-4.4,8.9-5.2,34.1-5.7,35.7
		c0,0.2-18-6.5-18.1-6.4c-0.1,0.1-1.5-13-1.5-13.8c-0.2-14.3-1.3-21.6,1.3-32.7c1.9-7.8,5.3-13.1,7.1-20.9c0.9-3.7,1.5-8.2,3.3-11.6
		C261.6,145.4,288.4,158.8,288.4,167.2z"/>
	<path class="st8" d="M296.5,237.4c-0.5,0-1,0-1.5,0.1c0.1-9.9,0.2-19.7,0.1-29.6c0.1-0.8,0.8-1.5,1.6-1.5c0.8,0,1.5,0.6,1.6,1.5
		c0.1,9.8,0.1,19.6-0.1,29.3L296.5,237.4z"/>
	<path class="st8" d="M243,225L243,225c-0.1-0.1-0.2-0.1-0.3-0.2l-0.9-0.5l-1-0.6l-0.9-0.5c0-11.7,0.3-23.4,1-35.1
		c0.1-2.1,3.4-2.1,3.2,0c-0.7,12.1-1,24.1-1.1,36.2C243.1,224.6,243.1,224.9,243,225z"/>
	<path class="st3" d="M259.5,149.2c0,0-3.5,24-1.5,26.4l8.2-6.4l4.9,10.2l20.4-17.7L259.5,149.2z"/>
	<path class="st6" d="M255.9,112.4c0,0,0.1,15.3,0,21c-0.1,6,2.5,22.2,12.3,21.7c9.9-0.5,20-12,20-14.7c0,0,10-6.2,4.3-11
		c-5.6-4.8-6.1,3.3-6.1,3.3s-3.1-4.4-3.3-16.4C283.2,116.4,269.1,118.6,255.9,112.4z"/>
	<path class="st6" d="M287.8,156.4c-5,4.6-13.2,5.5-20.8,4.4c-1.2-0.1-2.1-1-2.3-2.1c-0.1-2.3-0.3-4.6-0.5-6.9l26-12.7l-2,16.6
		C288.2,155.5,288.1,155.9,287.8,156.4z"/>
	<path class="st11" d="M269.9,161.1c-1-0.1-2-0.2-3-0.3c-1.1-0.1-2-0.9-2.2-2.1c0-1.2-0.1-2.4-0.2-3.6c5.5,0,15.3-1.3,20.5-11.5
		C283.6,151.8,277.8,158.5,269.9,161.1z"/>
	<path class="st5" d="M321.7,155.1c-9.2-10.2-13.6-30.4-13.6-30.4h-0.1c-2.7-22.2-18.5-29-32.3-29.8c-13.9-0.8-24.4,4.5-25.1,13.8
		s5.5,13.3,5.5,13.3s23.5,6.8,25,3.9c1.5-2.9,1.9-16.3,3.2,1.3c0.5,5.8,0.3,11.6,0.3,17.4c0,7.1,0.6,14.2,1.7,21.1
		c0.9,5.2,1.6,11.1,6.7,13.9c7.7,4.3,18.8,4.3,26.4-0.4c2.7,13,4.6,26.2,5.8,39.5c0,0,16.2-1,18.1-25
		C343.2,193.8,330.9,165.3,321.7,155.1z"/>
	<linearGradient id="SVGID_7_" gradientUnits="userSpaceOnUse" x1="90.5679" y1="207.812" x2="189.334" y2="207.812">
		<stop  offset="0" style="stop-color:#F5524E"/>
		<stop  offset="1" style="stop-color:#D0342F"/>
	</linearGradient>
	<path class="st12" d="M189.3,245c0,0-1.5-23.6-2-29.4c-0.5-5.3-2.3-28.4-16.8-35.8c-18.3-9.3-39.4-21.3-58.9-15.7
		c-15.8,4.5-21.2,59.3-21,62.9C90.9,233.6,139.9,268.3,189.3,245z"/>
	<path class="st5" d="M120.2,132.9c0,0-3.9-3.2-6.1-10.5c0,0,1.5-18,9.5-19l10.4,3.1c0,0,29.7-5.3,34.2,18l0,0
		c0.8,6.5,4.4,30.2-14.9,35.3c-19.3,5.2-12.4-22.2-12.4-22.2"/>
	<path class="st6" d="M119.4,127.8c0,0,0.1,15.3,0,21c-0.1,6,2.5,22.2,12.3,21.7c9.9-0.5,20-12,20-14.7c0,0,10-6.2,4.3-11
		c-5.6-4.8-6.1,3.3-6.1,3.3s-3.1-4.4-3.3-16.4C146.7,131.8,132.6,134,119.4,127.8z"/>
	<path class="st6" d="M151.2,171.7c-5,4.6-13.2,5.5-20.8,4.4c-1.2-0.1-2.1-1-2.3-2.1c-0.1-2.3-0.3-4.6-0.5-6.9l26-12.7l-2,16.6
		C151.6,170.9,151.5,171.3,151.2,171.7z"/>
	<path class="st11" d="M133.4,176.5c-1-0.1-2-0.2-3-0.3c-1.1-0.1-2-0.9-2.2-2.1c0-1.2-0.1-2.4-0.2-3.6c5.5,0,15.3-1.3,20.5-11.5
		C147.1,167.2,141.3,173.9,133.4,176.5L133.4,176.5z"/>
	<path class="st13" d="M153.6,166.4c-2.1,1.4-4.3,2.7-6.5,4c-3.1,1.9-6.3,3.5-9.7,4.7c-2.8,1-7.7,2.3-9.3-1.2
		c-0.2-0.6-0.2-1.3-0.1-1.9c0-0.8,0-1.6-0.1-2.4l0,0c-1.3-0.5-2.5-1.4-3.4-2.5c-0.1-0.1-0.1-0.2-0.1-0.3l0,0c0,0-6.8,19.6-5.8,20.5
		l9.3-3.9c0,0,3.5,7.2,4.9,7.9c0,0,19.4-15.1,21.8-19.6L153.6,166.4z"/>
	<path class="st14" d="M121,186.5c-0.4,0.2-1.3,4.3,0,8.3c0,0,3.4,1.5,4,1.3c0.6-0.2,6.1-6.4,5.9-6.8c-0.2-0.3-3.4-6.1-3.4-6.1
		L121,186.5z"/>
	<path class="st14" d="M121,194.8c0,0-12,46.9-11.2,47.3c0,0,11.3,5.8,15,6l0.3-52"/>
	<ellipse vector-effect="non-scaling-stroke" class="st15" cx="121.6" cy="144" rx="5.2" ry="7"/>
	<ellipse vector-effect="non-scaling-stroke" class="st15" cx="136.1" cy="147.3" rx="5.7" ry="7"/>
	<defs>
		<filter id="Adobe_OpacityMaskFilter" filterUnits="userSpaceOnUse" x="126.6" y="145" width="3.9" height="2">
			<feColorMatrix  type="matrix" values="1 0 0 0 0  0 1 0 0 0  0 0 1 0 0  0 0 0 1 0"/>
		</filter>
	</defs>
	<mask maskUnits="userSpaceOnUse" x="126.6" y="145" width="3.9" height="2" id="_mask_9qcq69vHf1lL1QBhMrjyUSOLmNeXLKzT_1_">
		<rect x="-800" y="-600" class="st16" width="1600" height="1200"/>
		<line class="st17" x1="126.7" y1="145.7" x2="130.4" y2="146.2"/>
	</mask>
	<line vector-effect="non-scaling-stroke" class="st18" x1="126.7" y1="145.7" x2="130.4" y2="146.2"/>
	<defs>
		<filter id="Adobe_OpacityMaskFilter_1_" filterUnits="userSpaceOnUse" x="141.6" y="144.6" width="8.5" height="3.5">
			<feColorMatrix  type="matrix" values="1 0 0 0 0  0 1 0 0 0  0 0 1 0 0  0 0 0 1 0"/>
		</filter>
	</defs>
	<mask maskUnits="userSpaceOnUse" x="141.6" y="144.6" width="8.5" height="3.5" id="_mask_tae7qUITTVHxhdQ6JajuXmZ9j2v07Fl6_1_">
		<rect x="-800" y="-600" class="st19" width="1600" height="1200"/>
		<line class="st17" x1="141.8" y1="147.3" x2="149.9" y2="145.3"/>
	</mask>
	<line vector-effect="non-scaling-stroke" class="st20" x1="141.8" y1="147.3" x2="149.9" y2="145.3"/>
</g>
</svg>
