<?xml version="1.0" encoding="utf-8"?>
<!-- Generator: Adobe Illustrator 24.0.1, SVG Export Plug-In . SVG Version: 6.00 Build 0)  -->
<svg version="1.1" id="Capa_1" xmlns="http://www.w3.org/2000/svg" xmlns:xlink="http://www.w3.org/1999/xlink" x="0px" y="0px"
	 viewBox="0 0 512 512" style="enable-background:new 0 0 512 512;" xml:space="preserve">
<style type="text/css">
	.st0{fill:#E7889D;}
	.st1{fill:#E16E7E;}
	.st2{fill:url(#SVGID_1_);}
	.st3{fill:url(#SVGID_2_);}
	.st4{fill:url(#SVGID_3_);}
	.st5{fill:#CDE9FA;}
	.st6{fill:#FFFFFF;}
	.st7{fill:#D8D8D8;}
	.st8{fill:#59636F;}
	.st9{fill:#FBF1CF;}
	.st10{fill:#FAE0BD;}
</style>
<path class="st0" d="M446.6,283.9l-36.9-15.5v136.7l36.9-15.5c10.1-4.3,16.7-14.2,16.7-25.1v-55.4
	C463.3,298.1,456.7,288.2,446.6,283.9z"/>
<path class="st1" d="M439.7,281l-30-12.6v136.7l30-12.6V281z"/>
<linearGradient id="SVGID_1_" gradientUnits="userSpaceOnUse" x1="235.4615" y1="504.5" x2="235.4615" y2="46.311">
	<stop  offset="0" style="stop-color:#F5524E"/>
	<stop  offset="1" style="stop-color:#D0342F"/>
</linearGradient>
<path class="st2" d="M350.5,504.5H91.1c-16.5,0-29.9-13.4-29.9-29.9V76.2c0-16.5,13.4-29.9,29.9-29.9h259.3
	c32.7,0,59.2,26.5,59.2,59.2v339.8C409.7,478,383.2,504.5,350.5,504.5L350.5,504.5z"/>
<linearGradient id="SVGID_2_" gradientUnits="userSpaceOnUse" x1="61.234" y1="275.4055" x2="262.9" y2="275.4055">
	<stop  offset="0" style="stop-color:#F5524E"/>
	<stop  offset="1" style="stop-color:#D0342F"/>
</linearGradient>
<path class="st3" d="M91.1,46.3c-16.5,0-29.9,13.4-29.9,29.9v398.4c0,16.5,13.4,29.9,29.9,29.9h171.8
	C122.8,425.4,137.8,186.1,138.1,46.3L91.1,46.3z"/>
<linearGradient id="SVGID_3_" gradientUnits="userSpaceOnUse" x1="252.69" y1="149.068" x2="409.689" y2="149.068">
	<stop  offset="0" style="stop-color:#F5524E"/>
	<stop  offset="1" style="stop-color:#D0342F"/>
</linearGradient>
<path class="st4" d="M350.5,46.3h-97.8V191c0,33.5,27.3,60.8,60.8,60.8h96.2V105.5C409.7,72.8,383.2,46.3,350.5,46.3z"/>
<ellipse class="st5" cx="235.5" cy="198.5" rx="58.2" ry="58.2"/>
<ellipse class="st6" cx="235.5" cy="198.5" rx="58.2" ry="58.2"/>
<path class="st7" d="M252.7,143v48c0,19.8,9.5,37.4,24.1,48.5c10.4-10.5,16.8-25,16.8-40.9C293.6,172.4,276.4,150.3,252.7,143
	L252.7,143z"/>
<g>
	<path class="st8" d="M81.7,88.9h-41c-14.2,0-25.8,11.5-25.8,25.8c0,14.2,11.5,25.8,25.8,25.8h41c14.2,0,25.8-11.5,25.8-25.8
		C107.5,100.4,95.9,88.9,81.7,88.9z"/>
	<path class="st8" d="M81.7,196.1h-41c-14.2,0-25.8,11.5-25.8,25.8c0,14.2,11.5,25.8,25.8,25.8h41c14.2,0,25.8-11.5,25.8-25.8
		C107.5,207.6,95.9,196.1,81.7,196.1z"/>
	<path class="st8" d="M81.7,303.2h-41C26.5,303.2,15,314.8,15,329c0,14.2,11.5,25.8,25.8,25.8h41c14.2,0,25.8-11.5,25.8-25.8
		C107.5,314.8,95.9,303.2,81.7,303.2z"/>
	<path class="st8" d="M81.7,410.4h-41c-14.2,0-25.8,11.5-25.8,25.8c0,14.2,11.5,25.8,25.8,25.8h41c14.2,0,25.8-11.5,25.8-25.8
		C107.5,421.9,95.9,410.4,81.7,410.4z"/>
</g>
<path class="st9" d="M466.2,7.5H313.5c-17,0-30.8,13.8-30.8,30.8V191c0,17,13.8,30.8,30.8,30.8h152.7c17,0,30.8-13.8,30.8-30.8V38.3
	C497,21.3,483.2,7.5,466.2,7.5z"/>
<path class="st10" d="M313.5,7.5c-17,0-30.8,13.8-30.8,30.8V191c0,17,13.8,30.8,30.8,30.8h58C321.1,173.2,323.1,39,328,7.5H313.5z"
	/>
<path class="st6" d="M455.2,221.8c0-36.1-29.3-65.3-65.3-65.3s-65.3,29.3-65.3,65.3H455.2z"/>
<ellipse class="st6" cx="389.8" cy="120.3" rx="47.2" ry="47.2"/>
<path d="M308.3,329c0-4.1-3.4-7.5-7.5-7.5H170.1c-4.1,0-7.5,3.4-7.5,7.5c0,4.1,3.4,7.5,7.5,7.5h130.6
	C304.9,336.5,308.3,333.1,308.3,329z M200.3,379.8c-4.1,0-7.5,3.4-7.5,7.5c0,4.1,3.4,7.5,7.5,7.5h70.4c4.1,0,7.5-3.4,7.5-7.5
	c0-4.1-3.4-7.5-7.5-7.5H200.3z M484,4.4c-3.7-1.9-8.2-0.5-10.1,3.2c-1.9,3.7-0.5,8.2,3.2,10.1c7.7,4,12.5,12,12.5,20.7V191
	c0,12.9-10.5,23.3-23.3,23.3h-3.9c-2.3-22.8-15.1-42.9-34.5-54.7c10.3-10,16.8-23.9,16.8-39.4c0-30.2-24.6-54.7-54.7-54.7
	s-54.7,24.6-54.7,54.7c0,15.5,6.5,29.4,16.8,39.4c-19.4,11.8-32.2,31.9-34.5,54.7h-3.9c-12.9,0-23.3-10.5-23.3-23.3V38.3
	c0-12.9,10.5-23.3,23.3-23.3h132c4.1,0,7.5-3.4,7.5-7.5S449.6,0,445.5,0h-132c-21.1,0-38.3,17.2-38.3,38.3v0.5h-184
	c-20.6,0-37.4,16.8-37.4,37.4v5.2h-13c-18.3,0-33.3,14.9-33.3,33.3c0,18.3,14.9,33.3,33.3,33.3h13v40.6h-13
	c-18.3,0-33.3,14.9-33.3,33.3c0,18.3,14.9,33.3,33.3,33.3h13v40.6h-13c-18.3,0-33.3,14.9-33.3,33.3c0,18.3,14.9,33.3,33.3,33.3h13
	v40.6h-13c-18.3,0-33.3,14.9-33.3,33.3c0,18.3,14.9,33.3,33.3,33.3h13v5.2c0,20.6,16.8,37.4,37.4,37.4h39.4c4.1,0,7.5-3.4,7.5-7.5
	s-3.4-7.5-7.5-7.5H91.1c-12.4,0-22.4-10.1-22.4-22.4v-5.2h13c18.3,0,33.3-14.9,33.3-33.3c0-18.3-14.9-33.3-33.3-33.3h-13v-40.6h13
	c18.3,0,33.3-14.9,33.3-33.3c0-18.3-14.9-33.3-33.3-33.3h-13v-40.6h13c18.3,0,33.3-14.9,33.3-33.3c0-18.3-14.9-33.3-33.3-33.3h-13
	v-40.6h13c18.3,0,33.3-14.9,33.3-33.3c0-18.3-14.9-33.3-33.3-33.3h-13v-5.2c0-12.4,10.1-22.4,22.4-22.4h184v92.5
	c-11.3-8.6-25.3-13.4-39.7-13.4c-36.2,0-65.7,29.5-65.7,65.7s29.5,65.7,65.7,65.7c26.5,0,49.9-15.7,60.2-39.4
	c5.3,2.8,11.4,4.4,17.8,4.4h88.7v175.8v0.1v40.1c0,28.5-23.2,51.7-51.7,51.7H167c-4.1,0-7.5,3.4-7.5,7.5s3.4,7.5,7.5,7.5h183.5
	c36.8,0,66.7-29.9,66.7-66.7v-35.2l32.3-13.6c12.9-5.4,21.3-18,21.3-32v-55.4c0-14-8.4-26.6-21.3-32.1l-32.3-13.6v-34.1h49
	c21.1,0,38.3-17.2,38.3-38.3V38.3C504.5,24,496.6,11,484,4.4L484,4.4z M81.7,417.9c10.1,0,18.3,8.2,18.3,18.3s-8.2,18.3-18.3,18.3
	h-41c-10.1,0-18.3-8.2-18.3-18.3c0-10.1,8.2-18.3,18.3-18.3H81.7z M81.7,310.7c10.1,0,18.3,8.2,18.3,18.3c0,10.1-8.2,18.3-18.3,18.3
	h-41c-10.1,0-18.3-8.2-18.3-18.3c0-10.1,8.2-18.3,18.3-18.3H81.7z M81.7,203.6c10.1,0,18.3,8.2,18.3,18.3s-8.2,18.3-18.3,18.3h-41
	c-10.1,0-18.3-8.2-18.3-18.3c0-10.1,8.2-18.3,18.3-18.3H81.7z M81.7,96.4c10.1,0,18.3,8.2,18.3,18.3s-8.2,18.3-18.3,18.3h-41
	c-10.1,0-18.3-8.2-18.3-18.3c0-10.1,8.2-18.3,18.3-18.3L81.7,96.4z M235.5,249.3c-27.9,0-50.7-22.7-50.7-50.7
	c0-27.9,22.7-50.7,50.7-50.7c15.5,0,30.1,7.2,39.7,19.3V191c0,9,3.1,17.2,8.3,23.8C276.6,235.3,257.4,249.3,235.5,249.3L235.5,249.3
	z M350.1,120.2c0-21.9,17.8-39.7,39.7-39.7c21.9,0,39.7,17.8,39.7,39.7c0,21.9-17.8,39.7-39.7,39.7
	C367.9,159.9,350.1,142.1,350.1,120.2z M443.7,290.8c7.4,3.1,12.1,10.2,12.1,18.2v55.4c0,8-4.8,15.1-12.1,18.2l-26.5,11.1V279.7
	L443.7,290.8z M332.5,214.3c2.5-19.7,14.9-36.7,33.2-45c15.2,7.5,33.1,7.6,48.4,0c18.3,8.4,30.6,25.3,33.2,45H332.5z"/>
</svg>
