<?xml version="1.0" encoding="utf-8"?>
<!-- Generator: Adobe Illustrator 24.0.1, SVG Export Plug-In . SVG Version: 6.00 Build 0)  -->
<svg version="1.1" id="Capa_1" xmlns="http://www.w3.org/2000/svg" xmlns:xlink="http://www.w3.org/1999/xlink" x="0px" y="0px"
	 viewBox="0 0 512 512" style="enable-background:new 0 0 512 512;" xml:space="preserve">
<style type="text/css">
	.st0{fill:#E01C22;}
	.st1{fill:#BFBFBF;}
</style>
<g>
	<path class="st0" d="M456.5,269.7v77.7c0,16.1-13.1,29.2-29.2,29.2h-14.5v-53.4h-14.3c10.5,0,20.5-4.8,26.9-13.2L456.5,269.7z"/>
	<path class="st0" d="M456.5,182.3v87.4L425.4,310c-6.4,8.4-16.4,13.2-26.9,13.2h-53.7c-24.1,0-43.7-19.6-43.7-43.7
		c0-12,4.9-23,12.9-30.9c7.8-7.9,18.8-12.9,30.9-12.9h53.7c5.1,0,10.1-1.1,14.5-3.3c4.8-2.2,9-5.6,12.3-9.9L456.5,182.3z"/>
	<path class="st0" d="M425.4,222.5c-3.3,4.3-7.6,7.6-12.3,9.9l-0.3-0.6v-59.3c0-16.1-13.1-29.2-29.2-29.2H116.4v-9.7
		c0-16.1,13.1-29.2,29.2-29.2h281.8c16.1,0,29.2,13.1,29.2,29.2v48.6L425.4,222.5z"/>
</g>
<path class="st1" d="M412.8,231.8l0.3,0.6c-4.5,2.1-9.5,3.3-14.5,3.3h-53.8c-12,0-23,4.9-30.9,12.9c-7.9,7.8-12.9,18.8-12.9,30.9
	c0,24.1,19.6,43.7,43.7,43.7h53.7h14.4v53.4v9.7c0,16.1-13.1,29.2-29.2,29.2H101.8c-16.1,0-29.2-13.1-29.2-29.2V172.6
	c0-16.1,13.1-29.2,29.2-29.2h14.5h267.3c16.1,0,29.2,13.1,29.2,29.2V231.8z"/>
<path d="M427.4,95H145.6c-21.3,0-38.5,17.4-38.5,38.7v0.5h-5.2c-21.3,0-38.6,17.2-38.6,38.4v213.8c0,21.3,17.3,38.7,38.6,38.7h281.8
	c21.3,0,38.5-17.4,38.5-38.7v-0.5h5.2c21.3,0,38.6-17.2,38.6-38.4V133.7C466,112.4,448.6,95,427.4,95z M447.3,266.5l-29.2,37.8
	c-4.6,6-11.9,9.7-19.6,9.7h-53.8c-19,0-34.4-15.6-34.4-34.5c0-9.2,3.5-17.9,10.2-24.3c6.4-6.5,15.1-10.1,24.3-10.1h53.7
	c6.5,0,12.8-1.5,18.6-4.2c6.2-2.9,11.7-7.3,15.8-12.7l14.4-18.6V266.5z M125.7,133.7c0-10.9,8.9-20,19.9-20h281.8
	c10.9,0,19.9,9,19.9,20v45.4l-25.2,32.4v-39c0-21.3-17.2-38.4-38.5-38.4H125.7V133.7z M403.5,386.3c0,10.9-8.9,20-19.9,20H101.8
	c-10.9,0-19.9-9-19.9-20V172.6c0-10.9,9-19.8,19.9-19.8h281.8c10.9,0,19.9,8.8,19.9,19.8v53.3c-1.9,0.4-3.3,0.6-4.9,0.6h-53.8
	c-14.2,0-27.5,5.5-37.5,15.5c-10.1,10-15.6,23.4-15.6,37.6c0,29.3,23.8,53.1,53,53.1h53.7c1.7,0,3.1-0.3,4.9-0.6L403.5,386.3
	L403.5,386.3L403.5,386.3z M427.4,367.2h-5.2v-41.8c3.7-2.6,7.7-6,10.7-9.8l14.4-18.6v50.4C447.3,358.4,438.3,367.2,427.4,367.2z"/>
<path d="M365.7,270.3h-22.4c-5.1,0-9.3,4.2-9.3,9.3c0,5.1,4.2,9.3,9.3,9.3h22.4c5.1,0,9.3-4.2,9.3-9.3
	C375,274.4,370.8,270.3,365.7,270.3z"/>
</svg>
