<?xml version="1.0" encoding="utf-8"?>
<!-- Generator: Adobe Illustrator 24.0.1, SVG Export Plug-In . SVG Version: 6.00 Build 0)  -->
<svg version="1.1" id="Layer_1" xmlns="http://www.w3.org/2000/svg" xmlns:xlink="http://www.w3.org/1999/xlink" x="0px" y="0px"
	 viewBox="0 0 512 512" style="enable-background:new 0 0 512 512;" xml:space="preserve">
<style type="text/css">
	.st0{fill:#DDDDDD;}
	.st1{fill:#BCBCBC;}
	.st2{fill:#EDEDED;}
	.st3{fill:url(#SVGID_1_);}
	.st4{fill:url(#SVGID_2_);}
	.st5{fill:#FF7C87;}
</style>
<path class="st0" d="M477.8,189.5v279.8c0,18.8-15.3,34.1-34.1,34.1H68.3c-18.8,0-34.1-15.3-34.1-34.1c0-264.5,0-215,0.1-279.8
	H477.8z"/>
<path class="st1" d="M477.8,189.5v64.6c0,14-11.2,25.6-25.2,25.6c-0.2,0-393,0-393.3,0c-14-0.1-25.2-11.6-25.2-25.6
	c0-18.6,0-5.6,0.1-64.6H477.8z"/>
<path class="st2" d="M342.4,350.9v152.5H169.6V350.9c0-18.8,15.3-34.1,34.1-34.1h104.5C327.1,316.8,342.4,332.1,342.4,350.9z"/>
<linearGradient id="SVGID_1_" gradientUnits="userSpaceOnUse" x1="8.5484" y1="129.9603" x2="503.4055" y2="129.9603">
	<stop  offset="0" style="stop-color:#F5524E"/>
	<stop  offset="1" style="stop-color:#D0342F"/>
</linearGradient>
<path class="st3" d="M503.4,189.5c0,34.1-27.7,61.9-61.9,61.9c-34.2,0-61.9-27.7-61.9-61.9c0,34.2-27.7,61.9-61.9,61.9
	S256,223.6,256,189.5c0,34.2-27.7,61.9-61.9,61.9s-61.9-27.7-61.9-61.9c-0.1,33.9-28,61.9-61.9,61.9c-33.8,0-61.8-27.9-61.9-61.9
	c0-53.8-0.1-50.4,0.4-52.9c0.5-2.4-3,6.2,50.6-117.7c2.7-6.2,8.9-10.3,15.7-10.3h361.5c6.8,0,12.9,4,15.7,10.3
	c53.7,123.9,50.1,115.3,50.6,117.7C503.5,139,503.4,135.7,503.4,189.5z"/>
<linearGradient id="SVGID_2_" gradientUnits="userSpaceOnUse" x1="8.5676" y1="193.9455" x2="503.4055" y2="193.9455">
	<stop  offset="0" style="stop-color:#F5524E"/>
	<stop  offset="1" style="stop-color:#D0342F"/>
</linearGradient>
<path class="st4" d="M503.4,189.5c0,34.1-27.7,61.9-61.9,61.9c-34.2,0-61.9-27.7-61.9-61.9c0,34.2-27.7,61.9-61.9,61.9
	S256,223.6,256,189.5c0,34.2-27.7,61.9-61.9,61.9s-61.9-27.7-61.9-61.9c-0.1,33.9-28,61.9-61.9,61.9c-33.8,0-61.8-27.9-61.9-61.9
	v-49.4c0-1.2,0.1-2.4,0.4-3.5H503C503.5,139,503.4,135.7,503.4,189.5L503.4,189.5z"/>
<path class="st5" d="M432.1,54.2C323.8,39.3,214.5,58.4,126.1,125c-10,7.5-22.1,11.5-34.5,11.5H8.9c0.5-2.4-3,6.2,50.6-117.7
	c2.7-6.2,8.9-10.3,15.7-10.3h361.5c6.8,0,12.9,4,15.7,10.3l2.4,5.5C461.4,39.7,448.7,56.5,432.1,54.2z"/>
<path d="M486.3,289.1v180.2c0,23.5-19.1,42.7-42.7,42.7H68.3c-23.5,0-42.7-19.1-42.7-42.7V289.1c0-4.7,3.8-8.5,8.5-8.5
	s8.5,3.8,8.5,8.5v180.2c0,14.1,11.5,25.6,25.6,25.6h92.8v-144c0-23.5,19.1-42.7,42.7-42.7h104.5c23.5,0,42.7,19.1,42.7,42.7v109.8
	c0,4.7-3.8,8.5-8.5,8.5c-4.7,0-8.5-3.8-8.5-8.5V350.9c0-14.1-11.5-25.6-25.6-25.6H203.7c-14.1,0-25.6,11.5-25.6,25.6v144h69.3V360.5
	c0-4.7,3.8-8.5,8.5-8.5s8.5,3.8,8.5,8.5v134.4h179.2c14.1,0,25.6-11.5,25.6-25.6V289.1c0-4.7,3.8-8.5,8.5-8.5
	S486.3,284.3,486.3,289.1z M55.5,136.6c0,4.7,3.8,8.5,8.5,8.5c464.2,0,441.2,0.8,444.6-1.8c1.8-1.4,2.9-3.3,3.2-5.6
	c0.5-3.4,3.5,5-56.1-132.5c-1.4-3.1-4.4-5.1-7.8-5.1H64c-3.4,0-6.5,2-7.8,5.1l-55.5,128c-1,2.3-0.7-1.3-0.7,56.3
	c0.1,38.8,31.6,70.4,70.4,70.4c26.6,0,49.9-14.9,61.8-36.9c26.7,49,97,49.1,123.7,0c26.7,49,97,49,123.7,0
	c11.9,21.9,35.2,36.8,61.9,36.8c38.8,0,70.4-31.6,70.4-70.4c0-4.7-3.8-8.5-8.5-8.5c-4.7,0-8.5,3.8-8.5,8.5
	c0,29.4-23.9,53.3-53.3,53.3c-29.4,0-53.3-23.9-53.3-53.3c0-4.7-3.8-8.5-8.5-8.5c-4.7,0-8.5,3.8-8.5,8.5c0,29.4-23.9,53.3-53.3,53.3
	s-53.3-23.9-53.3-53.3c0-4.7-3.8-8.5-8.5-8.5s-8.5,3.8-8.5,8.5c0,29.4-23.9,53.3-53.3,53.3c-28.7,0-53.3-23.1-53.3-53.7
	c0-4.7-3.8-8.5-8.5-8.5s-8.5,3.8-8.5,8.5c0,30.4-24.4,53.7-53.3,53.7c-29.4,0-53.3-23.9-53.3-53.3v-51.1L69.6,17.1h372.7L490.4,128
	H64C59.3,128,55.5,131.8,55.5,136.6L55.5,136.6z"/>
</svg>
