<svg width="147" height="147" viewBox="0 0 147 147" fill="none"
    xmlns="http://www.w3.org/2000/svg">
    <path d="M8.67693 60.8687L0.543695 80.9459C-0.991766 84.7363 0.836259 89.0536 4.62639 90.5891L8.67693 92.2299V60.8687Z" fill="#E7A561"/>
    <path d="M81.6251 31.8017L35.9386 13.2941C32.1482 11.7586 27.8309 13.5866 26.2954 17.3768L20.4519 31.8017H81.6251Z" fill="#E7A561"/>
    <path d="M22.613 26.4672L20.4519 31.8017H81.6251L68.4563 26.4672H22.613Z" fill="#E49542"/>
    <path d="M65.3748 115.198L111.061 133.706C114.852 135.241 119.169 133.413 120.704 129.623L126.548 115.198H65.3748Z" fill="#E7A561"/>
    <path d="M124.387 120.533L126.548 115.198H65.3748L78.5436 120.533H124.387Z" fill="#E49542"/>
    <path d="M142.373 56.411L138.323 54.7701V86.1314L146.456 66.0541C147.992 62.2637 146.164 57.9464 142.373 56.411V56.411Z" fill="#E7A561"/>
    <path d="M130.918 115.198H16.0817C11.9921 115.198 8.67688 111.883 8.67688 107.794V39.2066C8.67688 35.117 11.9921 31.8018 16.0817 31.8018H130.918C135.008 31.8018 138.323 35.117 138.323 39.2066V107.794C138.323 111.883 135.008 115.198 130.918 115.198V115.198Z" fill="#80B4FB"/>
    <path d="M130.918 109.864H16.0817C11.9921 109.864 8.67688 106.548 8.67688 102.459V107.794C8.67688 111.883 11.9921 115.198 16.0817 115.198H130.918C135.008 115.198 138.323 111.883 138.323 107.794V102.459C138.323 106.548 135.008 109.864 130.918 109.864V109.864Z" fill="#61A2F9"/>
    <path d="M111.412 101.876V104.008C111.412 105.235 112.407 106.231 113.634 106.231C114.862 106.231 115.857 105.235 115.857 104.008V101.937C117.533 101.581 118.681 100.819 119.416 100.127C120.866 98.7622 121.733 96.7019 121.733 94.6155C121.733 92.9069 121.201 91.3603 120.194 90.1426C118.844 88.5104 116.724 87.5242 113.894 87.2118C111.255 86.9207 110.861 85.5606 110.861 84.776C110.861 84.3129 110.995 82.0028 113.634 82.0028C115.334 82.0028 116.069 83.0163 116.251 83.3189C116.584 84.1288 117.381 84.6996 118.311 84.6996C119.986 84.6996 120.952 82.9574 120.311 81.4903C119.782 80.3407 118.325 78.5693 115.857 77.865V75.6907C115.857 74.463 114.862 73.4679 113.634 73.4679C112.407 73.4679 111.412 74.463 111.412 75.6907V77.8589C109.898 78.2936 108.636 79.1891 107.75 80.484C106.512 82.2936 106.416 84.2267 106.416 84.776C106.416 87.5822 108.247 91.0611 113.407 91.6304C117.287 92.0588 117.287 93.9161 117.287 94.6155C117.287 95.2974 117.046 96.2532 116.37 96.8897C115.726 97.4955 114.728 97.7625 113.404 97.6813C110.599 97.5104 109.963 95.7631 109.9 95.5644L109.899 95.5647C109.658 94.5946 108.784 93.8748 107.74 93.8748C106.211 93.8748 105.12 95.445 105.654 96.8788C105.881 97.5908 107.155 100.909 111.412 101.876V101.876Z" fill="#F9EF63"/>
    <path d="M138.323 63.6402H66.6902C69.9216 61.9103 72.4066 59.716 73.5068 57.1274C75.2762 52.9646 72.8631 49.5655 71.267 47.91C69.1889 45.7541 66.6626 44.8302 63.9675 45.2373C58.4906 46.0648 53.2058 52.4191 49.6841 57.7088V31.8018H45.2472V57.7088C41.7252 52.4191 36.4404 46.0645 30.9635 45.2373C28.2658 44.8299 25.7421 45.7544 23.6643 47.91C22.0682 49.5655 19.6554 52.9643 21.4245 57.1274C22.5247 59.716 25.0094 61.9106 28.2408 63.6402H8.67688V68.0772H40.1742C35.0525 72.1237 28.219 79.1231 25.3378 89.2087C25.0013 90.387 25.6835 91.6147 26.8615 91.9512C27.0651 92.0095 27.2704 92.037 27.4722 92.037C28.4378 92.037 29.3258 91.4019 29.6043 90.4272C32.5968 79.9511 40.687 73.0499 45.2472 69.8653V115.198H49.6841V69.8659C54.2443 73.0505 62.3342 79.9517 65.3267 90.4278C65.6052 91.4022 66.4935 92.0376 67.4588 92.0376C67.6603 92.0376 67.8659 92.0097 68.0695 91.9517C69.2475 91.6153 69.9297 90.3873 69.5932 89.2093C66.7117 79.1237 59.8785 72.124 54.7568 68.0777H138.323V63.6402H138.323ZM25.5081 55.3918C25.128 54.4978 24.8546 53.0685 26.8587 50.9896C27.9706 49.836 28.9614 49.5787 29.7214 49.5787C29.933 49.5787 30.1265 49.5985 30.2997 49.6246C32.9821 50.0289 36.5236 53.1294 40.2727 58.3548C41.575 60.1702 42.7091 61.9732 43.5839 63.449C35.0815 62.6181 27.13 59.2086 25.5081 55.3918V55.3918ZM51.3462 63.449C52.2127 61.9873 53.3347 60.2032 54.6267 58.3993C58.387 53.1472 61.9397 50.0312 64.6305 49.6246C64.8042 49.5982 64.9983 49.5784 65.2099 49.5784C65.9701 49.5784 66.961 49.8362 68.0729 50.9893C70.077 53.0682 69.8033 54.4975 69.4232 55.3915C67.801 59.2086 59.8487 62.6181 51.3462 63.449V63.449Z" fill="#F9EF63"/>
</svg>
