<?xml version="1.0" encoding="utf-8"?>
<!-- Generator: Adobe Illustrator 24.0.1, SVG Export Plug-In . SVG Version: 6.00 Build 0)  -->
<svg version="1.1" id="Layer_1" xmlns="http://www.w3.org/2000/svg" xmlns:xlink="http://www.w3.org/1999/xlink" x="0px" y="0px"
	 viewBox="0 0 512 512" style="enable-background:new 0 0 512 512;" xml:space="preserve">
<style type="text/css">
	.st0{fill:#3CAADC;}
	.st1{fill:url(#SVGID_1_);}
	.st2{fill:#FFFFFF;}
	.st3{fill:#EDF4FC;}
	.st4{fill:url(#SVGID_2_);}
	.st5{fill:url(#SVGID_3_);}
	.st6{fill:#F5C84C;}
	.st7{fill:#FC657E;}
	.st8{fill:#FC8C48;}
	.st9{fill:#87D147;}
	.st10{fill:#70D6F9;}
</style>
<path class="st0" d="M147.7,254.8H421c6.3,0,11.5,5.2,11.5,11.5v158.6c0,6.3-5.2,11.5-11.5,11.5H147.7c-6.3,0-11.5-5.2-11.5-11.5
	V266.3C136.2,260,141.4,254.8,147.7,254.8z"/>
<linearGradient id="SVGID_1_" gradientUnits="userSpaceOnUse" x1="136.2214" y1="345.6173" x2="432.5241" y2="345.6173">
	<stop  offset="0" style="stop-color:#F5524E"/>
	<stop  offset="1" style="stop-color:#D0342F"/>
</linearGradient>
<path class="st1" d="M147.7,254.8H421c6.3,0,11.5,5.2,11.5,11.5v158.6c0,6.3-5.2,11.5-11.5,11.5H147.7c-6.3,0-11.5-5.2-11.5-11.5
	V266.3C136.2,260,141.4,254.8,147.7,254.8z"/>
<path class="st2" d="M136.2,335.1v89.9c0,6.3,5.2,11.5,11.5,11.5h87.6C188.1,420,151.5,382.5,136.2,335.1z"/>
<g>
	<g>
		<path class="st2" d="M226.2,352.4h8.8c1.6,0,2.9,1.3,2.9,2.9v8.8c0,1.6-1.3,2.9-2.9,2.9h-8.8c-1.6,0-2.9-1.3-2.9-2.9v-8.9
			C223.3,353.6,224.6,352.4,226.2,352.4L226.2,352.4z"/>
		<path class="st2" d="M250.5,352.4h8.8c1.6,0,2.9,1.3,2.9,2.9v8.8c0,1.6-1.3,2.9-2.9,2.9h-8.8c-1.6,0-2.9-1.3-2.9-2.9v-8.9
			C247.6,353.6,248.9,352.4,250.5,352.4L250.5,352.4z"/>
		<path class="st2" d="M274.8,352.4h8.8c1.6,0,2.9,1.3,2.9,2.9v8.8c0,1.6-1.3,2.9-2.9,2.9h-8.8c-1.6,0-2.9-1.3-2.9-2.9v-8.9
			C271.9,353.6,273.2,352.4,274.8,352.4L274.8,352.4z"/>
		<path class="st2" d="M299.1,352.4h8.8c1.6,0,2.9,1.3,2.9,2.9v8.8c0,1.6-1.3,2.9-2.9,2.9h-8.8c-1.6,0-2.9-1.3-2.9-2.9v-8.9
			C296.2,353.6,297.5,352.4,299.1,352.4L299.1,352.4z"/>
	</g>
	<g>
		<path class="st2" d="M331.6,352.4h8.8c1.6,0,2.9,1.3,2.9,2.9v8.8c0,1.6-1.3,2.9-2.9,2.9h-8.8c-1.6,0-2.9-1.3-2.9-2.9v-8.9
			C328.7,353.6,330,352.4,331.6,352.4L331.6,352.4z"/>
		<path class="st2" d="M355.9,352.4h8.8c1.6,0,2.9,1.3,2.9,2.9v8.8c0,1.6-1.3,2.9-2.9,2.9h-8.8c-1.6,0-2.9-1.3-2.9-2.9v-8.9
			C353,353.6,354.3,352.4,355.9,352.4L355.9,352.4z"/>
		<path class="st2" d="M380.2,352.4h8.8c1.6,0,2.9,1.3,2.9,2.9v8.8c0,1.6-1.3,2.9-2.9,2.9h-8.8c-1.6,0-2.9-1.3-2.9-2.9v-8.9
			C377.3,353.6,378.6,352.4,380.2,352.4L380.2,352.4z"/>
	</g>
</g>
<path class="st3" d="M136.2,266.3c0-6.3,5.2-11.5,11.5-11.5h209.2l47.4-47.4c4.5-4.5,4.5-11.8,0-16.2L292.2,79
	c-4.5-4.5-11.8-4.5-16.2,0L82.7,272.1c-4.5,4.5-4.5,11.8,0,16.2l53.5,53.5V266.3z"/>
<linearGradient id="SVGID_2_" gradientUnits="userSpaceOnUse" x1="144.8474" y1="174.3195" x2="330.1624" y2="174.3195">
	<stop  offset="0" style="stop-color:#F5524E"/>
	<stop  offset="1" style="stop-color:#D0342F"/>
</linearGradient>
<path class="st4" d="M147.7,254.8h44.6L330.2,117l-23.4-23.4L144.8,255.1C145.9,255,146.9,254.8,147.7,254.8z"/>
<linearGradient id="SVGID_3_" gradientUnits="userSpaceOnUse" x1="97.2607" y1="294.9396" x2="136.6527" y2="294.9396">
	<stop  offset="0" style="stop-color:#F5524E"/>
	<stop  offset="1" style="stop-color:#D0342F"/>
</linearGradient>
<path class="st5" d="M136.2,266.3c0-1,0.1-1.9,0.4-2.9l-39.4,39.4l23.4,23.6l15.5-15.5V266.3z"/>
<path class="st6" d="M172.6,278.6h33.8c6,0,10.9,4.9,10.9,10.9v33.8c0,6-4.9,10.9-10.9,10.9h-33.8c-6,0-10.9-4.9-10.9-10.9v-33.8
	C161.7,283.4,166.6,278.6,172.6,278.6z"/>
<path class="st7" d="M357.6,401.2c0-5.9,3.2-11.5,8.2-14.5c-8.1-5-18.5-2.4-23.6,5.6c-5,8.1-2.4,18.5,5.6,23.6
	c5.5,3.5,12.5,3.5,18,0C360.6,412.7,357.6,407.1,357.6,401.2L357.6,401.2z"/>
<path class="st6" d="M374.7,384.1c-3.2,0-6.3,0.9-8.9,2.6c8.1,4.9,10.6,15.5,5.6,23.6c-1.4,2.3-3.3,4.2-5.6,5.6
	c8.1,5,18.5,2.4,23.6-5.6c5-8.1,2.4-18.5-5.6-23.6C381.1,384.9,377.9,384.1,374.7,384.1z"/>
<path class="st8" d="M373.9,401.2c0-5.9-3-11.5-8.2-14.5c-8.1,4.9-10.6,15.5-5.6,23.6c1.4,2.3,3.3,4.2,5.6,5.6
	C370.8,412.7,373.9,407.1,373.9,401.2L373.9,401.2z"/>
<circle class="st6" cx="373.9" cy="121.4" r="4.5"/>
<ellipse transform="matrix(3.327799e-02 -0.9994 0.9994 3.327799e-02 -275.862 486.6875)" class="st7" cx="113.7" cy="385.9" rx="4.5" ry="4.5"/>
<circle class="st9" cx="161.1" cy="161.7" r="4.5"/>
<path class="st6" d="M113.4,352.7c-6.2-1.2-11.2-5.9-12.4-12.2c0-0.1-0.1-0.3-0.3-0.3s-0.1,0.1-0.3,0.3c-1.3,6.2-6.2,11.1-12.4,12.2
	c-0.1,0-0.3,0.1-0.3,0.3c0,0.1,0.1,0.1,0.3,0.3c6.2,1.2,11.2,5.9,12.4,12.2c0,0.1,0.1,0.3,0.3,0.3s0.1-0.1,0.3-0.3
	c1.3-6.2,6.2-11.1,12.4-12.2c0.1,0,0.3-0.1,0.3-0.3C113.7,352.9,113.5,352.7,113.4,352.7z"/>
<path class="st10" d="M359.3,90.6h-3v-3c0-2.3-1.9-4.2-4.2-4.2c-2.3,0-4.2,1.9-4.2,4.2v3h-3c-2.3,0-4.2,1.9-4.2,4.2s1.9,4.2,4.2,4.2
	h3v3.2c0,2.3,1.9,4.2,4.2,4.2c2.3,0,4.2-1.9,4.2-4.2v-3h3c2.3,0,4.2-1.9,4.2-4.2S361.6,90.6,359.3,90.6z"/>
<path d="M80.2,291.1l52.5,52.5v81.4c0,8.3,6.8,15.1,15.1,15.1H421c8.3,0,15.1-6.8,15.1-15.1V266.3c0-8.3-6.8-15.1-15.1-15.1h-55.4
	l41.3-41.4c5.9-5.9,5.9-15.5,0-21.4c-23.3-23.3-88.3-88.3-112.1-112.1c-5.9-5.9-15.5-5.9-21.4,0L80.2,269.6
	C74.3,275.5,74.3,285,80.2,291.1L80.2,291.1z M147.7,432.8c-4.3,0-7.9-3.6-7.9-7.9v-70.6c15.8,34.4,43.1,62.1,77.2,78.5H147.7z
	 M132.6,333.3l-6.9-6.9l6.9-6.9V333.3z M132.6,309.3l-11.9,11.9l-18.4-18.4l30.3-30.3L132.6,309.3z M428.9,266.3v158.6
	c0,4.3-3.6,7.9-7.9,7.9H235.9c-45.6-16.1-81.1-52.3-96-98.3v-68.1c0-4.3,3.6-7.9,7.9-7.9H421C425.5,258.4,428.9,261.9,428.9,266.3z
	 M325.1,116.8L190.9,251.1h-36.9L306.7,98.4L325.1,116.8z M401.9,204.8l-46.4,46.4H200.9L330.2,122l71.6,71.6
	C404.9,196.6,405.1,201.6,401.9,204.8L401.9,204.8z M85.3,274.7L278.6,81.4c3.2-3,8.2-3,11.2,0l11.9,11.9L143,252
	c-4.6,1.6-8.1,5-9.6,9.6l-36.2,36.2l-11.9-11.9C82.2,282.9,82.2,277.8,85.3,274.7z"/>
<path d="M318.1,149.9l-19.7,19.7c-1.4,1.4-1.4,3.6,0,5c1.4,1.4,3.6,1.4,5,0l19.7-19.7c1.4-1.4,1.4-3.6,0-5
	C321.7,148.4,319.5,148.3,318.1,149.9C318.1,149.7,318.1,149.7,318.1,149.9z"/>
<path d="M221,289.5c0-8.1-6.5-14.5-14.5-14.5h-33.9c-8.1,0-14.5,6.5-14.5,14.5v33.8c0,8.1,6.5,14.5,14.5,14.5h33.8
	c8.1,0,14.5-6.5,14.5-14.5v-33.8H221z M193.2,300.4h20.7v12.1h-20.7V300.4z M213.9,289.5v3.7h-20.7v-11.1h13.4
	C210.5,282.1,213.9,285.5,213.9,289.5L213.9,289.5z M172.6,282.1H186v20.7h-20.7v-13.4C165.3,285.5,168.6,282.1,172.6,282.1
	L172.6,282.1z M165.3,323.4V310H186v20.7h-13.4C168.6,330.7,165.3,327.4,165.3,323.4L165.3,323.4z M206.4,330.7H193v-11.1h20.7v3.7
	C213.9,327.4,210.5,330.7,206.4,330.7L206.4,330.7z"/>
<path d="M264.6,298.8c0,2,1.6,3.6,3.6,3.6h123.6c2,0,3.6-1.6,3.6-3.6s-1.6-3.6-3.6-3.6H268.2C266.2,295.2,264.6,296.8,264.6,298.8z"
	/>
<path d="M391.8,310.5H268.2c-2,0-3.6,1.6-3.6,3.6s1.6,3.6,3.6,3.6h123.6c2,0,3.6-1.6,3.6-3.6S393.9,310.5,391.8,310.5z"/>
<path d="M374.7,380.5c-3.2,0-6.2,0.7-8.9,2c-10.4-5-22.7-0.7-27.7,9.6c-5,10.4-0.7,22.7,9.6,27.7c5.8,2.7,12.4,2.7,18.1,0
	c10.4,5,22.7,0.6,27.6-9.6c5-10.4,0.6-22.7-9.6-27.6C380.9,381.2,377.7,380.5,374.7,380.5z M365.7,411.2c-5.6-4.9-6.2-13.4-1.3-19
	c0.4-0.4,0.9-0.9,1.3-1.3c5.6,4.9,6.2,13.4,1.3,19C366.5,410.5,366.1,411,365.7,411.2z M356.8,414.7c-7.5,0-13.5-6-13.5-13.5
	s6-13.5,13.5-13.5c0.7,0,1.4,0,2.2,0.1c-3.2,3.7-4.9,8.5-4.9,13.4c0,7.3,3.5,11.2,4.9,13.4C358.2,414.7,357.5,414.7,356.8,414.7
	L356.8,414.7z M374.7,414.7c-0.7,0-1.4,0-2.2-0.1c6.5-7.8,6.5-19,0-26.7c0.7-0.1,1.4-0.1,2.2-0.1c7.5,0,13.5,6,13.5,13.5
	S382.2,414.7,374.7,414.7L374.7,414.7z"/>
<path d="M235,348.9h-8.8c-3.6,0-6.5,2.9-6.5,6.5v8.8c0,3.6,2.9,6.5,6.5,6.5h8.8c3.6,0,6.5-2.9,6.5-6.5v-8.9
	C241.5,351.7,238.6,348.9,235,348.9L235,348.9z M234.3,363.2h-7.3v-7.3h7.3V363.2z"/>
<path d="M259.3,348.9h-8.8c-3.6,0-6.5,2.9-6.5,6.5v8.8c0,3.6,2.9,6.5,6.5,6.5h8.8c3.6,0,6.5-2.9,6.5-6.5v-8.9
	C265.8,351.7,262.9,348.9,259.3,348.9L259.3,348.9z M258.6,363.2h-7.3v-7.3h7.3V363.2z"/>
<path d="M283.6,348.9h-8.8c-3.6,0-6.5,2.9-6.5,6.5v8.8c0,3.6,2.9,6.5,6.5,6.5h8.8c3.6,0,6.5-2.9,6.5-6.5v-8.9
	C290.1,351.7,287.2,348.9,283.6,348.9L283.6,348.9z M282.9,363.2h-7.3v-7.3h7.3V363.2z"/>
<path d="M307.9,348.9h-8.8c-3.6,0-6.5,2.9-6.5,6.5v8.8c0,3.6,2.9,6.5,6.5,6.5h8.8c3.6,0,6.5-2.9,6.5-6.5v-8.9
	C314.3,351.7,311.5,348.9,307.9,348.9L307.9,348.9z M307.2,363.2h-7.3v-7.3h7.3V363.2z"/>
<path d="M346.8,364.1v-8.9c0-3.6-2.9-6.5-6.5-6.5h-8.8c-3.6,0-6.5,2.9-6.5,6.5v8.8c0,3.6,2.9,6.5,6.5,6.5h8.8
	C344,370.4,346.8,367.5,346.8,364.1L346.8,364.1z M339.7,363.2h-7.3v-7.3h7.3V363.2z"/>
<path d="M364.7,370.4c3.6,0,6.5-2.9,6.5-6.5v-8.8c0-3.6-2.9-6.5-6.5-6.5h-8.8c-3.6,0-6.5,2.9-6.5,6.5v8.8c0,3.6,2.9,6.5,6.5,6.5
	H364.7z M356.6,356h7.3v7.3h-7.3V356z"/>
<path d="M389,348.9h-8.8c-3.6,0-6.5,2.9-6.5,6.5v8.8c0,3.6,2.9,6.5,6.5,6.5h8.8c3.6,0,6.5-2.9,6.5-6.5v-8.9
	C395.4,351.7,392.6,348.9,389,348.9L389,348.9z M388.2,363.2h-7.3v-7.3h7.3V363.2z"/>
</svg>
