<?xml version="1.0" encoding="utf-8"?>
<!-- Generator: Adobe Illustrator 24.0.1, SVG Export Plug-In . SVG Version: 6.00 Build 0)  -->
<svg version="1.1" id="Layer_1" xmlns="http://www.w3.org/2000/svg" xmlns:xlink="http://www.w3.org/1999/xlink" x="0px" y="0px"
	 viewBox="0 0 512 512" style="enable-background:new 0 0 512 512;" xml:space="preserve">
<style type="text/css">
	.st0{fill:#3CAADC;}
	.st1{fill:#F5C84C;}
	.st2{fill:#EF4460;}
	.st3{fill:#70D6F9;}
	.st4{fill:#B2E26D;}
	.st5{fill:#2D2D2D;}
	.st6{fill:#5B5B5B;}
	.st7{fill:url(#SVGID_1_);}
	.st8{fill:url(#SVGID_2_);}
	.st9{fill:url(#SVGID_3_);}
	.st10{fill:#FCDD86;}
	.st11{fill:#F9D0B4;}
	.st12{fill:#EDF4FC;}
	.st13{fill:url(#SVGID_4_);}
	.st14{fill:url(#SVGID_5_);}
	.st15{fill:url(#SVGID_6_);}
</style>
<path class="st0" d="M215.6,111.4h-3.6v-3.6c0-2.6-2.3-4.9-4.9-4.9s-4.9,2.3-4.9,4.9v3.6h-3.6c-2.6,0-4.9,2.3-4.9,4.9
	s2.3,4.9,4.9,4.9h3.6v3.6c0,2.6,2.3,4.9,4.9,4.9s4.9-2.3,4.9-4.9v-3.6h3.6c2.6,0,4.9-2.3,4.9-4.9S218.2,111.4,215.6,111.4z"/>
<path class="st1" d="M460.3,236.2c-6.9-1.2-12.3-6.6-13.7-13.4c0-0.2-0.2-0.3-0.3-0.2c-0.2,0-0.2,0.2-0.2,0.2
	c-1.4,6.9-6.8,12.1-13.7,13.4c-0.2,0-0.3,0.2-0.2,0.3c0,0.2,0.2,0.2,0.2,0.2c6.9,1.2,12.3,6.6,13.7,13.4c0,0.2,0.2,0.3,0.3,0.2
	c0.2,0,0.2-0.2,0.2-0.2c1.4-6.9,6.8-12.1,13.7-13.4c0.2,0,0.3-0.2,0.2-0.3C460.7,236.4,460.5,236.2,460.3,236.2z"/>
<path class="st2" d="M410.2,328.3c-3.5-0.7-6.4-3.3-7.1-6.9l-0.2-0.2c0,0-0.2,0-0.2,0.2c-0.7,3.5-3.5,6.2-7.1,6.9l-0.2,0.2
	c0,0,0,0.2,0.2,0.2c3.5,0.7,6.4,3.3,7.1,6.9l0.2,0.2c0,0,0.2,0,0.2-0.2c0.7-3.5,3.5-6.2,7.1-6.9
	C410.4,328.7,410.4,328.5,410.2,328.3C410.4,328.3,410.4,328.3,410.2,328.3L410.2,328.3z"/>
<circle class="st3" cx="472.8" cy="138.1" r="5.2"/>
<circle class="st4" cx="184.9" cy="151.9" r="5.2"/>
<path class="st5" d="M201.4,317.1c16.8,6.6,23.4,12.5,39.4,16.8c24.8,6.8,49.6-2.3,49.4,18.2c0,6.1-3.6,10.8-9.4,14.2l1.2-0.9
	l59.1-33.3c5.7-2.8,12.5-2.6,18,0.2v-95.7c-1.2,0.3-2.6,0.7-3.8,0.7H182.8c-1.4,0-2.6-0.2-3.8-0.7v80.8
	C186.6,315.7,194.1,314.3,201.4,317.1L201.4,317.1z"/>
<path class="st6" d="M182.8,184.7h172.4c7.1,0,12.8,5.7,12.8,12.8v27.1c0,7.1-5.7,12.8-12.8,12.8H182.8c-7.1,0-12.8-5.7-12.8-12.8
	v-27.1C170,190.5,175.7,184.7,182.8,184.7L182.8,184.7z"/>
<linearGradient id="SVGID_1_" gradientUnits="userSpaceOnUse" x1="251.2305" y1="174.2936" x2="287.1007" y2="174.2936">
	<stop  offset="0" style="stop-color:#F5524E"/>
	<stop  offset="1" style="stop-color:#D0342F"/>
</linearGradient>
<path class="st7" d="M286.9,184.7c1.6-9.7-5-19.1-14.7-20.6c-9.7-1.6-19.1,5-20.6,14.7c-0.3,1.9-0.3,4,0,5.9H286.9z"/>
<linearGradient id="SVGID_2_" gradientUnits="userSpaceOnUse" x1="213.4362" y1="168.6604" x2="260.8563" y2="168.6604">
	<stop  offset="0" style="stop-color:#F5524E"/>
	<stop  offset="1" style="stop-color:#D0342F"/>
</linearGradient>
<path class="st8" d="M251.3,184.7c-1.2-7.6,2.6-15.3,9.5-18.7l-10.1-8.3c-9.7-8-23.9-6.8-32.1,2.9c-2.1,2.6-3.6,5.6-4.5,8.7
	c-1.4,5.2-0.9,10.8,1.4,15.6L251.3,184.7z"/>
<linearGradient id="SVGID_3_" gradientUnits="userSpaceOnUse" x1="277.1593" y1="168.3176" x2="324.5794" y2="168.3176">
	<stop  offset="0" style="stop-color:#F5524E"/>
	<stop  offset="1" style="stop-color:#D0342F"/>
</linearGradient>
<path class="st9" d="M287,181.8c0,0.9-0.2,1.9-0.2,2.8h35.6c2.3-4.9,2.8-10.4,1.4-15.6c-3.3-12.1-15.8-19.3-27.9-16.1
	c-3.1,0.9-6.1,2.4-8.7,4.5l-10.1,8.3C283.2,168.9,287,175,287,181.8L287,181.8z"/>
<path class="st10" d="M252.2,184.7h33.6v52.7h-33.6L252.2,184.7z"/>
<path class="st1" d="M285.8,341.7V237.5h-33.6v98.7C266.6,337.9,279.6,336.5,285.8,341.7z"/>
<path class="st11" d="M366.7,339.6c-5.4-8.7-16.5-11.8-25.5-7.3L282,365.6l-1.2,0.9c5.5-3.5,9.2-8,9.4-14.2
	c0.2-20.5-24.6-11.4-49.4-18.2c-15.8-4.3-22.5-10.4-39.4-16.8c-10.1-3.8-20.6,0.3-31.2,2.8c-3.5,0.7-7.1,1.2-10.8,1.2l-21.7,0.5
	v81.7c8.5,0.5,17,1.9,25.1,4.2l50.5,13.9c29.8,7.8,55-2.1,81.9-17.5l65.4-40.2C369.3,358,372,348.6,366.7,339.6z"/>
<path class="st6" d="M43.5,294h59.1c2.9,0,5.2,2.4,5.2,5.2v128.2c0,2.9-2.4,5.2-5.2,5.2H43.5c-2.9,0-5.2-2.4-5.2-5.2V299.2
	C38.3,296.4,40.8,294,43.5,294z"/>
<path class="st12" d="M132.3,304.4h-24.5v115.5h24.5c2.9,0,5.2-2.4,5.2-5.2V309.6C137.7,306.7,135.3,304.4,132.3,304.4z"/>
<linearGradient id="SVGID_4_" gradientUnits="userSpaceOnUse" x1="318.9578" y1="113.9867" x2="399.0645" y2="113.9867">
	<stop  offset="0" style="stop-color:#F5524E"/>
	<stop  offset="1" style="stop-color:#D0342F"/>
</linearGradient>
<path class="st13" d="M392.3,85.9c-9-9-23.4-9-32.4,0c-0.5,0.5-1.2,0.5-1.7,0c-9-9-23.4-9-32.4,0s-9,23.4,0,32.4l28.6,28.6
	c2.6,2.6,6.6,2.6,9.2,0l28.6-28.6C401.3,109.5,401.3,94.9,392.3,85.9L392.3,85.9z"/>
<linearGradient id="SVGID_5_" gradientUnits="userSpaceOnUse" x1="402.468" y1="180.5433" x2="460.8949" y2="180.5433">
	<stop  offset="0" style="stop-color:#F5524E"/>
	<stop  offset="1" style="stop-color:#D0342F"/>
</linearGradient>
<path class="st14" d="M456,160.1c-6.6-6.6-17.2-6.6-23.6,0c-0.3,0.3-0.9,0.3-1.4,0c-6.6-6.6-17.2-6.6-23.6,0
	c-6.6,6.6-6.6,17.2,0,23.6l20.8,20.8c1.9,1.9,4.9,1.9,6.8,0l20.8-20.8C462.6,177.1,462.6,166.5,456,160.1L456,160.1z"/>
<linearGradient id="SVGID_6_" gradientUnits="userSpaceOnUse" x1="381.4821" y1="267.1754" x2="421.6548" y2="267.1754">
	<stop  offset="0" style="stop-color:#F5524E"/>
	<stop  offset="1" style="stop-color:#D0342F"/>
</linearGradient>
<path class="st15" d="M418.3,253.1c-4.5-4.5-11.8-4.5-16.3,0c-0.2,0.2-0.7,0.2-0.9,0c-4.5-4.5-11.8-4.5-16.3,0
	c-4.5,4.5-4.5,11.8,0,16.3l14.4,14.4c1.2,1.2,3.3,1.2,4.7,0l14.4-14.4C422.8,264.9,422.7,257.6,418.3,253.1L418.3,253.1z"/>
<path d="M43.5,437.1h59.1c5.4,0,9.5-4.3,9.5-9.5v-3.3h20.1c5.4,0,9.5-4.3,9.5-9.5v-6.4c6.6,0.7,13.2,1.9,19.8,3.5l50.5,13.9
	c31.2,8.2,57.1-1.7,85.2-18l65.4-40.2c11.1-6.9,14-19.1,7.6-29.8c-1.7-2.9-4.2-5.4-6.9-7.1v-90.5c5.5-2.9,9-8.8,9-15.1v-27.2
	c0-9.5-7.6-17.2-17.2-17.2h-26.9c2.9-14.6-6.4-29-21.2-31.9c-8-1.7-16.5,0.5-22.7,5.7l-8,6.8c-4.7-1.7-10.1-1.7-14.7,0l-8-6.8
	c-11.4-9.5-28.4-8.2-38.2,3.3c-5.4,6.4-7.5,14.7-5.7,22.9h-27.1c-9.5,0-17.2,7.6-17.2,17.2v27.1c0,6.2,3.5,12.1,9,15.1v74.6
	c-1.7,0.5-3.6,0.9-5.4,1.4c-3.3,0.7-6.6,1-9.9,1.2l-17.2,0.5v-7.6c0-5.4-4.3-9.5-9.5-9.5h-20.3v-0.7c0-5.4-4.3-9.5-9.5-9.5H43.5
	c-5.4,0-9.5,4.3-9.5,9.5v128.2C34,432.7,38.3,437.1,43.5,437.1L43.5,437.1z M339.2,328.3c-0.2,0-0.2,0.2-0.3,0.2l-44.7,25.1
	c0-0.5,0-0.9,0-1.4c0-5.7-1.6-9.7-4.2-12.5v-98h64.9v84.8C349.7,325.4,344.1,326.1,339.2,328.3L339.2,328.3z M247.8,241.8v89.3
	c-2.1-0.3-4-0.9-6.1-1.4c-15.3-4.2-22-10.2-38.9-16.7c-6.6-2.6-13.2-2.1-19.6-0.9v-70.4L247.8,241.8z M281.5,189.1v44.1h-25v-44.1
	H281.5z M256.5,241.8h25v93.1c-5.4-1.2-10.9-1.9-16.5-2.1c-2.8-0.2-5.5-0.3-8.5-0.5V241.8z M363.9,197.6v27.1c0,4.7-3.8,8.5-8.5,8.5
	h-65v-44.1h65C360.1,189.1,363.9,192.9,363.9,197.6z M290,160.8c7.8-6.6,19.4-5.4,26,2.4c1.7,2.1,2.9,4.5,3.6,6.9
	c0.9,3.3,0.9,6.9-0.2,10.2h-28.1c-0.3-5.5-2.9-10.9-6.9-14.7L290,160.8z M282.5,180.4h-27.1c0.9-7.5,7.6-12.8,15.1-12
	C277,168.9,281.8,174,282.5,180.4z M218.5,170.2c2.6-9.9,12.8-15.6,22.5-13c2.6,0.7,5,1.9,6.9,3.6l5.7,4.9
	c-4.2,3.8-6.6,9.2-6.9,14.7h-28.1C217.7,177.1,217.7,173.5,218.5,170.2z M174.3,197.6c0-4.7,3.8-8.5,8.5-8.5h65v44.1h-65
	c-4.7,0-8.5-3.8-8.5-8.5V197.6z M159.4,325.6c16.6-0.3,29-8.7,40.4-4.3c16.1,6.2,23.6,12.7,39.7,17c8.2,2.1,16.6,3.1,25,3.3
	c17,1,21.2,2.1,21.2,10.8c0,3.8-2.1,6.9-6.1,9.7c-0.2,0-13.9,10.4-49.1,10.4c-2.4,0-4.3,1.9-4.3,4.3c0,2.4,1.9,4.3,4.3,4.3
	c15.3,0,40.8-2.9,53.8-11.8l58.8-33.1c7.1-3.5,15.6-1,19.8,5.5c4.2,6.8,2.3,13.7-4.9,18L292.8,400c-27.1,15.6-50.6,24.5-78.6,17.2
	l-50.5-13.9c-7.1-1.9-14.6-3.1-21.9-3.8v-73.5L159.4,325.6z M132.3,308.7c0.5,0,0.9,0.3,0.9,0.9v105.1c0,0.5-0.3,0.9-0.9,0.9h-19.9
	V308.7L132.3,308.7z M42.7,299.2c0-0.5,0.3-0.9,0.9-0.9h59.1c0.5,0,0.9,0.3,0.9,0.9v128.2c0,0.5-0.3,0.9-0.9,0.9H43.5
	c-0.5,0-0.9-0.3-0.9-0.9V299.2z"/>
<path d="M351.4,150.2c4.3,4.2,11.1,4.2,15.4,0l28.6-28.6c10.6-10.6,10.6-27.9,0-38.5c-9.9-9.9-25.5-10.8-36.4-1.9
	c-11.8-9.4-29-7.6-38.3,4.2c-8.7,10.9-8,26.5,1.9,36.4L351.4,150.2z M328.7,89c7.3-7.3,19.1-7.3,26.4,0c2.3,2.3,5.7,2.3,8,0
	c7.3-7.3,19.1-7.1,26.4,0.2c7.3,7.3,7.3,18.9,0,26.2L360.8,144c0,0,0,0-0.2,0c-0.9,0.9-2.3,0.9-3.1,0l-28.6-28.6
	C321.6,108.1,321.6,96.3,328.7,89L328.7,89z"/>
<path d="M404.5,186.8l20.8,20.8c3.6,3.5,9.4,3.5,12.8,0l20.8-20.8c8.2-8.2,8.2-21.5,0-29.8c-7.3-7.3-18.9-8.2-27.4-2.1
	c-9.4-6.9-22.5-4.9-29.5,4.5C396.1,167.7,397,179.4,404.5,186.8L404.5,186.8z M410.5,163c4.9-4.9,12.7-4.9,17.5,0
	c2.1,1.9,5.4,1.9,7.5,0c4.9-4.9,12.7-4.9,17.5,0c4.9,4.9,4.9,12.7,0,17.5l-21,21c-0.2,0.2-0.5,0.2-0.7,0l-20.8-20.8
	C405.7,175.7,405.7,167.9,410.5,163L410.5,163z"/>
<path d="M401.7,247.9c-7.3-4.7-17.2-2.6-22,4.7c-4,6.2-3.1,14.6,2.1,19.8l14.4,14.4c0,0,0,0,0.2,0.2c1.4,1.4,3.3,2.3,5.4,2.1
	c2.1,0,4-0.9,5.4-2.3l14.4-14.4c6.2-6.2,6.2-16.3,0-22.4C416.3,244.7,407.9,243.9,401.7,247.9L401.7,247.9z M415.4,266.2l-13.7,13.7
	L388,266.2c-2.8-2.8-2.9-7.3-0.2-10.2c2.8-2.8,7.3-2.9,10.2-0.2c0,0,0,0,0.2,0.2c1.9,1.9,5,1.9,7.1,0c2.8-2.8,7.3-2.8,10.2,0
	C418.2,259,418.2,263.5,415.4,266.2z"/>
</svg>
