<svg width="101" height="76" viewBox="0 0 101 76" fill="none" xmlns="http://www.w3.org/2000/svg">
<path opacity="0.18" d="M51.3385 69.1516C69.2595 69.1516 83.7873 54.6237 83.7873 36.7027C83.7873 18.7817 69.2595 4.25391 51.3385 4.25391C33.4175 4.25391 18.8896 18.7817 18.8896 36.7027C18.8896 54.6237 33.4175 69.1516 51.3385 69.1516Z" fill="#989898"/>
<path opacity="0.18" d="M52.3385 69.1516C70.2595 69.1516 84.7873 54.6237 84.7873 36.7027C84.7873 18.7817 70.2595 4.25391 52.3385 4.25391C34.4175 4.25391 19.8896 18.7817 19.8896 36.7027C19.8896 54.6237 34.4175 69.1516 52.3385 69.1516Z" fill="#989898"/>
<path d="M38.5254 43.5078V47.0769C38.5254 48.4734 41.4676 49.6078 45.0963 49.6078C48.7251 49.6078 51.669 48.4734 51.669 47.0769V43.5078H38.5254Z" fill="white"/>
<path d="M45.0981 49.7771C41.3201 49.7771 38.3613 48.5929 38.3613 47.082V43.5096C38.3613 43.4656 38.3788 43.4234 38.4099 43.3923C38.441 43.3612 38.4832 43.3438 38.5272 43.3438H51.6708C51.7147 43.3438 51.7569 43.3612 51.788 43.3923C51.8191 43.4234 51.8366 43.4656 51.8366 43.5096V47.0787C51.835 48.5929 48.8745 49.7771 45.0981 49.7771ZM38.6914 43.6754V47.0787C38.6914 48.3607 41.6252 49.442 45.0965 49.442C48.5677 49.442 51.5032 48.3607 51.5032 47.0787V43.6754H38.6914Z" fill="#343657"/>
<path d="M45.0964 46.0461C48.7254 46.0461 51.6673 44.913 51.6673 43.5152C51.6673 42.1175 48.7254 40.9844 45.0964 40.9844C41.4673 40.9844 38.5254 42.1175 38.5254 43.5152C38.5254 44.913 41.4673 46.0461 45.0964 46.0461Z" fill="white"/>
<path d="M45.0981 46.2098C41.3201 46.2098 38.3613 45.0256 38.3613 43.5131C38.3613 42.0006 41.3201 40.8164 45.0981 40.8164C48.8762 40.8164 51.8366 42.0006 51.8366 43.5131C51.8366 45.0256 48.8745 46.2098 45.0981 46.2098ZM45.0981 41.1481C41.6269 41.1481 38.693 42.2311 38.693 43.5131C38.693 44.7951 41.6269 45.8781 45.0981 45.8781C48.5694 45.8781 51.5049 44.7951 51.5049 43.5131C51.5049 42.2311 48.5694 41.1481 45.0981 41.1481Z" fill="#343657"/>
<path d="M38.5254 39.9648V43.5339C38.5254 44.932 41.4676 46.0648 45.0963 46.0648C48.7251 46.0648 51.669 44.932 51.669 43.5339V39.9648H38.5254Z" fill="white"/>
<path d="M45.0981 46.2285C41.3201 46.2285 38.3613 45.0444 38.3613 43.5318V39.9627C38.3613 39.9187 38.3788 39.8766 38.4099 39.8455C38.441 39.8143 38.4832 39.7969 38.5272 39.7969H51.6708C51.7147 39.7969 51.7569 39.8143 51.788 39.8455C51.8191 39.8766 51.8366 39.9187 51.8366 39.9627V43.5318C51.835 45.0444 48.8745 46.2285 45.0981 46.2285ZM38.693 40.1286V43.5318C38.693 44.8138 41.6269 45.8968 45.0981 45.8968C48.5694 45.8968 51.5049 44.8138 51.5049 43.5318V40.1286H38.693Z" fill="#343657"/>
<path d="M45.0964 42.4953C48.7254 42.4953 51.6673 41.3622 51.6673 39.9645C51.6673 38.5667 48.7254 37.4336 45.0964 37.4336C41.4673 37.4336 38.5254 38.5667 38.5254 39.9645C38.5254 41.3622 41.4673 42.4953 45.0964 42.4953Z" fill="#343657"/>
<path d="M45.0981 42.659C41.3201 42.659 38.3613 41.4749 38.3613 39.9623C38.3613 38.4498 41.3201 37.2656 45.0981 37.2656C48.8762 37.2656 51.8366 38.4498 51.8366 39.9623C51.8366 41.4749 48.8745 42.659 45.0981 42.659ZM45.0981 37.5973C41.6269 37.5973 38.693 38.6803 38.693 39.9623C38.693 41.2443 41.6269 42.3273 45.0981 42.3273C48.5694 42.3273 51.5049 41.2443 51.5049 39.9623C51.5049 38.6803 48.5694 37.5973 45.0981 37.5973V37.5973Z" fill="#343657"/>
<path d="M37.2422 35.75V39.3191C37.2422 40.7172 40.1844 41.85 43.8148 41.85C47.4452 41.85 50.3858 40.7172 50.3858 39.3191V35.75H37.2422Z" fill="white"/>
<path d="M43.8146 42.0176C40.0366 42.0176 37.0762 40.8334 37.0762 39.3209V35.7518C37.0762 35.7078 37.0936 35.6656 37.1247 35.6345C37.1559 35.6034 37.198 35.5859 37.242 35.5859H50.3856C50.4296 35.5859 50.4717 35.6034 50.5028 35.6345C50.5339 35.6656 50.5514 35.7078 50.5514 35.7518V39.3209C50.5514 40.8334 47.586 42.0176 43.8146 42.0176ZM37.4079 35.9176V39.3209C37.4079 40.6029 40.3417 41.6859 43.8146 41.6859C47.2875 41.6859 50.2197 40.6029 50.2197 39.3209V35.9176H37.4079Z" fill="#343657"/>
<path d="M43.8141 38.2805C47.4431 38.2805 50.385 37.1474 50.385 35.7496C50.385 34.3519 47.4431 33.2188 43.8141 33.2188C40.1851 33.2188 37.2432 34.3519 37.2432 35.7496C37.2432 37.1474 40.1851 38.2805 43.8141 38.2805Z" fill="white"/>
<path d="M43.8146 38.4493C40.0366 38.4493 37.0762 37.2651 37.0762 35.7526C37.0762 34.24 40.0366 33.0625 43.8146 33.0625C47.5927 33.0625 50.5514 34.2467 50.5514 35.7592C50.5514 37.2717 47.586 38.4493 43.8146 38.4493ZM43.8146 33.3876C40.3417 33.3876 37.4079 34.4706 37.4079 35.7526C37.4079 37.0346 40.3417 38.1176 43.8146 38.1176C47.2875 38.1176 50.2197 37.0346 50.2197 35.7526C50.2197 34.4706 47.2858 33.3942 43.8146 33.3942V33.3876Z" fill="#343657"/>
<path d="M37.2422 32.2031V35.7722C37.2422 37.1703 40.1844 38.3031 43.8148 38.3031C47.4452 38.3031 50.3858 37.1703 50.3858 35.7722V32.2031H37.2422Z" fill="white"/>
<path d="M43.8146 38.4668C40.0366 38.4668 37.0762 37.2826 37.0762 35.7701V32.201C37.0762 32.157 37.0936 32.1148 37.1247 32.0837C37.1559 32.0526 37.198 32.0352 37.242 32.0352H50.3856C50.4296 32.0352 50.4717 32.0526 50.5028 32.0837C50.5339 32.1148 50.5514 32.157 50.5514 32.201V35.7701C50.5514 37.2826 47.586 38.4668 43.8146 38.4668ZM37.4079 32.3669V35.7701C37.4079 37.0521 40.3417 38.1351 43.8146 38.1351C47.2875 38.1351 50.2197 37.0521 50.2197 35.7701V32.3669H37.4079Z" fill="#343657"/>
<path d="M43.8141 34.7336C47.4431 34.7336 50.385 33.6005 50.385 32.2027C50.385 30.805 47.4431 29.6719 43.8141 29.6719C40.1851 29.6719 37.2432 30.805 37.2432 32.2027C37.2432 33.6005 40.1851 34.7336 43.8141 34.7336Z" fill="white"/>
<path d="M43.8146 34.9013C40.0366 34.9013 37.0762 33.7171 37.0762 32.2045C37.0762 30.692 40.0366 29.5078 43.8146 29.5078C47.5927 29.5078 50.5514 30.6936 50.5514 32.2045C50.5514 33.7154 47.586 34.9013 43.8146 34.9013ZM43.8146 29.8395C40.3417 29.8395 37.4079 30.9225 37.4079 32.2045C37.4079 33.4866 40.3417 34.5696 43.8146 34.5696C47.2875 34.5696 50.2197 33.4866 50.2197 32.2045C50.2197 30.9225 47.2858 29.8395 43.8146 29.8395Z" fill="#343657"/>
<path d="M53.0244 42.4961V46.0652C53.0244 47.4616 55.9666 48.5944 59.5953 48.5944C63.2241 48.5944 66.1613 47.4616 66.1613 46.0652V42.4961H53.0244Z" fill="white"/>
<path d="M59.5952 48.7581C55.8172 48.7581 52.8584 47.574 52.8584 46.0631V42.494C52.8584 42.45 52.8759 42.4078 52.907 42.3767C52.9381 42.3456 52.9803 42.3281 53.0242 42.3281H66.1612C66.2052 42.3281 66.2474 42.3456 66.2785 42.3767C66.3096 42.4078 66.3271 42.45 66.3271 42.494V46.0631C66.3271 47.574 63.3733 48.7581 59.5952 48.7581ZM53.1901 42.6598V46.0631C53.1901 47.3434 56.124 48.4264 59.5952 48.4264C63.0665 48.4264 65.9954 47.3434 65.9954 46.0631V42.6598H53.1901Z" fill="#343657"/>
<path d="M59.5954 45.0266C63.2244 45.0266 66.1663 43.8934 66.1663 42.4957C66.1663 41.0979 63.2244 39.9648 59.5954 39.9648C55.9663 39.9648 53.0244 41.0979 53.0244 42.4957C53.0244 43.8934 55.9663 45.0266 59.5954 45.0266Z" fill="white"/>
<path d="M59.5952 45.1903C55.8172 45.1903 52.8584 44.0045 52.8584 42.4936C52.8584 40.9827 55.8172 39.7969 59.5952 39.7969C63.3733 39.7969 66.3271 40.9811 66.3271 42.4936C66.3271 44.0062 63.3733 45.1903 59.5952 45.1903ZM59.5952 40.1286C56.124 40.1286 53.1901 41.2116 53.1901 42.4936C53.1901 43.7756 56.124 44.8586 59.5952 44.8586C63.0665 44.8586 65.9954 43.7756 65.9954 42.4936C65.9954 41.2116 63.0681 40.1286 59.5952 40.1286V40.1286Z" fill="#343657"/>
<path d="M53.0244 38.9453V42.5144C53.0244 43.9109 55.9666 45.0453 59.5953 45.0453C63.2241 45.0453 66.1613 43.9109 66.1613 42.5144V38.9453H53.0244Z" fill="white"/>
<path d="M59.5952 45.2129C55.8172 45.2129 52.8584 44.0271 52.8584 42.5162V38.9471C52.8584 38.9031 52.8759 38.8609 52.907 38.8298C52.9381 38.7987 52.9803 38.7812 53.0242 38.7812H66.1612C66.2052 38.7812 66.2474 38.7987 66.2785 38.8298C66.3096 38.8609 66.3271 38.9031 66.3271 38.9471V42.5162C66.3271 44.0271 63.3733 45.2129 59.5952 45.2129ZM53.1901 39.1129V42.5162C53.1901 43.7982 56.124 44.8812 59.5952 44.8812C63.0665 44.8812 65.9954 43.7982 65.9954 42.5162V39.1129H53.1901Z" fill="#343657"/>
<path d="M59.5954 41.4758C63.2244 41.4758 66.1663 40.3427 66.1663 38.9449C66.1663 37.5472 63.2244 36.4141 59.5954 36.4141C55.9663 36.4141 53.0244 37.5472 53.0244 38.9449C53.0244 40.3427 55.9663 41.4758 59.5954 41.4758Z" fill="white"/>
<path d="M59.5952 41.6395C55.8172 41.6395 52.8584 40.4554 52.8584 38.9428C52.8584 37.4303 55.8172 36.2461 59.5952 36.2461C63.3733 36.2461 66.3271 37.4303 66.3271 38.9428C66.3271 40.4554 63.3733 41.6395 59.5952 41.6395ZM59.5952 36.5778C56.124 36.5778 53.1901 37.6608 53.1901 38.9428C53.1901 40.2248 56.124 41.3078 59.5952 41.3078C63.0665 41.3078 65.9954 40.2248 65.9954 38.9428C65.9954 37.6608 63.0681 36.5778 59.5952 36.5778Z" fill="#343657"/>
<path d="M53.0244 35.3984V38.9675C53.0244 40.3656 55.9666 41.4984 59.5953 41.4984C63.2241 41.4984 66.1613 40.3607 66.1613 38.9675V35.3984H53.0244Z" fill="white"/>
<path d="M59.5952 41.6621C55.8172 41.6621 52.8584 40.4779 52.8584 38.9654V35.3963C52.8584 35.3523 52.8759 35.3101 52.907 35.279C52.9381 35.2479 52.9803 35.2305 53.0242 35.2305H66.1612C66.2052 35.2305 66.2474 35.2479 66.2785 35.279C66.3096 35.3101 66.3271 35.3523 66.3271 35.3963V38.9654C66.3271 40.4779 63.3733 41.6621 59.5952 41.6621ZM53.1901 35.5622V38.9654C53.1901 40.2474 56.124 41.3304 59.5952 41.3304C63.0665 41.3304 65.9954 40.2474 65.9954 38.9654V35.5622H53.1901Z" fill="#343657"/>
<path d="M59.5954 37.9289C63.2244 37.9289 66.1663 36.7958 66.1663 35.3981C66.1663 34.0003 63.2244 32.8672 59.5954 32.8672C55.9663 32.8672 53.0244 34.0003 53.0244 35.3981C53.0244 36.7958 55.9663 37.9289 59.5954 37.9289Z" fill="#343657"/>
<path d="M59.5952 38.0926C55.8172 38.0926 52.8584 36.9085 52.8584 35.3959C52.8584 33.8834 55.8172 32.6992 59.5952 32.6992C63.3733 32.6992 66.3271 33.89 66.3271 35.3959C66.3271 36.9018 63.3733 38.0926 59.5952 38.0926ZM59.5952 33.0309C56.124 33.0309 53.1901 34.1139 53.1901 35.3959C53.1901 36.6779 56.124 37.7609 59.5952 37.7609C63.0665 37.7609 65.9954 36.6779 65.9954 35.3959C65.9954 34.1139 63.0681 33.0309 59.5952 33.0309V33.0309Z" fill="#343657"/>
<path d="M51.2891 31.3359V34.905C51.2891 36.3031 54.2312 37.4359 57.86 37.4359C61.4888 37.4359 64.4326 36.3031 64.4326 34.905V31.3359H51.2891Z" fill="white"/>
<path d="M57.8686 37.6035C54.0906 37.6035 51.1318 36.4194 51.1318 34.9068V31.3377C51.1318 31.2937 51.1493 31.2516 51.1804 31.2205C51.2115 31.1893 51.2537 31.1719 51.2977 31.1719H64.4413C64.4852 31.1719 64.5274 31.1893 64.5585 31.2205C64.5896 31.2516 64.6071 31.2937 64.6071 31.3377V34.9068C64.5988 36.4194 61.6384 37.6035 57.8686 37.6035ZM51.4635 31.5036V34.9068C51.4635 36.1888 54.3974 37.2718 57.8686 37.2718C61.3399 37.2718 64.2754 36.1888 64.2754 34.9068V31.5036H51.4635Z" fill="#343657"/>
<path d="M57.86 33.8703C61.489 33.8703 64.431 32.7372 64.431 31.3395C64.431 29.9417 61.489 28.8086 57.86 28.8086C54.231 28.8086 51.2891 29.9417 51.2891 31.3395C51.2891 32.7372 54.231 33.8703 57.86 33.8703Z" fill="#343657"/>
<path d="M57.8686 34.0341C54.0906 34.0341 51.1318 32.8499 51.1318 31.3373C51.1318 29.8248 54.0823 28.6406 57.8686 28.6406C61.655 28.6406 64.6071 29.8265 64.6071 31.3373C64.6071 32.8482 61.6384 34.0341 57.8686 34.0341ZM57.8686 28.9723C54.3974 28.9723 51.4635 30.0553 51.4635 31.3373C51.4635 32.6194 54.3858 33.7024 57.8686 33.7024C61.3515 33.7024 64.2754 32.6194 64.2754 31.3373C64.2754 30.0553 61.3332 28.9723 57.8686 28.9723V28.9723Z" fill="#343657"/>
<path d="M52.5615 27.6016V31.1706C52.5615 32.5688 55.5037 33.7015 59.1325 33.7015C62.7613 33.7015 65.7035 32.5688 65.7035 31.1706V27.6016H52.5615Z" fill="white"/>
<path d="M59.1294 33.8652C55.3513 33.8652 52.3926 32.6811 52.3926 31.1685V27.5994C52.3926 27.5555 52.4101 27.5133 52.4412 27.4822C52.4723 27.4511 52.5144 27.4336 52.5584 27.4336H65.7003C65.7443 27.4336 65.7865 27.4511 65.8176 27.4822C65.8487 27.5133 65.8662 27.5555 65.8662 27.5994V31.1685C65.8662 32.6811 62.9074 33.8652 59.1294 33.8652ZM52.7276 27.7653V31.1685C52.7276 32.4505 55.6615 33.5335 59.1327 33.5335C62.6039 33.5335 65.5378 32.4505 65.5378 31.1685V27.7653H52.7276Z" fill="#343657"/>
<path d="M59.1295 30.132C62.7586 30.132 65.7005 28.9989 65.7005 27.6012C65.7005 26.2034 62.7586 25.0703 59.1295 25.0703C55.5005 25.0703 52.5586 26.2034 52.5586 27.6012C52.5586 28.9989 55.5005 30.132 59.1295 30.132Z" fill="white"/>
<path d="M59.1294 30.2997C55.3513 30.2997 52.3926 29.1155 52.3926 27.603C52.3926 26.0904 55.3513 24.9062 59.1294 24.9062C62.9074 24.9062 65.8662 26.0971 65.8662 27.603C65.8662 29.1089 62.9074 30.2997 59.1294 30.2997ZM59.1294 25.238C55.6582 25.238 52.7243 26.321 52.7243 27.603C52.7243 28.885 55.6582 29.968 59.1294 29.968C62.6006 29.968 65.5345 28.885 65.5345 27.603C65.5345 26.321 62.6023 25.238 59.1294 25.238V25.238Z" fill="#343657"/>
<path d="M53.684 52.331C57.4321 52.331 60.4706 49.2925 60.4706 45.5444C60.4706 41.7963 57.4321 38.7578 53.684 38.7578C49.9359 38.7578 46.8975 41.7963 46.8975 45.5444C46.8975 49.2925 49.9359 52.331 53.684 52.331Z" fill="white"/>
<path d="M53.6848 52.4986C52.3098 52.4986 50.9656 52.0908 49.8223 51.3269C48.679 50.563 47.7879 49.4771 47.2616 48.2068C46.7354 46.9364 46.5978 45.5385 46.866 44.1898C47.1343 42.8412 47.7964 41.6024 48.7687 40.6301C49.741 39.6578 50.9799 38.9956 52.3285 38.7273C53.6771 38.4591 55.075 38.5968 56.3454 39.123C57.6158 39.6492 58.7016 40.5403 59.4656 41.6836C60.2295 42.8269 60.6372 44.1711 60.6372 45.5462C60.6337 47.389 59.9001 49.1553 58.5971 50.4584C57.294 51.7615 55.5277 52.4951 53.6848 52.4986ZM53.6848 38.9255C52.3754 38.9255 51.0953 39.3137 50.0066 40.0412C48.9178 40.7687 48.0692 41.8028 47.5681 43.0125C47.067 44.2223 46.9359 45.5535 47.1913 46.8378C47.4468 48.1221 48.0774 49.3018 49.0033 50.2277C49.9292 51.1537 51.1089 51.7842 52.3932 52.0397C53.6775 52.2951 55.0087 52.164 56.2185 51.6629C57.4282 51.1618 58.4623 50.3132 59.1898 49.2245C59.9172 48.1357 60.3055 46.8556 60.3055 45.5462C60.302 43.7913 59.6034 42.1094 58.3625 40.8685C57.1216 39.6276 55.4397 38.929 53.6848 38.9255V38.9255Z" fill="#343657"/>
<path d="M53.6839 51.2903C52.5472 51.2906 51.4359 50.9538 50.4906 50.3225C49.5453 49.6912 48.8085 48.7937 48.3733 47.7435C47.9382 46.6934 47.8242 45.5378 48.0459 44.4229C48.2676 43.308 48.8149 42.2838 49.6187 41.48C50.4225 40.6763 51.4466 40.1289 52.5615 39.9072C53.6764 39.6855 54.832 39.7995 55.8822 40.2346C56.9323 40.6698 57.8298 41.4066 58.4611 42.3519C59.0925 43.2972 59.4293 44.4085 59.4289 45.5452C59.4272 47.0684 58.8214 48.5286 57.7443 49.6057C56.6673 50.6827 55.207 51.2885 53.6839 51.2903V51.2903ZM53.6839 40.1302C52.6129 40.1299 51.5658 40.4472 50.675 41.042C49.7843 41.6368 49.09 42.4824 48.6799 43.4719C48.2698 44.4613 48.1623 45.5501 48.3711 46.6006C48.5798 47.6512 49.0954 48.6162 49.8527 49.3736C50.6099 50.1311 51.5748 50.647 52.6252 50.8561C53.6757 51.0651 54.7645 50.958 55.7541 50.5482C56.7437 50.1384 57.5895 49.4444 58.1845 48.5538C58.7796 47.6633 59.0972 46.6163 59.0972 45.5452C59.0955 44.1099 58.5247 42.7339 57.5099 41.7188C56.4951 40.7037 55.1192 40.1324 53.6839 40.1302V40.1302Z" fill="#343657"/>
<path d="M53.0589 49.8306V49.1473C52.8117 49.0793 52.5713 49.0278 52.3407 48.9482C51.8891 48.8052 51.4995 48.5128 51.2362 48.119C51.0177 47.7756 50.9068 47.3748 50.9177 46.968H52.2445C52.3059 47.4655 52.5447 47.8138 53.0555 47.9515V46.162C52.7902 46.084 52.5248 46.0111 52.2628 45.9281C51.9741 45.8466 51.7095 45.6964 51.4916 45.4903C51.2656 45.2655 51.1159 44.9755 51.0637 44.661C50.9834 44.2738 51.0121 43.872 51.1466 43.5001C51.2427 43.233 51.3966 42.9905 51.5973 42.7898C51.798 42.5891 52.0405 42.4352 52.3076 42.3391C52.5254 42.2713 52.7469 42.2159 52.971 42.1733L53.0506 42.1567V41.2578H54.2911V41.3457C54.2911 41.6028 54.2911 41.8598 54.2911 42.1169C54.2911 42.1799 54.311 42.1998 54.3724 42.2131C54.798 42.2938 55.197 42.4791 55.5333 42.7521C55.8897 43.0444 56.1259 43.4577 56.1967 43.9131C56.2183 44.0358 56.2283 44.1602 56.2432 44.2912H54.8948C54.8918 44.1071 54.8349 43.9279 54.7311 43.7759C54.6274 43.6238 54.4813 43.5054 54.311 43.4354V45.1138C54.3558 45.1254 54.4056 45.1387 54.457 45.1486C54.8207 45.2184 55.1751 45.3297 55.5134 45.4803C55.7673 45.5904 55.9865 45.7674 56.1478 45.9923C56.309 46.2172 56.4062 46.4816 56.4289 46.7574C56.5086 47.2718 56.3836 47.7969 56.0807 48.2202C55.8337 48.5644 55.486 48.8234 55.0856 48.9615C54.8368 49.0478 54.578 49.1041 54.3094 49.1771V49.8405L53.0589 49.8306ZM54.3044 46.4174V47.9863C54.5051 47.9558 54.6941 47.8722 54.8517 47.7442C55.1403 47.507 55.2414 46.9149 54.8202 46.6612C54.6547 46.5692 54.4835 46.4878 54.3077 46.4174H54.3044ZM53.0589 44.8169V43.3061C52.8967 43.3774 52.7388 43.4582 52.5862 43.5482C52.2429 43.7771 52.1881 44.4139 52.6276 44.6362C52.7603 44.7058 52.9063 44.7539 53.0589 44.8169Z" fill="#343657"/>
<path d="M38.8164 26.4023C38.8164 26.4023 38.8811 27.5384 37.4697 27.9199C37.4697 27.9199 38.5378 27.9033 38.8629 29.444C38.8629 29.444 38.9839 27.9514 40.256 27.8005C40.251 27.7988 39.0586 27.905 38.8164 26.4023Z" fill="#FFBC0E"/>
<path d="M38.8575 29.6106C38.8189 29.6114 38.7813 29.5988 38.751 29.5749C38.7207 29.551 38.6997 29.5173 38.6917 29.4795C38.4031 28.0881 37.4859 28.0881 37.4693 28.0881C37.4291 28.0885 37.3901 28.0742 37.3596 28.048C37.3291 28.0217 37.3091 27.9853 37.3035 27.9454C37.2976 27.9052 37.3067 27.8643 37.329 27.8304C37.3514 27.7964 37.3853 27.7719 37.4246 27.7613C38.6867 27.4296 38.6552 26.4561 38.6535 26.4146C38.6512 26.3929 38.6533 26.3708 38.6595 26.3499C38.6657 26.3289 38.676 26.3093 38.6898 26.2923C38.7036 26.2753 38.7206 26.2611 38.7398 26.2507C38.7591 26.2402 38.7802 26.2337 38.8019 26.2314C38.8237 26.2291 38.8457 26.2311 38.8667 26.2373C38.8877 26.2436 38.9073 26.2539 38.9243 26.2676C38.9413 26.2814 38.9555 26.2984 38.9659 26.3177C38.9764 26.3369 38.9829 26.358 38.9852 26.3798C39.2008 27.7066 40.2025 27.6419 40.244 27.6386C40.288 27.6342 40.3319 27.6475 40.3661 27.6755C40.4004 27.7035 40.422 27.7439 40.4264 27.7879C40.4308 27.8319 40.4176 27.8758 40.3896 27.91C40.3616 27.9442 40.3212 27.9659 40.2772 27.9703C39.1577 28.1013 39.035 29.4066 39.03 29.4629C39.0265 29.5026 39.0088 29.5397 38.9801 29.5674C38.9515 29.5952 38.9139 29.6116 38.8741 29.6139L38.8575 29.6106ZM37.9967 27.8973C38.3809 28.0956 38.6798 28.4269 38.8376 28.8294C38.9722 28.4182 39.2453 28.0665 39.6105 27.8343C39.2617 27.6806 38.9843 27.4002 38.8343 27.0498C38.6632 27.4219 38.3667 27.7219 37.9967 27.8973V27.8973Z" fill="#343657"/>
<path d="M67.2239 36.1797C67.2239 36.1797 67.2985 37.4882 65.6699 37.9228C65.6699 37.9228 66.8989 37.9045 67.272 39.6791C67.272 39.6791 67.4113 37.9576 68.8757 37.7868C68.8757 37.7868 67.5042 37.9078 67.2239 36.1797Z" fill="#FFBC0E"/>
<path d="M67.272 39.8415C67.2335 39.8424 67.1958 39.8297 67.1655 39.8058C67.1352 39.7819 67.1143 39.7482 67.1062 39.7105C66.7645 38.0868 65.6832 38.0835 65.6683 38.0868C65.6243 38.0927 65.5797 38.081 65.5444 38.0541C65.5091 38.0272 65.486 37.9873 65.48 37.9433C65.4741 37.8994 65.4859 37.8548 65.5128 37.8195C65.5397 37.7842 65.5795 37.761 65.6235 37.7551C67.0962 37.3604 67.0564 36.2276 67.0548 36.1812C67.0499 36.1372 67.0627 36.0931 67.0904 36.0586C67.1181 36.024 67.1584 36.0019 67.2024 35.9971C67.2463 35.9923 67.2905 36.0051 67.325 36.0328C67.3595 36.0605 67.3816 36.1007 67.3865 36.1447C67.6385 37.7037 68.8094 37.6174 68.8592 37.6141C68.9024 37.6104 68.9454 37.6238 68.9789 37.6514C69.0124 37.679 69.0337 37.7186 69.0383 37.7617C69.043 37.8053 69.0302 37.8488 69.0029 37.883C68.9756 37.9172 68.9358 37.9392 68.8924 37.9442C67.5838 38.0968 67.4412 39.6193 67.4362 39.6839C67.4327 39.7236 67.415 39.7607 67.3864 39.7884C67.3577 39.8161 67.3201 39.8326 67.2803 39.8349L67.272 39.8415ZM66.2239 37.8961C66.7016 38.125 67.0702 38.5324 67.2505 39.0305C67.2858 38.9256 67.3279 38.8231 67.3765 38.7237C67.5463 38.344 67.8335 38.0289 68.1958 37.8248C67.9802 37.7377 67.7846 37.6075 67.6212 37.442C67.4578 37.2766 67.3299 37.0795 67.2455 36.8628C67.0473 37.3237 66.6824 37.6927 66.2239 37.8961Z" fill="#343657"/>
<path d="M60.4212 27.1523C60.4212 27.1523 60.4975 28.4592 58.8672 28.8954C58.8672 28.8954 60.0961 28.8755 60.471 30.6501C60.471 30.6501 60.6103 28.9303 62.0731 28.7594C62.0731 28.7594 60.7015 28.8805 60.4212 27.1523Z" fill="#FFBC0E"/>
<path d="M60.4709 30.8192C60.4324 30.8201 60.3947 30.8075 60.3644 30.7836C60.3342 30.7596 60.3132 30.7259 60.3051 30.6882C59.9734 29.0811 58.9153 29.0679 58.8655 29.0645C58.8437 29.0675 58.8216 29.0661 58.8004 29.0605C58.7791 29.0549 58.7592 29.0451 58.7417 29.0318C58.7064 29.0049 58.6832 28.9651 58.6773 28.9211C58.6713 28.8771 58.6831 28.8325 58.71 28.7972C58.7369 28.7619 58.7768 28.7388 58.8207 28.7328C60.2935 28.3398 60.2553 27.207 60.2537 27.1589C60.2534 27.1179 60.2684 27.0783 60.2956 27.0477C60.3229 27.017 60.3605 26.9976 60.4013 26.9931C60.4433 26.9887 60.4854 27.0005 60.5189 27.0261C60.5525 27.0517 60.5751 27.0891 60.5821 27.1307C60.8325 28.6781 62.0067 28.6018 62.0564 28.5985C62.1004 28.5941 62.1444 28.6074 62.1786 28.6354C62.2128 28.6633 62.2345 28.7038 62.2389 28.7478C62.2433 28.7918 62.23 28.8357 62.202 28.8699C62.174 28.9041 62.1336 28.9258 62.0896 28.9302C60.7811 29.0828 60.6384 30.6053 60.6318 30.67C60.6287 30.7097 60.6114 30.747 60.5831 30.775C60.5548 30.803 60.5173 30.8199 60.4776 30.8225L60.4709 30.8192ZM59.4228 28.8722C59.9 29.1021 60.2679 29.51 60.4477 30.0082C60.483 29.9028 60.5251 29.7997 60.5738 29.6997C60.7442 29.3209 61.0312 29.0065 61.3931 28.8025C61.178 28.7144 60.983 28.5838 60.8197 28.4185C60.6564 28.2532 60.5282 28.0567 60.4427 27.8406C60.2463 28.3016 59.8816 28.6705 59.4228 28.8722V28.8722Z" fill="#343657"/>
<path d="M49.1165 23.1367C49.1165 23.1367 49.1928 24.4436 47.5625 24.8798C47.5625 24.8798 48.7931 24.8599 49.1663 26.6345C49.1663 26.6345 49.3056 24.9146 50.7684 24.7438C50.7684 24.7438 49.3968 24.8649 49.1165 23.1367Z" fill="#FFBC0E"/>
<path d="M49.1664 26.8004C49.1279 26.8013 49.0902 26.7887 49.0599 26.7648C49.0297 26.7409 49.0087 26.7071 49.0006 26.6694C48.6689 25.0673 47.6141 25.0458 47.5627 25.0458C47.5222 25.0461 47.4829 25.0316 47.4524 25.005C47.4218 24.9785 47.4021 24.9416 47.3968 24.9015C47.3918 24.8618 47.4013 24.8217 47.4236 24.7884C47.4458 24.7552 47.4793 24.7312 47.5179 24.7207C48.9906 24.326 48.9525 23.1932 48.9508 23.1451C48.9462 23.1011 48.9593 23.0571 48.9871 23.0227C49.0149 22.9884 49.0553 22.9665 49.0993 22.9618C49.1433 22.9572 49.1873 22.9703 49.2216 22.9981C49.256 23.0259 49.2779 23.0663 49.2825 23.1103C49.5363 24.6676 50.7072 24.583 50.7569 24.5781C50.8009 24.5737 50.8449 24.5869 50.8791 24.6149C50.9133 24.6429 50.935 24.6833 50.9394 24.7273C50.9438 24.7713 50.9305 24.8152 50.9025 24.8495C50.8745 24.8837 50.8341 24.9054 50.7901 24.9098C49.4816 25.064 49.3389 26.5865 49.3323 26.6512C49.3288 26.6906 49.3114 26.7275 49.2831 26.7552C49.2548 26.7828 49.2175 26.7995 49.178 26.8021L49.1664 26.8004ZM48.1183 24.855C48.5958 25.0837 48.964 25.4913 49.1432 25.9894C49.178 25.8916 49.2195 25.7871 49.2693 25.681C49.4406 25.3028 49.7275 24.9887 50.0886 24.7837C49.8736 24.6958 49.6788 24.5652 49.5157 24.3999C49.3527 24.2346 49.2248 24.0379 49.1399 23.8218C48.9417 24.2826 48.5769 24.6517 48.1183 24.855Z" fill="#343657"/>
</svg>
