<?xml version="1.0" encoding="utf-8"?>
<!-- Generator: Adobe Illustrator 24.0.1, SVG Export Plug-In . SVG Version: 6.00 Build 0)  -->
<svg version="1.1" id="Layer_1" xmlns="http://www.w3.org/2000/svg" xmlns:xlink="http://www.w3.org/1999/xlink" x="0px" y="0px"
	 viewBox="0 0 400 300" style="enable-background:new 0 0 400 300;" xml:space="preserve">
<style type="text/css">
	.st0{fill:url(#SVGID_1_);}
	.st1{opacity:0.32;fill:url(#SVGID_2_);enable-background:new    ;}
	.st2{opacity:0.32;fill:url(#SVGID_3_);enable-background:new    ;}
	.st3{fill:#C65517;}
	.st4{fill:#EA6C0F;}
	.st5{fill:#FF7C28;}
	.st6{fill:#282B4E;}
	.st7{opacity:0.25;enable-background:new    ;}
	.st8{fill:#ECA016;}
	.st9{fill:#FFB72F;}
	.st10{fill:#FFC863;}
	.st11{fill:#FDEDCB;}
	.st12{fill:#1B8C7C;}
	.st13{fill:#FFFFFF;}
	.st14{fill:#FFA852;}
	.st15{fill:#3AB4A7;}
	.st16{fill:#F49138;}
	.st17{fill:#42210B;}
	.st18{fill:#B26A29;}
	.st19{fill:#723D49;}
	.st20{fill:none;}
	.st21{fill:#CCCCCC;}
</style>
<title>61-70</title>
<linearGradient id="SVGID_1_" gradientUnits="userSpaceOnUse" x1="38.0867" y1="180.5721" x2="371.7896" y2="180.5721">
	<stop  offset="0" style="stop-color:#F5524E"/>
	<stop  offset="1" style="stop-color:#D0342F"/>
</linearGradient>
<path class="st0" d="M40.5,193l146.6,84.6c3.8,2.2,8.4,2.2,12.2,0l169.1-96.1c3.3-1.9,4.4-6.1,2.5-9.4c-0.6-1.1-1.5-1.9-2.5-2.5
	L217.8,82.6c-1.5-0.9-3.3-0.9-4.8,0L40.4,184.8c-2.3,1.3-3,4.2-1.7,6.5C39.2,192,39.8,192.6,40.5,193z"/>
<linearGradient id="SVGID_2_" gradientUnits="userSpaceOnUse" x1="132.1274" y1="126.9326" x2="167.2174" y2="161.2427" gradientTransform="matrix(1 0 0 -1 0 300)">
	<stop  offset="0" style="stop-color:#FFFFFF;stop-opacity:0"/>
	<stop  offset="0.99" style="stop-color:#552D00"/>
</linearGradient>
<polyline class="st1" points="221,137 96.9,210.4 62.6,190.2 151,138.3 "/>
<linearGradient id="SVGID_3_" gradientUnits="userSpaceOnUse" x1="196.8943" y1="50.2972" x2="220.5043" y2="87.6072" gradientTransform="matrix(1 0 0 -1 0 300)">
	<stop  offset="0" style="stop-color:#FFFFFF;stop-opacity:0"/>
	<stop  offset="0.99" style="stop-color:#552D00"/>
</linearGradient>
<polyline class="st2" points="325.7,197.2 196.4,271.7 116.4,226 172.4,194.8 "/>
<polyline class="st3" points="203.3,225.4 214.1,219 211.1,215.9 202.8,221.3 "/>
<polyline class="st4" points="196.4,217.2 209,210 213.5,215.2 203.3,221.2 "/>
<polygon class="st5" points="203.3,221.2 196.4,217.2 196.4,221.2 203.3,225.4 "/>
<polyline class="st3" points="184.1,214.5 194.9,208.1 191.9,205 183.6,210.4 "/>
<polyline class="st4" points="177.3,206.3 189.8,199.2 194.4,204.3 184.1,210.4 "/>
<polygon class="st5" points="184.1,210.4 177.3,206.3 177.3,210.4 184.1,214.5 "/>
<polyline class="st3" points="164.8,203.6 175.6,197.2 172.6,194 164.3,199.4 "/>
<polyline class="st4" points="158,195.4 170.5,188.2 175.1,193.4 164.8,199.4 "/>
<polygon class="st5" points="164.8,199.4 158,195.4 158,199.4 164.8,203.6 "/>
<polyline class="st3" points="225.1,238.1 235.9,231.8 232.9,228.6 224.6,234 "/>
<polyline class="st4" points="218.3,229.9 230.8,222.8 235.4,227.9 225.1,234 "/>
<polygon class="st5" points="225.1,234 218.3,229.9 218.3,234 225.1,238.1 "/>
<polyline class="st3" points="279.6,224.2 268.9,217.9 271.8,214.7 280.1,220.1 "/>
<polyline class="st4" points="286.5,216 273.9,208.9 269.4,214.1 279.6,220.1 "/>
<polygon class="st5" points="279.6,220.1 286.5,216 286.5,220.1 279.6,224.2 "/>
<polyline class="st3" points="298,213.6 287.2,207.2 290.2,204.1 298.5,209.5 "/>
<polyline class="st4" points="304.9,205.4 292.3,198.2 287.8,203.4 298,209.4 "/>
<polygon class="st5" points="298,209.4 304.9,205.4 304.9,209.4 298,213.6 "/>
<polyline class="st3" points="318.1,201.4 307.3,195.1 310.3,191.9 318.6,197.3 "/>
<polyline class="st4" points="325,193.2 312.4,186.1 307.9,191.3 318.1,197.3 "/>
<polygon class="st5" points="318.1,197.3 325,193.2 325,197.3 318.1,201.4 "/>
<polyline class="st3" points="258.1,237.2 247.3,230.8 250.2,227.6 258.5,233.1 "/>
<polyline class="st4" points="264.9,229 252.4,221.8 247.8,227 258.1,233 "/>
<polygon class="st5" points="258.1,233 264.9,229 264.9,233 258.1,237.2 "/>
<path class="st6" d="M160.9,187.6v2.4l81.3,47.2c0,0,83.9-49.7,83.9-49.9s0-2.6,0-2.6"/>
<path class="st7" d="M160.9,187.6v2.4l81.3,47.2c0,0,83.9-49.7,83.9-49.9s0-2.6,0-2.6"/>
<polygon class="st6" points="242.4,234.2 326.1,184.6 243.6,137 160.9,187.6 "/>
<path class="st8" d="M242.2,194.5v-23.4l20.9-11.7v23.2L242.2,194.5z"/>
<path class="st9" d="M242.2,171.1l-20.4-11.7c0,0-0.6,23.6,0,23.9s20.4,11.1,20.4,11.1V171.1z"/>
<polygon class="st10" points="221.8,159.4 242.2,147 263.1,159.4 242.2,171.1 "/>
<polygon class="st11" points="229.6,154.7 250.8,166.3 250.8,178.5 256.9,175.4 256.9,162.9 235.7,151 "/>
<path class="st8" d="M217.6,207.7v-23.4l20.9-11.7v23.2L217.6,207.7z"/>
<path class="st9" d="M217.6,184.3l-20.4-11.7c0,0-0.6,23.6,0,23.9s20.4,11.1,20.4,11.1V184.3z"/>
<polygon class="st10" points="197.3,172.7 217.6,160.2 238.5,172.7 217.6,184.3 "/>
<polygon class="st11" points="205,167.9 226.2,179.5 226.2,191.7 232.3,188.7 232.3,176.1 211.1,164.2 "/>
<path class="st8" d="M266.4,208.1v-23.4l20.9-11.7v23.2L266.4,208.1z"/>
<path class="st9" d="M266.4,184.7L246,173c0,0-0.6,23.6,0,23.9s20.4,11.1,20.4,11.1L266.4,184.7z"/>
<polygon class="st10" points="246,173 266.4,160.6 287.3,173 266.4,184.7 "/>
<polygon class="st11" points="253.8,168.3 275,179.9 275,192.1 281.1,189 281.1,176.5 259.9,164.6 "/>
<path class="st8" d="M242.3,221.3v-23.4l20.9-11.7v23.2L242.3,221.3z"/>
<path class="st9" d="M242.3,197.9L222,186.2c0,0-0.6,23.6,0,23.9s20.4,11.1,20.4,11.1L242.3,197.9z"/>
<polygon class="st10" points="222,186.2 242.3,173.8 263.2,186.2 242.3,197.9 "/>
<polygon class="st11" points="229.7,181.5 250.9,193.1 250.9,205.3 257,202.3 257,189.7 235.8,177.8 "/>
<path class="st8" d="M242,187.9v-23.4l20.9-11.7v23.2L242,187.9z"/>
<path class="st9" d="M242,164.6l-20.4-11.7c0,0-0.6,23.6,0,23.9s20.4,11.1,20.4,11.1V164.6z"/>
<polygon class="st10" points="221.7,152.9 242,140.5 262.9,152.9 242,164.6 "/>
<polygon class="st11" points="229.4,148.2 250.6,159.8 250.6,172 256.7,168.9 256.7,156.4 235.5,144.4 "/>
<path class="st8" d="M185.5,157.2v-39.6L221,97.7V137L185.5,157.2z"/>
<path class="st9" d="M185.5,117.5L151,97.7c0,0-1,40,0,40.6s34.5,18.9,34.5,18.9L185.5,117.5z"/>
<polygon class="st10" points="151,97.7 185.5,76.6 221,97.7 185.5,117.5 "/>
<polygon class="st11" points="164.2,89.7 200.1,109.4 200.1,130.1 210.4,124.9 210.4,103.6 174.5,83.3 "/>
<polyline class="st12" points="111.8,88.1 123.6,96 117.2,102.4 110.2,102.4 "/>
<path class="st13" d="M103.4,200.1c0,0,0.6,5.6,3.6,6.7s4.4,3,2.7,4.4s-10.2-2.2-10.2-2.2l-3-6.6l-0.2,4.9l-3.2-1.8l0.4-17.7
	l8.7,2.4L103.4,200.1z"/>
<path class="st13" d="M119,192c0,0,0.6,5.6,3.5,6.6s4.4,2.9,2.6,4.3s-10.1-2.2-10.1-2.2l-3-6.6l-0.3,4.8l-3.2-1.8l0.6-16.7l8.4,1.4
	L119,192z"/>
<path class="st14" d="M107.3,123.7l-3.3,72.5c-3.4,2.1-12.8,0.8-12.8,0.8s-4-58.7,2.8-74.6"/>
<path class="st14" d="M105.7,117.9l1.8,70.6c0,0,9.3,1.3,12.7-0.8l-2.4-72.9"/>
<path class="st15" d="M94,122.4c4.3,2.9,11.8,3.8,17.4,2.1c1.1-0.8,2.2-1.6,3.1-2.7c-0.2-5.5-0.5-11-0.5-16.5s0.2-12.1-2.3-17.3
	c-1.6-0.8-3.2-1.4-4.9-1.9c-2.6-0.7-7.9,1.9-10.1,3.3c-2.9,2-4.9,5.1-5.4,8.6c1.2,6.5,1.9,13,2.3,19.6
	C93.8,119.2,93.9,120.8,94,122.4z"/>
<path class="st16" d="M107.7,84.7c0,0-0.1,3.8-1.6,4.4s-5.2-1.4-5.2-2.4s2.5-3.4,2.5-3.4"/>
<path class="st12" d="M100,87.8l0.6-3.1l5.9,3.9v3.4C106.5,92.1,101.9,91.2,100,87.8z"/>
<path class="st12" d="M106.5,88.7l1.8,2.4c0,0,1-2.7,0.3-4.2s-1.6-1.8-1.6-1.8S107.4,87.7,106.5,88.7z"/>
<path class="st14" d="M112.2,75.9c0,0,0.6,10.5-5.1,10.9s-5.1-4.1-5.1-4.1s-1.4-9.6,3.7-10.3S112.2,75.9,112.2,75.9z"/>
<path class="st17" d="M108.4,79.3l-2.8,0.3l-0.9-2.2l0.6,8.2c0.1,0.8,0.1,1.7,0,2.5c0,0-5.8,0.3-9.1-2.7s-0.6-15.5,5.7-16.3
	s12.2,2,12,9l-1.4,0.5L108.4,79.3z"/>
<path class="st8" d="M128.6,131.3v-21.1l18.9-10.6v20.9L128.6,131.3z"/>
<path class="st9" d="M128.6,110.2l-18.4-10.6c0,0-0.5,21.3,0,21.6s18.4,10,18.4,10V110.2z"/>
<polygon class="st10" points="110.2,99.6 128.6,88.4 147.5,99.6 128.6,110.2 "/>
<polygon class="st11" points="117.2,95.4 136.3,105.9 136.3,116.9 141.8,114.1 141.8,102.8 122.7,92 "/>
<path class="st14" d="M112.3,123.2l9.3,5.7c0,0,3.3,1.4,4.6,0.5c0.4-0.3-5.6-3.9-5.6-3.9s3.3-1.3,3.3-1.8s-1.9-0.8-2.3-0.8
	s-7.1-3.8-7.1-3.8L112.3,123.2z"/>
<path class="st12" d="M93,108.2l0.7,9.4c0,0,12.9,6.6,18.6,6.3S93,108.2,93,108.2z"/>
<path class="st15" d="M114.5,114.4c-0.2-0.2-0.4-0.4-0.6-0.7c-2.9-1.6-5.6-3.6-7.8-6.1c-2.2-2.3-4.9-5.3-5.8-8.4c0,0,0-0.1,0-0.1
	c-1.4-2.7-1.9-5.8-1.5-8.8c-0.3-0.3-0.7-0.5-1.1-0.6c-2.5,0.1-5.2,3.2-6.3,5.4s-1,5-0.4,7.6c0.5,1.9,1.1,3.7,1.9,5.4
	c0.9,2.1,2.2,4,3.8,5.7c2.8,2.7,5.7,5.2,8.8,7.6c3.3,2.3,6.8,4.3,10.4,6c0.8-3.4,1.4-6.9,1.8-10.4
	C116.6,116.2,115.6,115.4,114.5,114.4z"/>
<path class="st12" d="M100,100.1c0,0,9.1,12.9,14.6,14.3L100,100.1z"/>
<path class="st18" d="M107.1,130.2l-3.6,66.5c0,0.6,1,0.6,1,0l3.6-66.5C108.1,129.6,107.1,129.6,107.1,130.2z"/>
<path class="st6" d="M316.1,77.3l-1,74.4c0,2-1.7,3.7-3.7,3.6c-0.6,0-1.2-0.2-1.8-0.5l-48.3-27.5c-1.2-0.7-1.9-1.9-1.9-3.2V46
	c0-1.1,0.9-2.1,2.1-2.1c0.4,0,0.7,0.1,1,0.3l51.7,29.9C315.4,74.8,316.1,76,316.1,77.3z"/>
<path class="st19" d="M274,50.8c0.1,0,0,9.6,0,9.6l27.5,15.9v-9.5L274,50.8z"/>
<polygon class="st13" points="265.5,55.9 309.9,81.6 309.9,143.4 265.5,119 "/>
<line class="st20" x1="271.3" y1="74.4" x2="300.3" y2="89.9"/>
<path class="st21" d="M270.6,75.7l29,15.5c1.7,0.9,3.2-1.7,1.5-2.6l-29-15.5C270.4,72.2,268.9,74.8,270.6,75.7z"/>
<line class="st20" x1="271.3" y1="86.2" x2="300.3" y2="101.7"/>
<path class="st21" d="M270.6,87.5l29,15.5c1.7,0.9,3.2-1.7,1.5-2.6l-29-15.5C270.4,84,268.9,86.6,270.6,87.5z"/>
<line class="st20" x1="271.3" y1="98" x2="300.3" y2="113.5"/>
<path class="st21" d="M270.6,99.3l29,15.5c1.7,0.9,3.2-1.7,1.5-2.6l-29-15.5C270.4,95.8,268.9,98.4,270.6,99.3z"/>
<line class="st20" x1="271.3" y1="109.8" x2="300.3" y2="125.3"/>
<path class="st21" d="M270.6,111.1l29,15.5c1.7,0.9,3.2-1.7,1.5-2.6l-29-15.5C270.4,107.6,268.9,110.2,270.6,111.1z"/>
</svg>
