<?xml version="1.0" encoding="UTF-8" standalone="no"?><!-- Generator: Gravit.io --><svg xmlns="http://www.w3.org/2000/svg" xmlns:xlink="http://www.w3.org/1999/xlink" style="isolation:isolate" viewBox="0 0 60 40" width="60pt" height="40pt"><defs><clipPath id="_clipPath_XuzFBw8zsMxnkH8AMt9MbjoiMY0RPaXW"><rect width="60" height="40"/></clipPath></defs><g clip-path="url(#_clipPath_XuzFBw8zsMxnkH8AMt9MbjoiMY0RPaXW)"><path d=" M 58.02 18.888 C 57.512 18.322 45.298 5 30 5 C 14.702 5 2.488 18.322 1.98 18.888 C 1.414 19.521 1.414 20.479 1.98 21.112 C 2.488 21.678 14.702 35 30 35 C 45.298 35 57.512 21.678 58.02 21.112 C 58.586 20.479 58.586 19.521 58.02 18.888 Z  M 30 31.667 C 23.568 31.667 18.333 26.432 18.333 20 C 18.333 13.568 23.568 8.333 30 8.333 C 36.432 8.333 41.667 13.568 41.667 20 C 41.667 26.432 36.432 31.667 30 31.667 Z " fill="rgb(255,255,255)"/><path d=" M 31.667 16.667 C 31.667 14.99 32.499 13.515 33.765 12.608 C 32.629 12.026 31.362 11.667 30 11.667 C 25.405 11.667 21.667 15.405 21.667 20 C 21.667 24.595 25.405 28.333 30 28.333 C 34.114 28.333 37.519 25.33 38.191 21.405 C 34.835 22.485 31.667 19.947 31.667 16.667 Z " fill="rgb(255,255,255)"/></g></svg>