<svg width="150" height="141" viewBox="0 0 150 141" fill="none" xmlns="http://www.w3.org/2000/svg">
<path d="M107.865 42.8357C104.246 39.3022 99.2464 37.5362 92.8637 37.5362C91.0974 37.5362 89.2947 37.8424 87.4574 38.4547C85.6194 39.0673 83.9095 39.8939 82.3296 40.9338C80.7477 41.9734 79.3883 42.9497 78.2478 43.8611C77.1086 44.7729 76.0256 45.7418 75.0001 46.7672C73.9742 45.7418 72.8915 44.7729 71.7522 43.8611C70.6121 42.9497 69.2521 41.974 67.6705 40.9338C66.0891 39.8935 64.3796 39.0675 62.542 38.4547C60.7045 37.8426 58.9021 37.5362 57.1358 37.5362C50.7535 37.5362 45.7536 39.3026 42.1353 42.8357C38.5171 46.3686 36.7078 51.2688 36.7078 57.5368C36.7078 59.4458 37.0431 61.4124 37.7123 63.4343C38.3816 65.4572 39.1442 67.1812 39.9988 68.6054C40.8532 70.0296 41.8222 71.4184 42.9049 72.7719C43.9876 74.1252 44.7788 75.0579 45.2769 75.5708C45.7753 76.0836 46.1672 76.4544 46.4521 76.6825L73.1196 102.41C73.6326 102.923 74.2593 103.18 75 103.18C75.7406 103.18 76.3678 102.923 76.8805 102.41L103.506 76.7671C110.03 70.2436 113.292 63.8331 113.292 57.5362C113.292 51.2677 111.483 46.368 107.865 42.8357ZM99.7874 72.7505L75.0001 96.6402L50.1705 72.7074C44.8425 67.3807 42.1789 62.3228 42.1789 57.5362C42.1789 55.2288 42.4852 53.1914 43.0974 51.4253C43.7101 49.659 44.4935 48.2554 45.4479 47.2155C46.4025 46.1753 47.5634 45.3284 48.9309 44.6726C50.2992 44.0174 51.6382 43.5757 52.9486 43.3478C54.2589 43.1203 55.6548 43.0064 57.1366 43.0064C58.6179 43.0064 60.2137 43.3692 61.9232 44.096C63.6323 44.8224 65.2064 45.7342 66.6451 46.8309C68.084 47.9285 69.3163 48.954 70.3424 49.9081C71.3679 50.8631 72.2223 51.7386 72.9063 52.5365C73.4188 53.1635 74.1174 53.477 75.0003 53.477C75.8834 53.477 76.5813 53.1635 77.0944 52.5365C77.7782 51.7386 78.6332 50.8627 79.6587 49.9081C80.6844 48.954 81.9168 47.9289 83.3552 46.8309C84.7941 45.7342 86.3682 44.8224 88.0783 44.096C89.7871 43.3694 91.3834 43.0064 92.8649 43.0064C94.3464 43.0064 95.7418 43.1203 97.0527 43.3478C98.3636 43.5755 99.7025 44.0174 101.07 44.6726C102.438 45.3282 103.599 46.1758 104.553 47.2155C105.508 48.2554 106.291 49.659 106.904 51.4253C107.516 53.1914 107.822 55.2288 107.822 57.5362C107.822 62.3228 105.144 67.3948 99.7874 72.7505Z" fill="#A91F23"/>
</svg>
