<?xml version="1.0" encoding="UTF-8" standalone="no"?><!-- Generator: Gravit.io --><svg xmlns="http://www.w3.org/2000/svg" xmlns:xlink="http://www.w3.org/1999/xlink" style="isolation:isolate" viewBox="0 0 300 300" width="300pt" height="300pt"><defs><clipPath id="_clipPath_gocLq2CB2RrzPukskANi0CZonZnzpXtG"><rect width="300" height="300"/></clipPath></defs><g clip-path="url(#_clipPath_gocLq2CB2RrzPukskANi0CZonZnzpXtG)"><path d=" M 65.925 195.167 L 65.925 226.37 L 116.42 226.37 L 116.42 195.167" fill="rgb(104,225,253)"/><ellipse vector-effect="non-scaling-stroke" cx="91.17242833901796" cy="195.1673593100018" rx="25.247193353955765" ry="12.4139023800181" fill="rgb(104,225,253)"/><g opacity="0.73"><ellipse vector-effect="non-scaling-stroke" cx="91.17242833901796" cy="195.1673593100018" rx="25.247193353955765" ry="12.4139023800181" fill="rgb(0,0,0)"/></g><ellipse vector-effect="non-scaling-stroke" cx="91.17242833901796" cy="227.5860976199819" rx="25.247193353955765" ry="12.4139023800181" fill="rgb(104,225,253)"/><path d=" M 119.439 122.613 C 114.113 120.516 106.732 113.177 100.294 113.408 C 98.17 119.593 96.859 126.029 96.394 132.553 C 95.167 143.167 94.921 153.872 95.66 164.531 Q 95.891 168.096 96.247 171.64 C 96.299 172.369 96.491 173.081 96.813 173.737 Q 96.813 186.088 96.813 198.439 C 96.813 198.873 97.165 199.225 97.6 199.225 C 98.034 199.225 98.386 198.873 98.386 198.439 Q 98.386 186.549 98.386 174.68 C 100.916 173.848 103.344 172.729 105.62 171.346 C 110.365 168.371 113.953 163.866 115.791 158.576 C 119.859 147.231 117.3 134.566 121.159 123.347 C 120.551 123.053 119.984 122.844 119.439 122.613 Z " fill="rgb(41,118,0)"/><path d=" M 108.514 104.034 C 105.499 105.813 103.009 108.36 101.301 111.415 C 100.857 112.076 100.477 112.779 100.168 113.512 L 99.959 113.995 L 99.959 113.995 C 99.472 115.275 99.066 116.585 98.742 117.916 C 99.357 116.918 100.309 116.173 101.426 115.819 C 102.747 115.244 104.218 115.111 105.62 115.442 C 106.989 115.977 108.285 116.682 109.479 117.539 C 111.282 118.629 113.023 119.845 114.784 120.978 C 123.172 126.283 134.286 126.828 140.744 119.09 C 140.744 118.776 140.912 118.482 140.954 118.168 C 141.939 112.883 127.009 93.277 108.514 104.034 Z " fill="rgb(95,173,0)"/><path d=" M 137.075 122.403 L 138.123 121.711 C 138.154 121.487 138.076 121.261 137.913 121.103 C 132.86 115.903 127.429 110.828 120.509 108.27 C 115.557 106.388 110.194 105.859 104.97 106.739 C 104.404 107.389 103.901 108.081 103.398 108.836 C 109.349 107.282 115.652 107.807 121.264 110.325 C 127.366 112.925 132.231 117.601 136.802 122.299 C 136.885 122.351 136.978 122.387 137.075 122.403 L 137.075 122.403 Z " fill="rgb(41,118,0)"/><path d=" M 52.337 133.706 C 44.881 137.591 40.447 145.535 41.055 153.92 C 41.643 168.809 66.219 154.277 72.719 141.695 C 79.22 129.114 80.247 147.063 80.247 147.063" fill="rgb(41,118,0)"/><path d=" M 74.418 128.506 C 69.811 128.425 65.22 129.062 60.809 130.393 C 57.875 131.109 55.052 132.223 52.421 133.706 C 53.964 134.737 55.608 135.609 57.328 136.306 C 60.532 137.258 63.324 139.26 65.254 141.989 C 65.648 142.701 65.965 143.453 66.198 144.233 C 67.687 149.139 66.408 155.074 68.421 160.002 C 70.434 164.929 74.544 169.27 80.352 169.627 C 87.272 170.046 90.438 163.336 91.802 157.653 C 93.165 151.97 95.031 144.065 92.85 138.151 C 90.208 131.294 80.96 128.82 74.418 128.506 Z " fill="rgb(95,173,0)"/><path d=" M 83.519 151.74 C 80.625 142.324 74.46 133.454 65.464 129.302 L 65.128 129.302 L 64.709 129.428 L 63.073 129.848 C 73.558 133.748 80.143 144.086 82.848 154.654 C 86.287 168.18 85.133 182.816 85.154 196.593 C 85.214 196.946 85.52 197.204 85.878 197.204 C 86.235 197.204 86.541 196.946 86.601 196.593 C 86.559 181.894 87.943 166.083 83.519 151.74 Z " fill="rgb(41,118,0)"/><g><path d=" M 98.305 246.724 L 192.233 299.862 L 301.919 235.978 L 301.919 193.031 L 192.233 256.903 L 98.305 203.223 L 98.305 246.724 L 98.305 246.724 Z " fill="rgb(70,70,70)"/><path d=" M 98.305 203.223 L 210.086 139.086 L 301.919 193.031 L 192.233 256.903 L 98.305 203.223 L 98.305 203.223 Z " fill="rgb(91,91,91)"/><path d=" M 192.233 256.903 L 192.233 299.862 L 301.919 235.978 L 301.919 193.031 L 192.233 256.903 L 192.233 256.903 Z " fill="rgb(45,45,45)"/><path d=" M 166.2 77.274 L 166.2 150.277 L 260.309 193.031 L 301.919 149.699 L 301.919 106.271" fill="rgb(217,183,32)"/><g opacity="0.15"><path d=" M 166.2 77.274 L 166.2 150.277 L 259.346 192.598 L 259.346 192.598 L 259.346 131.4" fill="rgb(0,0,0)"/></g><path d=" M 259.346 131.4 L 301.919 106.271 L 209.075 52.903 L 166.2 77.274 L 259.346 131.4 L 259.346 131.4 Z " fill="rgb(255,210,0)"/><path d=" M 123.639 145.88 L 123.639 188.779 L 217.748 242.327 L 259.346 218.306 L 259.346 174.877" fill="rgb(219,106,68)"/><path d=" M 216.784 200.007 L 259.346 174.877 L 166.513 121.522 L 123.639 145.88 L 216.784 200.007 L 216.784 200.007 Z " fill="rgb(232,126,91)"/><path d=" M 216.784 200.007 L 216.784 242.327 L 301.919 193.031 L 301.919 149.699 L 216.784 200.007 L 216.784 200.007 Z " fill="rgb(212,93,53)"/><g opacity="0.63"><linearGradient id="_lgradient_4" x1="0" y1="0.5" x2="0.7287779682646455" y2="1.1847500806659723" gradientTransform="matrix(34.116,0,0,18.721,170.38,149.699)" gradientUnits="userSpaceOnUse"><stop offset="100%" stop-opacity="1" style="stop-color:rgb(255,168,106)"/><stop offset="100%" stop-opacity="0.8631299444307567" style="stop-color:rgb(255,180,126)"/></linearGradient><path d=" M 191.607 168.42 C 198.69 163.746 197.907 166.143 204.497 161.3 C 200.329 159.12 187.812 151.301 185.222 149.699 L 170.38 155.482 L 183.632 163.228 C 183.849 163.192 191.486 168.42 191.607 168.42 Z " fill="url(#_lgradient_4)"/></g><g opacity="0.63"><linearGradient id="_lgradient_5" x1="0" y1="0.5" x2="0.7278314987314098" y2="1.1857560130646978" gradientTransform="matrix(34.068,0,0,18.721,213.628,98.211)" gradientUnits="userSpaceOnUse"><stop offset="100%" stop-opacity="1" style="stop-color:rgb(255,168,106)"/><stop offset="100%" stop-opacity="0.8633151542488485" style="stop-color:rgb(255,180,126)"/></linearGradient><path d=" M 234.806 116.932 C 241.89 112.258 241.107 114.655 247.696 109.812 C 243.528 107.632 231.012 99.814 228.422 98.211 L 213.628 103.958 L 226.88 111.704 C 227 111.752 234.698 116.932 234.806 116.932 Z " fill="url(#_lgradient_5)"/></g><path d=" M 188.728 40.543 L 182.909 71.624 L 199.979 52.072" fill="rgb(255,237,225)"/><path d=" M 230.614 97.501 C 229.205 97.067 223.145 97.404 223.145 97.404 C 223.145 97.404 222.699 89.237 222.844 88.971 L 216.821 88.971 C 216.821 88.971 214.953 100.958 214.833 102.151 C 214.604 104.343 217.242 105.307 217.845 105.283 C 218.286 105.182 218.72 105.053 219.146 104.897 C 219.035 103.747 219.035 102.59 219.146 101.44 C 219.23 100.922 219.374 100.56 219.905 100.416 C 220.856 100.163 222.507 100.838 223.422 101.115 C 224.338 101.392 225.579 101.813 226.663 102.127 C 229.241 101.091 231.481 100.067 231.662 99.585 C 232.216 98.392 232.758 98.163 230.614 97.501 Z " fill="rgb(255,179,166)"/><path d=" M 232.626 98.091 L 232.493 97.91 C 232.072 97.404 230.819 97.308 230.229 97.236 C 227.857 97.004 225.467 97.06 223.109 97.404 C 223.109 97.404 228.819 97.224 228.928 98.26 C 229.027 99.101 228.724 99.941 228.108 100.524 C 225.53 102.367 222.085 99.681 219.929 98.452 L 215.869 96.175 L 215.23 99.609 C 214.919 101.176 214.753 102.769 214.736 104.367 C 214.977 104.885 217.363 106.475 217.917 106.259 C 218.471 106.042 220.242 105.223 220.242 105.223 L 220.35 101.006 C 220.35 101.006 223.711 102.898 225.41 102.633 C 226.699 102.476 233.879 100.211 232.626 98.091 Z " fill="rgb(86,64,61)"/><path d=" M 212.255 80.322 L 211.773 89.622 C 216.288 91.719 221.368 92.274 226.229 91.2 C 227.241 85.851 229.132 75.19 228.928 71.612 C 228.651 66.793 229.674 61.698 223.181 58.517 C 218.206 56.108 203.003 61.963 203.003 61.963 L 191.571 81.466 C 206.244 87.285 212.255 80.322 212.255 80.322 Z " fill="rgb(153,154,28)"/><path d=" M 182.873 149.205 C 181.945 148.772 180.56 148.362 179.97 147.434 C 179.535 146.369 179.434 145.197 179.68 144.073 Q 179.801 142.471 180.006 140.881 C 179.897 140.773 179.84 140.624 179.849 140.471 C 179.887 139.603 179.983 138.737 180.138 137.881 L 175.813 137.002 C 175.813 137.002 173.091 144.23 173.127 145.121 C 173.127 145.121 176.741 152.084 178.789 152.687 C 178.789 152.687 186.921 152.06 187.487 151.313 L 187.487 151.241 C 185.969 150.591 184.403 149.916 182.873 149.205 Z " fill="rgb(255,179,166)"/><path d=" M 177.163 145.639 C 177.163 145.639 178.693 153.012 179.476 153.566 C 179.476 153.566 189.318 152.241 188.185 150.434 C 187.463 149.229 182.162 148.735 181.716 148.555 C 181.716 148.555 184.403 149.759 184.355 150.205 C 184.306 150.651 180.632 151.904 180.488 151.554 C 180.343 151.205 177.175 144.555 177.175 144.555 L 173.717 142.917 L 170.103 149.169 L 172.513 150.506 C 172.513 150.506 173.067 152.578 173.332 152.602 C 174.312 151.523 175.21 150.371 176.018 149.157 C 176.086 150.08 176.285 150.989 176.608 151.856 C 176.934 152.145 179.596 154.855 181.126 153.157 L 178.958 150.145" fill="rgb(86,64,61)"/><path d=" M 202.172 76.864 C 204.967 67.721 205.039 69.347 206.87 61.806 L 188.583 56.987 C 179.259 70.962 170.597 138.448 170.597 138.448 C 170.597 138.448 179.62 145.676 187.463 143.483 C 187.463 143.483 198.028 87.815 198.052 87.755 C 199.546 83.984 199.606 83.261 202.172 76.864 Z " fill="rgb(153,154,28)"/><path d=" M 199.293 84.49 C 199.293 84.49 194.365 83.707 191.631 81.466 L 190.631 123.293 L 199.293 84.49 Z " fill="rgb(122,119,14)"/><path d=" M 197.943 33.183 C 197.943 33.183 187.824 10.39 186.668 8.921 C 186.668 8.921 188.053 0.054 186.463 0.139 C 186.463 0.139 182.969 3.909 182.969 3.909 C 182.969 3.909 176.006 -1.126 173.525 0.44 C 173.525 0.44 181.307 12.402 181.307 12.402 L 189.836 40.64" fill="rgb(255,179,166)"/><path d=" M 215.664 28.533 C 215.664 28.533 238.71 18.98 240.553 18.715 C 240.553 18.715 245.648 11.33 246.757 12.499 C 246.757 12.499 246.685 17.643 246.685 17.643 C 246.685 17.643 255.19 18.847 255.924 21.63 C 255.924 21.63 242.034 24.943 242.034 24.943 L 216.387 39.544" fill="rgb(255,179,166)"/><path d=" M 198.281 26.099 L 190.619 19.317 L 185.535 35.954 L 191.908 45.302" fill="rgb(176,88,0)"/><path d=" M 210.243 30.195 L 209.532 30.195 C 205.858 30.195 201.798 25.208 201.798 25.208 C 201.798 25.208 200.497 13.691 193.956 22.967 C 189.137 29.858 187.812 49.35 187.475 58.782 C 190.089 60.71 193.498 61.36 196.678 61.722 C 198.791 62 200.922 62.104 203.051 62.035 C 204.361 61.979 205.645 61.65 206.822 61.071 L 209.556 45.832 C 209.521 40.612 209.75 35.393 210.243 30.195 L 210.243 30.195 Z " fill="rgb(176,88,0)"/><path d=" M 206.4 12.679 C 206.4 12.679 212.664 21.461 208.171 24.726 C 208.171 24.726 199.22 24.196 198.654 23.124 C 198.088 22.052 196.883 13.33 206.4 12.679 Z " fill="rgb(255,179,166)"/><path d=" M 206.521 11.198 C 203.776 9.933 200.616 9.933 197.871 11.198 C 195.469 12.009 193.368 13.529 191.848 15.559 C 191.157 15.218 190.386 15.072 189.619 15.137 C 187.709 15.262 186.098 16.605 185.632 18.462 C 185.267 20.193 186.14 21.948 187.74 22.702 C 188.922 23.114 190.218 23.049 191.354 22.522 L 191.354 22.738 C 191.763 24.497 190.149 25.642 189.764 27.244 C 189.524 27.976 189.524 28.765 189.764 29.497 C 190.041 30.219 190.968 30.918 190.968 31.665 C 190.925 32.27 190.73 32.854 190.402 33.364 C 190.123 33.931 189.913 34.53 189.776 35.147 C 193.594 36.556 198.028 35.93 201.822 34.592 C 205.954 33.257 209.542 30.62 212.05 27.075 C 211.823 26.709 211.519 26.397 211.159 26.16 C 210.436 25.805 209.676 25.531 208.894 25.34 C 207.761 24.883 208.593 22.931 208.412 21.907 C 208.111 20.209 206.774 19.679 205.28 19.293 C 204.208 19.016 204.075 18.402 203.918 17.353 C 203.718 16.554 203.773 15.711 204.075 14.944 C 204.388 14.943 204.691 14.832 204.93 14.631 C 205.413 14.24 205.943 13.912 206.509 13.655 C 207.088 13.35 207.318 12.639 207.027 12.053 C 207.022 11.698 206.829 11.373 206.521 11.198 Z " fill="rgb(86,64,61)"/><path d=" M 203.352 15.51 C 204.901 14.942 206.371 14.176 207.725 13.233 C 207.725 13.077 207.352 7.114 197.172 10.631 C 186.993 14.149 193.715 25.967 193.715 25.967" fill="rgb(86,64,61)"/><path d=" M 205.605 25.955 C 205.605 25.955 221.266 23.823 224.723 24.28 L 225.711 36.086 L 205.605 47.952" fill="rgb(176,88,0)"/></g><path d=" M 65.257 67.32 C 66.781 63.548 69.67 58.361 74.494 58.856 C 76.408 59.047 78.041 60.322 78.69 62.133 C 79.536 64.479 78.69 66.764 78.17 69.073 C 78.037 69.738 77.324 72.108 77.904 72.7 C 78.484 73.293 79.669 71.346 80.153 70.717 C 81.272 68.962 82.991 67.673 84.989 67.09 C 90.382 65.881 91.905 72.132 90.515 76.086 C 89.596 78.709 85.4 77.585 86.319 74.877 C 86.597 74.079 87.262 72.229 86.416 71.54 C 85.57 70.85 84.844 71.818 84.24 72.458 C 83.351 73.668 82.394 74.827 81.374 75.929 C 79.234 77.778 76.042 77.996 74.361 75.445 C 72.681 72.894 73.6 69.4 74.253 66.715 C 74.603 65.289 75.304 62.242 72.765 63.572 C 71.182 64.406 70.045 66.945 69.428 68.481 C 68.425 71.092 64.217 69.968 65.257 67.32 Z " fill="rgb(229,75,93)"/><path d=" M 60.489 87.225 C 63.995 83.598 69.533 89.135 66.026 92.762 C 60.027 98.929 57.895 107.89 60.477 116.097 C 61.94 120.934 54.431 123.001 52.92 118.177 C 49.621 107.251 52.52 95.395 60.489 87.225 Z " fill="rgb(34,181,115)"/><path d=" M 36.829 241.596 C 37.861 240.595 39.236 240.024 40.674 240 L 41.326 240 C 42.765 240.019 44.142 240.591 45.171 241.596 C 47.293 243.72 47.293 247.161 45.171 249.286 C 44.139 250.287 42.764 250.858 41.326 250.882 L 40.674 250.882 C 39.235 250.862 37.858 250.291 36.829 249.286 C 34.707 247.161 34.707 243.72 36.829 241.596 Z " fill="rgb(254,198,23)"/><path d=" M 108.304 27.495 C 109.336 26.494 110.711 25.923 112.149 25.899 L 112.801 25.899 C 114.24 25.918 115.617 26.49 116.646 27.495 C 118.768 29.619 118.768 33.06 116.646 35.185 C 115.614 36.186 114.239 36.757 112.801 36.781 L 112.149 36.781 C 110.71 36.761 109.333 36.19 108.304 35.185 C 106.182 33.06 106.182 29.619 108.304 27.495 Z " fill="rgb(254,198,23)"/><path d=" M 5.274 82.197 C 6.306 81.196 7.681 80.625 9.119 80.601 L 9.772 80.601 C 11.211 80.62 12.587 81.191 13.616 82.197 C 15.738 84.321 15.738 87.762 13.616 89.887 C 12.584 90.888 11.209 91.458 9.772 91.483 L 9.119 91.483 C 7.68 91.463 6.303 90.892 5.274 89.887 C 3.152 87.762 3.152 84.321 5.274 82.197 Z " fill="rgb(229,75,93)"/><path d=" M 262.591 55.155 C 263.623 54.154 264.998 53.583 266.436 53.559 L 267.089 53.559 C 268.528 53.578 269.904 54.15 270.934 55.155 C 273.055 57.279 273.055 60.721 270.934 62.845 C 269.902 63.846 268.527 64.417 267.089 64.441 L 266.436 64.441 C 264.997 64.422 263.621 63.85 262.591 62.845 C 260.47 60.721 260.47 57.279 262.591 55.155 Z " fill="rgb(229,75,93)"/><path d=" M 11.407 21.726 L 26.883 8.584 C 29.039 6.539 32.418 6.539 34.573 8.584 C 36.52 10.53 36.822 14.363 34.573 16.274 L 19.097 29.416 C 16.942 31.461 13.562 31.461 11.407 29.416 C 9.461 27.47 9.158 23.637 11.407 21.726 Z " fill="rgb(104,225,253)"/><path d=" M 31.002 192.474 C 31.643 192.825 33.263 192.994 32.731 191.966 C 32.549 191.616 31.884 191.374 31.522 191.168 C 30.559 190.601 29.697 189.877 28.971 189.028 C 27.569 187.428 27.488 185.062 28.777 183.37 C 30.204 181.592 32.574 181.254 34.702 181.085 C 35.548 181.012 37.494 181.169 38.087 180.383 C 39.103 179.053 37.192 177.748 36.14 177.324 C 33.372 176.2 34.581 171.642 37.349 172.778 C 40.662 174.12 43.758 176.925 42.911 180.891 C 41.98 185.232 37.748 185.365 34.206 185.824 C 32.029 186.102 32.997 186.477 34.206 187.275 C 34.959 187.74 35.664 188.278 36.31 188.883 C 37.521 190.089 38.016 191.84 37.615 193.502 C 36.539 197.48 31.776 198.266 28.584 196.537 C 25.924 195.098 28.306 191.023 31.002 192.474 Z " fill="rgb(104,225,253)"/><path d=" M 16.333 237.303 C 19.839 233.675 25.377 239.213 21.871 242.84 C 15.871 249.007 13.74 257.968 16.321 266.175 C 17.784 271.012 10.276 273.079 8.764 268.255 C 5.465 257.329 8.364 245.473 16.333 237.303 Z " fill="rgb(34,181,115)"/><path d=" M 126.764 88.075 C 127.405 88.426 129.025 88.595 128.493 87.567 C 128.312 87.216 127.647 86.975 127.284 86.769 C 126.321 86.201 125.459 85.478 124.733 84.629 C 123.331 83.029 123.25 80.663 124.54 78.971 C 125.966 77.193 128.336 76.855 130.464 76.685 C 131.31 76.613 133.257 76.77 133.849 75.984 C 134.865 74.654 132.955 73.348 131.903 72.925 C 129.134 71.801 130.343 67.243 133.112 68.379 C 136.425 69.721 139.52 72.526 138.674 76.492 C 137.743 80.833 133.511 80.966 129.968 81.425 C 127.792 81.703 128.759 82.078 129.968 82.876 C 130.721 83.341 131.426 83.879 132.072 84.484 C 133.284 85.69 133.779 87.441 133.378 89.103 C 132.302 93.08 127.538 93.866 124.346 92.137 C 121.686 90.699 124.068 86.624 126.764 88.075 Z " fill="rgb(104,225,253)"/></g></svg>