<?xml version="1.0" encoding="UTF-8" standalone="no"?><!-- Generator: Gravit.io --><svg xmlns="http://www.w3.org/2000/svg" xmlns:xlink="http://www.w3.org/1999/xlink" style="isolation:isolate" viewBox="0 0 300 300" width="300pt" height="300pt"><defs><clipPath id="_clipPath_y624QoohjRDgRHX97RwQcEoxkd76ukoi"><rect width="300" height="300"/></clipPath></defs><g clip-path="url(#_clipPath_y624QoohjRDgRHX97RwQcEoxkd76ukoi)"><path d=" M 697.862 334.085 C 659.292 354.785 545.862 420.265 510.092 440.935 C 503.356 444.85 495.037 444.85 488.302 440.935 L 352.292 361.485 C 346.882 358.325 348.612 352.355 354.062 349.265 L 543.852 238.975 C 545.839 237.846 548.274 237.846 550.262 238.975 L 697.972 322.985 C 699.987 324.116 701.226 326.256 701.203 328.568 C 701.18 330.879 699.899 332.994 697.862 334.085 L 697.862 334.085 Z " fill="rgb(127,140,255)"/><path d=" M 265.849 246.495 C 265.849 246.495 271.979 253.749 272.547 257.643 C 272.547 257.643 272.692 280.796 238.693 280.615 C 238.693 280.615 206.919 259.904 207.487 258.344 C 207.487 258.344 215.201 245.25 215.201 245.25" fill="rgb(250,108,0)"/><ellipse vector-effect="non-scaling-stroke" cx="240.22878265614924" cy="249.7353326118755" rx="26.236921379752857" ry="15.040889491434356" fill="rgb(247,221,2)"/><path d=" M 166.246 85.507 C 171.783 87.018 177.272 91.395 181.963 94.526 C 187.09 97.96 192.011 101.648 196.847 105.469 C 201.115 108.854 195.094 114.803 190.862 111.453 C 183.81 105.755 176.337 100.597 168.506 96.026 C 166.56 94.913 163.96 92.29 161.796 94.563 C 160.514 95.905 160.672 99 160.72 100.608 C 160.995 104.826 161.929 108.975 163.489 112.904 C 169.353 128.937 182.229 141.04 194.284 152.55 C 198.226 156.322 192.241 162.295 188.299 158.535 C 172.243 143.131 153.889 125.14 152.305 101.563 C 151.725 93.305 156.234 82.762 166.246 85.507 Z " fill="rgb(250,108,0)"/><path d=" M 246.601 221.721 C 246.601 221.721 245.537 231.865 248.91 238.104 C 250.634 241.388 252.598 244.54 254.786 247.535 C 254.786 247.535 255.681 257.679 239.83 257.679 C 239.83 257.679 226.651 247.885 226.651 247.885 C 232.374 240.458 234.469 230.857 232.358 221.721" fill="rgb(254,198,23)"/><path d=" M 226.651 247.861 C 232.367 240.44 234.461 230.849 232.358 221.721 L 237.194 221.721 C 236.88 233.812 237.533 248.018 245.283 257.207 C 243.505 257.542 241.699 257.704 239.89 257.691 C 224.015 257.643 226.651 247.861 226.651 247.861 Z " fill="rgb(255,164,7)"/><path d=" M 296.56 121.646 L 296.56 164.834 C 296.56 164.834 295.822 223.861 240.072 223.861 C 240.072 223.861 186.062 164.363 186.062 164.363 L 186.062 121.646" fill="rgb(254,198,23)"/><path d=" M 186.05 164.35 L 186.05 121.646 L 217.97 121.646 C 217.704 149.455 219.263 180.286 237.315 202.376 C 243.535 209.893 251.089 216.198 259.598 220.971 C 253.283 222.959 246.692 223.934 240.072 223.861 C 184.309 223.861 186.05 164.35 186.05 164.35 Z " fill="rgb(255,164,7)"/><ellipse vector-effect="non-scaling-stroke" cx="241.29276840795487" cy="121.64595699109134" rx="55.24262386363628" ry="32.560382154688675" fill="rgb(247,221,2)"/><ellipse vector-effect="non-scaling-stroke" cx="240.04742144845508" cy="120.78751394133896" rx="46.07783750149221" ry="25.765382239748064" fill="rgb(250,108,0)"/><path d=" M 282.837 84.382 C 283.937 81.42 284.928 78.422 285.908 75.399 C 287.286 71.143 288.846 66.669 289.245 62.099 C 288.459 59.983 285.617 58.363 283.622 57.891 C 281.108 57.287 278.532 58.363 275.993 58.315 C 272.668 58.315 270.045 56.948 266.949 56.066 C 263.75 55.27 260.389 55.425 257.277 56.513 C 251.231 58.363 245.186 57.722 240.193 53.769 C 237.363 51.52 235.163 49.682 231.596 48.739 C 226.083 47.288 220.388 48.316 216.749 52.958 C 213.472 57.142 212.759 62.631 216.241 66.935 C 218.006 69.112 220.593 70.055 223.205 70.804 C 225.623 71.494 227.92 72.932 230.459 73.38 L 230.738 73.38 C 233.083 73.767 235.417 73.634 237.774 74.323 C 240.712 75.193 243.421 76.656 246.31 77.684 C 250.131 79.05 253.843 78.518 257.772 78.023 C 262.778 77.394 265.426 78.941 269.307 81.795 L 270.008 82.278 C 272.746 83.936 275.901 84.775 279.101 84.697 C 280.353 84.698 281.602 84.593 282.837 84.382 L 282.837 84.382 Z " fill="rgb(0,0,0)"/><path d=" M 192.289 51.737 C 191.418 50.238 190.524 48.63 189.774 46.974 C 189.495 44 189.374 41.013 189.411 38.026 C 189.617 36.773 189.617 35.495 189.411 34.242 C 189.378 33.758 189.125 33.316 188.724 33.042 C 188.323 32.768 187.819 32.694 187.356 32.839 C 186.241 33.316 185.476 34.365 185.361 35.572 C 185.168 36.563 185.022 37.567 184.889 38.57 C 183.35 35.83 182.013 32.981 180.887 30.046 C 180.126 28.197 177.151 29.176 177.925 31.038 L 178.747 33.033 C 178 31.937 177.193 30.884 176.329 29.877 C 175.289 28.668 172.799 29.442 173.536 31.231 C 174.536 33.648 175.72 35.985 177.079 38.22 Q 175.41 36.164 173.875 34.012 C 172.666 32.38 170.09 34.097 171.263 35.741 Q 173.427 38.764 175.821 41.605 C 174.927 41.182 174.02 40.783 173.101 40.396 C 171.251 39.622 169.812 42.403 171.674 43.177 C 173.536 43.951 175.193 44.737 176.91 45.595 L 177.006 45.789 Q 181.032 53.043 185.349 60.104 C 186.401 61.821 188.976 60.104 187.96 58.375 L 186.643 56.199 C 187.121 56.068 187.527 55.75 187.767 55.316 C 188.252 55.636 188.875 55.66 189.383 55.378 C 189.891 55.096 190.2 54.555 190.185 53.974 C 190.817 54.264 191.564 54.118 192.04 53.611 C 192.517 53.105 192.617 52.351 192.289 51.737 Z " fill="rgb(255,194,133)"/><path d=" M 183.354 39.514 C 181.613 41.4 179.896 43.661 180.621 46.381 C 180.766 46.925 181.625 46.732 181.48 46.176 C 180.839 43.757 182.423 41.811 183.898 40.13 C 184.333 39.743 183.729 39.151 183.354 39.514 Z " fill="rgb(109,50,11)"/><path d=" M 181.335 37.76 C 180.236 35.46 179.271 33.099 178.445 30.687 C 178.312 30.288 177.659 30.433 177.804 30.844 C 178.643 33.317 179.624 35.739 180.742 38.099 C 180.936 38.462 181.516 38.147 181.335 37.76 Z " fill="rgb(109,50,11)"/><path d=" M 178.324 39.429 C 176.525 36.856 175.078 34.054 174.02 31.098 C 173.875 30.699 173.234 30.844 173.379 31.256 C 174.452 34.258 175.92 37.104 177.744 39.719 C 177.974 40.094 178.566 39.78 178.324 39.429 Z " fill="rgb(109,50,11)"/><path d=" M 176.861 42.778 C 175.164 40.847 173.661 38.753 172.376 36.527 C 172.158 36.164 171.578 36.527 171.795 36.841 C 173.109 39.115 174.644 41.253 176.378 43.225 C 176.668 43.552 177.151 43.104 176.861 42.778 Z " fill="rgb(109,50,11)"/><path d=" M 254.774 145.162 C 246.238 146.795 234.22 148.209 222.129 145.803 C 214.928 144.3 207.998 141.711 201.575 138.126 C 201.454 126.035 205.105 113.944 208.285 102.24 L 234.764 109.132 C 236.529 109.398 247.64 128.997 255.572 145.126 L 255.306 145.126 C 255.128 145.101 254.947 145.113 254.774 145.162 Z " fill="rgb(226,226,226)"/><path d=" M 234.981 97.597 C 233.41 89.557 229.782 80.404 232.805 72.811 C 232.479 71.76 229.674 71.518 229.311 70.986 L 224.583 69.196 C 215.551 68.839 207 65.031 200.692 58.556 C 196.942 54.69 193.659 50.397 190.911 45.764 C 187.671 47.676 184.783 50.13 182.375 53.019 C 181.102 54.465 179.934 56 178.88 57.613 C 183.523 67.286 192.422 81.275 206.689 86.631 C 206.689 86.631 207.197 91.963 207.62 104.332 C 207.62 104.332 218.296 114.005 235.32 110.595 C 235.211 105.807 235.114 102.458 234.981 97.597 Z " fill="rgb(104,225,253)"/><path d=" M 230.484 70.756 C 230.484 70.756 248.463 89.194 282.413 106.339 C 282.413 106.339 280.503 117.003 276.017 121.066 C 276.017 121.066 236.831 103.316 227.812 87.465" fill="rgb(104,225,253)"/><path d=" M 216.954 57.988 C 216.954 57.988 213.182 68.87 220.146 73.839 C 220.146 73.839 236.553 68.459 233.978 58.738 C 231.403 49.017 221.391 48.63 216.954 57.988 Z " fill="rgb(255,194,133)"/><path d=" M 234.897 72.328 C 233.735 72.584 232.524 72.223 231.693 71.373 C 230.665 70.333 230.762 68.858 230.75 67.504 C 230.843 65.714 229.977 64.01 228.477 63.03 C 226.651 61.821 224.354 61.446 222.697 59.923 C 222.528 59.766 222.359 59.596 222.201 59.415 C 222.417 59.615 222.652 59.793 222.903 59.947 C 225.599 61.579 229.589 61.978 230.846 62.619 C 232.104 63.26 230.097 68.229 232.346 70.417 C 234.594 72.606 239.902 58.931 236.831 55.219 C 233.76 51.508 223.604 47.155 219.203 53.321 C 219.323 53.873 219.472 54.418 219.65 54.953 C 219.755 56.622 220.372 58.218 221.416 59.524 C 223.06 61.567 225.442 62.026 227.606 63.272 C 228.996 63.969 229.916 65.348 230.024 66.899 C 229.932 68.183 230.071 69.473 230.435 70.708 C 231.24 72.492 233.197 73.456 235.102 73.005 C 235.513 72.86 235.308 72.231 234.897 72.328 Z " fill="rgb(0,0,0)"/><path d=" M 300.054 121.876 C 297.865 120.443 295.569 119.182 293.186 118.103 Q 295.713 118.865 298.204 119.772 C 300.09 120.461 301.287 117.571 299.413 116.87 Q 295.919 115.588 292.34 114.597 C 293.319 114.44 294.287 114.259 295.266 114.065 C 297.225 113.654 296.85 110.559 294.879 110.958 C 292.908 111.357 291.095 111.659 289.184 111.901 L 289.003 111.792 Q 285.654 110.111 282.268 108.515 C 281.478 111.979 280.038 115.261 278.024 118.188 C 279.872 120.423 281.603 122.751 283.211 125.164 C 283.738 126.319 284.448 127.381 285.315 128.308 C 285.615 128.69 286.075 128.913 286.561 128.913 C 287.047 128.913 287.506 128.69 287.806 128.308 C 288.46 127.285 288.502 125.986 287.915 124.923 C 287.516 124.004 287.068 123.085 286.621 122.19 C 289.444 123.602 292.159 125.218 294.746 127.026 C 296.414 128.127 298.373 125.648 296.632 124.536 L 294.819 123.327 C 296.045 123.797 297.296 124.201 298.567 124.536 C 300.066 124.995 301.674 122.928 300.054 121.876 Z " fill="rgb(104,225,253)"/><path d=" M 289.994 120.848 C 292.192 122.108 294.315 123.492 296.354 124.995 C 296.693 125.249 297.14 124.765 296.801 124.511 C 294.721 122.957 292.553 121.524 290.309 120.219 C 289.934 120.05 289.632 120.63 289.994 120.848 Z " fill="rgb(104,225,253)"/><path d=" M 291.542 117.741 C 294.48 118.85 297.257 120.346 299.8 122.19 C 300.138 122.432 300.586 121.948 300.247 121.706 C 297.665 119.824 294.843 118.296 291.856 117.16 C 291.445 117.039 291.143 117.62 291.542 117.741 Z " fill="rgb(104,225,253)"/><path d=" M 290.841 114.186 C 293.34 114.823 295.77 115.706 298.095 116.822 C 298.482 117.003 298.784 116.423 298.397 116.229 C 296.029 115.094 293.555 114.195 291.01 113.545 C 290.514 113.436 290.43 114.113 290.841 114.186 Z " fill="rgb(104,225,253)"/><path d=" M 300.054 121.876 C 297.865 120.443 295.569 119.182 293.186 118.103 Q 295.713 118.865 298.204 119.772 C 300.09 120.461 301.287 117.571 299.413 116.87 Q 295.919 115.588 292.34 114.597 C 293.319 114.44 294.287 114.259 295.266 114.065 C 297.225 113.654 296.85 110.559 294.879 110.958 C 292.908 111.357 291.095 111.659 289.184 111.901 L 289.003 111.792 Q 285.654 110.111 282.268 108.515 C 281.478 111.979 280.038 115.261 278.024 118.188 C 279.872 120.423 281.603 122.751 283.211 125.164 C 283.738 126.319 284.448 127.381 285.315 128.308 C 285.615 128.69 286.075 128.913 286.561 128.913 C 287.047 128.913 287.506 128.69 287.806 128.308 C 288.46 127.285 288.502 125.986 287.915 124.923 C 287.516 124.004 287.068 123.085 286.621 122.19 C 289.444 123.602 292.159 125.218 294.746 127.026 C 296.414 128.127 298.373 125.648 296.632 124.536 L 294.819 123.327 C 296.045 123.797 297.296 124.201 298.567 124.536 C 300.066 124.995 301.674 122.928 300.054 121.876 Z " fill="rgb(255,194,133)"/><path d=" M 289.994 120.848 C 292.192 122.108 294.315 123.492 296.354 124.995 C 296.693 125.249 297.14 124.765 296.801 124.511 C 294.721 122.957 292.553 121.524 290.309 120.219 C 289.934 120.05 289.632 120.63 289.994 120.848 Z " fill="rgb(109,50,11)"/><path d=" M 291.542 117.741 C 294.48 118.85 297.257 120.346 299.8 122.19 C 300.138 122.432 300.586 121.948 300.247 121.706 C 297.665 119.824 294.843 118.296 291.856 117.16 C 291.445 117.039 291.143 117.62 291.542 117.741 Z " fill="rgb(109,50,11)"/><path d=" M 290.841 114.186 C 293.34 114.823 295.77 115.706 298.095 116.822 C 298.482 117.003 298.784 116.423 298.397 116.229 C 296.029 115.094 293.555 114.195 291.01 113.545 C 290.514 113.436 290.43 114.113 290.841 114.186 Z " fill="rgb(109,50,11)"/><path d=" M 102.738 50.323 C 104.262 46.551 107.151 41.364 111.976 41.86 C 113.889 42.05 115.522 43.326 116.171 45.136 C 117.017 47.482 116.171 49.767 115.651 52.076 C 115.518 52.741 114.805 55.111 115.385 55.704 C 115.966 56.296 117.15 54.35 117.634 53.721 C 118.753 51.965 120.472 50.676 122.47 50.094 C 127.863 48.885 129.386 55.135 127.996 59.089 C 127.077 61.713 122.881 60.588 123.8 57.88 C 124.078 57.082 124.743 55.232 123.897 54.543 C 123.051 53.854 122.325 54.821 121.721 55.462 C 120.832 56.672 119.875 57.83 118.855 58.932 C 116.715 60.782 113.523 60.999 111.843 58.448 C 110.162 55.897 111.081 52.403 111.734 49.719 C 112.084 48.292 112.786 45.245 110.247 46.575 C 108.663 47.409 107.526 49.948 106.91 51.484 C 105.906 54.096 101.698 52.971 102.738 50.323 Z " fill="rgb(229,75,93)"/><path d=" M 9.211 136.299 C 10.734 132.527 13.624 127.34 18.448 127.836 C 20.362 128.026 21.995 129.302 22.643 131.112 C 23.49 133.458 22.643 135.743 22.123 138.052 C 21.99 138.717 21.277 141.087 21.857 141.679 C 22.438 142.272 23.623 140.325 24.106 139.697 C 25.225 137.941 26.944 136.652 28.943 136.069 C 34.335 134.86 35.859 141.111 34.468 145.065 C 33.549 147.689 29.354 146.564 30.273 143.856 C 30.551 143.058 31.216 141.208 30.369 140.519 C 29.523 139.83 28.798 140.797 28.193 141.438 C 27.304 142.648 26.348 143.806 25.327 144.908 C 23.187 146.758 19.995 146.975 18.315 144.424 C 16.634 141.873 17.553 138.379 18.206 135.695 C 18.557 134.268 19.258 131.221 16.719 132.551 C 15.135 133.385 13.998 135.924 13.382 137.46 C 12.378 140.071 8.171 138.947 9.211 136.299 Z " fill="rgb(229,75,93)"/><path d=" M 73.375 -1.208 C 80.376 -1.208 80.388 9.674 73.375 9.674 C 66.362 9.674 66.35 -1.208 73.375 -1.208 Z " fill="rgb(104,225,253)"/><path d=" M 124.436 114.271 C 127.942 110.643 133.48 116.181 129.973 119.808 C 123.973 125.974 121.842 134.936 124.424 143.143 C 125.887 147.98 118.378 150.047 116.867 145.223 C 113.568 134.297 116.467 122.441 124.436 114.271 Z " fill="rgb(34,181,115)"/><path d=" M 57.284 233.783 C 60.79 230.156 66.328 235.694 62.821 239.321 C 56.822 245.487 54.69 254.449 57.272 262.656 C 58.735 267.492 51.226 269.56 49.715 264.736 C 46.416 253.81 49.315 241.954 57.284 233.783 Z " fill="rgb(34,181,115)"/><path d=" M 132.694 195.738 C 133.726 194.737 135.101 194.166 136.539 194.142 L 137.191 194.142 C 138.63 194.161 140.007 194.733 141.036 195.738 C 143.158 197.862 143.158 201.304 141.036 203.428 C 140.004 204.429 138.629 205 137.191 205.024 L 136.539 205.024 C 135.1 205.005 133.723 204.433 132.694 203.428 C 130.572 201.304 130.572 197.862 132.694 195.738 Z " fill="rgb(254,198,23)"/><path d=" M 111.356 288.003 C 112.389 287.001 113.763 286.431 115.201 286.407 L 115.854 286.407 C 117.293 286.426 118.67 286.997 119.699 288.003 C 121.821 290.127 121.821 293.568 119.699 295.692 C 118.667 296.693 117.292 297.264 115.854 297.288 L 115.201 297.288 C 113.762 297.269 112.386 296.698 111.356 295.692 C 109.235 293.568 109.235 290.127 111.356 288.003 Z " fill="rgb(229,75,93)"/><path d=" M 63.94 96.618 C 64.972 95.617 66.347 95.046 67.785 95.022 L 68.437 95.022 C 69.876 95.041 71.253 95.613 72.282 96.618 C 74.404 98.742 74.404 102.184 72.282 104.308 C 71.25 105.309 69.875 105.88 68.437 105.904 L 67.785 105.904 C 66.346 105.885 64.969 105.313 63.94 104.308 C 61.818 102.184 61.818 98.742 63.94 96.618 Z " fill="rgb(229,75,93)"/><path d=" M 241.658 16.155 C 242.691 15.154 244.065 14.583 245.503 14.559 L 246.156 14.559 C 247.595 14.578 248.971 15.15 250.001 16.155 C 252.123 18.279 252.123 21.721 250.001 23.845 C 248.969 24.846 247.594 25.417 246.156 25.441 L 245.503 25.441 C 244.064 25.422 242.688 24.85 241.658 23.845 C 239.537 21.721 239.537 18.279 241.658 16.155 Z " fill="rgb(229,75,93)"/><path d=" M 125.282 227.924 L 140.758 214.781 C 142.914 212.736 146.293 212.736 148.448 214.781 C 150.395 216.728 150.697 220.56 148.448 222.471 L 132.972 235.613 C 130.816 237.658 127.437 237.658 125.282 235.613 C 123.335 233.667 123.033 229.834 125.282 227.924 Z " fill="rgb(104,225,253)"/><path d=" M 31.417 208.819 L 46.893 195.676 C 49.049 193.631 52.428 193.631 54.583 195.676 C 56.53 197.622 56.832 201.455 54.583 203.366 L 39.107 216.508 C 36.951 218.553 33.572 218.553 31.417 216.508 C 29.47 214.562 29.168 210.729 31.417 208.819 Z " fill="rgb(104,225,253)"/><path d=" M 66.579 173.49 C 67.22 173.841 68.84 174.01 68.308 172.982 C 68.127 172.632 67.462 172.39 67.099 172.184 C 66.136 171.617 65.274 170.894 64.548 170.044 C 63.146 168.444 63.065 166.078 64.355 164.386 C 65.781 162.609 68.151 162.27 70.279 162.101 C 71.125 162.028 73.072 162.185 73.664 161.399 C 74.68 160.069 72.77 158.764 71.718 158.341 C 68.949 157.216 70.158 152.658 72.927 153.794 C 76.24 155.136 79.335 157.942 78.489 161.907 C 77.558 166.248 73.326 166.381 69.783 166.84 C 67.607 167.118 68.574 167.493 69.783 168.291 C 70.536 168.756 71.241 169.295 71.887 169.899 C 73.099 171.105 73.594 172.856 73.193 174.518 C 72.117 178.496 67.353 179.282 64.161 177.553 C 61.501 176.114 63.883 172.039 66.579 173.49 Z " fill="rgb(104,225,253)"/><path d=" M 284.509 245.073 C 285.15 245.424 286.77 245.593 286.238 244.566 C 286.057 244.215 285.392 243.973 285.029 243.768 C 284.066 243.2 283.204 242.477 282.478 241.628 C 281.076 240.027 280.995 237.661 282.284 235.969 C 283.711 234.192 286.081 233.853 288.209 233.684 C 289.055 233.611 291.002 233.769 291.594 232.983 C 292.61 231.653 290.699 230.347 289.647 229.924 C 286.879 228.799 288.088 224.241 290.857 225.378 C 294.169 226.72 297.265 229.525 296.418 233.491 C 295.487 237.831 291.256 237.964 287.713 238.424 C 285.537 238.702 286.504 239.076 287.713 239.874 C 288.466 240.339 289.171 240.878 289.817 241.483 C 291.028 242.689 291.523 244.439 291.123 246.101 C 290.046 250.079 285.283 250.865 282.091 249.136 C 279.431 247.697 281.813 243.623 284.509 245.073 Z " fill="rgb(104,225,253)"/><path d=" M 183.946 150.011 L 152.873 281.304 C 152.124 284.46 156.996 285.814 157.709 282.646 L 188.819 151.353 C 189.569 148.197 184.696 146.843 183.983 150.011 L 183.946 150.011 Z " fill="rgb(55,62,166)"/><path d=" M 213.133 165.56 L 182.06 296.853 C 181.311 300.009 186.183 301.363 186.896 298.195 L 217.97 166.89 C 218.719 163.734 213.847 162.38 213.133 165.547 L 213.133 165.56 Z " fill="rgb(55,62,166)"/><path d=" M 180.718 170.722 L 209.869 187.009 C 212.71 188.592 215.261 184.24 212.42 182.644 L 183.257 166.358 C 180.416 164.774 177.865 169.126 180.706 170.722 L 180.718 170.722 Z " fill="rgb(55,62,166)"/><path d=" M 177.671 188.967 L 205.637 204.588 C 208.478 206.172 211.03 201.82 208.188 200.224 L 180.222 184.602 C 177.381 183.019 174.83 187.371 177.671 188.967 L 177.671 188.967 Z " fill="rgb(55,62,166)"/><path d=" M 174.286 203.754 L 202.252 219.303 C 205.093 220.887 207.644 216.534 204.803 214.938 L 176.873 199.341 C 174.032 197.757 171.481 202.11 174.322 203.706 L 174.286 203.754 Z " fill="rgb(55,62,166)"/><path d=" M 169.897 219.654 L 197.573 235.118 C 200.414 236.702 202.965 232.349 200.124 230.753 L 172.448 215.289 C 169.607 213.705 167.056 218.058 169.897 219.654 Z " fill="rgb(55,62,166)"/><path d=" M 166.088 234.211 L 193.788 249.699 C 196.63 251.283 199.181 246.93 196.339 245.334 L 168.603 229.846 C 165.762 228.262 163.211 232.615 166.052 234.211 L 166.088 234.211 Z " fill="rgb(55,62,166)"/><path d=" M 161.857 251.126 L 191.019 267.412 C 193.861 268.996 196.412 264.643 193.571 263.047 L 164.408 246.761 C 161.566 245.177 159.015 249.53 161.857 251.126 Z " fill="rgb(55,62,166)"/></g></svg>