<svg width="22" height="18" viewBox="0 0 22 18" fill="none" xmlns="http://www.w3.org/2000/svg">
<path d="M0 5.37142V18H22V5.37142H20.7109V2.43612L19.4219 2.65798V0L0.597266 5.37142H0ZM20.7109 13.2557L17.2219 16.7201H4.77813L1.28906 13.2557V10.1157L4.77813 6.65134H17.2219L20.7109 10.1157V13.2557ZM1.28906 8.30671V6.65134H2.95625L1.28906 8.30671ZM18.1328 2.87556L7.86758 4.62906L18.1328 1.69803V2.87556ZM19.4219 5.37142H11.1203L19.4219 3.95497V5.37142ZM20.7109 6.65134V8.30671L19.0438 6.65134H20.7109ZM20.7109 16.7201H19.0438L20.7109 15.0647V16.7201ZM1.28906 16.7201V15.0647L2.95625 16.7201H1.28906Z" fill="white"/>
<path d="M11.1692 15C13.0375 15 14.5538 13.5067 14.5538 11.6667C14.5538 9.82667 13.0375 8.33333 11.1692 8.33333C9.30092 8.33333 7.78462 9.82667 7.78462 11.6667C7.78462 13.5067 9.30092 15 11.1692 15ZM11.1692 9.66667C12.2884 9.66667 13.2 10.5644 13.2 11.6667C13.2 12.7689 12.2884 13.6667 11.1692 13.6667C10.0501 13.6667 9.13846 12.7689 9.13846 11.6667C9.13846 10.5644 10.0501 9.66667 11.1692 9.66667Z" fill="white"/>
</svg>
