<?xml version="1.0" encoding="utf-8"?>
<!-- Generator: Adobe Illustrator 24.0.1, SVG Export Plug-In . SVG Version: 6.00 Build 0)  -->
<svg version="1.1" id="artwork" xmlns="http://www.w3.org/2000/svg" xmlns:xlink="http://www.w3.org/1999/xlink" x="0px" y="0px"
	 viewBox="0 0 155 60" style="enable-background:new 0 0 155 60;" xml:space="preserve">
<style type="text/css">
	.st0{fill:#A6A6A6;}
	.st1{fill:#FFFFFF;}
	.st2{fill:#FFFFFF;stroke:#FFFFFF;stroke-width:0.2;stroke-miterlimit:10;}
	.st3{fill:url(#SVGID_1_);}
	.st4{fill:url(#SVGID_2_);}
	.st5{fill:url(#SVGID_3_);}
	.st6{fill:url(#SVGID_4_);}
	.st7{opacity:0.2;enable-background:new    ;}
	.st8{opacity:0.12;enable-background:new    ;}
	.st9{opacity:0.25;fill:#FFFFFF;enable-background:new    ;}
</style>
<g>
	<g>
		<path d="M148.9,53.1H5.7c-3.2,0-5.7-2.6-5.7-5.7V13c0-3.2,2.6-5.7,5.7-5.7h143.2c3.2,0,5.7,2.6,5.7,5.7v34.4
			C154.7,50.5,152.1,53.1,148.9,53.1z"/>
	</g>
	<g>
		<g>
			<path class="st0" d="M148.9,8.2c2.7,0,4.8,2.2,4.8,4.8v34.4c0,2.7-2.2,4.8-4.8,4.8H5.7c-2.7,0-4.8-2.2-4.8-4.8V13
				c0-2.7,2.2-4.8,4.8-4.8H148.9 M148.9,7.2H5.7C2.6,7.2,0,9.8,0,13v34.4c0,3.2,2.6,5.7,5.7,5.7h143.2c3.2,0,5.7-2.6,5.7-5.7V13
				C154.7,9.8,152.1,7.2,148.9,7.2L148.9,7.2z"/>
		</g>
	</g>
	<g>
		<path class="st2" d="M54.3,19c0,1-0.3,1.7-0.9,2.3c-0.6,0.7-1.5,1-2.5,1c-1,0-1.8-0.3-2.5-1c-0.7-0.7-1-1.5-1-2.6
			c0-1,0.3-1.9,1-2.6c0.7-0.7,1.5-1,2.5-1c0.5,0,1,0.1,1.4,0.3c0.4,0.2,0.8,0.4,1.1,0.8l-0.6,0.6c-0.5-0.5-1.1-0.8-1.9-0.8
			c-0.7,0-1.3,0.3-1.9,0.8c-0.5,0.5-0.8,1.2-0.8,2s0.3,1.5,0.8,2c0.5,0.5,1.2,0.8,1.9,0.8c0.8,0,1.4-0.3,1.9-0.8
			c0.3-0.3,0.5-0.8,0.6-1.4h-2.5v-0.8h3.3C54.3,18.6,54.3,18.8,54.3,19z"/>
		<path class="st2" d="M59.6,16.1h-3.1v2.2h2.8v0.8h-2.8v2.2h3.1v0.8h-4v-6.9h4V16.1z"/>
		<path class="st2" d="M63.3,22.1h-0.9v-6h-1.9v-0.8h4.7v0.8h-1.9V22.1z"/>
		<path class="st2" d="M68.7,22.1v-6.9h0.9v6.9H68.7z"/>
		<path class="st2" d="M73.5,22.1h-0.9v-6h-1.9v-0.8h4.7v0.8h-1.9V22.1z"/>
		<path class="st2" d="M84.3,21.2c-0.7,0.7-1.5,1-2.5,1c-1,0-1.8-0.3-2.5-1c-0.7-0.7-1-1.5-1-2.5s0.3-1.9,1-2.5c0.7-0.7,1.5-1,2.5-1
			c1,0,1.8,0.3,2.5,1c0.7,0.7,1,1.5,1,2.5C85.3,19.7,85,20.5,84.3,21.2z M79.9,20.7c0.5,0.5,1.1,0.8,1.9,0.8s1.4-0.3,1.9-0.8
			c0.5-0.5,0.8-1.2,0.8-2s-0.3-1.5-0.8-2c-0.5-0.5-1.1-0.8-1.9-0.8s-1.4,0.3-1.9,0.8c-0.5,0.5-0.8,1.2-0.8,2S79.4,20.1,79.9,20.7z"
			/>
		<path class="st2" d="M86.6,22.1v-6.9h1.1l3.3,5.3h0l0-1.3v-4h0.9v6.9H91l-3.5-5.6h0l0,1.3v4.3H86.6z"/>
	</g>
	<path class="st1" d="M78.1,32.2c-2.7,0-4.9,2-4.9,4.9c0,2.8,2.2,4.9,4.9,4.9c2.7,0,4.9-2.1,4.9-4.9C82.9,34.2,80.8,32.2,78.1,32.2z
		 M78.1,40c-1.5,0-2.8-1.2-2.8-3c0-1.8,1.3-3,2.8-3c1.5,0,2.7,1.2,2.7,3C80.8,38.8,79.5,40,78.1,40z M67.4,32.2
		c-2.7,0-4.9,2-4.9,4.9c0,2.8,2.2,4.9,4.9,4.9c2.7,0,4.9-2.1,4.9-4.9C72.3,34.2,70.1,32.2,67.4,32.2z M67.4,40c-1.5,0-2.8-1.2-2.8-3
		c0-1.8,1.3-3,2.8-3c1.5,0,2.7,1.2,2.7,3C70.1,38.8,68.9,40,67.4,40z M54.7,33.6v2.1h4.9c-0.1,1.2-0.5,2-1.1,2.6
		c-0.7,0.7-1.8,1.5-3.8,1.5c-3,0-5.4-2.5-5.4-5.5c0-3,2.4-5.5,5.4-5.5c1.6,0,2.8,0.6,3.7,1.5l1.5-1.5c-1.2-1.2-2.9-2.1-5.2-2.1
		c-4.2,0-7.7,3.4-7.7,7.6c0,4.2,3.5,7.6,7.7,7.6c2.3,0,3.9-0.7,5.3-2.1c1.4-1.4,1.8-3.3,1.8-4.8c0-0.5,0-0.9-0.1-1.3H54.7z
		 M106.6,35.3c-0.4-1.1-1.6-3.1-4.2-3.1c-2.5,0-4.6,2-4.6,4.9c0,2.7,2.1,4.9,4.8,4.9c2.2,0,3.5-1.4,4.1-2.2l-1.7-1.1
		c-0.6,0.8-1.3,1.3-2.4,1.3c-1.1,0-1.9-0.5-2.4-1.5l6.5-2.7L106.6,35.3z M100,36.9c-0.1-1.9,1.5-2.8,2.5-2.8c0.8,0,1.6,0.4,1.8,1
		L100,36.9z M94.7,41.6h2.1V27.3h-2.1V41.6z M91.2,33.2L91.2,33.2c-0.6-0.6-1.5-1.1-2.6-1.1c-2.4,0-4.7,2.1-4.7,4.9
		c0,2.7,2.2,4.9,4.7,4.9c1.2,0,2.1-0.5,2.6-1.1h0.1v0.7c0,1.9-1,2.9-2.6,2.9c-1.3,0-2.1-0.9-2.5-1.7l-1.9,0.8c0.5,1.3,2,2.9,4.3,2.9
		c2.5,0,4.6-1.5,4.6-5.1v-8.7h-2V33.2z M88.7,40C87.2,40,86,38.7,86,37c0-1.7,1.2-3,2.7-3c1.5,0,2.6,1.3,2.6,3
		C91.3,38.7,90.2,40,88.7,40z M116.6,27.3h-5.1v14.3h2.1v-5.4h3c2.4,0,4.7-1.7,4.7-4.4C121.3,29,119,27.3,116.6,27.3z M116.7,34.2
		h-3v-4.9h3c1.6,0,2.5,1.3,2.5,2.5C119.2,32.8,118.3,34.2,116.7,34.2z M129.9,32.1c-1.5,0-3.2,0.7-3.8,2.2l1.9,0.8
		c0.4-0.8,1.2-1.1,2-1.1c1.1,0,2.2,0.7,2.2,1.8v0.1c-0.4-0.2-1.2-0.6-2.2-0.6c-2,0-4.1,1.1-4.1,3.2c0,1.9,1.7,3.2,3.6,3.2
		c1.4,0,2.2-0.6,2.7-1.4h0.1v1.1h2.1v-5.5C134.2,33.5,132.3,32.1,129.9,32.1z M129.6,40c-0.7,0-1.7-0.3-1.7-1.2
		c0-1.1,1.2-1.5,2.3-1.5c0.9,0,1.4,0.2,2,0.5C132,39,130.9,40,129.6,40z M141.8,32.4l-2.5,6.2h-0.1l-2.5-6.2h-2.3l3.8,8.7l-2.2,4.8
		h2.2l5.9-13.5H141.8z M122.5,41.6h2.1V27.3h-2.1V41.6z"/>
	<g>
		
			<linearGradient id="SVGID_1_" gradientUnits="userSpaceOnUse" x1="24.9719" y1="38.5623" x2="5.7457" y2="19.336" gradientTransform="matrix(1 0 0 -1 0 55.7745)">
			<stop  offset="0" style="stop-color:#00A0FF"/>
			<stop  offset="6.574450e-03" style="stop-color:#00A1FF"/>
			<stop  offset="0.2601" style="stop-color:#00BEFF"/>
			<stop  offset="0.5122" style="stop-color:#00D2FF"/>
			<stop  offset="0.7604" style="stop-color:#00DFFF"/>
			<stop  offset="1" style="stop-color:#00E3FF"/>
		</linearGradient>
		<path class="st3" d="M12,15.9c-0.3,0.4-0.5,0.9-0.5,1.6v25.3c0,0.7,0.2,1.3,0.5,1.6l0.1,0.1l14.2-14.2v-0.2V30L12,15.9L12,15.9z"
			/>
		
			<linearGradient id="SVGID_2_" gradientUnits="userSpaceOnUse" x1="38.759" y1="25.6262" x2="11.0386" y2="25.6262" gradientTransform="matrix(1 0 0 -1 0 55.7745)">
			<stop  offset="0" style="stop-color:#FFE000"/>
			<stop  offset="0.4087" style="stop-color:#FFBD00"/>
			<stop  offset="0.7754" style="stop-color:#FFA500"/>
			<stop  offset="1" style="stop-color:#FF9C00"/>
		</linearGradient>
		<path class="st4" d="M31,35l-4.7-4.7v-0.2V30l4.7-4.7l0.1,0.1l5.6,3.2c1.6,0.9,1.6,2.4,0,3.3L31.1,35L31,35z"/>
		
			<linearGradient id="SVGID_3_" gradientUnits="userSpaceOnUse" x1="28.44" y1="22.9974" x2="2.3676" y2="-3.0749" gradientTransform="matrix(1 0 0 -1 0 55.7745)">
			<stop  offset="0" style="stop-color:#FF3A44"/>
			<stop  offset="1" style="stop-color:#C31162"/>
		</linearGradient>
		<path class="st5" d="M31.1,35l-4.8-4.8L12,44.4c0.5,0.6,1.4,0.6,2.4,0.1L31.1,35"/>
		
			<linearGradient id="SVGID_4_" gradientUnits="userSpaceOnUse" x1="8.3577" y1="48.3384" x2="20.0001" y2="36.6961" gradientTransform="matrix(1 0 0 -1 0 55.7745)">
			<stop  offset="0" style="stop-color:#32A071"/>
			<stop  offset="6.850000e-02" style="stop-color:#2DA771"/>
			<stop  offset="0.4762" style="stop-color:#15CF74"/>
			<stop  offset="0.8009" style="stop-color:#06E775"/>
			<stop  offset="1" style="stop-color:#00F076"/>
		</linearGradient>
		<path class="st6" d="M31.1,25.3l-16.7-9.5c-1-0.6-1.9-0.5-2.4,0.1l14.3,14.3L31.1,25.3z"/>
		<g>
			<path class="st7" d="M31,34.9l-16.6,9.4c-0.9,0.5-1.8,0.5-2.3,0l0,0L12,44.4l0,0l0.1,0.1l0,0c0.5,0.5,1.4,0.5,2.3,0L31.1,35
				L31,34.9z"/>
			<path class="st8" d="M12,44.3c-0.3-0.4-0.5-0.9-0.5-1.6v0.2c0,0.7,0.2,1.3,0.5,1.6V44.3L12,44.3z"/>
		</g>
		<path class="st8" d="M36.7,31.6L31,34.9l0.1,0.1l5.6-3.2c0.8-0.5,1.2-1.1,1.2-1.7l0,0C37.8,30.7,37.4,31.2,36.7,31.6z"/>
		<path class="st9" d="M14.3,16l22.3,12.7c0.7,0.4,1.1,0.9,1.2,1.5l0,0c0-0.6-0.4-1.2-1.2-1.7L14.3,15.8c-1.6-0.9-2.9-0.2-2.9,1.7
			v0.2C11.4,15.8,12.7,15.1,14.3,16z"/>
	</g>
</g>
</svg>
