<?xml version="1.0" encoding="utf-8"?>
<!-- Generator: Adobe Illustrator 24.0.1, SVG Export Plug-In . SVG Version: 6.00 Build 0)  -->
<svg version="1.1" id="Capa_1" xmlns="http://www.w3.org/2000/svg" xmlns:xlink="http://www.w3.org/1999/xlink" x="0px" y="0px"
	 viewBox="0 0 512 512" style="enable-background:new 0 0 512 512;" xml:space="preserve">
<style type="text/css">
	.st0{fill:#323556;}
</style>
<g>
	<g>
		<path class="st0" d="M352,0H64C28.7,0,0,28.7,0,64v192c0,35.3,28.7,64,64,64v80c0,6.2,3.6,11.9,9.3,14.5c2.1,1,4.4,1.5,6.7,1.5
			c3.7,0,7.5-1.3,10.4-3.9L197.9,320H352c35.3,0,64-28.7,64-64V64C416,28.7,387.3,0,352,0z M384,256c0,17.6-14.4,32-32,32H192
			c-3.8,0-7.5,1.3-10.4,3.9L96,365.2V304c0-8.8-7.2-16-16-16H64c-17.6,0-32-14.4-32-32V64c0-17.6,14.4-32,32-32h288
			c17.6,0,32,14.4,32,32V256z"/>
	</g>
</g>
<g>
	<g>
		<path class="st0" d="M469.2,99.7c-8.4-2.9-17.4,1.5-20.4,9.9c-2.9,8.4,1.5,17.4,9.9,20.4c12.7,4.4,21.2,16.4,21.2,30v192
			c0,17.6-14.4,32-32,32h-16c-8.8,0-16,7.2-16,16v61.2l-85.6-73.3c-2.9-2.5-6.6-3.9-10.4-3.9H178.2c-8.8,0-16,7.2-16,16
			s7.1,16,16,16h135.8l107.5,92.1c2.9,2.6,6.7,3.9,10.4,3.9c2.3,0,4.5-0.5,6.7-1.5c5.7-2.6,9.3-8.3,9.3-14.5v-80
			c35.3,0,64-28.7,64-64V160C512,132.8,494.8,108.6,469.2,99.7z"/>
	</g>
</g>
<g>
	<g>
		<path class="st0" d="M304,96H112c-8.8,0-16,7.2-16,16s7.2,16,16,16h192c8.8,0,16-7.2,16-16S312.8,96,304,96z"/>
	</g>
</g>
<g>
	<g>
		<path class="st0" d="M240,160H112c-8.8,0-16,7.2-16,16s7.2,16,16,16h128c8.8,0,16-7.2,16-16S248.8,160,240,160z"/>
	</g>
</g>
</svg>
