<?xml version="1.0" encoding="utf-8"?>
<!-- Generator: Adobe Illustrator 24.0.1, SVG Export Plug-In . SVG Version: 6.00 Build 0)  -->
<svg version="1.1" id="Layer_1" xmlns="http://www.w3.org/2000/svg" xmlns:xlink="http://www.w3.org/1999/xlink" x="0px" y="0px"
	 viewBox="0 0 512 512" style="enable-background:new 0 0 512 512;" xml:space="preserve">
<style type="text/css">
	.st0{fill:#FFFFFF;}
</style>
<path class="st0" d="M373.9,308.3c-1.4-4.8-7.4-7.1-13.5-7.1c-5.9,0-11.9,2.3-13.3,7.1l-31,101.1c-0.2,0.6-0.3,1.3-0.3,1.6
	c0,5.1,7.6,8.7,13.2,8.7c3.5,0,6.3-1.1,7.1-4.2l6.1-21.4h36.8l6.1,21.4c0.8,3.1,3.5,4.2,7.1,4.2c5.6,0,13.2-3.7,13.2-8.7
	c0-0.5-0.2-1-0.3-1.6L373.9,308.3z M346.4,377.7l14-49.3l14,49.3H346.4z"/>
<path class="st0" d="M456.8,208.9H303.1v-65.6l50-35.7c3.9-2.8,6.3-7.4,6.3-12.2c0-4.8-2.3-9.4-6.3-12.2L302.5,47
	C298.6,20.4,275.6,0,248,0H55.2C24.7,0,0,24.7,0,55.2V248c0,30.4,24.7,55.2,55.2,55.2h153.7v65.6l-50,35.7
	c-3.9,2.8-6.3,7.4-6.3,12.2s2.3,9.4,6.3,12.2l50.6,36.1c3.9,26.6,26.9,47,54.6,47h192.8c30.4,0,55.2-24.8,55.2-55.2V264
	C512,233.6,487.3,208.9,456.8,208.9z M55.2,273.1C41.3,273.1,30,261.8,30,248V55.2C30,41.3,41.3,30,55.2,30H248
	c13.9,0,25.2,11.3,25.2,25.2c0,4.8,2.3,9.4,6.3,12.2l39.1,28l-39.1,28c-3.9,2.8-6.3,7.4-6.3,12.2v73.4H264
	c-30.4,0-55.2,24.7-55.2,55.2v9.1H55.2z M482,456.8c0,13.9-11.3,25.2-25.2,25.2H264c-13.9,0-25.2-11.3-25.2-25.2
	c0-4.8-2.3-9.4-6.3-12.2l-39.1-28l39.1-28c3.9-2.8,6.3-7.4,6.3-12.2V264c0-13.9,11.3-25.2,25.2-25.2h24.1h0h0h168.7
	c13.9,0,25.2,11.3,25.2,25.2V456.8z"/>
<path class="st0" d="M197.7,138.3c4.7,0,8.5-3.8,8.5-8.5s-3.8-8.5-8.5-8.5H160v-20.5c0-4.7-3.8-8.5-8.5-8.5c-4.7,0-8.5,3.8-8.5,8.5
	v20.5h-37.6c-4.7,0-8.5,3.8-8.5,8.5s3.8,8.5,8.5,8.5h11.7c1.9,17.9,9.6,34,21.2,46.5c-9.6,5.8-20.8,9.1-32.8,9.1
	c-4.7,0-8.5,3.8-8.5,8.5s3.8,8.5,8.5,8.5c17.1,0,33-5.4,46.1-14.5c13.1,9.1,29,14.5,46.1,14.5c4.7,0,8.5-3.8,8.5-8.5
	s-3.8-8.5-8.5-8.5c-12,0-23.2-3.3-32.8-9.1c11.6-12.5,19.3-28.6,21.2-46.5H197.7z M151.6,174.2c-9.3-9.6-15.5-22.1-17.4-35.9h34.8
	C167.1,152.1,160.8,164.6,151.6,174.2z"/>
</svg>
