<?xml version="1.0" encoding="UTF-8" standalone="no"?><!-- Generator: Gravit.io --><svg xmlns="http://www.w3.org/2000/svg" xmlns:xlink="http://www.w3.org/1999/xlink" style="isolation:isolate" viewBox="0 0 512 512" width="512pt" height="512pt"><defs><clipPath id="_clipPath_iXwSBm8WJZiClFrNm0tDTFqM8vEJtTwA"><rect width="512" height="512"/></clipPath></defs><g clip-path="url(#_clipPath_iXwSBm8WJZiClFrNm0tDTFqM8vEJtTwA)"><path d="M 120.637 47.75 L 391.363 47.75 C 431.59 47.75 464.25 80.41 464.25 120.638 L 464.25 391.363 C 464.25 431.59 431.59 464.25 391.363 464.25 L 120.637 464.25 C 80.41 464.25 47.75 431.59 47.75 391.363 L 47.75 120.638 C 47.75 80.41 80.41 47.75 120.637 47.75 Z" style="stroke:none;fill:#FFFFFF;stroke-miterlimit:10;"/><path d=" M 400 0 L 112 0 C 50.144 0 0 50.144 0 112 L 0 400 C 0 461.856 50.144 512 112 512 L 400 512 C 461.856 512 512 461.856 512 400 L 512 112 C 512 50.144 461.856 0 400 0 L 400 0 Z  M 464.25 389.875 C 464.25 430.951 430.951 464.25 389.875 464.25 L 122.125 464.25 C 81.049 464.25 47.75 430.951 47.75 389.875 L 47.75 122.125 C 47.75 81.049 81.049 47.75 122.125 47.75 L 389.875 47.75 C 430.951 47.75 464.25 81.049 464.25 122.125 L 464.25 389.875 L 464.25 389.875 Z " fill-rule="evenodd" fill="rgb(62,62,62)"/><path d=" M 388.379 415.369 L 331.672 358.663 C 308.476 375.932 280.342 385.287 251.424 385.349 C 176.938 385.508 116.426 325.254 116.267 250.767 L 154.801 250.767 C 154.801 303.972 197.931 347.102 251.136 347.102 C 304.341 347.102 347.471 303.972 347.471 250.767 C 347.471 197.563 304.341 154.432 251.136 154.432 L 251.136 115.898 C 325.622 115.898 386.005 176.281 386.005 250.767 C 385.922 279.817 376.462 308.064 359.031 331.303 L 415 387.43 L 388.379 415.369 Z " fill-rule="evenodd" fill="rgb(62,62,62)"/><path d=" M 135.534 212.233 L 174.068 212.233 L 174.068 173.699 L 212.602 173.699 L 212.602 135.165 L 174.068 135.165 L 174.068 96.631 L 135.534 96.631 L 135.534 135.165 L 97 135.165 L 97 173.699 L 135.534 173.699 L 135.534 212.233 Z " fill="rgb(62,62,62)"/></g></svg>