<svg width="30" height="30" viewBox="0 0 30 30" fill="none" xmlns="http://www.w3.org/2000/svg">
<circle cx="15" cy="15" r="15" fill="#2FA260"/>
<path d="M13.1875 14.2646H14.1992C14.7096 14.2601 15.113 14.1279 15.4092 13.8682C15.71 13.6084 15.8604 13.2324 15.8604 12.7402C15.8604 12.2663 15.735 11.8994 15.4844 11.6396C15.2383 11.3753 14.86 11.2432 14.3496 11.2432C13.903 11.2432 13.5361 11.373 13.249 11.6328C12.9619 11.888 12.8184 12.223 12.8184 12.6377H11.1572C11.1572 12.1273 11.2917 11.6624 11.5605 11.2432C11.834 10.8239 12.2122 10.498 12.6953 10.2656C13.1829 10.0286 13.7275 9.91016 14.3291 9.91016C15.3226 9.91016 16.1019 10.1608 16.667 10.6621C17.2367 11.1589 17.5215 11.8516 17.5215 12.7402C17.5215 13.1868 17.3779 13.6084 17.0908 14.0049C16.8083 14.3968 16.4414 14.693 15.9902 14.8936C16.5371 15.0804 16.9518 15.3743 17.2344 15.7754C17.5215 16.1764 17.665 16.6549 17.665 17.2109C17.665 18.1042 17.3574 18.8151 16.7422 19.3438C16.1315 19.8724 15.3271 20.1367 14.3291 20.1367C13.3721 20.1367 12.5882 19.8815 11.9775 19.3711C11.3669 18.8607 11.0615 18.1816 11.0615 17.334H12.7227C12.7227 17.7715 12.8685 18.127 13.1602 18.4004C13.4564 18.6738 13.8529 18.8105 14.3496 18.8105C14.8646 18.8105 15.2702 18.6738 15.5664 18.4004C15.8626 18.127 16.0107 17.7305 16.0107 17.2109C16.0107 16.6868 15.8558 16.2835 15.5459 16.001C15.236 15.7184 14.7757 15.5771 14.165 15.5771H13.1875V14.2646Z" fill="white"/>
</svg>
