<?xml version="1.0" encoding="utf-8"?>
<!-- Generator: Adobe Illustrator 24.0.1, SVG Export Plug-In . SVG Version: 6.00 Build 0)  -->
<svg version="1.1" id="Layer_1" xmlns="http://www.w3.org/2000/svg" xmlns:xlink="http://www.w3.org/1999/xlink" x="0px" y="0px"
	 viewBox="0 0 595.3 541.4" style="enable-background:new 0 0 595.3 541.4;" xml:space="preserve">
<style type="text/css">
	.st0{fill:#FFFFFF;}
	.st1{fill:#343657;}
	.st2{fill:#E95927;}
</style>
<g>
	<circle class="st0" cx="302.5" cy="265.2" r="251.7"/>
	<g>
		<path class="st1" d="M134.5,173.6h-17.3c2.7-23,14.2-34.5,34.5-34.5h34.6c9.4,0,17.6,3.4,24.3,10.2c6.8,6.8,10.2,14.9,10.2,24.3
			v8.8c0,11.9-11.1,27.4-33.4,46.4l-2.3,2c-22.3,19-33.4,34-33.4,44.9v1.5h69.1v17.3H117.2v-17.3c0-11.9,11.1-27.4,33.4-46.5l2.3-2
			c22.3-19,33.4-34.5,33.4-46.4v-8.7c0-4.7-1.7-8.7-5.2-12.1c-3.5-3.4-7.5-5.1-12.1-5.1h-17.3C141,156.4,135.3,162.1,134.5,173.6z"
			/>
	</g>
	<g>
		<g>
			<g>
				<path class="st2" d="M123.1,374.9c2.4,2.7,4.5,4.7,6.8,7c2.3,2.2,4.6,4.3,7,6.4c4.8,4.1,9.6,8.1,14.7,11.8
					c10.1,7.5,20.8,14.2,31.9,20.1c22.2,11.8,46.3,20.1,71.2,24.3c1.6,0.3,3.1,0.6,4.7,0.8l4.7,0.5c3.1,0.3,6.3,0.8,9.4,1l9.4,0.5
					c1.6,0.1,3.1,0.2,4.7,0.2l4.7,0l9.4-0.1l9.4-0.7c6.3-0.3,12.5-1.4,18.7-2.3c24.9-4,48.9-11.8,71.6-22.2l16.8-8.3
					c0.7-0.4,1.4-0.7,2.1-1l0.8-0.5l0.5-0.3l1.1-0.6l4.4-2.5l8.9-5.1c3-1.6,5.8-3.6,8.7-5.4l8.6-5.5c-1.5,7-3.2,14.1-5,21.3
					c-1.9,7.1-4.2,14.1-6.5,21.3l10.3-5.9c1.7-1,3.4-2,5-3.1l4.9-3.2c1.2-4.5,2.3-9,3.4-13.5l1.6-6.7l1.3-6.8
					c1.7-9,3.2-17.9,4.5-26.6c-8.9-1.3-17.7-2.8-26.2-4.4l-6.3-1.2l-6.4-1.5c-4.2-1-8.4-2.1-12.5-3.2l-4.1,2.6
					c-1.3,0.9-2.7,1.8-4.1,2.5l-8.4,4.7c6.4,2.1,13,4.3,19.7,6.1c6.6,1.7,13.5,3.3,20.4,4.8l-8.3,5.3c-2.8,1.7-5.4,3.7-8.3,5.2
					l-8.5,4.9l-4.2,2.4l-1.1,0.6l-0.5,0.3l-0.8,0.4c-0.6,0.4-1.3,0.7-2,1l-16,7.9c-21.6,9.9-44.4,17.3-67.7,21
					c-5.8,0.8-11.7,1.9-17.6,2.1l-8.8,0.7l-8.8,0.1l-4.4,0c-1.5,0-2.9-0.1-4.4-0.2l-8.8-0.5c-2.9-0.2-5.8-0.6-8.8-1l-4.4-0.5
					c-1.5-0.2-2.9-0.5-4.3-0.7c-23.2-3.8-45.8-11.6-66.6-22.7c-10.4-5.5-20.4-11.9-29.9-18.9c-4.8-3.5-9.3-7.2-13.8-11.1
					c-2.2-1.9-4.4-3.9-6.5-5.9c-2-2-4.2-4.2-5.9-6.1L123.1,374.9z"/>
			</g>
		</g>
	</g>
	<path class="st2" d="M298.1,13.6C156.6,13.6,42,128.2,42,269.6s114.6,256.1,256.1,256.1s256.1-114.6,256.1-256.1
		C554.1,127.1,439.5,13.6,298.1,13.6z M298.1,509.6c-132.3,0-239.5-107.2-239.5-239.5S165.8,30.6,298.1,30.6
		s239.5,107.2,239.5,239.5S430.3,509.6,298.1,509.6z"/>
	<g>
		<path class="st1" d="M478.9,141.6v83.5c0,44.4-24.8,68.1-64.1,69.4c-39.1,1.3-72.2-21.1-72.2-69.4v-83.5h33.1v83.5
			c0,26.7,14.9,40.6,39.3,39.5c22.6-1.5,30.7-17.1,30.7-39.5v-83.5H478.9z"/>
	</g>
</g>
</svg>
