<?xml version="1.0" encoding="UTF-8" standalone="no"?><!-- Generator: Gravit.io --><svg xmlns="http://www.w3.org/2000/svg" xmlns:xlink="http://www.w3.org/1999/xlink" style="isolation:isolate" viewBox="0 0 110 36" width="110pt" height="36pt"><defs><clipPath id="_clipPath_tv8GvtWuER6cT3orlCGbGizJAkrO8bDs"><rect width="110" height="36"/></clipPath></defs><g clip-path="url(#_clipPath_tv8GvtWuER6cT3orlCGbGizJAkrO8bDs)"><rect width="110" height="36" style="fill:rgb(23,23,23)" fill-opacity="0"/><g opacity="0.9"><path d=" M 74.919 11.937 C 71.567 11.937 68.853 14.651 68.853 18 C 68.853 21.349 71.567 24.066 74.919 24.066 C 78.27 24.066 80.984 21.352 80.984 18 C 80.981 14.625 78.268 11.937 74.919 11.937 L 74.919 11.937 L 74.919 11.937 L 74.919 11.937 L 74.919 11.937 L 74.919 11.937 Z  M 74.919 21.967 C 72.732 21.967 70.96 20.196 70.96 18.009 C 70.96 15.822 72.732 14.05 74.919 14.05 C 77.105 14.05 78.877 15.822 78.877 18.009 C 78.877 20.196 77.103 21.967 74.919 21.967 L 74.919 21.967 L 74.919 21.967 Z " fill-rule="evenodd" fill="rgb(255,255,255)"/></g><circle vector-effect="non-scaling-stroke" cx="15.81000000000003" cy="18" r="14.496583020382182" fill="rgb(255,255,255)"/><path d=" M 8.46 22.714 C 8.568 22.857 8.663 22.962 8.766 23.085 C 8.869 23.203 8.972 23.314 9.08 23.426 C 9.295 23.643 9.51 23.856 9.739 24.052 C 10.192 24.45 10.671 24.806 11.17 25.12 C 12.165 25.748 13.246 26.188 14.364 26.412 C 14.436 26.426 14.504 26.443 14.575 26.454 L 14.786 26.481 C 14.925 26.496 15.068 26.523 15.207 26.534 L 15.629 26.559 C 15.7 26.566 15.768 26.57 15.839 26.57 L 16.05 26.57 L 16.472 26.566 L 16.893 26.528 C 17.175 26.513 17.454 26.454 17.732 26.405 C 18.849 26.193 19.925 25.78 20.945 25.228 L 21.697 24.785 C 21.729 24.764 21.761 24.749 21.792 24.732 L 21.828 24.705 L 21.851 24.69 L 21.9 24.659 L 22.098 24.526 L 22.496 24.254 C 22.631 24.17 22.757 24.062 22.886 23.967 L 23.271 23.675 C 23.204 24.047 23.128 24.425 23.048 24.806 C 22.964 25.183 22.861 25.556 22.757 25.938 L 23.219 25.626 C 23.295 25.571 23.37 25.518 23.442 25.459 L 23.663 25.291 C 23.716 25.051 23.767 24.812 23.815 24.572 L 23.887 24.216 L 23.946 23.856 C 24.022 23.377 24.089 22.905 24.148 22.442 C 23.748 22.372 23.354 22.294 22.972 22.208 L 22.69 22.145 L 22.401 22.065 C 22.214 22.012 22.026 21.953 21.841 21.896 L 21.657 22.033 C 21.598 22.082 21.537 22.128 21.474 22.166 L 21.097 22.417 C 21.383 22.528 21.68 22.644 21.98 22.739 C 22.277 22.83 22.587 22.916 22.896 22.994 L 22.523 23.276 C 22.397 23.367 22.281 23.472 22.15 23.552 L 21.769 23.814 L 21.581 23.94 L 21.531 23.972 L 21.51 23.989 L 21.474 24.01 C 21.447 24.031 21.415 24.047 21.383 24.062 L 20.667 24.484 C 19.698 25.008 18.674 25.402 17.628 25.598 C 17.369 25.64 17.104 25.699 16.84 25.71 L 16.444 25.748 L 16.05 25.752 L 15.852 25.752 C 15.785 25.752 15.724 25.748 15.656 25.742 L 15.26 25.714 C 15.132 25.704 15.001 25.683 14.866 25.662 L 14.668 25.636 C 14.6 25.626 14.539 25.609 14.476 25.598 C 13.435 25.396 12.422 24.983 11.488 24.393 C 11.023 24.1 10.574 23.761 10.146 23.388 C 9.931 23.203 9.729 23.007 9.529 22.798 C 9.43 22.697 9.331 22.591 9.236 22.484 C 9.147 22.379 9.048 22.263 8.972 22.162 L 8.46 22.714 Z " fill="rgb(233,89,39)"/><path d=" M 24.371 11.398 L 24.371 15.351 C 24.371 17.454 23.198 18.577 21.335 18.638 C 19.485 18.7 17.917 17.64 17.917 15.351 L 17.917 11.398 L 19.485 11.398 L 19.485 15.351 C 19.485 16.618 20.191 17.275 21.345 17.222 C 22.416 17.151 22.799 16.413 22.799 15.351 L 22.799 11.398 L 24.371 11.398 L 24.371 11.398 Z " fill="rgb(52,54,87)"/><path d=" M 8.062 12.913 L 7.242 12.913 C 7.371 11.824 7.915 11.28 8.877 11.28 L 10.515 11.28 C 10.959 11.28 11.349 11.44 11.665 11.763 C 11.988 12.085 12.15 12.469 12.15 12.913 L 12.15 13.331 C 12.15 13.893 11.623 14.629 10.567 15.528 L 10.458 15.623 C 9.402 16.523 8.877 17.233 8.877 17.749 L 8.877 17.819 L 12.15 17.819 L 12.15 18.638 L 7.242 18.638 L 7.242 17.819 C 7.242 17.256 7.769 16.523 8.825 15.617 L 8.934 15.522 C 9.99 14.622 10.515 13.889 10.515 13.326 L 10.515 12.913 C 10.515 12.69 10.435 12.502 10.268 12.34 C 10.104 12.18 9.914 12.1 9.695 12.1 L 8.877 12.1 C 8.37 12.1 8.1 12.37 8.062 12.913 Z " fill="rgb(52,54,87)"/><path d=" M 15.81 3.253 C 7.66 3.253 1.06 9.853 1.06 17.997 C 1.06 26.141 7.66 32.747 15.81 32.747 C 23.96 32.747 30.56 26.147 30.56 17.997 C 30.554 9.79 23.954 3.253 15.81 3.253 L 15.81 3.253 L 15.81 3.253 Z  M 15.81 30.952 C 8.669 30.952 2.883 25.165 2.883 18.024 C 2.883 10.883 8.669 5.097 15.81 5.097 C 22.951 5.097 28.737 10.883 28.737 18.024 C 28.737 25.165 22.945 30.952 15.81 30.952 L 15.81 30.952 Z " fill-rule="evenodd" fill="rgb(233,89,39)"/><g opacity="0.9"><path d=" M 45.622 12.832 L 48.179 12.832 L 48.179 19.32 L 48.179 19.32 Q 48.179 20.427 48.756 20.973 L 48.756 20.973 L 48.756 20.973 Q 49.334 21.519 50.223 21.519 L 50.223 21.519 L 50.223 21.519 Q 51.127 21.519 51.704 20.965 L 51.704 20.965 L 51.704 20.965 Q 52.281 20.412 52.281 19.32 L 52.281 19.32 L 52.281 12.832 L 54.839 12.832 L 54.839 19.46 L 54.839 19.46 Q 54.839 21.41 53.576 22.517 L 53.576 22.517 L 53.576 22.517 Q 52.312 23.624 50.223 23.624 L 50.223 23.624 L 50.223 23.624 Q 48.148 23.624 46.885 22.525 L 46.885 22.525 L 46.885 22.525 Q 45.622 21.425 45.622 19.46 L 45.622 19.46 L 45.622 12.832 L 45.622 12.832 Z " fill="rgb(255,255,255)"/></g><g opacity="0.9"><path d=" M 43.677 15.421 L 43.677 15.421 L 43.677 15.421 Q 43.677 16.622 43.096 17.661 L 43.096 17.661 L 43.096 17.661 Q 42.514 18.699 41.18 19.843 L 41.18 19.843 L 40.17 20.701 L 43.83 20.701 L 44.154 23.141 L 35.823 23.141 L 35.823 21.063 L 39.217 18.07 L 39.217 18.07 Q 40.151 17.251 40.513 16.679 L 40.513 16.679 L 40.513 16.679 Q 40.875 16.107 40.894 15.649 L 40.894 15.649 L 40.894 15.649 Q 40.894 15.211 40.541 14.925 L 40.541 14.925 L 40.541 14.925 Q 40.189 14.639 39.598 14.639 L 39.598 14.639 L 39.598 14.639 Q 38.912 14.639 38.149 15.068 L 38.149 15.068 L 38.149 15.068 Q 37.387 15.497 37.024 15.745 L 37.024 15.745 L 35.69 13.667 L 35.69 13.667 Q 36.281 13.171 37.32 12.638 L 37.32 12.638 L 37.32 12.638 Q 38.359 12.104 39.712 12.104 L 39.712 12.104 L 39.712 12.104 Q 41.981 12.104 42.829 13.162 L 42.829 13.162 L 42.829 13.162 Q 43.677 14.22 43.677 15.421 Z " fill="rgb(255,255,255)"/></g><g opacity="0.9"><path d=" M 63.298 20.029 L 63.298 20.029 L 61.301 17.533 L 61.301 23.117 L 58.743 23.117 L 58.743 12.511 L 60.475 12.511 L 63.797 16.847 L 63.797 16.847 Q 64.561 15.771 65.317 14.679 L 65.317 14.679 L 65.317 14.679 Q 66.074 13.587 66.838 12.511 L 66.838 12.511 L 68.507 12.511 L 68.507 23.117 L 65.933 23.117 L 65.933 17.658 L 65.933 17.658 Q 65.544 18.219 65.13 18.773 L 65.13 18.773 L 65.13 18.773 Q 64.717 19.327 64.311 19.888 L 64.311 19.888 L 64.311 19.888 Q 64.062 19.904 63.804 19.951 L 63.804 19.951 L 63.804 19.951 Q 63.547 19.997 63.298 20.029 Z " fill="rgb(255,255,255)"/></g><g opacity="0.9"><path d=" M 88.722 12.832 L 91.28 12.832 L 91.28 23.437 L 88.846 23.437 L 88.846 23.437 Q 87.755 21.924 86.655 20.349 L 86.655 20.349 L 86.655 20.349 Q 85.556 18.774 84.479 17.261 L 84.479 17.261 L 84.479 23.437 L 81.922 23.437 L 81.922 12.832 L 84.355 12.832 L 88.722 19.133 L 88.722 12.832 L 88.722 12.832 Z  M 99.528 23.437 L 99.528 23.437 L 91.87 23.437 L 91.87 12.832 L 98.671 12.832 L 98.951 14.859 L 94.428 14.859 L 94.428 17.105 L 97.548 17.105 L 97.828 19.117 L 94.428 19.117 L 94.428 21.441 L 99.232 21.441 L 99.232 21.441 Q 99.31 21.94 99.38 22.439 L 99.38 22.439 L 99.38 22.439 Q 99.45 22.938 99.528 23.437 Z  M 105.259 23.437 L 102.701 23.437 L 102.701 19.273 L 99.114 13.112 L 101.766 12.832 L 103.965 16.856 L 106.289 12.832 L 108.94 12.832 L 105.259 19.32 L 105.259 23.437 L 105.259 23.437 Z " fill="rgb(255,255,255)"/></g></g></svg>