<?xml version="1.0" encoding="utf-8"?>
<!-- Generator: Adobe Illustrator 24.0.1, SVG Export Plug-In . SVG Version: 6.00 Build 0)  -->
<svg version="1.1" id="Layer_1" xmlns="http://www.w3.org/2000/svg" xmlns:xlink="http://www.w3.org/1999/xlink" x="0px" y="0px"
	 viewBox="0 0 600 160" style="enable-background:new 0 0 600 160;" xml:space="preserve">
<style type="text/css">
	.st0{fill:#FFFFFF;}
	.st1{fill:#E01B22;}
	.st2{fill:#7E8180;}
	.st3{fill:#BE1E2D;}
</style>
<rect x="1" class="st0" width="598" height="160"/>
<g>
	<g>
		<g>
			<path class="st1" d="M306.7,105.8c1.4-0.3,3.2-0.5,5.1-0.5c2.7,0,5.1,0.8,6.3,2.3c0.9,1.2,1.4,2.5,1.4,4.4c0,2.8-1.4,5.3-3,6.7
				c-2,1.8-5,2.6-7.9,2.6c-1.1,0-2-0.1-3-0.2l-2.2,11.6h-1.8L306.7,105.8z M305.9,119.4c1.1,0.3,2,0.3,3,0.3c5.3,0,8.8-3.2,8.8-7.7
				c0-3.6-2.6-5.2-6.2-5.2c-1.5,0-2.6,0.1-3.3,0.4L305.9,119.4z"/>
			<path class="st1" d="M336.4,120.9c0,5.3-3.9,12.1-10.2,12.1c-4.8,0-7.1-3.8-7.1-7.9c0-6.2,4.3-12.3,10.2-12.3
				C334.4,112.8,336.4,117,336.4,120.9z M320.9,125c0,3.7,2.1,6.5,5.5,6.5c4.4,0,8.1-5.4,8.1-10.6c0-2.5-1.2-6.5-5.4-6.5
				C324.3,114.4,320.9,119.7,320.9,125z"/>
			<path class="st1" d="M341,113.3l1.1,12.5c0.2,2.5,0.3,3.4,0.3,4.6h0.1c0.3-0.8,0.9-2.2,2-4.2l7-13h1.8l1.7,12.8
				c0.3,2,0.4,3.5,0.5,4.3h0.1c0.4-1.2,0.9-2.4,1.6-4l6.4-13.1h1.9l-9.7,19.3h-1.7l-1.7-12.9c-0.2-1.7-0.4-3.2-0.4-4.5h-0.1
				c-0.7,1.3-1.3,2.8-2.2,4.5l-7,12.9H341l-1.8-19.3H341z"/>
			<path class="st1" d="M377.4,131.5c-1,0.6-3,1.5-5.9,1.5c-4.9,0-6.7-3.7-6.7-7.5c0-5.8,4.4-12.7,10.1-12.7c3.5,0,5,2.2,5,4.4
				c0,5.2-6.3,6.2-13.1,6.1c-0.3,1-0.2,3.4,0.3,4.7c0.8,2.2,2.5,3.3,4.7,3.3c2.4,0,4.1-0.8,5.1-1.4L377.4,131.5z M374.5,114.4
				c-3.5,0-6.4,3.6-7.5,7.5c5.7,0.1,11-0.7,11-4.5C378,115.4,376.6,114.4,374.5,114.4z"/>
			<path class="st1" d="M381,132.6l2.5-13c0.4-2.3,0.8-4.4,1-6.3h1.7c-0.2,1.4-0.4,2.7-0.7,4.3h0.1c1.2-2.7,3.2-4.8,5.8-4.8
				c0.3,0,0.7,0,0.9,0.1l-0.4,1.8c-0.2-0.1-0.5-0.1-0.9-0.1c-2.4,0-5.5,3.6-6.4,8.6l-1.8,9.4H381z"/>
			<path class="st1" d="M404,131.5c-1,0.6-3,1.5-5.9,1.5c-4.9,0-6.7-3.7-6.7-7.5c0-5.8,4.4-12.7,10.1-12.7c3.5,0,5,2.2,5,4.4
				c0,5.2-6.3,6.2-13.1,6.1c-0.3,1-0.2,3.4,0.3,4.7c0.8,2.2,2.5,3.3,4.7,3.3c2.4,0,4.1-0.8,5.1-1.4L404,131.5z M401.2,114.4
				c-3.5,0-6.4,3.6-7.5,7.5c5.7,0.1,11-0.7,11-4.5C404.7,115.4,403.2,114.4,401.2,114.4z"/>
			<path class="st1" d="M426.9,104l-4.4,23.3c-0.3,1.7-0.6,3.7-0.8,5.3H420l0.7-4.3h-0.1c-1.8,2.8-4.3,4.7-7.4,4.7
				c-4,0-5.6-3.4-5.6-6.9c0-7,5.3-13.3,11.8-13.3c1.5,0,3.1,0.3,3.9,0.8l1.8-9.6H426.9z M423,115.3c-0.8-0.5-2.1-0.9-3.7-0.9
				c-5.4,0-9.8,5.6-9.8,11.6c0,2.3,0.7,5.5,4.3,5.5c3.1,0,6.9-3.7,7.8-8.4L423,115.3z"/>
			<path class="st1" d="M440.5,104l-2.7,13.5l0.1,0c1.9-3.2,4.6-4.7,7.3-4.7c4.4,0,5.9,3.6,5.9,7c0,5.7-4.4,13.2-11.6,13.2
				c-2.7,0-5.4-1.1-5.4-4.7c0-0.8,0.1-1.9,0.3-2.7l4.3-21.6H440.5z M436.2,125.6c-0.2,0.7-0.3,1.5-0.3,2.6c0,2.1,1.2,3.3,3.7,3.3
				c6.1,0,9.5-6.8,9.5-11.7c0-2.7-1.2-5.4-4.4-5.4c-3.4,0-6.9,3.5-8.1,8.8L436.2,125.6z"/>
			<path class="st1" d="M455.2,113.3l2.4,11.6c0.5,2.4,0.8,3.8,1,5.4h0.1c0.6-1.3,1.2-2.7,2.3-4.9l5.9-12.2h2l-7.5,15.2
				c-1.8,3.6-3.5,6.9-6.2,9.6c-2.1,2.2-4.3,3.1-5.3,3.4l-0.5-1.6c0.8-0.3,2.3-0.9,3.7-2.1c1.3-1.1,2.9-2.9,4.1-5.2
				c0.2-0.3,0.1-0.6,0.1-0.8l-3.9-18.5H455.2z"/>
			<path class="st1" d="M481.8,105.5l-3.1,16.4c-0.2,1.2-0.4,2.4-0.4,3.5c0,4.3,2.4,6.1,5.7,6.1c4.1,0,7.3-2.8,8.5-9.6l3.1-16.4h1.8
				l-3.2,16.7c-1.5,8-5.8,10.9-10.6,10.9c-3.8,0-7.2-2.2-7.2-7.6c0-1.1,0.1-2.5,0.4-3.7l3.1-16.3H481.8z"/>
			<path class="st1" d="M503.3,105.8c1.5-0.3,3.1-0.5,5-0.5c2.8,0,4.8,0.7,6,2.1c0.9,1.1,1.2,2.3,1.2,3.8c0,3.4-2.9,6.2-6.1,7v0.1
				c2.4,0.7,4.6,2.6,4.6,6.1c0,2.7-1.4,4.9-3,6.2c-2.1,1.7-4.8,2.2-7.9,2.2c-1.9,0-3.6-0.1-4.9-0.3L503.3,105.8z M500.3,131
				c1,0.2,2.1,0.2,3.1,0.2c4.5,0,8.7-1.9,8.7-7c0-3.5-2.9-5.3-6.2-5.3h-3.3L500.3,131z M502.9,117.4h2.8c4.3,0,7.8-2.4,7.8-6.3
				c0-3-2.2-4.3-5.6-4.3c-1.4,0-2.5,0.1-3.1,0.3L502.9,117.4z"/>
			<path class="st1" d="M521.4,123.1l-5,9.5h-1.9l14.5-27.1h1.8l4.1,27.1h-1.8l-1.4-9.5H521.4z M531.5,121.5l-1.4-9.1
				c-0.2-1.4-0.4-3.2-0.5-4.8h-0.1c-0.7,1.6-1.4,3-2.2,4.7l-4.9,9.2H531.5z"/>
		</g>
		<g>
			<g>
				<path class="st1" d="M307.4,105.8c1.4-0.3,3.2-0.5,5.1-0.5c2.7,0,5.1,0.8,6.3,2.3c0.9,1.2,1.4,2.5,1.4,4.4c0,2.8-1.4,5.3-3,6.7
					c-2,1.8-5,2.6-7.9,2.6c-1.1,0-2-0.1-3-0.2l-2.2,11.6h-1.8L307.4,105.8z M306.6,119.4c1.1,0.3,2,0.3,3,0.3c5.3,0,8.8-3.2,8.8-7.7
					c0-3.6-2.6-5.2-6.2-5.2c-1.5,0-2.6,0.1-3.3,0.4L306.6,119.4z"/>
				<path class="st1" d="M337,120.9c0,5.3-3.9,12.1-10.2,12.1c-4.8,0-7.1-3.8-7.1-7.9c0-6.2,4.3-12.3,10.2-12.3
					C335.1,112.8,337,117,337,120.9z M321.5,125c0,3.7,2.1,6.5,5.5,6.5c4.4,0,8.1-5.4,8.1-10.6c0-2.5-1.2-6.5-5.4-6.5
					C325,114.4,321.5,119.7,321.5,125z"/>
				<path class="st1" d="M341.7,113.3l1.1,12.5c0.2,2.5,0.3,3.4,0.3,4.6h0.1c0.3-0.8,0.9-2.2,2-4.2l7-13h1.8l1.7,12.8
					c0.3,2,0.4,3.5,0.5,4.3h0.1c0.4-1.2,0.9-2.4,1.6-4l6.4-13.1h1.9l-9.7,19.3h-1.7l-1.7-12.9c-0.2-1.7-0.4-3.2-0.4-4.5h-0.1
					c-0.7,1.3-1.3,2.8-2.2,4.5l-7,12.9h-1.7l-1.8-19.3H341.7z"/>
				<path class="st1" d="M378,131.5c-1,0.6-3,1.5-5.9,1.5c-4.9,0-6.7-3.7-6.7-7.5c0-5.8,4.4-12.7,10.1-12.7c3.5,0,5,2.2,5,4.4
					c0,5.2-6.3,6.2-13.1,6.1c-0.3,1-0.2,3.4,0.3,4.7c0.8,2.2,2.5,3.3,4.7,3.3c2.4,0,4.1-0.8,5.1-1.4L378,131.5z M375.2,114.4
					c-3.5,0-6.4,3.6-7.5,7.5c5.7,0.1,11-0.7,11-4.5C378.7,115.4,377.2,114.4,375.2,114.4z"/>
				<path class="st1" d="M381.7,132.6l2.5-13c0.4-2.3,0.8-4.4,1-6.3h1.7c-0.2,1.4-0.4,2.7-0.7,4.3h0.1c1.2-2.7,3.2-4.8,5.8-4.8
					c0.3,0,0.7,0,0.9,0.1l-0.4,1.8c-0.2-0.1-0.5-0.1-0.9-0.1c-2.4,0-5.5,3.6-6.4,8.6l-1.8,9.4H381.7z"/>
				<path class="st1" d="M404.7,131.5c-1,0.6-3,1.5-5.9,1.5c-4.9,0-6.7-3.7-6.7-7.5c0-5.8,4.4-12.7,10.1-12.7c3.5,0,5,2.2,5,4.4
					c0,5.2-6.3,6.2-13.1,6.1c-0.3,1-0.2,3.4,0.3,4.7c0.8,2.2,2.5,3.3,4.7,3.3c2.4,0,4.1-0.8,5.1-1.4L404.7,131.5z M401.9,114.4
					c-3.5,0-6.4,3.6-7.5,7.5c5.7,0.1,11-0.7,11-4.5C405.3,115.4,403.9,114.4,401.9,114.4z"/>
				<path class="st1" d="M427.6,104l-4.4,23.3c-0.3,1.7-0.6,3.7-0.8,5.3h-1.7l0.7-4.3h-0.1c-1.8,2.8-4.3,4.7-7.4,4.7
					c-4,0-5.6-3.4-5.6-6.9c0-7,5.3-13.3,11.8-13.3c1.5,0,3.1,0.3,3.9,0.8l1.8-9.6H427.6z M423.7,115.3c-0.8-0.5-2.1-0.9-3.7-0.9
					c-5.4,0-9.8,5.6-9.8,11.6c0,2.3,0.7,5.5,4.3,5.5c3.1,0,6.9-3.7,7.8-8.4L423.7,115.3z"/>
				<path class="st1" d="M441.2,104l-2.7,13.5l0.1,0c1.9-3.2,4.6-4.7,7.3-4.7c4.4,0,5.9,3.6,5.9,7c0,5.7-4.4,13.2-11.6,13.2
					c-2.7,0-5.4-1.1-5.4-4.7c0-0.8,0.1-1.9,0.3-2.7l4.3-21.6H441.2z M436.9,125.6c-0.2,0.7-0.3,1.5-0.3,2.6c0,2.1,1.2,3.3,3.7,3.3
					c6.1,0,9.5-6.8,9.5-11.7c0-2.7-1.2-5.4-4.4-5.4c-3.4,0-6.9,3.5-8.1,8.8L436.9,125.6z"/>
				<path class="st1" d="M455.8,113.3l2.4,11.6c0.5,2.4,0.8,3.8,1,5.4h0.1c0.6-1.3,1.2-2.7,2.3-4.9l5.9-12.2h2l-7.5,15.2
					c-1.8,3.6-3.5,6.9-6.2,9.6c-2.1,2.2-4.3,3.1-5.3,3.4l-0.5-1.6c0.8-0.3,2.3-0.9,3.7-2.1c1.3-1.1,2.9-2.9,4.1-5.2
					c0.2-0.3,0.1-0.6,0.1-0.8l-3.9-18.5H455.8z"/>
				<path class="st1" d="M482.5,105.5l-3.1,16.4c-0.2,1.2-0.4,2.4-0.4,3.5c0,4.3,2.4,6.1,5.7,6.1c4.1,0,7.3-2.8,8.5-9.6l3.1-16.4
					h1.8l-3.2,16.7c-1.5,8-5.8,10.9-10.6,10.9c-3.8,0-7.2-2.2-7.2-7.6c0-1.1,0.1-2.5,0.4-3.7l3.1-16.3H482.5z"/>
				<path class="st1" d="M503.9,105.8c1.5-0.3,3.1-0.5,5-0.5c2.8,0,4.8,0.7,6,2.1c0.9,1.1,1.2,2.3,1.2,3.8c0,3.4-2.9,6.2-6.1,7v0.1
					c2.4,0.7,4.6,2.6,4.6,6.1c0,2.7-1.4,4.9-3,6.2c-2.1,1.7-4.8,2.2-7.9,2.2c-1.9,0-3.6-0.1-4.9-0.3L503.9,105.8z M501,131
					c1,0.2,2.1,0.2,3.1,0.2c4.5,0,8.7-1.9,8.7-7c0-3.5-2.9-5.3-6.2-5.3h-3.3L501,131z M503.5,117.4h2.8c4.3,0,7.8-2.4,7.8-6.3
					c0-3-2.2-4.3-5.6-4.3c-1.4,0-2.5,0.1-3.1,0.3L503.5,117.4z"/>
				<path class="st1" d="M522.1,123.1l-5,9.5h-1.9l14.5-27.1h1.8l4.1,27.1h-1.8l-1.4-9.5H522.1z M532.2,121.5l-1.4-9.1
					c-0.2-1.4-0.4-3.2-0.5-4.8h-0.1c-0.7,1.6-1.4,3-2.2,4.7l-4.9,9.2H532.2z"/>
			</g>
		</g>
		<path class="st1" d="M305.9,109.6h-11.6c-0.1,0-0.1-0.1-0.1-0.1v-0.9c0-0.1,0.1-0.1,0.1-0.1h11.6c0.1,0,0.1,0.1,0.1,0.1v0.9
			C306,109.5,306,109.6,305.9,109.6z"/>
		<path class="st1" d="M309.3,115.9h-11.6c-0.1,0-0.1-0.1-0.1-0.1v-0.9c0-0.1,0.1-0.1,0.1-0.1h11.6c0.1,0,0.1,0.1,0.1,0.1v0.9
			C309.4,115.9,309.3,115.9,309.3,115.9z"/>
		<path class="st1" d="M311.2,124.6h-11.6c-0.1,0-0.1-0.1-0.1-0.1v-0.9c0-0.1,0.1-0.1,0.1-0.1h11.6c0.1,0,0.1,0.1,0.1,0.1v0.9
			C311.3,124.6,311.2,124.6,311.2,124.6z"/>
		<path class="st1" d="M303.4,130.3h-11.6c-0.1,0-0.1-0.1-0.1-0.1v-0.9c0-0.1,0.1-0.1,0.1-0.1h11.6c0.1,0,0.1,0.1,0.1,0.1v0.9
			C303.5,130.2,303.4,130.3,303.4,130.3z"/>
	</g>
	<g>
		<path class="st2" d="M235.8,84.6c0,2-1.5,3.5-3.5,3.5h-23.2c-2,0-3.5-1.5-3.5-3.5c0-1,0.4-1.6,0.9-2.5l21.3-27
			c3.1-6.8-4.2-13.7-10.9-9.9c-2.2,1.3-3.6,3.7-3.6,6.3c0,2-1.6,3.6-3.6,3.6c-2,0-3.6-1.6-3.6-3.6c0-3.9,1.7-7.5,4.2-10.1v-0.1
			c4.5-4.5,11.2-5.5,16.7-3.1c3.6,1.6,6.4,4.4,7.8,8c1.6,3.8,1.8,9-0.9,12.4L216.4,81h16C234.3,81,235.8,82.6,235.8,84.6z"/>
		<path class="st1" d="M239.6,69.8V41.2c0-2,1.6-3.6,3.6-3.6c2,0,3.6,1.6,3.6,3.6v28.6c0,6.1,5,11.1,11.1,11.1
			c6.1,0,11.1-5,11.1-11.1V41.2c0-2,1.6-3.6,3.6-3.6c2,0,3.6,1.6,3.6,3.6v28.6c0,10.1-8.2,18.3-18.3,18.3S239.6,79.9,239.6,69.8z"/>
	</g>
	<path class="st1" d="M216.2,55.8l-2.1,2.2l-4.3,4.6c-7.3,8.2-12.1,14.6-19.4,22.9c-2.6,3-5.6,4.7-9.7,3.3c-4.2-1.4-5.9-4.6-5.9-8.8
		c0-0.8,0-1.5,0-2.3c-0.1-3.1,0-6.3,0-9.9c-0.8,0.3-1.5,0.5-2.1,0.7l-0.3,0.1c-0.6,0.3-1.2,0.4-1.7,0.7c-12,6-23.9,12.1-35.8,18.1
		c-7.7,3.9-13.6,0.5-14-8.2c0-1.2-0.1-2.3-0.1-3.5v0c0-1.7,0-3.4,0-5.2c0-2.2-2.3-3.7-4.3-2.6c-35.2,18.4-69.6,36.5-104,54.5
		c-0.1,0-0.1,0.1-0.2,0.1L9.3,124l2.3-2.3l2.3-1.9l1.8-1.5c7.2-5.2,72.6-53.6,107.8-78.8c3-2.2,6.2-3.3,9.8-1.5
		c3.8,1.9,4.8,5.2,4.7,9.1c-0.1,4,0,8,0,12.5c0,2.3,2.6,3.7,4.5,2.5c7.4-4.8,14.2-9.1,20.9-13.5c4.7-3,9.3-6.2,14-9.1
		c7.7-4.8,14.1-1.4,14.4,7.6c0.1,5,0.1,10,0.1,15.6c0,2.1,2.2,3.5,4.1,2.7l15.6-7.1l2-0.9L216.2,55.8z"/>
	<path class="st3" d="M120.9,75.6c0-1.7,0-3.4,0-5.2c0-2.2-2.3-3.7-4.3-2.6l10.8-5.2L120.9,75.6z"/>
	<path class="st3" d="M183.4,64l-8.6,13.7c-0.1-3.1,0-6.3,0-9.9c-0.8,0.3-1.5,0.5-2.1,0.7L183.4,64z"/>
	<g>
		<path class="st2" d="M363,58.3c0.1,0.2,0.1,0.3,0.1,0.5v24.3c0,2.8-2.3,5-5,5c-2.7,0-4.9-2.2-4.9-5V58.8c0-0.2,0-0.3,0-0.5
			c0-0.1,0-0.2,0-0.4c0-5.6-4.6-10.1-10.2-10.1c-5.6,0-10.2,4.5-10.2,10.1v25.2c0,2.8-2.2,5-4.9,5c-2.7,0-5-2.2-5-5V57.9
			c0-5.6-4.5-10.1-10.1-10.1c-5.6,0-10.2,4.5-10.2,10.1v25.2c0,2.8-2.2,5-4.9,5c-2.8,0-5-2.2-5-5V57.9c0-11,9-20,20.1-20
			c6,0,11.4,2.6,15.1,6.9c3.7-4.3,9.1-6.9,15.1-6.9c11.1,0,20.1,9,20.1,20C363.1,58.1,363.1,58.2,363,58.3z"/>
		<path class="st2" d="M368.6,62.8c0-13.9,11.3-25.1,25.1-25.1c13.9,0,25.1,11.2,25.1,25.1c0,13.8-11.2,25.1-25.1,25.1
			C379.9,87.9,368.6,76.6,368.6,62.8z M378.5,62.8c0,8.3,6.8,15.2,15.2,15.2c8.4,0,15.2-6.9,15.2-15.2c0-8.4-6.8-15.2-15.2-15.2
			C385.3,47.6,378.5,54.4,378.5,62.8z"/>
		<path class="st2" d="M474.8,62.8v20.1c0,2.8-2.2,5-5,5c-2.7,0-4.9-2.2-4.9-5V62.8c0-8.4-6.8-15.2-15.2-15.2
			c-8.4,0-15.2,6.8-15.2,15.2v20.1c0,2.8-2.2,5-5,5c-2.7,0-4.9-2.2-4.9-5V62.8c0-13.9,11.3-25.1,25.1-25.1
			C463.5,37.8,474.8,48.9,474.8,62.8z"/>
		<path class="st2" d="M530.8,62.8c0,2.7-2.2,4.9-5,4.9h-34.5c2.1,6,7.7,10.3,14.4,10.3c2.3,0,6.4-0.2,11.2-3.3
			c2.3-1.5,5.4-0.1,6.6,2.3c1.2,2.5-0.1,5.1-2.4,6.6c-6.6,4.4-11.7,4.3-15.4,4.3c-13.9,0-25.1-11.3-25.1-25.1
			c0-13.9,11.2-25.1,25.1-25.1C517.8,37.8,530.8,46.5,530.8,62.8z M491.3,57.8h28.9c-2.1-7-8.5-10.2-14.5-10.2
			C499,47.6,493.4,51.9,491.3,57.8z"/>
		<path class="st2" d="M577,43.1v49.2c0,11.3-9.3,20.6-20.7,20.6c-7.9,0-15-4.5-18.5-11.6c-1.2-2.4-0.2-5.4,2.3-6.6
			c2.4-1.2,5.4-0.1,6.5,2.3c1.9,3.7,5.6,6,9.7,6c6,0,10.8-4.8,10.8-10.7v-7.2c-3,1.8-6.5,2.8-10.3,2.8c-11,0-20-8.9-20.1-19.9
			c0-0.1,0-0.1,0-0.1V43.1c0-2.7,2.2-4.9,4.9-4.9c2.7,0,4.9,2.2,4.9,4.9v24.8c0,5.7,4.7,10.3,10.3,10.3c5.7,0,10.3-4.6,10.3-10.3
			V43.1c0-2.7,2.2-4.9,4.9-4.9C574.8,38.2,577,40.4,577,43.1z"/>
	</g>
</g>
</svg>
