<?xml version="1.0" encoding="utf-8"?>
<!-- Generator: Adobe Illustrator 24.0.1, SVG Export Plug-In . SVG Version: 6.00 Build 0)  -->
<svg version="1.1" id="Layer_1" xmlns="http://www.w3.org/2000/svg" xmlns:xlink="http://www.w3.org/1999/xlink" x="0px" y="0px"
	 viewBox="0 0 1000 226" style="enable-background:new 0 0 1000 226;" xml:space="preserve">
<style type="text/css">
	.st0{opacity:0;fill:#FFFFFF;}
	.st1{fill:#E01B22;}
	.st2{fill:#7E8180;}
	.st3{fill:#BE1E2D;}
</style>
<rect class="st0" width="1000" height="226"/>
<g>
	<g>
		<g>
			<path class="st1" d="M525.1,135.5c2.4-0.5,5.7-0.9,9-0.9c4.8,0,8.9,1.4,11.1,4c1.6,2,2.4,4.5,2.4,7.7c0,4.9-2.5,9.4-5.3,11.8
				c-3.6,3.1-8.9,4.6-14,4.6c-1.9,0-3.5-0.1-5.3-0.4l-3.9,20.3h-3.2L525.1,135.5z M523.7,159.4c2,0.4,3.5,0.5,5.3,0.5
				c9.2,0,15.5-5.7,15.5-13.6c0-6.4-4.5-9.1-10.9-9.1c-2.6,0-4.6,0.3-5.7,0.6L523.7,159.4z"/>
			<path class="st1" d="M577.1,162c0,9.3-6.8,21.3-18,21.3c-8.4,0-12.5-6.8-12.5-13.9c0-10.9,7.5-21.6,17.9-21.6
				C573.7,147.8,577.1,155.2,577.1,162z M549.9,169.2c0,6.5,3.8,11.4,9.7,11.4c7.7,0,14.3-9.4,14.3-18.7c0-4.5-2.1-11.4-9.5-11.4
				C556,150.6,549.9,159.8,549.9,169.2z"/>
			<path class="st1" d="M585.3,148.6l1.9,22c0.4,4.4,0.4,6,0.5,8.1h0.2c0.6-1.3,1.6-3.9,3.5-7.3l12.3-22.8h3.1l3,22.5
				c0.5,3.6,0.8,6.2,0.8,7.6h0.2c0.8-2.1,1.5-4.3,2.9-7.1l11.3-23h3.3l-17,34h-2.9l-3-22.6c-0.4-2.9-0.7-5.6-0.6-7.9h-0.1
				c-1.2,2.3-2.3,5-3.9,7.9l-12.2,22.6h-3l-3.1-34H585.3z"/>
			<path class="st1" d="M649.2,180.6c-1.7,1.1-5.3,2.7-10.3,2.7c-8.6,0-11.8-6.6-11.8-13.2c0-10.2,7.7-22.3,17.8-22.3
				c6.2,0,8.8,3.8,8.8,7.8c0,9.1-11.1,11-23,10.8c-0.5,1.8-0.4,6,0.4,8.3c1.4,3.9,4.4,5.8,8.2,5.8c4.3,0,7.2-1.4,8.9-2.4
				L649.2,180.6z M644.2,150.6c-6.1,0-11.2,6.4-13.1,13.1c10,0.1,19.2-1.2,19.2-7.9C650.3,152.4,647.8,150.6,644.2,150.6z"/>
			<path class="st1" d="M655.7,182.6l4.4-22.9c0.8-4,1.3-7.8,1.7-11h2.9c-0.3,2.4-0.7,4.8-1.1,7.6h0.2c2.1-4.7,5.7-8.4,10.2-8.4
				c0.5,0,1.2,0.1,1.5,0.2l-0.6,3.2c-0.4-0.1-0.9-0.2-1.6-0.2c-4.2,0-9.6,6.4-11.3,15l-3.1,16.5H655.7z"/>
			<path class="st1" d="M696,180.6c-1.7,1.1-5.3,2.7-10.3,2.7c-8.6,0-11.8-6.6-11.8-13.2c0-10.2,7.7-22.3,17.8-22.3
				c6.2,0,8.8,3.8,8.8,7.8c0,9.1-11.1,11-23,10.8c-0.5,1.8-0.4,6,0.4,8.3c1.4,3.9,4.4,5.8,8.2,5.8c4.3,0,7.2-1.4,8.9-2.4L696,180.6z
				 M691.1,150.6c-6.1,0-11.3,6.4-13.1,13.1c10,0.1,19.2-1.2,19.2-7.9C697.2,152.4,694.6,150.6,691.1,150.6z"/>
			<path class="st1" d="M736.3,132.3l-7.8,41c-0.5,3-1.1,6.4-1.3,9.2h-2.9l1.2-7.5h-0.1c-3.2,5-7.5,8.3-13,8.3
				c-7,0-9.9-5.9-9.9-12.1c0-12.2,9.3-23.4,20.8-23.4c2.6,0,5.4,0.6,6.9,1.4l3.1-16.9H736.3z M729.3,152.2c-1.4-0.9-3.6-1.6-6.6-1.6
				c-9.5,0-17.2,9.8-17.2,20.4c0,4.1,1.2,9.6,7.5,9.6c5.5,0,12.1-6.4,13.7-14.8L729.3,152.2z"/>
			<path class="st1" d="M760.2,132.3l-4.8,23.7l0.1,0c3.3-5.6,8.1-8.3,12.9-8.3c7.7,0,10.3,6.4,10.3,12.4c0,10.1-7.7,23.2-20.4,23.2
				c-4.7,0-9.4-1.9-9.4-8.3c0-1.4,0.2-3.3,0.5-4.7l7.6-38H760.2z M752.6,170.2c-0.3,1.2-0.4,2.6-0.4,4.6c0,3.7,2.1,5.8,6.5,5.8
				c10.7,0,16.8-11.9,16.8-20.5c0-4.8-2.1-9.5-7.8-9.5c-5.9,0-12.2,6.2-14.2,15.4L752.6,170.2z"/>
			<path class="st1" d="M785.9,148.6l4.2,20.4c0.9,4.2,1.4,6.7,1.8,9.5h0.2c1-2.2,2.1-4.8,4-8.6l10.3-21.4h3.4l-13.2,26.7
				c-3.1,6.3-6.2,12.2-10.8,16.9c-3.7,3.9-7.5,5.4-9.3,5.9l-0.9-2.8c1.4-0.5,4-1.6,6.5-3.6c2.3-1.9,5.1-5.1,7.2-9.1
				c0.3-0.6,0.3-1,0.2-1.5l-6.9-32.6H785.9z"/>
			<path class="st1" d="M832.7,134.9l-5.5,28.8c-0.4,2.2-0.6,4.3-0.6,6.2c0,7.5,4.3,10.7,10,10.7c7.2,0,12.8-4.9,15-16.8l5.5-28.9
				h3.2l-5.6,29.4c-2.7,14.1-10.3,19.1-18.6,19.1c-6.7,0-12.7-3.8-12.7-13.4c0-2,0.2-4.3,0.6-6.5l5.5-28.6H832.7z"/>
			<path class="st1" d="M870.4,135.5c2.6-0.5,5.4-0.9,8.8-0.9c4.9,0,8.4,1.2,10.5,3.7c1.6,1.9,2.1,4.1,2.1,6.6
				c0,6-5.1,10.9-10.7,12.3v0.2c4.2,1.1,8.1,4.6,8,10.7c0,4.7-2.5,8.6-5.2,10.9c-3.6,2.9-8.4,3.9-13.9,3.9c-3.3,0-6.4-0.2-8.6-0.6
				L870.4,135.5z M865.2,179.7c1.7,0.3,3.7,0.4,5.4,0.4c7.8,0.1,15.3-3.3,15.3-12.3c0-6.2-5.2-9.3-10.9-9.3h-5.8L865.2,179.7z
				 M869.7,155.9h5c7.6,0,13.8-4.3,13.8-11.1c0-5.3-3.9-7.6-9.9-7.6c-2.4,0-4.4,0.2-5.4,0.5L869.7,155.9z"/>
			<path class="st1" d="M902.3,165.8l-8.8,16.8h-3.3l25.5-47.7h3.1l7.2,47.7H923l-2.5-16.8H902.3z M920,163.1l-2.4-15.9
				c-0.3-2.4-0.7-5.7-1-8.4h-0.2c-1.3,2.8-2.4,5.3-3.9,8.3l-8.6,16.1H920z"/>
		</g>
		<path class="st1" d="M523.7,142.1h-20.6c0,0-0.1,0-0.1-0.1v-1.8c0,0,0-0.1,0.1-0.1h20.6c0,0,0.1,0,0.1,0.1L523.7,142.1
			C523.8,142,523.8,142.1,523.7,142.1z"/>
		<path class="st1" d="M529.6,153.3h-20.6c0,0-0.1,0-0.1-0.1v-1.8c0,0,0-0.1,0.1-0.1h20.6c0,0,0.1,0,0.1,0.1L529.6,153.3
			C529.7,153.2,529.7,153.3,529.6,153.3z"/>
		<path class="st1" d="M533,168.5h-20.6c0,0-0.1,0-0.1-0.1v-1.8c0,0,0-0.1,0.1-0.1H533c0,0,0.1,0,0.1,0.1L533,168.5
			C533,168.5,533,168.5,533,168.5z"/>
		<path class="st1" d="M519.3,178.4h-20.6c0,0-0.1,0-0.1-0.1v-1.8c0,0,0-0.1,0.1-0.1h20.6c0,0,0.1,0,0.1,0.1L519.3,178.4
			C519.4,178.4,519.3,178.4,519.3,178.4z"/>
	</g>
	<g>
		<path class="st2" d="M393.4,110.3c0,3.4-2.7,6.1-6.1,6.1h-40.3c-3.4,0-6.1-2.7-6.1-6.1c0-1.8,0.6-2.8,1.6-4.3l37-47
			c5.5-11.8-7.2-23.8-18.9-17.2c-3.8,2.3-6.3,6.5-6.3,11c0,3.4-2.8,6.2-6.3,6.2c-3.4,0-6.3-2.8-6.3-6.2c0-6.8,2.9-13,7.3-17.5v-0.1
			c7.8-7.9,19.5-9.6,29-5.4c6.2,2.8,11.1,7.7,13.5,13.9c2.8,6.6,3.2,15.6-1.5,21.5l-30.5,38.9h27.7
			C390.8,104.1,393.4,106.9,393.4,110.3z"/>
		<path class="st1" d="M400,84.6V35c0-3.5,2.8-6.3,6.2-6.3c3.5,0,6.3,2.8,6.3,6.3v49.6c0,10.6,8.6,19.3,19.2,19.3
			c10.6,0,19.2-8.6,19.2-19.3V35c0-3.5,2.8-6.3,6.2-6.3c3.5,0,6.3,2.8,6.3,6.3v49.6c0,17.6-14.3,31.8-31.8,31.8
			C414.3,116.4,400,102.2,400,84.6z"/>
	</g>
	<path class="st1" d="M359.3,60.2l-3.6,3.8l-7.5,7.9c-12.8,14.3-21.1,25.5-33.7,39.8c-4.6,5.2-9.8,8.2-16.8,5.8
		c-7.3-2.5-10.2-8-10.3-15.3c0-1.3-0.1-2.6,0-4c-0.1-5.3-0.1-10.9-0.1-17.3c-1.4,0.5-2.6,0.9-3.6,1.2l-0.4,0.2
		c-1.1,0.4-2,0.8-2.9,1.2c-20.8,10.5-41.5,21.1-62.3,31.5c-13.5,6.9-23.7,0.9-24.4-14.3c-0.1-2-0.1-4-0.1-6.1v-0.1
		c-0.1-2.9-0.1-5.9,0-9.1c0.1-3.8-4-6.3-7.4-4.6c-61.2,32.1-121,63.4-180.7,94.8c-0.1,0.1-0.2,0.1-0.3,0.2l-5.5,2.9l4-4.1l4-3.3
		l3.1-2.6c12.5-9,126.1-93.3,187.3-137c5.2-3.8,10.7-5.8,17-2.6c6.5,3.3,8.4,9,8.2,15.9c-0.1,7-0.1,13.9-0.1,21.7
		c0,4,4.5,6.4,7.8,4.3c12.9-8.3,24.6-15.8,36.3-23.4c8.2-5.3,16.2-10.7,24.4-15.9c13.3-8.3,24.6-2.4,25,13.2
		c0.3,8.7,0.1,17.5,0.1,27.1c-0.1,3.6,3.8,6.2,7.2,4.7L351,64.3l3.4-1.6L359.3,60.2z"/>
	<path class="st3" d="M193.5,94.7c-0.1-2.9-0.1-5.9,0-9.1c0.1-3.8-4-6.3-7.4-4.6l18.9-9L193.5,94.7z"/>
	<path class="st3" d="M302.2,74.5l-15,23.8c-0.1-5.3-0.1-10.9-0.1-17.3c-1.4,0.5-2.6,0.9-3.6,1.2L302.2,74.5z"/>
	<g>
		<path class="st2" d="M624.4,64.1c0.2,0.4,0.2,0.5,0.2,0.9v42.6c0,4.9-4,8.8-8.8,8.8c-4.7,0-8.6-3.9-8.6-8.8V65c0-0.3,0-0.5,0-0.9
			c0-0.2,0-0.3,0-0.7c0-9.8-8.1-17.7-17.9-17.7c-9.8,0-17.9,7.9-17.9,17.7v44.2c0,4.9-3.9,8.8-8.6,8.8c-4.7,0-8.8-3.9-8.8-8.8V63.4
			c0-9.8-7.9-17.7-17.7-17.7c-9.8,0-17.9,7.9-17.9,17.7v44.2c0,4.9-3.9,8.8-8.6,8.8c-4.9,0-8.8-3.9-8.8-8.8V63.4
			c0-19.3,15.8-35.1,35.3-35.1c10.5,0,20,4.6,26.5,12.1c6.5-7.5,16-12.1,26.5-12.1c19.5,0,35.3,15.8,35.3,35.1
			C624.6,63.8,624.6,63.9,624.4,64.1z"/>
		<path class="st2" d="M634.4,72c0-24.4,19.8-44.1,44-44.1c24.4,0,44.1,19.7,44.1,44.1c0,24.2-19.7,44-44.1,44
			C654.2,116.1,634.4,96.2,634.4,72z M651.8,72c0,14.6,11.9,26.7,26.7,26.7c14.7,0,26.7-12.1,26.7-26.7c0-14.7-11.9-26.7-26.7-26.7
			C663.7,45.3,651.8,57.3,651.8,72z"/>
		<path class="st2" d="M820.9,72v35.3c0,4.9-3.9,8.8-8.8,8.8c-4.7,0-8.6-3.9-8.6-8.8V72c0-14.7-11.9-26.7-26.7-26.7
			c-14.7,0-26.7,11.9-26.7,26.7v35.3c0,4.9-3.9,8.8-8.8,8.8c-4.7,0-8.6-3.9-8.6-8.8V72c0-24.4,19.8-44.1,44-44.1
			C801.1,28,820.9,47.6,820.9,72z"/>
		<path class="st2" d="M919.3,72c0,4.7-3.9,8.6-8.8,8.6H850c3.7,10.5,13.5,18.1,25.3,18.1c4,0,11.2-0.4,19.7-5.8
			c4-2.6,9.5-0.2,11.6,4c2.1,4.4-0.2,9-4.2,11.6c-11.6,7.7-20.5,7.5-27,7.5c-24.4,0-44.1-19.8-44.1-44c0-24.4,19.7-44.1,44.1-44.1
			C896.5,28,919.3,43.4,919.3,72z M850,63.2h50.7C897,51,885.8,45.3,875.2,45.3C863.5,45.3,853.7,52.9,850,63.2z"/>
		<path class="st2" d="M1000.5,37.3v86.5c0,19.8-16.3,36.2-36.3,36.2c-13.9,0-26.3-7.9-32.5-20.4c-2.1-4.2-0.4-9.5,4-11.6
			c4.2-2.1,9.5-0.2,11.4,4c3.3,6.5,9.8,10.5,17,10.5c10.5,0,19-8.4,19-18.8v-12.6c-5.3,3.2-11.4,4.9-18.1,4.9
			c-19.3,0-35.1-15.6-35.3-34.9c0-0.2,0-0.2,0-0.2V37.3c0-4.7,3.9-8.6,8.6-8.6c4.7,0,8.6,3.9,8.6,8.6v43.5c0,10,8.3,18.1,18.1,18.1
			c10,0,18.1-8.1,18.1-18.1V37.3c0-4.7,3.9-8.6,8.6-8.6C996.6,28.7,1000.5,32.5,1000.5,37.3z"/>
	</g>
</g>
</svg>
