<?xml version="1.0" encoding="UTF-8" standalone="no"?><!-- Generator: Gravit.io --><svg xmlns="http://www.w3.org/2000/svg" xmlns:xlink="http://www.w3.org/1999/xlink" style="isolation:isolate" viewBox="0 0 90 25" width="90pt" height="25pt"><defs><clipPath id="_clipPath_LjjNCCYUNCHa8Twh0uwuwfOccDzrpaum"><rect width="90" height="25"/></clipPath></defs><g clip-path="url(#_clipPath_LjjNCCYUNCHa8Twh0uwuwfOccDzrpaum)"><path d=" M 12.188 7.035 L 15.14 7.035 L 15.14 14.523 L 15.14 14.523 Q 15.14 15.801 15.806 16.431 L 15.806 16.431 L 15.806 16.431 Q 16.472 17.061 17.498 17.061 L 17.498 17.061 L 17.498 17.061 Q 18.542 17.061 19.208 16.422 L 19.208 16.422 L 19.208 16.422 Q 19.874 15.783 19.874 14.523 L 19.874 14.523 L 19.874 7.035 L 22.826 7.035 L 22.826 14.685 L 22.826 14.685 Q 22.826 16.935 21.368 18.213 L 21.368 18.213 L 21.368 18.213 Q 19.91 19.491 17.498 19.491 L 17.498 19.491 L 17.498 19.491 Q 15.104 19.491 13.646 18.222 L 13.646 18.222 L 13.646 18.222 Q 12.188 16.953 12.188 14.685 L 12.188 14.685 L 12.188 7.035 L 12.188 7.035 Z " fill="rgb(52,54,87)"/><path d=" M 9.944 10.023 L 9.944 10.023 L 9.944 10.023 Q 9.944 11.409 9.273 12.608 L 9.273 12.608 L 9.273 12.608 Q 8.602 13.807 7.062 15.127 L 7.062 15.127 L 5.896 16.117 L 10.12 16.117 L 10.494 18.933 L 0.88 18.933 L 0.88 16.535 L 4.796 13.081 L 4.796 13.081 Q 5.874 12.135 6.292 11.475 L 6.292 11.475 L 6.292 11.475 Q 6.71 10.815 6.732 10.287 L 6.732 10.287 L 6.732 10.287 Q 6.732 9.781 6.325 9.451 L 6.325 9.451 L 6.325 9.451 Q 5.918 9.121 5.236 9.121 L 5.236 9.121 L 5.236 9.121 Q 4.444 9.121 3.564 9.616 L 3.564 9.616 L 3.564 9.616 Q 2.684 10.111 2.266 10.397 L 2.266 10.397 L 0.726 7.999 L 0.726 7.999 Q 1.408 7.427 2.607 6.811 L 2.607 6.811 L 2.607 6.811 Q 3.806 6.195 5.368 6.195 L 5.368 6.195 L 5.368 6.195 Q 7.986 6.195 8.965 7.416 L 8.965 7.416 L 8.965 7.416 Q 9.944 8.637 9.944 10.023 Z " fill="rgb(52,54,87)"/><path d=" M 54.332 17.919 L 54.332 19.275 L 57.284 19.275 L 57.284 12.147 L 57.284 12.147 Q 58.526 13.893 59.795 15.711 L 59.795 15.711 L 59.795 15.711 Q 61.064 17.529 62.324 19.275 L 62.324 19.275 L 65.132 19.275 L 65.132 7.035 L 62.18 7.035 L 62.18 7.035 L 62.18 14.307 L 57.14 7.035 L 54.332 7.035 L 54.332 7.981 C 55.408 9.35 56.05 11.076 56.05 12.95 C 56.05 14.824 55.408 16.55 54.332 17.919 Z  M 76.652 19.275 L 76.652 19.275 L 67.814 19.275 L 67.814 7.035 L 75.662 7.035 L 75.986 9.375 L 70.766 9.375 L 70.766 11.967 L 74.366 11.967 L 74.69 14.289 L 70.766 14.289 L 70.766 16.971 L 76.31 16.971 L 76.31 16.971 Q 76.4 17.547 76.481 18.123 L 76.481 18.123 L 76.481 18.123 Q 76.562 18.699 76.652 19.275 L 76.652 19.275 Z  M 84.266 19.275 L 81.314 19.275 L 81.314 14.469 L 77.174 7.359 L 80.234 7.035 L 82.772 11.679 L 85.454 7.035 L 88.514 7.035 L 84.266 14.523 L 84.266 19.275 L 84.266 19.275 Z " fill-rule="evenodd" fill="rgb(233,89,39)"/><path d=" M 39.6 8.069 L 39.6 6.665 L 37.674 6.665 L 37.674 6.665 Q 36.792 7.907 35.919 9.167 L 35.919 9.167 L 35.919 9.167 Q 35.046 10.427 34.164 11.669 L 34.164 11.669 L 30.33 6.665 L 28.332 6.665 L 28.332 18.905 L 31.284 18.905 L 31.284 12.461 L 33.588 15.341 L 33.588 15.341 Q 33.876 15.305 34.173 15.251 L 34.173 15.251 L 34.173 15.251 Q 34.47 15.197 34.758 15.179 L 34.758 15.179 L 34.758 15.179 Q 35.226 14.531 35.703 13.892 L 35.703 13.892 L 35.703 13.892 Q 36.18 13.253 36.63 12.605 L 36.63 12.605 L 36.63 18.905 L 39.6 18.905 L 39.6 17.831 C 38.565 16.477 37.95 14.785 37.95 12.95 C 37.95 11.115 38.565 9.423 39.6 8.069 Z " fill-rule="evenodd" fill="rgb(233,89,39)"/><g><circle vector-effect="non-scaling-stroke" cx="47.13744611609898" cy="12.862553502580173" r="7.8625535025801625" fill="rgb(255,255,255)"/><path d=" M 43.014 15.556 C 43.072 15.634 43.123 15.692 43.179 15.758 C 43.235 15.822 43.291 15.882 43.349 15.943 C 43.466 16.061 43.583 16.176 43.707 16.283 C 43.953 16.499 44.213 16.692 44.483 16.862 C 45.023 17.202 45.61 17.441 46.215 17.562 C 46.254 17.571 46.291 17.579 46.33 17.585 L 46.444 17.6 C 46.52 17.608 46.597 17.623 46.673 17.628 L 46.902 17.643 C 46.94 17.646 46.977 17.649 47.016 17.649 L 47.13 17.649 L 47.359 17.646 L 47.588 17.625 C 47.741 17.617 47.892 17.585 48.043 17.559 C 48.648 17.444 49.232 17.219 49.785 16.919 L 50.193 16.68 C 50.21 16.669 50.227 16.66 50.244 16.651 L 50.264 16.637 L 50.276 16.628 L 50.303 16.611 L 50.41 16.539 L 50.626 16.392 C 50.699 16.346 50.768 16.288 50.838 16.236 L 51.047 16.078 C 51.011 16.28 50.969 16.484 50.926 16.692 C 50.879 16.896 50.823 17.098 50.768 17.306 L 51.018 17.136 C 51.059 17.107 51.101 17.078 51.14 17.046 L 51.259 16.954 C 51.288 16.824 51.315 16.695 51.342 16.565 L 51.381 16.372 L 51.412 16.176 C 51.454 15.917 51.49 15.66 51.522 15.409 C 51.305 15.372 51.091 15.329 50.884 15.283 L 50.731 15.248 L 50.575 15.205 C 50.473 15.176 50.371 15.144 50.271 15.113 L 50.171 15.188 C 50.14 15.213 50.106 15.239 50.072 15.26 L 49.867 15.395 C 50.023 15.456 50.184 15.519 50.347 15.571 C 50.507 15.62 50.675 15.666 50.843 15.709 L 50.641 15.862 C 50.573 15.911 50.51 15.968 50.439 16.012 L 50.232 16.153 L 50.13 16.222 L 50.103 16.239 L 50.091 16.248 L 50.072 16.26 C 50.057 16.271 50.04 16.28 50.023 16.288 L 49.634 16.516 C 49.108 16.801 48.554 17.015 47.987 17.121 C 47.846 17.144 47.702 17.176 47.558 17.182 L 47.344 17.202 L 47.13 17.205 L 47.023 17.205 C 46.987 17.205 46.953 17.202 46.916 17.199 L 46.702 17.185 C 46.631 17.179 46.561 17.167 46.488 17.156 L 46.381 17.141 C 46.344 17.136 46.31 17.127 46.276 17.121 C 45.712 17.012 45.162 16.787 44.656 16.467 C 44.403 16.309 44.16 16.124 43.928 15.922 C 43.812 15.822 43.702 15.715 43.593 15.603 C 43.539 15.548 43.486 15.49 43.435 15.432 C 43.386 15.375 43.332 15.311 43.291 15.257 L 43.014 15.556 Z " fill="rgb(233,89,39)"/><path d=" M 51.643 9.419 L 51.643 11.564 C 51.643 12.704 51.006 13.313 49.997 13.346 C 48.993 13.38 48.143 12.805 48.143 11.564 L 48.143 9.419 L 48.993 9.419 L 48.993 11.564 C 48.993 12.25 49.376 12.607 50.002 12.578 C 50.583 12.54 50.791 12.139 50.791 11.564 L 50.791 9.419 L 51.643 9.419 L 51.643 9.419 Z " fill="rgb(52,54,87)"/><path d=" M 42.798 10.241 L 42.353 10.241 C 42.423 9.65 42.718 9.355 43.24 9.355 L 44.128 9.355 C 44.37 9.355 44.58 9.442 44.752 9.617 C 44.927 9.792 45.014 10 45.014 10.241 L 45.014 10.467 C 45.014 10.773 44.729 11.171 44.156 11.659 L 44.097 11.71 C 43.525 12.198 43.24 12.584 43.24 12.864 L 43.24 12.902 L 45.014 12.902 L 45.014 13.346 L 42.353 13.346 L 42.353 12.902 C 42.353 12.596 42.639 12.198 43.211 11.708 L 43.27 11.656 C 43.843 11.168 44.128 10.77 44.128 10.465 L 44.128 10.241 C 44.128 10.121 44.085 10.018 43.995 9.93 C 43.905 9.843 43.802 9.799 43.684 9.799 L 43.24 9.799 C 42.965 9.799 42.818 9.946 42.798 10.241 Z " fill="rgb(52,54,87)"/><path d=" M 47 5.003 C 42.58 5.003 39 8.583 39 13 C 39 17.417 42.58 21 47 21 C 51.42 21 55 17.42 55 13 C 54.997 8.549 51.417 5.003 47 5.003 L 47 5.003 L 47 5.003 Z  M 47 20.026 C 43.127 20.026 39.989 16.888 39.989 13.015 C 39.989 9.142 43.127 6.004 47 6.004 C 50.873 6.004 54.011 9.142 54.011 13.015 C 54.011 16.888 50.87 20.026 47 20.026 L 47 20.026 Z " fill-rule="evenodd" fill="rgb(233,89,39)"/></g></g></svg>