<svg version="1.1" id="Layer_1" xmlns="http://www.w3.org/2000/svg" x="0" y="0" viewBox="0 0 512 98" xml:space="preserve"><style>.st1{fill:#e01b22}.st2{fill:#7e8180}.st3{fill:#be1e2d}</style><path fill="none" d="M0 0h512v98H0z"/><path class="st1" d="M267.2 68.2c1.2-.3 2.7-.4 4.3-.4 2.3 0 4.3.6 5.3 1.9.8 1 1.1 2.1 1.1 3.7 0 2.3-1.2 4.5-2.5 5.6-1.7 1.5-4.2 2.2-6.7 2.2-.9 0-1.7 0-2.5-.2l-1.8 9.7h-1.5l4.3-22.5zm-.7 11.4c1 .2 1.7.3 2.5.3 4.4 0 7.4-2.7 7.4-6.5 0-3-2.2-4.3-5.2-4.3-1.2 0-2.2.1-2.7.3l-2 10.2zM292.1 80.9c0 4.4-3.2 10.2-8.6 10.2-4 0-6-3.2-6-6.6 0-5.2 3.6-10.3 8.6-10.3 4.3-.1 6 3.4 6 6.7zm-13 3.4c0 3.1 1.8 5.4 4.6 5.4 3.7 0 6.8-4.5 6.8-8.9 0-2.1-1-5.4-4.5-5.4-4 0-6.9 4.4-6.9 8.9zM295.9 74.5l.9 10.5c.2 2.1.2 2.8.2 3.9h.1c.3-.6.8-1.9 1.7-3.5l5.8-10.9h1.5l1.4 10.7c.2 1.7.4 3 .4 3.6h.1c.4-1 .7-2 1.4-3.4l5.4-11h1.6l-8.1 16.2h-1.4l-1.5-10.8c-.2-1.4-.3-2.7-.3-3.8h-.1c-.6 1.1-1.1 2.4-1.9 3.8l-5.8 10.8H296l-1.5-16.2h1.4zM326.4 89.8c-.8.5-2.5 1.3-4.9 1.3-4.1 0-5.6-3.1-5.6-6.3 0-4.9 3.7-10.6 8.5-10.6 3 0 4.2 1.8 4.2 3.7 0 4.3-5.3 5.2-11 5.1-.2.9-.2 2.9.2 4 .7 1.9 2.1 2.8 3.9 2.8 2 0 3.4-.7 4.3-1.2l.4 1.2zm-2.3-14.4c-2.9 0-5.4 3.1-6.3 6.2 4.8.1 9.2-.6 9.2-3.7 0-1.6-1.3-2.5-2.9-2.5zM329.5 90.7l2.1-10.9c.4-1.9.6-3.7.8-5.3h1.4c-.2 1.1-.3 2.3-.5 3.6h.1c1-2.3 2.7-4 4.8-4 .2 0 .6 0 .7.1l-.3 1.5c-.2-.1-.4-.1-.8-.1-2 0-4.6 3-5.4 7.2l-1.5 7.9h-1.4zM348.8 89.8c-.8.5-2.5 1.3-4.9 1.3-4.1 0-5.6-3.1-5.6-6.3 0-4.9 3.7-10.6 8.5-10.6 3 0 4.2 1.8 4.2 3.7 0 4.3-5.3 5.2-11 5.1-.2.9-.2 2.9.2 4 .7 1.9 2.1 2.8 3.9 2.8 2 0 3.4-.7 4.3-1.2l.4 1.2zm-2.4-14.4c-2.9 0-5.4 3.1-6.3 6.2 4.8.1 9.2-.6 9.2-3.7 0-1.6-1.2-2.5-2.9-2.5zM368 66.7l-3.7 19.6c-.3 1.4-.5 3.1-.6 4.4h-1.4l.6-3.6h-.1c-1.5 2.4-3.6 3.9-6.2 3.9-3.4 0-4.7-2.8-4.7-5.8 0-5.8 4.4-11.2 9.9-11.2 1.2 0 2.6.3 3.3.7l1.5-8.1h1.4zm-3.3 9.5c-.7-.4-1.7-.8-3.1-.8-4.5 0-8.2 4.7-8.2 9.7 0 2 .6 4.6 3.6 4.6 2.6 0 5.8-3.1 6.5-7.1l1.2-6.4zM379.4 66.7L377.1 78h.1c1.6-2.7 3.8-3.9 6.1-3.9 3.7 0 4.9 3 4.9 5.9 0 4.8-3.7 11-9.7 11-2.2 0-4.5-.9-4.5-4 0-.7.1-1.6.2-2.2l3.6-18.1h1.6zm-3.7 18.1c-.1.6-.2 1.2-.2 2.2 0 1.8 1 2.8 3.1 2.8 5.1 0 8-5.7 8-9.8 0-2.3-1-4.5-3.7-4.5-2.8 0-5.8 3-6.8 7.4l-.4 1.9zM391.6 74.5l2 9.8c.4 2 .7 3.2.9 4.5h.1c.5-1.1 1-2.3 1.9-4.1l4.9-10.2h1.6l-6.3 12.7c-1.5 3-2.9 5.8-5.2 8.1-1.8 1.8-3.6 2.6-4.4 2.8l-.4-1.3c.7-.3 1.9-.7 3.1-1.7 1.1-.9 2.4-2.4 3.5-4.3.1-.3.1-.5.1-.7l-3.3-15.5h1.5zM414 67.9l-2.6 13.7c-.2 1-.3 2.1-.3 2.9 0 3.6 2 5.1 4.8 5.1 3.5 0 6.1-2.4 7.2-8l2.6-13.8h1.5l-2.7 14c-1.3 6.7-4.9 9.1-8.9 9.1-3.2 0-6.1-1.8-6.1-6.4 0-1 .1-2.1.3-3.1l2.6-13.6h1.6zM432 68.2c1.2-.3 2.6-.4 4.2-.4 2.3 0 4 .6 5 1.8.8.9 1 2 1 3.2 0 2.9-2.4 5.2-5.1 5.8v.1c2 .5 3.9 2.2 3.8 5.1 0 2.3-1.2 4.1-2.5 5.2-1.7 1.4-4 1.9-6.6 1.9-1.6 0-3.1-.1-4.1-.3l4.3-22.4zm-2.5 21.1c.8.1 1.8.2 2.6.2 3.7 0 7.3-1.6 7.3-5.9 0-2.9-2.5-4.4-5.2-4.4h-2.8l-1.9 10.1zm2.1-11.3h2.4c3.6 0 6.6-2 6.6-5.3 0-2.5-1.9-3.6-4.7-3.6-1.1 0-2.1.1-2.6.2l-1.7 8.7zM447.2 82.7l-4.2 8h-1.6l12.2-22.8h1.5l3.5 22.8h-1.5l-1.2-8h-8.7zm8.4-1.3l-1.2-7.6c-.1-1.1-.3-2.7-.5-4h-.1c-.6 1.3-1.1 2.5-1.9 3.9l-4.1 7.7h7.8z"/><path class="st1" d="M266.5 71.4h-9.7c-.1 0-.1-.1-.1-.1v-.7c0-.1.1-.1.1-.1h9.7c.1 0 .1.1.1.1v.7s0 .1-.1.1zM269.3 76.7h-9.7c-.1 0-.1-.1-.1-.1v-.7c0-.1.1-.1.1-.1h9.7c.1 0 .1.1.1.1v.7s0 .1-.1.1zM270.9 84h-9.7c-.1 0-.1-.1-.1-.1v-.7c0-.1.1-.1.1-.1h9.7c.1 0 .1.1.1.1v.7s0 .1-.1.1zM264.4 88.7h-9.7c-.1 0-.1-.1-.1-.1v-.7c0-.1.1-.1.1-.1h9.7c.1 0 .1.1.1.1v.7c0 .1-.1.1-.1.1z"/><g><path class="st2" d="M204.4 56.2c0 1.6-1.3 2.9-2.9 2.9h-19.2c-1.6 0-2.9-1.3-2.9-2.9 0-.8.3-1.3.8-2.1l17.6-22.4c2.6-5.6-3.4-11.4-9-8.2-1.8 1.1-3 3.1-3 5.3 0 1.6-1.3 3-3 3-1.6 0-3-1.3-3-3 0-3.3 1.4-6.2 3.5-8.3v-.1c3.7-3.7 9.3-4.6 13.8-2.6 3 1.3 5.3 3.7 6.5 6.6 1.3 3.1 1.5 7.4-.7 10.3l-14.6 18.5h13.2c1.6.1 2.9 1.4 2.9 3z"/><path class="st1" d="M207.5 43.9V20.3c0-1.7 1.3-3 3-3s3 1.3 3 3V44c0 5.1 4.1 9.2 9.2 9.2s9.2-4.1 9.2-9.2V20.3c0-1.7 1.3-3 3-3s3 1.3 3 3V44c0 8.4-6.8 15.2-15.2 15.2-8.3-.1-15.2-6.9-15.2-15.3z"/></g><path class="st1" d="M188.1 32.3l-1.7 1.8-3.6 3.8c-6.1 6.8-10 12.1-16.1 19-2.2 2.5-4.7 3.9-8 2.8-3.5-1.2-4.9-3.8-4.9-7.3v-1.9c-.1-2.5 0-5.2 0-8.2-.7.2-1.2.4-1.7.6l-.2.1c-.5.2-1 .4-1.4.6-9.9 5-19.8 10-29.7 15.1-6.4 3.3-11.3.4-11.6-6.8 0-1-.1-1.9-.1-2.9v-4.3c0-1.8-1.9-3-3.5-2.2-29.3 15-57.8 30-86.3 44.9-.1 0-.1.1-.2.1l-2.6 1.4 1.9-2 1.9-1.6 1.5-1.3c6-4.3 60.2-44.5 89.4-65.4 2.5-1.8 5.1-2.8 8.1-1.3 3.1 1.6 4 4.3 3.9 7.6-.1 3.3 0 6.6 0 10.3 0 1.9 2.1 3.1 3.7 2 6.1-4 11.8-7.6 17.3-11.2 3.9-2.5 7.7-5.1 11.6-7.6 6.4-4 11.7-1.1 11.9 6.3.1 4.2.1 8.3.1 13 0 1.7 1.8 2.9 3.4 2.2l13-5.9 1.6-.7 2.3-1z"/><path class="st3" d="M109 48.8v-4.3c0-1.8-1.9-3-3.5-2.2l9-4.3-5.5 10.8zM160.9 39.1l-7.1 11.3c-.1-2.5 0-5.2 0-8.2-.7.2-1.2.4-1.7.6l8.8-3.7z"/><g><path class="st2" d="M314.6 34.2c.1.2.1.3.1.4v20.3c0 2.3-1.9 4.2-4.2 4.2-2.3 0-4.1-1.8-4.1-4.2V34.6v-.4-.3c0-4.7-3.9-8.5-8.5-8.5-4.7 0-8.5 3.8-8.5 8.5V55c0 2.3-1.8 4.2-4.1 4.2s-4.2-1.8-4.2-4.2V33.8c0-4.7-3.8-8.5-8.5-8.5s-8.5 3.8-8.5 8.5v21.1c0 2.3-1.8 4.2-4.1 4.2s-4.2-1.8-4.2-4.2V33.8c0-9.2 7.5-16.7 16.8-16.7 5 0 9.5 2.2 12.6 5.8 3.1-3.6 7.6-5.8 12.6-5.8 9.3 0 16.8 7.5 16.8 16.7.1.2.1.3 0 .4zM319.4 37.9c0-11.6 9.5-21 21-21 11.6 0 21 9.4 21 21s-9.4 21-21 21c-11.6.1-21-9.4-21-21zm8.3 0c0 6.9 5.7 12.7 12.7 12.7 7 0 12.7-5.8 12.7-12.7 0-7-5.7-12.7-12.7-12.7-7.1 0-12.7 5.7-12.7 12.7zM408.3 37.9v16.8c0 2.3-1.8 4.2-4.2 4.2-2.3 0-4.1-1.8-4.1-4.2V37.9c0-7-5.7-12.7-12.7-12.7-7 0-12.7 5.7-12.7 12.7v16.8c0 2.3-1.8 4.2-4.2 4.2-2.3 0-4.1-1.8-4.1-4.2V37.9c0-11.6 9.5-21 21-21 11.6 0 21 9.4 21 21zM455.3 37.9c0 2.3-1.8 4.1-4.2 4.1h-28.9c1.8 5 6.4 8.6 12.1 8.6 1.9 0 5.4-.2 9.4-2.8 1.9-1.3 4.5-.1 5.5 1.9 1 2.1-.1 4.3-2 5.5-5.5 3.7-9.8 3.6-12.9 3.6-11.6 0-21-9.5-21-21 0-11.6 9.4-21 21-21 10.1.1 21 7.5 21 21.1zm-33.1-4.1h24.2c-1.8-5.9-7.1-8.5-12.1-8.5-5.6-.1-10.3 3.5-12.1 8.5zM494 21.4v41.3c0 9.5-7.8 17.2-17.3 17.2-6.6 0-12.6-3.8-15.5-9.7-1-2-.2-4.5 1.9-5.5 2-1 4.5-.1 5.4 1.9 1.6 3.1 4.7 5 8.1 5 5 0 9-4 9-9v-6c-2.5 1.5-5.4 2.3-8.6 2.3-9.2 0-16.7-7.5-16.8-16.7V21.4c0-2.3 1.8-4.1 4.1-4.1s4.1 1.8 4.1 4.1v20.8c0 4.8 3.9 8.6 8.6 8.6 4.8 0 8.6-3.9 8.6-8.6V21.4c0-2.3 1.8-4.1 4.1-4.1 2.5 0 4.3 1.8 4.3 4.1z"/></g></svg>
