<?xml version="1.0" encoding="utf-8"?>
<!-- Generator: Adobe Illustrator 24.0.1, SVG Export Plug-In . SVG Version: 6.00 Build 0)  -->
<svg version="1.1" id="Layer_1" xmlns="http://www.w3.org/2000/svg" xmlns:xlink="http://www.w3.org/1999/xlink" x="0px" y="0px"
	 viewBox="0 0 512 98" style="enable-background:new 0 0 512 98;" xml:space="preserve">
<style type="text/css">
	.st0{fill:none;}
	.st1{fill:#E01B22;}
	.st2{fill:#FFFFFF;}
	.st3{fill:#BE1E2D;}
</style>
<rect class="st0" width="512" height="98"/>
<g>
	<g>
		<g>
			<path class="st1" d="M267.2,68.2c1.2-0.3,2.7-0.4,4.3-0.4c2.3,0,4.3,0.6,5.3,1.9c0.8,1,1.1,2.1,1.1,3.7c0,2.3-1.2,4.5-2.5,5.6
				c-1.7,1.5-4.2,2.2-6.7,2.2c-0.9,0-1.7,0-2.5-0.2l-1.8,9.7h-1.5L267.2,68.2z M266.5,79.6c1,0.2,1.7,0.3,2.5,0.3
				c4.4,0,7.4-2.7,7.4-6.5c0-3-2.2-4.3-5.2-4.3c-1.2,0-2.2,0.1-2.7,0.3L266.5,79.6z"/>
			<path class="st1" d="M292.1,80.9c0,4.4-3.2,10.2-8.6,10.2c-4,0-6-3.2-6-6.6c0-5.2,3.6-10.3,8.6-10.3
				C290.4,74.1,292.1,77.6,292.1,80.9z M279.1,84.3c0,3.1,1.8,5.4,4.6,5.4c3.7,0,6.8-4.5,6.8-8.9c0-2.1-1-5.4-4.5-5.4
				C282,75.4,279.1,79.8,279.1,84.3z"/>
			<path class="st1" d="M295.9,74.5l0.9,10.5c0.2,2.1,0.2,2.8,0.2,3.9h0.1c0.3-0.6,0.8-1.9,1.7-3.5l5.8-10.9h1.5l1.4,10.7
				c0.2,1.7,0.4,3,0.4,3.6h0.1c0.4-1,0.7-2,1.4-3.4l5.4-11h1.6l-8.1,16.2h-1.4l-1.5-10.8c-0.2-1.4-0.3-2.7-0.3-3.8H305
				c-0.6,1.1-1.1,2.4-1.9,3.8l-5.8,10.8H296l-1.5-16.2h1.4V74.5z"/>
			<path class="st1" d="M326.4,89.8c-0.8,0.5-2.5,1.3-4.9,1.3c-4.1,0-5.6-3.1-5.6-6.3c0-4.9,3.7-10.6,8.5-10.6c3,0,4.2,1.8,4.2,3.7
				c0,4.3-5.3,5.2-11,5.1c-0.2,0.9-0.2,2.9,0.2,4c0.7,1.9,2.1,2.8,3.9,2.8c2,0,3.4-0.7,4.3-1.2L326.4,89.8z M324.1,75.4
				c-2.9,0-5.4,3.1-6.3,6.2c4.8,0.1,9.2-0.6,9.2-3.7C327,76.3,325.7,75.4,324.1,75.4z"/>
			<path class="st1" d="M329.5,90.7l2.1-10.9c0.4-1.9,0.6-3.7,0.8-5.3h1.4c-0.2,1.1-0.3,2.3-0.5,3.6h0.1c1-2.3,2.7-4,4.8-4
				c0.2,0,0.6,0,0.7,0.1l-0.3,1.5c-0.2-0.1-0.4-0.1-0.8-0.1c-2,0-4.6,3-5.4,7.2l-1.5,7.9C330.9,90.7,329.5,90.7,329.5,90.7z"/>
			<path class="st1" d="M348.8,89.8c-0.8,0.5-2.5,1.3-4.9,1.3c-4.1,0-5.6-3.1-5.6-6.3c0-4.9,3.7-10.6,8.5-10.6c3,0,4.2,1.8,4.2,3.7
				c0,4.3-5.3,5.2-11,5.1c-0.2,0.9-0.2,2.9,0.2,4c0.7,1.9,2.1,2.8,3.9,2.8c2,0,3.4-0.7,4.3-1.2L348.8,89.8z M346.4,75.4
				c-2.9,0-5.4,3.1-6.3,6.2c4.8,0.1,9.2-0.6,9.2-3.7C349.3,76.3,348.1,75.4,346.4,75.4z"/>
			<path class="st1" d="M368,66.7l-3.7,19.6c-0.3,1.4-0.5,3.1-0.6,4.4h-1.4l0.6-3.6h-0.1c-1.5,2.4-3.6,3.9-6.2,3.9
				c-3.4,0-4.7-2.8-4.7-5.8c0-5.8,4.4-11.2,9.9-11.2c1.2,0,2.6,0.3,3.3,0.7l1.5-8.1L368,66.7L368,66.7z M364.7,76.2
				c-0.7-0.4-1.7-0.8-3.1-0.8c-4.5,0-8.2,4.7-8.2,9.7c0,2,0.6,4.6,3.6,4.6c2.6,0,5.8-3.1,6.5-7.1L364.7,76.2z"/>
			<path class="st1" d="M379.4,66.7L377.1,78h0.1c1.6-2.7,3.8-3.9,6.1-3.9c3.7,0,4.9,3,4.9,5.9c0,4.8-3.7,11-9.7,11
				c-2.2,0-4.5-0.9-4.5-4c0-0.7,0.1-1.6,0.2-2.2l3.6-18.1C377.8,66.7,379.4,66.7,379.4,66.7z M375.7,84.8c-0.1,0.6-0.2,1.2-0.2,2.2
				c0,1.8,1,2.8,3.1,2.8c5.1,0,8-5.7,8-9.8c0-2.3-1-4.5-3.7-4.5c-2.8,0-5.8,3-6.8,7.4L375.7,84.8z"/>
			<path class="st1" d="M391.6,74.5l2,9.8c0.4,2,0.7,3.2,0.9,4.5h0.1c0.5-1.1,1-2.3,1.9-4.1l4.9-10.2h1.6l-6.3,12.7
				c-1.5,3-2.9,5.8-5.2,8.1c-1.8,1.8-3.6,2.6-4.4,2.8l-0.4-1.3c0.7-0.3,1.9-0.7,3.1-1.7c1.1-0.9,2.4-2.4,3.5-4.3
				c0.1-0.3,0.1-0.5,0.1-0.7l-3.3-15.5h1.5V74.5z"/>
			<path class="st1" d="M414,67.9l-2.6,13.7c-0.2,1-0.3,2.1-0.3,2.9c0,3.6,2,5.1,4.8,5.1c3.5,0,6.1-2.4,7.2-8l2.6-13.8h1.5l-2.7,14
				c-1.3,6.7-4.9,9.1-8.9,9.1c-3.2,0-6.1-1.8-6.1-6.4c0-1,0.1-2.1,0.3-3.1l2.6-13.6h1.6V67.9z"/>
			<path class="st1" d="M432,68.2c1.2-0.3,2.6-0.4,4.2-0.4c2.3,0,4,0.6,5,1.8c0.8,0.9,1,2,1,3.2c0,2.9-2.4,5.2-5.1,5.8v0.1
				c2,0.5,3.9,2.2,3.8,5.1c0,2.3-1.2,4.1-2.5,5.2c-1.7,1.4-4,1.9-6.6,1.9c-1.6,0-3.1-0.1-4.1-0.3L432,68.2z M429.5,89.3
				c0.8,0.1,1.8,0.2,2.6,0.2c3.7,0,7.3-1.6,7.3-5.9c0-2.9-2.5-4.4-5.2-4.4h-2.8L429.5,89.3z M431.6,78h2.4c3.6,0,6.6-2,6.6-5.3
				c0-2.5-1.9-3.6-4.7-3.6c-1.1,0-2.1,0.1-2.6,0.2L431.6,78z"/>
			<path class="st1" d="M447.2,82.7l-4.2,8h-1.6l12.2-22.8h1.5l3.5,22.8h-1.5l-1.2-8H447.2z M455.6,81.4l-1.2-7.6
				c-0.1-1.1-0.3-2.7-0.5-4h-0.1c-0.6,1.3-1.1,2.5-1.9,3.9l-4.1,7.7H455.6z"/>
		</g>
		<path class="st1" d="M266.5,71.4h-9.7c-0.1,0-0.1-0.1-0.1-0.1v-0.7c0-0.1,0.1-0.1,0.1-0.1h9.7c0.1,0,0.1,0.1,0.1,0.1v0.7
			C266.6,71.3,266.6,71.4,266.5,71.4z"/>
		<path class="st1" d="M269.3,76.7h-9.7c-0.1,0-0.1-0.1-0.1-0.1v-0.7c0-0.1,0.1-0.1,0.1-0.1h9.7c0.1,0,0.1,0.1,0.1,0.1v0.7
			C269.4,76.6,269.4,76.7,269.3,76.7z"/>
		<path class="st1" d="M270.9,84h-9.7c-0.1,0-0.1-0.1-0.1-0.1v-0.7c0-0.1,0.1-0.1,0.1-0.1h9.7c0.1,0,0.1,0.1,0.1,0.1v0.7
			C271,83.9,271,84,270.9,84z"/>
		<path class="st1" d="M264.4,88.7h-9.7c-0.1,0-0.1-0.1-0.1-0.1v-0.7c0-0.1,0.1-0.1,0.1-0.1h9.7c0.1,0,0.1,0.1,0.1,0.1v0.7
			C264.5,88.7,264.4,88.7,264.4,88.7z"/>
	</g>
	<g>
		<path class="st2" d="M204.4,56.2c0,1.6-1.3,2.9-2.9,2.9h-19.2c-1.6,0-2.9-1.3-2.9-2.9c0-0.8,0.3-1.3,0.8-2.1l17.6-22.4
			c2.6-5.6-3.4-11.4-9-8.2c-1.8,1.1-3,3.1-3,5.3c0,1.6-1.3,3-3,3c-1.6,0-3-1.3-3-3c0-3.3,1.4-6.2,3.5-8.3v-0.1
			c3.7-3.7,9.3-4.6,13.8-2.6c3,1.3,5.3,3.7,6.5,6.6c1.3,3.1,1.5,7.4-0.7,10.3l-14.6,18.5h13.2C203.1,53.3,204.4,54.6,204.4,56.2z"/>
		<path class="st1" d="M207.5,43.9V20.3c0-1.7,1.3-3,3-3s3,1.3,3,3V44c0,5.1,4.1,9.2,9.2,9.2c5.1,0,9.2-4.1,9.2-9.2V20.3
			c0-1.7,1.3-3,3-3s3,1.3,3,3V44c0,8.4-6.8,15.2-15.2,15.2C214.4,59.1,207.5,52.3,207.5,43.9z"/>
	</g>
	<path class="st1" d="M188.1,32.3l-1.7,1.8l-3.6,3.8c-6.1,6.8-10,12.1-16.1,19c-2.2,2.5-4.7,3.9-8,2.8c-3.5-1.2-4.9-3.8-4.9-7.3
		c0-0.6,0-1.3,0-1.9c-0.1-2.5,0-5.2,0-8.2c-0.7,0.2-1.2,0.4-1.7,0.6l-0.2,0.1c-0.5,0.2-1,0.4-1.4,0.6c-9.9,5-19.8,10-29.7,15.1
		c-6.4,3.3-11.3,0.4-11.6-6.8c0-1-0.1-1.9-0.1-2.9l0,0c0-1.4,0-2.8,0-4.3c0-1.8-1.9-3-3.5-2.2c-29.3,15-57.8,30-86.3,44.9
		c-0.1,0-0.1,0.1-0.2,0.1l-2.6,1.4l1.9-2l1.9-1.6l1.5-1.3c6-4.3,60.2-44.5,89.4-65.4c2.5-1.8,5.1-2.8,8.1-1.3c3.1,1.6,4,4.3,3.9,7.6
		s0,6.6,0,10.3c0,1.9,2.1,3.1,3.7,2c6.1-4,11.8-7.6,17.3-11.2c3.9-2.5,7.7-5.1,11.6-7.6c6.4-4,11.7-1.1,11.9,6.3
		c0.1,4.2,0.1,8.3,0.1,13c0,1.7,1.8,2.9,3.4,2.2l13-5.9l1.6-0.7L188.1,32.3z"/>
	<path class="st3" d="M109,48.8c0-1.4,0-2.8,0-4.3c0-1.8-1.9-3-3.5-2.2l9-4.3L109,48.8z"/>
	<path class="st3" d="M160.9,39.1l-7.1,11.3c-0.1-2.5,0-5.2,0-8.2c-0.7,0.2-1.2,0.4-1.7,0.6L160.9,39.1z"/>
	<g>
		<path class="st2" d="M314.6,34.2c0.1,0.2,0.1,0.3,0.1,0.4v20.3c0,2.3-1.9,4.2-4.2,4.2c-2.3,0-4.1-1.8-4.1-4.2V34.6
			c0-0.2,0-0.3,0-0.4c0-0.1,0-0.2,0-0.3c0-4.7-3.9-8.5-8.5-8.5c-4.7,0-8.5,3.8-8.5,8.5V55c0,2.3-1.8,4.2-4.1,4.2
			c-2.3,0-4.2-1.8-4.2-4.2V33.8c0-4.7-3.8-8.5-8.5-8.5s-8.5,3.8-8.5,8.5v21.1c0,2.3-1.8,4.2-4.1,4.2c-2.3,0-4.2-1.8-4.2-4.2V33.8
			c0-9.2,7.5-16.7,16.8-16.7c5,0,9.5,2.2,12.6,5.8c3.1-3.6,7.6-5.8,12.6-5.8c9.3,0,16.8,7.5,16.8,16.7
			C314.7,34,314.7,34.1,314.6,34.2z"/>
		<path class="st2" d="M319.4,37.9c0-11.6,9.5-21,21-21c11.6,0,21,9.4,21,21s-9.4,21-21,21C328.8,59,319.4,49.5,319.4,37.9z
			 M327.7,37.9c0,6.9,5.7,12.7,12.7,12.7s12.7-5.8,12.7-12.7c0-7-5.7-12.7-12.7-12.7C333.3,25.2,327.7,30.9,327.7,37.9z"/>
		<path class="st2" d="M408.3,37.9v16.8c0,2.3-1.8,4.2-4.2,4.2c-2.3,0-4.1-1.8-4.1-4.2V37.9c0-7-5.7-12.7-12.7-12.7
			s-12.7,5.7-12.7,12.7v16.8c0,2.3-1.8,4.2-4.2,4.2c-2.3,0-4.1-1.8-4.1-4.2V37.9c0-11.6,9.5-21,21-21
			C398.9,16.9,408.3,26.3,408.3,37.9z"/>
		<path class="st2" d="M455.3,37.9c0,2.3-1.8,4.1-4.2,4.1h-28.9c1.8,5,6.4,8.6,12.1,8.6c1.9,0,5.4-0.2,9.4-2.8
			c1.9-1.3,4.5-0.1,5.5,1.9c1,2.1-0.1,4.3-2,5.5c-5.5,3.7-9.8,3.6-12.9,3.6c-11.6,0-21-9.5-21-21c0-11.6,9.4-21,21-21
			C444.4,16.9,455.3,24.3,455.3,37.9z M422.2,33.8h24.2c-1.8-5.9-7.1-8.5-12.1-8.5C428.7,25.2,424,28.8,422.2,33.8z"/>
		<path class="st2" d="M494,21.4v41.3c0,9.5-7.8,17.2-17.3,17.2c-6.6,0-12.6-3.8-15.5-9.7c-1-2-0.2-4.5,1.9-5.5c2-1,4.5-0.1,5.4,1.9
			c1.6,3.1,4.7,5,8.1,5c5,0,9-4,9-9v-6c-2.5,1.5-5.4,2.3-8.6,2.3c-9.2,0-16.7-7.5-16.8-16.7c0-0.1,0-0.1,0-0.1V21.4
			c0-2.3,1.8-4.1,4.1-4.1s4.1,1.8,4.1,4.1v20.8c0,4.8,3.9,8.6,8.6,8.6c4.8,0,8.6-3.9,8.6-8.6V21.4c0-2.3,1.8-4.1,4.1-4.1
			C492.2,17.3,494,19.1,494,21.4z"/>
	</g>
</g>
</svg>
