<svg width="150" height="140" viewBox="0 0 150 140" fill="none" xmlns="http://www.w3.org/2000/svg">
<path fill-rule="evenodd" clip-rule="evenodd" d="M31 47C31 43.6863 33.6863 41 37 41H113C116.314 41 119 43.6863 119 47V93C119 96.3137 116.314 99 113 99H37C33.6863 99 31 96.3137 31 93V47ZM39 84.625C39 84.2798 39.2629 84 39.5873 84H75.4127C75.7371 84 76 84.2798 76 84.625V88.375C76 88.7202 75.7371 89 75.4127 89H39.5873C39.2629 89 39 88.7202 39 88.375V84.625ZM109.786 76C110.456 76 111 76.5061 111 77.1304V87.8696C111 88.4939 110.456 89 109.786 89H95.2143C94.5437 89 94 88.4939 94 87.8696V77.1304C94 76.5061 94.5437 76 95.2143 76H109.786Z" fill="#A91F23"/>
</svg>
