<svg width="34" height="21" viewBox="0 0 34 21" fill="none" xmlns="http://www.w3.org/2000/svg">
<path d="M22.1577 2.23438H11.8167V18.6274H22.1577V2.23438Z" fill="#FF5F00"/>
<path d="M13.2752 10.4273C13.274 8.84878 13.6426 7.29067 14.3534 5.87088C15.0641 4.45109 16.0983 3.20681 17.3776 2.23222C15.7931 1.02358 13.8902 0.272 11.8864 0.063377C9.88258 -0.145246 7.85873 0.197503 6.04613 1.05245C4.23353 1.9074 2.70532 3.24006 1.63615 4.89811C0.566984 6.55616 0 8.47272 0 10.4287C0 12.3847 0.566984 14.3013 1.63615 15.9593C2.70532 17.6174 4.23353 18.9501 6.04613 19.805C7.85873 20.66 9.88258 21.0027 11.8864 20.7941C13.8902 20.5855 15.7931 19.8339 17.3776 18.6252C16.0979 17.6503 15.0635 16.4056 14.3527 14.9853C13.642 13.5649 13.2735 12.0063 13.2752 10.4273Z" fill="#EB001B"/>
<path d="M33.9757 10.4275C33.9756 12.3836 33.4085 14.3003 32.3391 15.9584C31.2698 17.6165 29.7413 18.9492 27.9285 19.804C26.1157 20.6588 24.0916 21.0013 22.0877 20.7924C20.0838 20.5835 18.1809 19.8316 16.5964 18.6225C17.8753 17.6471 18.9092 16.4025 19.6201 14.9826C20.331 13.5627 20.7004 12.0047 20.7004 10.426C20.7004 8.84738 20.331 7.28934 19.6201 5.86947C18.9092 4.4496 17.8753 3.20498 16.5964 2.22952C18.1809 1.0205 20.0838 0.268556 22.0877 0.0596333C24.0916 -0.14929 26.1157 0.193239 27.9285 1.04807C29.7413 1.90289 31.2698 3.23553 32.3391 4.89364C33.4085 6.55174 33.9756 8.46842 33.9757 10.4246V10.4275Z" fill="#F79E1B"/>
</svg>
