<svg width="100" height="60" viewBox="0 0 100 60" fill="none" xmlns="http://www.w3.org/2000/svg">
<path d="M63.6922 6.42188H33.9668V53.5439H63.6922V6.42188Z" fill="#FF5F00"/>
<path d="M38.16 29.9778C38.1563 25.4404 39.216 20.9616 41.2591 16.8804C43.3021 12.7991 46.2749 9.22244 49.9524 6.42095C45.3976 2.9467 39.9276 0.786267 34.1677 0.186575C28.4077 -0.413117 22.5901 0.572122 17.3797 3.02969C12.1694 5.48726 7.77648 9.318 4.70314 14.0841C1.62981 18.8502 0 24.3594 0 29.982C0 35.6046 1.62981 41.1137 4.70314 45.8798C7.77648 50.646 12.1694 54.4767 17.3797 56.9343C22.5901 59.3918 28.4077 60.3771 34.1677 59.7774C39.9276 59.1777 45.3976 57.0173 49.9524 53.543C46.2737 50.7407 43.3003 47.1626 41.2572 43.0799C39.2141 38.9971 38.155 34.5167 38.16 29.9778Z" fill="#EB001B"/>
<path d="M99.9999 29.974C99.9997 35.597 98.3695 41.1065 95.2957 45.8728C92.2218 50.6391 87.8282 54.4697 82.6172 56.927C77.4062 59.3842 71.588 60.3688 65.8277 59.7682C60.0674 59.1677 54.5974 57.0062 50.043 53.5309C53.719 50.7269 56.6909 47.1492 58.7345 43.0677C60.7781 38.9863 61.8399 34.5077 61.8399 29.9698C61.8399 25.4319 60.7781 20.9533 58.7345 16.8719C56.6909 12.7905 53.719 9.21277 50.043 6.40878C54.5974 2.93345 60.0674 0.771971 65.8277 0.171417C71.588 -0.429136 77.4062 0.55547 82.6172 3.01269C87.8282 5.46991 92.2218 9.30058 95.2957 14.0668C98.3695 18.8331 99.9997 24.3426 99.9999 29.9657V29.974Z" fill="#F79E1B"/>
</svg>
