<svg width="150" height="140" viewBox="0 0 150 140" fill="none" xmlns="http://www.w3.org/2000/svg">
<path fill-rule="evenodd" clip-rule="evenodd" d="M42.325 47H111.801C117.496 47 122.126 51.6302 122.12 57.325V96.7551C122.12 102.45 117.49 107.08 111.795 107.08H42.325C36.6302 107.08 32 102.45 32 96.7551V57.325C32 51.6302 36.6302 47 42.325 47ZM46.0822 63.8986H55.4721C57.0268 63.8986 58.2886 62.6368 58.2886 61.0822C58.2886 59.5275 57.0268 58.2657 55.4721 58.2657H46.0822C44.5275 58.2657 43.2657 59.5275 43.2657 61.0822C43.2657 62.6368 44.5275 63.8986 46.0822 63.8986ZM98.6537 95.8144H108.044C109.598 95.8144 110.86 94.5526 110.86 92.998C110.86 91.4433 109.598 90.1815 108.044 90.1815H98.6537C97.099 90.1815 95.8372 91.4433 95.8372 92.998C95.8372 94.5526 97.099 95.8144 98.6537 95.8144Z" fill="#A91F23"/>
<path d="M90.0451 68.8321C89.5947 69.2825 88.8689 69.2877 88.4249 68.8437C85.3202 65.7391 80.2326 65.7756 77.083 68.9252L69.1961 76.8121L72.682 80.298C73.3898 81.0058 72.8836 82.2262 71.8853 82.2593L60.271 82.6133C59.9566 82.622 59.6545 82.5027 59.4357 82.2839C59.2153 82.0635 59.0976 81.763 59.1063 81.4486L59.4603 69.8343C59.4918 68.8279 60.7154 68.3314 61.4216 69.0376L64.9075 72.5235L71.7076 65.7234C76.3569 61.0741 83.8684 61.0202 88.4514 65.6032L90.06 67.2118C90.5008 67.6558 90.4955 68.3817 90.0451 68.8321V68.8321Z" fill="white"/>
<path d="M93.4971 85.9279L89.8596 82.2904L83.059 89.091C78.4127 93.7407 70.7388 93.6328 65.9566 88.8505L64.278 87.172C63.8147 86.7087 63.8043 85.9671 64.2547 85.5167C64.7051 85.0662 65.4467 85.0767 65.91 85.5399C69.1496 88.7796 74.3473 88.8527 77.497 85.7029L85.3846 77.8154L81.7471 74.1779C81.0119 73.4427 81.4892 72.1999 82.5185 72.1912L94.3781 72.0816C94.6991 72.0795 95.0104 72.208 95.2387 72.4363C95.4687 72.6663 95.5955 72.9759 95.5934 73.2969L95.4838 85.1565C95.475 86.1824 94.234 86.6648 93.4971 85.9279V85.9279Z" fill="white"/>
<path d="M106.907 44.6038H45.3227C43.4853 44.6038 41.9924 43.1237 41.9924 41.3019C41.9924 39.4802 43.4853 38 45.3227 38H106.902C108.739 38 110.232 39.4802 110.232 41.3019C110.232 43.1237 108.744 44.6038 106.907 44.6038V44.6038Z" fill="#A91F23"/>
</svg>
