<svg width="65" height="65" viewBox="0 0 65 65" fill="none" xmlns="http://www.w3.org/2000/svg">
<path d="M32.5 65C50.4 65 65 50.4 65 32.5C65 14.6 50.4 0 32.5 0C14.6 0 0 14.6 0 32.5C0 50.4 14.6 65 32.5 65Z" fill="white"/>
<path fill-rule="evenodd" clip-rule="evenodd" d="M18.2391 21.6951H46.7632C49.1013 21.6951 51.0023 23.5961 51 25.9341V42.1227C51 44.4607 49.099 46.3617 46.7609 46.3617H18.2391C15.901 46.3617 14 44.4607 14 42.1227V25.9341C14 23.5961 15.901 21.6951 18.2391 21.6951ZM19.7816 28.633H23.6368C24.2751 28.633 24.7931 28.115 24.7931 27.4767C24.7931 26.8384 24.2751 26.3204 23.6368 26.3204H19.7816C19.1433 26.3204 18.6253 26.8384 18.6253 27.4767C18.6253 28.115 19.1433 28.633 19.7816 28.633ZM41.3655 41.7364H45.2207C45.859 41.7364 46.377 41.2184 46.377 40.5801C46.377 39.9418 45.859 39.4238 45.2207 39.4238H41.3655C40.7272 39.4238 40.2092 39.9418 40.2092 40.5801C40.2092 41.2184 40.7272 41.7364 41.3655 41.7364Z" fill="#A91F23"/>
<path d="M37.8312 30.6585C37.6462 30.8434 37.3482 30.8456 37.1659 30.6633C35.8913 29.3886 33.8025 29.4036 32.5094 30.6967L29.2713 33.9348L30.7025 35.366C30.9931 35.6566 30.7853 36.1576 30.3754 36.1712L25.607 36.3165C25.4779 36.3201 25.3539 36.2711 25.2641 36.1813C25.1736 36.0908 25.1253 35.9675 25.1288 35.8384L25.2742 31.07C25.2871 30.6568 25.7895 30.453 26.0794 30.7429L27.5106 32.1741L30.3024 29.3822C32.2113 27.4734 35.2952 27.4512 37.1768 29.3328L37.8373 29.9933C38.0182 30.1756 38.0161 30.4736 37.8312 30.6585V30.6585Z" fill="white"/>
<path d="M39.2484 37.6774L37.755 36.184L34.9629 38.9761C33.0553 40.885 29.9047 40.8407 27.9413 38.8773L27.2521 38.1882C27.0619 37.998 27.0576 37.6935 27.2426 37.5086C27.4275 37.3236 27.732 37.3279 27.9222 37.5181C29.2522 38.8482 31.3862 38.8782 32.6794 37.585L35.9177 34.3467L34.4243 32.8533C34.1224 32.5514 34.3184 32.0412 34.741 32.0376L39.6101 31.9926C39.7419 31.9918 39.8697 32.0445 39.9634 32.1383C40.0579 32.2327 40.1099 32.3598 40.1091 32.4916L40.0641 37.3607C40.0605 37.7819 39.5509 37.9799 39.2484 37.6774V37.6774Z" fill="white"/>
<path d="M44.6355 21H19.3665C18.6126 21 18 20.3276 18 19.5C18 18.6724 18.6126 18 19.3665 18H44.6335C45.3874 18 46 18.6724 46 19.5C46 20.3276 45.3895 21 44.6355 21V21Z" fill="#A91F23"/>
</svg>
