<?xml version="1.0" encoding="UTF-8" standalone="no"?><!-- Generator: Gravit.io --><svg xmlns="http://www.w3.org/2000/svg" xmlns:xlink="http://www.w3.org/1999/xlink" style="isolation:isolate" viewBox="0 0 512 512" width="512pt" height="512pt"><defs><clipPath id="_clipPath_zb8vJZ0SDEPXiMuRslcWWohKXk3TxaiB"><rect width="512" height="512"/></clipPath></defs><g clip-path="url(#_clipPath_zb8vJZ0SDEPXiMuRslcWWohKXk3TxaiB)"><path d=" M 276.751 235.249 L 276.751 182.67 C 276.751 168.502 267.453 157 256 157 L 256 157 C 244.547 157 235.249 168.502 235.249 182.67 L 235.249 235.249 L 182.67 235.249 C 168.502 235.249 157 244.547 157 256 L 157 256 C 157 267.453 168.502 276.751 182.67 276.751 L 235.249 276.751 L 235.249 329.33 C 235.249 343.498 244.547 355 256 355 L 256 355 C 267.453 355 276.751 343.498 276.751 329.33 L 276.751 276.751 L 329.33 276.751 C 343.498 276.751 355 267.453 355 256 L 355 256 C 355 244.547 343.498 235.249 329.33 235.249 L 276.751 235.249 Z " fill-rule="evenodd" fill="rgb(150,153,181)"/><path d=" M 446.27 80.721 L 65.73 80.721 C 29.487 80.721 0 110.207 0 146.451 L 0 365.549 C 0 401.793 29.487 431.279 65.73 431.279 L 446.27 431.279 C 482.515 431.279 512 401.793 512 365.549 L 512 146.451 C 512 110.207 482.515 80.721 446.27 80.721 Z  M 373.35 387.459 L 138.651 387.459 C 129.671 339.501 91.778 301.61 43.82 292.628 L 43.82 219.371 C 91.778 210.39 129.67 172.497 138.651 124.539 L 373.35 124.539 C 382.33 172.497 420.224 210.389 468.18 219.371 L 468.18 292.628 C 420.222 301.61 382.33 339.503 373.35 387.459 L 373.35 387.459 Z  M 468.18 146.451 L 468.18 174.31 C 444.441 167.039 425.68 148.279 418.411 124.541 L 446.27 124.541 C 458.351 124.541 468.18 134.37 468.18 146.451 Z  M 65.73 124.541 L 93.591 124.541 C 86.321 148.28 67.559 167.04 43.82 174.312 L 43.82 146.451 C 43.82 134.37 53.649 124.541 65.73 124.541 Z  M 43.82 365.549 L 43.82 337.688 C 67.559 344.96 86.32 363.72 93.591 387.459 L 65.73 387.459 C 53.649 387.459 43.82 377.631 43.82 365.549 Z  M 446.27 387.459 L 418.411 387.459 C 425.68 363.72 444.441 344.96 468.18 337.69 L 468.18 365.549 C 468.18 377.631 458.351 387.459 446.27 387.459 Z " fill="rgb(150,153,181)"/></g></svg>