<svg width="150" height="140" viewBox="0 0 150 140" fill="none" xmlns="http://www.w3.org/2000/svg">
<path d="M118.315 43.003C118.315 37.4858 113.829 33 108.312 33H41.003C35.4858 33 31 37.4858 31 43.003V81.2033C31 86.7205 35.4858 91.2063 41.003 91.2063H70.2153C73.4132 79.6916 83.9619 71.2002 96.4861 71.2002C105.414 71.2002 113.332 75.5332 118.315 82.1855V43.003ZM53.7401 49.3715H44.6429C43.1368 49.3715 41.9144 48.1491 41.9144 46.6429C41.9144 45.1368 43.1368 43.9144 44.6429 43.9144H53.7401C55.2462 43.9144 56.4686 45.1368 56.4686 46.6429C56.4686 48.1491 55.2462 49.3715 53.7401 49.3715ZM74.6574 73.0175C68.6382 73.0175 63.7431 68.1224 63.7431 62.1031C63.7431 56.0839 68.6382 51.1888 74.6574 51.1888C80.6767 51.1888 85.5718 56.0839 85.5718 62.1031C85.5718 68.1224 80.6767 73.0175 74.6574 73.0175Z" fill="#A91F23"/>
<path d="M96.486 76.6575C84.4475 76.6575 74.6573 86.4476 74.6573 98.4862C74.6573 110.525 84.4475 120.315 96.486 120.315C108.525 120.315 118.315 110.525 118.315 98.4862C118.315 86.4476 108.525 76.6575 96.486 76.6575ZM106.489 102.126H100.12V108.495C100.12 110.503 98.4888 112.135 96.4806 112.135C94.4723 112.135 92.8406 110.503 92.8406 108.495V102.126H86.4721C84.4639 102.126 82.8322 100.494 82.8322 98.4862C82.8322 96.4779 84.4639 94.8462 86.4721 94.8462H92.8406V88.4777C92.8406 86.4695 94.4723 84.8378 96.4806 84.8378C98.4888 84.8378 100.12 86.4695 100.12 88.4777V94.8462H106.489C108.497 94.8462 110.129 96.4779 110.129 98.4862C110.129 100.494 108.503 102.126 106.489 102.126Z" fill="#A91F23"/>
</svg>
