<?xml version="1.0" encoding="utf-8"?>
<!-- Generator: Adobe Illustrator 24.0.1, SVG Export Plug-In . SVG Version: 6.00 Build 0)  -->
<svg version="1.1" id="Layer_1" xmlns="http://www.w3.org/2000/svg" xmlns:xlink="http://www.w3.org/1999/xlink" x="0px" y="0px"
	 viewBox="0 0 512 512" style="enable-background:new 0 0 512 512;" xml:space="preserve">
<style type="text/css">
	.st0{clip-path:url(#SVGID_2_);}
	.st1{fill-rule:evenodd;clip-rule:evenodd;fill:#A91F23;}
	.st2{fill:#A91F23;}
</style>
<g>
	<defs>
		<rect id="SVGID_1_" width="512" height="512"/>
	</defs>
	<clipPath id="SVGID_2_">
		<use xlink:href="#SVGID_1_"  style="overflow:visible;"/>
	</clipPath>
	<g class="st0">
		<path class="st1" d="M276.8,235.2v-52.6c0-14.2-9.3-25.7-20.8-25.7l0,0c-11.5,0-20.8,11.5-20.8,25.7v52.6h-52.6
			c-14.2,0-25.7,9.3-25.7,20.8l0,0c0,11.5,11.5,20.8,25.7,20.8h52.6v52.6c0,14.2,9.3,25.7,20.8,25.7l0,0c11.5,0,20.8-11.5,20.8-25.7
			v-52.6h52.6c14.2,0,25.7-9.3,25.7-20.8l0,0c0-11.5-11.5-20.8-25.7-20.8H276.8z"/>
		<path class="st2" d="M446.3,80.7H65.7C29.5,80.7,0,110.2,0,146.5v219.1c0,36.2,29.5,65.7,65.7,65.7h380.5
			c36.2,0,65.7-29.5,65.7-65.7V146.5C512,110.2,482.5,80.7,446.3,80.7z M373.4,387.5H138.7c-9-48-46.9-85.8-94.8-94.8v-73.3
			c48-9,85.8-46.9,94.8-94.8h234.7c9,48,46.9,85.9,94.8,94.8v73.3C420.2,301.6,382.3,339.5,373.4,387.5L373.4,387.5z M468.2,146.5
			v27.9c-23.7-7.3-42.5-26-49.8-49.8h27.9C458.4,124.5,468.2,134.4,468.2,146.5z M65.7,124.5h27.9c-7.3,23.7-26,42.5-49.8,49.8
			v-27.9C43.8,134.4,53.6,124.5,65.7,124.5z M43.8,365.5v-27.9c23.7,7.3,42.5,26,49.8,49.8H65.7C53.6,387.5,43.8,377.6,43.8,365.5z
			 M446.3,387.5h-27.9c7.3-23.7,26-42.5,49.8-49.8v27.9C468.2,377.6,458.4,387.5,446.3,387.5z"/>
	</g>
</g>
</svg>
