<?xml version="1.0" encoding="utf-8"?>
<!-- Generator: Adobe Illustrator 24.0.1, SVG Export Plug-In . SVG Version: 6.00 Build 0)  -->
<svg version="1.1" id="Capa_1" xmlns="http://www.w3.org/2000/svg" xmlns:xlink="http://www.w3.org/1999/xlink" x="0px" y="0px"
	 viewBox="0 0 512 512" style="enable-background:new 0 0 512 512;" xml:space="preserve">
<style type="text/css">
	.st0{fill:#AEAEAF;}
</style>
<g>
	<g>
		<g>
			<g>
				<path class="st0" d="M465.2,186.4H199.2c-25.7,0-46.8,21.1-46.8,46.8v168.4c0,25.7,21.1,46.8,46.8,46.8h265.9
					c25.7,0,46.8-21.1,46.8-46.8V233.3C512.1,207.4,490.9,186.4,465.2,186.4z M486.8,402.3c0,9.3-7.6,17-17,17H198.7
					c-9.3,0-17-7.6-17-17V283.8h305V402.3z M486.8,239.2h-305v-6.4c0-9.3,7.6-17,17-17h271.1c9.3,0,17,7.6,17,17V239.2z"/>
			</g>
		</g>
		<g>
			<path class="st0" d="M195.9,157.5h164.9l-33.6-68c-11.5-23.2-39.7-32.7-62.9-21.2L26.1,186.1C2.9,197.6-6.6,225.8,4.9,249
				l74.7,151c10,20.4,33.1,30.3,54.3,24.5c-6.3-10.7-9.9-23-9.9-36.2V229.5C123.9,189.9,156.3,157.5,195.9,157.5z"/>
		</g>
		<g>
			<path class="st0" d="M229.7,401c9.2,0,17.5-4.1,23-10.7c5.6,6.5,13.8,10.7,23,10.7c16.8,0,30.4-13.6,30.4-30.4
				s-13.6-30.4-30.4-30.4c-9.2,0-17.5,4.1-23,10.7c-5.6-6.5-13.8-10.7-23-10.7c-16.8,0-30.4,13.6-30.4,30.4S213,401,229.7,401z"/>
		</g>
	</g>
</g>
</svg>
