<?xml version="1.0" encoding="utf-8"?>
<!-- Generator: Adobe Illustrator 24.0.1, SVG Export Plug-In . SVG Version: 6.00 Build 0)  -->
<svg version="1.1" id="Capa_1" xmlns="http://www.w3.org/2000/svg" xmlns:xlink="http://www.w3.org/1999/xlink" x="0px" y="0px"
	 viewBox="0 0 512 512" style="enable-background:new 0 0 512 512;" xml:space="preserve">
<style type="text/css">
	.st0{fill:#A91F23;}
</style>
<g>
	<path class="st0" d="M448,0H96c-8.3,0-15,6.7-15,15v66H64c-8.3,0-15,6.7-15,15s6.7,15,15,15h17v50H64c-8.3,0-15,6.7-15,15
		s6.7,15,15,15h17v50H64c-8.3,0-15,6.7-15,15s6.7,15,15,15h17v50H64c-8.3,0-15,6.7-15,15s6.7,15,15,15h17v50H64c-8.3,0-15,6.7-15,15
		s6.7,15,15,15h17v66c0,8.3,6.7,15,15,15h352c8.3,0,15-6.7,15-15V15C463,6.7,456.3,0,448,0z M352,375c-8.3,0-15-6.7-15-15
		c0-39.8-24.3-81-65-81s-65,41.2-65,81c0,8.3-6.7,15-15,15s-15-6.7-15-15c0-38.1,17.4-77.6,49.3-97.8c-15.4-13-25.3-32.5-25.3-54.2
		c0-39.1,31.9-71,71-71s71,31.9,71,71c0,21.7-9.8,41.2-25.3,54.2c31.9,20.2,49.3,59.6,49.3,97.8C367,368.3,360.3,375,352,375z"/>
	<circle class="st0" cx="272" cy="208" r="41"/>
</g>
</svg>
