<svg width="150" height="140" viewBox="0 0 150 140" fill="none" xmlns="http://www.w3.org/2000/svg">
<path d="M92.5079 54.8525C92.5079 47.7613 86.6879 41.9487 79.5872 41.9487C72.4866 41.9487 66.6666 47.7611 66.6666 54.8525C66.6666 61.9439 72.4866 67.7563 79.5872 67.7563C86.6879 67.7563 92.5079 61.9436 92.5079 54.8525Z" fill="#A91F23"/>
<path d="M57.5872 87.0537V93.4475C57.5872 95.4238 59.1005 96.9349 61.0792 96.9349H97.9786C99.9575 96.9349 101.471 95.4236 101.471 93.4475V87.0537C101.471 77.405 93.5551 69.4999 83.8938 69.4999H75.1635C65.5027 69.5001 57.5872 77.405 57.5872 87.0537Z" fill="#A91F23"/>
<path d="M37.6825 62.5251V76.4751C37.6825 78.4514 39.1958 79.9625 41.1745 79.9625C43.1532 79.9625 44.6664 78.4512 44.6664 76.4751V62.5251C44.6664 60.5487 43.1532 59.0377 41.1745 59.0377C39.1958 59.0377 37.6825 60.5487 37.6825 62.5251Z" fill="#A91F23"/>
<path d="M111.016 23H44.6664C40.7088 23 37.6825 26.0226 37.6825 29.975V38.1124C37.6825 40.0888 39.1958 41.5998 41.1745 41.5998C43.1532 41.5998 44.6664 40.0888 44.6664 38.1124V29.975H111.016V109.025H44.6664V100.888C44.6664 98.9112 43.1532 97.4002 41.1745 97.4002C39.1958 97.4002 37.6825 98.9115 37.6825 100.888V109.025C37.6825 112.977 40.7091 116 44.6667 116H111.016C114.973 116 118 112.977 118 109.025V29.975C118 26.0226 114.973 23 111.016 23Z" fill="#A91F23"/>
<path d="M52.6983 88.4488C52.6983 86.4725 51.185 84.9614 49.2063 84.9614H33.492C31.513 84.9614 30 86.4727 30 88.4488C30 90.4251 31.5133 91.9362 33.492 91.9362H49.2063C51.1852 91.9362 52.6983 90.4249 52.6983 88.4488Z" fill="#A91F23"/>
<path d="M33.492 54.0387H48.0422C50.0211 54.0387 51.5341 52.5275 51.5341 50.5513C51.5341 48.5752 50.0209 47.064 48.0422 47.064H33.492C31.513 47.064 30 48.5752 30 50.5513C30 52.5275 31.5133 54.0387 33.492 54.0387Z" fill="#A91F23"/>
</svg>
