<svg width="150" height="140" viewBox="0 0 150 140" fill="none" xmlns="http://www.w3.org/2000/svg">
<path d="M117.519 65.8699L78.0393 30.1767C76.3034 28.6078 73.6909 28.6078 71.9549 30.1767L32.4752 65.8699C31.083 67.1319 30.6361 69.059 31.3065 70.7984C31.9768 72.5379 33.644 73.6634 35.5174 73.6634H41.8252V109.425C41.8252 110.84 42.9768 112 44.4205 112H66.0596C67.4862 112 68.6549 110.857 68.6549 109.425V87.6986H81.3737V109.408C81.3737 110.823 82.5253 111.983 83.969 111.983H105.591C107.017 111.983 108.186 110.84 108.186 109.408V73.6464H114.494C116.367 73.6464 118.017 72.5209 118.705 70.7814C119.358 69.059 118.911 67.1149 117.519 65.8699Z" fill="#A91F23"/>
<path d="M107.499 34.1161H90.1221L110.094 52.1247V36.6912C110.077 35.2757 108.925 34.1161 107.499 34.1161Z" fill="#A91F23"/>
</svg>
