<?xml version="1.0" encoding="utf-8"?>
<!-- Generator: Adobe Illustrator 24.0.1, SVG Export Plug-In . SVG Version: 6.00 Build 0)  -->
<svg version="1.1" id="Capa_1" xmlns="http://www.w3.org/2000/svg" xmlns:xlink="http://www.w3.org/1999/xlink" x="0px" y="0px"
	 viewBox="0 0 512 512" style="enable-background:new 0 0 512 512;" xml:space="preserve">
<style type="text/css">
	.st0{fill:#AEAEAF;}
</style>
<g>
	<g>
		<path class="st0" d="M470.8,63.7L470.8,63.7c-3.7-1.9-8.3-1.3-11.4,1.5c-27.5,24.7-52.8,36.7-77.4,36.7s-48.5-11.4-78.2-37.1
			c-64.4-55-127.7-54.9-201.7-2.3c-5.2,3.7-5.2,3.7-4.3,109.5c0,41.6,0.7,93.1,0,100.3c-1.4,5.4,1.9,11,7.3,12.4
			c3.3,0.8,6.7,0,9.3-2.2c25.8-19.9,57.3-31,89.8-31.7c21.2,0.1,42.1,5.2,61,14.8c20.6,11.1,43.6,17.2,67,17.9
			c122.8,0,143-200.9,143.8-209.5C476.5,69.8,474.5,65.7,470.8,63.7z"/>
	</g>
</g>
<g>
	<g>
		<path class="st0" d="M66.5,0H57c-11.6,0-21,9.4-21,21V491c0,11.6,9.4,21,21,21h9.6c11.6,0,21-9.4,21-21V21C87.6,9.4,78.1,0,66.5,0
			z"/>
	</g>
</g>
</svg>
