<svg width="150" height="140" viewBox="0 0 150 140" fill="none" xmlns="http://www.w3.org/2000/svg">
<path d="M87.6156 97H112L109.785 44H97.976V53.838H92.864V44H75.5683V53.838H70.4563V44H58.6475L58 59.4936H87.6156V97Z" fill="#A91F23"/>
<path d="M82 113V65H71.6114V74.2418C71.6114 80.8142 66.1771 86.17 59.5086 86.17C52.84 86.17 47.4057 80.8142 47.4057 74.2418V65H37V112.983L82 113Z" fill="#A91F23"/>
<path d="M60 81C63.8621 81 67 77.9444 67 74.1836V65H53V74.1836C53 77.9276 56.1379 81 60 81Z" fill="#A91F23"/>
<path d="M88 113H113L112.558 102H88V113Z" fill="#A91F23"/>
<path d="M75.2045 39.6523C75.2045 34.9154 79.1598 31.0752 84 31.0752C88.8401 31.0752 92.7955 34.9323 92.7955 39.6523V44H98V39.6523C98 32.1241 91.7199 26 84 26C76.28 26 70 32.1241 70 39.6523V44H75.2045V39.6523Z" fill="#A91F23"/>
</svg>
