<?xml version="1.0"?>
<svg xmlns="http://www.w3.org/2000/svg" id="Capa_1" enable-background="new 0 0 510 510" height="512px" viewBox="0 0 510 510" width="512px"><g><path d="m497.5 390v-31.667l-46.178-58.052 46.178-31.665v-26.54l-46.33-37.063 46.33-52.948v-32.065h-485v270zm-230-210h105v30h-105zm0 60h105v30h-105zm-130 89.716v30.284h-30v-30h-30v-30h55c8.271 0 15-6.729 15-15s-6.729-15-15-15h-15c-24.813 0-45-20.187-45-45 0-21.375 14.986-39.305 35-43.866v-31.134h30v30h25v30h-45c-8.271 0-15 6.729-15 15s6.729 15 15 15h15c24.813 0 45 20.187 45 45 0 23.122-17.532 42.219-40 44.716zm100 .284h-30v-30h30zm0-60h-30v-30h30zm0-60h-30v-30h30zm30 90h105v30h-105z" fill="#9699B5"/><path d="m312.5 53.209c0-29.339-23.869-53.209-53.209-53.209h-7.227l-1.773 2.836-34.298 57.164h-106.986l-34.619-57.715-1.27-2.285h-7.409c-29.339 0-53.209 23.87-53.209 53.209v36.791h300z" fill="#9699B5"/><path d="m199.007 30 18.002-30h-109.016l18 30z" fill="#9699B5"/><path d="m12.5 420v36.791c0 29.339 23.87 53.209 53.209 53.209h193.582c29.34 0 53.209-23.87 53.209-53.209v-36.791zm180 60h-60v-30h60z" fill="#9699B5"/></g></svg>
