<?xml version="1.0" encoding="utf-8"?>
<!-- Generator: Adobe Illustrator 24.0.1, SVG Export Plug-In . SVG Version: 6.00 Build 0)  -->
<svg version="1.1" id="Layer_1" xmlns="http://www.w3.org/2000/svg" xmlns:xlink="http://www.w3.org/1999/xlink" x="0px" y="0px"
	 viewBox="0 0 512 512" style="enable-background:new 0 0 512 512;" xml:space="preserve">
<style type="text/css">
	.st0{clip-path:url(#SVGID_2_);fill:#AEAEAF;}
</style>
<g>
	<defs>
		<rect id="SVGID_1_" width="512" height="512"/>
	</defs>
	<clipPath id="SVGID_2_">
		<use xlink:href="#SVGID_1_"  style="overflow:visible;"/>
	</clipPath>
	<path class="st0" d="M399.4,123.9H112.6c-27.3,0-49.5,22.2-49.5,49.5v165.2c0,27.3,22.2,49.5,49.5,49.5h286.9
		c27.3,0,49.5-22.2,49.5-49.5V173.4C449,146.1,426.8,123.9,399.4,123.9z M344.5,355.1H167.5c-6.8-36.2-35.3-64.7-71.5-71.5v-55.2
		c36.2-6.8,64.7-35.3,71.5-71.5h176.9c6.8,36.2,35.3,64.7,71.5,71.5v55.2C379.8,290.4,351.2,318.9,344.5,355.1L344.5,355.1z
		 M415.9,173.4v21c-17.9-5.5-32-19.6-37.5-37.5h21C408.5,156.9,415.9,164.3,415.9,173.4z M112.6,156.9h21
		c-5.5,17.9-19.6,32-37.5,37.5v-21C96.1,164.3,103.5,156.9,112.6,156.9z M96.1,338.6v-21c17.9,5.5,32,19.6,37.5,37.5h-21
		C103.5,355.1,96.1,347.7,96.1,338.6z M399.4,355.1h-21c5.5-17.9,19.6-32,37.5-37.5v21C415.9,347.7,408.5,355.1,399.4,355.1z
		 M256,184.7c-39.3,0-71.3,32-71.3,71.3s32,71.3,71.3,71.3s71.3-32,71.3-71.3S295.3,184.7,256,184.7L256,184.7z M256,294.2
		c-21.1,0-38.2-17.2-38.2-38.2s17.2-38.2,38.2-38.2s38.2,17.2,38.2,38.2S277.1,294.2,256,294.2z M187.3,58.5
		c0-9.1,7.4-16.5,16.5-16.5h78.8l-4.8-4.8c-6.5-6.4-6.5-16.9,0-23.4c6.4-6.4,16.9-6.4,23.4,0l33,33c4.4,4.4,6.1,11.1,3.9,17.3
		c-1.7,4.7-1,3.3-36.9,39.1c-3.2,3.2-7.5,4.8-11.7,4.8c-14.6,0-22.1-17.8-11.7-28.2l4.8-4.8h-78.8C194.7,75.1,187.3,67.7,187.3,58.5
		L187.3,58.5z M304.7,453.5c0,9.1-7.4,16.5-16.5,16.5h-78.8l4.8,4.8c6.5,6.4,6.5,16.9,0,23.4c-6.4,6.4-16.9,6.5-23.4,0
		c-35.2-35.2-33.8-33.6-35.1-35.5c-3-4.4-3.7-10.3-1.5-15.5c1.7-4.1,1.2-2.9,36.6-38.4c6.4-6.5,16.9-6.5,23.4,0
		c6.5,6.4,6.5,16.9,0,23.4l-4.8,4.8h78.8C297.3,436.9,304.7,444.3,304.7,453.5L304.7,453.5z"/>
</g>
</svg>
