<?xml version="1.0" encoding="UTF-8" standalone="no"?><!-- Generator: Gravit.io --><svg xmlns="http://www.w3.org/2000/svg" xmlns:xlink="http://www.w3.org/1999/xlink" style="isolation:isolate" viewBox="0 0 512 512" width="512pt" height="512pt"><defs><clipPath id="_clipPath_F4gINBaHxHB9ZbuVK7Ird3T01Uu0Amho"><rect width="512" height="512"/></clipPath></defs><g clip-path="url(#_clipPath_F4gINBaHxHB9ZbuVK7Ird3T01Uu0Amho)"><path d=" M 399.431 123.871 L 112.572 123.871 C 85.251 123.871 63.023 146.099 63.023 173.419 L 63.023 338.581 C 63.023 365.901 85.251 388.129 112.572 388.129 L 399.431 388.129 C 426.753 388.129 448.98 365.901 448.98 338.581 L 448.98 173.419 C 448.98 146.099 426.753 123.871 399.431 123.871 Z  M 344.462 355.097 L 167.542 355.097 C 160.772 318.945 132.207 290.381 96.056 283.611 L 96.056 228.388 C 132.207 221.619 160.771 193.054 167.542 156.902 L 344.462 156.902 C 351.232 193.054 379.797 221.618 415.947 228.388 L 415.947 283.611 C 379.796 290.381 351.232 318.946 344.462 355.097 L 344.462 355.097 Z  M 415.947 173.419 L 415.947 194.421 C 398.052 188.939 383.91 174.797 378.43 156.903 L 399.431 156.903 C 408.538 156.903 415.947 164.313 415.947 173.419 Z  M 112.572 156.903 L 133.574 156.903 C 128.094 174.798 113.951 188.94 96.056 194.422 L 96.056 173.419 C 96.056 164.313 103.465 156.903 112.572 156.903 Z  M 96.056 338.581 L 96.056 317.578 C 113.951 323.06 128.093 337.202 133.574 355.097 L 112.572 355.097 C 103.465 355.097 96.056 347.688 96.056 338.581 Z  M 399.431 355.097 L 378.43 355.097 C 383.91 337.202 398.052 323.06 415.947 317.579 L 415.947 338.581 C 415.947 347.688 408.538 355.097 399.431 355.097 Z  M 256.002 184.721 C 216.698 184.721 184.722 216.697 184.722 256.001 C 184.722 295.305 216.698 327.282 256.002 327.282 C 295.306 327.282 327.283 295.305 327.283 256.001 C 327.283 216.697 295.306 184.721 256.002 184.721 L 256.002 184.721 Z  M 256.002 294.248 C 234.912 294.248 217.754 277.09 217.754 256 C 217.754 234.91 234.912 217.752 256.002 217.752 C 277.092 217.752 294.25 234.91 294.25 256 C 294.25 277.09 277.091 294.248 256.002 294.248 Z  M 187.292 58.548 C 187.292 49.427 194.686 42.032 203.809 42.032 L 282.645 42.032 L 277.807 37.194 C 271.356 30.745 271.356 20.287 277.807 13.837 C 284.257 7.387 294.714 7.387 301.164 13.837 L 334.19 46.863 C 338.607 51.276 340.264 57.954 338.05 64.119 C 336.371 68.805 337.034 67.389 301.164 103.259 C 297.939 106.484 293.712 108.097 289.486 108.097 C 274.906 108.097 267.371 90.337 277.808 79.903 L 282.645 75.065 L 203.809 75.065 C 194.686 75.065 187.292 67.67 187.292 58.548 L 187.292 58.548 Z  M 304.712 453.452 C 304.712 462.573 297.317 469.968 288.196 469.968 L 209.359 469.968 L 214.196 474.806 C 220.647 481.255 220.647 491.713 214.196 498.163 C 207.748 504.612 197.289 504.613 190.839 498.163 C 155.606 462.93 157.059 464.577 155.751 462.621 C 152.778 458.18 152.066 452.366 154.227 447.134 C 155.927 443.035 155.382 444.199 190.839 408.742 C 197.289 402.292 207.747 402.292 214.196 408.742 C 220.647 415.192 220.647 425.65 214.196 432.099 L 209.359 436.935 L 288.196 436.935 C 297.317 436.935 304.712 444.331 304.712 453.452 L 304.712 453.452 Z " fill="rgb(150,153,181)"/></g></svg>