<?xml version="1.0" encoding="utf-8"?>
<!-- Generator: Adobe Illustrator 24.0.1, SVG Export Plug-In . SVG Version: 6.00 Build 0)  -->
<svg version="1.1" id="Capa_1" xmlns="http://www.w3.org/2000/svg" xmlns:xlink="http://www.w3.org/1999/xlink" x="0px" y="0px"
	 viewBox="0 0 512 512" style="enable-background:new 0 0 512 512;" xml:space="preserve">
<style type="text/css">
	.st0{fill:#AEAEAF;}
</style>
<g>
	<path class="st0" d="M499.5,391.5v-31.8l-46.4-58.3l46.4-31.8V243l-46.5-37.2l46.5-53.2v-32.2H12.5v271.1H499.5z M268.5,180.7H374
		v30.1H268.5V180.7z M268.5,240.9H374v30.1H268.5V240.9z M138,331v30.4h-30.1v-30.1H77.8v-30.1H133c8.3,0,15.1-6.8,15.1-15.1
		c0-8.3-6.8-15.1-15.1-15.1H118c-24.9,0-45.2-20.3-45.2-45.2c0-21.5,15-39.5,35.1-44v-31.3H138v30.1h25.1v30.1H118
		c-8.3,0-15.1,6.8-15.1,15.1c0,8.3,6.8,15.1,15.1,15.1H133c24.9,0,45.2,20.3,45.2,45.2C178.2,309.3,160.6,328.5,138,331z
		 M238.4,331.3h-30.1v-30.1h30.1V331.3z M238.4,271.1h-30.1v-30.1h30.1V271.1z M238.4,210.8h-30.1v-30.1h30.1V210.8z M268.5,301.2
		H374v30.1H268.5V301.2z"/>
	<path class="st0" d="M313.7,53.4c0-29.5-24-53.4-53.4-53.4h-7.3l-1.8,2.8l-34.4,57.4H109.4L74.7,2.3L73.4,0H66
		C36.5,0,12.5,24,12.5,53.4v36.9h301.2L313.7,53.4z"/>
	<path class="st0" d="M199.8,30.1L217.9,0H108.4l18.1,30.1H199.8z"/>
	<path class="st0" d="M12.5,421.6v36.9c0,29.5,24,53.4,53.4,53.4h194.3c29.5,0,53.4-24,53.4-53.4v-36.9H12.5z M193.3,481.9H133
		v-30.1h60.2V481.9z"/>
</g>
</svg>
