<svg width="150" height="140" viewBox="0 0 150 140" fill="none" xmlns="http://www.w3.org/2000/svg">
<path d="M111 33.5629C111 27.5977 106.216 22.7421 100.251 22.6466L50.352 22.5572C44.3153 22.5572 39.4179 27.4546 39.4179 33.4913V107.06C39.4179 113.103 44.3153 118 50.352 118H100.06C106.103 118 111 113.103 111 107.066V33.5629ZM62.8014 59.3444H59.777C55.1301 59.3444 51.3482 55.5625 51.3482 50.9156C51.3482 46.734 54.3606 43.2981 58.3096 42.5942V39.4625C58.3096 37.8161 59.6458 36.4799 61.2922 36.4799C62.9386 36.4799 64.2748 37.8161 64.2748 39.4625V42.4451H68.2535C69.8999 42.4451 71.2361 43.7813 71.2361 45.4276C71.2361 47.074 69.8999 48.4102 68.2535 48.4102H59.783C58.4229 48.4102 57.3194 49.5198 57.3194 50.8739C57.3194 52.2697 58.4289 53.3792 59.783 53.3792H62.8073C67.4542 53.3792 71.2361 57.1612 71.2361 61.808C71.2361 65.9896 68.2237 69.4256 64.2748 70.1295V73.2612C64.2748 74.9076 62.9386 76.2438 61.2922 76.2438C59.6458 76.2438 58.3096 74.9076 58.3096 73.2612V70.2786H54.3308C52.6844 70.2786 51.3482 68.9424 51.3482 67.296C51.3482 65.6496 52.6844 64.3134 54.3308 64.3134H62.8014C64.1614 64.3134 65.265 63.2039 65.265 61.8498C65.265 60.448 64.1614 59.3444 62.8014 59.3444V59.3444ZM96.0871 106.07H54.3308C52.6844 106.07 51.3482 104.733 51.3482 103.087C51.3482 101.441 52.6844 100.104 54.3308 100.104H96.0871C97.7334 100.104 99.0696 101.441 99.0696 103.087C99.0696 104.733 97.7334 106.07 96.0871 106.07ZM96.0871 90.1605H54.3308C52.6844 90.1605 51.3482 88.8243 51.3482 87.1779C51.3482 85.5315 52.6844 84.1953 54.3308 84.1953H96.0871C97.7334 84.1953 99.0696 85.5315 99.0696 87.1779C99.0696 88.8243 97.7334 90.1605 96.0871 90.1605ZM96.0871 74.2574H82.1703C80.5239 74.2574 79.1877 72.9212 79.1877 71.2748C79.1877 69.6284 80.5239 68.2922 82.1703 68.2922H96.0871C97.7334 68.2922 99.0696 69.6284 99.0696 71.2748C99.0696 72.9212 97.7334 74.2574 96.0871 74.2574ZM99.0696 55.3656C99.0696 57.012 97.7334 58.3482 96.0871 58.3482H82.1703C80.5239 58.3482 79.1877 57.012 79.1877 55.3656C79.1877 53.7192 80.5239 52.383 82.1703 52.383H96.0871C97.7334 52.383 99.0696 53.7192 99.0696 55.3656Z" fill="#A91F23"/>
</svg>
