<svg width="150" height="140" viewBox="0 0 150 140" fill="none" xmlns="http://www.w3.org/2000/svg">
<path d="M101 82.4403C112.045 82.4403 120.998 73.4869 120.998 62.4423C120.998 51.3977 112.045 42.4443 101 42.4443C89.9554 42.4443 81.002 51.3977 81.002 62.4423C81.002 73.4869 89.9554 82.4403 101 82.4403Z" fill="#A91F23"/>
<path d="M99.9979 36.4924C97.4419 28.3804 89.9419 22.4404 81.0019 22.4404C69.9739 22.4404 61.0039 31.4104 61.0039 42.4384C61.0039 51.3784 66.9439 58.8844 75.0559 61.4344C75.5719 47.9044 86.4619 37.0144 99.9979 36.4924Z" fill="#A91F23"/>
<path d="M30.968 70.4464C29.876 70.4704 29 71.3584 29 72.4504V108.444C29 109.548 29.894 110.442 30.998 110.442H39.488C40.382 110.442 41.168 109.848 41.414 108.99L50.264 77.7964C50.834 75.7804 49.754 73.6624 47.786 72.9484C44.162 71.6224 38.6 70.3204 30.968 70.4464V70.4464Z" fill="#A91F23"/>
<path d="M117.002 92.4425C109.004 92.4425 93.0019 102.571 85.0039 102.571C77.0059 102.571 68 96.4385 68 96.4385C68 96.4385 78.776 98.4365 84.998 98.4365C91.22 98.4365 92.996 96.3125 92.996 93.4385C92.996 86.4365 81.104 85.3505 75.092 84.4385C69.188 81.1505 66.122 78.5525 56.342 77.7245C56.282 78.2945 56.192 78.8585 56.036 79.4285L48.002 107.749C57.104 111.883 72.776 118.441 81.0019 118.441C93.0019 118.441 125 102.439 125 98.4425C125 94.4405 121.004 92.4425 117.002 92.4425Z" fill="#A91F23"/>
</svg>
