<?xml version="1.0" encoding="utf-8"?>
<!-- Generator: Adobe Illustrator 24.0.1, SVG Export Plug-In . SVG Version: 6.00 Build 0)  -->
<svg version="1.1" id="Layer_1" xmlns="http://www.w3.org/2000/svg" xmlns:xlink="http://www.w3.org/1999/xlink" x="0px" y="0px"
	 viewBox="0 0 512 512" style="enable-background:new 0 0 512 512;" xml:space="preserve">
<style type="text/css">
	.st0{fill:#A91F23;}
</style>
<path class="st0" d="M474.6,384.6c4.7,0,8.6,3.8,8.6,8.5v75.7c0,23.6-19.1,42.7-42.7,42.7H42.7C19.1,511.5,0,492.4,0,468.8V150.9
	c0-23.6,19.1-42.7,42.7-42.7h397.9c23.6,0,42.7,19.1,42.7,42.7v75.7c0,4.7-3.8,8.6-8.6,8.5c-8.9,0-29.2,0-78.9,0
	c-28.3,0-51.2,22.9-51.2,51.2v46.9c0,28.3,22.9,51.2,51.2,51.2C446.2,384.5,465.9,384.6,474.6,384.6z M512,286.4v46.9
	c0,18.9-15.4,34.1-34.1,34.1h-82.2c-18.8,0-34.1-15.3-34.1-34.1v-46.9c0-18.8,15.3-34.1,34.1-34.1h82.1
	C496.7,252.3,512,267.6,512,286.4z M427.7,309.9c0-4.7-3.8-8.5-8.5-8.5h-12.8c-4.7,0-8.5,3.8-8.5,8.5c0,4.7,3.8,8.5,8.5,8.5h12.8
	C423.9,318.4,427.7,314.6,427.7,309.9z M406,54.9l-8-2.3c-3.3-1-7,0.2-9.1,2.9c-6.5,8.2-11.4,16.7-12.2,26.5c-0.4,5,3.5,9.2,8.5,9.2
	h36.4c5.3,0,9.4-4.8,8.4-10.1C427.6,69.1,418.8,58.6,406,54.9z M359.5,82.9c0.3-10.1,3.6-19.2,9-27.9c2.9-4.8,0.5-11-4.9-12.6
	l-54.1-15.9c-5.2-1.5-10.8,2.3-10.8,8.2v48c0,4.7,3.8,8.5,8.5,8.5H351C355.6,91.2,359.3,87.5,359.5,82.9z M149.3,91.2h11.7
	c4.7,0,8.5-3.8,8.5-8.5V9.1c0-4.7-3.8-8.5-8.5-8.5h-11.7c-4.7,0-8.5,3.8-8.5,8.5v73.6C140.8,87.4,144.6,91.2,149.3,91.2z M247.5,0.5
	h-52.3c-4.7,0-8.5,3.8-8.5,8.5v73.6c0,4.7,3.8,8.5,8.5,8.5h77.9c4.7,0,8.5-3.8,8.5-8.5v-48C281.6,15.8,266.3,0.5,247.5,0.5
	L247.5,0.5z M115.2,0.5h-11.7c-18.9,0-34.1,15.3-34.1,34.1v48c0,4.7,3.8,8.5,8.5,8.5h37.3c4.7,0,8.5-3.8,8.5-8.5V9.1
	C123.7,4.4,119.9,0.5,115.2,0.5z"/>
</svg>
