<svg width="150" height="140" viewBox="0 0 150 140" fill="none" xmlns="http://www.w3.org/2000/svg">
<path d="M105.43 87.667C96.3419 87.667 88.9461 80.2634 88.9461 71.1656C88.9461 62.0678 96.3419 54.6642 105.43 54.6642H114.589V50.0823C114.589 44.5214 110.073 40 104.518 40H44.0771C38.5166 39.9945 34 44.5159 34 50.0768V95.9122C34 101.479 38.5166 106 44.0716 106H104.512C110.067 106 114.584 101.479 114.584 95.9177V87.667H105.43Z" fill="#A91F23"/>
<path d="M118.253 59.25H104.516C98.4551 59.25 93.5263 64.3891 93.5263 70.7083C93.5263 77.0276 98.4551 82.1667 104.516 82.1667H118.253C119.769 82.1667 121 80.8833 121 79.3021V62.1146C121 60.5333 119.769 59.25 118.253 59.25ZM104.516 74.524C102.494 74.524 100.851 72.8167 100.851 70.7026C100.851 68.5885 102.494 66.887 104.516 66.887C106.538 66.887 108.181 68.5943 108.181 70.7083C108.181 72.8224 106.538 74.524 104.516 74.524Z" fill="#A91F23"/>
</svg>
