<?xml version="1.0" encoding="utf-8"?>
<!-- Generator: Adobe Illustrator 24.0.1, SVG Export Plug-In . SVG Version: 6.00 Build 0)  -->
<svg version="1.1" id="Layer_1" xmlns="http://www.w3.org/2000/svg" xmlns:xlink="http://www.w3.org/1999/xlink" x="0px" y="0px"
	 viewBox="0 0 290 116" style="enable-background:new 0 0 290 116;" xml:space="preserve">
<style type="text/css">
	.st0{opacity:0;}
	.st1{fill:#F2F2F2;}
	.st2{opacity:0.85;}
	.st3{fill:#E2E2E2;}
	.st4{fill:#EDEDED;}
</style>
<g class="st0">
	<rect class="st1" width="290" height="116"/>
</g>
<g class="st2">
	<path class="st3" d="M269.7,39H2.8c-1.3,0-2.3-1-2.3-2.3V6.3C0.5,5,1.5,4,2.8,4h266.9c1.3,0,2.3,1,2.3,2.3v30.4
		C272,38,271,39,269.7,39z"/>
</g>
<g class="st2">
	<path class="st4" d="M287.7,111H2.8c-1.3,0-2.3-1-2.3-2.3V56c0-1.3,1-2.3,2.3-2.3h284.9c1.3,0,2.3,1,2.3,2.3v52.7
		C290,110,289,111,287.7,111z"/>
</g>
</svg>
