<?xml version="1.0" encoding="UTF-8" standalone="no"?><!-- Generator: Gravit.io --><svg xmlns="http://www.w3.org/2000/svg" xmlns:xlink="http://www.w3.org/1999/xlink" style="isolation:isolate" viewBox="0 0 351.9 396.01" width="351.9pt" height="396.01pt"><defs><clipPath id="_clipPath_n1UdhwV10egiCVMxnyEb53tAHIbB1a7i"><rect width="351.9" height="396.01"/></clipPath></defs><g clip-path="url(#_clipPath_n1UdhwV10egiCVMxnyEb53tAHIbB1a7i)"><g opacity="0.18"><path d=" M 349.75 142.14 C 354.857 162.367 350.761 183.818 338.56 200.74 C 329.56 212.99 316.73 222.15 308.74 235.05 C 291.47 262.9 300.74 300.93 284.9 329.62 C 271.66 353.62 244.23 365.41 218.76 375.53 C 198.76 383.47 178.56 391.46 157.36 394.66 C 136.16 397.86 113.36 395.83 94.99 384.8 C 79.84 375.73 68.71 361.35 58.43 346.99 C 33.16 311.66 10.32 273.19 2.56 230.45 C -5.2 187.71 4.48 139.77 36.3 110.2 C 51.79 95.8 72.08 85.87 83.01 67.76 C 94.48 48.76 94.64 22.25 112.47 9.01 C 119.05 4.12 127.23 1.85 135.35 0.77 C 154.899 -1.746 174.74 2.07 191.96 11.66 C 209.43 21.45 223.77 37.01 242.8 43.27 C 267.43 51.38 299.04 45.15 315.41 69.15 C 328.56 88.45 343.91 119.66 349.75 142.14 Z " fill="rgb(245,144,3)"/></g><path d=" M 244.95 128.48 C 244.664 129.083 244.275 129.631 243.8 130.1 C 239.989 134.126 235.055 136.913 229.64 138.1 C 227.728 138.54 225.772 138.762 223.81 138.76 C 222.66 131.34 221.49 123.91 220.59 116.46 L 220.59 116.46 C 219.88 110.64 219.35 104.83 219.1 98.99 C 218.93 95.33 211 82.57 212.62 79.15 C 214.41 75.39 227.3 88.26 228.75 90.71 C 236.8 104.21 239.69 114.65 245.21 126.26 C 245.419 127.005 245.326 127.803 244.95 128.48 L 244.95 128.48 Z " fill="rgb(245,144,3)"/><path d=" M 230.94 136.74 C 230.554 137.242 230.118 137.705 229.64 138.12 C 227.728 138.56 225.772 138.782 223.81 138.78 C 222.66 131.36 221.49 123.93 220.59 116.48 L 220.59 116.48 Q 221.1 107.7 222.44 98.99 C 222.06 101.42 225.05 106.72 225.86 109.1 L 229.37 119.47 C 231.2 124.88 235.11 131.46 230.94 136.74 Z " fill="rgb(40,43,78)"/><path d=" M 226.63 149.43 C 227.43 154.31 228.45 159.25 230.86 163.57 C 232.1 165.79 233.95 167.97 236.46 168.36 C 237.856 168.492 239.263 168.283 240.56 167.75 C 243.248 166.825 245.783 165.504 248.08 163.83 C 250.275 162.147 252.344 160.305 254.27 158.32 C 257.135 155.616 259.786 152.694 262.2 149.58 C 263.31 148.08 264.32 146.5 265.53 145.07 C 270.53 139.12 278.53 136.45 284.2 131.14 C 285.73 129.72 288.83 123.22 288.6 121.14 C 286.52 119.94 282.25 124.77 279.95 125.47 C 277.65 126.17 275.5 127.31 273.19 127.96 C 270.424 128.731 267.505 128.769 264.72 128.07 C 263.78 127.83 262.66 113 261.72 113.34 C 261.247 113.538 260.823 113.839 260.48 114.22 C 258.54 116.22 257.48 133.29 255.87 135.51 C 253.66 138.51 250.6 140.79 247.57 142.97 C 247.3 143.16 246.96 143.36 246.66 143.21 C 246.46 143.061 246.33 142.837 246.3 142.59 C 245.51 139.66 244.62 136.75 243.65 133.88 C 242.97 131.88 242.01 129.68 240 129.08 C 238.21 128.55 236.35 129.56 234.75 130.53 C 232.69 131.79 230.61 133.03 228.56 134.3 C 227.42 135 226.04 135.68 225.5 136.97 C 224.84 138.52 225.4 140.66 225.59 142.25 C 225.89 144.66 226.24 147.05 226.63 149.43 Z " fill="rgb(245,188,186)"/><path d=" M 244.88 285.44 C 244.88 288.5 244.73 291.51 244.46 294.5 C 239.615 347.641 193.977 387.663 140.659 385.531 C 87.34 383.398 45.045 339.858 44.46 286.5 C 44.46 286.16 44.46 285.83 44.46 285.5 C 44.1 249.458 63.122 215.999 94.276 197.873 C 125.431 179.747 163.919 179.747 195.074 197.873 C 226.228 215.999 245.25 249.458 244.89 285.5 L 244.88 285.44 Z " fill="rgb(245,144,3)"/><linearGradient id="_lgradient_0" x1="0" y1="0.5" x2="0.8161576288092685" y2="-0.0778293216309055" gradientTransform="matrix(200.44,0,0,135.861,44.455,184.229)" gradientUnits="userSpaceOnUse"><stop offset="0%" stop-opacity="1" style="stop-color:rgb(40,43,78)"/><stop offset="47.91666666666667%" stop-opacity="1" style="stop-color:rgb(40,43,78)"/><stop offset="100%" stop-opacity="1" style="stop-color:rgb(40,43,78)"/></linearGradient><path d=" M 244.88 285.44 C 244.88 288.5 244.73 291.51 244.46 294.5 C 221.4 310.19 187.46 320.09 149.61 320.09 C 105.61 320.09 66.95 306.72 44.46 286.45 C 44.46 286.11 44.46 285.78 44.46 285.45 C 44.1 249.408 63.122 215.949 94.276 197.823 C 125.431 179.697 163.919 179.697 195.074 197.823 C 226.228 215.949 245.25 249.408 244.89 285.45 L 244.88 285.44 Z " fill="url(#_lgradient_0)"/><path d=" M 190.62 246.26 C 194.62 247.7 198.97 248.73 202.25 251.46 C 205.16 253.87 206.93 257.36 208.36 260.85 C 213.128 272.562 214.848 285.292 213.36 297.85 C 212.96 301.19 212.36 304.63 213.23 307.85 C 214.1 311.07 217.07 314.09 220.41 313.69 C 225.04 304.49 225.14 293.75 225.15 283.45 C 225.15 275.93 225.15 268.25 222.63 261.16 C 220.57 255.32 216.93 250.16 213.17 245.25 C 199.46 227.25 182.87 210.46 161.75 202.37 C 160.874 201.922 159.868 201.798 158.91 202.02 C 154.56 203.61 155.27 211.35 156.96 214.46 C 159.36 218.756 162.032 222.895 164.96 226.85 C 171.383 235.737 180.32 242.497 190.62 246.26 L 190.62 246.26 Z " fill="rgb(34,36,57)"/><linearGradient id="_lgradient_1" x1="0" y1="0.5" x2="0.6712225457868917" y2="1.2412558897083814" gradientTransform="matrix(27.776,0,0,48.972,134.607,183.901)" gradientUnits="userSpaceOnUse"><stop offset="100%" stop-opacity="1" style="stop-color:rgb(0,0,0)"/><stop offset="100%" stop-opacity="1" style="stop-color:rgb(0,0,0)"/><stop offset="100%" stop-opacity="1" style="stop-color:rgb(0,0,0)"/></linearGradient><path d=" M 151.07 223.66 C 151.129 222.314 151.303 220.976 151.59 219.66 C 151.904 218.329 152.934 217.283 154.26 216.95 C 154.809 216.935 155.357 216.885 155.9 216.8 C 157.01 216.46 157.48 215.17 157.8 214.06 L 161.35 201.66 C 162.03 199.26 162.72 196.74 162.2 194.31 C 161.38 190.51 157.89 187.94 154.49 186.08 C 152.02 184.72 149.24 183.51 146.49 184.02 C 142.23 184.81 139.76 189.21 138.17 193.24 C 136.32 197.558 135.181 202.148 134.8 206.83 C 134.52 212.24 134.06 225.49 137.41 230.22 C 142.05 236.86 150.33 229.66 151.07 223.66 Z " fill="url(#_lgradient_1)"/><path d=" M 205.01 208.01 C 214.08 211.08 223.75 212.37 232.49 216.28 C 233.059 216.452 233.531 216.855 233.79 217.39 C 233.866 217.823 233.811 218.269 233.63 218.67 C 226.249 240.621 222.086 263.526 221.27 286.67 C 226.5 287.611 231.844 287.729 237.11 287.02 C 237.702 286.983 238.275 286.801 238.78 286.49 C 239.265 286.065 239.631 285.52 239.84 284.91 Q 252.53 256.42 262.62 226.86 C 263.81 223.37 264.99 219.72 264.51 216.06 C 263.82 210.73 259.81 206.53 256 202.74 L 226.31 173.12 C 225.555 172.269 224.628 171.587 223.59 171.12 C 222.396 170.765 221.133 170.703 219.91 170.94 C 208.2 172.39 192.21 172.84 170.69 171.94 C 167.9 171.82 181.69 187.71 182.84 190.76 C 183.76 193.18 186.67 196.3 188.45 198.18 C 192.91 202.86 198.93 205.95 205.01 208.01 Z " fill="rgb(82,82,99)"/><path d=" M 205.01 208.01 C 214.08 211.08 223.75 212.37 232.49 216.28 C 233.059 216.452 233.531 216.855 233.79 217.39 C 233.866 217.823 233.811 218.269 233.63 218.67 C 226.249 240.621 222.086 263.526 221.27 286.67 C 226.5 287.611 231.844 287.729 237.11 287.02 C 237.702 286.983 238.275 286.801 238.78 286.49 C 239.265 286.065 239.631 285.52 239.84 284.91 Q 252.53 256.42 262.62 226.86 C 263.81 223.37 264.99 219.72 264.51 216.06 C 263.82 210.73 259.81 206.53 256 202.74 L 226.31 173.12 C 225.555 172.269 224.628 171.587 223.59 171.12 C 222.396 170.765 221.133 170.703 219.91 170.94 C 208.2 172.39 192.21 172.84 170.69 171.94 C 167.9 171.82 181.69 187.71 182.84 190.76 C 183.76 193.18 186.67 196.3 188.45 198.18 C 192.91 202.86 198.93 205.95 205.01 208.01 Z " fill="rgb(40,43,78)"/><path d=" M 219.75 299.8 C 219.022 300.934 218.528 302.202 218.3 303.53 C 217.767 305.854 217.373 308.209 217.12 310.58 C 216.92 312.42 216.85 314.42 217.9 315.93 C 218.95 317.44 220.68 317.99 222.3 318.62 C 226.378 320.298 230.34 322.246 234.16 324.45 C 236.74 325.87 239.43 327.34 242.37 327.45 C 245.31 327.56 248.56 325.95 249.23 323.09 C 249.462 321.713 249.345 320.3 248.89 318.98 C 247.285 313.242 244.137 308.054 239.79 303.98 C 239.028 303.236 238.178 302.588 237.26 302.05 C 236.379 301.595 235.458 301.22 234.51 300.93 C 231.839 299.953 229.102 299.168 226.32 298.58 C 223.89 298.19 221.43 297.47 219.75 299.8 Z " fill="rgb(46,46,63)"/><linearGradient id="_lgradient_2" x1="0" y1="0.5" x2="0.9740350511526963" y2="0.726397259537222" gradientTransform="matrix(32.346,0,0,29.294,217,298.161)" gradientUnits="userSpaceOnUse"><stop offset="100%" stop-opacity="1" style="stop-color:rgb(0,0,0)"/><stop offset="100%" stop-opacity="1" style="stop-color:rgb(0,0,0)"/><stop offset="100%" stop-opacity="1" style="stop-color:rgb(0,0,0)"/></linearGradient><path d=" M 219.75 299.8 C 219.022 300.934 218.528 302.202 218.3 303.53 C 217.767 305.854 217.373 308.209 217.12 310.58 C 216.92 312.42 216.85 314.42 217.9 315.93 C 218.95 317.44 220.68 317.99 222.3 318.62 C 226.378 320.298 230.34 322.246 234.16 324.45 C 236.74 325.87 239.43 327.34 242.37 327.45 C 245.31 327.56 248.56 325.95 249.23 323.09 C 249.462 321.713 249.345 320.3 248.89 318.98 C 247.285 313.242 244.137 308.054 239.79 303.98 C 239.028 303.236 238.178 302.588 237.26 302.05 C 236.379 301.595 235.458 301.22 234.51 300.93 C 231.839 299.953 229.102 299.168 226.32 298.58 C 223.89 298.19 221.43 297.47 219.75 299.8 Z " fill="url(#_lgradient_2)"/><path d=" M 222.72 287.42 C 221.962 291.376 221.567 295.392 221.54 299.42 C 221.54 301.19 221.66 303.15 222.93 304.42 C 224.132 305.375 225.664 305.814 227.19 305.64 C 229.029 305.572 230.844 305.197 232.56 304.53 C 232.941 304.411 233.285 304.198 233.56 303.91 C 233.763 303.626 233.903 303.302 233.97 302.96 C 235.496 297.236 236.306 291.344 236.38 285.42 C 236.477 284.491 236.285 283.555 235.83 282.74 C 234.88 281.41 232.91 281.47 231.31 281.79 C 229.262 282.229 227.254 282.841 225.31 283.62 C 223.47 284.26 223.09 285.52 222.72 287.42 Z " fill="rgb(245,188,186)"/><path d=" M 242.44 306.22 C 243.163 307.997 243.751 309.825 244.2 311.69 C 244.51 313.14 244.69 314.69 245.62 315.85 C 246.8 317.3 248.85 317.67 250.72 317.7 C 252.261 317.787 253.802 317.527 255.23 316.94 C 255.973 316.649 256.594 316.112 256.99 315.42 C 257.268 314.736 257.364 313.992 257.27 313.26 C 257.124 308.179 255.857 303.194 253.56 298.66 C 252.243 296.317 250.759 294.071 249.12 291.94 C 248.602 290.982 247.73 290.264 246.69 289.94 C 245.61 289.902 244.56 290.302 243.78 291.05 C 242.13 292.29 238.5 294.36 238.88 296.71 C 239.36 299.84 241.32 303.25 242.44 306.22 Z " fill="rgb(245,188,186)"/><path d=" M 254.56 309.91 C 253.429 310.543 252.33 311.234 251.27 311.98 C 249.62 312.89 247.68 313.07 245.87 313.59 C 245.392 313.682 244.953 313.915 244.61 314.26 C 244.361 314.597 244.205 314.994 244.16 315.41 C 243.82 318.14 243.932 320.907 244.49 323.6 Q 245.87 332.34 247.71 341.01 C 248.22 343.39 248.83 345.9 250.56 347.61 C 252.29 349.32 254.92 349.91 257.38 349.98 C 259.682 350.112 261.981 349.683 264.08 348.73 C 267.462 346.919 269.834 343.664 270.52 339.89 C 271.171 336.144 270.712 332.289 269.2 328.8 C 268.173 326.414 266.977 324.105 265.62 321.89 Q 262.92 317.25 260.24 312.61 C 258.88 310.25 257.64 308.6 254.56 309.91 Z " fill="rgb(46,46,63)"/><linearGradient id="_lgradient_3" x1="0" y1="0.5" x2="1" y2="0.5" gradientTransform="matrix(26.84,0,0,40.556,243.968,309.447)" gradientUnits="userSpaceOnUse"><stop offset="100%" stop-opacity="1" style="stop-color:rgb(0,0,0)"/><stop offset="100%" stop-opacity="1" style="stop-color:rgb(0,0,0)"/><stop offset="100%" stop-opacity="1" style="stop-color:rgb(0,0,0)"/></linearGradient><path d=" M 254.56 309.91 C 253.429 310.543 252.33 311.234 251.27 311.98 C 249.62 312.89 247.68 313.07 245.87 313.59 C 245.392 313.682 244.953 313.915 244.61 314.26 C 244.361 314.597 244.205 314.994 244.16 315.41 C 243.82 318.14 243.932 320.907 244.49 323.6 Q 245.87 332.34 247.71 341.01 C 248.22 343.39 248.83 345.9 250.56 347.61 C 252.29 349.32 254.92 349.91 257.38 349.98 C 259.682 350.112 261.981 349.683 264.08 348.73 C 267.462 346.919 269.834 343.664 270.52 339.89 C 271.171 336.144 270.712 332.289 269.2 328.8 C 268.173 326.414 266.977 324.105 265.62 321.89 Q 262.92 317.25 260.24 312.61 C 258.88 310.25 257.64 308.6 254.56 309.91 Z " fill="url(#_lgradient_3)"/><path d=" M 133.4 126.87 C 132.525 129.072 131.94 131.378 131.66 133.73 C 130.709 139.821 130.101 145.961 129.84 152.12 C 129.34 163.88 130.1 175.66 129.77 187.42 C 129.43 199.65 127.99 212.33 132.39 223.74 C 133.075 225.811 134.232 227.693 135.77 229.24 C 137.352 230.787 139.621 231.407 141.77 230.88 C 143.709 230.133 145.188 228.525 145.77 226.53 C 146.321 224.559 146.564 222.515 146.49 220.47 L 146.65 209.29 C 146.65 209.06 146.65 208.79 146.88 208.69 C 147.076 208.622 147.293 208.664 147.45 208.8 C 148.31 209.543 149.128 210.335 149.9 211.17 C 150.79 211.89 152.21 212.24 153 211.41 C 153.442 210.821 153.613 210.072 153.47 209.35 C 152.99 204.51 148.77 201.02 146.26 196.85 C 142.64 190.85 142.64 183.29 143.55 176.31 C 144.68 167.57 147.04 159.04 149.39 150.54 L 151.39 143.35 C 152.9 137.89 154.39 131.93 152.19 126.7 C 150.398 122.626 146.768 119.653 142.42 118.7 C 138.24 117.93 134.91 123.47 133.4 126.87 Z " fill="rgb(245,188,186)"/><path d=" M 226.24 172.34 C 224.95 175.81 217.67 171.76 213.51 173.84 C 205.57 177.84 196.51 173.73 187.66 173.84 C 178.24 174.01 171.74 183.29 162.39 184.47 C 161.71 184.61 161.01 184.61 160.33 184.47 C 159.04 184.09 158.28 182.8 157.73 181.59 C 156.923 179.723 156.346 177.766 156.01 175.76 C 154.85 169.12 156.01 162 157.25 155.25 Q 158.81 146.67 160.36 138.08 Q 162.16 128.08 163.99 117.96 C 164.701 113.509 165.704 109.11 166.99 104.79 C 167.23 104.04 167.48 103.31 167.75 102.59 C 170.076 96.725 172.882 91.063 176.14 85.66 C 178.14 82.19 180.14 78.66 183.23 76.03 C 186.68 73.12 191.13 71.67 195.6 70.97 C 199.62 70.212 203.765 70.453 207.67 71.67 C 209.9 72.45 210.74 74.81 212.51 76.26 C 214.754 77.922 216.756 79.888 218.46 82.1 C 220.191 84.771 221.427 87.731 222.11 90.84 C 228.38 115.22 219.31 141.52 225.27 165.97 C 225.95 168.84 227.27 169.6 226.24 172.34 Z " fill="rgb(245,144,3)"/><path d=" M 217.72 86.7 L 218.5 91.81 L 215.5 90.14 L 215.5 103.68 L 212.08 88.64 L 215.39 83.82 L 217.72 86.7 L 217.72 86.7 Z " fill="rgb(61,61,84)"/><path d=" M 192.32 86.37 L 194.21 87.37 L 197.21 89.98 L 189.21 111.44 C 189.21 111.44 200.83 93.56 201.21 84.44 C 201.445 78.83 200.746 73.22 199.14 67.84 L 192.32 86.37 Z " fill="rgb(61,61,84)"/><path d=" M 166.7 147.88 C 166.065 152.793 166.065 157.767 166.7 162.68 C 167.11 165.77 167.77 168.85 167.56 171.95 C 167.57 172.556 167.376 173.147 167.01 173.63 C 166.54 174.012 165.964 174.239 165.36 174.28 Q 160.67 175.02 155.97 175.79 C 154.81 169.15 155.97 162.03 157.21 155.28 Q 158.77 146.7 160.32 138.11 Q 162.12 128.11 163.95 117.99 C 164.661 113.539 165.664 109.14 166.95 104.82 C 167.19 104.07 167.44 103.34 167.71 102.62 C 170.81 100.9 175.12 99.62 177.04 102.4 C 179.04 105.4 176.41 112.4 175.63 115.4 C 172.79 126.27 168.13 136.66 166.7 147.88 Z " fill="rgb(40,43,78)"/><path d=" M 238.63 61.18 C 238.734 62.424 238.697 63.675 238.52 64.91 C 238.312 66.178 237.253 67.133 235.97 67.21 C 232.85 66.98 230.6 69.97 228.12 71.89 C 224.153 74.862 218.858 75.368 214.4 73.2 C 213.498 72.876 212.5 73.315 212.13 74.2 C 211.818 75.082 211.749 76.032 211.93 76.95 L 213.08 87.89 C 213.3 90 213.32 92.58 211.53 93.72 C 209.74 94.86 207.62 93.87 206.14 92.58 C 203.813 90.343 202.131 87.521 201.27 84.41 C 197.292 71.587 200.375 57.617 209.38 47.66 C 211.042 45.803 212.99 44.223 215.15 42.98 C 217.411 41.806 219.84 40.987 222.35 40.55 C 224.596 40.02 226.919 39.891 229.21 40.17 C 232.287 40.729 235.085 42.312 237.15 44.66 C 238.67 46.32 240.15 51.27 241.75 52.08 C 240.56 55.1 238.68 57.77 238.63 61.18 Z " fill="rgb(245,188,186)"/><path d=" M 214.83 18.24 C 213.364 17.897 211.834 17.942 210.39 18.37 C 207.57 19.37 205.99 22.32 204.97 25.13 C 203.95 27.94 203.11 31.01 200.89 33 C 198.98 34.72 196.27 35.41 194.55 37.31 C 192.55 39.52 192.36 42.79 192.55 45.76 C 192.55 47.988 193.177 50.172 194.36 52.06 C 195.42 53.5 197.05 54.5 197.88 56.06 C 198.82 57.85 199.14 60.62 201.16 60.74 C 202.002 60.697 202.798 60.341 203.39 59.74 C 205.432 57.975 206.971 55.702 207.85 53.15 C 208.34 51.73 208.66 50.15 209.74 49.15 C 210.82 48.15 213.02 48.09 213.51 49.51 C 213.648 50.413 213.508 51.337 213.11 52.16 C 212.85 53.04 212.96 54.23 213.82 54.53 C 215.44 52.03 216.35 49.09 218.27 46.82 C 220.478 44.233 223.759 42.813 227.156 42.973 C 230.553 43.133 233.686 44.856 235.64 47.64 C 236.64 49.07 237.32 50.77 238.72 51.79 C 240.039 52.594 241.546 53.035 243.09 53.07 C 246.53 53.41 250.17 53.54 253.27 52.01 C 256.37 50.48 258.66 46.77 257.47 43.52 C 256.53 40.97 253.85 39.52 251.25 38.7 C 248.65 37.88 245.87 37.47 243.58 36.01 C 240.47 34.01 238.81 30.45 237 27.22 C 235.19 23.99 232.74 20.67 229.12 19.91 C 227.642 19.68 226.138 19.68 224.66 19.91 C 223.218 20.216 221.742 20.33 220.27 20.25 C 218.47 19.88 216.73 18.66 214.83 18.24 Z " fill="rgb(46,46,63)"/><path d=" M 214.83 100.41 C 217.114 111.978 217.787 123.807 216.83 135.56 C 216.04 145.34 214.16 155.05 214.23 164.86 C 214.377 167.619 214.293 170.385 213.98 173.13 C 213.54 175.85 195.3 174.81 192.64 174.78 C 188.16 174.72 193.84 180.78 190.47 177.86 C 185.18 173.25 182.82 166.06 182.17 159.08 C 181.24 149.13 183.28 139.17 185.5 129.42 C 187.04 122.67 188.68 115.9 191.44 109.55 C 194.86 101.7 200.27 91.71 202.01 83.32 C 202.26 82.09 198.01 77.62 199.84 77.68 C 201.03 77.68 200.47 79.53 200.68 80.45 C 201.055 81.851 201.773 83.136 202.77 84.19 C 204.165 85.819 206.054 86.946 208.15 87.4 C 209.5 87.65 211.04 87.59 212.02 88.55 C 213.21 89.71 213.02 91.97 213.36 93.55 C 213.85 95.81 214.37 98.1 214.83 100.41 Z " fill="rgb(242,242,242)"/><path d=" M 174.34 70.66 C 169.5 72.88 165.34 76.32 161.41 79.92 C 158.157 82.851 155.085 85.977 152.21 89.28 C 149.67 92.28 147.35 95.39 144.67 98.22 C 140.97 102.11 136.35 105.87 135.62 111.22 C 135.397 114.01 135.885 116.811 137.04 119.36 C 137.992 121.963 139.397 124.377 141.19 126.49 C 143.466 129.007 146.467 130.754 149.78 131.49 C 150.818 131.761 151.902 131.808 152.96 131.63 C 154.45 131.206 155.82 130.439 156.96 129.39 C 159.567 127.417 162.036 125.269 164.35 122.96 C 166.71 120.51 168.71 117.72 171.01 115.21 C 173.01 113.05 175.14 111.1 177.14 108.98 C 179.53 106.44 181.66 103.67 183.79 100.9 C 186.804 97.143 189.567 93.191 192.06 89.07 C 194.143 85.433 195.797 81.567 196.99 77.55 C 197.76 74.93 198.99 71.61 196.33 69.72 C 190.68 65.74 179.97 68.03 174.34 70.66 Z " fill="rgb(255,85,0)"/><path d=" M 174.34 70.66 C 169.5 72.88 165.34 76.32 161.41 79.92 C 158.157 82.851 155.085 85.977 152.21 89.28 C 149.67 92.28 147.35 95.39 144.67 98.22 C 140.97 102.11 136.35 105.87 135.62 111.22 C 135.397 114.01 135.885 116.811 137.04 119.36 C 137.992 121.963 139.397 124.377 141.19 126.49 C 143.466 129.007 146.467 130.754 149.78 131.49 C 150.818 131.761 151.902 131.808 152.96 131.63 C 154.45 131.206 155.82 130.439 156.96 129.39 C 159.567 127.417 162.036 125.269 164.35 122.96 C 166.71 120.51 168.71 117.72 171.01 115.21 C 173.01 113.05 175.14 111.1 177.14 108.98 C 179.53 106.44 181.66 103.67 183.79 100.9 C 186.804 97.143 189.567 93.191 192.06 89.07 C 194.143 85.433 195.797 81.567 196.99 77.55 C 197.76 74.93 198.99 71.61 196.33 69.72 C 190.68 65.74 179.97 68.03 174.34 70.66 Z " fill="rgb(245,144,3)"/><path d=" M 258.17 116.32 C 255.922 117.74 255.209 120.69 256.56 122.98 C 258.239 125.9 260.491 128.452 263.18 130.48 C 264.78 132.2 268.38 132.48 271.58 130.6 C 274.78 128.72 290.05 120.41 297.68 114.98 C 298.811 114.202 299.573 112.994 299.787 111.638 C 300 110.282 299.647 108.898 298.81 107.81 L 292.42 99.81 C 290.852 97.849 288.059 97.384 285.94 98.73 L 258.17 116.32 Z " fill="rgb(61,61,84)"/><line x1="158.06" y1="184.66" x2="157.83" y2="184.43"/><path d=" M 156.68 202.51 C 157.808 206.652 159.81 210.505 162.55 213.81 C 165.55 217.31 169.63 219.81 173.55 222.19 L 190.06 232.24 C 192.481 233.632 194.797 235.2 196.99 236.93 C 202.4 241.39 205.99 247.61 209.48 253.69 L 233.56 295.66 C 234.78 297.81 236.49 300.24 238.96 300.16 C 240.29 299.987 241.541 299.431 242.56 298.56 C 245.65 296.39 248.97 293.92 249.89 290.25 C 250.53 287.69 249.89 285 249.12 282.46 C 245.42 269.95 239.62 258.17 233.8 246.46 Q 219.93 218.66 205.65 190.97 C 203.12 186.07 200.05 178.44 195.87 174.84 C 195.87 174.84 157.03 172.48 156.05 176.33 C 153.867 184.951 154.085 194.004 156.68 202.51 L 156.68 202.51 Z " fill="rgb(82,82,99)"/><path d=" M 156.68 202.51 C 157.808 206.652 159.81 210.505 162.55 213.81 C 165.55 217.31 169.63 219.81 173.55 222.19 L 190.06 232.24 C 192.481 233.632 194.797 235.2 196.99 236.93 C 202.4 241.39 205.99 247.61 209.48 253.69 L 233.56 295.66 C 234.78 297.81 236.49 300.24 238.96 300.16 C 240.29 299.987 241.541 299.431 242.56 298.56 C 245.65 296.39 248.97 293.92 249.89 290.25 C 250.53 287.69 249.89 285 249.12 282.46 C 245.42 269.95 239.62 258.17 233.8 246.46 Q 219.93 218.66 205.65 190.97 C 203.12 186.07 200.05 178.44 195.87 174.84 C 195.87 174.84 157.03 172.48 156.05 176.33 C 153.867 184.951 154.085 194.004 156.68 202.51 L 156.68 202.51 Z " fill="rgb(40,43,78)"/><path d=" M 200.36 65.18 L 194.87 67.35 L 191.54 85.98 L 202.61 85.48 L 200.36 65.18 L 200.36 65.18 Z " fill="rgb(245,144,3)"/><path d=" M 211.98 85.03 C 211.98 85.87 211.98 86.71 211.98 87.55 C 211.98 87.914 212 88.278 212.04 88.64 C 212.1 89.007 212.18 89.371 212.28 89.73 L 213.66 95.17 L 214.23 86.33 C 215.86 87.12 217.53 87.84 219.23 88.47 C 219.102 87.145 218.764 85.849 218.23 84.63 C 217.23 82.07 216.31 79.5 215.23 76.99 C 214.978 76.32 214.612 75.697 214.15 75.15 C 213.677 74.6 212.974 74.304 212.25 74.35 C 211.25 74.77 211.88 78.52 211.89 79.35 L 211.98 85.03 Z " fill="rgb(245,144,3)"/><path d=" M 292.88 111.94 L 272.56 124.79 C 271.826 125.186 270.916 125.02 270.37 124.39 L 263.91 117.11 C 263.641 116.859 263.502 116.498 263.533 116.131 C 263.564 115.764 263.762 115.432 264.07 115.23 L 284.43 102.39 C 285.164 101.994 286.074 102.16 286.62 102.79 L 293.08 110.06 C 293.345 110.317 293.477 110.682 293.438 111.049 C 293.399 111.416 293.193 111.745 292.88 111.94 Z " fill="rgb(255,255,255)"/></g></svg>