<svg width="150" height="140" viewBox="0 0 150 140" fill="none" xmlns="http://www.w3.org/2000/svg">
<path d="M102.838 88.8554H51.7706C47.6834 88.8554 44.3573 85.5293 44.3573 81.4421V52.5648L36.3658 82.3663C35.3378 86.2904 37.6804 90.3628 41.6095 91.4451L92.5586 105.091C93.1913 105.259 93.8239 105.333 94.4466 105.333C97.7282 105.333 100.733 103.143 101.598 99.8469L104.632 88.6133C104.054 88.7566 103.461 88.8554 102.838 88.8554V88.8554Z" fill="#A91F23"/>
<path fill-rule="evenodd" clip-rule="evenodd" d="M52.5627 38.6673C49.249 38.6673 46.5627 41.3536 46.5627 44.6673V79.7086C46.5627 83.0223 49.249 85.7086 52.5627 85.7086H107.876C111.19 85.7086 113.876 83.0223 113.876 79.7086V44.6673C113.876 41.3536 111.19 38.6673 107.876 38.6673H52.5627ZM72.2047 61.0425C75.366 61.0425 77.9286 58.4799 77.9286 55.3186C77.9286 52.1574 75.366 49.5948 72.2047 49.5948C69.0434 49.5948 66.4808 52.1574 66.4808 55.3186C66.4808 58.4799 69.0434 61.0425 72.2047 61.0425ZM79.4346 51.884H90.5234C92.4177 51.884 93.9581 53.4244 93.9581 55.3186C93.9581 56.2389 93.6025 57.1031 92.9552 57.7504C92.3078 58.3978 91.4437 58.7533 90.5234 58.7533H79.4346C79.9327 57.711 80.2194 56.5484 80.2194 55.3186C80.2194 54.0889 79.9327 52.9263 79.4346 51.884ZM80.2195 69.0573C80.2195 67.8275 80.5062 66.6649 81.0043 65.6226H69.9155C68.0212 65.6226 66.4808 67.163 66.4808 69.0573C66.4808 69.9776 66.8364 70.8417 67.4837 71.489C68.1311 72.1364 68.9952 72.4919 69.9155 72.4919H81.0043C80.5062 71.4496 80.2195 70.287 80.2195 69.0573ZM88.2342 74.7811C91.3955 74.7811 93.9581 72.2186 93.9581 69.0573C93.9581 65.896 91.3955 63.3334 88.2342 63.3334C85.073 63.3334 82.5104 65.896 82.5104 69.0573C82.5104 72.2186 85.073 74.7811 88.2342 74.7811Z" fill="#A91F23"/>
</svg>
