<svg width="71" height="71" viewBox="0 0 71 71" fill="none" xmlns="http://www.w3.org/2000/svg">
<path d="M57.2233 70.4286H13.2054C5.9149 70.4286 0 64.5137 0 57.2233V13.2054C0 5.9149 5.9149 0 13.2054 0H57.2233C64.5137 0 70.4286 5.9149 70.4286 13.2054V57.2233C70.4286 64.5137 64.5137 70.4286 57.2233 70.4286Z" fill="#EBF4F7"/>
<path d="M50.332 22.8751C50.0569 22.71 49.713 22.6963 49.4241 22.8476C49.1352 22.9989 48.9426 23.274 48.9014 23.5904C48.8739 23.9068 48.8188 24.2094 48.7501 24.5395C46.8931 32.9992 43.1515 37.1121 37.3054 37.1121H28.7494C28.2955 37.1121 27.9104 37.4285 27.8141 37.8687L24.9667 51.2529L24.4577 54.6643C24.1688 56.2186 25.1867 57.7042 26.7274 57.9931C26.8924 58.0206 27.0713 58.0481 27.2501 58.0481H32.9724C34.2792 58.0481 35.4347 57.154 35.7373 55.8747L38.0482 46.631H43.014C48.8739 46.631 52.918 41.9541 54.4174 33.4806C55.4078 29.4365 53.7709 25.2135 50.332 22.8751Z" fill="#03A9F4"/>
<path d="M48.5298 15.7766C46.6453 13.6445 43.9492 12.4065 41.1156 12.379H25.3517C22.9995 12.3652 20.9911 14.0847 20.6473 16.4231L15.7503 49.0652C15.5164 50.6195 16.5894 52.0776 18.1437 52.3115C18.2813 52.339 18.4326 52.339 18.5702 52.339H25.8744C26.3283 52.339 26.7135 52.0226 26.8098 51.5824L29.5059 39.0236H37.3053C44.073 39.0236 48.5436 34.2916 50.6069 24.9378C50.6895 24.5664 50.7582 24.195 50.7995 23.8099C51.281 20.9212 50.4556 17.9775 48.5298 15.7766Z" fill="#283593"/>
</svg>
