<svg width="110" height="112" viewBox="0 0 110 112" fill="none" xmlns="http://www.w3.org/2000/svg">
<path d="M26.823 7.6909C23.0674 12.9675 27.3153 21.6312 21.7834 25.5711C16.3985 29.4062 9.90026 22.9581 4.82871 26.2548C-2.69474 31.1451 -1.56869 53.898 9.20665 68.1412C12.4471 72.4246 15.1747 74.1067 16.34 78.9246C18.8423 89.27 9.60358 95.3108 11.2959 100.432C15.1066 111.964 75.4624 122.244 100.082 87.9683C111.581 71.9602 113.52 48.6896 103.583 30.895C85.6269 -1.25968 35.2499 -4.1487 26.823 7.6909Z" fill="#F7F7F7"/>
<path d="M51.6778 47.5327L38.5068 0C18.2477 6.66015 3.34857 26.3595 3.23682 49.6737L51.6778 47.5327Z" fill="#EAEAEA"/>
<path d="M15.981 52.5138C16.7409 63.5215 21.9068 73.1577 29.6406 79.5943L50.4137 50.8984L15.981 52.5138Z" fill="#EAEAEA"/>
<path d="M54.5989 45.8701C62.4674 37.9098 71.8773 28.3696 79.2951 20.815C72.7185 14.2586 63.7593 10.2168 53.8177 10.2188C50.7839 10.2194 47.8272 10.5967 44.989 11.309L54.5989 45.8701Z" fill="#EAEAEA"/>
<path d="M56.2454 48.8077L84.4483 69.9239C88.3304 63.7312 90.5898 56.3527 90.5898 48.4686C90.5898 38.7457 87.1524 29.8992 81.4681 23.1719C79.4238 25.2576 77.146 27.5782 74.6439 30.1243C67.0262 37.8758 59.313 45.6979 56.2454 48.8077Z" fill="#EAEAEA"/>
<path d="M55.416 52.3203L55.9695 87.7961C66.8027 86.8019 76.3111 81.0365 82.599 72.6258L55.416 52.3203Z" fill="#EAEAEA"/>
<path d="M52.2382 53.8789L32.2305 81.5632C38.1137 85.6368 45.1816 87.9771 52.7703 87.9472L52.2382 53.8789Z" fill="#EAEAEA"/>
<path d="M61.1638 38.2298C61.4407 37.8632 61.8591 37.2781 61.8796 36.9608C61.9001 36.6434 62.3438 37.0793 62.0298 37.7892C61.9354 38.0026 61.9529 38.0849 62.003 38.149C62.1461 38.3321 62.637 37.9428 62.9747 38.1268C63.3127 38.311 63.4388 39.0374 63.1383 39.3949C62.9164 39.6588 62.5752 39.4658 62.1832 39.6537C61.869 39.8043 61.947 40.184 61.7961 41.153C61.4839 41.1381 60.7868 41.6679 60.6707 41.3768C60.2248 40.2579 60.887 38.5964 61.1638 38.2298Z" fill="url(#paint0_linear)"/>
<path d="M60.4129 40.7511C61.0522 40.7064 61.6912 40.6616 62.3305 40.6168C63.8384 46.732 62.7568 52.6641 59.3535 54.8456C54.0363 58.2541 44.1546 51.8324 42.0132 44.8402C41.0732 41.7711 41.2872 37.3418 43.1658 36.4813C43.6872 36.2423 44.4963 36.2053 46.2495 37.193C51.4849 40.143 51.6225 45.7184 54.2839 46.1905C55.4673 46.4006 57.3782 45.6433 60.4129 40.7511Z" fill="url(#paint1_linear)"/>
<path d="M33.5739 104.273C33.3534 104.476 33.3395 104.951 33.3304 105.262C33.3263 105.401 33.3243 105.47 33.3426 105.518C33.4763 105.867 34.1654 105.862 35.2493 105.906C36.9622 105.977 37.4769 106.08 37.5948 105.818C37.7051 105.572 37.3793 105.2 37.3427 105.159C37.1457 104.939 36.9161 104.869 36.4733 104.752C35.6541 104.536 35.1026 104.424 34.9357 104.39C33.893 104.178 33.7187 104.139 33.5739 104.273Z" fill="url(#paint2_linear)"/>
<path d="M34.7753 102.555L34.8421 104.511C34.7887 104.603 34.1968 104.854 33.7516 104.588L33.4155 102.65L34.7753 102.555Z" fill="url(#paint3_linear)"/>
<path d="M48.0024 104C47.7079 104.293 47.6143 104.857 47.8413 105.15C48.0643 105.438 48.4328 105.251 49.4449 105.335C50.529 105.426 50.7988 105.699 51.5476 105.534C51.8502 105.467 52.3873 105.295 52.3887 105.081C52.3897 104.93 52.1258 104.838 51.2465 104.489C49.9985 103.994 50.0053 103.971 49.7378 103.911C49.066 103.762 48.3914 103.613 48.0024 104Z" fill="url(#paint4_linear)"/>
<path d="M48.7927 102.262L49.2406 104.109C49.1942 104.204 48.6233 104.5 48.159 104.269L47.4441 102.46L48.7927 102.262Z" fill="url(#paint5_linear)"/>
<path d="M46.0723 62.1758C45.8252 68.2905 45.8751 75.1832 46.4749 82.701C47.0676 90.1312 48.0937 96.8711 49.288 102.813C48.5831 102.964 47.8783 103.114 47.1734 103.265C45.4982 101.52 43.4124 98.8043 42.5346 95.0768C41.9898 92.7633 42.2741 91.6047 42.0007 88.7804C41.5654 84.2834 40.3272 81.8733 39.1104 78.2006C38.0169 74.9003 36.7734 70.0762 36.3088 63.692C39.5634 63.1866 42.8179 62.6812 46.0723 62.1758Z" fill="url(#paint6_linear)"/>
<path opacity="0.3" d="M45.0988 90.7557C44.3226 87.6709 42.8274 86.8553 42.7742 83.9435C42.7365 81.8839 43.474 81.7155 43.4251 79.7441C43.3509 76.7538 41.6054 75.1859 40.7285 73.305C39.8024 71.3185 39.4476 68.1277 41.9435 62.8203C40.0653 63.112 38.1871 63.4037 36.3088 63.6954C36.7734 70.0795 38.0169 74.9037 39.1104 78.204C40.3272 81.8767 41.5654 84.2868 42.0007 88.7837C42.2741 91.608 41.9898 92.7666 42.5346 95.0801C43.4125 98.8076 45.4982 101.524 47.1734 103.268C47.3527 103.23 47.532 103.192 47.7112 103.153C45.9003 100.984 45.2613 99.0467 45.0988 97.4747C44.8344 94.9172 45.8813 93.866 45.0988 90.7557Z" fill="url(#paint7_linear)"/>
<path d="M39.0272 61.7958C38.1884 69.5445 37.4173 77.4419 36.7237 85.484C36.203 91.5189 35.7394 97.4799 35.3289 103.365C34.6144 103.415 33.8999 103.465 33.1854 103.515C32.5677 102.196 31.761 100.188 31.2706 97.6435C30.6749 94.5528 30.9468 92.7509 30.7826 89.572C30.5983 86.0065 30.0976 85.2051 29.376 80.6812C27.9112 71.4999 27.1788 66.9093 29.5018 64.2026C30.2557 63.3238 32.5892 61.1432 39.0272 61.7958Z" fill="url(#paint8_linear)"/>
<path d="M21.8247 39.3436C24.6619 37.533 27.2042 36.1211 30.2308 35.4499C32.9186 34.8539 34.9545 35.043 37.4739 35.235C42.3532 35.607 45.4038 35.8396 47.4064 38.1457C49.1775 40.1853 49.216 42.8323 49.2282 43.3958C49.2772 45.6654 48.3976 46.8234 47.7513 48.7045C46.7111 51.7319 47.7638 52.2991 48.0691 60.3482C48.0691 60.3482 48.3724 69.8976 45.9479 71.3519C44.9104 71.9742 44.0256 74.1139 38.7312 73.5872C35.181 73.2341 34.0264 73.1686 32.2285 73.7792C29.7803 74.6105 28.8134 73.0168 27.8035 72.5627C26.835 72.1271 26.7116 70.4491 26.5947 67.5234C26.4143 63.0103 26.4254 59.9428 26.4087 58.8447C26.3324 53.8068 25.0612 49.9601 23.4332 45.0336C22.415 41.9523 22.6441 41.0964 21.8247 39.3436Z" fill="url(#paint9_linear)"/>
<path d="M36.997 30.2422C36.9402 31.5088 36.746 32.5055 36.5762 33.186C36.3818 33.9656 36.2611 34.1633 36.112 34.321C35.8876 34.5583 35.5566 34.7497 33.7248 35.1027C32.7281 35.2947 32.6018 35.2813 32.5749 35.3781C32.4435 35.8504 35.0393 37.6231 37.8316 37.379C39.5406 37.2297 41.1355 36.3412 41.0679 35.8261C40.9999 35.3078 39.291 35.4923 38.8354 34.5368C38.5185 33.872 38.9611 32.9761 39.4669 32.2416C39.0612 31.3697 37.4026 31.114 36.997 30.2422Z" fill="url(#paint10_linear)"/>
<path d="M40.1184 30.9113C40.5471 30.3991 40.6213 29.4688 40.1914 28.8552C39.8214 28.3271 39.2007 28.2214 38.8291 28.158C37.7521 27.9743 36.3608 28.355 35.8319 29.3305C35.5186 29.9085 36.0626 31.1736 36.1463 31.4003C36.2411 31.6566 36.4324 31.7531 36.6037 31.9522C36.841 32.2284 37.2121 32.6672 37.8169 33.4002C37.8777 33.1967 37.9672 32.9456 38.1024 32.6754C38.1544 32.5714 38.3629 32.1656 38.6631 31.8359C39.2646 31.175 39.712 31.3967 40.1184 30.9113Z" fill="url(#paint11_linear)"/>
<path d="M36.9323 32.7646C36.9323 32.7646 37.5823 33.9757 39.0056 33.9591C40.2798 33.9442 40.6179 31.0961 39.8391 30.4462C39.5792 30.2294 39.0418 30.1163 38.5945 30.2166C38.3304 30.2759 38.2365 30.3797 37.803 30.468C37.4031 30.5496 37.294 30.4998 37.1696 30.5938C37.0141 30.7118 36.8885 31.0142 37.0928 31.863C36.8636 31.6039 36.5778 31.4938 36.3665 31.5803C36.3328 31.5943 36.2425 31.6491 36.1886 31.7367C35.9937 32.0536 36.2686 32.4865 36.9323 32.7646Z" fill="url(#paint12_linear)"/>
<path d="M37.1212 30.4183C37.18 30.4674 36.9806 30.6866 36.9494 31.0104C36.8887 31.6389 37.4838 32.4292 38.1286 32.528C38.5098 32.5864 38.6275 32.3603 39.2645 32.3271C39.659 32.3066 39.9828 32.3742 40.1858 32.4302C40.3481 33.1317 40.1241 33.8106 39.647 34.1055C39.1332 34.4231 38.5115 34.1804 38.2515 34.079C38.0777 34.011 37.5204 33.7948 37.2517 33.2569C36.9718 32.6963 37.2924 32.3847 36.9576 31.9978C36.7887 31.8026 36.5583 31.7096 36.3488 31.3381C36.2919 31.2372 36.2551 31.1486 36.2329 31.0892C36.5791 30.7583 37.036 30.3471 37.1212 30.4183Z" fill="url(#paint13_linear)"/>
<path d="M39.7112 32.6633C39.7112 32.6633 39.4293 32.7925 38.9568 32.7403C38.9338 32.7377 38.908 32.7432 38.9045 32.755C38.8912 32.7995 39.1845 33.0181 39.4688 32.9542C39.6707 32.9086 39.8355 32.728 39.8113 32.6784C39.801 32.6575 39.7559 32.6578 39.7112 32.6633Z" fill="url(#paint14_linear)"/>
<path opacity="0.3" d="M43.8899 68.7319C41.2858 67.6167 41.3009 65.3089 38.8687 64.3459C35.4608 62.9965 31.1316 65.6658 30.965 65.279C30.78 64.8494 37.1414 63.162 38.9473 58.4141C39.6336 56.6098 39.812 53.9691 38.5183 52.8553C36.9753 51.5269 34.8396 53.6629 32.4409 52.474C29.6826 51.1069 30.159 47.119 27.8069 46.4511C26.561 46.0974 25.234 46.8775 24.281 47.6239C25.4839 51.394 26.3463 54.7187 26.4088 58.8399C26.4255 59.938 26.4144 63.0055 26.5948 67.5186C26.7118 70.4443 26.8351 72.1223 27.8036 72.5579C28.8135 73.012 29.6848 73.7686 32.133 72.9373C33.9308 72.3266 35.3723 72.5841 38.9225 72.9373C44.217 73.4639 44.9105 71.9694 45.948 71.3471C46.6237 70.9417 46.9449 70.3324 47.1599 69.1617C46.0984 69.2766 44.9724 69.1954 43.8899 68.7319Z" fill="url(#paint15_linear)"/>
<path d="M52.5463 43.7437L42.406 45.1882C42.2947 45.204 42.2041 45.2861 42.1769 45.3955L38.7426 59.2409C38.6933 59.4395 38.9578 59.8965 39.1573 59.854L49.0829 57.4458C49.1841 57.4243 49.2648 57.3476 49.292 57.2474L53.0108 44.2716C53.0627 44.0795 52.7426 43.7158 52.5463 43.7437Z" fill="url(#paint16_linear)"/>
<path d="M52.7377 44.0536L42.5973 45.4981C42.486 45.514 42.3954 45.596 42.3683 45.7055L38.9339 59.5508C38.8847 59.7495 39.0596 59.9312 39.2591 59.8887L49.2743 57.7557C49.3755 57.7342 49.4562 57.6576 49.4833 57.5573L53.0428 44.4005C53.0948 44.2084 52.934 44.0256 52.7377 44.0536Z" fill="url(#paint17_linear)"/>
<path d="M50.0044 44.8365L50.2882 43.7318C50.3138 43.632 50.2325 43.5372 50.1304 43.5477L46.4246 43.9283C46.3607 43.9349 46.3084 43.9822 46.2953 44.0453L46.0427 45.261C46.022 45.3608 46.1057 45.4513 46.2065 45.4378L49.8811 44.9462C49.9406 44.9383 49.9894 44.8949 50.0044 44.8365Z" fill="url(#paint18_linear)"/>
<path opacity="0.3" d="M44.8153 56.0518C45.2572 53.8318 44.0259 52.5421 44.9662 50.7556C46.2962 48.2288 49.7738 48.8832 50.6286 46.8668C50.8591 46.3231 50.9163 45.5421 50.4124 44.3847L52.7377 44.0536C52.934 44.0257 53.0948 44.2082 53.0428 44.4004L49.4833 57.5573C49.4562 57.6576 49.3755 57.734 49.2743 57.7556L43.1875 59.0522C44.1858 57.9801 44.6358 56.9541 44.8153 56.0518Z" fill="white"/>
<path d="M37.218 55.2152C37.218 55.2152 38.7252 54.75 39.2803 54.3143C39.8354 53.8784 40.4032 53.2116 41.2813 53.1545C42.1595 53.0978 43.0853 53.4535 42.6916 53.5976C42.298 53.7414 41.6251 54.6235 41.0808 54.9995C40.5364 55.3755 39.2215 55.5394 38.9744 55.5474C38.7273 55.5554 37.8182 56.2395 37.8182 56.2395L37.218 55.2152Z" fill="url(#paint19_linear)"/>
<path d="M38.1138 53.2681C38.92 53.9463 39.2637 54.6126 39.3411 55.2292C39.6843 57.9622 35.0097 61.4196 30.5493 61.7954C27.2476 62.0736 23.943 60.6671 21.8615 58.5194C17.8 54.3286 17.5602 46.4485 21.8246 39.3398C22.9148 39.8818 24.0051 40.4238 25.0953 40.9657C28.1348 42.4767 29.9682 45.753 29.4978 49.1242C29.1875 51.3486 29.9016 53.3566 31.1868 54.2712C32.8281 55.4394 35.726 55.0559 38.1138 53.2681Z" fill="url(#paint20_linear)"/>
<path d="M97.5745 107.041C97.6387 106.687 98.7792 106.366 99.344 106.841C99.6244 107.076 99.8175 107.554 99.6553 107.77C99.5963 107.849 99.838 107.987 99.6063 107.989C98.838 107.998 97.5107 107.393 97.5745 107.041Z" fill="url(#paint21_linear)"/>
<path d="M98.77 107.168L99.943 107.002C99.3996 106.345 99.5002 104.254 99.5002 104.254L98.2527 104.533C98.2527 104.533 98.3948 105.107 98.6367 105.954C98.7194 106.244 98.7564 106.697 98.77 107.168Z" fill="url(#paint22_linear)"/>
<path d="M98.6657 107.023C98.6657 107.023 100.078 106.696 100.231 106.977C100.384 107.259 100.502 108.011 99.6062 107.987C98.7101 107.963 98.5862 107.261 98.6657 107.023Z" fill="url(#paint23_linear)"/>
<path d="M81.4791 108.369C81.5921 108.027 82.7661 107.87 83.2591 108.419C83.5039 108.692 83.6285 109.192 83.4378 109.383C83.3683 109.453 83.5885 109.623 83.3587 109.593C82.5967 109.494 81.3668 108.709 81.4791 108.369Z" fill="url(#paint24_linear)"/>
<path d="M82.645 108.666H83.8297C83.3831 107.939 83.7744 105.883 83.7744 105.883L82.5002 105.984C82.5002 105.984 82.5609 106.573 82.6823 107.445C82.7238 107.744 82.6972 108.198 82.645 108.666Z" fill="url(#paint25_linear)"/>
<path d="M79.5747 63.7035C79.0259 65.5222 78.2422 68.4577 77.7377 72.1407C76.2987 82.6458 79.3572 82.9808 78.786 94.6218C78.6037 98.3376 81.9936 106.906 82.2924 107.095C82.437 107.109 82.5939 107.119 82.7612 107.114C83.0561 107.105 83.4718 107.059 83.9552 106.914C84.4922 106.821 86.4282 101.558 85.9795 98.429C85.6619 96.2143 85.754 93.8375 85.9381 89.084C85.9679 88.3138 87.9315 74.0987 87.9315 74.0987C88.5288 79.3603 89.2157 83.831 89.8113 87.2973C91.7245 98.4336 97.9456 105.174 98.27 105.282C98.3341 105.308 98.9179 105.521 99.3951 105.205C99.6075 105.065 99.6798 104.883 99.6798 104.883C99.8463 104.753 99.6308 93.7649 97.7333 85.4958C94.9791 73.4933 96.1784 70.6849 95.3058 65.3239C94.5508 60.685 79.5747 63.7035 79.5747 63.7035Z" fill="url(#paint26_linear)"/>
<path d="M90.6992 41.9366C88.8707 41.8827 85.3291 41.2834 83.0141 43.3738C82.9739 43.4101 82.7867 43.6159 82.5532 43.8905C82.3364 44.1455 81.5928 45.0378 80.9187 46.2442C80.4304 47.118 79.9897 48.1365 79.545 49.6544C78.7608 52.3314 78.5357 54.6109 78.4605 55.6041C78.0374 61.1894 78.457 63.7662 78.8378 65.5184C80.491 66.3707 84.7512 67.8958 89.8272 67.138C92.1452 66.7919 94.0004 66.0179 95.3059 65.3268C93.9888 61.3245 95.0221 59.1828 95.5096 57.2088C96.4722 53.3114 96.6898 51.7811 99.4106 46.1762C100.161 44.6309 98.3795 45.4965 97.2388 44.1403C95.489 42.0601 92.3364 41.9849 90.6992 41.9366Z" fill="url(#paint27_linear)"/>
<path d="M94.9371 60.773C94.9371 60.773 94.6819 60.9438 94.2906 60.8584C93.8994 60.773 93.423 60.4486 92.9977 60.312C92.5724 60.1754 92.5383 60.8071 93.1678 61.1315C93.7972 61.4559 94.3416 62.1047 94.5798 62.5998C94.818 63.0949 95.4134 62.0023 95.4134 62.0023L94.9371 60.773Z" fill="url(#paint28_linear)"/>
<path d="M93.4953 42.2719C94.4618 42.2325 100.569 42.6463 104.198 45.9531C104.928 46.618 108.396 49.778 108.103 54.2972C107.75 59.7177 102.166 64.3087 97.8725 63.6545C96.8711 63.5019 96.0581 63.0821 95.4505 62.6654C95.4505 62.6654 95.4506 62.6653 95.4505 62.6654L94.7364 60.6378C94.7248 59.1889 95.5144 58.176 95.9205 57.6163C96.9215 56.2367 98.3488 55.9955 98.5593 54.773C98.6758 54.0966 98.347 53.5426 98.0532 53.0478C97.0527 51.3622 95.455 51.1545 94.6281 50.2923C93.7744 49.4023 91.0841 46.6832 93.4953 42.2719Z" fill="url(#paint29_linear)"/>
<path d="M82.562 108.506C82.562 108.506 84.0059 108.381 84.118 108.681C84.23 108.981 84.2424 109.743 83.3587 109.593C82.4748 109.443 82.4499 108.731 82.562 108.506Z" fill="url(#paint30_linear)"/>
<path d="M85.5532 39.8316C84.9868 38.8705 85.2392 37.7726 85.2961 37.5354C85.5343 36.5421 85.6229 36.3914 85.8066 36.1813L86.0663 35.9056C86.0663 35.9056 86.0824 35.8936 86.0996 35.8818C86.2802 35.7571 86.9546 35.5545 87.1002 35.5471C87.5653 35.5237 88.5117 37.1974 89.0537 39.7768C89.0977 39.8689 89.1413 39.9619 89.1844 40.0559C89.4532 40.6411 89.6838 41.2166 89.8818 41.7777C93.0248 42.0444 93.4611 42.4145 93.4751 42.6282C93.5045 43.0781 91.7137 43.598 90.3669 43.7959C87.4296 44.2275 84.4103 43.45 84.4241 42.9004C84.4301 42.6611 85.0139 42.3492 87.5039 42.0219C87.4457 41.6084 87.3874 41.1949 87.3292 40.7814C87.1268 40.7363 85.9704 40.5397 85.5532 39.8316Z" fill="url(#paint31_linear)"/>
<path d="M85.3288 35.5667C85.2537 36.1253 85.596 36.7258 85.9923 37.0414C86.2293 37.2302 86.3208 37.198 86.429 37.3584C86.7329 37.8089 86.1014 38.6038 86.3123 38.7854C86.463 38.9152 86.8233 38.5422 87.0433 38.6809C87.2844 38.8329 86.9823 39.3629 87.206 40.0451C87.2167 40.0775 87.2227 40.0952 87.2255 40.1024C87.3702 40.482 87.7614 40.657 87.8649 40.7033C88.361 40.9251 89.0888 40.7664 89.543 40.3461C89.7727 40.1335 89.7968 39.9794 90.1858 38.8546C90.6829 37.4173 90.7394 37.4142 90.7464 37.1317C90.7506 36.9632 90.7605 35.9535 90.0424 35.1164C89.0988 34.0163 87.3876 33.7865 86.2871 34.3994C86.1088 34.4987 85.421 34.8818 85.3288 35.5667Z" fill="#26264F"/>
<path d="M86.5453 38.5266C86.6673 38.2098 87.0717 38.3687 87.1648 38.7115C87.258 39.0543 87.0214 39.5 86.6817 39.5182C86.3421 39.5364 86.3812 38.9531 86.5453 38.5266Z" fill="url(#paint32_linear)"/>
<path d="M78.4285 57.5394C78.402 57.5394 78.3773 57.5233 78.3672 57.4972C78.3542 57.4632 78.371 57.4251 78.4049 57.4119C78.4332 57.401 81.2656 56.2877 83.9057 53.6714C83.9316 53.6458 83.9732 53.646 83.9986 53.6719C84.0241 53.6978 84.0239 53.7396 83.9981 53.7651C81.3374 56.4018 78.4805 57.5239 78.4521 57.535C78.4442 57.538 78.4363 57.5394 78.4285 57.5394Z" fill="#9B305E"/>
<path d="M69.2599 109.207C69.5758 109.854 69.4872 110.132 69.4085 110.254C69.178 110.612 68.6231 110.274 67.1746 110.446C67.0046 110.466 66.6804 110.51 66.2758 110.414C65.9292 110.332 65.5204 110.147 65.5379 110.054C65.5443 110.02 65.6059 110.007 65.6292 110.002C66.0312 109.916 68.5478 109.141 68.5478 109.141L69.2599 109.207Z" fill="url(#paint33_linear)"/>
<path d="M69.4532 107.787L69.2285 109.233C69.2285 109.233 68.61 109.671 68.4474 109.139C68.3304 108.755 68.3337 107.723 68.3337 107.723L69.4532 107.787Z" fill="url(#paint34_linear)"/>
<path d="M62.1494 108.502L62.7567 110.166L63.6391 110.025L63.4345 108.484L62.1494 108.502Z" fill="url(#paint35_linear)"/>
<path d="M63.0315 111.083C63.4587 110.575 63.84 110.621 63.917 110.271C63.9774 109.997 63.8098 109.66 63.557 109.532C63.2016 109.352 62.7711 109.633 62.6739 109.696C62.0132 110.127 62.1932 110.801 61.5702 111.094C61.4449 111.153 61.2462 111.215 61.0367 111.412C60.9479 111.495 60.7276 111.703 60.7792 111.845C60.8389 112.01 61.2316 112.005 61.605 111.999C62.0531 111.993 62.2771 111.989 62.4926 111.854C62.7913 111.667 62.7018 111.476 63.0315 111.083Z" fill="url(#paint36_linear)"/>
<path d="M74.1746 73.2148C74.0113 76.5764 73.5318 79.446 72.9862 81.7854C72.3993 84.3019 72.0796 84.732 71.876 86.4765C71.4332 90.2727 72.6431 90.8435 72.7755 95.1479C72.9217 99.9009 71.5832 103.647 71.0579 105.076C70.5987 106.325 70.1244 107.331 69.769 108.03C69.3272 108.4 68.6671 108.24 67.971 108.082C67.8054 103.77 67.5709 99.711 67.4053 95.3992C66.713 88.9032 66.0208 82.4075 65.3286 75.9116C68.2773 75.0126 71.2259 74.1139 74.1746 73.2148Z" fill="url(#paint37_linear)"/>
<path opacity="0.3" d="M67.971 108.082C67.8054 103.77 67.5709 99.711 67.4053 95.3992C66.713 88.9032 66.0208 82.4075 65.3286 75.9116C68.2773 75.0126 71.2259 74.1138 74.1746 73.2148C74.1638 73.4374 74.148 73.652 74.1346 73.8704C69.95 77.3624 69.0853 80.1814 69.0841 82.1169C69.0826 84.4643 70.3362 85.655 70.0137 89.0517C69.7831 91.4804 69.0453 91.8932 68.9988 94.0883C68.9388 96.9148 70.1136 98.5301 70.6674 100.176C71.2026 101.767 71.3573 104.007 70.1902 107.164C70.0388 107.489 69.8961 107.78 69.769 108.03C69.3272 108.4 68.6671 108.24 67.971 108.082Z" fill="url(#paint38_linear)"/>
<path d="M68.9213 76.3457C66.6904 79.9473 65.4335 82.7929 64.7464 84.552C64.3273 85.6251 63.9444 86.7441 63.8292 88.2198C63.6882 90.0278 64.015 91.5229 64.3055 92.4819C64.7321 93.7118 65.1107 95.1437 65.3329 96.7567C66.0536 101.988 64.7437 106.325 63.7383 108.813C63.2138 108.995 62.6893 109.178 62.1647 109.36C61.0569 106.025 59.7134 101.3 58.8004 95.488C58.3018 92.3139 57.9222 89.8248 57.9854 86.6748C58.0521 83.3523 58.6352 78.1073 61.4781 71.8867C63.9591 73.3731 66.4402 74.8594 68.9213 76.3457Z" fill="url(#paint39_linear)"/>
<path d="M68.3331 47.561C65.0116 48.0602 62.4794 48.5997 61.3173 50.3149C60.09 52.1267 61.9494 53.5504 62.3769 57.5925C63.0314 63.781 59.4465 66.0104 60.3309 72.2465C60.6289 74.3477 61.3037 75.9824 61.7715 76.9552C62.8222 77.8536 64.4964 79.0847 66.7851 79.944C70.1155 81.1942 71.7855 80.545 76.2948 80.9011C83.6706 81.4836 84.7303 83.6569 88.0949 82.4069C91.4954 81.1436 94.0131 77.5864 93.3309 76.0285C92.9223 75.0956 91.5589 75.6432 89.6454 74.4674C87.1794 72.9521 87.6414 70.9661 85.6519 69.2112C82.7942 66.6905 79.9415 69.1126 77.4979 66.9216C75.0262 64.7051 74.838 59.4406 75.9752 56.3336C76.718 54.3041 76.7785 52.081 77.3421 49.9944C77.3891 49.821 77.4289 49.5437 77.3277 49.2261C76.9407 48.0116 74.7473 47.7328 73.089 47.5377C70.5598 47.2402 68.6062 47.5199 68.3331 47.561Z" fill="url(#paint40_linear)"/>
<path opacity="0.3" d="M87.7575 80.0556C86.7497 79.3498 87.3449 77.4233 85.8526 76.3616C84.4675 75.3763 83.3446 76.6018 81.2869 75.9199C78.6476 75.0452 78.8414 72.4813 76.3129 71.6071C74.4947 70.9785 73.9173 72.1395 71.2755 72.1333C68.6382 72.1272 65.2056 70.9609 63.0772 68.1092C62.1728 66.8975 61.6804 65.615 61.4227 64.4336C60.6689 66.7039 59.8562 68.8968 60.331 72.244C60.6289 74.3451 61.3038 75.9799 61.7715 76.9526C62.8222 77.851 64.4964 79.0821 66.7851 79.9413C70.1155 81.1917 71.7855 80.5425 76.2949 80.8986C83.6706 81.481 84.7303 83.6544 88.0949 82.4044C90.2682 81.597 92.076 79.8536 92.9233 78.2931C89.959 80.3609 88.489 80.5678 87.7575 80.0556Z" fill="url(#paint41_linear)"/>
<path d="M66.5443 41.7695C66.5443 41.7695 65.5956 43.468 65.5123 44.6724C65.429 45.8767 66.7866 45.8183 66.7866 45.8183L66.7195 46.5777C66.6621 47.226 66.2302 47.7798 65.6169 47.9913L65.0774 48.1773C65.0774 48.1773 68.553 49.0026 70.4886 47.6918L69.9402 47.6259C69.1639 47.5328 68.5604 46.9033 68.4978 46.1211L68.4716 45.7949C68.4716 45.7949 69.1576 42.05 66.5443 41.7695Z" fill="url(#paint42_linear)"/>
<path d="M52.433 60.2431C52.433 60.2431 51.2028 59.4034 51.0592 58.8114C50.9157 58.2194 50.9518 57.1055 50.9518 57.1055L51.6689 58.6747C51.6689 58.6747 52.0154 58.575 52.1647 58.0579C52.314 57.5408 52.5663 58.0144 52.4644 58.4051C52.3625 58.7957 52.433 60.2431 52.433 60.2431Z" fill="url(#paint43_linear)"/>
<path d="M61.9059 49.7305C61.2561 50.1277 60.2763 50.8251 59.4102 51.9502C56.9464 55.1512 57.9069 58.5615 55.8687 59.7676C55.2859 60.1127 54.2627 60.3927 52.4155 59.7371L51.7075 60.115C51.7075 60.115 50.8427 64.5293 56.1838 64.6944C61.5249 64.8597 64.1861 58.1958 64.1861 58.1958L61.9059 49.7305Z" fill="url(#paint44_linear)"/>
<path d="M67.0537 43.4896C67.2345 43.4784 67.3885 43.2519 67.5105 43.3228C67.6387 43.3971 67.6172 43.7316 67.4994 43.9643C67.4028 44.1549 67.2497 44.2605 67.1647 44.3096C67.2999 44.5061 67.471 44.8108 67.5365 45.2062C67.6814 46.0807 67.2051 46.7712 67.0046 47.177C66.1003 49.0062 67.3832 51.9566 68.8283 53.4637C70.0027 54.6888 70.5728 54.2186 71.2683 55.2135C72.622 57.1498 70.6525 59.2037 71.3189 61.785C72.332 65.71 78.4456 67.0028 78.6991 67.0532C78.799 67.0732 78.8661 67.0857 78.9701 67.1046C81.7143 67.6029 85.8737 68.3582 88.8615 66.1532C91.0968 64.5035 92.1685 61.5716 92.0576 58.9664C92.0285 58.2811 91.8774 55.679 89.8136 53.5134C89.486 53.1697 87.5462 51.139 84.8681 51.0573C83.4496 51.0139 83.1528 51.5095 82.0744 51.176C80.598 50.7193 79.712 49.3442 79.1623 48.4913C78.1512 46.9222 78.5826 46.6011 77.8477 45.8243C76.4076 44.3025 74.6558 45.4355 73.1117 44.0865C71.5897 42.7568 72.5622 41.0183 71.0903 39.864C69.5718 38.6737 66.6113 39.0141 65.9526 40.3787C65.3865 41.5512 66.4994 43.5235 67.0537 43.4896Z" fill="url(#paint45_linear)"/>
<path d="M69.041 31.472C69.041 33.4071 67.5333 34.9294 65.6062 34.87C63.6008 34.8082 61.9141 33.0699 61.9141 30.9898C61.9141 28.9097 63.6007 27.3997 65.6062 27.6093C67.5333 27.8107 69.041 29.5369 69.041 31.472Z" fill="url(#paint46_linear)"/>
<path d="M69.5618 31.308C69.5618 33.2431 68.0541 34.7654 66.127 34.706C64.1215 34.6442 62.4348 32.9059 62.4348 30.8258C62.4348 28.7457 64.1215 27.2356 66.127 27.4452C68.054 27.6466 69.5618 29.3729 69.5618 31.308Z" fill="url(#paint47_linear)"/>
<path d="M69.4104 31.295C69.4104 33.1449 67.9678 34.5976 66.1269 34.5378C64.2145 34.4757 62.6089 32.8168 62.6089 30.8348C62.6089 28.8528 64.2145 27.4112 66.1269 27.6078C67.9678 27.7971 69.4104 29.4451 69.4104 31.295Z" fill="url(#paint48_linear)"/>
<path d="M69.3023 31.2896C69.3023 33.0784 67.9064 34.4816 66.1271 34.4216C64.2811 34.3594 62.7332 32.7572 62.7332 30.8451C62.7332 28.933 64.2811 27.5403 66.1271 27.7279C67.9064 27.9087 69.3023 29.5007 69.3023 31.2896Z" fill="url(#paint49_linear)"/>
<path d="M66.1088 28.3367C66.2035 28.3458 66.2801 28.4313 66.2801 28.5278V28.8571C66.4694 28.8783 66.659 28.9114 66.8489 28.9561C66.9889 28.9892 67.1279 29.0285 67.2661 29.0741C67.3488 29.1014 67.4052 29.1852 67.3968 29.2717L67.3565 29.6847C67.3458 29.7943 67.2379 29.8586 67.1363 29.8132C67.0453 29.7725 66.952 29.7376 66.8564 29.7086C66.6896 29.6579 66.5137 29.6249 66.3286 29.6096L66.2802 29.6056V30.5488C66.7741 30.6875 67.1368 30.8741 67.3713 31.1087C67.6046 31.3423 67.7208 31.6334 67.7208 31.9828C67.7208 32.3606 67.5923 32.6632 67.3343 32.8914C67.0749 33.1208 66.7112 33.2499 66.2409 33.2778V33.6413C66.2409 33.7378 66.1642 33.813 66.0694 33.8092L66.0664 33.8091C65.9714 33.8053 65.8943 33.7237 65.8943 33.6268V33.2683L65.818 33.2648C65.5975 33.2548 65.3863 33.2323 65.1846 33.197C65.0351 33.1709 64.8892 33.1373 64.7468 33.096C64.6607 33.071 64.6016 32.9887 64.6095 32.9003L64.6569 32.3694C64.6671 32.2546 64.782 32.1878 64.8908 32.2309C65.0175 32.281 65.1459 32.3233 65.2758 32.3577C65.4782 32.4113 65.6834 32.4457 65.8913 32.4609L65.8943 31.4117C65.4203 31.2939 65.0653 31.1195 64.8321 30.8885C64.5978 30.6565 64.4802 30.3595 64.4802 29.9984C64.4802 29.6246 64.6077 29.3362 64.8617 29.1337C65.1144 28.9323 65.4736 28.8321 65.937 28.8324V28.4957C65.9369 28.3988 66.0139 28.3277 66.1088 28.3367ZM65.9369 29.5958C65.7904 29.6065 65.6761 29.6469 65.5944 29.717C65.5124 29.7872 65.4714 29.8817 65.4714 30.0001C65.4714 30.1124 65.5094 30.2062 65.5851 30.2815C65.6608 30.3567 65.7782 30.4168 65.9369 30.4616V29.5958ZM66.2408 31.4957V32.4579C66.4001 32.4582 66.5222 32.4201 66.6075 32.3435C66.6926 32.2671 66.7351 32.1592 66.7351 32.0196C66.7351 31.8924 66.6956 31.7869 66.6165 31.703C66.5373 31.6189 66.4121 31.5498 66.2408 31.4957Z" fill="url(#paint50_linear)"/>
<path opacity="0.3" d="M65.5525 31.7258C65.6598 30.6624 66.6335 30.2123 66.5064 29.2342C66.4281 28.6313 65.9728 28.1233 65.4649 27.7266C63.9244 27.8887 62.7332 29.1689 62.7332 30.8433C62.7332 32.7554 64.2811 34.3576 66.127 34.4198C66.3063 34.4258 66.4813 34.4165 66.6515 34.3941C65.9184 33.662 65.4603 32.6393 65.5525 31.7258Z" fill="url(#paint51_linear)"/>
<path d="M82.5735 30.03C82.5735 33.4329 79.9221 36.1098 76.5334 36.0054C73.0068 35.8967 70.0408 32.8399 70.0408 29.182C70.0408 25.5241 73.0068 22.8687 76.5334 23.2373C79.9221 23.5914 82.5735 26.6271 82.5735 30.03Z" fill="url(#paint52_linear)"/>
<path d="M83.489 29.737C83.489 33.1399 80.8377 35.8168 77.449 35.7123C73.9223 35.6037 70.9563 32.5469 70.9563 28.889C70.9563 25.2312 73.9223 22.5758 77.449 22.9443C80.8377 23.2984 83.489 26.3341 83.489 29.737Z" fill="url(#paint53_linear)"/>
<path d="M83.2233 29.7186C83.2233 32.9716 80.6865 35.5263 77.4493 35.4211C74.0864 35.3118 71.2629 32.3947 71.2629 28.9093C71.2629 25.424 74.0864 22.8889 77.4493 23.2347C80.6865 23.5676 83.2233 26.4655 83.2233 29.7186Z" fill="url(#paint54_linear)"/>
<path d="M83.0325 29.711C83.0325 32.8567 80.5778 35.3241 77.4489 35.2187C74.2028 35.1093 71.4807 32.2918 71.4807 28.9294C71.4807 25.567 74.2028 23.1179 77.4489 23.4477C80.5778 23.7657 83.0325 26.5653 83.0325 29.711Z" fill="url(#paint55_linear)"/>
<path opacity="0.3" d="M76.4385 30.4819C76.6271 28.612 78.3395 27.8204 78.1161 26.1003C77.9783 25.0402 77.1777 24.1468 76.2846 23.4492C73.5755 23.7343 71.4807 25.9856 71.4807 28.9299C71.4807 32.2924 74.2028 35.1099 77.4489 35.2193C77.7641 35.2299 78.0719 35.2134 78.3712 35.1741C77.082 33.8867 76.2764 32.0884 76.4385 30.4819Z" fill="url(#paint56_linear)"/>
<path d="M91.454 16.8354C91.454 21.7691 87.61 25.6502 82.6968 25.4988C77.5838 25.3412 73.2834 20.9094 73.2834 15.606C73.2834 10.3026 77.5838 6.45268 82.6968 6.98703C87.61 7.50046 91.454 11.9017 91.454 16.8354Z" fill="url(#paint57_linear)"/>
<path d="M92.7816 16.4057C92.7816 21.3394 88.9376 25.2205 84.0245 25.0691C78.9114 24.9115 74.6111 20.4797 74.6111 15.1763C74.6111 9.87291 78.9114 6.02303 84.0245 6.55733C88.9376 7.07072 92.7816 11.472 92.7816 16.4057Z" fill="url(#paint58_linear)"/>
<path d="M92.3959 16.3839C92.3959 21.1003 88.7179 24.8042 84.0244 24.6517C79.1488 24.4933 75.0552 20.2638 75.0552 15.2106C75.0552 10.1574 79.1488 6.48191 84.0244 6.98326C88.7179 7.46581 92.3959 11.6674 92.3959 16.3839Z" fill="url(#paint59_linear)"/>
<path d="M92.1199 16.3622C92.1199 20.923 88.5609 24.5004 84.0245 24.3476C79.3182 24.189 75.3716 20.104 75.3716 15.229C75.3716 10.3541 79.3182 6.80317 84.0245 7.28144C88.5609 7.74243 92.1199 11.8014 92.1199 16.3622Z" fill="url(#paint60_linear)"/>
<path opacity="0.3" d="M82.5596 17.4776C82.8331 14.7665 85.3158 13.6188 84.9918 11.125C84.7921 9.58796 83.6313 8.29263 82.3364 7.28125C78.4087 7.69464 75.3716 10.9586 75.3716 15.2275C75.3716 20.1025 79.3182 24.1875 84.0246 24.346C84.4815 24.3614 84.9278 24.3376 85.3617 24.2805C83.4926 22.4139 82.3246 19.8068 82.5596 17.4776Z" fill="url(#paint61_linear)"/>
<path d="M75.6432 30.8151L75.2649 30.8777C75.2127 30.8864 75.1672 30.8681 75.1285 30.8229L74.5309 30.1215L74.0938 30.1939L74.2218 30.973C74.2253 30.9948 74.2212 31.014 74.2094 31.0305C74.1976 31.047 74.1808 31.0571 74.1591 31.0607L73.8166 31.1174C73.7949 31.121 73.7763 31.1168 73.7609 31.1047C73.7456 31.0927 73.7361 31.0758 73.7325 31.054L73.3803 28.9097C73.3774 28.8923 73.3813 28.8748 73.3918 28.8574C73.4024 28.84 73.4185 28.8294 73.4403 28.8258L74.4645 28.6564C74.7036 28.6168 74.9065 28.6517 75.073 28.7608C75.2394 28.8701 75.3392 29.0251 75.3721 29.2258C75.3854 29.3066 75.3859 29.3883 75.3739 29.471C75.3618 29.5537 75.3259 29.6415 75.2664 29.7342C75.2067 29.8271 75.1246 29.9012 75.0198 29.9566L75.6794 30.7083C75.6981 30.7276 75.7039 30.7491 75.6966 30.7727C75.6892 30.7963 75.6715 30.8105 75.6432 30.8151ZM74.5734 29.7076C74.6734 29.6911 74.7508 29.6486 74.8055 29.5801C74.8601 29.5117 74.8799 29.4316 74.8649 29.3399C74.8498 29.2483 74.8064 29.181 74.7345 29.1379C74.6626 29.0949 74.5778 29.0815 74.48 29.0976L73.9287 29.1888L74.0287 29.7977L74.5734 29.7076Z" fill="url(#paint62_linear)"/>
<path d="M78.4594 30.276C78.4565 30.2989 78.4452 30.3187 78.4256 30.3354C78.406 30.3521 78.3908 30.3613 78.3799 30.3631L77.8613 30.4489C77.8112 30.4572 77.7769 30.4382 77.7581 30.392L77.1595 28.9914L77.0372 30.5113C77.032 30.5614 77.0055 30.5905 76.9577 30.5984L76.413 30.6885C76.3629 30.6968 76.3286 30.6778 76.3098 30.6316L75.4389 28.6136C75.4245 28.5801 75.4237 28.5517 75.4367 28.5282C75.4496 28.5048 75.4701 28.4907 75.4984 28.486L75.8865 28.4218C75.9278 28.415 75.9568 28.4349 75.9734 28.4814L76.6065 30.0513L76.7421 28.3476C76.7501 28.3014 76.7727 28.2752 76.8097 28.2691L77.2532 28.1957C77.2945 28.1889 77.3242 28.2064 77.3423 28.2482L78.0135 29.805L78.1132 28.1274C78.114 28.078 78.1351 28.0498 78.1764 28.043L78.5417 27.9825C78.609 27.9714 78.6404 28.0055 78.6355 28.0847L78.4594 30.276Z" fill="url(#paint63_linear)"/>
<path d="M80.4603 28.8099L80.5082 29.1012C80.5114 29.1209 80.5072 29.1395 80.4956 29.1571C80.4839 29.1748 80.4683 29.1852 80.4488 29.1884L79.5844 29.3314L79.7049 30.0647C79.7084 30.0866 79.7037 30.1058 79.6909 30.1225C79.678 30.1393 79.6617 30.1492 79.6422 30.1524L79.2997 30.2091C79.278 30.2127 79.2594 30.2086 79.244 30.1965C79.2287 30.1845 79.2192 30.1676 79.2156 30.1457L78.8634 28.0015C78.8602 27.9819 78.8639 27.9639 78.8747 27.9475C78.8853 27.9312 78.9016 27.9212 78.9233 27.9176L80.4956 27.6575C80.5172 27.6539 80.5364 27.6581 80.5528 27.6699C80.5693 27.6818 80.5793 27.6986 80.5829 27.7204L80.6324 28.0216C80.636 28.0434 80.6318 28.0626 80.62 28.0791C80.6082 28.0957 80.5914 28.1057 80.5697 28.1093L79.415 28.3003L79.5124 28.8928L80.3767 28.7498C80.3985 28.7462 80.417 28.7504 80.4324 28.7624C80.4478 28.7744 80.4571 28.7902 80.4603 28.8099Z" fill="url(#paint64_linear)"/>
<path d="M79.7901 18.713C79.749 18.7897 79.6916 18.833 79.618 18.8428L78.886 18.9408C78.824 18.9492 78.7823 18.932 78.7609 18.8894C78.7396 18.8468 78.74 18.8061 78.7624 18.7675L79.7837 16.708L78.3393 15.0498C78.3025 15.0112 78.2932 14.9699 78.311 14.926C78.3289 14.882 78.3629 14.8567 78.4133 14.85L79.1454 14.752C79.2189 14.7421 79.2817 14.7693 79.3336 14.8336L80.3167 16.0017L80.943 14.6182C80.9762 14.5425 81.0297 14.4997 81.1034 14.4899L81.8005 14.3966C81.8586 14.3888 81.899 14.4032 81.9215 14.4397C81.9441 14.4763 81.9428 14.518 81.9175 14.5648L80.9682 16.5435L82.4809 18.2697C82.5136 18.3089 82.524 18.35 82.5121 18.3932C82.5 18.4363 82.465 18.4618 82.4069 18.4696L81.669 18.5683C81.5993 18.5776 81.5343 18.5488 81.4742 18.4816L80.4473 17.2957L79.7901 18.713Z" fill="url(#paint65_linear)"/>
<path d="M83.4257 18.216C83.4089 18.2974 83.3695 18.3422 83.3076 18.3505L82.6569 18.4376C82.6066 18.4444 82.5682 18.4308 82.542 18.3966C82.5158 18.3626 82.5105 18.3148 82.5259 18.2533L83.3399 14.3225C83.3556 14.2334 83.4061 14.1831 83.4914 14.1717L84.4093 14.0488C84.4906 14.0379 84.5524 14.0732 84.5948 14.1545L86.412 17.7272C86.4396 17.7868 86.4443 17.8366 86.426 17.8767C86.4076 17.9168 86.3714 17.9404 86.3171 17.9476L85.6315 18.0394C85.5657 18.0482 85.516 18.0153 85.4824 17.9406L85.0994 17.1492L83.583 17.3522L83.4257 18.216ZM84.7577 16.4472L84.0418 14.9763L84.0243 14.9786L83.7293 16.5848L84.7577 16.4472Z" fill="url(#paint66_linear)"/>
<path d="M89.0829 15.4442L89.1519 15.9632C89.1565 15.9982 89.148 16.031 89.1266 16.0615C89.1049 16.0921 89.0768 16.1097 89.0419 16.1144L87.5023 16.3205L87.6758 17.6266C87.681 17.6655 87.6717 17.6994 87.648 17.7283C87.6242 17.7572 87.5949 17.7739 87.56 17.7786L86.95 17.8603C86.9112 17.8655 86.8786 17.857 86.852 17.8348C86.8254 17.8127 86.8095 17.7822 86.8043 17.7433L86.2967 13.9241C86.2921 13.8891 86.2997 13.8575 86.3196 13.8291C86.3395 13.8007 86.3688 13.7839 86.4076 13.7787L89.2079 13.4038C89.2466 13.3987 89.2802 13.407 89.3089 13.4289C89.3373 13.4509 89.3542 13.4813 89.3594 13.5201L89.4307 14.0565C89.4358 14.0954 89.4275 14.1292 89.4057 14.1578C89.3838 14.1865 89.3535 14.2033 89.3149 14.2085L87.2581 14.4838L87.3984 15.5392L88.938 15.3331C88.9767 15.3279 89.0095 15.3364 89.036 15.3585C89.0626 15.3807 89.0783 15.4093 89.0829 15.4442Z" fill="url(#paint67_linear)"/>
<defs>
<linearGradient id="paint0_linear" x1="63.4501" y1="37.0952" x2="56.1526" y2="45.7885" gradientUnits="userSpaceOnUse">
<stop stop-color="#FFC444"/>
<stop offset="0.9964" stop-color="#F36F56"/>
</linearGradient>
<linearGradient id="paint1_linear" x1="60.4998" y1="45.6808" x2="43.1974" y2="46.3029" gradientUnits="userSpaceOnUse">
<stop stop-color="#FFC444"/>
<stop offset="0.9964" stop-color="#F36F56"/>
</linearGradient>
<linearGradient id="paint2_linear" x1="37.5469" y1="104.904" x2="33.3144" y2="105.284" gradientUnits="userSpaceOnUse">
<stop stop-color="#444B8C"/>
<stop offset="0.9964" stop-color="#26264F"/>
</linearGradient>
<linearGradient id="paint3_linear" x1="35.1193" y1="105.073" x2="32.9802" y2="101.346" gradientUnits="userSpaceOnUse">
<stop stop-color="#FFC444"/>
<stop offset="0.9964" stop-color="#F36F56"/>
</linearGradient>
<linearGradient id="paint4_linear" x1="52.1945" y1="104.174" x2="47.7824" y2="105.133" gradientUnits="userSpaceOnUse">
<stop stop-color="#444B8C"/>
<stop offset="0.9964" stop-color="#26264F"/>
</linearGradient>
<linearGradient id="paint5_linear" x1="49.4645" y1="104.728" x2="46.9963" y2="101.102" gradientUnits="userSpaceOnUse">
<stop stop-color="#FFC444"/>
<stop offset="0.9964" stop-color="#F36F56"/>
</linearGradient>
<linearGradient id="paint6_linear" x1="51.1058" y1="96.7261" x2="40.4619" y2="68.9045" gradientUnits="userSpaceOnUse">
<stop stop-color="#AA80F9"/>
<stop offset="0.9964" stop-color="#6165D7"/>
</linearGradient>
<linearGradient id="paint7_linear" x1="49.197" y1="97.4597" x2="38.5531" y2="69.6382" gradientUnits="userSpaceOnUse">
<stop stop-color="#AA80F9"/>
<stop offset="0.9964" stop-color="#6165D7"/>
</linearGradient>
<linearGradient id="paint8_linear" x1="44.328" y1="98.2378" x2="30.3537" y2="71.9417" gradientUnits="userSpaceOnUse">
<stop stop-color="#AA80F9"/>
<stop offset="0.9964" stop-color="#6165D7"/>
</linearGradient>
<linearGradient id="paint9_linear" x1="28.8285" y1="67.5748" x2="47.1533" y2="25.3851" gradientUnits="userSpaceOnUse">
<stop stop-color="#EA8328"/>
<stop offset="0.9964" stop-color="#E95927"/>
</linearGradient>
<linearGradient id="paint10_linear" x1="34.4508" y1="40.0021" x2="40.5528" y2="28.9011" gradientUnits="userSpaceOnUse">
<stop stop-color="#FFC444"/>
<stop offset="0.9964" stop-color="#F36F56"/>
</linearGradient>
<linearGradient id="paint11_linear" x1="35.085" y1="36.5941" x2="38.7209" y2="28.5829" gradientUnits="userSpaceOnUse">
<stop stop-color="#311944"/>
<stop offset="1" stop-color="#6B3976"/>
</linearGradient>
<linearGradient id="paint12_linear" x1="38.1916" y1="30.8332" x2="38.1819" y2="42.7831" gradientUnits="userSpaceOnUse">
<stop stop-color="#FFC444"/>
<stop offset="0.9964" stop-color="#F36F56"/>
</linearGradient>
<linearGradient id="paint13_linear" x1="36.0459" y1="37.0341" x2="39.6856" y2="29.0146" gradientUnits="userSpaceOnUse">
<stop stop-color="#311944"/>
<stop offset="1" stop-color="#6B3976"/>
</linearGradient>
<linearGradient id="paint14_linear" x1="39.4346" y1="32.2582" x2="39.1918" y2="33.7445" gradientUnits="userSpaceOnUse">
<stop stop-color="#FFC444"/>
<stop offset="1" stop-color="#F36F56"/>
</linearGradient>
<linearGradient id="paint15_linear" x1="31.6109" y1="68.1246" x2="50.9494" y2="23.601" gradientUnits="userSpaceOnUse">
<stop offset="0.0036" stop-color="#E38DDD"/>
<stop offset="1" stop-color="#9571F6"/>
</linearGradient>
<linearGradient id="paint16_linear" x1="50.6991" y1="55.4802" x2="44.0928" y2="50.4878" gradientUnits="userSpaceOnUse">
<stop offset="0.0036" stop-color="#26264F"/>
<stop offset="1" stop-color="#444B8C"/>
</linearGradient>
<linearGradient id="paint17_linear" x1="40.1123" y1="49.5681" x2="55.6023" y2="55.8611" gradientUnits="userSpaceOnUse">
<stop offset="0.0036" stop-color="#26264F"/>
<stop offset="1" stop-color="#444B8C"/>
</linearGradient>
<linearGradient id="paint18_linear" x1="48.2571" y1="52.1832" x2="48.1453" y2="42.7843" gradientUnits="userSpaceOnUse">
<stop stop-color="#AA80F9"/>
<stop offset="0.9964" stop-color="#6165D7"/>
</linearGradient>
<linearGradient id="paint19_linear" x1="40.3382" y1="53.5104" x2="37.5099" y2="60.6701" gradientUnits="userSpaceOnUse">
<stop stop-color="#FFC444"/>
<stop offset="0.9964" stop-color="#F36F56"/>
</linearGradient>
<linearGradient id="paint20_linear" x1="32.3933" y1="62.3228" x2="15.1088" y2="19.1574" gradientUnits="userSpaceOnUse">
<stop stop-color="#FFC444"/>
<stop offset="0.9964" stop-color="#F36F56"/>
</linearGradient>
<linearGradient id="paint21_linear" x1="96.941" y1="106.018" x2="99.458" y2="107.685" gradientUnits="userSpaceOnUse">
<stop stop-color="#444B8C"/>
<stop offset="0.9964" stop-color="#26264F"/>
</linearGradient>
<linearGradient id="paint22_linear" x1="99.3711" y1="107.707" x2="98.8177" y2="103.807" gradientUnits="userSpaceOnUse">
<stop stop-color="#AB316D"/>
<stop offset="1" stop-color="#792D3D"/>
</linearGradient>
<linearGradient id="paint23_linear" x1="97.1294" y1="105.731" x2="99.6464" y2="107.398" gradientUnits="userSpaceOnUse">
<stop stop-color="#444B8C"/>
<stop offset="0.9964" stop-color="#26264F"/>
</linearGradient>
<linearGradient id="paint24_linear" x1="80.9946" y1="107.267" x2="83.2547" y2="109.27" gradientUnits="userSpaceOnUse">
<stop stop-color="#444B8C"/>
<stop offset="0.9964" stop-color="#26264F"/>
</linearGradient>
<linearGradient id="paint25_linear" x1="83.165" y1="109.284" x2="83.165" y2="105.344" gradientUnits="userSpaceOnUse">
<stop stop-color="#AB316D"/>
<stop offset="1" stop-color="#792D3D"/>
</linearGradient>
<linearGradient id="paint26_linear" x1="82.98" y1="111.089" x2="97.771" y2="51.5837" gradientUnits="userSpaceOnUse">
<stop stop-color="#444B8C"/>
<stop offset="0.9964" stop-color="#26264F"/>
</linearGradient>
<linearGradient id="paint27_linear" x1="110.614" y1="41.4139" x2="59.1324" y2="72.0993" gradientUnits="userSpaceOnUse">
<stop offset="0.0036" stop-color="#E38DDD"/>
<stop offset="1" stop-color="#9571F6"/>
</linearGradient>
<linearGradient id="paint28_linear" x1="94.9759" y1="57.5423" x2="92.1328" y2="68.806" gradientUnits="userSpaceOnUse">
<stop stop-color="#FFC444"/>
<stop offset="0.9964" stop-color="#F36F56"/>
</linearGradient>
<linearGradient id="paint29_linear" x1="112.139" y1="43.9726" x2="60.6583" y2="74.6579" gradientUnits="userSpaceOnUse">
<stop offset="0.0036" stop-color="#E38DDD"/>
<stop offset="1" stop-color="#9571F6"/>
</linearGradient>
<linearGradient id="paint30_linear" x1="81.221" y1="107.011" x2="83.4812" y2="109.015" gradientUnits="userSpaceOnUse">
<stop stop-color="#444B8C"/>
<stop offset="0.9964" stop-color="#26264F"/>
</linearGradient>
<linearGradient id="paint31_linear" x1="88.3577" y1="37.3572" x2="89.2422" y2="45.3882" gradientUnits="userSpaceOnUse">
<stop stop-color="#FFC444"/>
<stop offset="0.9964" stop-color="#F36F56"/>
</linearGradient>
<linearGradient id="paint32_linear" x1="86.1885" y1="37.3088" x2="88.4535" y2="43.5368" gradientUnits="userSpaceOnUse">
<stop stop-color="#FFC444"/>
<stop offset="0.9964" stop-color="#F36F56"/>
</linearGradient>
<linearGradient id="paint33_linear" x1="66.3211" y1="114.197" x2="69.2857" y2="103.95" gradientUnits="userSpaceOnUse">
<stop stop-color="#444B8C"/>
<stop offset="0.9964" stop-color="#26264F"/>
</linearGradient>
<linearGradient id="paint34_linear" x1="68.9537" y1="112.174" x2="68.7265" y2="95.7697" gradientUnits="userSpaceOnUse">
<stop stop-color="#FFC444"/>
<stop offset="0.9964" stop-color="#F36F56"/>
</linearGradient>
<linearGradient id="paint35_linear" x1="62.9354" y1="112.256" x2="62.7082" y2="95.8526" gradientUnits="userSpaceOnUse">
<stop stop-color="#FFC444"/>
<stop offset="0.9964" stop-color="#F36F56"/>
</linearGradient>
<linearGradient id="paint36_linear" x1="61.8075" y1="112.893" x2="64.7723" y2="102.645" gradientUnits="userSpaceOnUse">
<stop stop-color="#444B8C"/>
<stop offset="0.9964" stop-color="#26264F"/>
</linearGradient>
<linearGradient id="paint37_linear" x1="69.8789" y1="76.7542" x2="71.8602" y2="110.629" gradientUnits="userSpaceOnUse">
<stop stop-color="#311944"/>
<stop offset="1" stop-color="#893976"/>
</linearGradient>
<linearGradient id="paint38_linear" x1="69.8789" y1="76.7542" x2="71.8602" y2="110.629" gradientUnits="userSpaceOnUse">
<stop stop-color="#311944"/>
<stop offset="1" stop-color="#893976"/>
</linearGradient>
<linearGradient id="paint39_linear" x1="47.1947" y1="91.4937" x2="74.6974" y2="89.8688" gradientUnits="userSpaceOnUse">
<stop stop-color="#311944"/>
<stop offset="1" stop-color="#893976"/>
</linearGradient>
<linearGradient id="paint40_linear" x1="88.0243" y1="98.1656" x2="67.8178" y2="56.6462" gradientUnits="userSpaceOnUse">
<stop stop-color="#FF9085"/>
<stop offset="1" stop-color="#FB6FBB"/>
</linearGradient>
<linearGradient id="paint41_linear" x1="58.061" y1="51.6932" x2="79.0097" y2="79.6565" gradientUnits="userSpaceOnUse">
<stop stop-color="#FF9085"/>
<stop offset="1" stop-color="#FB6FBB"/>
</linearGradient>
<linearGradient id="paint42_linear" x1="65.773" y1="44.1736" x2="69.3902" y2="49.828" gradientUnits="userSpaceOnUse">
<stop stop-color="#AB316D"/>
<stop offset="1" stop-color="#792D3D"/>
</linearGradient>
<linearGradient id="paint43_linear" x1="51.3459" y1="57.7774" x2="53.0953" y2="60.5122" gradientUnits="userSpaceOnUse">
<stop stop-color="#AB316D"/>
<stop offset="1" stop-color="#792D3D"/>
</linearGradient>
<linearGradient id="paint44_linear" x1="79.3229" y1="102.401" x2="59.116" y2="60.8808" gradientUnits="userSpaceOnUse">
<stop stop-color="#FF9085"/>
<stop offset="1" stop-color="#FB6FBB"/>
</linearGradient>
<linearGradient id="paint45_linear" x1="85.6532" y1="67.8404" x2="70.9165" y2="37.5602" gradientUnits="userSpaceOnUse">
<stop stop-color="#444B8C"/>
<stop offset="0.9964" stop-color="#26264F"/>
</linearGradient>
<linearGradient id="paint46_linear" x1="64.2561" y1="31.6234" x2="60.097" y2="32.9534" gradientUnits="userSpaceOnUse">
<stop stop-color="#FCB148"/>
<stop offset="0.0521" stop-color="#FDBA46"/>
<stop offset="0.1424" stop-color="#FFC244"/>
<stop offset="0.3183" stop-color="#FFC444"/>
<stop offset="0.4849" stop-color="#FDB946"/>
<stop offset="0.7754" stop-color="#F99C4D"/>
<stop offset="0.8658" stop-color="#F8924F"/>
<stop offset="1" stop-color="#F8924F"/>
</linearGradient>
<linearGradient id="paint47_linear" x1="67.6184" y1="27.4741" x2="63.8857" y2="35.6796" gradientUnits="userSpaceOnUse">
<stop stop-color="#FFDB44"/>
<stop offset="1" stop-color="#FEEF06"/>
</linearGradient>
<linearGradient id="paint48_linear" x1="66.9357" y1="36.146" x2="66.2148" y2="32.2217" gradientUnits="userSpaceOnUse">
<stop stop-color="#FCB148"/>
<stop offset="0.0521" stop-color="#FDBA46"/>
<stop offset="0.1424" stop-color="#FFC244"/>
<stop offset="0.3183" stop-color="#FFC444"/>
<stop offset="0.4849" stop-color="#FDB946"/>
<stop offset="0.7754" stop-color="#F99C4D"/>
<stop offset="0.8658" stop-color="#F8924F"/>
<stop offset="1" stop-color="#F8924F"/>
</linearGradient>
<linearGradient id="paint49_linear" x1="65.418" y1="29.7944" x2="68.3859" y2="36.0722" gradientUnits="userSpaceOnUse">
<stop stop-color="#FCB148"/>
<stop offset="0.0521" stop-color="#FDBA46"/>
<stop offset="0.1424" stop-color="#FFC244"/>
<stop offset="0.3183" stop-color="#FFC444"/>
<stop offset="0.4849" stop-color="#FDB946"/>
<stop offset="0.7754" stop-color="#F99C4D"/>
<stop offset="0.8658" stop-color="#F8924F"/>
<stop offset="1" stop-color="#F8924F"/>
</linearGradient>
<linearGradient id="paint50_linear" x1="65.3004" y1="28.4421" x2="66.794" y2="34.0198" gradientUnits="userSpaceOnUse">
<stop stop-color="#FFDB44"/>
<stop offset="1" stop-color="#FEEF06"/>
</linearGradient>
<linearGradient id="paint51_linear" x1="64.5499" y1="30.1994" x2="67.5119" y2="36.4645" gradientUnits="userSpaceOnUse">
<stop stop-color="#FCB148"/>
<stop offset="0.0521" stop-color="#FDBA46"/>
<stop offset="0.1424" stop-color="#FFC244"/>
<stop offset="0.3183" stop-color="#FFC444"/>
<stop offset="0.4849" stop-color="#FDB946"/>
<stop offset="0.7754" stop-color="#F99C4D"/>
<stop offset="0.8658" stop-color="#F8924F"/>
<stop offset="1" stop-color="#F8924F"/>
</linearGradient>
<linearGradient id="paint52_linear" x1="74.1593" y1="30.2961" x2="66.8454" y2="32.635" gradientUnits="userSpaceOnUse">
<stop stop-color="#FCB148"/>
<stop offset="0.0521" stop-color="#FDBA46"/>
<stop offset="0.1424" stop-color="#FFC244"/>
<stop offset="0.3183" stop-color="#FFC444"/>
<stop offset="0.4849" stop-color="#FDB946"/>
<stop offset="0.7754" stop-color="#F99C4D"/>
<stop offset="0.8658" stop-color="#F8924F"/>
<stop offset="1" stop-color="#F8924F"/>
</linearGradient>
<linearGradient id="paint53_linear" x1="80.0717" y1="22.9951" x2="73.5077" y2="37.4245" gradientUnits="userSpaceOnUse">
<stop stop-color="#FFDB44"/>
<stop offset="1" stop-color="#FEEF06"/>
</linearGradient>
<linearGradient id="paint54_linear" x1="78.8717" y1="38.2492" x2="77.6039" y2="31.3482" gradientUnits="userSpaceOnUse">
<stop stop-color="#FCB148"/>
<stop offset="0.0521" stop-color="#FDBA46"/>
<stop offset="0.1424" stop-color="#FFC244"/>
<stop offset="0.3183" stop-color="#FFC444"/>
<stop offset="0.4849" stop-color="#FDB946"/>
<stop offset="0.7754" stop-color="#F99C4D"/>
<stop offset="0.8658" stop-color="#F8924F"/>
<stop offset="1" stop-color="#F8924F"/>
</linearGradient>
<linearGradient id="paint55_linear" x1="76.202" y1="27.0818" x2="81.4211" y2="38.1213" gradientUnits="userSpaceOnUse">
<stop stop-color="#FCB148"/>
<stop offset="0.0521" stop-color="#FDBA46"/>
<stop offset="0.1424" stop-color="#FFC244"/>
<stop offset="0.3183" stop-color="#FFC444"/>
<stop offset="0.4849" stop-color="#FDB946"/>
<stop offset="0.7754" stop-color="#F99C4D"/>
<stop offset="0.8658" stop-color="#F8924F"/>
<stop offset="1" stop-color="#F8924F"/>
</linearGradient>
<linearGradient id="paint56_linear" x1="74.6755" y1="27.7977" x2="79.8841" y2="38.8149" gradientUnits="userSpaceOnUse">
<stop stop-color="#FCB148"/>
<stop offset="0.0521" stop-color="#FDBA46"/>
<stop offset="0.1424" stop-color="#FFC244"/>
<stop offset="0.3183" stop-color="#FFC444"/>
<stop offset="0.4849" stop-color="#FDB946"/>
<stop offset="0.7754" stop-color="#F99C4D"/>
<stop offset="0.8658" stop-color="#F8924F"/>
<stop offset="1" stop-color="#F8924F"/>
</linearGradient>
<linearGradient id="paint57_linear" x1="79.2547" y1="17.2213" x2="68.6507" y2="20.6122" gradientUnits="userSpaceOnUse">
<stop stop-color="#FCB148"/>
<stop offset="0.0521" stop-color="#FDBA46"/>
<stop offset="0.1424" stop-color="#FFC244"/>
<stop offset="0.3183" stop-color="#FFC444"/>
<stop offset="0.4849" stop-color="#FDB946"/>
<stop offset="0.7754" stop-color="#F99C4D"/>
<stop offset="0.8658" stop-color="#F8924F"/>
<stop offset="1" stop-color="#F8924F"/>
</linearGradient>
<linearGradient id="paint58_linear" x1="87.827" y1="6.63093" x2="78.3103" y2="27.5514" gradientUnits="userSpaceOnUse">
<stop stop-color="#FFDB44"/>
<stop offset="1" stop-color="#FEEF06"/>
</linearGradient>
<linearGradient id="paint59_linear" x1="86.0867" y1="28.752" x2="84.2486" y2="18.7465" gradientUnits="userSpaceOnUse">
<stop stop-color="#FCB148"/>
<stop offset="0.0521" stop-color="#FDBA46"/>
<stop offset="0.1424" stop-color="#FFC244"/>
<stop offset="0.3183" stop-color="#FFC444"/>
<stop offset="0.4849" stop-color="#FDB946"/>
<stop offset="0.7754" stop-color="#F99C4D"/>
<stop offset="0.8658" stop-color="#F8924F"/>
<stop offset="1" stop-color="#F8924F"/>
</linearGradient>
<linearGradient id="paint60_linear" x1="82.2167" y1="12.5503" x2="89.7836" y2="28.5558" gradientUnits="userSpaceOnUse">
<stop stop-color="#FCB148"/>
<stop offset="0.0521" stop-color="#FDBA46"/>
<stop offset="0.1424" stop-color="#FFC244"/>
<stop offset="0.3183" stop-color="#FFC444"/>
<stop offset="0.4849" stop-color="#FDB946"/>
<stop offset="0.7754" stop-color="#F99C4D"/>
<stop offset="0.8658" stop-color="#F8924F"/>
<stop offset="1" stop-color="#F8924F"/>
</linearGradient>
<linearGradient id="paint61_linear" x1="80.0036" y1="13.5859" x2="87.5552" y2="29.5592" gradientUnits="userSpaceOnUse">
<stop stop-color="#FCB148"/>
<stop offset="0.0521" stop-color="#FDBA46"/>
<stop offset="0.1424" stop-color="#FFC244"/>
<stop offset="0.3183" stop-color="#FFC444"/>
<stop offset="0.4849" stop-color="#FDB946"/>
<stop offset="0.7754" stop-color="#F99C4D"/>
<stop offset="0.8658" stop-color="#F8924F"/>
<stop offset="1" stop-color="#F8924F"/>
</linearGradient>
<linearGradient id="paint62_linear" x1="73.4649" y1="29.944" x2="75.6157" y2="29.7644" gradientUnits="userSpaceOnUse">
<stop stop-color="#FFDB44"/>
<stop offset="1" stop-color="#FEEF06"/>
</linearGradient>
<linearGradient id="paint63_linear" x1="75.5041" y1="29.5038" x2="78.7325" y2="29.2342" gradientUnits="userSpaceOnUse">
<stop stop-color="#FFDB44"/>
<stop offset="1" stop-color="#FEEF06"/>
</linearGradient>
<linearGradient id="paint64_linear" x1="78.9463" y1="29.0156" x2="80.7019" y2="28.869" gradientUnits="userSpaceOnUse">
<stop stop-color="#FFDB44"/>
<stop offset="1" stop-color="#FEEF06"/>
</linearGradient>
<linearGradient id="paint65_linear" x1="78.3022" y1="16.6687" x2="82.5168" y2="16.6687" gradientUnits="userSpaceOnUse">
<stop stop-color="#FFDB44"/>
<stop offset="1" stop-color="#FEEF06"/>
</linearGradient>
<linearGradient id="paint66_linear" x1="82.5173" y1="16.2431" x2="86.437" y2="16.2431" gradientUnits="userSpaceOnUse">
<stop stop-color="#FFDB44"/>
<stop offset="1" stop-color="#FEEF06"/>
</linearGradient>
<linearGradient id="paint67_linear" x1="86.2954" y1="15.632" x2="89.4322" y2="15.632" gradientUnits="userSpaceOnUse">
<stop stop-color="#FFDB44"/>
<stop offset="1" stop-color="#FEEF06"/>
</linearGradient>
</defs>
</svg>
