<svg width="87" height="87" viewBox="0 0 87 87" fill="none" xmlns="http://www.w3.org/2000/svg">
<path d="M22.4051 0.5H65.4416C77.3056 0.5 86.9233 10.1177 86.9233 21.9818V65.018C86.9233 76.8821 77.3056 86.4998 65.4416 86.4998H22.4051C10.541 86.5 0.92334 76.8823 0.92334 65.0182V21.9818C0.92334 10.1177 10.541 0.5 22.4051 0.5Z" fill="#F1F1F1"/>
<g clip-path="url(#clip0)">
<path d="M69.5532 30.5859L21.4863 41.0856L21.4971 54.9678L40.2811 66.0012L69.5675 49.1524L69.5532 30.5859Z" fill="#E2E2E2"/>
<path opacity="0.81" d="M69.7232 30.5586L39.9873 50.6281L21.4863 41.0846L35.4258 33.6251" fill="#B1B1B1"/>
<path d="M18 38.2431L35.7366 48.2604C41.1519 47.4085 46.3655 45.6058 51.1269 42.938C59.0576 38.4934 70 30.2337 70 30.2337L53.6906 21L30.6451 34.3559C30.6451 34.3559 24.2611 37.4062 18 38.2431Z" fill="#E2E2E2"/>
<path d="M20.0171 38.529L36.0492 47.601C41.1778 46.4884 46.115 44.6528 50.7061 42.152C57.8589 38.1372 67.7463 30.6716 67.7463 30.6716L52.9987 22.3086L32.1657 34.3788C28.2733 36.1693 24.202 37.5601 20.0171 38.529Z" stroke="#AEAEAE" stroke-miterlimit="10"/>
<path opacity="0.54" d="M39.9873 50.6282L39.9994 66.0002L69.5675 49.1514L69.9821 30.2344L39.9873 50.6282Z" fill="#B1B1B1"/>
<path opacity="0.54" d="M39.9873 50.6282L39.9994 66.0002L69.5675 49.1514L69.9821 30.2344L39.9873 50.6282Z" fill="#B1B1B1"/>
<path opacity="0.5" d="M41.5648 31.2837L52.5309 24.5977L64.5266 30.8069C64.5266 30.8069 52.0094 38.2392 51.0662 38.7572C50.1229 39.2751 39.7109 44.9003 35.1441 44.6584L24.6963 38.9697L41.5648 31.2837Z" fill="white"/>
<path opacity="0.54" d="M45.1597 40.6024C50.3815 40.6024 54.6146 38.6032 54.6146 36.1371C54.6146 33.671 50.3815 31.6719 45.1597 31.6719C39.9379 31.6719 35.7048 33.671 35.7048 36.1371C35.7048 38.6032 39.9379 40.6024 45.1597 40.6024Z" fill="#B1B1B1"/>
<path opacity="0.68" d="M21.4885 44.0015C24.6027 45.6351 27.708 47.2836 30.8043 48.9462C33.9006 50.6091 36.9938 52.2778 40.0843 53.9521H39.8875L47.2725 49.2056L54.6799 44.5203L62.1051 39.8391C64.5847 38.2799 67.0687 36.727 69.5572 35.1797C67.1224 36.7997 64.6804 38.4083 62.2303 40.0051L54.8717 44.792L47.4912 49.543L40.0932 54.2725L39.9993 54.3338L39.9009 54.2812C36.8167 52.592 33.7351 50.8883 30.6567 49.1701C27.5783 47.4519 24.5222 45.7289 21.4885 44.0015Z" fill="#B1B1B1"/>
<path opacity="0.68" d="M21.4912 47.6435C24.6054 49.2771 27.7107 50.9256 30.807 52.5882C33.9033 54.2511 36.9965 55.9198 40.087 57.5942H39.8902L47.2752 52.852L54.6825 48.1356L62.1078 43.4543C64.5842 41.9014 67.0683 40.3541 69.5599 38.8125C67.1251 40.4325 64.6831 42.0412 62.233 43.6379L54.8749 48.4253L47.4943 53.1762L40.0959 57.9145L40.002 57.9758L39.9036 57.9232C36.8194 56.234 33.7378 54.5303 30.6594 52.8121C27.581 51.0935 24.5249 49.3709 21.4912 47.6435Z" fill="#B1B1B1"/>
<path opacity="0.68" d="M21.5784 50.4243C24.6926 52.0579 27.7978 53.7065 30.8941 55.369C33.9905 57.0319 37.0836 58.7006 40.1741 60.375H39.9774L47.3619 55.6288L54.7693 50.9125L62.1945 46.2312C64.6741 44.6752 67.1594 43.1296 69.6511 41.5938C67.2162 43.2138 64.7742 44.8224 62.3242 46.4192L54.966 51.2061L47.586 55.957L40.1831 60.6953L40.0892 60.7566L39.9908 60.7041C36.9092 59.0148 33.8353 57.3124 30.7689 55.5973C27.7026 53.8817 24.6389 52.1574 21.5784 50.4243Z" fill="#B1B1B1"/>
<path opacity="0.68" d="M21.4956 53.1474C24.6098 54.781 27.7151 56.4295 30.8114 58.0921C33.9077 59.755 37.0009 61.4237 40.0914 63.0981H39.8946L47.2796 58.3515L54.6869 53.6351L62.1122 48.9539C64.5917 47.3978 67.0771 45.8523 69.5687 44.3164C67.1339 45.9364 64.6919 47.5451 62.2419 49.1419L54.8788 53.9423L47.4983 58.6933L40.0999 63.4184L40.006 63.4797L39.9076 63.4271C36.8233 61.7379 33.7418 60.0355 30.6633 58.3204C27.5854 56.6048 24.5293 54.8805 21.4956 53.1474Z" fill="#B1B1B1"/>
<path d="M32.5942 33.2152L51.127 42.9335L51.1399 59.7516L58.1139 55.6803L58.1005 38.4021L39.9707 28.9414L32.5942 33.2152Z" fill="#E95927"/>
<path d="M51.127 42.9338L58.1005 38.4023L58.1139 55.6805L51.1399 59.7519L51.127 42.9338Z" fill="#E01B22"/>
<path d="M63.144 30.9648C63.144 30.9648 63.352 34.098 60.8657 34.2925C60.8657 34.2925 62.9732 35.1672 63.3229 36.7841C63.3229 36.7841 63.5805 34.4967 65.7184 34.2583C64.157 33.9201 63.0707 32.5301 63.144 30.9648Z" fill="white"/>
</g>
<defs>
<clipPath id="clip0">
<rect width="52" height="45" fill="white" transform="translate(18 21)"/>
</clipPath>
</defs>
</svg>
