<svg width="213" height="209" viewBox="0 0 213 209" fill="none" xmlns="http://www.w3.org/2000/svg">
<path d="M72.1934 107.624H78.4373V113.868H84.6769V120.108H53.4835V113.868H59.723V101.384H72.2065V107.624H72.1934ZM153.294 163.765H159.525V157.525H153.294V163.765ZM78.4329 107.624H84.6725V101.384H78.4329V107.624ZM165.756 163.765H172V157.525H165.756V163.765ZM90.9164 170H103.387V163.76H90.9164V170ZM147.051 170V163.76H140.807V170H147.051ZM122.101 170H128.341V157.52H122.101V170ZM72.1934 88.9093V95.1491H90.9077V88.9093H72.1934ZM65.9626 95.1447V88.905H53.4791V101.384H59.7187V95.1447H65.9626ZM84.6725 82.6652H41.0088V39.0044H84.6725V82.6652ZM78.4329 45.2441H47.2396V76.4298H78.4329V45.2441ZM53.4791 157.525H72.189V138.81H53.4791V157.525ZM115.857 151.281V157.525H122.105V151.281H115.857ZM72.1934 51.4839H53.4835V70.1901H72.1934V51.4839ZM171.996 39.0044V82.6696H128.332V39.0044H171.996ZM165.756 45.2441H134.571V76.4298H165.756V45.2441ZM41 126.326H84.6681V169.991H41V126.326ZM47.2439 163.765H78.4373V132.57H47.2439V163.765ZM47.2439 88.9093H41V120.104H47.2439V88.9093ZM128.332 120.095V126.326H134.571V120.095H128.332ZM109.618 145.05V138.81H103.382V145.054H90.9121V157.538H103.382V163.778H109.618V151.294H115.862V145.054H109.618V145.05ZM90.9164 63.959H103.387V57.7105H90.9164V63.959ZM140.811 113.864H153.299V120.104H159.534V101.393H153.299V88.9093H147.051V107.624H128.349V113.868H134.589V120.108H140.828V113.868H140.811V113.864ZM147.051 132.57H140.807V126.326H134.567V138.81H115.857V145.054H128.345V157.538H134.585V163.778H140.824V151.294H165.769V145.054H147.059V132.57H147.051ZM147.051 132.57H153.299V120.095H147.051V132.57ZM97.1472 132.57V126.326H103.378V120.095H109.613V113.855H115.857V101.371H134.567V88.8875H128.327V95.1272H122.088V70.1769H115.848V57.693H122.088V39H115.848V51.4795H109.609V39H90.8989V51.4795H97.1385V45.2398H103.369V57.7105H109.609V76.4254H115.848V82.6652H109.609V95.1447H103.369V82.6652H97.1385V76.4298H90.8989V88.9093H97.1385V95.1491H90.8989V113.868H97.1385V101.384H103.369V113.868H97.1385V120.108H90.8989V138.81H103.369V132.57H97.1472ZM165.756 138.81V132.57H153.286V138.81H165.756ZM159.517 51.4839H140.811V70.1901H159.517V51.4839ZM109.618 132.57H122.105V126.326H115.857V120.095H109.613V132.57H109.618ZM122.101 120.095V113.855H115.853V120.095H122.101ZM159.517 95.1447H172V88.905H159.517V95.1447ZM165.756 145.05H172V138.81H165.756V145.05ZM165.756 107.624H172V101.384H165.756V107.624ZM109.618 76.4298H103.382V82.6696H109.618V76.4298Z" fill="#A4A4A4"/>
<path d="M2 4L2 0L25 0C26.1046 0 27 0.895431 27 2C27 3.10457 26.1046 4 25 4L2 4Z" fill="#A4A4A4"/>
<path d="M188 4C186.895 4 186 3.10457 186 2C186 0.895431 186.895 0 188 0L211 0V4L188 4Z" fill="#A4A4A4"/>
<path d="M2 0H6V23C6 24.1046 5.10457 25 4 25C2.89543 25 2 24.1046 2 23V0Z" fill="#A4A4A4"/>
<path d="M2 209L2 205H25C26.1046 205 27 205.895 27 207C27 208.105 26.1046 209 25 209H2Z" fill="#A4A4A4"/>
<path d="M188 209C186.895 209 186 208.105 186 207C186 205.895 186.895 205 188 205H211V209H188Z" fill="#A4A4A4"/>
<path d="M207 23C207 24.1046 207.895 25 209 25C210.105 25 211 24.1046 211 23V0H207V23Z" fill="#A4A4A4"/>
<path d="M6 209H2V186C2 184.895 2.89543 184 4 184C5.10457 184 6 184.895 6 186V209Z" fill="#A4A4A4"/>
<path d="M207 186C207 184.895 207.895 184 209 184C210.105 184 211 184.895 211 186V209H207V186Z" fill="#A4A4A4"/>
<rect y="100" width="213" height="4" rx="2" fill="#E74C3C"/>
</svg>
