<?xml version="1.0" encoding="utf-8"?>
<!-- Generator: Adobe Illustrator 24.0.1, SVG Export Plug-In . SVG Version: 6.00 Build 0)  -->
<svg version="1.1" id="Layer_1" xmlns="http://www.w3.org/2000/svg" xmlns:xlink="http://www.w3.org/1999/xlink" x="0px" y="0px"
	 viewBox="0 0 59 59" style="enable-background:new 0 0 59 59;" xml:space="preserve">
<style type="text/css">
	.st0{fill:#EFEFEF;}
	.st1{fill:#A91F23;}
</style>
<path class="st0" d="M29.5,0L29.5,0C45.8,0,59,13.2,59,29.5l0,0C59,45.8,45.8,59,29.5,59l0,0C13.2,59,0,45.8,0,29.5l0,0
	C0,13.2,13.2,0,29.5,0z"/>
<path class="st1" d="M39.1,27.6c-0.5,0-0.9-0.4-0.9-0.9v-4.1c0-0.5-0.4-0.8-0.8-0.8h-4.1c-0.5,0-0.9-0.4-0.9-0.9s0.4-0.9,0.9-0.9
	h4.1c1.4,0,2.6,1.2,2.6,2.6v4.1C40,27.2,39.6,27.6,39.1,27.6z"/>
<path class="st1" d="M19.9,27.6c-0.5,0-0.9-0.4-0.9-0.9v-4.1c0-1.4,1.2-2.6,2.6-2.6h4.1c0.5,0,0.9,0.4,0.9,0.9s-0.4,0.9-0.9,0.9
	h-4.1c-0.5,0-0.8,0.4-0.8,0.8v4.1C20.8,27.2,20.4,27.6,19.9,27.6z"/>
<path class="st1" d="M37.4,41h-4.1c-0.5,0-0.9-0.4-0.9-0.9s0.4-0.9,0.9-0.9h4.1c0.5,0,0.8-0.4,0.8-0.8v-4.1c0-0.5,0.4-0.9,0.9-0.9
	s0.9,0.4,0.9,0.9v4.1C40,39.8,38.8,41,37.4,41z"/>
<path class="st1" d="M25.7,41h-4.1c-1.4,0-2.6-1.2-2.6-2.6v-4.1c0-0.5,0.4-0.9,0.9-0.9s0.9,0.4,0.9,0.9v4.1c0,0.5,0.4,0.8,0.8,0.8
	h4.1c0.5,0,0.9,0.4,0.9,0.9S26.2,41,25.7,41z"/>
<path class="st1" d="M27.3,29.8h-4.4c-0.5,0-0.9-0.4-0.9-0.9v-5c0-0.5,0.4-0.9,0.9-0.9h4.4c0.5,0,0.9,0.4,0.9,0.9v5
	C28.2,29.4,27.8,29.8,27.3,29.8z M23.8,28h2.6v-3.2h-2.6V28z"/>
<path class="st1" d="M36.1,37.9h-4.2c-0.5,0-0.9-0.4-0.9-0.9v-2.8c0-0.5,0.4-0.9,0.9-0.9c0.5,0,0.9,0.4,0.9,0.9v1.9h2.4v-2.6h-1
	c-0.5,0-0.9-0.4-0.9-0.9s0.4-0.9,0.9-0.9h1.9c0.5,0,0.9,0.4,0.9,0.9v4.4C36.9,37.5,36.5,37.9,36.1,37.9z"/>
<path class="st1" d="M36.1,28.4h-3.6c-0.5,0-0.9-0.4-0.9-0.9v-3.6c0-0.5,0.4-0.9,0.9-0.9h3.6c0.5,0,0.9,0.4,0.9,0.9v3.6
	C36.9,28,36.5,28.4,36.1,28.4z M33.4,26.6h1.8v-1.8h-1.8V26.6z"/>
<path class="st1" d="M29.9,32.4h-7c-0.5,0-0.9-0.4-0.9-0.9s0.4-0.9,0.9-0.9H29v-5.9c0-0.5,0.4-0.9,0.9-0.9c0.5,0,0.9,0.4,0.9,0.9
	v6.8C30.8,32,30.4,32.4,29.9,32.4z"/>
<path class="st1" d="M32.3,32.2c-0.5,0-0.9-0.4-0.9-0.9v-1.2c0-0.5,0.4-0.9,0.9-0.9h3.9c0.5,0,0.9,0.4,0.9,0.9S36.8,31,36.3,31h-3.1
	v0.3C33.2,31.8,32.8,32.2,32.3,32.2z"/>
<path class="st1" d="M29.5,36.8c-0.5,0-0.9-0.4-0.9-0.9v-2c0-0.5,0.4-0.9,0.9-0.9c0.5,0,0.9,0.4,0.9,0.9v2
	C30.4,36.4,30,36.8,29.5,36.8z"/>
<path class="st1" d="M27.1,37.9h-4.2c-0.5,0-0.9-0.4-0.9-0.9v-3.2c0-0.5,0.4-0.9,0.9-0.9h4.2c0.5,0,0.9,0.4,0.9,0.9v3.2
	C28,37.5,27.6,37.9,27.1,37.9z M23.8,36.2h2.4v-1.4h-2.4V36.2z"/>
</svg>
