<?xml version="1.0" encoding="utf-8"?>
<!-- Generator: Adobe Illustrator 24.0.1, SVG Export Plug-In . SVG Version: 6.00 Build 0)  -->
<svg version="1.1" id="Layer_1" xmlns="http://www.w3.org/2000/svg" xmlns:xlink="http://www.w3.org/1999/xlink" x="0px" y="0px"
	 viewBox="0 0 59 59" style="enable-background:new 0 0 59 59;" xml:space="preserve">
<style type="text/css">
	.st0{fill:#EFEFEF;}
	.st1{fill:#A91F23;}
	.st2{fill-rule:evenodd;clip-rule:evenodd;fill:#A91F23;}
</style>
<path class="st0" d="M29.5,0L29.5,0C45.8,0,59,13.2,59,29.5l0,0C59,45.8,45.8,59,29.5,59l0,0C13.2,59,0,45.8,0,29.5l0,0
	C0,13.2,13.2,0,29.5,0z"/>
<path class="st1" d="M33.7,45H26c-1,0-1.8-0.8-1.8-1.8V30.9h1.5v12.3c0,0.1,0.1,0.3,0.3,0.3h7.7c0.1,0,0.3-0.1,0.3-0.3V30.9h1.5
	v12.3C35.5,44.2,34.7,45,33.7,45z"/>
<path class="st1" d="M29.9,38.8c-1.1,0-2.1-0.9-2.1-2.1s0.9-2.1,2.1-2.1c1.1,0,2.1,0.9,2.1,2.1S31,38.8,29.9,38.8z M29.9,36.3
	c-0.3,0-0.5,0.2-0.5,0.5s0.2,0.5,0.5,0.5c0.3,0,0.5-0.2,0.5-0.5S30.1,36.3,29.9,36.3z"/>
<path class="st1" d="M29.1,40.9h1.5v1.3h-1.5V40.9z"/>
<path class="st1" d="M23.5,30.1h12.8v1.5H23.5V30.1z"/>
<path class="st1" d="M42.4,30h-3.8c-1.7,0-3.1-1.4-3.1-3.1c0-1.7,1.4-3.1,3.1-3.1h3.8c0.4,0,0.8,0.3,0.8,0.8v4.6
	C43.1,29.7,42.8,30,42.4,30z M38.6,25.4c-0.8,0-1.5,0.7-1.5,1.5c0,0.8,0.7,1.5,1.5,1.5h3.1v-3.1H38.6z"/>
<path class="st2" d="M37.7,36.7h0.6c1.6,0,2.8-1.3,2.8-2.8v-4.6h-1.5v4.6c0,0.7-0.6,1.3-1.3,1.3h-0.6V36.7z M21.9,36.7h-0.5
	c-1.6,0-2.8-1.3-2.8-2.8V21c0-1.6,1.3-2.8,2.8-2.8h16.9c1.6,0,2.8,1.3,2.8,2.8v3.6h-1.5V21c0-0.7-0.6-1.3-1.3-1.3H21.4
	c-0.7,0-1.3,0.6-1.3,1.3v12.8c0,0.7,0.6,1.3,1.3,1.3h0.5V36.7z"/>
</svg>
