<svg width="59" height="59" viewBox="0 0 59 59" fill="none" xmlns="http://www.w3.org/2000/svg">
<rect width="59" height="59" rx="29.5" fill="#EFEFEF"/>
<path d="M18.5439 29.9255H43.2363C44.2891 29.9255 45.15 29.083 45.15 28.042V23.4193C45.15 22.3783 44.2891 21.5358 43.2363 21.5358H18.5439C17.4911 21.5358 16.6302 22.3783 16.6302 23.4193V28.042C16.6302 29.083 17.4911 29.9255 18.5439 29.9255ZM18.106 23.4193C18.106 23.1858 18.3007 22.9915 18.5439 22.9915H43.2363C43.4794 22.9915 43.6742 23.1858 43.6742 23.4193V28.042C43.6742 28.2755 43.4794 28.4698 43.2363 28.4698H18.5439C18.3007 28.4698 18.106 28.2755 18.106 28.042V23.4193Z" fill="#B84016" stroke="#B84016" stroke-width="0.3"/>
<path d="M30.8906 22.7775C30.8853 22.7776 30.8799 22.7776 30.8746 22.7776C30.8216 22.7776 30.7689 22.7717 30.7167 22.7601C30.3497 22.6786 29.2378 22.4225 28.094 22.0639C27.5222 21.8846 26.9396 21.6788 26.4369 21.4552C25.9384 21.2336 25.5028 20.9877 25.238 20.723C24.6609 20.1483 24.3436 19.3814 24.3436 18.5666C24.3436 17.7518 24.661 16.985 25.2367 16.4092C26.4265 15.2193 28.3615 15.2192 29.5502 16.4092C29.8149 16.6737 30.0607 17.1093 30.2824 17.6078C30.5056 18.1098 30.7111 18.6916 30.8902 19.2629C31.0692 18.6921 31.2745 18.1107 31.4975 17.609C31.7192 17.1103 31.9649 16.6745 32.2296 16.4097L30.8906 22.7775ZM30.8906 22.7775C30.8959 22.7776 30.9013 22.7776 30.9066 22.7776C30.9596 22.7776 31.0108 22.7718 31.061 22.7623L31.061 22.7623L31.0656 22.7613C31.4326 22.6797 32.5443 22.4237 33.6879 22.0649C34.2596 21.8856 34.8421 21.6798 35.3447 21.4563C35.8432 21.2345 36.2788 20.9886 36.5435 20.7239C37.1192 20.148 37.4366 19.3811 37.4366 18.5662C37.4366 17.7514 37.1193 16.9845 36.5424 16.4097C35.3541 15.2197 33.4193 15.2185 32.2297 16.4097L30.8906 22.7775ZM29.2323 18.9241C29.4631 19.571 29.6901 20.3332 29.8808 21.0549C29.1592 20.8646 28.3971 20.6377 27.7503 20.4067C27.3896 20.2779 27.0671 20.1487 26.8083 20.0249C26.5454 19.899 26.3628 19.7853 26.2692 19.6917C25.9688 19.3902 25.8037 18.992 25.8037 18.5666C25.8037 18.1412 25.9689 17.743 26.2693 17.4415C26.5785 17.1322 26.9864 16.9773 27.394 16.9773C27.8017 16.9773 28.2094 17.1323 28.5174 17.4424L28.5177 17.4428C28.6113 17.5364 28.7249 17.7189 28.8508 17.982C28.9745 18.2408 29.1036 18.5633 29.2323 18.9241ZM35.5103 19.69L35.5101 19.6902C35.4165 19.7838 35.234 19.8975 34.971 20.0234C34.7123 20.1473 34.3898 20.2765 34.0292 20.4053C33.3825 20.6363 32.6205 20.8633 31.8991 21.0536C32.0898 20.3318 32.3167 19.5695 32.5475 18.9225C32.6762 18.5617 32.8052 18.2391 32.929 17.9803C33.0548 17.7172 33.1684 17.5346 33.2619 17.441C33.5712 17.1317 33.979 16.9767 34.3866 16.9767C34.7941 16.9767 35.2019 17.1316 35.5112 17.441C35.8115 17.7425 35.9766 18.1408 35.9766 18.5662C35.9766 18.9917 35.8115 19.3898 35.5103 19.69Z" fill="#B84016" stroke="#B84016" stroke-width="0.3"/>
<path fill-rule="evenodd" clip-rule="evenodd" d="M19.1299 29.1639V37.0723C19.1299 38.6914 20.447 40.0096 22.0672 40.0096H39.6912C41.3115 40.0096 42.6286 38.6914 42.6286 37.0723V29.1639H41.4536V37.0723C41.4536 38.044 40.6629 38.8347 39.6912 38.8347H22.0672C21.0956 38.8347 20.3048 38.044 20.3048 37.0723V29.1639H19.1299Z" fill="#B84016"/>
<path d="M19.1299 29.1639V28.8639H18.8299V29.1639H19.1299ZM42.6286 29.1639H42.9286V28.8639H42.6286V29.1639ZM41.4536 29.1639V28.8639H41.1536V29.1639H41.4536ZM20.3048 29.1639H20.6048V28.8639H20.3048V29.1639ZM19.4299 37.0723V29.1639H18.8299V37.0723H19.4299ZM22.0672 39.7096C20.6128 39.7096 19.4299 38.5258 19.4299 37.0723H18.8299C18.8299 38.857 20.2812 40.3096 22.0672 40.3096V39.7096ZM39.6912 39.7096H22.0672V40.3096H39.6912V39.7096ZM42.3286 37.0723C42.3286 38.5258 41.1457 39.7096 39.6912 39.7096V40.3096C41.4772 40.3096 42.9286 38.857 42.9286 37.0723H42.3286ZM42.3286 29.1639V37.0723H42.9286V29.1639H42.3286ZM42.6286 28.8639H41.4536V29.4639H42.6286V28.8639ZM41.7536 37.0723V29.1639H41.1536V37.0723H41.7536ZM39.6912 39.1347C40.8286 39.1347 41.7536 38.2097 41.7536 37.0723H41.1536C41.1536 37.8783 40.4972 38.5347 39.6912 38.5347V39.1347ZM22.0672 39.1347H39.6912V38.5347H22.0672V39.1347ZM20.0048 37.0723C20.0048 38.2097 20.9299 39.1347 22.0672 39.1347V38.5347C21.2613 38.5347 20.6048 37.8783 20.6048 37.0723H20.0048ZM20.0048 29.1639V37.0723H20.6048V29.1639H20.0048ZM20.3048 28.8639H19.1299V29.4639H20.3048V28.8639Z" fill="#B84016"/>
<path fill-rule="evenodd" clip-rule="evenodd" d="M27.3546 29.1617V34.7224C27.3546 34.9479 27.4838 35.1536 27.6871 35.2511C27.8915 35.3486 28.1312 35.3204 28.3086 35.1806L30.8794 33.1244L33.4501 35.1818C33.5559 35.2663 33.6863 35.3098 33.8167 35.3098C33.9025 35.3098 33.9894 35.291 34.0717 35.2522C34.2749 35.1536 34.4042 34.9479 34.4042 34.7224V29.1617H33.2292V33.4993L31.2471 31.9131C31.0309 31.7416 30.729 31.7416 30.5128 31.9131L28.5295 33.4993V29.1617H27.3546Z" fill="#B84016"/>
</svg>
