<?xml version="1.0" encoding="utf-8"?>
<!-- Generator: Adobe Illustrator 24.0.1, SVG Export Plug-In . SVG Version: 6.00 Build 0)  -->
<svg version="1.1" id="Layer_1" xmlns="http://www.w3.org/2000/svg" xmlns:xlink="http://www.w3.org/1999/xlink" x="0px" y="0px"
	 viewBox="0 0 59 59" style="enable-background:new 0 0 59 59;" xml:space="preserve">
<style type="text/css">
	.st0{fill:#EFEFEF;}
	.st1{fill:#A91F23;}
</style>
<path class="st0" d="M29.5,0L29.5,0C45.8,0,59,13.2,59,29.5l0,0C59,45.8,45.8,59,29.5,59l0,0C13.2,59,0,45.8,0,29.5l0,0
	C0,13.2,13.2,0,29.5,0z"/>
<path class="st1" d="M35.2,44c-3.7,0-6.8-3-6.8-6.8c0-3.7,3-6.8,6.8-6.8c3.7,0,6.8,3,6.8,6.8C42,41,39,44,35.2,44z M35.2,32
	c-2.9,0-5.2,2.3-5.2,5.2c0,2.9,2.3,5.2,5.2,5.2c2.9,0,5.2-2.3,5.2-5.2C40.4,34.4,38.1,32,35.2,32z"/>
<path class="st1" d="M26.7,35.7h-6.8c-1.6,0-2.9-1.3-2.9-2.9V21.9c0-1.6,1.3-2.9,2.9-2.9h19.3c1.6,0,2.9,1.3,2.9,2.9v8.9h-1.6v-8.9
	c0-0.7-0.6-1.3-1.3-1.3H19.9c-0.7,0-1.3,0.6-1.3,1.3v10.9c0,0.7,0.6,1.3,1.3,1.3h6.8V35.7z"/>
<path class="st1" d="M20.9,22.1h2.6v1.6h-2.6V22.1z"/>
<path class="st1" d="M29.5,30.5c-1.7,0-3.1-1.4-3.1-3.1c0-1.7,1.4-3.1,3.1-3.1s3.1,1.4,3.1,3.1C32.6,29.1,31.2,30.5,29.5,30.5z
	 M29.5,25.8c-0.9,0-1.6,0.7-1.6,1.6c0,0.9,0.7,1.6,1.6,1.6s1.6-0.7,1.6-1.6C31.1,26.5,30.4,25.8,29.5,25.8z"/>
<path class="st1" d="M34.2,40.1c-0.2,0-0.4-0.1-0.6-0.2l-2.1-2.1l1.1-1.1l1.5,1.5l3.1-3.5l1.2,1l-3.6,4.2
	C34.6,40,34.4,40.1,34.2,40.1C34.2,40.1,34.2,40.1,34.2,40.1z"/>
</svg>
