<svg width="80" height="81" viewBox="0 0 80 81" fill="none" xmlns="http://www.w3.org/2000/svg">
<path d="M44.845 11.0092H67.69L69.93 9.2192C71.545 7.9292 72.145 5.8392 71.465 3.8892C70.78 1.9392 69.005 0.679199 66.945 0.679199H45.59C43.53 0.679199 41.755 1.9392 41.07 3.8892C40.385 5.8392 40.99 7.9342 42.605 9.2192L44.845 11.0092Z" fill="#A91F23"/>
<path d="M1.64 40.6842C0.73 40.7042 0 41.4442 0 42.3542V72.3492C0 73.2692 0.745001 74.0142 1.665 74.0142H8.74C9.485 74.0142 10.14 73.5192 10.345 72.8042L17.72 46.8092C18.195 45.1292 17.295 43.3642 15.655 42.7692C12.635 41.6642 8 40.5792 1.64 40.6842Z" fill="#A91F23"/>
<path d="M38.915 46.8692C39.285 47.0842 39.6649 47.3042 40.0599 47.5292L40.42 47.5792C45.605 48.3242 55.79 49.7792 57.93 56.9692H62.03C66.16 55.3042 70.025 54.0092 73.33 54.0092C73.605 54.0092 73.86 54.0592 74.13 54.0742C78.13 50.9792 79.995 45.8242 79.995 40.6942C79.995 32.5492 75.34 22.6742 69.08 16.1392H43.72C37.395 22.9742 33.33 33.2392 33.33 40.6942C33.33 41.8492 33.435 43.0042 33.625 44.1342C35.585 44.9592 37.24 45.8992 38.915 46.8692Z" fill="#A91F23"/>
<path d="M73.3351 59.0142C66.6701 59.0142 53.3351 67.4542 46.6701 67.4542C40.0051 67.4542 32.5001 62.3442 32.5001 62.3442C32.5001 62.3442 41.4801 64.0092 46.6651 64.0092C51.8501 64.0092 53.3301 62.2392 53.3301 59.8442C53.3301 54.0092 43.4201 53.1042 38.4101 52.3442C33.4901 49.6042 30.9351 47.4392 22.7851 46.7492C22.7351 47.2242 22.6601 47.6942 22.5301 48.1692L15.8351 71.7692C23.4201 75.2142 36.4801 80.6792 43.3351 80.6792C53.3351 80.6792 80.0001 67.3442 80.0001 64.0142C80.0001 60.6792 76.6651 59.0142 73.3351 59.0142Z" fill="#A91F23"/>
</svg>
