<?xml version="1.0" encoding="utf-8"?>
<!-- Generator: Adobe Illustrator 24.0.1, SVG Export Plug-In . SVG Version: 6.00 Build 0)  -->
<svg version="1.1" id="Layer_1" xmlns="http://www.w3.org/2000/svg" xmlns:xlink="http://www.w3.org/1999/xlink" x="0px" y="0px"
	 viewBox="0 0 65 65" style="enable-background:new 0 0 65 65;" xml:space="preserve">
<style type="text/css">
	.st0{fill:#FFFFFF;}
	.st1{fill:#A91F23;}
</style>
<path class="st0" d="M32.5,65C50.4,65,65,50.4,65,32.5S50.4,0,32.5,0S0,14.6,0,32.5S14.6,65,32.5,65z"/>
<path class="st1" d="M48.7,18.3c-0.3-0.3-0.9-0.3-1.2,0l-8.1,8.1c-1-0.5-2.2-0.3-3,0.5c-1,1-1,2.7,0,3.7c1,1,2.7,1,3.7,0
	c0.8-0.8,1-2,0.5-3l8.1-8.1C49.1,19.1,49.1,18.6,48.7,18.3z M41.3,31.8c-1.7,1.7-4.5,1.7-6.2,0c-1.7-1.7-1.7-4.5,0-6.2
	c1-1,2.4-1.4,3.7-1.2l2.7-2.7h-7c-0.1,0-0.2,0-0.3,0.1c-0.1,0-0.2,0.1-0.3,0.2L18.3,37.6c-0.3,0.3-0.3,0.9,0,1.2l9.9,9.9
	c0.3,0.3,0.9,0.3,1.2,0L45,33.1c0.1-0.1,0.1-0.2,0.2-0.3c0-0.1,0.1-0.2,0.1-0.3v-7l-2.7,2.7C42.8,29.5,42.3,30.8,41.3,31.8
	L41.3,31.8z"/>
</svg>
