<?xml version="1.0" encoding="utf-8"?>
<!-- Generator: Adobe Illustrator 24.0.1, SVG Export Plug-In . SVG Version: 6.00 Build 0)  -->
<svg version="1.1" id="Layer_1" xmlns="http://www.w3.org/2000/svg" xmlns:xlink="http://www.w3.org/1999/xlink" x="0px" y="0px"
	 viewBox="0 0 400 300" style="enable-background:new 0 0 400 300;" xml:space="preserve">
<style type="text/css">
	.st0{fill:#F4E4D9;}
	.st1{fill:url(#SVGID_1_);}
	.st2{fill:url(#SVGID_2_);}
	.st3{fill:url(#SVGID_3_);}
	.st4{fill:#282B4E;}
	.st5{fill:#FFFFFF;}
	.st6{fill:#FFAC99;}
	.st7{fill:#FFC36C;}
	.st8{fill:#3129A3;}
	.st9{fill:#D86044;}
	.st10{fill:#EA7554;}
	.st11{fill:#311E69;}
	.st12{opacity:0.36;fill:#606060;enable-background:new    ;}
	.st13{fill:#EEAD97;}
	.st14{fill:#C24327;}
	.st15{fill:#328E99;}
	.st16{fill:url(#SVGID_4_);}
	.st17{fill:url(#SVGID_5_);}
	.st18{fill:url(#SVGID_6_);}
	.st19{fill:url(#SVGID_7_);}
	.st20{fill:#77689B;}
	.st21{fill:#E09B41;}
	.st22{fill:none;}
	.st23{fill:#F2F2F2;}
	.st24{fill:url(#SVGID_8_);}
	.st25{fill:url(#SVGID_9_);}
	.st26{fill:#5ED18D;}
	.st27{fill:#146666;}
</style>
<title>121-130</title>
<g id="Layer_2_1_">
	<polygon class="st0" points="67.3,190.6 219.8,278.7 343.9,206.1 192.5,118.5 	"/>
	
		<linearGradient id="SVGID_1_" gradientUnits="userSpaceOnUse" x1="254.8881" y1="194.8633" x2="162.3181" y2="82.4733" gradientTransform="matrix(1 0 0 -1 0 300)">
		<stop  offset="0" style="stop-color:#8C6239"/>
		<stop  offset="1" style="stop-color:#FFFFFF"/>
	</linearGradient>
	<path class="st1" d="M191.2,141.2c-13.8,8.7-84.3,54-99.8,62.6c-0.2,0.1-0.3,0.4-0.2,0.6c0,0.1,0.1,0.1,0.2,0.2l72.2,41.7
		c0.1,0.1,0.3,0.1,0.4,0l111.6-66c-0.8-11,0.3,0.2,0,0c-10.8-5.4-76.5-32.4-83.8-38.9C191.5,141.1,191.3,141.1,191.2,141.2z"/>
	
		<linearGradient id="SVGID_2_" gradientUnits="userSpaceOnUse" x1="156.2057" y1="144.2653" x2="123.3757" y2="104.4053" gradientTransform="matrix(1 0 0 -1 0 300)">
		<stop  offset="0" style="stop-color:#8C6239"/>
		<stop  offset="1" style="stop-color:#FFFFFF"/>
	</linearGradient>
	<path class="st2" d="M147.1,167.2c-13.3,8.4-33.1,17.7-47.2,25.3l21.7,16.5l40.3-28.5C154.2,176.8,153.1,173.1,147.1,167.2z"/>
	
		<linearGradient id="SVGID_3_" gradientUnits="userSpaceOnUse" x1="269.5896" y1="84.6086" x2="238.8396" y2="47.2686" gradientTransform="matrix(1 0 0 -1 0 300)">
		<stop  offset="0" style="stop-color:#8C6239"/>
		<stop  offset="1" style="stop-color:#FFFFFF"/>
	</linearGradient>
	<path class="st3" d="M257.8,231.3c-13.3,8.4-28.2,9.9-42.2,17.4l21.7,16.5l39.5-26.2C269.1,235.4,263.8,237.2,257.8,231.3z"/>
	<polyline class="st4" points="181.4,48.7 178.9,36.6 195.4,33.4 200.3,58.3 183.1,61.7 	"/>
	<polygon class="st5" points="190.3,40.1 189.6,36.6 194.4,35.7 195.8,42.9 191.2,43.8 	"/>
	<circle class="st5" cx="185.2" cy="42.3" r="3.5"/>
	<path class="st6" d="M175.9,57.2c0,0,0.8-5.1,1.2-6.5s2.6-3.8,3.6-4.8c1.3-1.1,4.3-2.9,4.4-1.7s-3.1,4.4-3.1,4.4s1,5.2,0.4,7.7
		c-0.4,1.5-1.1,2.8-2,4"/>
	<path class="st7" d="M174.6,56.8c-2.5,2.9-6.7,9-6.7,9c-2.4-4.4-4.5-9.1-6.2-13.8c-2.1-6.3-7.2-6.4-7.2-6.4l3.5,28.4
		c2.6,3.5,7.3,4.7,11.3,3c6-2.3,11.6-12.5,12.8-17.2C179.8,58.4,177.2,57.4,174.6,56.8z"/>
	<path class="st8" d="M147.7,188.2c-0.7-1.8-2.5-3.4-3.8-4.8c-1.5-1.4-2.5-3.2-3-5.2c-0.2-1,1.1-14.1,1.4-14
		c-3.3-0.7-8.2-2.1-9.9-5.1c-1.3,6.2-4.1,20.4-3.7,21.2c0.5,1,3.2,2.5,3.2,2.5l0.9-7.7l0.2,7.6c0.2,0.6,0.5,1.2,1,1.7
		c0.8,0.7,1.6,1.3,2.6,1.7c1.7,1.1,3.6,2,5.5,2.7c1.4,0.4,4.6,1.2,5.5-0.4L147.7,188.2z"/>
	<path class="st8" d="M161.8,180.3c-0.7-1.8-2.5-3.4-3.8-4.8c-1.5-1.4-2.5-3.2-3-5.2c-0.2-1,1.1-14.1,1.4-14
		c-3.3-0.7-8.2-2.1-9.9-5.1c-1.3,6.2-4.1,20.4-3.7,21.2c0.5,1,3.2,2.5,3.2,2.5l0.9-7.7l0.2,7.6c0.2,0.6,0.5,1.2,1,1.7
		c0.8,0.7,1.6,1.3,2.6,1.7c1.7,1.1,3.6,2,5.5,2.7c1.4,0.4,4.6,1.2,5.5-0.4L161.8,180.3z"/>
	<path class="st9" d="M159.6,85.2c-11.5-1.1-14.3-3.2-15.2,6.3c3.7,1.4,2.8,36.8,2.8,36.8c-2.3,9.6-4.2,24-4.2,24.1
		c-0.8,6.1,13.8,15.3,16.1,6.8c1.6-11.1,2.6-22.3,3.7-33.5c0.5-5.4,0.8-10.9,0.9-16.3C162.8,101.2,161,93.3,159.6,85.2z"/>
	<path class="st10" d="M154.4,92.4c0.2-3.9-3.6-5-6.8-5.2c-2.4-0.1-4.7,0.1-7.1,0.5c-1.2,0.2-2.5,0.3-3.8,0.5
		c-0.7,0.1-1.4,0.2-2.1,0.5c-1.1,0.6-0.8,2.1-0.8,3.1c0,2,0.1,4,0.2,6.1c0.1,4.6,0.3,9.1,0.4,13.7s-0.2,9.3-0.2,13.9
		c-0.4,5.7-1.5,11.3-2.1,16.9c-0.7,6.9-1.3,13.9-1.7,20.8c2.2,2.2,5.2,3.6,8.3,4c2.2,0.4,4.5,0.1,6.6-0.7c3.3-10.4,7.4-36.2,9-47.8
		C156.1,106.7,154.4,92.4,154.4,92.4z"/>
	<path class="st7" d="M160.4,62.6c-0.3-8.2-0.6-20.3-12.1-17.6c-0.2,0.1-0.5,0.1-0.7,0c-3.6,1.5-6.7,3.8-9.2,6.8
		c-5.6,7.1-4.5,38.6-4.5,38.6c8.7,3.3,18.5,2.4,26.5-2.3C160.5,79.6,160.7,71.1,160.4,62.6z"/>
	<path class="st7" d="M148.8,101.3c2.5-1.5,4.8-3.2,6.9-5.1c-2.1-5.6-9.5-22-10.5-28.9c-1.3-8.4-0.6-11.8-0.5-12.3l-11.4-0.3
		c-6,22.7,7.3,41.4,12.4,48.4C146,102.9,148.4,101.6,148.8,101.3z"/>
	<path class="st11" d="M271.5,117.9l-2.7,2.8c-0.2,1.1-0.8,2.1-1.6,2.8c-0.4,0.4-0.8,0.7-1.2,1l8.6,58.3c0.2,1.8,1.7,3.1,3.5,2.9
		c1.8-0.2,3.1-1.7,2.9-3.5c0-0.1,0-0.2-0.1-0.4L271.5,117.9z"/>
	<path class="st11" d="M127.5,118.4l-19.6,71.1c-0.4,1.7,0.7,3.4,2.4,3.8c1.6,0.3,3.2-0.6,3.7-2.1l21.3-77.3
		C132.9,115.7,130.3,117.2,127.5,118.4z"/>
	<path class="st11" d="M194,125.8l1.1,0.1c1.5,0.1,2.6,1.4,2.4,2.9l-8.3,104.5c-0.1,1.5-1.4,2.6-2.9,2.4l-1.1-0.1
		c-1.5-0.1-2.6-1.4-2.4-2.9l8.3-104.5C191.2,126.8,192.5,125.7,194,125.8z"/>
	<path class="st4" d="M289.3,121.2l-76.8-44.5c-3.5-2-7.8-2-11.4,0L111,128.6c-0.5,0.3-1,0.7-1.4,1.2l-1.2-1.2v4.2
		c0,0.3,0,0.6,0,0.9l0,0l0,0c0.1,1.7,1.1,3.3,2.6,4.1l86.1,49.7c3.5,2,7.8,2,11.4,0l80.9-46.7c5.4-3.1,7.3-10.1,4.1-15.5
		C292.4,123.6,291,122.1,289.3,121.2z"/>
	<path class="st12" d="M289.3,121.2l-76.8-44.5c-3.5-2-7.8-2-11.4,0L111,128.6c-0.5,0.3-1,0.7-1.4,1.2l-1.2-1.2v4.2
		c0,0.3,0,0.6,0,0.9l0,0l0,0c0.1,1.7,1.1,3.3,2.6,4.1l86.1,49.7c3.5,2,7.8,2,11.4,0l80.9-46.7c5.4-3.1,7.3-10.1,4.1-15.5
		C292.4,123.6,291,122.1,289.3,121.2z"/>
	<path class="st4" d="M111,133.6l86.1,49.7c3.5,2,7.8,2,11.4,0l80.9-46.7c5.4-3.1,7.3-10.1,4.1-15.5c-1-1.7-2.4-3.1-4.1-4.1
		l-76.8-44.5c-3.5-2-7.8-2-11.4,0L111,124.3c-2.6,1.5-3.4,4.7-2,7.3C109.5,132.4,110.2,133.1,111,133.6z"/>
	<polygon class="st5" points="243.7,146.1 218.1,131.5 235.7,121.3 260.9,136.3 	"/>
	<polygon class="st5" points="130.3,125.2 161.2,142.8 220,108.8 189.3,91.1 	"/>
	<path class="st13" d="M248.7,109.6c0,0,2.9-0.5,3.6-1.5s0-1.5,0-1.5s2.9-1.3,2.4-2.3s-2.8-3.3-4.4-3.3s-6.5,5.1-6.5,5.1"/>
	<path class="st14" d="M245.1,238.3c-0.1,0.6-0.5,1-1.1,1c-1,0.1-10.6-4.1-13,1.6c-0.3,0.7,0,1.5,0.6,1.9c4.8,3.1,10.2,5,15.8,5.7
		c1.9,0.4,3.9,0.1,5.7-0.7l-0.4-10.6L245.1,238.3z"/>
	<path class="st14" d="M268.4,233.4c0,0-9-5.9-10.5-2.1c-1.2,2.9,9.5,11.2,13.5,11.9s4.5-3.5,4.5-3.5l-0.1-6.8"/>
	<path class="st15" d="M250.8,148.1c0,0-9,19.4-8.8,89.4c0,0,1.8,4.8,14.8,1.5l5.3-62.5l2.3,57.7c0,0,6.1,4.5,15.6-0.9
		c0,0-2.1-77.2-7.3-91"/>
	<linearGradient id="SVGID_4_" gradientUnits="userSpaceOnUse" x1="248.6862" y1="127.8581" x2="277.1325" y2="127.8581">
		<stop  offset="0" style="stop-color:#F5524E"/>
		<stop  offset="1" style="stop-color:#D0342F"/>
	</linearGradient>
	<path class="st16" d="M273,144.6c2.2-9.5,6.9-34.1,1.9-37.9c-4.3-3.3-14.4,0.3-22.1,5.5c-6.3,4.3-3.7,29.1-2.6,37.8
		C258.6,151,266.4,149.5,273,144.6z"/>
	<linearGradient id="SVGID_5_" gradientUnits="userSpaceOnUse" x1="270.02" y1="122.2658" x2="280.9908" y2="122.2658">
		<stop  offset="0" style="stop-color:#F5524E"/>
		<stop  offset="1" style="stop-color:#D0342F"/>
	</linearGradient>
	<path class="st17" d="M274.8,106.6c0,0,3.2,1.6,4.4,7s3.3,19.3,0,23s-8.8-2-9.2-2.4"/>
	<linearGradient id="SVGID_6_" gradientUnits="userSpaceOnUse" x1="231.186" y1="118.2992" x2="256.54" y2="118.2992">
		<stop  offset="0" style="stop-color:#F5524E"/>
		<stop  offset="1" style="stop-color:#D0342F"/>
	</linearGradient>
	<path class="st18" d="M256.5,110c0,0-11.7,6.1-12.1,6.2s5.5-4.5,5.5-4.5s-0.7-8.2-6.8-6.3c0,0-19.6,15.1-8.7,24.6
		c5.2,4.5,22-2.7,22-2.7"/>
	<path class="st13" d="M254.1,92.8c0,0-0.2,12.7,3.3,13c2.8,0.5,5.7-1,6.9-3.6"/>
	<path class="st13" d="M259.2,104.2v6c0,0,3.2,1.2,7.8-1.8v-4.9"/>
	<linearGradient id="SVGID_7_" gradientUnits="userSpaceOnUse" x1="252.3272" y1="94.8463" x2="272.9262" y2="94.8463">
		<stop  offset="0" style="stop-color:#F5524E"/>
		<stop  offset="1" style="stop-color:#D0342F"/>
	</linearGradient>
	<path class="st19" d="M254.8,95.1c0,0-4.3-4.5-1.5-8.3s6-1.8,6-1.8s0.7-1.7,4-2s4.6,3,6,3.8s3.5,3.3,3.6,5.3s-2.8,13.3-6.3,14.1
		S258.6,108.4,254.8,95.1z"/>
	<polygon class="st5" points="196.9,161.4 215.6,150.6 211.2,130.7 191.4,141 	"/>
	<polygon class="st20" points="191.4,141 186.1,155.8 196.9,161.4 	"/>
	<path class="st6" d="M168.4,108.3c-0.2-1.5-7.2-3.2-7.2-3.2s4.8,0.4,4.2-1.2s-6.4-0.5-7.6-1.5c-1-0.7-2.4-4.4-3-6.2
		c-1.9,1.6-3.8,3.1-5.7,4.5c1.1,2.4,2.5,5.7,2.8,6.7c0.5,1.7,8,5.6,8.9,5.8c2.1,0.6,1.6-1,1.6-1s2.2,1.4,2.9,1c1.2-0.7-0.1-2-0.1-2
		s1.7,1.2,2.8,0.1s-1.5-2-1.5-2S168.6,109.8,168.4,108.3z"/>
	<path class="st6" d="M155,32c0,0,3.5,14.2-2.2,16.3c-4.9,1.8-8.6-3.4-9.4-6.6c-1-3.8,1.8-8.7,4.7-11.3
		C150.6,28.1,154.1,28.2,155,32z"/>
	<path class="st9" d="M147.7,39c0,0,0-2.8,0.5-2.3s-0.4,2.5,1.2,2.5s5.9,0.1,8.4-3c1.5-1.9-0.8-8.9-6.2-10c-4.1-0.8-8-0.1-10.7,3
		c-1.9,2.4-3.1,5.3-3.5,8.4c-0.7,4.3-0.9,8.3-4.6,11.2c-1.6,1.3-3.6,3-2.8,5.2c0.6,1.6,1.9,2.9,3.4,3.5c1.6,0.7,3.6,1,3.7,3.2
		c0.1,3.6,5.1,7.6,10.3,4.5s4.3-8.8,0.8-11.3S144.7,42,147.7,39z"/>
	<path class="st6" d="M146.9,41.7c0,0,0-2.4-1.5-2s-0.9,3.5,0.7,4.4"/>
	<path class="st21" d="M137.4,89.6c-1.4-2.8-2.5-5.8-3.5-8.8c0,0,0,4-0.1,6.2C134.9,87.9,136.1,88.8,137.4,89.6z"/>
	<path class="st21" d="M146.4,72.3c0,0,4.6,13.7,6.9,18.8l1.2-0.3C154.6,90.8,147.1,75,146.4,72.3z"/>
	<path class="st21" d="M159.6,62.1c0,0,1.6,14.6,0.8,26c0,0-1.1-12.6-1.1-14.2S159.6,62.1,159.6,62.1z"/>
	<polygon class="st5" points="192,49 191.3,45.5 196.1,44.5 197.5,51.8 192.8,52.7 	"/>
	<line class="st22" x1="183.6" y1="48" x2="189.8" y2="46.7"/>
	<path class="st23" d="M183.7,48.4l6.1-1.3c0.5-0.1,0.3-0.8-0.2-0.7l-6.1,1.3C183,47.8,183.2,48.5,183.7,48.4z"/>
	<line class="st22" x1="183.8" y1="49.9" x2="190" y2="48.6"/>
	<path class="st23" d="M183.9,50.3l6.1-1.3c0.5-0.1,0.3-0.8-0.2-0.7l-6.1,1.3C183.2,49.7,183.4,50.4,183.9,50.3z"/>
	<line class="st22" x1="184.8" y1="54.2" x2="190.9" y2="52.9"/>
	<path class="st23" d="M184.9,54.5l6.1-1.3c0.5-0.1,0.3-0.8-0.2-0.7l-6.1,1.3C184.2,53.9,184.4,54.6,184.9,54.5z"/>
	<line class="st22" x1="184.2" y1="52" x2="190.4" y2="50.8"/>
	<path class="st23" d="M184.3,52.4l6.1-1.3c0.5-0.1,0.3-0.8-0.2-0.7l-6.1,1.3C183.7,51.8,183.9,52.5,184.3,52.4z"/>
	
		<linearGradient id="SVGID_8_" gradientUnits="userSpaceOnUse" x1="235.9182" y1="213.135" x2="212.8282" y2="185.105" gradientTransform="matrix(1 0 0 -1 0 300)">
		<stop  offset="0" style="stop-color:#8C6239"/>
		<stop  offset="1" style="stop-color:#FFFFFF"/>
	</linearGradient>
	<path class="st24" d="M229.5,94.9c-9.4,5.9-23.3,12.5-33.2,17.8l15.2,11.6l28.3-20C234.5,101.7,233.7,99.1,229.5,94.9z"/>
	<linearGradient id="SVGID_9_" gradientUnits="userSpaceOnUse" x1="222.42" y1="97.89" x2="242.42" y2="97.89">
		<stop  offset="0" style="stop-color:#F5524E"/>
		<stop  offset="1" style="stop-color:#D0342F"/>
	</linearGradient>
	<path class="st25" d="M231.5,91.7c-3.2-0.3-6.7-1.3-9.1-3.5v9.6c0,5.5,4.5,10,10,10l0,0c5.5,0,10-4.5,10-10V88
		C239,89.4,235.1,92,231.5,91.7z"/>
	<ellipse class="st26" cx="232.4" cy="88.1" rx="10" ry="5.3"/>
	<path class="st26" d="M232.4,89c0,0-6.8-1-8.6-12C223.8,77,229.6,80.2,232.4,89z"/>
	<path class="st26" d="M233.4,87.6c0,0-7.8-14,0-23.3C235.8,71.9,235.8,80,233.4,87.6z"/>
	<path class="st26" d="M232.4,78.8c0,0-6.8-1-8.6-12C223.8,66.9,229.6,70.1,232.4,78.8z"/>
	<path class="st26" d="M233.2,83.3c0,0-1.7-6.6,7.7-12.5C240.9,70.8,240.2,77.3,233.2,83.3z"/>
	<ellipse class="st27" cx="232.4" cy="88.1" rx="10" ry="5.3"/>
	<path class="st26" d="M232.4,89c0,0-6.8-1-8.6-12C223.8,77,229.6,80.2,232.4,89z"/>
	<path class="st26" d="M233.4,87.6c0,0-7.8-14,0-23.3C235.8,71.9,235.8,80,233.4,87.6z"/>
	<path class="st26" d="M232.4,78.8c0,0-6.8-1-8.6-12C223.8,66.9,229.6,70.1,232.4,78.8z"/>
	<path class="st26" d="M233.2,83.3c0,0-1.7-6.6,7.7-12.5C240.9,70.8,240.2,77.3,233.2,83.3z"/>
</g>
</svg>
