<?xml version="1.0" encoding="utf-8"?>
<!-- Generator: Adobe Illustrator 24.0.1, SVG Export Plug-In . SVG Version: 6.00 Build 0)  -->
<svg version="1.1" id="Layer_1" xmlns="http://www.w3.org/2000/svg" xmlns:xlink="http://www.w3.org/1999/xlink" x="0px" y="0px"
	 viewBox="0 0 400 300" style="enable-background:new 0 0 400 300;" xml:space="preserve">
<style type="text/css">
	.st0{fill:url(#SVGID_1_);}
	.st1{fill:#3F3F3F;}
	.st2{fill:#191919;}
	.st3{fill:#FFFFFF;}
	.st4{fill:url(#SVGID_2_);}
	.st5{fill:#FF3174;}
	.st6{fill:#282B4E;}
	.st7{fill:#124577;}
	.st8{fill:url(#SVGID_3_);}
	.st9{fill:url(#SVGID_4_);}
	.st10{fill:#FFE8D2;}
	.st11{opacity:0.51;fill:#124577;enable-background:new    ;}
	.st12{fill:#ECA016;}
	.st13{fill:#FFB72F;}
	.st14{fill:#FFC863;}
	.st15{fill:#FDEDCB;}
	.st16{fill:url(#SVGID_5_);}
	.st17{fill:url(#SVGID_6_);}
	.st18{fill:#614CD4;}
	.st19{fill:url(#SVGID_7_);}
	.st20{fill:url(#SVGID_8_);}
	.st21{fill:#F7931E;}
	.st22{fill:#42210B;}
	.st23{fill:url(#SVGID_9_);}
</style>
<title>#31-40</title>
<linearGradient id="SVGID_1_" gradientUnits="userSpaceOnUse" x1="39.05" y1="184.98" x2="351.56" y2="184.98">
	<stop  offset="0" style="stop-color:#F5524E"/>
	<stop  offset="1" style="stop-color:#D0342F"/>
</linearGradient>
<polygon class="st0" points="39,204.6 162.9,275.5 351.6,165.8 227.9,94.4 "/>
<path class="st1" d="M117,182.8l-40.2,24.1c-1.6,1-2.2,3.1-1.2,4.7c0.3,0.5,0.7,0.9,1.2,1.2l72.1,41.9c2.9,1.7,6.5,1.5,9.2-0.4
	l35.2-24.2c2.2-1.5,2.8-4.5,1.3-6.6c-0.4-0.6-1-1.1-1.6-1.5l-68.8-39.4C121.9,181.4,119.2,181.4,117,182.8z"/>
<polygon class="st2" points="82.5,203.4 163.4,250.5 174,243.3 93.1,197 "/>
<ellipse class="st3" cx="177.1" cy="226.4" rx="7.5" ry="4.3"/>
<linearGradient id="SVGID_2_" gradientUnits="userSpaceOnUse" x1="163.53" y1="222.74" x2="178.45" y2="222.74">
	<stop  offset="0" style="stop-color:#F5524E"/>
	<stop  offset="1" style="stop-color:#D0342F"/>
</linearGradient>
<ellipse class="st4" cx="171" cy="222.7" rx="7.5" ry="4.3"/>
<path class="st5" d="M185,80.8c-4.7-8.7-9.7-17.1-15.2-25.2c-0.5-0.7-1.6,0-1.1,0.7c5.5,8.1,10.5,16.5,15.2,25.2
	C184.3,82.2,185.4,81.6,185,80.8z"/>
<path class="st6" d="M195.5,17.5c-11.7,6.9-40.6,24-49.2,29c-1.5,0.9-2.4,2.5-2.4,4.2v118.7c-0.2,2.4,2.6,4.7,4.8,3.4l48.6-27.7
	c1.9-0.9,3.2-2.9,3.2-5V20.3c0-1.8-1.5-3.3-3.3-3.3C196.6,17,196,17.2,195.5,17.5z"/>
<path class="st7" d="M200.2,18.9l-15.5,8.9v3.3c0,0.6-0.3,1.1-0.8,1.4l-11.8,6.8c-0.5,0.3-1.1,0.2-1.4-0.2c-0.1-0.2-0.2-0.4-0.2-0.7
	V36l-22.2,13c-0.4,0.3-0.7,0.7-0.7,1.2v118.6c0,0.6,0.5,1,1.1,0.9c0.1,0,0.3,0,0.4-0.1l51.4-29.8c0.2,1.9-0.7,3.7-2.3,4.7
	c-2.7,1.7-49.5,28.2-49.5,28.2s-3.7,1.7-4.8-2.8V50.8c0-1.6,0.7-3.1,2-4c2.1-1.6,49.6-29.3,49.6-29.3c1.6-0.9,3.7-0.3,4.6,1.3
	C200.1,18.8,200.1,18.8,200.2,18.9z"/>
<linearGradient id="SVGID_3_" gradientUnits="userSpaceOnUse" x1="145.59" y1="62.095" x2="159.6821" y2="62.095">
	<stop  offset="0" style="stop-color:#F5524E"/>
	<stop  offset="1" style="stop-color:#D0342F"/>
</linearGradient>
<path class="st8" d="M148.3,49c0,0,11.6,4.8,11.4,26.2L145.6,68V49H148.3z"/>
<linearGradient id="SVGID_4_" gradientUnits="userSpaceOnUse" x1="145.59" y1="60.9513" x2="169.6679" y2="60.9513">
	<stop  offset="0" style="stop-color:#F5524E"/>
	<stop  offset="1" style="stop-color:#D0342F"/>
</linearGradient>
<path class="st9" d="M168.6,59.5c-1.4-5.1-19.5-13.3-19.5-13.3l-3.6,2v6.7c3.9,2,8.6,5,11,8.5c4.5,6.7,2.1,11.3,2.1,11.3
	c0.1,0.4,4.4,2.4,8.1,0S170.1,64.6,168.6,59.5z"/>
<path class="st10" d="M208.2,47c0,0,2.4-4.5-2.1-11.3s-17.5-11.5-17.5-11.5l10.1-5.7c0,0,18.1,8.2,19.5,13.3s1.8,12.8-1.9,15.1
	S208.2,47,208.2,47z"/>
<polygon class="st7" points="134.4,189.2 165.7,171.7 179.3,175.8 157.6,192.4 144.3,198.2 "/>
<polygon class="st6" points="145.6,195.7 179.3,175.8 181.9,207.6 147.3,227.7 "/>
<polyline class="st6" points="145.6,195.7 134.4,189.2 133.4,219.4 147.3,227.7 "/>
<polyline class="st11" points="145.6,195.7 134.4,189.2 133.4,219.4 147.3,227.7 "/>
<path class="st3" d="M169.4,181.6c0,0-1.5-11.4-9.8-9.6s-6.1,19-6.1,19l-2.2,1.2c0,0-3.6-15.5,4.9-20.5s14.4,3.1,15.2,8.7"/>
<path class="st3" d="M143.1,184.4c0,0-2.9-12.4,7-15.8s11.1,5.7,11.1,5.7l-2.8,1.6c0,0,0-7-7.2-5.7s-5.6,12.8-5.6,12.8"/>
<path class="st12" d="M273.4,168.1v-23.4l20.9-11.7v23.2L273.4,168.1z"/>
<path class="st13" d="M273.4,144.7L253,133c0,0-0.6,23.6,0,23.9s20.4,11.1,20.4,11.1L273.4,144.7z"/>
<polygon class="st14" points="253,133 273.4,120.6 294.3,133 273.4,144.7 "/>
<polygon class="st15" points="260.8,128.3 282,139.9 282,152.1 288,149 288,136.5 266.9,124.6 "/>
<path class="st12" d="M296.2,180.8v-23.4l20.9-11.7v23.2L296.2,180.8z"/>
<path class="st13" d="M296.2,157.4l-20.4-11.7c0,0-0.6,23.6,0,23.9s20.4,11.1,20.4,11.1V157.4z"/>
<polygon class="st14" points="275.8,145.8 296.2,133.3 317.1,145.8 296.2,157.4 "/>
<polygon class="st15" points="283.6,141 304.7,152.6 304.7,164.8 310.8,161.8 310.8,149.2 289.6,137.3 "/>
<path class="st12" d="M286.6,152.8v-23.4l20.9-11.7v23.2L286.6,152.8z"/>
<path class="st13" d="M286.6,129.4l-20.4-11.7c0,0-0.6,23.5,0,23.9s20.4,11.1,20.4,11.1V129.4z"/>
<polygon class="st14" points="266.2,117.7 286.6,105.3 307.5,117.7 286.6,129.4 "/>
<polygon class="st15" points="274,113 295.2,124.6 295.2,136.8 301.3,133.7 301.3,121.2 280.1,109.2 "/>
<linearGradient id="SVGID_5_" gradientUnits="userSpaceOnUse" x1="178.27" y1="38.9026" x2="208.9217" y2="38.9026">
	<stop  offset="0" style="stop-color:#F5524E"/>
	<stop  offset="1" style="stop-color:#D0342F"/>
</linearGradient>
<path class="st16" d="M197.9,52.6c0,0,2.4-4.5-2.1-11.3s-17.5-11.5-17.5-11.5l10.1-5.7c0,0,18.1,8.2,19.5,13.3s1.8,12.8-1.9,15.1
	S197.9,52.6,197.9,52.6z"/>
<path class="st10" d="M188,58.2c0,0,2.4-4.5-2.1-11.3s-17.5-11.5-17.5-11.5l10.1-5.7c0,0,18,8.2,19.5,13.3s1.8,12.8-1.9,15.1
	S188,58.2,188,58.2z"/>
<linearGradient id="SVGID_6_" gradientUnits="userSpaceOnUse" x1="158.58" y1="50.0013" x2="189.2317" y2="50.0013">
	<stop  offset="0" style="stop-color:#F5524E"/>
	<stop  offset="1" style="stop-color:#D0342F"/>
</linearGradient>
<path class="st17" d="M178.2,63.7c0,0,2.4-4.5-2.1-11.3S158.6,41,158.6,41l10.1-5.7c0,0,18.1,8.2,19.5,13.3s1.8,12.8-1.9,15.1
	S178.2,63.7,178.2,63.7z"/>
<path class="st10" d="M169.4,70c0,0,1.3-5.2-3.2-11.9s-17.5-11.4-17.5-11.4l10.1-5.7c0,0,18.1,8.2,19.5,13.3s1.8,12.8-1.9,15.1
	C174.3,70.7,171.6,70.9,169.4,70z"/>
<path class="st3" d="M160.1,83.7v25.4c0,1.8,1.4,3.3,3.3,3.3c0.6,0,1.2-0.2,1.7-0.5l24.1-13.9c1.5-0.9,2.5-2.5,2.5-4.3V68.1
	c0-1.8-1.5-3.3-3.3-3.3c-0.6,0-1.2,0.2-1.7,0.5l-24.2,14.3C161,80.4,160.1,82,160.1,83.7z"/>
<path class="st3" d="M160.1,121.4v25.4c0,1.8,1.4,3.3,3.3,3.3c0.6,0,1.2-0.2,1.7-0.5l24.1-13.9c1.5-0.9,2.5-2.5,2.5-4.3v-25.7
	c0-1.8-1.5-3.3-3.3-3.3c-0.6,0-1.2,0.2-1.7,0.5l-24.2,14.3C161,118.1,160.1,119.7,160.1,121.4z"/>
<polygon class="st7" points="172.2,80.4 181,75.8 184.3,96.2 179.1,98.9 177.6,86.4 178,99.7 171.7,103.1 "/>
<polygon class="st18" points="172.2,118.2 181,113.6 184.3,133.9 179.1,136.7 177.6,124.2 178,137.4 171.7,140.9 "/>
<ellipse transform="matrix(0.2782 -0.9605 0.9605 0.2782 18.8095 234.7536)" class="st7" cx="165.6" cy="104.9" rx="2.8" ry="1.8"/>
<ellipse transform="matrix(0.2782 -0.9605 0.9605 0.2782 -17.8852 261.211)" class="st18" cx="164.8" cy="142.5" rx="2.8" ry="1.8"/>
<path class="st3" d="M210.2,191.1c0,0.2-3.3,7.6-4,8.1s-3-1-3.8-0.2s-1.8,2.6-0.1,3.3s6.8,1.4,7.8,1c0.9-0.5,1.7-1.1,2.5-1.7
	c0,0,0.5-4,1-3.5s0.3,4.9,0.7,5c0.5,0,1-0.1,1.5-0.2l-0.5-12.6"/>
<path class="st3" d="M224.4,184.4c0,0.2-3.6,7.5-4.3,8s-3-1.1-3.8-0.3s-1.9,2.5-0.2,3.3s6.8,1.7,7.7,1.3c0.9-0.5,1.8-1,2.6-1.6
	c0,0,0.6-4,1.1-3.4s0.2,4.9,0.6,5c0.5,0,1,0,1.5-0.2v-12.7"/>
<path class="st18" d="M211.9,122.3c0,0-10.5,53.6-9.6,66c0,0,2.1,8.3,20.1,5.5c0,0,1.6-6.2,0.9-16.8s-2.6-54.8-2.6-54.8L211.9,122.3
	z"/>
<path class="st18" d="M213.8,185.6l2.7-63.9l10.8-1c0,0,4.7,16.5,3.7,24.4s1.2,18.5,1.7,24c0.5,5,0.6,13.5-1.1,17.4
	C225.8,188,219.5,187.7,213.8,185.6z"/>
<path class="st3" d="M223.1,190.8c0.8-4,1.4-8.1,1.8-12.1c0.1-2,0.1-4,0-6c-0.2-2.1-0.5-4.1-0.9-6.1c-0.6-3.6-0.8-7.3-0.5-11
	c0.3-3.8,0.9-7.5,1.2-11.3c0.5-4.2,0.4-8.5-0.4-12.7c-0.1-0.5,0.7-0.8,0.8-0.2c1.7,7.5,0.1,15.1-0.6,22.6c-0.4,3.9-0.4,7.8,0.2,11.7
	c0.3,1.9,0.7,3.8,0.9,5.7c0.2,2,0.3,4.1,0.1,6.1c-0.3,4.5-1,9.1-1.9,13.5C223.8,191.6,223,191.4,223.1,190.8z"/>
<linearGradient id="SVGID_7_" gradientUnits="userSpaceOnUse" x1="199.6953" y1="97.2768" x2="224.29" y2="97.2768">
	<stop  offset="0" style="stop-color:#F5524E"/>
	<stop  offset="1" style="stop-color:#D0342F"/>
</linearGradient>
<path class="st19" d="M224.3,99.2c-1.1-0.2-22.3-14.6-22.9-14.1s-3.3,7.8-0.2,10.5s21.9,13.8,21.9,13.8"/>
<linearGradient id="SVGID_8_" gradientUnits="userSpaceOnUse" x1="208.63" y1="109.4681" x2="228.4307" y2="109.4681">
	<stop  offset="0" style="stop-color:#F5524E"/>
	<stop  offset="1" style="stop-color:#D0342F"/>
</linearGradient>
<path class="st20" d="M227.8,102.2l-8.8-7.8c-1,0.4-7.2-0.3-8.7,3.8c-0.9,2.7-1.3,6.1-1.7,7.9c0,0.1,1.4,0.6,1.4,0.8
	c0.5,4.1,0.4,8.3-0.2,12.4c0.8-0.1,1.6-0.4,2.3-0.8c0,0-0.5,3.7,0,4.8s12.2,2.5,14.9-1S227.8,102.2,227.8,102.2z"/>
<path class="st21" d="M192.4,82.7c0,0,0-0.1,0-0.1c-0.1-0.3-0.2-0.7-0.3-1c-0.1-0.3-0.3-0.4-0.6-0.3c-0.1,0-0.2,0.1-0.2,0.1
	c-0.1,0.1-0.2,0.1-0.2,0.2c-0.1,0.2-0.1,0.5-0.1,0.8l0,0c0,0.2,0,0.3,0,0.5l0,0l0,0l0,0c0.2,0.9,0.8,1.6,1.6,2c0,0-0.8,0.5-0.8,0.6
	c-0.8,1.2-0.3,2.6,0.5,3.8c0.1,0,0.2,0,0.3,0c0.9,0.3,1.9,0.6,2.9,0.8c0.8,0.2,1.5,0.3,2.3,0.4c0.8,0.1,1.6,0.3,2.3,0.7
	c0.1-1.3,0.2-2.7,0.4-4C197.6,85.8,195,84.4,192.4,82.7z"/>
<path class="st21" d="M192.5,86.5c0.2-0.3-0.3-0.5-0.4-0.3c-0.2,0.2-0.3,0.5-0.4,0.7c-0.2,0.4-0.3,0.7-0.3,1.1c0,0.1,0,0.2,0,0.3
	l0,0c0,0,0,0.1,0,0.1c0,0.2,0.1,0.4,0.3,0.5c0.3,0.2,0.6-0.2,0.7-0.4c0.2-0.4,0.2-0.7,0.2-1.1c0-0.3,0-0.7-0.2-0.8L192.5,86.5z"/>
<path class="st22" d="M199.6,90.6c-0.7-0.4-1.6-0.7-2.4-0.7c-1.1,0-2.3,0.3-3-0.8c-0.5-0.7-0.4-1.5-1-2c-0.1-0.1-0.3-0.2-0.5-0.3
	l-0.3-0.2c-0.2-0.1-0.3-0.2-0.4-0.4c-0.1-0.3,0.1-0.6,0.4-0.7c0.1,0,0.1,0,0.2,0c0.2,0,0.4,0.1,0.6,0.2h0.1c0.4,0.1,0.7,0.3,1.1,0.5
	s0.6-0.3,0.3-0.4c-0.7-0.3-2.3-1.3-3-0.4c-0.2,0.2-0.3,0.5-0.2,0.8l0,0c-0.2,0.5-0.3,1-0.4,1.5c-0.1,0.4-0.1,0.7,0,1.1
	c0.2,0.4,0.6,0.7,1.1,0.6c0,0.1,0.1,0.2,0.1,0.3c0.4,0.5,1.1,0.7,1.6,0.4c0.1,0,0.1-0.1,0.1-0.2c0.3,0.3,0.6,0.5,0.9,0.7
	c0.6,0.2,1.2,0.2,1.9,0.1c0.9-0.1,1.8,0.1,2.6,0.6c0.1,0,0.3-0.1,0.3-0.2C199.7,90.8,199.6,90.7,199.6,90.6z M192,88.7L192,88.7
	c-0.2,0.2-0.6-0.4-0.6-0.5c0-0.3,0-0.5,0.1-0.8c0-0.3,0.1-0.5,0.2-0.8c0.2,0.2,0.4,0.3,0.6,0.5l0,0C192.1,87.6,192,88.2,192,88.7z
	 M193.5,89.5c-0.7,0.3-1-0.3-0.9-0.9c0-0.4,0.1-0.7,0.2-1.1l0.1,0.1c0.4,0.5,0.4,1.3,0.9,1.9C193.6,89.5,193.6,89.5,193.5,89.5
	L193.5,89.5z"/>
<path class="st21" d="M212.8,81.2c-0.7,0.4-0.6,10.9,2.4,12.2c3.9,1.7,7-2.9,7.4-5.4S220.5,76.4,212.8,81.2z"/>
<path class="st22" d="M233.4,98.2c-0.6-0.4-1-0.8-1.4-1.4c-0.2-0.7-0.3-1.4-0.2-2.2c-0.1-1.8-0.6-3.7-2.2-4.6c-1-0.6-2.5-0.1-3.4-1
	s-0.7-2.7-0.8-4c-0.7-6.9-10.8-8.1-14.1-2.5c-1.1,1.8-0.6,4.2,1.2,5.4c0.5,0.3,1,0.5,1.6,0.6c0.8,0.1,1.7,0.1,2,1
	c0.5,1.4-0.4,2.8-0.9,4c-0.8,1.9-1,4.6,0.8,5.9c0.9,0.5,1.9,0.9,3,1.1c0.4,0.1,0.8,0.3,1.2,0.6c0.5,0.6,0.2,1.5,0.1,2.2
	c-0.1,0.4-0.1,0.7,0,1.1c-0.1,0.7,0.1,1.4,0.6,1.9c1.1,1.3,3.1,1.4,4.7,1.3c1.9-0.1,3.7-0.5,5.4-1.3c1.5-0.7,3.3-1.7,4.1-3.2
	C235.8,101.3,234.8,99.4,233.4,98.2z"/>
<polygon class="st7" points="220.3,153.6 200.5,142.5 191.9,145.1 205.6,155.6 214,159.2 "/>
<polygon class="st6" points="213.2,157.6 191.9,145.1 190.3,165.1 212.1,177.8 "/>
<polyline class="st6" points="213.2,157.6 220.3,153.6 220.9,172.6 212.1,177.8 "/>
<path class="st3" d="M198.1,148.8c0,0,0.9-7.2,6.2-6s3.9,12,3.9,12l1.4,0.8c0,0,2.3-9.8-3.1-13s-9.1,1.9-9.6,5.5"/>
<path class="st3" d="M214.2,150.1c-0.3-3.1-2.6-5.6-5.6-6.2l0.1,1.6c0,0,2.5,0.2,4.1,3.8L214.2,150.1z"/>
<path class="st21" d="M210.7,133.2c-0.8,0,0.4-10.2-1.3-2.7c-0.5,1.5-1.9,2.6-3.4,2.7c-0.1,0.2-0.8,1.5-1.6,2.9
	c-0.7,2.5-1.5,5-2.1,7.5c0.1,0.2,0.2,0.5,0.2,0.7c0,0.5,0.1,0.9,0.1,1.4c0.2,0.9,0.7,1.7,1.7,1.3c0.1-0.1,0.3-0.1,0.4-0.2
	c0.3,0.6,1,0.9,1.6,0.7c0,0,0.1,0,0.1,0c0.4-0.2,0.6-0.5,0.7-0.9c0.3,0.3,0.8,0.3,1.1,0c0.3-0.2,0.4-0.5,0.5-0.9
	c0.2,0,0.4,0,0.5-0.1c0.8-0.4,1-1.5,1.1-2.2C210.7,139.9,210.8,136.5,210.7,133.2z"/>
<path class="st21" d="M203.5,135.7c-0.6,1.2-1.2,2.4-1.6,3.7c-0.3,1.1,0.2,1.3,1.2,1.7c0.6,0.2,0.8-0.6,0.4-0.9
	c0.2,0,0.4-0.2,0.4-0.5c0-0.6,0.2-1.2,0.4-1.7c0-0.1,0.1-0.1,0.1-0.2c0-0.1,0-0.3-0.1-0.4l0.1-0.2c0.1-0.2,0.1-0.5-0.2-0.6
	c0,0,0,0,0,0c0.1-0.2,0.2-0.4,0.3-0.6C204.7,135.4,203.7,135.1,203.5,135.7z"/>
<linearGradient id="SVGID_9_" gradientUnits="userSpaceOnUse" x1="202.232" y1="122.2747" x2="216.51" y2="122.2747">
	<stop  offset="0" style="stop-color:#F5524E"/>
	<stop  offset="1" style="stop-color:#D0342F"/>
</linearGradient>
<path class="st23" d="M212.4,138.2c1.5-5.9,4.1-29,4.1-29l-7.9-3c0,0-6.6,28.6-6.4,30.6C204.2,138.1,210.1,138.8,212.4,138.2z"/>
</svg>
