<?xml version="1.0" encoding="utf-8"?>
<!-- Generator: Adobe Illustrator 24.0.1, SVG Export Plug-In . SVG Version: 6.00 Build 0)  -->
<svg version="1.1" id="Layer_1" xmlns="http://www.w3.org/2000/svg" xmlns:xlink="http://www.w3.org/1999/xlink" x="0px" y="0px"
	 viewBox="0 0 65 65" style="enable-background:new 0 0 65 65;" xml:space="preserve">
<style type="text/css">
	.st0{fill:#FFFFFF;}
	.st1{fill:#A91F23;}
</style>
<path class="st0" d="M32.5,65C50.4,65,65,50.4,65,32.5S50.4,0,32.5,0S0,14.6,0,32.5S14.6,65,32.5,65z"/>
<path class="st1" d="M31.8,29.9c0-3.8-3.1-6.9-6.9-6.9S18,26,18,29.9c0,3.8,3.1,6.9,6.9,6.9S31.8,33.7,31.8,29.9z M24.9,36.8
	c-4.9,0-8.9,4-8.9,8.9v2c0,0.5,0.4,1,1,1h15.8c0.5,0,1-0.4,1-1v-2C33.8,40.8,29.8,36.8,24.9,36.8z M47.7,21.9c0-3.8-3.1-6.9-6.9-6.9
	c-3.8,0-6.9,3.1-6.9,6.9s3.1,6.9,6.9,6.9C44.6,28.9,47.7,25.8,47.7,21.9z M40.8,28.9c-4.9,0-8.9,4-8.9,8.9v2c0,0.5,0.4,1,1,1h15.8
	c0.5,0,1-0.4,1-1v-2C49.7,32.9,45.7,28.9,40.8,28.9L40.8,28.9z"/>
</svg>
