<svg width="65" height="65" viewBox="0 0 65 65" fill="none" xmlns="http://www.w3.org/2000/svg">
<path d="M32.5 65C50.4 65 65 50.4 65 32.5C65 14.6 50.4 0 32.5 0C14.6 0 0 14.6 0 32.5C0 50.4 14.6 65 32.5 65Z" fill="white"/>
<path fill-rule="evenodd" clip-rule="evenodd" d="M15 22.424C15 21.0853 16.0853 20 17.424 20H48.1277C49.4665 20 50.5517 21.0853 50.5517 22.424V41.0078C50.5517 42.3466 49.4665 43.4318 48.1277 43.4318H17.424C16.0853 43.4318 15 42.3466 15 41.0078V22.424ZM18.232 37.6243C18.232 37.4849 18.3382 37.3718 18.4693 37.3718H32.9426C33.0736 37.3718 33.1799 37.4849 33.1799 37.6243V39.1393C33.1799 39.2788 33.0736 39.3918 32.9426 39.3918H18.4693C18.3382 39.3918 18.232 39.2788 18.232 39.1393V37.6243ZM46.8292 34.1399C47.1001 34.1399 47.3198 34.3444 47.3198 34.5966V38.9352C47.3198 39.1874 47.1001 39.3919 46.8292 39.3919H40.9424C40.6715 39.3919 40.4518 39.1874 40.4518 38.9352V34.5966C40.4518 34.3444 40.6715 34.1399 40.9424 34.1399H46.8292Z" fill="#A91F23"/>
</svg>
