<svg width="65" height="65" viewBox="0 0 65 65" fill="none" xmlns="http://www.w3.org/2000/svg">
<path d="M32.5 65C50.4 65 65 50.4 65 32.5C65 14.6 50.4 0 32.5 0C14.6 0 0 14.6 0 32.5C0 50.4 14.6 65 32.5 65Z" fill="white"/>
<path d="M37.6933 39.946H46.6757L45.8597 20.9189H41.5097V24.4508H39.6266V20.9189H33.2554V24.4508H31.3723V20.9189H27.0223L26.7838 26.4812H37.6933V39.946Z" fill="#A91F23"/>
<path d="M35.4324 46V28.7027H31.6389V32.0331C31.6389 34.4015 29.6545 36.3315 27.2193 36.3315C24.7842 36.3315 22.7998 34.4015 22.7998 32.0331V28.7027H19V45.9939L35.4324 46Z" fill="#A91F23"/>
<path d="M27.6486 33.8919C29.0801 33.8919 30.2432 32.9009 30.2432 31.6812V28.7027H25.054V31.6812C25.054 32.8954 26.2171 33.8919 27.6486 33.8919Z" fill="#A91F23"/>
<path d="M38.027 46H46.6757L46.5226 41.6757H38.027V46Z" fill="#A91F23"/>
<path d="M33.0372 19.2477C33.0372 17.4269 34.5033 15.9508 36.2973 15.9508C38.0913 15.9508 39.5574 17.4334 39.5574 19.2477V20.9189H41.4865V19.2477C41.4865 16.354 39.1587 14 36.2973 14C33.4358 14 31.1081 16.354 31.1081 19.2477V20.9189H33.0372V19.2477Z" fill="#A91F23"/>
</svg>
