<?xml version="1.0" encoding="utf-8"?>
<!-- Generator: Adobe Illustrator 24.0.1, SVG Export Plug-In . SVG Version: 6.00 Build 0)  -->
<svg version="1.1" id="Layer_2_1_" xmlns="http://www.w3.org/2000/svg" xmlns:xlink="http://www.w3.org/1999/xlink" x="0px" y="0px"
	 viewBox="0 0 400 300" style="enable-background:new 0 0 400 300;" xml:space="preserve">
<style type="text/css">
	.st0{fill:url(#SVGID_1_);}
	.st1{fill:#F2AE16;}
	.st2{fill:#EA8B24;}
	.st3{fill:#FFD008;}
	.st4{fill:none;stroke:#F7931E;stroke-miterlimit:10;}
	.st5{fill:#ADCEE1;}
	.st6{fill:#88D3D8;}
	.st7{fill:#FFFFFF;}
	.st8{fill:#053855;}
	.st9{fill:#282B4E;}
	.st10{opacity:0.1;fill:#053855;enable-background:new    ;}
	.st11{fill:#F7931E;}
	.st12{fill:#3F9BAA;}
	.st13{fill:#9B3119;}
	.st14{fill:#2F0E4C;}
	.st15{fill:#662D91;}
	.st16{fill:#0A0A0A;}
	.st17{fill:#FFB5A9;}
	.st18{fill:#F15A24;}
</style>
<title>0</title>
<linearGradient id="SVGID_1_" gradientUnits="userSpaceOnUse" x1="22.176" y1="183.5927" x2="373.4013" y2="183.5927">
	<stop  offset="0" style="stop-color:#F5524E"/>
	<stop  offset="1" style="stop-color:#D0342F"/>
</linearGradient>
<path class="st0" d="M25.4,160.5L161,81.6c2-1.1,4.4-1.1,6.4,0l202.8,116c3.1,1.8,4.1,5.7,2.4,8.7c-0.6,1-1.4,1.8-2.4,2.4
	l-129.7,74.9c-6.5,3.7-14.5,3.7-20.9,0L25.4,171.6c-3.1-1.8-4.1-5.7-2.4-8.8C23.6,161.8,24.4,161,25.4,160.5z"/>
<path class="st1" d="M262.4,45.1c-7.4,0.4-14.6,2.1-21.4,5.1c-10.7,4.9,21.4,13.6,21.4,13.6"/>
<ellipse transform="matrix(0.9442 -0.3294 0.3294 0.9442 -11.927 92.1647)" class="st2" cx="266.1" cy="81.3" rx="33.4" ry="36.6"/>
<ellipse transform="matrix(0.9442 -0.3294 0.3294 0.9442 -13.211 88.9993)" class="st3" cx="256.1" cy="83.5" rx="33.4" ry="36.6"/>
<ellipse transform="matrix(0.9442 -0.3294 0.3294 0.9442 -13.211 88.9991)" class="st4" cx="256.1" cy="83.5" rx="29.3" ry="32.1"/>
<path class="st2" d="M263.1,66.3c1,0.5,1.9,1.1,2.7,1.8l0.8,0.8l-4.3,4.6c-0.2-0.2-0.4-0.5-0.8-0.8c-0.6-0.5-1.4-0.9-2.1-1.3
	c-1-0.5-2.2-0.8-3.3-0.8c-1.2-0.1-2.4,0.3-3.3,1.1c-0.8,0.6-1.2,1.6-1.2,2.6c0,1.1,0.7,2.2,1.7,2.7c1.3,0.7,2.7,1.3,4.1,1.7
	c1.6,0.5,3.2,1,4.9,1.6c1.6,0.6,3.1,1.7,4.2,3.1c1.2,1.6,1.8,3.5,1.7,5.4c0.1,2.4-0.8,4.8-2.4,6.6c-1.7,1.9-4.1,3.2-6.6,3.6v4.7
	h-6.2v-4.5c-1.2-0.2-2.4-0.5-3.6-0.9c-1-0.4-1.9-0.8-2.8-1.4c-0.7-0.4-1.4-0.9-2-1.4c-0.4-0.3-0.9-0.7-1.2-1.1l-0.4-0.5l4.3-4.3
	c0.2,0.2,0.5,0.6,0.9,1c0.8,0.7,1.7,1.2,2.7,1.6c1.3,0.7,2.8,1,4.3,1c1.5,0.1,2.9-0.4,4.1-1.2c0.9-0.7,1.5-1.9,1.5-3.1
	c0-1.1-0.7-2.2-1.7-2.7c-1.3-0.8-2.7-1.3-4.1-1.7c-1.6-0.5-3.2-1-4.9-1.6c-1.6-0.6-3.1-1.7-4.1-3.1c-1.2-1.6-1.8-3.5-1.7-5.4
	c0-2.3,0.8-4.5,2.4-6.1c1.7-1.9,4-3.1,6.4-3.4v-4.6h6.2v4.7C260.4,65.1,261.8,65.6,263.1,66.3z"/>
<polyline class="st5" points="260.8,174.4 260.8,177.2 259.4,179 "/>
<path class="st6" d="M204.4,140.2l54.8,34c1.6,1,2.1,3.1,1.1,4.7c-0.3,0.5-0.7,0.9-1.2,1.2l-83.2,47c-2.4,1.3-5.3,1.3-7.6-0.1
	l-54.6-32c-4-3.3-3.7-9.4,0-9.6l82.7-45.2C198.9,138.7,202,138.7,204.4,140.2z"/>
<path class="st7" d="M204.4,137.9l54.8,34c1.6,1,2.1,3.1,1.1,4.7c-0.3,0.5-0.7,0.9-1.2,1.2l-83.2,47c-2.4,1.3-5.3,1.3-7.6-0.1
	l-54.6-32.1c-2-1.2-2.7-3.8-1.5-5.8c0.4-0.6,0.9-1.2,1.5-1.5l82.7-47.6C198.9,136.3,202,136.4,204.4,137.9z"/>
<path class="st8" d="M202.2,133.3c0,0-22.8-73.5-22.6-73.5s-0.7-3.3-4.8-1.4l-87.3,51.4c0,0-4.2,1.7-3.4,5.7s22.2,71.9,22.2,71.9
	c0.9,1.3,2.6,1.9,4.1,1.4c2.7-0.8,89.7-51.4,89.7-51.4C201.8,136.7,202.7,135,202.2,133.3z"/>
<polygon class="st9" points="178.1,65.1 88.6,117.3 107.2,179.6 197.8,129 "/>
<path class="st9" d="M207.8,145.7l20,12.5c1.1,0.7,1.5,2.2,0.8,3.3c-0.2,0.3-0.5,0.6-0.8,0.8l-71.9,41c-2.2,1.3-4.9,1.3-7.1,0
	c-4.6-2.7-12.6-7.6-17.5-10.5c-1.4-0.8-1.8-2.7-1-4c0.3-0.4,0.6-0.8,1-1c14.6-8.5,62-36.1,72.4-42.1
	C204.9,144.9,206.5,144.9,207.8,145.7z"/>
<path class="st9" d="M206.7,179.6l-25.1,14.1c-1.2,0.7-1.6,2.2-0.9,3.4c0.2,0.4,0.5,0.7,0.9,0.9l14.8,8.6c1,0.6,2.3,0.6,3.3,0
	l25.7-14.7c1-0.6,1.4-1.9,0.8-2.9c-0.2-0.3-0.5-0.6-0.8-0.8l-15.4-8.8C209,179,207.7,179,206.7,179.6z"/>
<path class="st10" d="M207.8,145.7l20,12.5c1.1,0.7,1.5,2.2,0.8,3.3c-0.2,0.3-0.5,0.6-0.8,0.8l-71.9,41c-2.2,1.3-4.9,1.3-7.1,0
	c-4.6-2.7-12.6-7.6-17.5-10.5c-1.4-0.8-1.8-2.7-1-4c0.3-0.4,0.6-0.8,1-1c14.6-8.5,62-36.1,72.4-42.1
	C204.9,144.9,206.5,144.9,207.8,145.7z"/>
<path class="st10" d="M206.7,179.6l-25.1,14.1c-1.2,0.7-1.6,2.2-0.9,3.4c0.2,0.4,0.5,0.7,0.9,0.9l14.8,8.6c1,0.6,2.3,0.6,3.3,0
	l25.7-14.7c1-0.6,1.4-1.9,0.8-2.9c-0.2-0.3-0.5-0.6-0.8-0.8l-15.4-8.8C209,179,207.7,179,206.7,179.6z"/>
<path class="st1" d="M68,61.5c3.2-1.3,6.7-1.9,10.2-1.9c5.6,0-6.6,10-6.6,10"/>
<ellipse transform="matrix(0.9964 -8.506913e-02 8.506913e-02 0.9964 -6.345 6.5263)" class="st1" cx="73.4" cy="77.7" rx="15.7" ry="17.2"/>
<ellipse transform="matrix(0.9964 -8.506913e-02 8.506913e-02 0.9964 -6.2456 6.9235)" class="st3" cx="78.1" cy="76.7" rx="15.7" ry="17.2"/>
<ellipse transform="matrix(0.9964 -8.506913e-02 8.506913e-02 0.9964 -6.2456 6.9235)" class="st4" cx="78.1" cy="76.7" rx="13.8" ry="15.1"/>
<path class="st11" d="M84.6,75.3c-1.6-1.3-3.8-1.3-5.7-0.8c-0.7-1.5-1.5-3-2.2-4.6c0.4-0.1,0.9-0.2,1.3-0.2c1.4-0.1,1-2.2-0.3-2.1
	c-0.7,0.1-1.3,0.2-1.9,0.5c-0.4-0.8-0.8-1.7-1.3-2.5c-0.6-1.2-2.6-0.4-1.9,0.9c0.4,0.9,0.9,1.8,1.3,2.7c-2.5,1.8-4.2,4.8-2.2,7.7
	c1.4,2.1,3.7,1.3,5.6,0.6l0.6-0.2c0.7,1.5,1.3,2.9,2,4.4C78.9,81.8,78,81.9,77,82c-1.4,0.1-1,2.2,0.3,2.1c1.1-0.1,2.3-0.3,3.4-0.6
	l0.7,1.5c0.2,0.5,0.9,0.8,1.4,0.5s0.8-0.9,0.5-1.4l-0.6-1.4c1-0.5,2-1.2,2.6-2.1C86.6,78.9,86.2,76.6,84.6,75.3z M75.5,75.8
	c-2.1,0-2.9-1.3-2.1-3.1c0.3-0.7,0.8-1.3,1.4-1.8c0.7,1.4,1.4,2.9,2.2,4.4C76.5,75.6,76,75.8,75.5,75.8L75.5,75.8z M83.6,79.4
	c-0.4,0.7-1,1.2-1.8,1.5c-0.7-1.5-1.3-2.9-2-4.4c0.2,0,0.4-0.1,0.6-0.1C82,76.2,85,77,83.6,79.4L83.6,79.4z"/>
<ellipse transform="matrix(0.2693 -0.9631 0.9631 0.2693 2.6255 211.5733)" class="st1" cx="140.7" cy="104.1" rx="34" ry="31.1"/>
<ellipse transform="matrix(0.2693 -0.9631 0.9631 0.2693 5.4522 215.3044)" class="st3" cx="144.6" cy="104.1" rx="34" ry="31.1"/>
<ellipse transform="matrix(0.2693 -0.9631 0.9631 0.2693 5.4522 215.3044)" class="st4" cx="144.6" cy="104.1" rx="29.8" ry="27.2"/>
<path class="st11" d="M157.6,105.9c-2-3.6-6.1-4.9-10-5.3c-0.3-3.3-0.6-6.7-1-10c0.9,0.1,1.8,0.2,2.6,0.5c2.6,0.8,3.4-3.3,0.9-4.1
	c-1.3-0.4-2.6-0.5-3.9-0.5c-0.2-1.8-0.4-3.7-0.6-5.5c-0.3-2.7-4.5-2.4-4.2,0.2c0.2,2,0.4,3.9,0.6,5.9c-5.9,1.6-11.2,6.1-9.6,12.7
	c1.2,4.8,5.9,5,10,5h1.2c0.3,3.2,0.5,6.3,0.7,9.5c-1.8-0.3-3.6-0.7-5.4-1.3c-2.6-0.8-3.4,3.3-0.9,4.1c2.2,0.7,4.4,1.1,6.6,1.3
	c0.1,1.1,0.1,2.2,0.2,3.3c0.2,2.7,4.3,2.4,4.2-0.2c-0.1-1-0.1-2-0.2-3c2.3-0.2,4.5-0.9,6.4-2.1C158.7,114,159.8,109.4,157.6,105.9z
	 M140.4,100.6c-3.8-1.5-4.4-4.4-1.7-7.2c1.1-1.1,2.4-1.9,3.8-2.3c0.3,3.2,0.6,6.4,0.9,9.6C142.4,100.8,141.4,100.8,140.4,100.6
	L140.4,100.6z M153,112.8c-1.2,0.9-2.8,1.5-4.3,1.5c-0.2-3.2-0.5-6.3-0.7-9.5c0.4,0,0.8,0.1,1.1,0.2
	C152.3,105.7,157.2,109.3,153,112.8z"/>
<polygon class="st9" points="118.2,137.5 177.5,103 172.5,126.1 162,137.5 151.9,141.5 143.5,143.7 "/>
<path class="st12" d="M119.9,136.5l58-33.8c0.9-0.6,2.2-0.3,2.7,0.7c0.1,0.2,0.2,0.4,0.3,0.7l0,0c0.2,0.9-0.2,1.8-1,2.2l-57.8,34.1
	c-0.9,0.6-2.2,0.3-2.8-0.6c-0.1-0.1-0.1-0.2-0.1-0.3l-0.2-0.3C118.6,138.2,118.9,137,119.9,136.5z"/>
<path class="st9" d="M204.1,247.9c0,0,14,7.7,64.9-11s72.2-87.5,72.2-87.5l14.5,8.6l-13.9-42.2l-29.7,16.9l12.9,7.6
	c0,0-11.9,48.9-45.3,71.9s-92.6,25.9-92.6,25.9L204.1,247.9z"/>
<path class="st1" d="M47.2,157.1c-0.4-2.6-0.1-5.2,0.8-7.7c1.5-4,7.9,6.7,7.9,6.7"/>
<path class="st1" d="M67,144.8c9.3,1.2,15.7,7.4,14.2,13.8s-10.3,10.6-19.7,9.3s-15.7-7.4-14.2-13.8S57.7,143.5,67,144.8z"/>
<path class="st3" d="M67.3,141.2c9.3,1.2,15.7,7.4,14.2,13.8s-10.3,10.6-19.7,9.3s-15.7-7.4-14.2-13.8S58,139.9,67.3,141.2z"/>
<path class="st4" d="M67,142.6c8.2,1.1,13.8,6.5,12.4,12.1s-9.1,9.3-17.3,8.2s-13.8-6.5-12.4-12.1S58.8,141.5,67,142.6z"/>
<path class="st11" d="M64.9,147.8c-1.4,0.8-2.3,2.3-2.2,3.9l-5,0.7c0-0.3,0-0.7,0.1-1c0.3-1-1.8-1.2-2.1-0.2c-0.1,0.5-0.1,1,0,1.5
	l-2.8,0.4c-1.3,0.2-1,1.8,0.3,1.6l2.9-0.5c1.2,2.6,4.1,3.9,6.8,3.1c2.4-0.6,2.2-2.4,2-4c0-0.2,0-0.3-0.1-0.5l4.8-0.6
	c0,0.7-0.2,1.4-0.3,2.1c-0.3,1,1.8,1.2,2.1,0.2c0.2-0.8,0.3-1.7,0.3-2.5l1.6-0.2c1.3-0.2,1-1.7-0.3-1.6l-1.5,0.2
	c-0.2-0.9-0.7-1.7-1.4-2.3C68.7,147,66.6,146.8,64.9,147.8z M63,154.5c-0.6,1.5-2,1.8-3.5,0.9c-0.6-0.3-1-0.8-1.4-1.4l4.8-0.7
	C63,153.7,63.1,154.1,63,154.5z M68.5,149.3c0.5,0.4,0.9,0.9,1,1.6l-4.8,0.6c0-0.1,0-0.3,0-0.4C65,149.8,66.6,147.8,68.5,149.3z"/>
<path class="st13" d="M185.1,88.9c3.3,2.8,5.7,6.4,7.2,10.5c2.5,6.9-3.8,18.3-3.8,18.3l-9.8-7.7"/>
<path class="st14" d="M186.2,180.8l2.6-1.5l-0.7-3.8c0,0-4,0.4-4.3,1.8"/>
<path class="st15" d="M185.2,180.7c-0.6-0.4-1.2-0.7-1.8-1c-1.5-0.8-3.8-1.7-4.7-3.3c-0.4-0.6-0.3-1.5,0.1-2.1
	c1.4-1.7,4.4,1.1,6-0.8c0.3-0.4,0.4-6.2,0.4-6.2l5.9,1.6c0,0,1,11.7,0.9,12.5s-2.1,1.4-2.1,1.4c-0.6-0.1-1.2-0.3-1.7-0.7
	c-0.6-0.4-0.1-6-0.9-5.2s-1.1,3.8-1.1,3.8C185.9,180.8,185.5,180.8,185.2,180.7z"/>
<path class="st14" d="M174.9,186.4l2.6-1.5l-0.7-3.8c0,0-4,0.4-4.3,1.8"/>
<path class="st15" d="M173.9,186.4c-0.6-0.4-1.2-0.7-1.8-1c-1.5-0.8-3.8-1.7-4.7-3.3c-0.4-0.6-0.3-1.5,0.1-2.1
	c1.4-1.7,4.4,1.1,6-0.8c0.3-0.4,0.4-6.2,0.4-6.2l5.9,1.6c0,0,1,11.7,0.9,12.5s-2.1,1.4-2.1,1.4c-0.6-0.1-1.2-0.3-1.7-0.7
	c-0.6-0.4-0.1-6-0.9-5.2s-1.1,3.8-1.1,3.8C174.6,186.5,174.2,186.5,173.9,186.4z"/>
<path class="st16" d="M194.2,148.3l1.7,23.3c0,0-2.8,3.8-12.1,1.7l0,0l-0.1-15.7"/>
<path class="st16" d="M183.4,152.9c0.2,2,0,24.1,0,24.1s-2.6,4.8-13.8,0l0.2-18.8"/>
<path class="st16" d="M193.2,154.3c-2.9,1.7-6,3.1-9.2,4.1h-0.1c-0.3-0.1-0.7,0-0.8,0.3c0,0,0,0,0,0c-2,0.6-4,1-6,1.4
	c-2.6,0.4-4.8-1.5-7.5-1.7c0-10.3,0-39.6,4.3-45.8l13-4.3c0.1,1.1,6.3,8.3,6.1,17.1c-0.1,7.8,0.3,15.7,1.2,23.4"/>
<path class="st13" d="M172.7,100.7l1.2,11.8c0,0,9.7,0.4,13.9-2.5v-10"/>
<path class="st17" d="M160.4,92.9l1,1.3c-0.5-1.1-1-2.2-1.4-3.4c-0.3-0.8,1-1.1,1.3-0.3l0.1,0.4c-0.1-0.4-0.2-0.8-0.3-1.3
	c-0.1-0.3,0.1-0.7,0.5-0.8c0.3-0.1,0.7,0.1,0.8,0.5c0.3,1.1,0.6,2.2,1,3.2c-0.2-0.9-0.4-1.9-0.5-2.8c-0.1-0.8,1.2-0.8,1.3,0
	c0.1,1.1,0.3,2.2,0.6,3.2c0-0.4,0-0.7,0.1-1.1c0-0.2,0.1-0.4,0.3-0.5c0-0.1,0.1-0.3,0.1-0.4c0.1-0.3,0.5-0.5,0.8-0.4
	c0.3,0.1,0.5,0.3,0.5,0.6l0.1,4.9c0.2,0.5,0.5,1,0.9,1.4c-0.6,0.4-1.2,0.9-1.8,1.4c-0.5,0.4-1,0.9-1.5,1.4c-0.4-0.5-0.8-1-1.2-1.6
	c0,0-0.1-0.1-0.1-0.1c-1.2-1.7-2.4-3.4-3.6-5.1C158.8,92.9,159.9,92.2,160.4,92.9z"/>
<path class="st13" d="M178.9,89.9c0,0-4.6,1.2-6.4,4.2c-1.2,2-2.2,4.1-3.1,6.3l-3.4-5.2c0,0-4.1,1.3-5.7,3.3c0,0,4.9,10.6,9.1,11.5
	s8.7-6.3,8.7-6.3s0.9,3,0.8-0.2"/>
<path class="st18" d="M176,101.3c1.3-1.1,2.3-2.5,2.9-4.1c0.6-1.9-0.1-3.5-0.8-5.2c-0.7-1.7-1.1-3.5-1.2-5.4
	c-0.1-1.8,0.1-3.6,0.3-5.4c0-0.1,0-0.2,0-0.2c0.6-2,1.9-3.8,4.3-4c6.4-0.5,6.7,6.5,6.7,9.4s-0.4,4.8,1.8,6s3.6,4.3,1.6,6.9
	s-0.2,1.6,1.1,3.9s1,5.1-1.8,6.1s-15.6-0.9-16.8-2.1c-0.4-0.5-0.6-1.1-0.6-1.7C173.9,103.7,174.7,102.3,176,101.3z"/>
<path class="st10" d="M305.9,202.4c-15,11.6-32.6,18-50.8,22.2c-31.7,11.7-67.6,13.4-67.6,13.4l16.9,9.8c0,0,14,7.7,64.9-11
	c27-9.9,45.8-34,57.3-54.5C320.3,189.7,313.4,196.4,305.9,202.4z"/>
<path class="st7" d="M113.1,98c0,0,0.6,8.9-6.3,9.4c0,0,5.8,2.4,6.8,7.1c0,0,0.7-6.5,6.6-7.1C115.9,106.4,112.9,102.4,113.1,98z"/>
</svg>
