<svg width="65" height="65" viewBox="0 0 65 65" fill="none" xmlns="http://www.w3.org/2000/svg">
<path d="M32.5 65C50.4 65 65 50.4 65 32.5C65 14.6 50.4 0 32.5 0C14.6 0 0 14.6 0 32.5C0 50.4 14.6 65 32.5 65Z" fill="white"/>
<path d="M38.5992 27.6175C38.5992 25.2538 36.6812 23.3162 34.3413 23.3162C32.0013 23.3162 30.0833 25.2537 30.0833 27.6175C30.0833 29.9813 32.0013 31.9188 34.3413 31.9188C36.6812 31.9188 38.5992 29.9812 38.5992 27.6175Z" fill="#A91F23"/>
<path d="M27.0912 38.3512V40.4825C27.0912 41.1413 27.5899 41.645 28.242 41.645H40.402C41.0542 41.645 41.5528 41.1412 41.5528 40.4825V38.3512C41.5528 35.135 38.9443 32.5 35.7604 32.5H32.8834C29.6997 32.5 27.0912 35.135 27.0912 38.3512Z" fill="#A91F23"/>
<path d="M20.5317 30.175V34.825C20.5317 35.4838 21.0304 35.9875 21.6825 35.9875C22.3346 35.9875 22.8333 35.4837 22.8333 34.825V30.175C22.8333 29.5162 22.3346 29.0126 21.6825 29.0126C21.0304 29.0126 20.5317 29.5162 20.5317 30.175Z" fill="#A91F23"/>
<path d="M44.6983 17H22.8333C21.529 17 20.5317 18.0075 20.5317 19.325V22.0375C20.5317 22.6963 21.0304 23.1999 21.6825 23.1999C22.3346 23.1999 22.8333 22.6963 22.8333 22.0375V19.325H44.6983V45.675H22.8333V42.9625C22.8333 42.3037 22.3346 41.8001 21.6825 41.8001C21.0304 41.8001 20.5317 42.3038 20.5317 42.9625V45.675C20.5317 46.9925 21.5291 48 22.8333 48H44.6984C46.0026 48 47 46.9925 47 45.675V19.325C46.9999 18.0075 46.0026 17 44.6983 17Z" fill="#A91F23"/>
<path d="M25.4801 38.8163C25.4801 38.1575 24.9814 37.6538 24.3294 37.6538H19.1508C18.4986 37.6538 18 38.1576 18 38.8163C18 39.475 18.4987 39.9787 19.1508 39.9787H24.3294C24.9815 39.9787 25.4801 39.475 25.4801 38.8163Z" fill="#A91F23"/>
<path d="M19.1508 27.3462H23.9457C24.5979 27.3462 25.0965 26.8425 25.0965 26.1838C25.0965 25.5251 24.5978 25.0213 23.9457 25.0213H19.1508C18.4986 25.0213 18 25.5251 18 26.1838C18 26.8425 18.4987 27.3462 19.1508 27.3462Z" fill="#A91F23"/>
</svg>
