<?xml version="1.0" encoding="utf-8"?>
<!-- Generator: Adobe Illustrator 24.0.1, SVG Export Plug-In . SVG Version: 6.00 Build 0)  -->
<svg version="1.1" id="_1-10" xmlns="http://www.w3.org/2000/svg" xmlns:xlink="http://www.w3.org/1999/xlink" x="0px" y="0px"
	 viewBox="0 0 400 300" style="enable-background:new 0 0 400 300;" xml:space="preserve">
<style type="text/css">
	.st0{fill:#96CF40;}
	.st1{fill:#F8E6D2;}
	.st2{fill:#F7931E;}
	.st3{opacity:0.46;fill:#8EC62C;enable-background:new    ;}
	.st4{fill:url(#SVGID_1_);}
	.st5{fill:#FFFFFF;}
	.st6{fill:#282B4E;}
	.st7{opacity:0.1;enable-background:new    ;}
	.st8{fill:#42210B;}
	.st9{fill:#FFC4B0;}
	.st10{fill:#5780F6;}
	.st11{fill:#2D2D2D;}
	.st12{fill:#606060;}
	.st13{fill:#333333;}
	.st14{fill:none;stroke:#333333;stroke-width:0.75;stroke-miterlimit:10;}
</style>
<title>8_Navigation_isometric</title>
<path class="st0" d="M87.7,237.6c0.2-0.5,0.4-1,0.6-1.5c0.4-1,0.7-2,1.1-2.9c1.3-3.5,2.3-7.1,3.2-10.7c1-3.6,1.7-7.3,2.1-11
	c0,0.2-0.2,1.6-0.1,0.7l0.1-0.8c0-0.4,0.1-0.8,0.1-1.2c0.1-0.9,0.2-1.8,0.3-2.7c0.2-1.8,0.3-3.7,0.3-5.5c0.1-3.7,0.1-7.5-0.2-11.2
	c-0.1-1.8-0.3-3.7-0.5-5.5c0-0.4-0.1-0.8-0.1-1.1v-0.3c-0.1-0.9-0.3-1.8-0.4-2.7c-0.6-3.3-1.3-6.6-2.2-9.8l-48,27.7
	c-4.2,2.5-5.7,7.9-3.2,12.2c0.8,1.3,1.9,2.5,3.2,3.2l43,24.9l0.6-1.3L87.7,237.6z"/>
<path class="st0" d="M192.1,158.4l8,4.6c1.4,0.8,2.9,1.7,4.3,2.5l0.5,0.2l0,0l1.6-0.9l3.8-2.2c2.6-1.5,5.2-3,7.7-4.5
	c5.2-3,10.4-6.1,15.6-9.2c16.5-10,32.9-20.3,49-31l-40.9-23.5c-5.4-3.1-12-3.1-17.3,0l-71.6,41.4l23,13.2L192.1,158.4z"/>
<path class="st0" d="M207.8,253.5c-0.8,0.1-1.6,0-2.3-0.2c-7.5-2.4-15-4.9-22.5-7.4c-25.4-8.6-50.6-17.5-75.7-26.9
	c-1.6,9.4-4.4,18.5-8.3,27.1l71.5,41.3c5.8,3.3,12.9,3.3,18.6,0l21.7-12.6c-0.9-6.1-1.8-12.2-2.6-18.3
	C208.1,255.4,207.9,254.5,207.8,253.5z"/>
<path class="st0" d="M108.9,204.9c7,2.6,14,5.2,21,7.8c25.2,9.2,50.5,18,76,26.3c-2.4-20-4.4-40.1-5.9-60.3
	c-0.5-0.2-0.9-0.4-1.4-0.6c-2.8-1.3-5.4-3-8.1-4.6l-8.5-4.9l-16.5-9.4L139,143.9L104.2,164c0.5,1.7,1,3.5,1.5,5.2
	C108.6,180.9,109.7,192.9,108.9,204.9z"/>
<path class="st0" d="M368.5,167.4l-72.5-41.7c-9.7,6.5-19.4,12.8-29.2,19.1c-4.7,3-9.5,6-14.3,8.9c4.9,3,9.8,6,14.6,9.1
	c21.8,13.6,43.5,27.4,65,41.4l36.4-21.2c4.3-2.5,5.8-8,3.3-12.3C371,169.3,369.8,168.1,368.5,167.4z"/>
<path class="st0" d="M239.2,161.7l-3.8,2.2c-5.3,3.1-10.5,6.2-15.9,9.3c-2,1.1-3.9,2.3-5.9,3.4c0.5,6.9,1,13.8,1.6,20.6
	c1.2,13.3,2.6,26.5,4.2,39.8c0.4,3.3,0.8,6.6,1.2,9.9c0.2,1.7,0.4,3.4,0.7,5.2v0.2l0.1,0.9l0.3,2.5c0.5,3.9,1.1,7.7,1.7,11.6
	l95.2-55.4l-2.8-1.8C290.6,193.6,265,177.5,239.2,161.7z"/>
<path class="st1" d="M252.4,153.6c4.8-2.9,9.6-5.9,14.3-8.9c9.8-6.2,19.6-12.6,29.2-19.1l-13.3-7.6c-16.1,10.7-32.4,21-49,31
	c-5.2,3.1-10.4,6.2-15.6,9.2c-2.6,1.5-5.2,3-7.7,4.5l-3.8,2.2l-1.6,0.9l0,0l-0.5-0.2c-1.4-0.8-2.9-1.6-4.3-2.5l-8-4.6l-16.3-9.3
	l-23-13.2l-13.8,8l26.6,15.3l16.5,9.4l8.5,4.9c2.7,1.5,5.3,3.2,8.1,4.6c0.5,0.2,0.9,0.4,1.4,0.6c1.5,20.1,3.4,40.2,5.9,60.3
	c-25.5-8.3-50.8-17.1-76-26.3c-7-2.6-14-5.1-21-7.8c0.7-12-0.4-24-3.3-35.7c-0.4-1.7-0.9-3.5-1.5-5.2l-12.3,7.1
	c0.8,3.2,1.5,6.4,2.1,9.7c0.2,0.9,0.3,1.8,0.4,2.7v0.3c0,0.4,0.1,0.8,0.1,1.1c0.2,1.8,0.4,3.7,0.5,5.5c0.2,3.7,0.3,7.5,0.2,11.2
	c-0.1,1.8-0.2,3.7-0.3,5.5c-0.1,0.9-0.2,1.8-0.3,2.7c0,0.4-0.1,0.8-0.1,1.2l-0.1,0.8c-0.1,1,0.1-0.4,0.1-0.7
	c-0.4,3.7-1.1,7.4-2.1,11c-0.9,3.6-1.9,7.2-3.2,10.7c-0.4,1-0.7,2-1.1,2.9c-0.2,0.5-0.4,1-0.6,1.5l-0.1,0.3l-0.4,1.3l12,6.9
	c3.9-8.6,6.7-17.8,8.4-27.1c25.1,9.4,50.3,18.3,75.6,26.9c7.5,2.5,15,5,22.5,7.4c0.8,0.2,1.5,0.3,2.3,0.2c0.1,1,0.3,1.9,0.4,2.9
	c0.8,6.1,1.7,12.2,2.6,18.3l12.8-7.4c-0.6-3.9-1.1-7.7-1.7-11.6l-0.3-2.5l-0.1-0.9v-0.2c-0.2-1.7-0.5-3.4-0.7-5.2
	c-0.4-3.3-0.8-6.6-1.2-9.9c-1.6-13.2-3-26.5-4.2-39.8c-0.6-6.9-1.2-13.8-1.6-20.6c2-1.1,3.9-2.3,5.9-3.4c5.3-3.1,10.6-6.2,15.9-9.3
	l3.8-2.2c25.8,15.8,51.4,31.9,76.8,48.4l2.8,1.8l13.4-7.8c-21.5-14-43.2-27.9-65-41.4C262.2,159.7,257.3,156.6,252.4,153.6z"/>
<path class="st2" d="M211.8,40.7c0.6-0.5,1.5-0.7,2.3-0.5c0.4,0.1,0.8-0.1,0.9-0.5c0.1-0.4-0.1-0.8-0.5-0.9l0,0
	c-1.3-0.4-2.8-0.1-3.8,0.9C210.1,40.4,211.1,41.5,211.8,40.7z"/>
<ellipse class="st3" cx="104.1" cy="210.6" rx="19.6" ry="4"/>
<linearGradient id="SVGID_1_" gradientUnits="userSpaceOnUse" x1="81.6647" y1="178.0699" x2="127.7513" y2="178.0699">
	<stop  offset="0" style="stop-color:#F5524E"/>
	<stop  offset="1" style="stop-color:#D0342F"/>
</linearGradient>
<path class="st4" d="M104.4,211.7c-3.3-3.5-6.3-7.2-9.2-11.1c-5-6.7-10.3-14.2-12.3-22.4c-2.6-10.4-1.4-23.1,7.9-29.8
	c10.9-7.9,29.1-3.6,34.7,8.9c7.2,16.1-3.9,31.5-12.8,44.1C109.9,205.1,107.1,208.5,104.4,211.7z"/>
<circle class="st5" cx="104.7" cy="168.9" r="12.4"/>
<path class="st6" d="M361.8,100.1c-4.5-3.6-10.5-4.7-16-3c-20.5,5.8-20.8,34.5-20.8,34.5s-7.4-5.5-18.2,1.9
	c-13.4,9.2-10.5,32.9-10.5,32.9l4.2,2.4l78.3-46.3C378.9,122.5,373.8,105,361.8,100.1z"/>
<path class="st7" d="M361.8,100.1c-4.5-3.6-10.5-4.7-16-3c-20.5,5.8-20.8,34.5-20.8,34.5s-7.4-5.5-18.2,1.9
	c-13.4,9.2-10.5,32.9-10.5,32.9l4.2,2.4l78.3-46.3C378.9,122.5,373.8,105,361.8,100.1z"/>
<path class="st6" d="M300.6,168.9l78.3-46.3c0,0-8.3-28.8-28.8-23S329.3,134,329.3,134s-7.4-5.5-18.2,1.9
	C297.6,145.1,300.6,168.9,300.6,168.9z"/>
<polygon class="st3" points="190.5,177 233.6,148.9 274.2,137.1 281.2,140.2 211.2,188.6 "/>
<path class="st8" d="M263.3,46.2c0-0.3,2.2,2.3,2.7,4.7s-0.5,9.4-1.3,10.2s-4.6,1.8-4.6,1.8"/>
<path class="st8" d="M246.8,28.4c-1.4,5.4-2.7,10.7-4.1,16.1c-0.4,1.3-0.6,2.7-0.5,4.2c0.4,1.8,1.4,3.4,2.7,4.7
	c3,3.4,6.1,6.6,9.6,9.5c0.8,0.8,1.7,1.3,2.7,1.6c1,0.1,2,0.1,2.9-0.2c0.5-0.1,1.1-0.3,1.5-0.6c0.5-0.6,0.8-1.3,0.8-2.1
	c0.8-6.8,0.7-13.8,0.9-20.7c0.1-2.3,0.1-4.7-0.8-6.8c-1-2.1-2.8-3.7-4.9-4.7c-3.5-1.6-7-3.3-11.1-4.1"/>
<path class="st9" d="M224.6,47.8c-1.9-1-2.9-3-4.7-4.2l-0.1-0.1h-0.1c-0.6-0.2-1.3,0.2-1.4,0.9c-0.1,0.3,0,0.6,0.1,0.9
	c0.5,0.9,1.2,1.6,2.1,2c0.1,0.3,0.4,0.5,0.7,0.5c1.1,0.3,2.1,0.7,3.2,1.1c0.6,0.3,1.3,0.1,1.6-0.4c0.1-0.3,0.2-0.6,0.1-0.9
	C225.7,48,225.1,48,224.6,47.8z"/>
<path class="st9" d="M224.7,51.2L224.7,51.2c-0.7-1.6-1.3-3.2-1.9-4.9c-0.4-0.4-0.8-0.8-1.2-1.3c-0.1,0-0.2,0-0.3,0
	c-0.6,0-1.1,0.5-1.1,1.1c0,0.1,0,0.2,0.1,0.3l0.1,0.4c-0.1,0.3-0.1,0.6,0,0.9c0.5,1,1,2.1,1.5,3.1c0.2,0.5,0.4,1,0.7,1.5l0.3,0.6
	c0.7,1.4,2.7,0.2,2-1.2L224.7,51.2z"/>
<path class="st10" d="M238.6,28.8l-0.2,0.3c-0.3,0.6-0.6,1.2-1,1.8c-0.4,1.4-0.8,2.8-1.2,4.2c-0.8,2.7-0.7,5.8-2.3,8.3
	c-1.9,3-5.9,2.5-8.7,1.4c-0.7-0.3-1.5-0.7-2.2-1l0,0c-0.3,4-0.4,8.3,1.2,12c3.3,1.2,6.8,1.7,10.3,1.6c4.1-0.2,9.6-1.4,11.1-5.7
	L238.6,28.8z"/>
<path class="st8" d="M238.1,36.3c-0.7,5.4,0,11.1-2.2,16.2c-0.7,1.6-1.7,3.1-2.9,4.5l-0.2,0.2c4.8-0.1,6.6-0.8,6.6-0.8l-0.8-23.8
	c-0.1,0.4-0.4,1.4-0.9,2.8C238.1,35.6,238.2,36,238.1,36.3z"/>
<polygon class="st11" points="210.6,44.2 218.3,55.2 224,55.6 216.3,44 "/>
<polygon class="st12" points="212.8,42.2 218.1,42.8 226.5,54.5 224,55.6 217.1,46.1 210.6,44.2 "/>
<path class="st9" d="M218.6,52.3h-0.4c0.4-0.5,0.3-1.3-0.2-1.7c-0.2-0.2-0.4-0.2-0.7-0.3h-0.9c0.4-0.4,0.5-1,0.2-1.5
	c-0.5-0.8-2.6-0.8-3,0c-0.3,0.6-0.1,1.3,0.4,1.6l0.3,0.1c-0.5,0.5-0.5,1.2,0,1.7c0.2,0.2,0.5,0.3,0.8,0.4h0.2
	c-0.4,0.5-0.2,1.3,0.3,1.6c0.2,0.1,0.5,0.2,0.7,0.2c0.8,0.1,1.6,0.1,2.4,0.1c0.6,0,1.2-0.5,1.2-1.2
	C219.8,52.8,219.2,52.3,218.6,52.3z"/>
<path class="st9" d="M231.7,138.8c0.5,3.1,0.6,6.2,0.3,9.4c-0.1,0.7-0.2,1.4-0.3,2.1l7.9-1.3v-10.2H231.7z"/>
<path class="st8" d="M231.8,144.1c-0.5,2.8-2,6.7-3.5,8.1c-1.8,1.7-12,7.1-7.8,10c3.2,2.1,20.2-6.4,20.6-8.7
	c0.3-1.7-0.6-6.9-1.1-9.6C237.6,145.4,234.5,145.2,231.8,144.1z"/>
<path class="st6" d="M242.1,139.2c0.5-9,1.8-25.5,2-26.3c0.3-1.2,4.7-18.3,4.7-18.3c-1.2-5.8-2.3-11.6-3.1-17.5
	c-1.4-0.1,1.7-15.8,0.3-16.1c-2.8-0.6-5.3-4.4-7.8-5.6c-2.6,14.8-11.1,58.3-13,81.5C227.1,141.1,235.9,141.7,242.1,139.2z"/>
<path class="st9" d="M267.7,125.6c2,2.2,4.2,7.3,5.6,9.8c0.3,0.6,0.6,1.1,0.9,1.7l5.2-4.2l-5.2-11.6L267.7,125.6z"/>
<path class="st8" d="M277.6,128.5c-1.3,2.1-3.7,3.3-6.1,3.1c0.2,1.8,1,5.1,0.2,6.3c-1.1,1.8-9.5,9-5.1,10.8
	c3.2,1.3,14.8-8.9,14.6-10.9C281.1,136.3,278.6,130.8,277.6,128.5z"/>
<path class="st6" d="M264.1,132.2c0.1,0.2,0.3,0.2,0.5,0.1c2.7-1.1,5.3-2.4,7.7-4.1c2.4-1.9,3.5-3.9,5.4-6.4l-1-1.7
	c-4.5-9.2-13.5-39.8-13.9-41.9c-0.5-2.5-2.6-24.8-2.6-24.8l-20.4-3.7c0,0,0.7,19.5,2.3,36.8c0.8,3,1.7,6,2.8,8.9
	C249.5,107.6,255.3,121.9,264.1,132.2L264.1,132.2z"/>
<path class="st9" d="M260.7,81.6c-0.1-1.8-0.4-3.6-0.7-5.4c0-2.1-0.2-4.1-0.5-6.2c-2.2-0.1-4.5-0.1-6.7,0.1c0,1.1,0,2.2-0.1,3.3
	c-0.3,0.8-0.5,1.6-0.7,2.5c-0.1,0.1-0.3,0.3-0.3,0.4c-1,2.1-1.7,4.4-1.9,6.7c0,0.7,0.6,1.2,1.2,1.2c0.4,0,0.8-0.2,1-0.6
	c0.3-0.7,0.7-1.5,1-2.3c0,1,0,2.1,0,3.1c0,0.7,0.5,1.2,1.2,1.2c0.6,0,1.2-0.3,1.4-0.8c0.4,0.5,1,0.7,1.6,0.5c0.5-0.2,0.8-0.7,1-1.2
	c0.4,0.2,1,0.2,1.4,0C260.6,83.6,260.7,82.5,260.7,81.6z"/>
<path class="st10" d="M257.9,34.9c-1.9-4.2-9-7.4-11.7-8.6c-0.8,0-1.7,0.1-2.6,0.2l-1.1,0.2l-0.8,0.1c-0.4,0.1-0.8,0.2-1.1,0.4
	c-0.5,0.3-1,0.6-1.5,0.9c-0.1,0.1-0.2,0.1-0.3,0.1c-0.4,0.3-0.8,0.7-1.2,1.2c0,0-0.1,0.1-0.1,0.1c-0.3,1.1-0.4,2.2-0.4,3.3
	c-0.1,3.2-0.1,6.5,0.2,9.7c0.2,4.3,0.6,8.6,0.9,12.9l0.4,2.1c4.4,3.5,12.1,4.6,12.7,4.5s0,6-0.4,10.4c1.6,0.4,3.1,0.7,4.7,0.9l0,0
	c1.1,0.2,2.3,0.3,3.4,0.3c0.7,0,1.4,0,2.1,0C264.3,55.4,260.4,40.2,257.9,34.9z"/>
<path class="st9" d="M243.7,29.6c0.7,0.4,1.4,0.6,2.2,0.6c2.5,0.1,3.9-2.5,4.9-4.4c1.2-2.2,1.9-4.7,2-7.2c0-0.4,0-0.8-0.1-1.2
	c-0.9-2.8-11.1-5-11.7,0.6C240.6,21.4,240.3,27.6,243.7,29.6z"/>
<path class="st9" d="M251.6,21.7c-0.7,0-1.4,0.2-1.9,0.7c-0.5,0.5-0.9,1.2-1,1.9c-0.1,0.3,0.1,0.6,0.4,0.8c0.2,0.4,0.8,0.6,1.2,0.3
	c0,0,0,0,0.1,0c0.7-0.4,1.3-1,1.8-1.6C252.5,23.1,252.6,21.9,251.6,21.7z"/>
<path class="st13" d="M255.4,14.9c-0.2-1.2-0.9-2.3-1.9-3c-1.2-0.8-2.6-1-3.9-0.6c-0.5-0.8-1.3-1.5-2.2-1.8c-1.7-0.5-3.6,0-4.7,1.4
	c-1.5-0.1-2.9,0.2-4.1,1c-1.3,0.9-2.1,2.4-2.1,3.9c0,0.2,0,0.5,0,0.7c-0.1,0.4-0.1,0.8,0,1.2c0.4,2.1,2.3,3.6,4.4,3.6
	c-0.2-1.5,0-4.4,1.7-3.6c0.1,0,0.2,0,0.3,0.1c1.1,0.5,0.2,2,1.8,2.2s2.5-1,3.9,0.4s-1.7,3,1.6,5.6c0,0.2,0,0.4,0.1,0.6
	c0-0.2,1.3-1.5,1.5-1.7c0.5-0.6,1.1-1.3,1.6-2c0.9-1.1,1.6-2.4,2.1-3.7C255.7,17.8,255.7,16.3,255.4,14.9z"/>
<path class="st9" d="M251.3,23.7c0.1-1-0.6-1.5-1.4-1.1c-1.2,0.7-1.9,1.9-2,3.3c0,0.3,0.1,0.5,0.3,0.7c0,0.1,0.1,0.1,0.1,0.2
	c0.4,0.4,0.9,0.4,1.3,0c0,0,0.1-0.1,0.1-0.1C250.5,26,251.1,24.9,251.3,23.7z"/>
<path class="st14" d="M242.6,22.4c-0.3-0.1-3.3-1.2-3.3-1.2s-0.1,3,1.5,3.7S242.6,22.4,242.6,22.4z"/>
<path class="st14" d="M244.2,22.9l3.5,1.2c0,0,0,3-2.3,2.5S244.2,22.9,244.2,22.9z"/>
<path class="st13" d="M249.3,22.5l-1.7,1.5c-0.2,0.2,0.1,0.5,0.3,0.3l1.7-1.5C249.8,22.6,249.5,22.3,249.3,22.5z"/>
<path class="st13" d="M242.9,26.5c-0.3,0-0.7-0.1-0.7-0.4c0-0.2,0.1-0.4,0.2-0.6c0.2-0.4,0.4-0.7,0.5-1.1c0-0.1,0-0.2-0.1-0.3
	c-0.1,0-0.2,0-0.2,0.1c-0.2,0.4-0.4,0.7-0.5,1.1c-0.2,0.3-0.3,0.6-0.3,0.9c0,0.5,0.7,0.7,1.1,0.8S243.2,26.6,242.9,26.5z"/>
<path class="st13" d="M244.3,22.7c-0.6-0.1-1.3-0.3-1.9-0.5c-0.3-0.1-0.4,0.3-0.1,0.4c0.6,0.2,1.2,0.4,1.9,0.5
	C244.5,23.2,244.6,22.7,244.3,22.7z"/>
<path class="st8" d="M247.1,101.1c0,0-3.4-12-5.3-18.2l1.7,36.4C243.4,119.4,245.4,105.8,247.1,101.1z"/>
<path class="st8" d="M255.2,31.6c0,0-6.6,3.1-2.9,23.1c0,0-5.9-10.2-5.6-16.3s3.1-9.7,4.5-10.1S256,30.2,255.2,31.6z"/>
<path class="st10" d="M237.3,30c-1.2,5,0,10.2-0.1,13.1c0-3.1,0.3-6.3,1-9.3c0.6-2.3,1.4-5.3,3.4-6.8l0,0
	C241.7,27,237.9,27.5,237.3,30z"/>
<path class="st2" d="M209.7,38.8c1.2-2,3.5-2,5.4-1c0.9,0.5,1.6-0.8,0.8-1.3c-2.6-1.4-5.8-1.1-7.4,1.6
	C207.9,38.8,209.2,39.6,209.7,38.8z"/>
<path class="st2" d="M207.7,37c0.6-3.4,5.7-3.9,8-1.9c0.7,0.6,1.8-0.4,1.1-1.1c-3.1-2.7-9.7-2-10.5,2.5C206,37.5,207.5,38,207.7,37
	L207.7,37z"/>
<path class="st6" d="M183.5,80.8c-1.8-1.4-4.1-1.8-6.3-1.2c-8.1,2.3-8.2,13.6-8.2,13.6s-2.9-2.2-7.2,0.8c-5.3,3.6-4.1,13-4.1,13
	l1.7,1l30.9-18.2C190.2,89.7,188.2,82.7,183.5,80.8z"/>
<path class="st7" d="M183.5,80.8c-1.8-1.4-4.1-1.8-6.3-1.2c-8.1,2.3-8.2,13.6-8.2,13.6s-2.9-2.2-7.2,0.8c-5.3,3.6-4.1,13-4.1,13
	l1.7,1l30.9-18.2C190.2,89.7,188.2,82.7,183.5,80.8z"/>
<path class="st6" d="M159.4,107.9l30.9-18.2c0,0-3.3-11.4-11.4-9.1s-8.2,13.6-8.2,13.6s-2.9-2.2-7.2,0.8
	C158.2,98.5,159.4,107.9,159.4,107.9z"/>
<path class="st6" d="M71.9,96.3c-3.5-2.7-8.1-3.6-12.3-2.3c-15.7,4.4-15.9,26.5-15.9,26.5s-5.7-4.2-14,1.5c-10.3,7-8,25.2-8,25.2
	l3.2,1.9L85,113.6C85,113.6,81.1,100.1,71.9,96.3z"/>
<path class="st7" d="M71.9,96.3c-3.5-2.7-8.1-3.6-12.3-2.3c-15.7,4.4-15.9,26.5-15.9,26.5s-5.7-4.2-14,1.5c-10.3,7-8,25.2-8,25.2
	l3.2,1.9L85,113.6C85,113.6,81.1,100.1,71.9,96.3z"/>
<path class="st6" d="M24.9,149.1L85,113.6c0,0-6.4-22.1-22.1-17.7s-15.9,26.5-15.9,26.5s-5.7-4.2-14,1.5
	C22.6,130.9,24.9,149.1,24.9,149.1z"/>
</svg>
