<?xml version="1.0" encoding="utf-8"?>
<!-- Generator: Adobe Illustrator 24.0.1, SVG Export Plug-In . SVG Version: 6.00 Build 0)  -->
<svg version="1.1" id="Layer_1" xmlns="http://www.w3.org/2000/svg" xmlns:xlink="http://www.w3.org/1999/xlink" x="0px" y="0px"
	 viewBox="0 0 65 65" style="enable-background:new 0 0 65 65;" xml:space="preserve">
<style type="text/css">
	.st0{fill:#FFFFFF;}
	.st1{fill:#A91F23;}
</style>
<path class="st0" d="M32.5,65C50.4,65,65,50.4,65,32.5S50.4,0,32.5,0S0,14.6,0,32.5S14.6,65,32.5,65z"/>
<path class="st1" d="M35.1,33.3c3.9,0,7.1-3.2,7.1-7.1c0-3.9-3.2-7.1-7.1-7.1s-7.1,3.2-7.1,7.1C27.9,30.1,31.1,33.3,35.1,33.3z
	 M35.1,26.9c-1.3,0-2.4-1.1-2.4-2.4c0-1,0.7-1.9,1.6-2.2v-0.9c0-0.4,0.4-0.8,0.8-0.8c0.4,0,0.8,0.4,0.8,0.8v0.9
	c0.9,0.3,1.6,1.2,1.6,2.2c0,0.4-0.4,0.8-0.8,0.8c-0.4,0-0.8-0.4-0.8-0.8c0-0.4-0.4-0.8-0.8-0.8c-0.4,0-0.8,0.4-0.8,0.8
	s0.4,0.8,0.8,0.8c1.3,0,2.4,1.1,2.4,2.4c0,1-0.7,1.9-1.6,2.2v0.9c0,0.4-0.4,0.8-0.8,0.8c-0.4,0-0.8-0.4-0.8-0.8V30
	c-0.9-0.3-1.6-1.2-1.6-2.2c0-0.4,0.4-0.8,0.8-0.8s0.8,0.4,0.8,0.8c0,0.4,0.4,0.8,0.8,0.8c0.4,0,0.8-0.4,0.8-0.8
	C35.9,27.3,35.5,26.9,35.1,26.9z M20,37.3v7.9c0,0.4,0.4,0.8,0.8,0.8H24c0.4,0,0.8-0.4,0.8-0.8v-8.7h-4C20.4,36.5,20,36.8,20,37.3
	L20,37.3z M46.8,36.7C46.8,36.7,46.8,36.7,46.8,36.7c-0.9-0.9-2.3-0.9-3.2-0.1L38.8,41c-0.2,0.2-0.5,0.2-0.7,0.2L31,39.5
	c-0.4-0.1-0.7-0.5-0.6-1c0.1-0.4,0.5-0.7,1-0.6l4.9,1.2c1.2,0.3,2.4-0.4,2.8-1.7c0,0,0,0,0,0c0.1-0.4-0.2-0.9-0.6-1l-6.4-1.6
	c-0.1,0-0.3,0-0.4,0l-5.4,1.2v8.4L38.2,46c0,0,0.1,0,0.1,0c0.2,0,0.4-0.1,0.6-0.2l7.9-7.9C47.1,37.5,47.1,37,46.8,36.7z"/>
</svg>
