<svg width="65" height="65" viewBox="0 0 65 65" fill="none" xmlns="http://www.w3.org/2000/svg">
<path d="M32.5 65C50.4 65 65 50.4 65 32.5C65 14.6 50.4 0 32.5 0C14.6 0 0 14.6 0 32.5C0 50.4 14.6 65 32.5 65Z" fill="white"/>
<path d="M40.5 35.75C43.9514 35.75 46.7494 32.952 46.7494 29.5006C46.7494 26.0492 43.9514 23.2512 40.5 23.2512C37.0486 23.2512 34.2506 26.0492 34.2506 29.5006C34.2506 32.952 37.0486 35.75 40.5 35.75Z" fill="#A91F23"/>
<path d="M40.1868 21.3912C39.3881 18.8562 37.0443 17 34.2506 17C30.8043 17 28.0012 19.8031 28.0012 23.2494C28.0012 26.0431 29.8575 28.3887 32.3925 29.1856C32.5537 24.9575 35.9568 21.5544 40.1868 21.3912Z" fill="#A91F23"/>
<path d="M18.615 32.0019C18.2738 32.0094 18 32.2869 18 32.6281V43.8762C18 44.2212 18.2794 44.5006 18.6244 44.5006H21.2775C21.5569 44.5006 21.8025 44.315 21.8794 44.0468L24.645 34.2987C24.8231 33.6687 24.4856 33.0069 23.8706 32.7837C22.7381 32.3694 21 31.9625 18.615 32.0019V32.0019Z" fill="#A91F23"/>
<path d="M45.5006 38.8757C43.0012 38.8757 38.0006 42.0407 35.5012 42.0407C33.0019 42.0407 30.1875 40.1244 30.1875 40.1244C30.1875 40.1244 33.555 40.7488 35.4994 40.7488C37.4437 40.7488 37.9987 40.0851 37.9987 39.1869C37.9987 36.9988 34.2825 36.6594 32.4037 36.3744C30.5587 35.3469 29.6006 34.5351 26.5444 34.2763C26.5256 34.4544 26.4975 34.6307 26.4487 34.8088L23.9381 43.6588C26.7825 44.9507 31.68 47.0001 34.2506 47.0001C38.0006 47.0001 48 41.9994 48 40.7507C48 39.5001 46.7512 38.8757 45.5006 38.8757Z" fill="#A91F23"/>
</svg>
