<?xml version="1.0" encoding="UTF-8" standalone="no"?><!-- Generator: Gravit.io --><svg xmlns="http://www.w3.org/2000/svg" xmlns:xlink="http://www.w3.org/1999/xlink" style="isolation:isolate" viewBox="0 0 400 300" width="400pt" height="300pt"><defs><clipPath id="_clipPath_a995Y5G3RA9m40Bz6vZaWJ8qDC6XHUY6"><rect width="400" height="300"/></clipPath></defs><g clip-path="url(#_clipPath_a995Y5G3RA9m40Bz6vZaWJ8qDC6XHUY6)"><path d=" M 205 271.43 L 350.3 188.62 C 353.507 186.79 355.496 183.391 355.521 179.7 C 355.546 176.008 353.602 172.582 350.42 170.71 L 214.75 91.05 C 210.219 88.392 204.609 88.373 200.06 91 L 50.15 177.55 C 46.618 179.588 44.455 183.369 44.488 187.447 C 44.521 191.525 46.745 195.269 50.31 197.25 L 184.1 271.55 C 190.609 275.166 198.533 275.12 205 271.43 L 205 271.43 Z " fill="rgb(40,43,78)"/><g opacity="0.68"><linearGradient id="_lgradient_0" x1="0" y1="0.5" x2="0.8762178365219342" y2="0.018084755417696885" gradientTransform="matrix(152.21,0,0,67.45,102.69,160.71)" gradientUnits="userSpaceOnUse"><stop offset="100%" stop-opacity="0" style="stop-color:rgb(241,90,36)"/><stop offset="100%" stop-opacity="0.02828054298642534" style="stop-color:rgb(241,90,36)"/></linearGradient><path d=" M 151.9 228.16 L 254.9 173.55 L 162.83 160.71 L 102.69 199.19 C 108.45 202.7 146.22 224.5 151.9 228.16 Z " fill="url(#_lgradient_0)"/></g><g opacity="0.68"><linearGradient id="_lgradient_1" x1="0" y1="0.5" x2="0.7750292799603921" y2="-0.13192532407245416" gradientTransform="matrix(82.56,0,0,43.05,242.44,179.79)" gradientUnits="userSpaceOnUse"><stop offset="100%" stop-opacity="0" style="stop-color:rgb(241,90,36)"/><stop offset="100%" stop-opacity="0.021317416329140897" style="stop-color:rgb(241,90,36)"/></linearGradient><path d=" M 275.47 222.84 L 325 196 L 286 179.79 L 242.44 207.03 C 248.26 210.59 269.79 219.18 275.47 222.84 Z " fill="url(#_lgradient_1)"/></g><path d=" M 214.54 126.41 C 213.88 124 210.73 124.12 208.97 125.1 C 208.714 125.234 208.518 125.458 208.42 125.73 C 207.01 126.84 206.05 128.56 206.77 130.38 C 207.64 132.57 210.26 132.82 212.14 131.79 C 214.054 130.736 215.035 128.538 214.54 126.41 L 214.54 126.41 Z  M 212.15 127.71 C 212.081 128.525 211.598 129.247 210.87 129.62 C 210.29 129.91 209.22 130.15 209.05 129.29 C 208.88 128.43 209.66 127.87 210.24 127.51 C 210.416 127.404 210.564 127.256 210.67 127.08 C 210.986 126.948 211.331 126.903 211.67 126.95 C 212.18 127 212.2 127.19 212.15 127.71 Z " fill="rgb(49,49,21)"/><path d=" M 105.47 67.93 C 105.268 67.934 105.101 68.089 105.081 68.29 C 105.06 68.491 105.193 68.675 105.39 68.72 C 105.592 68.716 105.759 68.561 105.779 68.36 C 105.8 68.159 105.667 67.975 105.47 67.93 L 105.47 67.93 Z " fill="rgb(28,80,40)"/><path d=" M 145.149 158.869 C 145.149 157.275 143.856 155.982 142.262 155.982 L 130.714 155.982 L 127.828 155.982 C 126.234 155.982 124.941 157.275 124.941 158.869 L 124.941 167.53 L 145.149 167.53 L 145.149 158.869 Z " fill="rgb(156,95,32)"/><path d=" M 231.756 184.851 L 254.851 184.851 L 254.851 196.399 L 231.756 196.399 L 231.756 184.851 Z " fill="rgb(176,37,37)"/><path d=" M 168.244 158.869 L 168.244 167.53 L 188.452 167.53 L 188.452 158.869 C 188.452 157.275 187.159 155.982 185.566 155.982 L 182.679 155.982 L 171.131 155.982 C 169.537 155.982 168.244 157.275 168.244 158.869 Z " fill="rgb(156,95,32)"/><path d=" M 145.149 158.869 L 145.149 167.53 L 168.244 167.53 L 168.244 158.869 C 168.244 157.275 169.537 155.982 171.131 155.982 L 182.679 155.982 L 182.679 109.792 L 130.714 109.792 L 130.714 155.982 L 142.262 155.982 C 143.856 155.982 145.149 157.275 145.149 158.869 Z " fill="rgb(208,210,234)"/><path d=" M 211.548 184.851 L 231.756 184.851 L 231.756 196.399 L 211.548 196.399 L 211.548 184.851 Z " fill="rgb(128,78,26)"/><path d=" M 168.244 184.851 L 188.452 184.851 L 188.452 196.399 L 168.244 196.399 L 168.244 184.851 Z " fill="rgb(128,78,26)"/><path d=" M 209.29 78.036 C 200.577 78.036 193.681 85.406 194.261 94.101 L 195.087 101.131 L 202.887 167.53 L 211.548 167.53 L 211.548 158.869 C 211.548 157.275 212.841 155.982 214.434 155.982 L 223.095 155.982 L 224.342 93.68 C 224.671 85.138 217.838 78.036 209.29 78.036 Z " fill="rgb(237,142,54)"/><path d=" M 182.679 98.107 C 182.679 91.32 180.669 84.686 176.905 79.036 C 173.14 73.389 171.131 66.752 171.131 59.965 L 171.131 58.828 L 142.262 58.828 L 142.262 59.965 C 142.262 66.752 140.253 73.386 136.488 79.036 C 132.724 84.683 130.714 91.32 130.714 98.107 L 130.714 110.792 L 182.679 110.792 L 182.679 98.107 Z " fill="rgb(194,197,232)"/><path d=" M 211.548 158.869 L 211.548 167.53 L 231.756 167.53 L 231.756 158.869 C 231.756 157.275 230.463 155.982 228.869 155.982 L 225.982 155.982 L 223.095 155.982 L 214.434 155.982 C 212.841 155.982 211.548 157.275 211.548 158.869 Z " fill="rgb(156,95,32)"/><path d=" M 124.941 184.851 L 145.149 184.851 L 145.149 196.399 L 124.941 196.399 L 124.941 184.851 Z " fill="rgb(128,78,26)"/><path d=" M 249.077 132.887 C 247.804 132.887 246.563 133.017 245.344 133.216 C 234.369 135.003 225.982 144.501 225.982 155.982 L 228.869 155.982 C 230.463 155.982 231.756 157.275 231.756 158.869 L 231.756 167.53 L 254.851 167.53 L 254.851 158.869 C 254.851 157.275 256.144 155.982 257.738 155.982 L 272.172 155.982 C 272.172 143.228 261.832 132.887 249.077 132.887 Z " fill="rgb(193,41,41)"/><path d=" M 254.851 158.869 L 254.851 167.53 L 275.059 167.53 L 275.059 158.869 C 275.059 157.275 273.766 155.982 272.172 155.982 L 257.738 155.982 C 256.144 155.982 254.851 157.275 254.851 158.869 Z " fill="rgb(156,95,32)"/><path d=" M 145.149 184.851 L 168.244 184.851 L 168.244 196.399 L 145.149 196.399 L 145.149 184.851 Z " fill="rgb(239,239,239)"/><path d=" M 254.851 184.851 L 275.059 184.851 L 275.059 196.399 L 254.851 196.399 L 254.851 184.851 Z " fill="rgb(128,78,26)"/><path d=" M 188.452 184.851 L 211.548 184.851 L 211.548 196.399 L 188.452 196.399 L 188.452 184.851 Z " fill="rgb(222,119,24)"/><path d=" M 280.833 167.53 L 275.059 167.53 L 254.851 167.53 L 231.756 167.53 L 211.548 167.53 L 202.887 167.53 L 188.452 167.53 L 168.244 167.53 L 145.149 167.53 L 124.941 167.53 L 119.167 167.53 C 117.573 167.53 116.28 168.823 116.28 170.417 L 116.28 181.964 C 116.28 183.558 117.573 184.851 119.167 184.851 L 124.941 184.851 L 145.149 184.851 L 168.244 184.851 L 188.452 184.851 L 211.548 184.851 L 231.756 184.851 L 254.851 184.851 L 275.059 184.851 L 280.833 184.851 C 282.427 184.851 283.72 183.558 283.72 181.964 L 283.72 170.417 C 283.72 168.823 282.427 167.53 280.833 167.53 Z " fill="rgb(229,119,10)"/><path d=" M 280.833 196.399 L 275.059 196.399 L 254.851 196.399 L 231.756 196.399 L 211.548 196.399 L 188.452 196.399 L 168.244 196.399 L 145.149 196.399 L 124.941 196.399 L 119.167 196.399 C 117.573 196.399 116.28 197.692 116.28 199.286 L 116.28 210.833 C 116.28 212.427 117.573 213.72 119.167 213.72 L 280.833 213.72 C 282.427 213.72 283.72 212.427 283.72 210.833 L 283.72 199.286 C 283.72 197.692 282.427 196.399 280.833 196.399 Z " fill="rgb(195,103,10)"/><path d=" M 174.018 58.828 C 175.611 58.828 176.905 57.534 176.905 55.941 L 176.905 50.167 C 176.905 48.573 175.611 47.28 174.018 47.28 L 139.375 47.28 C 137.782 47.28 136.488 48.573 136.488 50.167 L 136.488 55.941 C 136.488 57.534 137.782 58.828 139.375 58.828 L 142.262 58.828 L 171.131 58.828 L 174.018 58.828 Z " fill="rgb(40,43,78)"/><path d=" M 268.249 46.28 L 232.636 46.28 C 229.478 46.28 226.36 47.016 223.534 48.428 C 212.636 53.878 205.312 69.205 208.661 80.923 L 211.614 66.078 C 211.955 64.032 215.179 61.306 217.148 61.965 L 217.154 61.967 C 220.226 62.992 223.603 62.444 226.196 60.501 L 228.728 58.601 C 231.718 56.358 235.717 55.997 239.06 57.669 L 240.74 58.509 C 243.517 59.897 246.788 59.897 249.565 58.509 L 252.207 57.19 C 254.923 55.83 258.197 55.596 260.876 57.025 C 265.082 59.271 270.27 58.188 273.232 54.487 L 279.797 46.28 L 268.249 46.28 Z " fill="rgb(148,176,32)"/><path d=" M 280.833 207.946 L 119.167 207.946 C 117.573 207.946 116.28 206.653 116.28 205.059 L 116.28 210.833 C 116.28 212.427 117.573 213.72 119.167 213.72 L 280.833 213.72 C 282.427 213.72 283.72 212.427 283.72 210.833 L 283.72 205.059 C 283.72 206.653 282.427 207.946 280.833 207.946 Z " fill="rgb(229,119,10)"/><path d=" M 280.833 179.077 L 275.059 179.077 L 254.851 179.077 L 231.756 179.077 L 211.548 179.077 L 188.452 179.077 L 168.244 179.077 L 145.149 179.077 L 124.941 179.077 L 119.167 179.077 C 117.573 179.077 116.28 177.784 116.28 176.19 L 116.28 181.964 C 116.28 183.558 117.573 184.851 119.167 184.851 L 124.941 184.851 L 145.149 184.851 L 168.244 184.851 L 188.452 184.851 L 211.548 184.851 L 231.756 184.851 L 254.851 184.851 L 275.059 184.851 L 280.833 184.851 C 282.427 184.851 283.72 183.558 283.72 181.964 L 283.72 176.19 C 283.72 177.784 282.427 179.077 280.833 179.077 Z " fill="rgb(195,103,10)"/><path d=" M 249.077 161.756 C 239.392 161.756 231.109 155.786 227.68 147.33 C 226.594 150.003 225.982 152.919 225.982 155.982 L 228.869 155.982 C 230.463 155.982 231.756 157.275 231.756 158.869 L 231.756 167.53 L 254.851 167.53 L 254.851 160.999 C 253.003 161.476 251.075 161.756 249.077 161.756 Z " fill="rgb(176,37,37)"/><path d=" M 264.317 155.982 L 272.172 155.982 C 272.172 152.916 271.563 149.998 270.478 147.321 C 269.118 150.676 266.99 153.629 264.317 155.982 Z " fill="rgb(176,37,37)"/><path d=" M 211.652 158.358 C 208.438 160.353 205.225 161.727 202.315 162.651 L 202.887 167.53 L 211.548 167.53 L 211.548 158.869 C 211.548 158.687 211.62 158.528 211.652 158.358 Z " fill="rgb(222,119,24)"/><path d=" M 223.274 147.073 C 223.214 147.16 223.153 147.235 223.095 147.321 C 220.702 150.913 217.928 153.725 215.047 155.982 L 223.095 155.982 L 223.274 147.073 Z " fill="rgb(222,119,24)"/><path d=" M 168.244 158.869 C 168.244 157.275 169.537 155.982 171.131 155.982 L 182.679 155.982 L 182.679 138.727 C 177.404 146.323 168.943 157.625 159.096 167.53 L 168.244 167.53 L 168.244 158.869 Z " fill="rgb(239,239,239)"/><path d=" M 246.603 143.034 L 245.368 140.976 C 240.249 132.448 240.798 121.793 246.768 113.836 L 251.387 117.298 C 246.834 123.372 246.413 131.498 250.319 138.005 L 251.554 140.064 L 246.603 143.034 Z " fill="rgb(148,176,32)"/><g><path d=" M 208.661 104.018 L 202.887 104.018 C 201.293 104.018 200 102.725 200 101.131 C 200 99.537 201.293 98.244 202.887 98.244 L 208.661 98.244 C 210.254 98.244 211.548 99.537 211.548 101.131 C 211.548 102.725 210.254 104.018 208.661 104.018 Z " fill="rgb(222,119,24)"/><path d=" M 214.434 115.566 L 208.661 115.566 C 207.067 115.566 205.774 114.272 205.774 112.679 C 205.774 111.085 207.067 109.792 208.661 109.792 L 214.434 109.792 C 216.028 109.792 217.321 111.085 217.321 112.679 C 217.321 114.272 216.028 115.566 214.434 115.566 Z " fill="rgb(222,119,24)"/><path d=" M 208.661 132.887 L 202.887 132.887 C 201.293 132.887 200 131.594 200 130 C 200 128.406 201.293 127.113 202.887 127.113 L 208.661 127.113 C 210.254 127.113 211.548 128.406 211.548 130 C 211.548 131.594 210.254 132.887 208.661 132.887 Z " fill="rgb(222,119,24)"/><path d=" M 220.208 141.548 L 214.434 141.548 C 212.841 141.548 211.548 140.254 211.548 138.661 C 211.548 137.067 212.841 135.774 214.434 135.774 L 220.208 135.774 C 221.802 135.774 223.095 137.067 223.095 138.661 C 223.095 140.254 221.802 141.548 220.208 141.548 Z " fill="rgb(222,119,24)"/></g><path d=" M 130.714 179.077 C 129.121 179.077 127.828 177.784 127.828 176.19 C 127.828 174.597 129.121 173.303 130.714 173.303 C 132.308 173.303 133.601 174.597 133.601 176.19 C 133.601 177.784 132.308 179.077 130.714 179.077 Z " fill="rgb(196,196,196)"/><path d=" M 130.714 207.946 C 129.121 207.946 127.828 206.653 127.828 205.059 C 127.828 203.466 129.121 202.172 130.714 202.172 C 132.308 202.172 133.601 203.466 133.601 205.059 C 133.601 206.653 132.308 207.946 130.714 207.946 Z " fill="rgb(196,196,196)"/><path d=" M 269.286 179.077 C 267.692 179.077 266.399 177.784 266.399 176.19 C 266.399 174.597 267.692 173.303 269.286 173.303 C 270.879 173.303 272.172 174.597 272.172 176.19 C 272.172 177.784 270.879 179.077 269.286 179.077 Z " fill="rgb(196,196,196)"/><path d=" M 269.286 207.946 C 267.692 207.946 266.399 206.653 266.399 205.059 C 266.399 203.466 267.692 202.172 269.286 202.172 C 270.879 202.172 272.172 203.466 272.172 205.059 C 272.172 206.653 270.879 207.946 269.286 207.946 Z " fill="rgb(196,196,196)"/></g></svg>