<svg width="85" height="72" viewBox="0 0 85 72" fill="none" xmlns="http://www.w3.org/2000/svg">
<path d="M41.5 65C59.4493 65 74 50.4493 74 32.5C74 14.5507 59.4493 0 41.5 0C23.5507 0 9 14.5507 9 32.5C9 50.4493 23.5507 65 41.5 65Z" fill="url(#paint0_linear)"/>
<g filter="url(#filter0_d)">
<rect x="20.0001" y="17" width="44.5311" height="29.9999" rx="4" fill="#979797"/>
</g>
<mask id="mask0" mask-type="alpha" maskUnits="userSpaceOnUse" x="20" y="17" width="45" height="31">
<rect x="20" y="17.0002" width="44.5311" height="29.9999" rx="4" fill="#979797"/>
</mask>
<g mask="url(#mask0)">
<path d="M40.8094 37.0021C40.8697 37.1313 40.9316 37.2601 40.996 37.3881C41.3529 38.0988 41.7667 38.7793 42.2335 39.423L42.2957 39.5086C42.5531 39.8631 42.8254 40.1995 43.107 40.5237C46.7523 44.237 52.6863 44.8087 57.052 41.6385C58.6208 40.4993 59.7918 39.0179 60.5374 37.3731C60.8206 36.7486 59.8653 36.2587 59.3104 36.6616V36.6616C55.7037 39.2806 51.12 38.1151 48.6739 34.7464L48.6121 34.6614C46.166 31.2927 46.3235 26.8141 50.0588 24.1017C51.2155 23.2617 52.4728 22.8129 53.7279 22.6994C54.9873 22.5855 56.2437 22.8112 57.3947 23.3234C58.8397 24.1265 60.0901 25.235 61.0591 26.5719C61.1143 26.6479 61.1649 26.7259 61.218 26.8028C61.501 27.2148 61.7566 27.645 61.9831 28.0906C61.9836 28.0914 61.9848 28.0916 61.9854 28.0908V28.0908C61.9857 28.0904 61.9861 28.0906 61.9859 28.0901C61.9786 28.074 55.0203 12.6386 40.4891 25.5838V25.5838C40.4891 25.5838 40.4891 25.5838 40.4891 25.5838C39.0391 29.2858 39.1217 33.3839 40.8094 37.0021Z" fill="white" fill-opacity="0.2"/>
<path d="M62.4377 27.4897C62.4371 27.4905 62.437 27.4915 62.4374 27.4923C65.0112 32.5284 63.599 38.8391 58.8569 42.2825C58.7543 42.357 58.6486 42.4242 58.5444 42.495C55.3664 44.6527 51.4894 45.0551 48.1018 43.8823C52.9003 46.09 58.8061 45.6256 63.7745 42.0178C67.8941 39.0264 70.1612 34.7407 70.4856 30.3681C70.7374 26.9756 69.8199 23.5309 67.69 20.5977L67.6268 20.5108C62.7517 13.7971 53.4695 12.347 46.1974 17.6276V17.6276C44.2847 19.0165 46.194 20.7567 48.4647 20.0999C57.8712 17.379 62.4282 27.4656 62.4386 27.4886C62.4389 27.4894 62.4382 27.489 62.4377 27.4897V27.4897Z" fill="white" fill-opacity="0.2"/>
</g>
<rect x="25.3804" y="41" width="10.0271" height="2.34782" rx="1.17391" fill="#DCDCDC" fill-opacity="0.8"/>
<rect x="25.3805" y="38.1296" width="8.07063" height="1.82608" rx="0.91304" fill="#C4C4C4" fill-opacity="0.4"/>
<rect x="36.6304" y="41" width="12.7173" height="2.34782" rx="1.17391" fill="#DCDCDC" fill-opacity="0.8"/>
<path fill-rule="evenodd" clip-rule="evenodd" d="M21.0133 26.9277C24.3707 26.9277 27.0924 23.8829 27.0924 20.1269C27.0924 19.5056 27.0179 18.9037 26.8784 18.3319C26.6742 17.4948 25.8618 17 25.0001 17V17C22.2386 17 20.0001 19.2386 20.0001 22V25.8147C20.0001 26.4056 20.4224 26.9277 21.0133 26.9277V26.9277Z" fill="#818181"/>
<defs>
<filter id="filter0_d" x="6.10352e-05" y="2" width="84.5311" height="69.9999" filterUnits="userSpaceOnUse" color-interpolation-filters="sRGB">
<feFlood flood-opacity="0" result="BackgroundImageFix"/>
<feColorMatrix in="SourceAlpha" type="matrix" values="0 0 0 0 0 0 0 0 0 0 0 0 0 0 0 0 0 0 127 0"/>
<feOffset dy="5"/>
<feGaussianBlur stdDeviation="10"/>
<feColorMatrix type="matrix" values="0 0 0 0 0 0 0 0 0 0 0 0 0 0 0 0 0 0 0.15 0"/>
<feBlend mode="normal" in2="BackgroundImageFix" result="effect1_dropShadow"/>
<feBlend mode="normal" in="SourceGraphic" in2="effect1_dropShadow" result="shape"/>
</filter>
<linearGradient id="paint0_linear" x1="26.6465" y1="63.7939" x2="64.415" y2="-1.32466e-06" gradientUnits="userSpaceOnUse">
<stop stop-color="white"/>
<stop offset="0.990026" stop-color="white"/>
</linearGradient>
</defs>
</svg>
