<?xml version="1.0" encoding="utf-8"?>
<!-- Generator: Adobe Illustrator 24.0.1, SVG Export Plug-In . SVG Version: 6.00 Build 0)  -->
<svg version="1.1" id="Layer_1" xmlns="http://www.w3.org/2000/svg" xmlns:xlink="http://www.w3.org/1999/xlink" x="0px" y="0px"
	 viewBox="0 0 400 300" style="enable-background:new 0 0 400 300;" xml:space="preserve">
<style type="text/css">
	.st0{fill:#EFEFEF;}
	.st1{fill:url(#SVGID_1_);}
	.st2{fill:url(#SVGID_2_);}
	.st3{fill:url(#SVGID_3_);}
	.st4{fill:#282B4E;}
	.st5{opacity:0.3;fill:#181816;enable-background:new    ;}
	.st6{fill:#181816;}
	.st7{opacity:0.67;fill:#181816;enable-background:new    ;}
	.st8{fill:#F7931E;}
	.st9{fill:#ED6B00;}
	.st10{fill:#009245;}
	.st11{fill:#FBB5AD;}
	.st12{fill:#5C2E2E;}
	.st13{fill:#723100;}
	.st14{fill:#8C6864;}
	.st15{fill:#56403D;}
	.st16{fill:#311E69;}
	.st17{fill:#42210B;}
	.st18{fill:#935542;}
	.st19{fill:#FFFFFF;}
	.st20{fill:#CE4823;}
	.st21{fill:#273238;}
	.st22{fill:#FACA66;}
	.st23{fill:#E5572C;}
	.st24{fill:url(#SVGID_4_);}
	.st25{fill:#3129A3;}
	.st26{fill:#F78B72;}
	.st27{fill:#FCB749;}
	.st28{fill:url(#SVGID_5_);}
</style>
<title>a</title>
<g>
	<g id="Layer_2_1_">
		<polygon class="st0" points="47.9,201.2 197.6,287.6 339.4,205.7 188.7,120.1 		"/>
		
			<linearGradient id="SVGID_1_" gradientUnits="userSpaceOnUse" x1="306.3483" y1="96.943" x2="273.5183" y2="78.463" gradientTransform="matrix(1 0 0 -1 0 300)">
			<stop  offset="0" style="stop-color:#808080"/>
			<stop  offset="1" style="stop-color:#FFFFFF"/>
		</linearGradient>
		<path class="st1" d="M288.8,196.6c-12.2,7.1-20.9,11.9-39.6,22.6c14.2,8.6,25.2,16.5,26.7,17.5l42.1-24.7
			C314.7,210.2,303.9,204,288.8,196.6z"/>
		
			<linearGradient id="SVGID_2_" gradientUnits="userSpaceOnUse" x1="123.0256" y1="90.4072" x2="93.6556" y2="72.5572" gradientTransform="matrix(1 0 0 -1 0 300)">
			<stop  offset="0" style="stop-color:#808080"/>
			<stop  offset="1" style="stop-color:#FFFFFF"/>
		</linearGradient>
		<path class="st2" d="M103.5,232.7l35.8-20.9c-2.7-1.4-8.1-6.4-18.1-11.6c0,0.1-0.1,0.3-0.3,0.3c-9.7,5.3-19.3,10.7-28.9,16
			c-2.3,1.3-5.7,3.6-7.9,5C90.5,225,95.3,228.6,103.5,232.7z"/>
		
			<linearGradient id="SVGID_3_" gradientUnits="userSpaceOnUse" x1="171.4663" y1="46.9243" x2="161.5063" y2="35.8643" gradientTransform="matrix(1 0 0 -1 0 300)">
			<stop  offset="0" style="stop-color:#808080"/>
			<stop  offset="1" style="stop-color:#FFFFFF"/>
		</linearGradient>
		<path class="st3" d="M160.2,265.8c2.8,1.9,6.4,3.6,9.2,5.5l18.4-10.8c-2.9-1.5-12.3-6.9-25.6-13.4c-5.9,3.4-10.9,6.3-16.9,9.7
			C150.3,259.6,155.4,262.5,160.2,265.8z"/>
		<path class="st4" d="M40.6,79.3l0.8,41.9c0,1.5,1.2,2.6,2.7,2.6c0.4,0,0.8-0.1,1.1-0.3l35.6-17.7c1.2-0.6,2-1.8,1.9-3.2l-0.8-41.9
			c0-1.6-1.3-2.8-2.9-2.8c-0.4,0-0.9,0.1-1.3,0.3l-35.3,18C41.3,76.8,40.6,78,40.6,79.3z"/>
		<path class="st4" d="M76.5,85.7c-6.8,1.9-4.4,9.4-9.3,13.4c-5.9,4.9-8.2-9-15.4-8.1c-8.7,1-10.4,30.2-10.4,30.2
			c1.4,3.3,3.8,2.3,3.8,2.3l37.6-18.7l-0.3-16.1C80.9,86.8,78.9,85.4,76.5,85.7z"/>
		<path class="st5" d="M76.5,85.7c-6.8,1.9-4.4,9.4-9.3,13.4c-5.9,4.9-8.2-9-15.4-8.1c-8.7,1-10.4,30.2-10.4,30.2
			c1.4,3.3,3.8,2.3,3.8,2.3l37.6-18.7l-0.3-16.1C80.9,86.8,78.9,85.4,76.5,85.7z"/>
		<path class="st6" d="M256.3,178L256.3,178c-1.1,0-2.7,1.2-3.8,1.7l-2.8,1.3c0,0-1.9,7-3,9.6s-5,8.2-3.6,10.3
			c1.9,2.7,5.6,3.4,8.4,1.7c3.6-2,3.5-8.5,4.8-11c1.1-2.1,0.6-6.6,0.6-7.5C256.8,182,256.7,180,256.3,178z"/>
		<path class="st6" d="M226.9,165.2L226.9,165.2c-1.1,0-2.7,1.2-3.8,1.7l-2.8,1.4c0,0-1,7.7-3,9.6s-9.6,6.1-8.2,8.2
			c1.8,2.7,5.4,3.6,8.2,1.9c3.6-2,5.9-6,8.4-7c2.2-0.9,1.3-6.6,1.4-8.5C227.4,170.1,227.3,167.6,226.9,165.2z"/>
		<path class="st4" d="M221.8,93.6c0,0-4.9,25.9-4.4,40.1s0.7,31.6,1.8,39.3c0,0,9.4,1.3,12.6-1.5c0,0,0.9-49.8,1-49.5
			c1.4,6.6,8.2,40.1,8.9,42.3s4.2,19.9,4.2,19.9c4.6,1.1,9.4,0.3,13.4-2.2c0,0-1.2-25.5-3.4-32.6s-9.8-52.2-13.5-55.7"/>
		<path class="st7" d="M221.8,93.6c0,0-4.9,25.9-4.4,40.1s0.7,31.6,1.8,39.3c0,0,9.4,1.3,12.6-1.5c0,0,0.9-49.8,1-49.5
			c1.4,6.6,8.2,40.1,8.9,42.3s4.2,19.9,4.2,19.9c4.6,1.1,9.4,0.3,13.4-2.2c0,0-1.2-25.5-3.4-32.6s-9.8-52.2-13.5-55.7"/>
		<path class="st8" d="M242.2,95.6c0,0,8.3-24.2,5-29.8s-16.9-9.9-23.3-9.3s-2.3,38.8-1.3,39.1S233.1,102.5,242.2,95.6z"/>
		<path class="st8" d="M245,63.4l-10.1-4.2c-1.8,8.9-3.7,17.7-5.7,26.6l14.1,2.5c0,0,8.4-4.6,9.7-12S245.4,63.7,245,63.4z"/>
		<path class="st8" d="M224.6,71.1c0,0-1.4-13.2-1.4-14.4c-3.9,1.1-7.6,3-10.8,5.5c-1.6,1.3-3.2,2.7-4.6,4.2c-1,0.9-1.8,2-2.4,3.1
			c-0.4,1.4-0.5,2.9-0.1,4.3c0.6,3.3,1.7,6.5,3.3,9.4c1.6,3.4,3.7,6.7,6.1,9.7c0.7,0.9,3.1,4.3,4.7,3.7c3.1-1.1,4.4-4.7,4.4-4.7
			s-1.4-2.8-3-6.3c-0.9-2.1-5.1-6.8-5.6-10c0.4-0.6,0.9-1.1,1.3-1.6C218.6,72.1,222.1,72.4,224.6,71.1z"/>
		<path class="st9" d="M225.8,57.5l2,10.4l2.9-3.3l2.2,4.2l5.8-7.9C238.7,60.8,229.7,56.6,225.8,57.5z"/>
		<path class="st10" d="M237,52.8c-1.5,1.7-4.4,0.9-6.4,0.5c-2.3-0.5-5-1.9-4.8-4.7c0-0.4-0.6-0.4-0.6,0c-0.2,2.9,2.4,4.6,4.9,5.3
			c2.2,0.6,5.6,1.4,7.4-0.6C237.8,53,237.3,52.5,237,52.8z"/>
		<path class="st11" d="M224.6,46.8c0,0,0,14.1,5.2,15.1c5.7,1,8.9-5.5,8.9-5.5s0.7-12.5-4.9-13.6S224.8,45,224.6,46.8z"/>
		<path class="st11" d="M234.7,55c0,0,1.4-5.4,2.9-3.6s-2.5,5.7-2.5,5.7"/>
		<path class="st12" d="M236.1,41.1c0,0,5.1,0.5,6.5,4.6s-2.3,12-5,13.3l3.3-7l-0.2-4.8L236.1,41.1z"/>
		<path class="st12" d="M242.5,47.5c-0.4-2.8-2.3-4.2-4.7-5.6l-0.6-0.3c0.5-0.4,0.8-0.9,1.1-1.4c0.1-0.2,0-0.4-0.1-0.5
			c-0.1,0-0.1-0.1-0.2-0.1c-0.6,0-1.3,0.3-1.7,0.8c-0.3-0.6-0.7-1.1-1.1-1.6c-0.2-0.1-0.4-0.1-0.5,0c0,0-0.1,0.1-0.1,0.1
			c-0.2,0.6-0.2,1.2,0.1,1.7c-2.5-0.5-5.2-0.1-7.5,1.1c-0.8,0.5-1.5,1.2-2.1,2c-0.7-0.1-1.4,0.1-2,0.4c-1.4,0.6-2.2,2.1-1.9,3.6
			c0.4,1.7,2.2,2.3,3.7,2c0.8-0.1,1.5-0.5,2.1-1c-0.5,0.8-0.7,1.8,0.8,2.1c2.6,0.6,3.8-1,4,0.3c0.1,1,1.6,1.6,2.6,1.7
			c0.1,0.2,0.3,0.6,0.5,1.2c0.5-0.2,1.1-0.2,1.6-0.1c0.1-0.2,0.4-0.2,0.6,0c0,0,0.1,0.1,0.1,0.1c0.9,1.5,0.7,3.2,0.3,5
			c1.4-1.2,2.6-2.7,3.4-4.3C242.2,52.5,242.7,50,242.5,47.5z M235.1,39.9l0.1,0.2c0,0,0,0.1,0,0.1c0,0.1,0.1,0.2,0.1,0.3
			C235.3,40.3,235.2,40.1,235.1,39.9L235.1,39.9z"/>
		<polygon class="st13" points="228.6,67 230.1,70 232.3,67.5 230.7,64.5 		"/>
		<path class="st13" d="M230.1,70c0,0,2.1,15,4,24.8l-2.7,5.2l-3.6-4.4C227.8,95.6,226.4,85.3,230.1,70z"/>
		<polygon class="st4" points="230.4,95.6 228.4,73.7 213.4,74.1 215.5,95.6 		"/>
		<path class="st11" d="M235.6,87l-6.6-4.9v1.8c0,0-5.9-2.7-6.2-1.5s0.8,5,1.8,5.4s5.2,1.7,5.2,1.7l3.3,1L235.6,87z"/>
		<path class="st8" d="M253,73.7c0,0,4.3,16.4,1.3,19.8s-21.9-0.3-22.1-2s2.4-7.2,2.4-7.2l10.6,1.2"/>
		<path class="st11" d="M220.6,95.6c0,0,4-0.7,4.8,1.5c0.4,1.2-2.6,0-2.6,0l-2.2,6.4c-0.6-0.8-1-1.8-1-2.9c0-1.5,0.1-3,0.4-4.4
			L220.6,95.6z"/>
		<path class="st14" d="M102.9,202.9c2.2,1.4,3.8,2.3,3.8,2.3c1.7,0,5,0.4,4-1.9c1.2,1.9,2.6,3.6,4.3,5.1c1.9,1.6,12.5,3.1,8.9,9.5
			c-1.9,3.2-20.3-6.1-20.8-8.3C102.8,207.3,102.8,205.1,102.9,202.9z"/>
		<path class="st8" d="M110.8,192.1c-0.5,3.2-0.6,6.4-0.3,9.5c0.1,0.7,0.2,1.4,0.3,2.2l-8.1-1.4v-10.3H110.8z"/>
		<path class="st15" d="M102.9,200.6c2.2,1.4,3.8,2.3,3.8,2.3c1.7,0,5,0.4,4-1.9c1.2,1.9,2.6,3.6,4.3,5.1c1.9,1.6,12.6,6.9,8.1,9.6
			c-3.3,2.1-19.5-6.2-20-8.5C102.8,205.1,102.8,202.8,102.9,200.6z"/>
		<path class="st15" d="M106.3,203.1c-0.1-0.6-1.3-3.5-0.3-4.2s5-1.7,5.4-0.5s0,5.2,0,5.2"/>
		<path class="st14" d="M118.3,196.8c2.2,1.4,3.8,2.3,3.8,2.3c1.7,0,5,0.4,4-1.9c1.2,1.9,2.6,3.6,4.3,5.1c1.9,1.6,12.5,3.1,8.9,9.5
			c-1.9,3.2-20.3-6.1-20.8-8.3C118.3,201.3,118.2,199.1,118.3,196.8z"/>
		<path class="st8" d="M126.3,186.1c-0.5,3.2-0.6,6.4-0.3,9.5c0.1,0.7,0.2,1.4,0.3,2.2l-8.1-1.4v-10.3H126.3z"/>
		<path class="st15" d="M118.3,194.6c2.2,1.4,3.8,2.3,3.8,2.3c1.7,0,5,0.4,4-1.9c1.2,1.9,2.6,3.6,4.3,5.1c1.9,1.6,12.6,6.9,8.1,9.6
			c-3.3,2.1-19.5-6.2-20-8.5C118.3,199,118.2,196.8,118.3,194.6z"/>
		<path class="st15" d="M121.7,197c-0.1-0.6-1.3-3.5-0.3-4.2s5-1.7,5.4-0.5s0,5.2,0,5.2"/>
		<path class="st16" d="M131.7,103.1c0,0,2.5,61.1-2.5,86.7c0,0-1,2.9-12.9,1.2l-0.8,5.3c0,0-8.4,2.3-16.3-1c0,0-3.3-59.3,6.6-93.8"
			/>
		<path class="st4" d="M130.8,82.1c2.1-0.7-2-11.6-2.4-12.9c-0.2-0.8-0.5-1.7-1-2.4c-1.4-1.9-4.2-1-6.2-1c-2.6,0-5.3,0.3-7.9,0.7
			c-1.5,0.3-2.9,0.8-4.2,1.5c-4.1,5.7-5.5,12.8-5.9,19.8c-0.2,3.8-0.2,7.7-0.2,11.5c0,2.4,0.1,4.9,0.4,7.3c0.1,0.6,0.4,1.1,0.9,1.4
			c1.4,0.9,3.1,1.4,4.8,1.5c7.2,0.3,15.9,0,21.5-4.7c0.4-0.5,0.7-1,1-1.5L130.8,82.1L130.8,82.1z"/>
		<polyline class="st17" points="123.9,91.8 123.9,83.7 140.4,76.8 145,78.6 145,101.5 127.3,109.7 123.5,107.3 		"/>
		<path class="st4" d="M103.1,99.3c-4.2-3.5-6.8-6.6-2.9-20.2c3.3-11.6,13.2-12.7,13.2-12.7"/>
		<path class="st8" d="M125.4,54.7c0,0,3.2,11.6-2.1,14.1s-8.9-1.2-10.5-4.7s-1-11.5,5.8-12.3C124.5,51,125.4,54.7,125.4,54.7z"/>
		<path class="st18" d="M126.4,52.5c0.6-1.4,0.8-3.9-0.9-4.7c-1.3-0.5-2.7-0.2-3.7,0.7c-0.6-0.5-1.3-0.8-2-1
			c-2.7-0.8-5.5-0.2-7.6,1.7c-0.1,0.1-0.2,0.2-0.3,0.2c-0.2,0.1-0.3,0.1-0.5,0.1c-4.1,0.1-5,4.7-4.3,7.9c0.7,3.3,2.5,6.3,5,8.5
			c1.1,0.9,2.4,1.5,3.7,1.9c0.2,0,0.3-0.1,0.4-0.2c0,0,0-0.1,0-0.1c0.2-0.1,0.2-0.3,0.1-0.5c0,0,0,0,0,0c-0.3-0.7-0.5-1.5-0.3-2.2
			c0-0.1,0-0.2-0.1-0.3c0.1-0.2,0.1-0.4,0-0.5c-0.1-0.1-0.2-0.1-0.3-0.1c-0.9,0.1-1.8-0.2-2.4-0.8c-0.4-0.4-0.7-1.2,0.1-1.4
			c0.3-0.1,0.6,0,0.8,0.2c0.1,0.2,0.2,0.4,0.4,0.5c0.1,0.1,0.1,0.1,0.2,0.1c0.3,0.1,0.6-0.1,0.5-0.5c-0.1-0.2-0.3-0.4-0.4-0.6
			c-0.5-0.9-0.4-2,0.4-2.7c1-0.8,1.8-0.4,3-0.3c0.7,0.1,1.3-0.3,1.5-1c0-0.5-0.1-0.9-0.2-1.4c0-0.7,0.4-1.4,1-1.6
			c1.2-0.5,1.9,0.5,2.8,1.1c0.7,0.5,1.6,0.7,2.5,0.5c1.1-0.3,1.8-1.4,1.5-2.5c-0.1-0.3-0.2-0.5-0.4-0.8
			C126.7,52.5,126.5,52.4,126.4,52.5z M119.3,54.1c0.1-0.2,0.3-0.4,0.5-0.5c0.1,0,0.1-0.1,0.2-0.1h0.1l0.1,0
			C119.9,53.7,119.6,53.9,119.3,54.1L119.3,54.1z M125.9,51.7L125.9,51.7c0-0.1,0.1-0.3,0.1-0.4C126,51.4,125.9,51.5,125.9,51.7
			L125.9,51.7z"/>
		<path class="st19" d="M117.5,191c1.3-16.5,2.2-33,2.9-49.5c0.2-6,0.4-12,0.6-17.9c0-0.2-0.2-0.4-0.4-0.4s-0.4,0.2-0.4,0.4l0,0
			c-0.6,21.3-1.7,42.6-3.2,63.8c-0.1,1.2-0.2,2.4-0.3,3.6L117.5,191z"/>
		<path class="st8" d="M132.6,95.8c0,0,0.8-1.8-0.5-2.5s-7.1,0-7.1,0l1.1-2c0.1-0.4-0.1-0.6-0.6-0.7c-1.3-0.2-2.4,1.4-3,2.4
			c-0.2,0.4-0.4,0.8-0.5,1.2c0,0.3,0,0.8-0.3,1c-0.3,0-0.6-0.1-0.9-0.2c-0.4,2.2-0.9,4.3-1.4,6.4l2.5,0.7c0,0,8.1,2.6,9,1.8
			c0.5-0.6,0.9-1.2,1-2l1-0.9c1-0.9-0.4-2.2-0.4-2.2c0.8-0.1,1.5-0.6,1.7-1.4C134.6,96.1,132.6,95.8,132.6,95.8z"/>
		<path class="st17" d="M125.7,95c2.3,0.4,4.7,0.6,7,0.6c0.2,0,0.2,0.4,0,0.4c-2.3,0-4.7-0.2-7-0.6C125.4,95.4,125.5,95,125.7,95z"
			/>
		<path class="st17" d="M125.2,97.5c2.5,0.8,5,1.3,7.6,1.5c0.1,0,0.2,0.1,0.2,0.2c0,0.1-0.1,0.2-0.2,0.2c-2.6-0.2-5.2-0.7-7.8-1.5
			C124.8,97.8,124.9,97.4,125.2,97.5z"/>
		<path class="st17" d="M125.3,100.1c2.2,0.8,4.4,1.4,6.7,1.8c0.1,0,0.2,0.1,0.2,0.2c0,0.1-0.1,0.2-0.2,0.2c-2.3-0.4-4.6-1-6.8-1.8
			C124.9,100.4,125,100.1,125.3,100.1z"/>
		<path class="st16" d="M121.7,91.8c-3.5-0.6-6.9-1.8-10.1-3.4c0.2-0.1,0.3-0.3,0.3-0.4c0-1.8,0.2-3.7,0.6-5.5c0.2-0.7-0.9-1-1-0.3
			c-0.4,1.9-0.7,3.8-0.7,5.7l0,0l-0.6-0.3c-0.3-0.1-0.6,0-0.7,0.3c-0.1,0.2,0,0.5,0.2,0.6c3.5,2,7.3,3.4,11.3,4.2
			c-0.5,3.3-1.1,6.6-1.7,9.9c0,0.1,0,0.3,0.1,0.4c-2-0.1-9.8-0.8-16.2-3.7l0.4,7.3c0,0,9.6,0.8,16.1-3.4c0.2,0.1,0.5,0.1,0.7-0.1
			c0-0.1,0.1-0.1,0.1-0.2c0.7-3.5,1.3-7,1.8-10.5C122.1,92.1,122,91.8,121.7,91.8z"/>
		<path class="st20" d="M225.4,116.5c0-0.5-0.4-1-0.9-1.1c-0.4-0.1-0.7-0.2-1.1-0.2c0.6-0.4,0.8-0.8,0.4-1.3
			c-2.1-2.5-14.2,2.9-15.5,0.7c-0.1-0.3-0.3-0.5-0.5-0.8s-0.2-0.6-0.4-0.8c-0.3-0.9-0.9-1.7-1.7-2.3c-0.6-0.3-1.3-0.1-1.6,0.5
			c-0.1,0.3-0.2,0.6-0.1,0.8c0.4,1.8,1.1,3.6,1.9,5.3c-0.3,2.6-0.9,5.3-1.7,7.8c-0.4,1.4,1.8,2,2.2,0.6l0,0c0.1,0.1,0.3,0.2,0.5,0.3
			c0.3,0.3,0.8,0.4,1.3,0.3c0,0.6,0.6,1.1,1.2,1.1c0.5,0,0.9-0.3,1.1-0.8c0.8-2.4,1.8-5,4-6.2h1.1c2.4,0,4.8-0.1,7.1-0.2
			c0.7-0.1,1.2-0.7,1.1-1.3c0-0.2-0.1-0.4-0.2-0.6C224.7,118.1,225.5,117.7,225.4,116.5z"/>
		<path class="st21" d="M175.3,251.5c-0.1-3.4-3.9-3.6-4.9-5.9c-0.3-0.9-0.4-1.9-0.2-2.8c-0.8,0-1.5-0.7-1.5-1.5c0,0,0-0.1,0-0.1
			c0.1-1.7,0.4-3.4,1-5l-5.2-4.9c0,0-4.2,6.7-4.6,8.2s-0.7,12.7-0.4,13.7s2.2,0.8,3.2,0.6s0-8.8,0.9-8.4s1.5,7.8,2.7,9.4
			c1.2,1.6,8.6,0.9,8.6,0.9S175.4,254.8,175.3,251.5z"/>
		<path class="st20" d="M170,241.5c-0.9-6.4,1.2-17.7,1.2-17.7l-8.7,0.7l-1.4,12.7c0.2,0.2,0.3,0.5,0.3,0.7c0,0.1,0,0.1,0,0.2
			l0.2,0.3c0.6,0.6,2.1,0.7,2.8,1.1c1.5,0.8,1.9,2.2,2,3.8c0.4,2.8,0.4,7.1,8,5.9C174.4,249.1,170.9,247.8,170,241.5z"/>
		<path class="st21" d="M187.8,256.7c-0.3-3.4-4.1-3.4-5.2-5.6c-0.4-0.9-0.5-1.9-0.4-2.8c-0.8,0-1.5-0.6-1.5-1.4c0,0,0-0.1,0-0.1
			c0-1.7,0.3-3.4,0.8-5l-5.5-4.6c0,0-3.9,6.9-4.2,8.4s-0.1,12.7,0.3,13.7s2.3,0.7,3.2,0.4s-0.4-8.8,0.5-8.4s1.8,7.7,3.1,9.3
			s8.6,0.5,8.6,0.5S188.1,260,187.8,256.7z"/>
		<path class="st20" d="M182,247c-1.2-6.3,0.4-17.7,0.4-17.7l-8.6,1.1l-0.7,12.7c0.2,0.2,0.3,0.4,0.3,0.7c0,0.1,0,0.1,0,0.2l0.2,0.3
			c0.6,0.6,2.1,0.6,2.8,1c1.6,0.8,2,2.1,2.2,3.7c0.5,2.8,0.7,7.1,8.3,5.5C186.8,254.4,183.2,253.2,182,247z"/>
		<path class="st22" d="M162.7,113.7c0,0-5,1.5-7.3,13.8s-3.7,19.2-1.1,22.8s11.6,9.7,11.6,9.7l10.6-14.2"/>
		<path class="st22" d="M165.1,143.1c0,0-12-25.1-2.4-29.4s21.6,2,23.6,8.3c2,6.3-0.9,25.4-0.9,25.4S172.7,147.8,165.1,143.1z"/>
		<path class="st22" d="M184.7,119.1c0,0,8.3,14,14.7,12.1l5.4-12.4c0,0,11,3.4,10,10.1c0,0-9.8,16.8-16.9,17.8s-15.8-8-15.8-8"/>
		<path class="st4" d="M161.8,232.2c9.4,4.8,14.8,9.5,25.2,7.1c2.9-0.7,5.6-42.7,5.6-44.9c0.1-13.8,1.9-22.6-1.6-36.1
			c-0.5-1.9-3.3-12.3-5.4-12.5l-20.5-2.7c0,0-4,7-4.2,22.1c-0.1,10.1,1.3,20.1,1.5,30.1c0,5.8-0.6,11.7-1.8,17.4
			c-0.5,2.9-1.5,6.2-2.2,9.4c-0.4,2.5-0.7,5-0.8,7.4C159,230.5,160.4,231.4,161.8,232.2z"/>
		<path class="st23" d="M165.8,115.6c-0.4-0.2-2.4-4,0.3-5s11.6,0,11.5,1.6s0,4.1,0,4.1C173.8,117.7,169.5,117.5,165.8,115.6z"/>
		<path class="st20" d="M165.4,142.1c-2.7-6.4-4.3-13.2-4.6-20.1c0-0.7-1.2-0.7-1.1,0c0.3,7.1,1.9,14.2,4.7,20.7
			C164.6,143.4,165.6,142.8,165.4,142.1z"/>
		<path class="st18" d="M155.5,105.3c-2.4,4.2,3.2,12.5-2.4,14.9c-1.3,0.4-2.6,0.6-4,0.6c-2.9,0-5.6,1.2-7.5,3.3
			c-3,3.6-2.8,9.4-0.1,13.2c3.1,4.2,8.3,4.8,12.8,2.8c10.7-4.7,3.9-25,11.9-30.4l0.4-9.1C166.6,100.5,158.6,100,155.5,105.3z"/>
		<path class="st20" d="M180.5,98.1c0,0-0.2,13.1-2.8,14.8s-9.7-0.8-10-4.4S180.5,98.1,180.5,98.1z"/>
		<path class="st18" d="M173.3,91.8c0,0-4.5-1.8-11.1,2s-4.4,16,3.3,18.5s9.6-5,11.1-8s4-4.1,3.9-5.5S180.3,91.6,173.3,91.8z"/>
		<linearGradient id="SVGID_4_" gradientUnits="userSpaceOnUse" x1="291.0448" y1="85.9751" x2="315.9436" y2="85.9751">
			<stop  offset="0" style="stop-color:#F5524E"/>
			<stop  offset="1" style="stop-color:#D0342F"/>
		</linearGradient>
		<path class="st24" d="M301.4,66.9c6.8-0.8,13.2,7.2,14.4,17.7c1.2,10.6-3.4,19.7-10.1,20.5s-13.2-7.2-14.4-17.7
			C290.1,76.8,294.6,67.6,301.4,66.9z"/>
		<path class="st19" d="M299.7,83.2l2.6,2.6V74.5c0-0.8,0.7-1.5,1.5-1.5s1.5,0.7,1.5,1.5v14.9c-0.1,0.8-0.8,1.4-1.6,1.4
			c-0.3,0-0.6-0.2-0.8-0.4l0,0l0,0l-5.1-5.1c-0.5-0.6-0.5-1.5,0.1-2.1C298.3,82.8,299.1,82.8,299.7,83.2z"/>
		<path class="st4" d="M283.6,170v37.9c0,0,36.4,2,36.4,0V170"/>
		<ellipse class="st4" cx="301.8" cy="207.6" rx="18.2" ry="8.3"/>
		<ellipse class="st25" cx="301.8" cy="170" rx="18.2" ry="8.3"/>
		<path class="st26" d="M290.5,176.5l0.1,0.1c0.7,0.2,1.4,0.5,2.1,0.6l-5-41.5c-0.9-0.3-1.8-0.1-2.5,0.5l5.1,40.2L290.5,176.5z"/>
		<path class="st26" d="M296.1,177.8l1.5-39c-0.8-0.5-1.8-0.4-2.6,0.1l-1.3,38.6C294.6,177.6,295.3,177.7,296.1,177.8z"/>
		<path class="st27" d="M301.8,178.3l5-40.6l10.2,5.4l-4.1,34.1C309.3,178.2,305.6,178.6,301.8,178.3z"/>
		
			<linearGradient id="SVGID_5_" gradientUnits="userSpaceOnUse" x1="240.3096" y1="121.7813" x2="211.5596" y2="95.1813" gradientTransform="matrix(1 0 0 -1 0 300)">
			<stop  offset="0" style="stop-color:#808080"/>
			<stop  offset="1" style="stop-color:#FFFFFF"/>
		</linearGradient>
		<path class="st28" d="M256.8,189.4c-6.4-3.5-21.7-5.9-34.5-12.2c-14.7,8.6-25.3,14.4-47.9,27.3c17.1,10.4,30.4,20,32.4,21.1
			l44.7-23C251.4,200.4,256.8,191.7,256.8,189.4z"/>
	</g>
</g>
</svg>
