<?xml version="1.0" encoding="utf-8"?>
<!-- Generator: Adobe Illustrator 24.0.1, SVG Export Plug-In . SVG Version: 6.00 Build 0)  -->
<svg version="1.1" id="Layer_1" xmlns="http://www.w3.org/2000/svg" xmlns:xlink="http://www.w3.org/1999/xlink" x="0px" y="0px"
	 viewBox="0 0 400 300" style="enable-background:new 0 0 400 300;" xml:space="preserve">
<style type="text/css">
	.st0{clip-path:url(#SVGID_2_);}
	.st1{fill:#282B4E;}
	.st2{opacity:0.68;}
	.st3{fill:url(#SVGID_3_);}
	.st4{fill:url(#SVGID_4_);}
	.st5{fill:#313115;}
	.st6{fill:#1C5028;}
	.st7{fill:#9C5F20;}
	.st8{fill:#B02525;}
	.st9{fill:#D0D2EA;}
	.st10{fill:#804E1A;}
	.st11{fill:#ED8E36;}
	.st12{fill:#C2C5E8;}
	.st13{fill:#C12929;}
	.st14{fill:#EFEFEF;}
	.st15{fill:#DE7718;}
	.st16{fill:url(#SVGID_5_);}
	.st17{fill:url(#SVGID_6_);}
	.st18{fill:#94B020;}
	.st19{fill:url(#SVGID_7_);}
	.st20{fill:url(#SVGID_8_);}
	.st21{fill:#C4C4C4;}
</style>
<g>
	<defs>
		<rect id="SVGID_1_" width="400" height="300"/>
	</defs>
	<clipPath id="SVGID_2_">
		<use xlink:href="#SVGID_1_"  style="overflow:visible;"/>
	</clipPath>
	<g class="st0">
		<path class="st1" d="M205,271.4l145.3-82.8c3.2-1.8,5.2-5.2,5.2-8.9c0-3.7-1.9-7.1-5.1-9L214.8,91.1c-4.5-2.7-10.1-2.7-14.7-0.1
			L50.2,177.6c-3.5,2-5.7,5.8-5.7,9.9c0,4.1,2.3,7.8,5.8,9.8l133.8,74.3C190.6,275.2,198.5,275.1,205,271.4L205,271.4z"/>
		<g class="st2">
			
				<linearGradient id="SVGID_3_" gradientUnits="userSpaceOnUse" x1="8.342320e-02" y1="299.3483" x2="0.9596" y2="299.8302" gradientTransform="matrix(152.21 0 0 -67.45 102.69 20395.709)">
				<stop  offset="1" style="stop-color:#F15A24;stop-opacity:0"/>
				<stop  offset="1" style="stop-color:#F15A24;stop-opacity:2.828054e-02"/>
			</linearGradient>
			<path class="st3" d="M151.9,228.2l103-54.6l-92.1-12.8l-60.1,38.5C108.4,202.7,146.2,224.5,151.9,228.2z"/>
		</g>
		<g class="st2">
			
				<linearGradient id="SVGID_4_" gradientUnits="userSpaceOnUse" x1="0.1852" y1="299.2728" x2="0.9603" y2="299.9048" gradientTransform="matrix(82.56 0 0 -43.05 242.44 13094.79)">
				<stop  offset="1" style="stop-color:#F15A24;stop-opacity:0"/>
				<stop  offset="1" style="stop-color:#F15A24;stop-opacity:2.131742e-02"/>
			</linearGradient>
			<path class="st4" d="M275.5,222.8L325,196l-39-16.2L242.4,207C248.3,210.6,269.8,219.2,275.5,222.8z"/>
		</g>
		<path class="st5" d="M214.5,126.4c-0.7-2.4-3.8-2.3-5.6-1.3c-0.3,0.1-0.5,0.4-0.6,0.6c-1.4,1.1-2.4,2.8-1.6,4.7
			c0.9,2.2,3.5,2.4,5.4,1.4C214.1,130.7,215,128.5,214.5,126.4L214.5,126.4z M212.1,127.7c-0.1,0.8-0.6,1.5-1.3,1.9
			c-0.6,0.3-1.6,0.5-1.8-0.3s0.6-1.4,1.2-1.8c0.2-0.1,0.3-0.3,0.4-0.4c0.3-0.1,0.7-0.2,1-0.1C212.2,127,212.2,127.2,212.1,127.7z"/>
		<path class="st6" d="M105.5,67.9c-0.2,0-0.4,0.2-0.4,0.4c0,0.2,0.1,0.4,0.3,0.4c0.2,0,0.4-0.2,0.4-0.4
			C105.8,68.2,105.7,68,105.5,67.9L105.5,67.9z"/>
		<path class="st7" d="M145.1,158.9c0-1.6-1.3-2.9-2.9-2.9h-11.5h-2.9c-1.6,0-2.9,1.3-2.9,2.9v8.7h20.2V158.9z"/>
		<path class="st8" d="M231.8,184.9h23.1v11.5h-23.1V184.9z"/>
		<path class="st7" d="M168.2,158.9v8.7h20.2v-8.7c0-1.6-1.3-2.9-2.9-2.9h-2.9h-11.5C169.5,156,168.2,157.3,168.2,158.9z"/>
		<path class="st9" d="M145.1,158.9v8.7h23.1v-8.7c0-1.6,1.3-2.9,2.9-2.9h11.5v-46.2h-52V156h11.5
			C143.9,156,145.1,157.3,145.1,158.9z"/>
		<path class="st10" d="M211.5,184.9h20.2v11.5h-20.2V184.9z"/>
		<path class="st10" d="M168.2,184.9h20.2v11.5h-20.2V184.9z"/>
		<path class="st11" d="M209.3,78c-8.7,0-15.6,7.4-15,16.1l0.8,7l7.8,66.4h8.7v-8.7c0-1.6,1.3-2.9,2.9-2.9h8.7l1.2-62.3
			C224.7,85.1,217.8,78,209.3,78z"/>
		<path class="st12" d="M182.7,98.1c0-6.8-2-13.4-5.8-19.1c-3.8-5.6-5.8-12.3-5.8-19.1v-1.1h-28.9V60c0,6.8-2,13.4-5.8,19.1
			c-3.8,5.6-5.8,12.3-5.8,19.1v12.7h52V98.1z"/>
		<path class="st7" d="M211.5,158.9v8.7h20.2v-8.7c0-1.6-1.3-2.9-2.9-2.9H226h-2.9h-8.7C212.8,156,211.5,157.3,211.5,158.9z"/>
		<path class="st10" d="M124.9,184.9h20.2v11.5h-20.2V184.9z"/>
		<path class="st13" d="M249.1,132.9c-1.3,0-2.5,0.1-3.7,0.3c-11,1.8-19.4,11.3-19.4,22.8h2.9c1.6,0,2.9,1.3,2.9,2.9v8.7h23.1v-8.7
			c0-1.6,1.3-2.9,2.9-2.9h14.4C272.2,143.2,261.8,132.9,249.1,132.9z"/>
		<path class="st7" d="M254.9,158.9v8.7h20.2v-8.7c0-1.6-1.3-2.9-2.9-2.9h-14.4C256.1,156,254.9,157.3,254.9,158.9z"/>
		<path class="st14" d="M145.1,184.9h23.1v11.5h-23.1V184.9z"/>
		<path class="st10" d="M254.9,184.9h20.2v11.5h-20.2V184.9z"/>
		<path class="st15" d="M188.5,184.9h23.1v11.5h-23.1V184.9z"/>
		<linearGradient id="SVGID_5_" gradientUnits="userSpaceOnUse" x1="116.28" y1="176.1905" x2="283.72" y2="176.1905">
			<stop  offset="0" style="stop-color:#F5524E"/>
			<stop  offset="1" style="stop-color:#D0342F"/>
		</linearGradient>
		<path class="st16" d="M280.8,167.5h-5.8h-20.2h-23.1h-20.2h-8.7h-14.4h-20.2h-23.1h-20.2h-5.8c-1.6,0-2.9,1.3-2.9,2.9V182
			c0,1.6,1.3,2.9,2.9,2.9h5.8h20.2h23.1h20.2h23.1h20.2h23.1h20.2h5.8c1.6,0,2.9-1.3,2.9-2.9v-11.5
			C283.7,168.8,282.4,167.5,280.8,167.5z"/>
		<linearGradient id="SVGID_6_" gradientUnits="userSpaceOnUse" x1="116.28" y1="205.0595" x2="283.72" y2="205.0595">
			<stop  offset="0" style="stop-color:#F5524E"/>
			<stop  offset="1" style="stop-color:#D0342F"/>
		</linearGradient>
		<path class="st17" d="M280.8,196.4h-5.8h-20.2h-23.1h-20.2h-23.1h-20.2h-23.1h-20.2h-5.8c-1.6,0-2.9,1.3-2.9,2.9v11.5
			c0,1.6,1.3,2.9,2.9,2.9h161.7c1.6,0,2.9-1.3,2.9-2.9v-11.5C283.7,197.7,282.4,196.4,280.8,196.4z"/>
		<path class="st1" d="M174,58.8c1.6,0,2.9-1.3,2.9-2.9v-5.8c0-1.6-1.3-2.9-2.9-2.9h-34.6c-1.6,0-2.9,1.3-2.9,2.9v5.8
			c0,1.6,1.3,2.9,2.9,2.9h2.9h28.9H174z"/>
		<path class="st18" d="M268.2,46.3h-35.6c-3.2,0-6.3,0.7-9.1,2.1c-10.9,5.4-18.2,20.8-14.9,32.5l3-14.8c0.3-2,3.6-4.8,5.5-4.1l0,0
			c3.1,1,6.4,0.5,9-1.5l2.5-1.9c3-2.2,7-2.6,10.3-0.9l1.7,0.8c2.8,1.4,6,1.4,8.8,0l2.6-1.3c2.7-1.4,6-1.6,8.7-0.2
			c4.2,2.2,9.4,1.2,12.4-2.5l6.6-8.2H268.2z"/>
		<linearGradient id="SVGID_7_" gradientUnits="userSpaceOnUse" x1="116.28" y1="209.3895" x2="283.72" y2="209.3895">
			<stop  offset="0" style="stop-color:#F5524E"/>
			<stop  offset="1" style="stop-color:#D0342F"/>
		</linearGradient>
		<path class="st19" d="M280.8,207.9H119.2c-1.6,0-2.9-1.3-2.9-2.9v5.8c0,1.6,1.3,2.9,2.9,2.9h161.7c1.6,0,2.9-1.3,2.9-2.9v-5.8
			C283.7,206.7,282.4,207.9,280.8,207.9z"/>
		<linearGradient id="SVGID_8_" gradientUnits="userSpaceOnUse" x1="116.28" y1="180.5205" x2="283.72" y2="180.5205">
			<stop  offset="0" style="stop-color:#F5524E"/>
			<stop  offset="1" style="stop-color:#D0342F"/>
		</linearGradient>
		<path class="st20" d="M280.8,179.1h-5.8h-20.2h-23.1h-20.2h-23.1h-20.2h-23.1h-20.2h-5.8c-1.6,0-2.9-1.3-2.9-2.9v5.8
			c0,1.6,1.3,2.9,2.9,2.9h5.8h20.2h23.1h20.2h23.1h20.2h23.1h20.2h5.8c1.6,0,2.9-1.3,2.9-2.9v-5.8
			C283.7,177.8,282.4,179.1,280.8,179.1z"/>
		<path class="st8" d="M249.1,161.8c-9.7,0-18-6-21.4-14.4c-1.1,2.7-1.7,5.6-1.7,8.7h2.9c1.6,0,2.9,1.3,2.9,2.9v8.7h23.1V161
			C253,161.5,251.1,161.8,249.1,161.8z"/>
		<path class="st8" d="M264.3,156h7.9c0-3.1-0.6-6-1.7-8.7C269.1,150.7,267,153.6,264.3,156z"/>
		<path class="st15" d="M211.7,158.4c-3.2,2-6.4,3.4-9.3,4.3l0.6,4.9h8.7v-8.7C211.5,158.7,211.6,158.5,211.7,158.4z"/>
		<path class="st15" d="M223.3,147.1c-0.1,0.1-0.1,0.2-0.2,0.2c-2.4,3.6-5.2,6.4-8,8.7h8L223.3,147.1z"/>
		<path class="st14" d="M168.2,158.9c0-1.6,1.3-2.9,2.9-2.9h11.5v-17.3c-5.3,7.6-13.7,18.9-23.6,28.8h9.1V158.9z"/>
		<path class="st18" d="M246.6,143l-1.2-2.1c-5.1-8.5-4.6-19.2,1.4-27.1l4.6,3.5c-4.6,6.1-5,14.2-1.1,20.7l1.2,2.1L246.6,143z"/>
		<g>
			<path class="st15" d="M208.7,104h-5.8c-1.6,0-2.9-1.3-2.9-2.9c0-1.6,1.3-2.9,2.9-2.9h5.8c1.6,0,2.9,1.3,2.9,2.9
				C211.5,102.7,210.3,104,208.7,104z"/>
			<path class="st15" d="M214.4,115.6h-5.8c-1.6,0-2.9-1.3-2.9-2.9c0-1.6,1.3-2.9,2.9-2.9h5.8c1.6,0,2.9,1.3,2.9,2.9
				C217.3,114.3,216,115.6,214.4,115.6z"/>
			<path class="st15" d="M208.7,132.9h-5.8c-1.6,0-2.9-1.3-2.9-2.9s1.3-2.9,2.9-2.9h5.8c1.6,0,2.9,1.3,2.9,2.9
				S210.3,132.9,208.7,132.9z"/>
			<path class="st15" d="M220.2,141.5h-5.8c-1.6,0-2.9-1.3-2.9-2.9c0-1.6,1.3-2.9,2.9-2.9h5.8c1.6,0,2.9,1.3,2.9,2.9
				C223.1,140.3,221.8,141.5,220.2,141.5z"/>
		</g>
		<path class="st21" d="M130.7,179.1c-1.6,0-2.9-1.3-2.9-2.9c0-1.6,1.3-2.9,2.9-2.9c1.6,0,2.9,1.3,2.9,2.9
			C133.6,177.8,132.3,179.1,130.7,179.1z"/>
		<path class="st21" d="M130.7,207.9c-1.6,0-2.9-1.3-2.9-2.9c0-1.6,1.3-2.9,2.9-2.9c1.6,0,2.9,1.3,2.9,2.9
			C133.6,206.7,132.3,207.9,130.7,207.9z"/>
		<path class="st21" d="M269.3,179.1c-1.6,0-2.9-1.3-2.9-2.9c0-1.6,1.3-2.9,2.9-2.9c1.6,0,2.9,1.3,2.9,2.9
			C272.2,177.8,270.9,179.1,269.3,179.1z"/>
		<path class="st21" d="M269.3,207.9c-1.6,0-2.9-1.3-2.9-2.9c0-1.6,1.3-2.9,2.9-2.9c1.6,0,2.9,1.3,2.9,2.9
			C272.2,206.7,270.9,207.9,269.3,207.9z"/>
	</g>
</g>
</svg>
