<svg width="72" height="66" viewBox="0 0 72 66" fill="none" xmlns="http://www.w3.org/2000/svg">
<path d="M51.8076 12.0247L45.4404 1.11281C45.139 0.590844 44.6395 0.217369 44.059 0.0688772C43.4786 -0.0751145 42.8576 0.0103795 42.3401 0.320861L22.8698 11.9977L51.8076 12.0247Z" fill="#A91F23"/>
<path d="M9.00155 14.999C7.35015 14.999 6.00023 13.6491 6.00023 11.9976C6.00023 10.3462 7.35015 8.99632 9.00155 8.99632H19.1125L29.1334 2.99817H9.00155C4.56031 2.99817 0.870525 6.23798 0.150567 10.4992C0.0920699 10.7377 0.0020752 10.9807 0.0020752 11.2507V56.9995C0.0020752 61.9492 4.05184 65.999 9.00155 65.999H59.9971C63.2954 65.999 65.9952 63.2992 65.9952 60.0009V54.0027H58.4987C51.0606 54.0027 44.9995 47.9416 44.9995 40.5035C44.9995 33.0654 51.0606 27.0043 58.4987 27.0043H65.9997V21.0061C65.9997 17.7078 63.2999 15.008 60.0016 15.008H9.00155V14.999ZM57.0003 9.00082C57.0003 5.97249 54.7504 3.45264 51.8121 3.06117L57.0003 12.0021V9.00082Z" fill="#A91F23"/>
<path d="M69.7481 31.4995H58.4987C53.5355 31.4995 49.4993 35.5358 49.4993 40.499C49.4993 45.4622 53.5355 49.4985 58.4987 49.4985H69.7481C70.99 49.4985 71.998 48.4905 71.998 47.2486V33.7494C71.998 32.5075 70.99 31.4995 69.7481 31.4995ZM58.4987 43.4958C56.8428 43.4958 55.4974 42.1504 55.4974 40.4945C55.4974 38.8431 56.8428 37.4977 58.4987 37.4977C60.1546 37.4977 61.5001 38.8386 61.5001 40.499C61.5001 42.1549 60.1546 43.4958 58.4987 43.4958Z" fill="#A91F23"/>
</svg>
