<svg width="38" height="48" viewBox="0 0 38 48" fill="none" xmlns="http://www.w3.org/2000/svg">
<path d="M18.9741 17.0277C15.0825 17.0277 11.9161 20.1943 11.9161 24.0857C11.9161 27.9772 15.0825 31.1437 18.9741 31.1437C22.8657 31.1437 26.0321 27.9773 26.0321 24.0857C26.0321 20.1941 22.8657 17.0277 18.9741 17.0277ZM22.7954 23.6721L18.5605 27.907C18.2849 28.1827 17.9237 28.3206 17.5625 28.3206C17.2013 28.3206 16.8401 28.1829 16.5644 27.907L15.1528 26.4954C14.6015 25.944 14.6015 25.0507 15.1528 24.4993C15.7042 23.948 16.5975 23.948 17.1489 24.4993L17.5625 24.9129L20.7992 21.6762C21.3505 21.1248 22.2439 21.1248 22.7953 21.6762C23.3466 22.2276 23.3468 23.1208 22.7954 23.6721ZM35.9136 7.76951C28.1001 7.76951 20.0026 0.526714 19.9212 0.453717C19.3836 -0.0314475 18.5646 -0.0314475 18.0271 0.453717C17.9457 0.526714 9.8483 7.76951 2.03468 7.76951C1.25452 7.76951 0.623047 8.40083 0.623047 9.18114V25.9923C0.623047 39.2965 10.161 44.6438 18.4709 47.8172C18.6323 47.8792 18.8031 47.9095 18.9741 47.9095C19.1451 47.9095 19.316 47.8792 19.4773 47.8172C27.7871 44.6438 37.3252 39.2965 37.3252 25.9923V9.18114C37.325 8.40083 36.6937 7.76951 35.9136 7.76951ZM18.9741 33.967C13.5262 33.967 9.09285 29.5337 9.09285 24.0857C9.09285 18.6377 13.5262 14.2044 18.9741 14.2044C24.4221 14.2044 28.8554 18.6377 28.8554 24.0857C28.8554 29.5337 24.4221 33.967 18.9741 33.967Z" fill="url(#paint0_linear)"/>
<defs>
<linearGradient id="paint0_linear" x1="18.9741" y1="0.0896854" x2="18.9741" y2="47.9095" gradientUnits="userSpaceOnUse">
<stop stop-color="#A91F23"/>
<stop offset="1" stop-color="#A91F23" stop-opacity="0.86"/>
</linearGradient>
</defs>
</svg>
