<?xml version="1.0" encoding="UTF-8" standalone="no"?><!-- Generator: Gravit.io --><svg xmlns="http://www.w3.org/2000/svg" xmlns:xlink="http://www.w3.org/1999/xlink" style="isolation:isolate" viewBox="0 0 512 512" width="512pt" height="512pt"><defs><clipPath id="_clipPath_Hds7ti4k1NPtHofnM0uPMOVQerEZVuz3"><rect width="512" height="512"/></clipPath></defs><g clip-path="url(#_clipPath_Hds7ti4k1NPtHofnM0uPMOVQerEZVuz3)"><linearGradient id="_lgradient_0" x1="0.5000166955682344" y1="0.10639109866125866" x2="0.5000166955682341" y2="1.016549152278655" gradientTransform="matrix(371.995,0,0,379.481,70,82.172)" gradientUnits="userSpaceOnUse"><stop offset="0%" stop-opacity="1" style="stop-color:rgb(218,97,56)"/><stop offset="100%" stop-opacity="1" style="stop-color:rgb(218,97,56)"/></linearGradient><path d=" M 417.564 461.653 L 94.431 461.653 C 80.938 461.653 70 450.715 70 437.222 L 70 106.603 C 70 93.111 80.938 82.172 94.431 82.172 L 417.564 82.172 C 431.057 82.172 441.995 93.111 441.995 106.603 L 441.995 437.223 C 441.995 450.715 431.057 461.653 417.564 461.653 Z " fill="url(#_lgradient_0)"/><linearGradient id="_lgradient_1" x1="0.20095299271276312" y1="0.43893398528358957" x2="0.11268981826774394" y2="-0.3198719054250007" gradientTransform="matrix(347.792,0,0,379.429,94.203,82.172)" gradientUnits="userSpaceOnUse"><stop offset="4.166666666666666%" stop-opacity="0" style="stop-color:rgb(251,249,248)"/><stop offset="100%" stop-opacity="1" style="stop-color:rgb(218,97,56)"/></linearGradient><path d=" M 441.995 106.603 C 441.995 93.111 431.057 82.172 417.564 82.172 L 94.431 82.172 C 94.355 82.172 94.279 82.177 94.203 82.178 L 94.203 136.746 L 419.059 461.602 C 431.856 460.829 441.995 450.211 441.995 437.22 L 441.995 106.603 L 441.995 106.603 Z " fill="url(#_lgradient_1)"/><path d=" M 417.564 82.172 L 94.431 82.172 C 80.938 82.172 70 93.111 70 106.603 L 70 112.312 C 70 125.804 80.938 136.743 94.431 136.743 L 417.564 136.743 C 431.057 136.743 441.995 125.804 441.995 112.312 L 441.995 106.603 C 441.995 93.111 431.057 82.172 417.564 82.172 Z " fill="rgb(138,47,16)"/><path d=" M 202.065 59.739 L 202.065 136.747 L 94.203 136.747 L 94.203 59.739 C 94.203 54.558 98.411 50.35 103.593 50.35 L 192.677 50.35 C 197.856 50.348 202.065 54.558 202.065 59.739 Z " fill="rgb(40,43,78)"/><path d=" M 417.792 59.739 L 417.792 136.747 L 309.93 136.747 L 309.93 59.739 C 309.93 54.558 314.139 50.35 319.32 50.35 L 408.404 50.35 C 413.583 50.348 417.792 54.558 417.792 59.739 Z " fill="rgb(78,161,174)"/><path d=" M 309.928 80.3 L 309.928 136.747 L 202.066 136.747 L 202.066 80.3 C 202.066 75.119 206.275 70.911 211.456 70.911 L 300.54 70.911 C 305.72 70.911 309.928 75.119 309.928 80.3 Z " fill="rgb(255,166,0)"/><circle vector-effect="non-scaling-stroke" cx="142.34234849008362" cy="194.2699463192299" r="19.12007635961578" fill="rgb(138,47,16)"/><circle vector-effect="non-scaling-stroke" cx="369.64881487112143" cy="194.2699463192299" r="19.12007635961578" fill="rgb(138,47,16)"/><linearGradient id="_lgradient_2" x1="0.5983717651705971" y1="0.41904954156461627" x2="0.13236461399557792" y2="-0.04695760961040296" gradientTransform="matrix(313.191,0,0,278.796,128.809,182.857)" gradientUnits="userSpaceOnUse"><stop offset="0.01%" stop-opacity="1" style="stop-color:rgb(218,97,56)"/><stop offset="2.9166666666666665%" stop-opacity="1" style="stop-color:rgb(218,97,56)"/><stop offset="100%" stop-opacity="1" style="stop-color:rgb(218,97,56)"/></linearGradient><path d=" M 442 249.848 L 442 437.222 C 442 450.712 431.059 461.653 417.569 461.653 L 302.171 461.653 L 168.588 328.07 C 144.082 304.543 128.809 271.327 128.809 234.724 L 128.809 196.134 C 128.809 188.794 134.746 182.857 142.086 182.857 C 146.739 182.857 150.838 185.257 153.207 188.89 C 153.207 188.89 293.673 329.133 294.014 329.409 C 330.713 314.379 356.631 278.275 356.631 236.222 L 356.631 196.134 C 356.631 188.794 362.58 182.857 369.908 182.857 C 374.572 182.857 378.661 185.257 381.03 188.89 L 442 249.848 Z " fill="url(#_lgradient_2)"/><linearGradient id="_lgradient_3" x1="0.5000258879393137" y1="-0.03685718387712167" x2="0.5000258879393135" y2="1.363456338222529" gradientTransform="matrix(254.386,0,0,180.566,128.804,182.852)" gradientUnits="userSpaceOnUse"><stop offset="0%" stop-opacity="1" style="stop-color:rgb(255,255,255)"/><stop offset="100%" stop-opacity="1" style="stop-color:rgb(232,239,238)"/></linearGradient><path d=" M 258.279 363.398 C 186.912 364.66 128.804 306.103 128.804 234.726 L 128.804 196.13 C 128.804 188.796 134.748 182.852 142.081 182.852 L 142.081 182.852 C 149.415 182.852 155.359 188.796 155.359 196.13 L 155.359 234.839 C 155.359 291.348 201.306 337.848 257.805 336.848 C 312.466 335.879 356.635 291.112 356.635 236.225 L 356.635 196.13 C 356.635 188.796 362.579 182.852 369.912 182.852 L 369.912 182.852 C 377.246 182.852 383.19 188.796 383.19 196.13 L 383.19 236.225 C 383.191 305.597 327.365 362.177 258.279 363.398 Z " fill="url(#_lgradient_3)"/><linearGradient id="_lgradient_4" x1="0.5279973184672925" y1="0.34020035523141584" x2="0.36334180133135763" y2="0.11928529559907738" gradientTransform="matrix(273.216,0,0,272.728,168.779,188.925)" gradientUnits="userSpaceOnUse"><stop offset="0%" stop-opacity="0.15" style="stop-color:rgb(255,255,255)"/><stop offset="100%" stop-opacity="1" style="stop-color:rgb(213,76,31)"/></linearGradient><path d=" M 441.995 437.222 L 441.995 249.848 L 381.062 188.925 C 382.411 191.007 383.186 193.471 383.186 196.126 L 383.186 236.225 C 383.186 305.597 327.366 362.181 258.281 363.403 C 223.6 364.009 192.052 350.498 168.779 328.254 L 302.17 461.653 L 417.564 461.653 C 431.057 461.653 441.995 450.715 441.995 437.222 Z " fill="url(#_lgradient_4)"/><linearGradient id="_lgradient_5" x1="0.5000166955682344" y1="0.20985988911628262" x2="0.5000166955682341" y2="1.1224105321889177" gradientTransform="matrix(371.995,0,0,91.067,70,369.523)" gradientUnits="userSpaceOnUse"><stop offset="0%" stop-opacity="0" style="stop-color:rgb(218,97,56)"/><stop offset="76.66666666666667%" stop-opacity="1" style="stop-color:rgb(218,97,56)"/></linearGradient><path d=" M 70 369.523 L 70 436.159 C 70 449.652 80.938 460.59 94.431 460.59 L 417.564 460.59 C 431.057 460.59 441.995 449.652 441.995 436.159 L 441.995 369.523 L 70 369.523 Z " fill="url(#_lgradient_5)"/></g></svg>