<?xml version="1.0" encoding="utf-8"?>
<!-- Generator: Adobe Illustrator 24.0.1, SVG Export Plug-In . SVG Version: 6.00 Build 0)  -->
<svg version="1.1" id="Layer_1" xmlns="http://www.w3.org/2000/svg" xmlns:xlink="http://www.w3.org/1999/xlink" x="0px" y="0px"
	 viewBox="0 0 512 512" style="enable-background:new 0 0 512 512;" xml:space="preserve">
<style type="text/css">
	.st0{clip-path:url(#SVGID_2_);}
	.st1{fill:url(#SVGID_3_);}
	.st2{fill:#8A2F10;}
	.st3{fill:#282B4E;}
	.st4{fill:#4EA1AE;}
	.st5{fill:#FFA600;}
	.st6{display:none;fill:url(#SVGID_4_);}
	.st7{fill:url(#SVGID_5_);}
</style>
<g>
	<defs>
		<rect id="SVGID_1_" width="512" height="512"/>
	</defs>
	<clipPath id="SVGID_2_">
		<use xlink:href="#SVGID_1_"  style="overflow:visible;"/>
	</clipPath>
	<g class="st0">
		
			<linearGradient id="SVGID_3_" gradientUnits="userSpaceOnUse" x1="56.3495" y1="406.1729" x2="56.3495" y2="405.2628" gradientTransform="matrix(371.995 0 0 -379.481 -20705.7188 154257.4531)">
			<stop  offset="0" style="stop-color:#F5524E"/>
			<stop  offset="1" style="stop-color:#D0342F"/>
		</linearGradient>
		<path class="st1" d="M417.6,461.7H94.4c-13.5,0-24.4-10.9-24.4-24.4V106.6c0-13.5,10.9-24.4,24.4-24.4h323.1
			c13.5,0,24.4,10.9,24.4,24.4v330.6C442,450.7,431.1,461.7,417.6,461.7z"/>
		<path class="st2" d="M417.6,82.2H94.4C80.9,82.2,70,93.1,70,106.6v5.7c0,13.5,10.9,24.4,24.4,24.4h323.1
			c13.5,0,24.4-10.9,24.4-24.4v-5.7C442,93.1,431.1,82.2,417.6,82.2z"/>
		<path class="st3" d="M202.1,59.7v77H94.2v-77c0-5.2,4.2-9.4,9.4-9.4h89.1C197.9,50.3,202.1,54.6,202.1,59.7z"/>
		<path class="st4" d="M417.8,59.7v77H309.9v-77c0-5.2,4.2-9.4,9.4-9.4h89.1C413.6,50.3,417.8,54.6,417.8,59.7z"/>
		<path class="st5" d="M309.9,80.3v56.4H202.1V80.3c0-5.2,4.2-9.4,9.4-9.4h89.1C305.7,70.9,309.9,75.1,309.9,80.3z"/>
		<circle vector-effect="non-scaling-stroke" class="st2" cx="142.3" cy="194.3" r="19.1"/>
		<circle vector-effect="non-scaling-stroke" class="st2" cx="369.6" cy="194.3" r="19.1"/>
		
			<linearGradient id="SVGID_4_" gradientUnits="userSpaceOnUse" x1="56.4148" y1="405.9564" x2="55.9488" y2="406.4224" gradientTransform="matrix(313.191 0 0 -278.796 -17353.8867 113480.0312)">
			<stop  offset="1.000000e-04" style="stop-color:#DA6138"/>
			<stop  offset="2.916667e-02" style="stop-color:#DA6138"/>
			<stop  offset="1" style="stop-color:#DA6138"/>
		</linearGradient>
		<path class="st6" d="M442,249.8v187.4c0,13.5-10.9,24.4-24.4,24.4H302.2L168.6,328.1c-24.5-23.5-39.8-56.7-39.8-93.3v-38.6
			c0-7.3,5.9-13.3,13.3-13.3c4.7,0,8.8,2.4,11.1,6c0,0,140.5,140.2,140.8,140.5c36.7-15,62.6-51.1,62.6-93.2v-40.1
			c0-7.3,5.9-13.3,13.3-13.3c4.7,0,8.8,2.4,11.1,6L442,249.8z"/>
		
			<linearGradient id="SVGID_5_" gradientUnits="userSpaceOnUse" x1="56.2799" y1="406.6239" x2="56.2799" y2="405.2236" gradientTransform="matrix(254.386 0 0 -180.566 -14060.8125 73598.6484)">
			<stop  offset="0" style="stop-color:#FFFFFF"/>
			<stop  offset="1" style="stop-color:#E8EFEE"/>
		</linearGradient>
		<path class="st7" d="M258.3,363.4c-71.4,1.3-129.5-57.3-129.5-128.7v-38.6c0-7.3,5.9-13.3,13.3-13.3l0,0c7.3,0,13.3,5.9,13.3,13.3
			v38.7c0,56.5,45.9,103,102.4,102c54.7-1,98.8-45.7,98.8-100.6v-40.1c0-7.3,5.9-13.3,13.3-13.3l0,0c7.3,0,13.3,5.9,13.3,13.3v40.1
			C383.2,305.6,327.4,362.2,258.3,363.4z"/>
	</g>
</g>
</svg>
