<svg width="30" height="30" viewBox="0 0 30 30" fill="none" xmlns="http://www.w3.org/2000/svg">
<circle cx="15" cy="15" r="15" fill="#D4D4D4"/>
<path d="M17.959 20H11.2666V18.8584L14.582 15.2422C15.0605 14.709 15.4001 14.2646 15.6006 13.9092C15.8057 13.5492 15.9082 13.1891 15.9082 12.8291C15.9082 12.3551 15.7738 11.9723 15.5049 11.6807C15.2406 11.389 14.8828 11.2432 14.4316 11.2432C13.8939 11.2432 13.4769 11.4072 13.1807 11.7354C12.8844 12.0635 12.7363 12.5124 12.7363 13.082H11.0752C11.0752 12.4759 11.2119 11.9313 11.4854 11.4482C11.7633 10.9606 12.1576 10.5824 12.668 10.3135C13.1829 10.0446 13.7754 9.91016 14.4453 9.91016C15.4115 9.91016 16.1725 10.154 16.7285 10.6416C17.2891 11.1247 17.5693 11.7946 17.5693 12.6514C17.5693 13.1481 17.4281 13.6699 17.1455 14.2168C16.8675 14.7591 16.4095 15.3766 15.7715 16.0693L13.3379 18.6738H17.959V20Z" fill="white"/>
</svg>
