<?xml version="1.0" encoding="utf-8"?>
<!-- Generator: Adobe Illustrator 24.0.1, SVG Export Plug-In . SVG Version: 6.00 Build 0)  -->
<svg version="1.1" id="Layer_1" xmlns="http://www.w3.org/2000/svg" xmlns:xlink="http://www.w3.org/1999/xlink" x="0px" y="0px"
	 viewBox="0 0 400 250" style="enable-background:new 0 0 400 250;" xml:space="preserve">
<style type="text/css">
	.st0{fill:#EAEFF9;}
	.st1{fill:#FFFFFF;}
	.st2{fill:#FEB546;}
	.st3{fill:#FF5B7E;}
	.st4{fill:#02CCC0;}
	.st5{fill:#07085B;}
	.st6{fill:#2CB666;}
	.st7{fill:#E7F8FC;}
</style>
<path class="st0" d="M424.8-221.6c7.7-20.7,39.7-34.3,54-44.3c4.8-3.3,9.7-6.2,14.7-7.9c17.7-6,34.9,2.9,52.6,0.2
	c5.8-0.9,11.6-3,17.5-4.3c7.6-1.6,15.2-1.6,22.5-0.2c3.1,0.6,6.2,1.6,9.3,2.7c7.9,1.1,15.8,2.2,23.8,1c5.8-0.9,11.6-3,17.5-4.3
	c7.6-1.6,15.2-1.6,22.5-0.2c6.3,1.3,12.3,3.6,18,7c12.9-6.1,27.1-10.4,39.9-8.6c25,3.4,44.7,28.6,58.1,39.3c4.5,3.6,8.4,7.3,11,11.3
	c9.2,14.1,1.1,30,6.5,44.7c1.8,4.8,5,9.4,7.2,14.2c2.9,6.2,3.8,12.6,3,19c-1.4,11.8-8.8,23.5-21.2,34c-5.7,4.8-12.8,10.4-21.4,14.1
	c-8.8,3.8-22.2,3.2-32.8,2.9c-33.3-0.9-24.7,3.3-54.5,2.8c-10.2,8.1-24.5,15.9-44.2,20.7c-15.8,3.9-30.9-1.9-42.7-10.8
	c-8.3,4.5-18.3,8.6-30.3,11.5c-29.2,7.2-55.8-18.4-64-36.3c-5.7-12.6-16.3-20.1-26-26c-8.7-5.3-13.2-9.9-20-19.3
	C435.3-172.4,417.1-200.8,424.8-221.6z"/>
<path class="st1" d="M283.8,58c0.7-3.2,3.6-5.6,7-5.6c0.6,0,1.2,0.1,1.8,0.2c1.7-3.6,5.4-6.1,9.6-6.1c1.1,0,2.2,0.2,3.2,0.5
	c2.3-3.8,6.5-6.3,11.2-6.3c5.7,0,10.5,3.6,12.3,8.6c1.3-0.7,2.8-1.1,4.4-1.1c5,0,9,4,9,9c0,0.3,0,0.6,0,0.9H283.8z"/>
<path class="st1" d="M399,94c-0.7-3.2-3.6-5.6-7-5.6c-0.6,0-1.2,0.1-1.8,0.2c-1.7-3.6-5.4-6.1-9.6-6.1c-1.1,0-2.2,0.2-3.2,0.5
	c-2.3-3.8-6.5-6.3-11.2-6.3c-5.7,0-10.5,3.6-12.3,8.6c-1.3-0.7-2.8-1.1-4.4-1.1c-5,0-9,4-9,9c0,0.3,0,0.6,0,0.9H399z"/>
<path class="st1" d="M270,212c-0.7-3.2-3.6-5.6-7-5.6c-0.6,0-1.2,0.1-1.8,0.2c-1.7-3.6-5.4-6.1-9.6-6.1c-1.1,0-2.2,0.2-3.2,0.5
	c-2.3-3.8-6.5-6.3-11.2-6.3c-5.7,0-10.5,3.6-12.3,8.6c-1.3-0.7-2.8-1.1-4.4-1.1c-5,0-9,4-9,9c0,0.3,0,0.6,0,0.9H270z"/>
<path class="st1" d="M63.9,175c0.8-3.6,4-6.3,7.9-6.3c0.7,0,1.4,0.1,2,0.3c1.9-4,6-6.9,10.8-6.9c1.2,0,2.4,0.2,3.5,0.5
	c2.6-4.2,7.2-7.1,12.6-7.1c6.3,0,11.7,4,13.8,9.7c1.4-0.8,3.1-1.3,4.9-1.3c5.6,0,10.1,4.5,10.1,10.1c0,0.3,0,0.7,0,1H63.9z"/>
<path class="st1" d="M290.9,178c0.5-2.1,2.4-3.7,4.6-3.7c0.4,0,0.8,0.1,1.2,0.2c1.1-2.4,3.5-4,6.3-4c0.7,0,1.4,0.1,2.1,0.3
	c1.5-2.5,4.2-4.2,7.4-4.2c3.7,0,6.9,2.4,8.1,5.7c0.9-0.5,1.8-0.7,2.9-0.7c3.3,0,5.9,2.6,5.9,5.9c0,0.2,0,0.4,0,0.6H290.9z"/>
<rect x="254.7" y="-171.7" transform="matrix(0.9059 0.4235 -0.4235 0.9059 -47.9334 -125.4101)" class="st2" width="7" height="2.3"/>
<rect x="379.9" y="17.5" transform="matrix(0.962 0.273 -0.273 0.962 19.6519 -103.9603)" class="st3" width="7" height="2.3"/>
<rect x="293.1" y="14.5" transform="matrix(0.7071 -0.7071 0.7071 0.7071 75.8022 214.3072)" class="st2" width="7" height="2.3"/>
<rect x="28.3" y="24.1" transform="matrix(0.7071 -0.7071 0.7071 0.7071 -8.5241 29.8984)" class="st4" width="7" height="2.3"/>
<rect x="132.3" y="24.5" transform="matrix(0.9504 0.311 -0.311 0.9504 14.6949 -40.9747)" class="st3" width="7" height="2.3"/>
<rect x="129.3" y="59.4" transform="matrix(0.8216 0.57 -0.57 0.8216 58.205 -64.9146)" class="st4" width="7" height="2.3"/>
<rect x="72" y="102.6" class="st3" width="7" height="2.3"/>
<rect x="34.3" y="81.9" transform="matrix(0.9482 -0.3176 0.3176 0.9482 -24.4213 16.2996)" class="st5" width="7" height="2.3"/>
<rect x="73.3" y="190.4" transform="matrix(0.9598 -0.2808 0.2808 0.9598 -50.6992 29.2817)" class="st2" width="7" height="2.3"/>
<rect x="202.8" y="11.6" transform="matrix(0.6731 0.7396 -0.7396 0.6731 76.9021 -148.4291)" class="st3" width="7" height="2.3"/>
<rect x="138.3" y="133.2" transform="matrix(0.8095 -0.5872 0.5872 0.8095 -51.8936 108.8484)" class="st4" width="7" height="2.3"/>
<rect x="353.6" y="40.9" transform="matrix(0.9798 -0.1999 0.1999 0.9798 -1.1918 72.2218)" class="st4" width="7" height="2.3"/>
<rect x="373.2" y="162.9" transform="matrix(0.9798 -0.1999 0.1999 0.9798 -25.1884 78.608)" class="st4" width="7" height="2.3"/>
<rect x="362.5" y="118.4" transform="matrix(0.9798 -0.1999 0.1999 0.9798 -16.5061 75.561)" class="st3" width="7" height="2.3"/>
<rect x="233" y="214" transform="matrix(0.9059 0.4236 -0.4236 0.9059 113.3959 -79.9298)" class="st3" width="7" height="2.3"/>
<rect x="305.2" y="106" transform="matrix(0.7658 -0.643 0.643 0.7658 3.4218 223.5737)" class="st2" width="7" height="2.3"/>
<rect x="326.2" y="233.5" transform="matrix(0.7658 -0.643 0.643 0.7658 -73.6475 266.9701)" class="st2" width="7" height="2.3"/>
<rect x="140" y="202.3" transform="matrix(0.7658 -0.643 0.643 0.7658 -97.2321 139.9188)" class="st5" width="7" height="2.3"/>
<rect x="205" y="230.3" transform="matrix(-0.3568 -0.9342 0.9342 -0.3568 66.7901 508.8051)" class="st5" width="7" height="2.3"/>
<rect x="283.2" y="142.7" transform="matrix(0.11 -0.9939 0.9939 0.11 112.1871 413.0325)" class="st3" width="7" height="2.3"/>
<rect x="382.9" y="211.3" transform="matrix(0.7658 -0.643 0.643 0.7658 -46.1127 298.1957)" class="st5" width="7" height="2.3"/>
<rect x="39" y="148.1" transform="matrix(0.7658 -0.643 0.643 0.7658 -85.9916 62.2457)" class="st3" width="7" height="2.3"/>
<rect x="70.5" y="233.4" transform="matrix(-6.797610e-02 -0.9977 0.9977 -6.797610e-02 -154.9533 324.3587)" class="st3" width="7" height="2.3"/>
<rect x="208.8" y="161.4" transform="matrix(-6.797854e-02 -0.9977 0.9977 -6.797854e-02 64.61 385.4542)" class="st3" width="7" height="2.3"/>
<rect x="245.5" y="74.9" transform="matrix(-0.913 0.4079 -0.4079 -0.913 507.4521 43.9633)" class="st5" width="7" height="2.3"/>
<rect x="11.8" y="210.4" transform="matrix(-0.5301 -0.8479 0.8479 -0.5301 -155.9326 336.7042)" class="st2" width="7" height="2.3"/>
<path class="st6" d="M200.4,172c31.3,0,56.7-25.4,56.7-56.7s-25.4-56.7-56.7-56.7s-56.7,25.4-56.7,56.7S169.1,172,200.4,172z"/>
<path class="st7" d="M200.4,160.7c25.1,0,45.4-20.3,45.4-45.4c0-25.1-20.3-45.4-45.4-45.4c-25.1,0-45.4,20.3-45.4,45.4
	C155,140.4,175.3,160.7,200.4,160.7z"/>
<path class="st6" d="M192.8,138.3c-1.3,0-2.6-0.5-3.5-1.4l-15.2-14.6c-0.5-0.5-0.9-1-1.1-1.6s-0.4-1.3-0.4-2c0-0.7,0.1-1.3,0.3-2
	s0.6-1.2,1.1-1.7c0.5-0.5,1-0.9,1.6-1.1c0.6-0.3,1.3-0.4,2-0.4c0.7,0,1.3,0.1,2,0.3c0.6,0.2,1.2,0.6,1.7,1.1l11.3,10.8l26.9-31.6
	c0.4-0.5,1-1,1.6-1.3c0.6-0.3,1.3-0.5,1.9-0.6c0.7-0.1,1.4,0,2,0.2c0.6,0.2,1.2,0.5,1.8,1c0.5,0.4,0.9,1,1.2,1.6s0.5,1.3,0.5,1.9
	c0,0.7,0,1.4-0.3,2c-0.2,0.6-0.6,1.2-1,1.7l-30.4,35.7c-0.5,0.5-1,1-1.6,1.3c-0.6,0.3-1.3,0.5-2,0.5
	C193,138.3,192.9,138.3,192.8,138.3z"/>
<path class="st1" d="M134.9,47c-0.7-3.2-3.6-5.6-7-5.6c-0.6,0-1.2,0.1-1.8,0.2c-1.7-3.6-5.4-6.1-9.6-6.1c-1.1,0-2.2,0.2-3.2,0.5
	c-2.3-3.8-6.5-6.3-11.2-6.3c-5.7,0-10.5,3.6-12.3,8.6c-1.3-0.7-2.8-1.1-4.4-1.1c-5,0-9,4-9,9c0,0.3,0,0.6,0,0.9H134.9z"/>
<path class="st1" d="M-0.3,94c0.7-3.2,3.6-5.6,7-5.6c0.6,0,1.2,0.1,1.8,0.2c1.7-3.6,5.4-6.1,9.6-6.1c1.1,0,2.2,0.2,3.2,0.5
	c2.3-3.8,6.5-6.3,11.2-6.3c5.7,0,10.5,3.6,12.3,8.6c1.3-0.7,2.8-1.1,4.4-1.1c5,0,9,4,9,9c0,0.3,0,0.6,0,0.9H-0.3z"/>
</svg>
