<svg width="71" height="71" viewBox="0 0 71 71" fill="none" xmlns="http://www.w3.org/2000/svg">
<path d="M57.2233 70.4286H13.2054C5.9116 70.4286 0 64.517 0 57.2233V13.2054C0 5.9116 5.9116 0 13.2054 0H57.2233C64.517 0 70.4286 5.9116 70.4286 13.2054V57.2233C70.4286 64.517 64.517 70.4286 57.2233 70.4286Z" fill="#E3F8FA"/>
<path d="M49.5202 20.541H26.7784C24.9583 20.541 23.4771 22.0222 23.4771 23.8424V37.0477C23.4771 38.8679 24.9583 40.3491 26.7784 40.3491H49.5202C51.3404 40.3491 52.8216 38.8679 52.8216 37.0477V23.8424C52.8216 22.0222 51.3404 20.541 49.5202 20.541ZM31.1802 27.1437H28.9793C28.3718 27.1437 27.8788 26.6507 27.8788 26.0433C27.8788 25.4358 28.3718 24.9428 28.9793 24.9428H31.1802C31.7876 24.9428 32.2806 25.4358 32.2806 26.0433C32.2806 26.6507 31.7876 27.1437 31.1802 27.1437ZM38.1482 34.8468C35.7206 34.8468 33.7464 32.8726 33.7464 30.445C33.7464 28.0175 35.7206 26.0433 38.1482 26.0433C40.5758 26.0433 42.55 28.0175 42.55 30.445C42.55 32.8726 40.5758 34.8468 38.1482 34.8468ZM47.3193 35.9473H45.1184C44.511 35.9473 44.018 35.4543 44.018 34.8468C44.018 34.2394 44.511 33.7464 45.1184 33.7464H47.3193C47.9268 33.7464 48.4198 34.2394 48.4198 34.8468C48.4198 35.4543 47.9268 35.9473 47.3193 35.9473Z" fill="#26C6DA"/>
<path d="M47.3196 42.5498H24.5778C22.7576 42.5498 21.2764 41.0686 21.2764 39.2485V26.3887L17.7176 39.6601C17.2598 41.4076 18.303 43.2211 20.0527 43.7031L42.7417 49.7798C43.0235 49.8546 43.3052 49.8876 43.5825 49.8876C45.0439 49.8876 46.382 48.9126 46.7672 47.4446L48.1185 42.442C47.861 42.5058 47.5969 42.5498 47.3196 42.5498Z" fill="#8CE1EB"/>
</svg>
