<?xml version="1.0" encoding="utf-8"?>
<!-- Generator: Adobe Illustrator 24.0.1, SVG Export Plug-In . SVG Version: 6.00 Build 0)  -->
<svg version="1.1" id="Layer_1" xmlns="http://www.w3.org/2000/svg" xmlns:xlink="http://www.w3.org/1999/xlink" x="0px" y="0px"
	 viewBox="0 0 400 300" style="enable-background:new 0 0 400 300;" xml:space="preserve">
<style type="text/css">
	.st0{clip-path:url(#SVGID_2_);fill:#EAEAE8;}
	.st1{clip-path:url(#SVGID_2_);fill:#CBCBCB;}
	.st2{clip-path:url(#SVGID_2_);fill:url(#SVGID_3_);}
	.st3{clip-path:url(#SVGID_2_);fill:url(#SVGID_4_);}
	.st4{clip-path:url(#SVGID_2_);fill:url(#SVGID_5_);}
	.st5{clip-path:url(#SVGID_2_);fill:#FBB540;}
	.st6{clip-path:url(#SVGID_2_);fill:url(#SVGID_6_);}
	.st7{clip-path:url(#SVGID_2_);fill:#474747;}
	.st8{clip-path:url(#SVGID_2_);fill:#FDFEFB;}
	.st9{clip-path:url(#SVGID_2_);fill:#A8A8A8;}
	.st10{clip-path:url(#SVGID_2_);fill:#1C1C1C;}
	.st11{clip-path:url(#SVGID_2_);fill:#EA9D2D;}
	.st12{clip-path:url(#SVGID_2_);fill:#C38325;}
</style>
<g>
	<defs>
		<rect id="SVGID_1_" width="400" height="300"/>
	</defs>
	<clipPath id="SVGID_2_">
		<use xlink:href="#SVGID_1_"  style="overflow:visible;"/>
	</clipPath>
	<path class="st0" d="M154,100h152v128H154V100z"/>
	<path class="st1" d="M226,148h80v56h-80V148z"/>
	<linearGradient id="SVGID_3_" gradientUnits="userSpaceOnUse" x1="230" y1="132" x2="230" y2="96">
		<stop  offset="0" style="stop-color:#F5524E"/>
		<stop  offset="1" style="stop-color:#D0342F"/>
	</linearGradient>
	<path class="st2" d="M214,96h32v20c0,8.8-7.2,16-16,16s-16-7.2-16-16V96z"/>
	<path class="st1" d="M182,96h32v20c0,8.8-7.2,16-16,16s-16-7.2-16-16V96z"/>
	<linearGradient id="SVGID_4_" gradientUnits="userSpaceOnUse" x1="294" y1="132" x2="294" y2="96">
		<stop  offset="0" style="stop-color:#F5524E"/>
		<stop  offset="1" style="stop-color:#D0342F"/>
	</linearGradient>
	<path class="st3" d="M278,96h32v20c0,8.8-7.2,16-16,16s-16-7.2-16-16V96z"/>
	<path class="st1" d="M246,96h32v20c0,8.8-7.2,16-16,16s-16-7.2-16-16V96z"/>
	<linearGradient id="SVGID_5_" gradientUnits="userSpaceOnUse" x1="166" y1="132" x2="166" y2="96">
		<stop  offset="0" style="stop-color:#F5524E"/>
		<stop  offset="1" style="stop-color:#D0342F"/>
	</linearGradient>
	<path class="st4" d="M150,96h32v20c0,8.8-7.2,16-16,16s-16-7.2-16-16V96z"/>
	<path class="st5" d="M310,100H150V80l12-4h140l8,4V100z"/>
	<linearGradient id="SVGID_6_" gradientUnits="userSpaceOnUse" x1="150" y1="70" x2="310" y2="70">
		<stop  offset="0" style="stop-color:#F5524E"/>
		<stop  offset="1" style="stop-color:#D0342F"/>
	</linearGradient>
	<path class="st6" d="M310,80H150l8-16l8-4h128l8,4L310,80z"/>
	<path class="st7" d="M210,212h-40v-44c0-11,9-20,20-20s20,9,20,20V212z"/>
	<path class="st8" d="M226,148h76v52h-76V148z"/>
	<path class="st1" d="M166,212h48v16h-48V212z"/>
	<path class="st9" d="M166,220h48v8h-48V220z"/>
	<path class="st10" d="M314,248H150.3c-6.8,0-12.6-4.8-13.8-11.5L124,167.4c-0.8-4.3-4.5-7.4-8.9-7.4H110c-2.2,0-4-1.8-4-4
		s1.8-4,4-4h5.2c8.2,0,15.3,5.9,16.7,14l12.6,69.1c0.5,2.9,3,4.9,5.9,4.9H314c2.2,0,4,1.8,4,4S316.2,248,314,248z"/>
	<circle vector-effect="non-scaling-stroke" class="st0" cx="178" cy="252" r="12"/>
	<circle vector-effect="non-scaling-stroke" class="st0" cx="290" cy="252" r="12"/>
	<path class="st9" d="M178,268c-8.8,0-16-7.2-16-16s7.2-16,16-16s16,7.2,16,16C194,260.8,186.8,268,178,268L178,268z M178,244
		c-4.4,0-8,3.6-8,8s3.6,8,8,8s8-3.6,8-8C186,247.6,182.4,244,178,244L178,244z"/>
	<path class="st9" d="M290,268c-8.8,0-16-7.2-16-16s7.2-16,16-16s16,7.2,16,16C306,260.8,298.8,268,290,268L290,268z M290,244
		c-4.4,0-8,3.6-8,8s3.6,8,8,8s8-3.6,8-8C298,247.6,294.4,244,290,244L290,244z"/>
	<path class="st7" d="M110,164H94c-4.4,0-8-3.6-8-8s3.6-8,8-8h16V164z"/>
	<path class="st10" d="M154,32h152v32H154V32z"/>
	<path class="st7" d="M134,112H86c-2.2,0-4-1.8-4-4s1.8-4,4-4h48c2.2,0,4,1.8,4,4S136.2,112,134,112z"/>
	<path class="st7" d="M134,92H90c-2.2,0-4-1.8-4-4s1.8-4,4-4h44c2.2,0,4,1.8,4,4S136.2,92,134,92z"/>
	<path class="st7" d="M134,128h-16c-2.2,0-4-1.8-4-4s1.8-4,4-4h16c2.2,0,4,1.8,4,4S136.2,128,134,128z"/>
	<path class="st7" d="M106,128h-8c-2.2,0-4-1.8-4-4s1.8-4,4-4h8c2.2,0,4,1.8,4,4S108.2,128,106,128z"/>
	<path class="st11" d="M254,164h24v24h-24V164z"/>
	<path class="st12" d="M270,164v8c0,2.2-1.8,4-4,4s-4-1.8-4-4v-8H270z"/>
	<path class="st7" d="M290,52H170c-2.2,0-4-1.8-4-4s1.8-4,4-4h120c2.2,0,4,1.8,4,4S292.2,52,290,52z"/>
</g>
</svg>
