<?xml version="1.0" encoding="UTF-8" standalone="no"?><!-- Generator: Gravit.io --><svg xmlns="http://www.w3.org/2000/svg" xmlns:xlink="http://www.w3.org/1999/xlink" style="isolation:isolate" viewBox="0 0 400 300" width="400pt" height="300pt"><defs><clipPath id="_clipPath_LJw70abTNWsS5CtWbawfDmjSFIl6iK6h"><rect width="400" height="300"/></clipPath></defs><g clip-path="url(#_clipPath_LJw70abTNWsS5CtWbawfDmjSFIl6iK6h)"><path d=" M 40.49 203 L 187.05 287.62 C 190.832 289.787 195.478 289.787 199.26 287.62 L 368.35 191.53 C 370.477 190.308 371.788 188.043 371.788 185.59 C 371.788 183.137 370.477 180.872 368.35 179.65 L 217.81 92.55 C 216.328 91.682 214.492 91.682 213.01 92.55 L 40.44 194.77 C 38.974 195.627 38.077 197.201 38.088 198.899 C 38.098 200.597 39.014 202.161 40.49 203 L 40.49 203 Z " fill="rgb(40,43,78)"/><linearGradient id="_lgradient_0" x1="0.21136790019765095" y1="0.12938028906272692" x2="0.8204160257083258" y2="0.4976410971038829" gradientTransform="matrix(99.483,0,0,46.846,161.079,218.951)" gradientUnits="userSpaceOnUse"><stop offset="0%" stop-opacity="1" style="stop-color:rgb(255,220,189)"/><stop offset="100%" stop-opacity="1" style="stop-color:rgb(255,169,177)"/></linearGradient><path d=" M 249.245 265.798 L 172.396 265.798 C 166.146 265.798 161.079 260.731 161.079 254.481 L 161.079 230.268 C 161.079 224.018 166.146 218.951 172.396 218.951 L 249.245 218.951 C 255.495 218.951 260.562 224.018 260.562 230.268 L 260.562 254.481 C 260.562 260.731 255.496 265.798 249.245 265.798 Z " fill="url(#_lgradient_0)"/><linearGradient id="_lgradient_1" x1="0.5000022823442416" y1="0.9108909199624158" x2="0.5000022823442417" y2="-0.20792688135303639" gradientTransform="matrix(99.483,0,0,26.581,161.079,239.216)" gradientUnits="userSpaceOnUse"><stop offset="0%" stop-opacity="0" style="stop-color:rgb(255,169,177)"/><stop offset="100%" stop-opacity="1" style="stop-color:rgb(248,149,128)"/></linearGradient><path d=" M 161.079 239.216 L 161.079 245.664 L 181.213 265.798 L 249.245 265.798 C 255.496 265.798 260.562 260.731 260.562 254.481 L 260.562 239.216 L 161.079 239.216 Z " fill="url(#_lgradient_1)"/><linearGradient id="_lgradient_2" x1="-0.5977838000602218" y1="0.2203247906622685" x2="0.4624697442736181" y2="0.8614078343922345" gradientTransform="matrix(37.702,0,0,89.482,245.298,147.892)" gradientUnits="userSpaceOnUse"><stop offset="0%" stop-opacity="1" style="stop-color:rgb(255,220,189)"/><stop offset="100%" stop-opacity="1" style="stop-color:rgb(255,169,177)"/></linearGradient><path d=" M 283 147.892 L 283 199.672 C 283 220.494 266.12 237.374 245.298 237.374 L 245.298 147.892 L 283 147.892 Z " fill="url(#_lgradient_2)"/><linearGradient id="_lgradient_3" x1="0.8470106288751111" y1="0.4999968539014765" x2="0.1967449069973437" y2="0.49999685390147647" gradientTransform="matrix(20.508,0,0,72.17,262.492,161.051)" gradientUnits="userSpaceOnUse"><stop offset="0%" stop-opacity="0" style="stop-color:rgb(255,169,177)"/><stop offset="100%" stop-opacity="1" style="stop-color:rgb(248,149,128)"/></linearGradient><path d=" M 266.177 161.051 L 262.492 161.051 L 262.492 233.221 C 274.665 226.97 283 214.298 283 199.672 L 283 177.874 L 266.177 161.051 Z " fill="url(#_lgradient_3)"/><linearGradient id="_lgradient_4" x1="0.10983158548238853" y1="0.22484343544904736" x2="0.8932128096800982" y2="1.0082220264325588" gradientTransform="matrix(149.217,0,0,211.588,117,34.203)" gradientUnits="userSpaceOnUse"><stop offset="0%" stop-opacity="1" style="stop-color:rgb(229,119,10)"/><stop offset="100%" stop-opacity="1" style="stop-color:rgb(168,91,15)"/></linearGradient><path d=" M 253.184 245.79 L 130.033 245.79 C 122.835 245.79 117 239.955 117 232.757 L 117 47.236 C 117 40.038 122.835 34.203 130.033 34.203 L 253.184 34.203 C 260.382 34.203 266.217 40.038 266.217 47.236 L 266.217 232.758 C 266.217 239.955 260.382 245.79 253.184 245.79 L 253.184 245.79 Z " fill="url(#_lgradient_4)"/><path d=" M 248.412 239.479 L 134.805 239.479 C 128.095 239.479 122.655 234.04 122.655 227.329 L 122.655 52.664 C 122.655 45.954 128.095 40.514 134.805 40.514 L 248.412 40.514 C 255.123 40.514 260.563 45.954 260.563 52.664 L 260.563 227.33 C 260.562 234.04 255.122 239.479 248.412 239.479 Z " fill="rgb(229,119,10)"/><linearGradient id="_lgradient_5" x1="0.21866517666744684" y1="0.3097943835038883" x2="0.9533689145054625" y2="1.0444981213419045" gradientTransform="matrix(125.976,0,0,186.333,128.62,46.83)" gradientUnits="userSpaceOnUse"><stop offset="0%" stop-opacity="1" style="stop-color:rgb(238,245,246)"/><stop offset="100%" stop-opacity="1" style="stop-color:rgb(203,229,232)"/></linearGradient><path d=" M 243.359 46.83 L 212.927 46.83 C 212.006 46.83 211.26 47.576 211.26 48.497 C 211.26 51.065 209.178 53.147 206.61 53.147 L 176.607 53.147 C 174.039 53.147 171.957 51.065 171.957 48.497 C 171.957 47.577 171.211 46.83 170.29 46.83 L 139.858 46.83 C 133.651 46.83 128.62 51.861 128.62 58.068 L 128.62 221.925 C 128.62 228.132 133.652 233.163 139.858 233.163 L 243.359 233.163 C 249.565 233.163 254.596 228.131 254.596 221.925 L 254.596 58.068 C 254.597 51.861 249.565 46.83 243.359 46.83 L 243.359 46.83 Z " fill="url(#_lgradient_5)"/><linearGradient id="_lgradient_6" x1="0.9586971634619056" y1="0.6263103103404843" x2="-0.14810435349727868" y2="-0.010622638098291781" gradientTransform="matrix(118.885,0,0,210.906,147.333,34.884)" gradientUnits="userSpaceOnUse"><stop offset="0%" stop-opacity="0" style="stop-color:rgb(62,89,89)"/><stop offset="100%" stop-opacity="1" style="stop-color:rgb(56,73,73)"/></linearGradient><path d=" M 266.217 232.757 L 266.217 106.634 L 197.68 37.785 C 195.127 33.917 189.452 33.917 186.899 37.785 L 161.693 75.975 C 159.364 79.504 161.031 83.995 164.554 85.485 L 175.441 96.905 C 158.96 103.572 147.333 119.725 147.333 138.596 C 147.333 151.876 153.092 163.809 162.248 172.038 L 236 245.79 L 253.183 245.79 C 260.382 245.79 266.217 239.955 266.217 232.757 L 266.217 232.757 Z " fill="url(#_lgradient_6)"/><linearGradient id="_lgradient_7" x1="0.515157874413978" y1="0.626782081383424" x2="0.37245602474617945" y2="0.2595346741501191" gradientTransform="matrix(108.195,0,0,52.461,157.739,193.329)" gradientUnits="userSpaceOnUse"><stop offset="0%" stop-opacity="0" style="stop-color:rgb(62,89,89)"/><stop offset="100%" stop-opacity="1" style="stop-color:rgb(56,73,73)"/></linearGradient><path d=" M 265.935 235.459 L 226.363 195.888 C 225.471 194.359 223.817 193.329 221.92 193.329 L 162.886 193.329 C 160.044 193.329 157.739 195.633 157.739 198.476 L 157.739 207.558 C 157.739 209.455 158.769 211.109 160.298 212.001 L 194.087 245.79 L 253.184 245.79 C 259.455 245.79 264.69 241.36 265.935 235.459 L 265.935 235.459 Z " fill="url(#_lgradient_7)"/><linearGradient id="_lgradient_8" x1="0.4999999999999998" y1="-0.2656447756996192" x2="0.4999999999999995" y2="1.3125205081329376" gradientTransform="matrix(69.327,0,0,27.025,156.945,192.535)" gradientUnits="userSpaceOnUse"><stop offset="0%" stop-opacity="1" style="stop-color:rgb(40,43,78)"/><stop offset="100%" stop-opacity="1" style="stop-color:rgb(68,73,132)"/></linearGradient><path d=" M 221.126 219.56 L 162.092 219.56 C 159.249 219.56 156.945 216.346 156.945 212.381 L 156.945 199.713 C 156.945 195.749 159.249 192.535 162.092 192.535 L 221.126 192.535 C 223.968 192.535 226.272 195.749 226.272 199.713 L 226.272 212.381 C 226.272 216.346 223.968 219.56 221.126 219.56 Z " fill="url(#_lgradient_8)"/><linearGradient id="_lgradient_9" x1="0.157384357387365" y1="0.29413248854006696" x2="0.6405811841156386" y2="0.7773230744310564" gradientTransform="matrix(63.351,0,0,88.192,159.934,34.202)" gradientUnits="userSpaceOnUse"><stop offset="0%" stop-opacity="1" style="stop-color:rgb(255,255,255)"/><stop offset="100%" stop-opacity="1" style="stop-color:rgb(191,191,191)"/></linearGradient><path d=" M 186.218 37.104 L 161.013 75.294 C 158.178 79.588 161.258 85.311 166.403 85.311 L 178.188 85.311 L 178.188 116.176 C 178.188 119.611 180.972 122.394 184.406 122.394 L 198.811 122.394 C 202.246 122.394 205.029 119.61 205.029 116.176 L 205.029 85.311 L 216.814 85.311 C 221.96 85.311 225.04 79.588 222.205 75.294 L 196.999 37.104 C 194.446 33.235 188.771 33.235 186.218 37.104 L 186.218 37.104 Z " fill="url(#_lgradient_9)"/><g><linearGradient id="_lgradient_10" x1="0.2474747474747474" y1="0.2474797979797979" x2="0.8134949494949496" y2="0.8134949494949499" gradientTransform="matrix(89.913,0,0,89.913,146.652,92.957)" gradientUnits="userSpaceOnUse"><stop offset="0%" stop-opacity="1" style="stop-color:rgb(255,225,119)"/><stop offset="100%" stop-opacity="1" style="stop-color:rgb(254,151,56)"/></linearGradient><circle vector-effect="non-scaling-stroke" cx="191.60854269707175" cy="137.9139787225893" r="44.95666827154548" fill="url(#_lgradient_10)"/><linearGradient id="_lgradient_11" x1="0.752525974025974" y1="0.7525259740259732" x2="0.18650649350649395" y2="0.1865129870129868" gradientTransform="matrix(69.933,0,0,69.933,156.642,102.948)" gradientUnits="userSpaceOnUse"><stop offset="0%" stop-opacity="1" style="stop-color:rgb(255,225,119)"/><stop offset="100%" stop-opacity="1" style="stop-color:rgb(254,151,56)"/></linearGradient><circle vector-effect="non-scaling-stroke" cx="191.60854269707178" cy="137.91397872258932" r="34.966297544535365" fill="url(#_lgradient_11)"/><linearGradient id="_lgradient_12" x1="0.7459810739938431" y1="0.6525639369671921" x2="0.07595196928708015" y2="0.33420756677502833" gradientTransform="matrix(59.745,0,0,70.314,175.737,111.274)" gradientUnits="userSpaceOnUse"><stop offset="0%" stop-opacity="0" style="stop-color:rgb(254,151,56)"/><stop offset="100%" stop-opacity="1" style="stop-color:rgb(244,103,0)"/></linearGradient><path d=" M 235.481 147.757 L 206.09 118.366 C 204.579 116.096 200.534 115.167 197.249 114.832 C 197.012 114.525 194.79 112.395 194.657 112.232 C 194.209 111.68 193.352 111.274 192.495 111.274 C 191.055 111.274 190.007 112.125 190.007 113.042 L 190.007 114.874 C 183.068 115.856 176.915 119.849 176.915 128.162 C 176.915 132.133 178.504 134.853 180.815 136.861 C 180.815 136.861 189.929 145.995 190.007 146.081 L 190.007 152.252 C 185.163 151.401 182.937 147.538 180.188 147.538 C 177.7 147.538 175.737 150.811 175.737 153.037 C 175.737 154.665 176.708 156.272 178.354 157.645 L 202.297 181.588 C 218.82 177.559 231.763 164.4 235.481 147.757 L 235.481 147.757 Z " fill="url(#_lgradient_12)"/><linearGradient id="_lgradient_13" x1="0.22294748426875444" y1="0.3238382077985804" x2="0.7562303644742481" y2="0.8571210880040743" gradientTransform="matrix(32.141,0,0,53.676,175.537,111.076)" gradientUnits="userSpaceOnUse"><stop offset="0%" stop-opacity="1" style="stop-color:rgb(254,151,56)"/><stop offset="100%" stop-opacity="1" style="stop-color:rgb(244,103,0)"/></linearGradient><path d=" M 194.783 132.678 L 194.783 123.121 C 199.038 123.448 200.282 125.543 202.442 125.543 C 205.322 125.543 206.5 121.943 206.5 120.175 C 206.5 115.659 198.841 114.611 194.783 114.48 L 194.783 112.844 C 194.783 111.927 193.539 111.076 192.295 111.076 C 190.855 111.076 189.808 111.927 189.808 112.844 L 189.808 114.676 C 182.869 115.658 176.716 119.651 176.716 127.964 C 176.716 136.343 183.785 139.158 189.808 141.449 L 189.808 152.054 C 184.964 151.203 182.738 147.34 179.988 147.34 C 177.501 147.34 175.537 150.613 175.537 152.839 C 175.537 157.028 181.952 161.087 189.808 161.348 L 189.808 162.985 C 189.808 163.901 190.855 164.752 192.295 164.752 C 193.539 164.752 194.783 163.901 194.783 162.985 L 194.783 161.087 C 202.441 159.843 207.679 154.933 207.679 146.817 C 207.679 137.979 200.74 134.903 194.783 132.678 L 194.783 132.678 Z  M 190.463 131.106 C 187.975 130.059 186.273 128.881 186.273 126.983 C 186.273 125.411 187.517 123.906 190.463 123.317 L 190.463 131.106 Z  M 194.129 151.988 L 194.129 143.216 C 196.485 144.329 198.121 145.704 198.121 147.864 C 198.122 150.22 196.354 151.464 194.129 151.988 Z " fill="url(#_lgradient_13)"/></g><linearGradient id="_lgradient_14" x1="0.4999999999999998" y1="0.36929019925395945" x2="0.49999999999999967" y2="1.030930161553676" gradientTransform="matrix(149.217,0,0,34.208,117,211.582)" gradientUnits="userSpaceOnUse"><stop offset="0%" stop-opacity="0" style="stop-color:rgb(221,121,21)"/><stop offset="100%" stop-opacity="1" style="stop-color:rgb(168,94,19)"/></linearGradient><path d=" M 117 211.582 L 117 232.757 C 117 239.955 122.835 245.79 130.033 245.79 L 253.184 245.79 C 260.382 245.79 266.217 239.955 266.217 232.757 L 266.217 211.582 L 117 211.582 Z " fill="url(#_lgradient_14)"/><linearGradient id="_lgradient_15" x1="0.4999928396511484" y1="0.824442566841856" x2="0.49999283965114844" y2="-0.10545761789514385" gradientTransform="matrix(31.71,0,0,31.71,234.507,156.665)" gradientUnits="userSpaceOnUse"><stop offset="0%" stop-opacity="0" style="stop-color:rgb(62,89,89)"/><stop offset="100%" stop-opacity="1" style="stop-color:rgb(56,73,73)"/></linearGradient><path d=" M 266.217 188.374 L 266.217 156.665 L 234.507 156.665 L 266.217 188.374 Z " fill="url(#_lgradient_15)"/><linearGradient id="_lgradient_16" x1="0.25061678811176735" y1="0.23980991712160238" x2="1.067678663639418" y2="0.733846948997868" gradientTransform="matrix(55.403,0,0,32.108,227.597,128.943)" gradientUnits="userSpaceOnUse"><stop offset="0%" stop-opacity="1" style="stop-color:rgb(255,220,189)"/><stop offset="100%" stop-opacity="1" style="stop-color:rgb(255,169,177)"/></linearGradient><path d=" M 283 161.051 L 246.799 161.051 C 236.195 161.051 227.597 152.454 227.597 141.849 L 227.597 141.535 C 227.597 134.58 233.235 128.943 240.189 128.943 L 263.798 128.943 C 274.403 128.943 283 137.54 283 148.145 L 283 161.051 Z " fill="url(#_lgradient_16)"/><linearGradient id="_lgradient_17" x1="0.5000022823442415" y1="0.3538530965464144" x2="0.5000022823442414" y2="0.8615380531443293" gradientTransform="matrix(99.483,0,0,17.107,161.079,248.691)" gradientUnits="userSpaceOnUse"><stop offset="0%" stop-opacity="0" style="stop-color:rgb(255,169,177)"/><stop offset="100%" stop-opacity="1" style="stop-color:rgb(248,149,128)"/></linearGradient><path d=" M 161.079 248.691 L 161.079 254.481 C 161.079 260.731 166.146 265.798 172.396 265.798 L 249.245 265.798 C 255.496 265.798 260.562 260.731 260.562 254.481 L 260.562 248.691 L 161.079 248.691 Z " fill="url(#_lgradient_17)"/><g><path d=" M 181.986 204.318 C 181.822 204.07 181.585 203.88 181.308 203.773 C 181.025 203.661 180.723 203.605 180.418 203.606 C 180.238 203.606 180.058 203.628 179.884 203.673 C 179.715 203.703 179.555 203.771 179.417 203.873 C 179.276 203.96 179.161 204.083 179.083 204.229 C 178.991 204.388 178.945 204.569 178.95 204.752 C 178.934 205.025 179.055 205.287 179.272 205.453 C 179.512 205.627 179.774 205.769 180.051 205.875 L 181.074 206.209 C 181.437 206.316 181.785 206.469 182.109 206.665 C 182.421 206.866 182.686 207.132 182.888 207.444 C 183.122 207.828 183.234 208.274 183.21 208.723 C 183.22 209.157 183.129 209.588 182.943 209.98 C 182.772 210.327 182.525 210.631 182.22 210.87 C 181.91 211.109 181.56 211.29 181.186 211.404 C 180.777 211.52 180.354 211.58 179.929 211.582 C 179.379 211.579 178.834 211.485 178.316 211.304 C 177.8 211.114 177.344 210.792 176.992 210.37 L 178.193 209.257 C 178.384 209.55 178.649 209.788 178.961 209.947 C 179.269 210.111 179.613 210.195 179.962 210.192 C 180.15 210.194 180.338 210.168 180.518 210.114 C 180.7 210.07 180.873 209.994 181.03 209.891 C 181.182 209.793 181.308 209.66 181.397 209.502 C 181.485 209.338 181.531 209.154 181.53 208.968 C 181.55 208.678 181.435 208.395 181.219 208.2 C 180.981 208.01 180.715 207.86 180.429 207.755 C 180.118 207.633 179.784 207.522 179.406 207.411 C 179.047 207.302 178.703 207.149 178.382 206.954 C 178.066 206.768 177.799 206.509 177.604 206.198 C 177.371 205.817 177.259 205.375 177.281 204.93 C 177.271 204.511 177.371 204.097 177.57 203.728 C 177.751 203.393 178.006 203.104 178.316 202.883 C 178.651 202.646 179.029 202.477 179.428 202.382 C 180.278 202.143 181.181 202.163 182.02 202.438 C 182.463 202.582 182.869 202.821 183.21 203.139 L 181.986 204.318 Z " fill="rgb(255,255,255)"/><path d=" M 184.868 202.394 L 190.797 202.394 L 190.797 203.829 L 186.458 203.829 L 186.458 206.053 L 190.574 206.053 L 190.574 207.5 L 186.458 207.5 L 186.458 209.936 L 191.03 209.936 L 191.03 211.371 L 184.868 211.371 L 184.868 202.394 Z " fill="rgb(255,255,255)"/><path d=" M 192.599 202.394 L 194.712 202.394 L 199.051 209.068 L 199.051 209.068 L 199.051 202.394 L 200.697 202.394 L 200.697 211.348 L 198.673 211.348 L 194.223 204.474 L 194.223 204.474 L 194.223 211.348 L 192.632 211.348 L 192.599 202.394 Z " fill="rgb(255,255,255)"/><path d=" M 202.677 202.394 L 206.259 202.394 C 206.841 202.392 207.419 202.483 207.972 202.661 C 209.075 203.016 209.974 203.825 210.442 204.885 C 210.702 205.512 210.831 206.186 210.82 206.865 C 210.839 208.16 210.26 209.391 209.252 210.203 C 208.796 210.571 208.275 210.851 207.716 211.026 C 207.185 211.2 206.629 211.29 206.07 211.293 L 202.733 211.293 L 202.677 202.394 Z  M 205.458 209.913 C 205.935 209.913 206.409 209.853 206.871 209.735 C 207.272 209.63 207.65 209.449 207.983 209.202 C 208.32 208.963 208.588 208.641 208.762 208.267 C 208.966 207.829 209.065 207.349 209.051 206.865 C 209.061 206.389 208.974 205.916 208.795 205.475 C 208.646 205.108 208.405 204.787 208.095 204.541 C 207.768 204.283 207.388 204.101 206.982 204.007 C 206.545 203.882 206.091 203.822 205.636 203.829 L 204.179 203.829 L 204.179 209.913 L 205.458 209.913 Z " fill="rgb(255,255,255)"/></g></g></svg>