<?xml version="1.0" encoding="utf-8"?>
<!-- Generator: Adobe Illustrator 24.0.1, SVG Export Plug-In . SVG Version: 6.00 Build 0)  -->
<svg version="1.1" id="Layer_1" xmlns="http://www.w3.org/2000/svg" xmlns:xlink="http://www.w3.org/1999/xlink" x="0px" y="0px"
	 viewBox="0 0 511.9 358.8" style="enable-background:new 0 0 511.9 358.8;" xml:space="preserve">
<style type="text/css">
	.st0{clip-path:url(#SVGID_2_);}
	.st1{fill:#68E1FD;}
	.st2{fill:url(#SVGID_3_);}
	.st3{fill:#AAAEE8;}
	.st4{fill:url(#SVGID_4_);}
	.st5{fill:url(#SVGID_5_);}
	.st6{fill:url(#SVGID_6_);}
	.st7{fill:url(#SVGID_7_);}
	.st8{fill:url(#SVGID_8_);}
	.st9{fill:url(#SVGID_9_);}
	.st10{fill:url(#SVGID_10_);}
	.st11{fill:#FFFFFF;}
	.st12{fill:url(#SVGID_11_);}
	.st13{fill:url(#SVGID_12_);}
	.st14{fill:url(#SVGID_13_);}
	.st15{fill:url(#SVGID_14_);}
	.st16{fill:url(#SVGID_15_);}
	.st17{fill:url(#SVGID_16_);}
	.st18{fill:url(#SVGID_17_);}
	.st19{fill:url(#SVGID_18_);}
	.st20{fill:url(#SVGID_19_);}
	.st21{fill:url(#SVGID_20_);}
	.st22{fill:url(#SVGID_21_);}
	.st23{fill:url(#SVGID_22_);}
	.st24{fill:none;}
	.st25{fill:#FFFFFF;filter:url(#Adobe_OpacityMaskFilter);}
	.st26{mask:url(#_mask_hp8ladwAAAX9yUYrF0JdFu5YY83Erzpf_1_);fill:none;stroke:#9FEFFC;stroke-width:11.42;stroke-miterlimit:10;}
	.st27{fill:#2F304A;}
	.st28{fill:url(#SVGID_23_);}
	.st29{fill:url(#SVGID_24_);}
	.st30{fill:#353865;}
	.st31{fill:url(#SVGID_25_);}
	.st32{fill:url(#SVGID_26_);}
	.st33{fill:url(#SVGID_27_);}
	.st34{fill:#606161;}
	.st35{fill:url(#SVGID_28_);}
	.st36{fill:url(#SVGID_29_);}
	.st37{opacity:0.24;}
</style>
<g>
	<defs>
		<rect id="SVGID_1_" width="511.9" height="358.8"/>
	</defs>
	<clipPath id="SVGID_2_">
		<use xlink:href="#SVGID_1_"  style="overflow:visible;"/>
	</clipPath>
	<g class="st0">
		<path class="st1" d="M105.5,213.2l-76.8,30.6c0,0-4.4,19.3,3.6,25.7c7,5.6,119.2,68.4,148.4,84.7c5.3,3,11.2,4.4,17.2,4.3
			c7.7-0.2,18.5-1.8,27.4-7.7c16.1-10.4,267.1-152.9,267.1-152.9s14.5-9.7,3.8-31.9c-7.3-15.1-61.7-17.2-61.7-17.2L105.5,213.2z"/>
		
			<linearGradient id="SVGID_3_" gradientUnits="userSpaceOnUse" x1="56.0805" y1="328.6842" x2="56.8522" y2="328.5981" gradientTransform="matrix(472.744 0 0 -209.556 -26390.2305 69121.8359)">
			<stop  offset="0.4167" style="stop-color:#656CB7"/>
			<stop  offset="1" style="stop-color:#292C4F"/>
			<stop  offset="1" style="stop-color:#282B4E"/>
		</linearGradient>
		<path class="st2" d="M105.5,213.2l-76.8,30.6c0,0-4.4,19.3,3.6,25.7c7,5.6,118.4,67.9,148.1,84.5c5.8,3.2,12.3,4.7,18.9,4.4
			c7.6-0.4,17.7-2.1,26.1-7.6c16.1-10.4,267.1-152.9,267.1-152.9s14.5-9.7,3.8-31.9c-7.3-15.1-61.7-17.2-61.7-17.2L105.5,213.2z"/>
		<path class="st3" d="M105.5,192.3l-69.2,40.2c0,0-12.1,9.7-4,16.1c7.4,5.9,131,74.9,152.2,86.8c2.2,1.2,4.7,2,7.3,2.1
			c7.1,0.4,21.9,0,33.6-7.6C241.4,319.4,492.4,177,492.4,177s10.5-9.7-3.2-19.3c-13.7-9.7-54.7-29.8-54.7-29.8L105.5,192.3z"/>
		<linearGradient id="SVGID_4_" gradientUnits="userSpaceOnUse" x1="53.62" y1="234.41" x2="471.61" y2="234.41">
			<stop  offset="0" style="stop-color:#F5524E"/>
			<stop  offset="1" style="stop-color:#D0342F"/>
		</linearGradient>
		<path class="st4" d="M108.6,198.5l-55,33.1l159.6,88.1l258.4-148.4l-40.8-22.1L108.6,198.5L108.6,198.5z"/>
		
			<linearGradient id="SVGID_5_" gradientUnits="userSpaceOnUse" x1="55.8312" y1="328.6496" x2="56.8312" y2="328.6496" gradientTransform="matrix(331.74 0 0 -193.9 -18414.6191 63869.5898)">
			<stop  offset="0" style="stop-color:#696EB5"/>
			<stop  offset="1" style="stop-color:#1C2059"/>
		</linearGradient>
		<path class="st5" d="M106.8,176.2L325.6,47.5l112.9,65.2L216.5,241.4L106.8,176.2L106.8,176.2z"/>
		<linearGradient id="SVGID_6_" gradientUnits="userSpaceOnUse" x1="146.91" y1="141.225" x2="404.77" y2="141.225">
			<stop  offset="0" style="stop-color:#F5524E"/>
			<stop  offset="1" style="stop-color:#D0342F"/>
		</linearGradient>
		<path class="st6" d="M154.1,160.5c0,0,3.2,16.1-7.2,18.9l58.3,35.4c0,0,19.3-4.8,31.8,0l167.7-97.3c0,0-3.2-12.1,0-17.7
			l-63.5-32.2c0,0-27.1,4.6-30.1,0.7L154.1,160.5z"/>
		
			<linearGradient id="SVGID_7_" gradientUnits="userSpaceOnUse" x1="55.4913" y1="328.7274" x2="56.4913" y2="328.7274" gradientTransform="matrix(110.09 0 0 -127.52 -6002.2197 42159.3008)">
			<stop  offset="0" style="stop-color:#696EB5"/>
			<stop  offset="1" style="stop-color:#1C2059"/>
		</linearGradient>
		<path class="st7" d="M106.8,176.2v61.6l110.1,66l-0.4-62.3L106.8,176.2L106.8,176.2z"/>
		
			<linearGradient id="SVGID_8_" gradientUnits="userSpaceOnUse" x1="55.7505" y1="328.6518" x2="56.7505" y2="328.6518" gradientTransform="matrix(224.47 0 0 -191.08 -12297.8203 63006.9805)">
			<stop  offset="0" style="stop-color:#696EB5"/>
			<stop  offset="1" style="stop-color:#1C2059"/>
		</linearGradient>
		<path class="st8" d="M441,169.8l-2.4-57.1L216.5,241.4l0.4,62.3L441,169.8L441,169.8z"/>
		
			<linearGradient id="SVGID_9_" gradientUnits="userSpaceOnUse" x1="55.4913" y1="328.7274" x2="56.4913" y2="328.7274" gradientTransform="matrix(110.09 0 0 -127.52 -6002.2197 42159.3008)">
			<stop  offset="1" style="stop-color:#010101;stop-opacity:0"/>
			<stop  offset="1" style="stop-color:#010101;stop-opacity:9.561555e-03"/>
		</linearGradient>
		<path class="st9" d="M106.8,176.2v61.6l110.1,66l-0.4-62.3L106.8,176.2L106.8,176.2z"/>
		
			<linearGradient id="SVGID_10_" gradientUnits="userSpaceOnUse" x1="55.7505" y1="328.6518" x2="56.7505" y2="328.6518" gradientTransform="matrix(224.47 0 0 -191.08 -12297.8203 63006.9805)">
			<stop  offset="1" style="stop-color:#010101;stop-opacity:0"/>
			<stop  offset="1" style="stop-color:#010101;stop-opacity:4.689409e-03"/>
		</linearGradient>
		<path class="st10" d="M441,169.8l-2.4-57.1L216.5,241.4l0.4,62.3L441,169.8L441,169.8z"/>
		<path class="st11" d="M197,139.9l4.5,2.6c1.9-0.8,3.9-1.5,5.9-2c8-2.2,14.7-0.4,15.8,2.6c1.1,3-3.6,3.6-8,3.4s-3-3.9-3-3.9
			l-2.3-0.1c-3.1-0.9-14.2,5.5-10.6,10c3.6,4.5,18.7-1.8,18.7-1.8c22.3-3.4,23.1-2.2,28.6,3c5.4,5.2-4,11.9-4,11.9l5.2,4.4l-3.2,1.4
			l-6.2-3.8c-6.8,5.6-17.9,3.3-21.4,1.9s-6.3-4.7,0.3-7s5.8,3.2,9.9,5.5c4.1,2.3,8.6-2,8.6-2l-13.4-8l-2.8,0.6
			c-0.3,0.1-17.6,3.5-23.6-2c-6-5.5,2.6-11.8,2.6-11.8l-4.7-2.8L197,139.9z"/>
		
			<linearGradient id="SVGID_11_" gradientUnits="userSpaceOnUse" x1="55.8289" y1="328.7148" x2="56.8289" y2="328.7148" gradientTransform="matrix(327.38 0 0 -135 -18163.8594 44556.5781)">
			<stop  offset="0" style="stop-color:#696EB5"/>
			<stop  offset="1" style="stop-color:#1C2059"/>
		</linearGradient>
		<path class="st12" d="M216.4,247.6l-0.4-0.2l-102.6-61.1l0.7-1.2l102.2,60.9l223.7-133.3l0.7,1.2L216.4,247.6L216.4,247.6z"/>
		
			<linearGradient id="SVGID_12_" gradientUnits="userSpaceOnUse" x1="55.8289" y1="328.7148" x2="56.8289" y2="328.7148" gradientTransform="matrix(327.38 0 0 -135 -18163.8594 44561.9414)">
			<stop  offset="0" style="stop-color:#696EB5"/>
			<stop  offset="1" style="stop-color:#1C2059"/>
		</linearGradient>
		<path class="st13" d="M216.4,252.9l-0.4-0.2l-102.6-61.1l0.7-1.2l102.2,60.9l223.7-133.3l0.7,1.2L216.4,252.9L216.4,252.9z"/>
		
			<linearGradient id="SVGID_13_" gradientUnits="userSpaceOnUse" x1="55.8289" y1="328.7148" x2="56.8289" y2="328.7148" gradientTransform="matrix(327.38 0 0 -135 -18163.8594 44567.3086)">
			<stop  offset="0" style="stop-color:#696EB5"/>
			<stop  offset="1" style="stop-color:#1C2059"/>
		</linearGradient>
		<path class="st14" d="M216.4,258.3l-0.4-0.2l-102.6-61.1l0.7-1.2l102.2,60.9l223.7-133.3l0.7,1.2L216.4,258.3L216.4,258.3z"/>
		
			<linearGradient id="SVGID_14_" gradientUnits="userSpaceOnUse" x1="55.8289" y1="328.7148" x2="56.8289" y2="328.7148" gradientTransform="matrix(327.38 0 0 -135 -18163.8594 44572.6719)">
			<stop  offset="0" style="stop-color:#696EB5"/>
			<stop  offset="1" style="stop-color:#1C2059"/>
		</linearGradient>
		<path class="st15" d="M216.4,263.7l-0.4-0.2l-102.6-61.1l0.7-1.2L216.4,262l223.7-133.3l0.7,1.2L216.4,263.7L216.4,263.7z"/>
		
			<linearGradient id="SVGID_15_" gradientUnits="userSpaceOnUse" x1="55.8289" y1="328.7148" x2="56.8289" y2="328.7148" gradientTransform="matrix(327.38 0 0 -135.01 -18163.8594 44581.3164)">
			<stop  offset="0" style="stop-color:#696EB5"/>
			<stop  offset="1" style="stop-color:#1C2059"/>
		</linearGradient>
		<path class="st16" d="M216.4,269l-0.4-0.2l-102.6-61.2l0.7-1.2l102.2,60.9L440.1,134l0.7,1.2L216.4,269L216.4,269z"/>
		
			<linearGradient id="SVGID_16_" gradientUnits="userSpaceOnUse" x1="55.8289" y1="328.7148" x2="56.8289" y2="328.7148" gradientTransform="matrix(327.38 0 0 -135 -18163.8594 44583.3984)">
			<stop  offset="0" style="stop-color:#696EB5"/>
			<stop  offset="1" style="stop-color:#1C2059"/>
		</linearGradient>
		<path class="st17" d="M216.4,274.4l-0.4-0.2L113.4,213l0.7-1.2l102.2,60.9l223.7-133.3l0.7,1.2L216.4,274.4L216.4,274.4z"/>
		
			<linearGradient id="SVGID_17_" gradientUnits="userSpaceOnUse" x1="55.8289" y1="328.7148" x2="56.8289" y2="328.7148" gradientTransform="matrix(327.38 0 0 -135 -18163.8594 44588.7617)">
			<stop  offset="0" style="stop-color:#696EB5"/>
			<stop  offset="1" style="stop-color:#1C2059"/>
		</linearGradient>
		<path class="st18" d="M216.4,279.8l-0.4-0.2l-102.6-61.1l0.7-1.2l102.2,60.9l223.7-133.3l0.7,1.2L216.4,279.8L216.4,279.8z"/>
		
			<linearGradient id="SVGID_18_" gradientUnits="userSpaceOnUse" x1="55.8289" y1="328.7148" x2="56.8289" y2="328.7148" gradientTransform="matrix(327.38 0 0 -135 -18163.8594 44594.1289)">
			<stop  offset="0" style="stop-color:#696EB5"/>
			<stop  offset="1" style="stop-color:#1C2059"/>
		</linearGradient>
		<path class="st19" d="M216.4,285.1l-0.4-0.2l-102.6-61.2l0.7-1.2l102.2,60.9l223.7-133.3l0.7,1.2L216.4,285.1L216.4,285.1z"/>
		
			<linearGradient id="SVGID_19_" gradientUnits="userSpaceOnUse" x1="55.8289" y1="328.7148" x2="56.8289" y2="328.7148" gradientTransform="matrix(327.38 0 0 -135 -18163.8594 44599.4883)">
			<stop  offset="0" style="stop-color:#696EB5"/>
			<stop  offset="1" style="stop-color:#1C2059"/>
		</linearGradient>
		<path class="st20" d="M216.4,290.5l-0.4-0.2l-102.6-61.1l0.7-1.2l102.2,60.9l223.7-133.3l0.7,1.2L216.4,290.5L216.4,290.5z"/>
		
			<linearGradient id="SVGID_20_" gradientUnits="userSpaceOnUse" x1="55.1762" y1="328.884" x2="56.1762" y2="328.884" gradientTransform="matrix(67.979 0 0 -75.514 -3478.1277 25027.0703)">
			<stop  offset="1" style="stop-color:#010101;stop-opacity:0"/>
			<stop  offset="1" style="stop-color:#010101;stop-opacity:1.548215e-02"/>
		</linearGradient>
		<path class="st21" d="M274.7,158.3c-2.2,2.7-2.7,6.5-1.2,9.6c1.1,2.1,2.7,4,4.6,5.4c6.7,5.7,14.3,10.2,22.5,13.4
			c1.9,0.7,3.8,1.4,5.1,2.9c1.5,1.8,1.8,4.3,2,6.6l2.5,26.1c0.2,2.4,0.7,5.2,2.8,6.5c2.1,1.2,4.8,0.3,6.3-1.5
			c1.4-1.9,2.2-4.1,2.4-6.5c1.1-9.2-1-19.3,3.9-27.1c1,5.9,2.8,11.6,5.2,17c1.3,3,4.2,6.5,7.2,5.1c2.1-1,2.6-3.7,2.6-6.1
			c0.3-11.8-2.1-23.4-7.1-34.1c-1.1-2.5-2.6-4.9-4.5-6.9c-2.2-1.9-4.8-3.4-7.5-4.5l-13.3-6.1c-3.1-1.6-6.4-2.8-9.7-3.6
			C292.7,153.6,279,153.1,274.7,158.3z"/>
		
			<linearGradient id="SVGID_21_" gradientUnits="userSpaceOnUse" x1="55.8289" y1="328.7148" x2="56.8289" y2="328.7148" gradientTransform="matrix(327.38 0 0 -135 -18163.8594 44604.7188)">
			<stop  offset="0" style="stop-color:#696EB5"/>
			<stop  offset="1" style="stop-color:#1C2059"/>
		</linearGradient>
		<path class="st22" d="M216.4,295.7l-0.4-0.2l-102.6-61.1l0.7-1.2l102.2,60.9l223.7-133.3l0.7,1.2L216.4,295.7L216.4,295.7z"/>
		
			<linearGradient id="SVGID_22_" gradientUnits="userSpaceOnUse" x1="55.8289" y1="328.7148" x2="56.8289" y2="328.7148" gradientTransform="matrix(327.38 0 0 -135 -18163.8594 44609.9492)">
			<stop  offset="0" style="stop-color:#696EB5"/>
			<stop  offset="1" style="stop-color:#1C2059"/>
		</linearGradient>
		<path class="st23" d="M216.4,301l-0.4-0.2l-102.6-61.1l0.7-1.2l102.2,60.9l223.7-133.3l0.7,1.2L216.4,301L216.4,301z"/>
		<path class="st24" d="M279,136.8l10.5,6.6c0,0,5.1-3.2,3.5-5.4C291.3,135.9,282.7,134.5,279,136.8z"/>
		<defs>
			<filter id="Adobe_OpacityMaskFilter" filterUnits="userSpaceOnUse" x="268.1" y="129.9" width="30.8" height="20.2">
				<feColorMatrix  type="matrix" values="1 0 0 0 0  0 1 0 0 0  0 0 1 0 0  0 0 0 1 0"/>
			</filter>
		</defs>
		
			<mask maskUnits="userSpaceOnUse" x="268.1" y="129.9" width="30.8" height="20.2" id="_mask_hp8ladwAAAX9yUYrF0JdFu5YY83Erzpf_1_">
			<rect x="-1023.8" y="-717.7" class="st25" width="2047.5" height="1435.4"/>
			<path d="M279,136.8l10.5,6.6c0,0,5.1-3.2,3.5-5.4C291.3,135.9,282.7,134.5,279,136.8z"/>
		</mask>
		<path vector-effect="non-scaling-stroke" class="st26" d="M279,136.8l10.5,6.6c0,0,5.1-3.2,3.5-5.4
			C291.3,135.9,282.7,134.5,279,136.8z"/>
		<path class="st27" d="M288.3,170.9c4.5,4.9,10.6,8.1,16.9,10.1c2.9,0.9,6.1,1.9,7.5,4.6c0.6,1.5,0.9,3,0.8,4.6
			c0.1,7.9-0.1,15.7-0.8,23.5c-0.4,5-0.8,10.6,2.8,14.1c1.6,1.4,3.5,2.5,5.5,3.1l6,2.5c1.4,0.6,3,1.1,4.2,0.2c1.2-0.9,1-2.9,0.2-4.2
			c-1-1.2-2-2.3-3.1-3.3c-3.1-3.5-2.7-8.8-2.3-13.4c0.6-6.5,0.9-13,1.1-19.5c0.1-7.5-0.3-15.7-5.4-21.1c-2.8-3-6.7-4.7-9.7-7.4
			c-2.9-2.7-4.8-6.2-7.6-8.9c-4.8-4.6-19-15.1-21.4-8.6C278.1,160.1,284.6,166.9,288.3,170.9z"/>
		<path class="st27" d="M334,160.7c3.1,1.9,6.3,4,8,7.1c1.5,2.7,1.8,5.9,2.1,9c0.6,8.1,0.7,16.3,0.5,24.4c-0.1,4.3-0.2,9.1,2.5,12.5
			c1.7,2,4.4,3.9,3.8,6.4c-0.5,2.3-3.5,3-5.8,2.9c-3,0.1-5.9-0.9-8.4-2.6c-4-3.2-4.6-9-4.9-14.1l-1.1-19c-0.2-3.2-0.5-6.6-2.5-9.1
			c-1.4-1.5-3.1-2.6-4.9-3.3c-7.7-3.5-16.6-5.9-21.4-12.9c-2.2-3.3-3.1-7.9-0.7-11C309,141.2,327.6,156.7,334,160.7z"/>
		<path class="st11" d="M326.7,137.7c-0.3,1.4-0.7,2.7-1.2,4c-0.2,0.4-0.4,0.7-0.6,1c-0.3,0.2-0.5,0.3-0.8,0.3
			c-4.3,1.1-8.9-1.2-11.6-4.7c0,0.4,0,0.8,0,1.1c0,1.3-0.1,2.7-0.4,4c-0.8,3.2-3.3,5.7-5.7,8c-0.8,0.8-1.8,1.5-2.8,2.1
			c-1.1,0.4-2.2,0.6-3.3,0.6c-2.5,0.1-4.9,0.2-7.4,0.2c-2.4,0.1-4.8-0.2-7.1-1c-3.3-1.5-5.9-4.2-7.3-7.5c-1.4-3.3-2.3-6.8-2.9-10.3
			c-0.4-2.1-0.7-4.2-0.8-6.4c0-1.9,0.3-3.7,0.7-5.5c0.6-2.9,1.5-5.8,2.6-8.6c1.5-3.8,2.7-12.5,6.5-14.7c4.9-2.8,10.6-3.9,16.1-3.1
			c1.7,0.2,14,4,15.4,6.6c2.3,4.3,3.8,10.8,4.2,15.6c0,2.4,0.3,4.8,0.8,7.1c0.9,2.6,2.3,5,4.2,6.9c0.7,0.6,1.2,1.4,1.5,2.3
			C326.9,136.4,326.8,137.1,326.7,137.7z"/>
		
			<linearGradient id="SVGID_23_" gradientUnits="userSpaceOnUse" x1="54.6167" y1="329.0442" x2="55.1121" y2="329.9128" gradientTransform="matrix(31.339 0 0 -37.451 -1419.793 12461.4189)">
			<stop  offset="0" style="stop-color:#010101;stop-opacity:0"/>
			<stop  offset="1" style="stop-color:#000000"/>
		</linearGradient>
		<path class="st28" d="M310.5,141.4c0-1.1-0.3-2.2-0.8-3.1c-0.5-1-1.6-1.5-2.7-1.5c-2.1,0.2-2.8,3.2-4.7,4.2
			c-1.4,0.8-3.1,0.3-4.6-0.2c-2.7-1-5.3-2.2-7.8-3.7c-0.5-0.3-0.9-0.6-1.2-1.1c-0.3-0.5-0.4-1-0.4-1.6c-0.4-5.9,0.7-11.9,0.1-17.8
			c0-1.8-0.7-3.5-1.8-4.9c-0.3-0.3-0.7-0.6-1.2-0.6c-0.5,0.1-0.9,0.4-1.2,0.8c-2.7,3.3-4.4,7.3-4.8,11.5c-0.4,4.2-0.4,8.4,0.2,12.6
			c0.1,1.6,0.4,3.2,0.8,4.7c1,2.6,2.9,4.8,5.4,6.2c2.5,1.3,5.3,1.8,8.1,1.5c1.7-0.3,3.3-0.5,5-0.5c0.9,0,1.8,0.2,2.7,0.2
			c1-0.1,2-0.3,2.9-0.7C308.2,146.2,310.5,145.8,310.5,141.4z"/>
		<path class="st11" d="M279.4,103.1c-0.9,1.2-1.7,2.5-2.2,3.9c-3.6,8.7-5.2,18.1-6.9,27.3c-0.7,3.9-1.3,8.3,1,11.6
			c1.4,1.7,3.1,3,5.1,3.7c5,2.3,10.6,3.3,16.1,3c1.4-3,2.2-6.1,2.5-9.4l-7.1-3.4c-0.9-0.2-1.6-0.7-2-1.5c-0.4-0.8-0.5-1.7-0.3-2.5
			l2.6-25.7c0.1-1.2,0.3-2.3,0.7-3.4c1.3-3,4.7-6.2-0.3-6.9C285.2,99.5,281.9,100.7,279.4,103.1L279.4,103.1z"/>
		
			<linearGradient id="SVGID_24_" gradientUnits="userSpaceOnUse" x1="49.2724" y1="330.4669" x2="50.2725" y2="330.4669" gradientTransform="matrix(8.324 0 0 -14.744 -93.528 5017.3843)">
			<stop  offset="0" style="stop-color:#E5C6D6"/>
			<stop  offset="0.42" style="stop-color:#EAD4D0"/>
			<stop  offset="1" style="stop-color:#F0E9CB"/>
		</linearGradient>
		<path class="st29" d="M317.9,142.4c-0.5,0.6-1.4,1.1-1.3,1.9c0.1,0.6,0.6,1,0.9,1.5c0.5,1,0.8,2.2,0.7,3.3c0,1.2,0.5,2.3,1.4,3
			c1,0.5,2.2,0.3,3.1-0.5c0.8-0.8,1.3-1.8,1.5-2.9c0.6-2.1,0.8-4.2,0.7-6.4c0-1.2-0.4-2.4-1.1-3.3
			C320.5,135.1,319.4,140.7,317.9,142.4z"/>
		<path class="st30" d="M311.8,135.5c0-0.3,0.2-0.6,0.4-0.9c0.3-0.2,0.6-0.4,1-0.4c3.1-0.6,6.2-0.8,9.3-0.5
			c-0.1,4.4-1.1,8.8-2.7,12.9c-0.4,1.3-1.1,2.4-2.1,3.3c-1.4,1-3.1,0.9-4.8,0.8c-0.8,0-1.5-0.2-2.2-0.6c-1.6-1.3-0.6-4.7-0.5-6.5
			C310.5,140.9,311.1,138.2,311.8,135.5L311.8,135.5z"/>
		
			<linearGradient id="SVGID_25_" gradientUnits="userSpaceOnUse" x1="50.6565" y1="330.0484" x2="51.6565" y2="330.0484" gradientTransform="matrix(10.48 0 0 -18.729 -236.079 6278.1172)">
			<stop  offset="1" style="stop-color:#E5C6D6"/>
			<stop  offset="1" style="stop-color:#E6C9D5"/>
			<stop  offset="1" style="stop-color:#EBD6D0"/>
		</linearGradient>
		<path class="st31" d="M295.4,100.3c1.3,0.7,5.2,5.5,6.6,5.6c1.5,0.1,2.9-0.9,3.2-2.3c0-0.7-0.1-1.4-0.3-2.1
			c-0.6-2.9,0.8-6.1-0.3-8.9c-0.6-1.5-1.8-2.6-3.3-3c-1.5-0.4-6-3.6-6.2-2C294.6,91.5,294.6,99.9,295.4,100.3z"/>
		
			<linearGradient id="SVGID_26_" gradientUnits="userSpaceOnUse" x1="50.7114" y1="330.9777" x2="51.1495" y2="331.8766" gradientTransform="matrix(9.87 0 0 -10.88 -201.21 3697.6001)">
			<stop  offset="0" style="stop-color:#010101;stop-opacity:0.454"/>
			<stop  offset="1" style="stop-color:#010101;stop-opacity:3.696038e-02"/>
		</linearGradient>
		<path class="st32" d="M295.5,89.1c0,0,1.3,8.4,5.5,10.8l3.9,0.1l0.5-5.6L295.5,89.1z"/>
		
			<linearGradient id="SVGID_27_" gradientUnits="userSpaceOnUse" x1="53.0378" y1="329.6806" x2="54.0378" y2="329.6806" gradientTransform="matrix(18.905 0 0 -24.563 -707.791 8182.9961)">
			<stop  offset="1" style="stop-color:#E5C6D6"/>
			<stop  offset="1" style="stop-color:#E6C8D5"/>
			<stop  offset="1" style="stop-color:#EAD5D0"/>
		</linearGradient>
		<path class="st33" d="M296.7,80.8c-1.2,1.6-1.9,3.5-1.8,5.5c0,2,0.4,3.9,1.2,5.8c0.5,1.7,1.5,3.1,2.9,4.2c1.1,0.6,2.4,1,3.7,1
			c1.6,0.2,3.1,0,4.5-0.7c1.2-0.8,2.2-1.8,2.9-3.1c1-1.6,1.8-3.3,2.5-5c1-2.4,1.4-4.9,1.2-7.4c-0.2-2.6-1.4-4.9-3.5-6.5
			c-1.1-0.7-2.3-1.2-3.6-1.4c-1.3-0.4-2.7-0.4-4-0.2c-2,0.5-3.7,1.8-4.8,3.6c-1,1.8-1.8,3.7-2.2,5.7"/>
		<path class="st34" d="M315.4,81.8c-1.4,0.8-3,1-4.5,0.6c-1.5-0.3-3-1-4.5-1.1c-1.6-0.3-3.2,0.2-4.2,1.4c-0.7,0.9-1,2.3-2.1,2.7
			c-0.2,0.1-0.4,0.1-0.6,0c-0.4-0.3-0.2-0.9-0.1-1.4c0.2-1.2-1.4-2.6-2.6-2.3s-1.8,3.1-1.7,5c-0.6-1.9-1.1-3.9-1.4-5.9
			c0-2.4,0.5-4.7,1.4-6.9c1-2.2,2.8-3.9,5-4.8c1.7-0.5,3.5-0.7,5.3-0.6c2.1-0.1,4.3,0.1,6.4,0.7C315.7,70.2,319.8,78.7,315.4,81.8z"
			/>
		
			<linearGradient id="SVGID_28_" gradientUnits="userSpaceOnUse" x1="53.658" y1="330.7786" x2="54.658" y2="330.7786" gradientTransform="matrix(23.911 0 0 -12.727 -991.9579 4360.9941)">
			<stop  offset="1" style="stop-color:#E5C6D6"/>
			<stop  offset="1" style="stop-color:#E5C7D5"/>
			<stop  offset="1" style="stop-color:#EAD5D0"/>
		</linearGradient>
		<path class="st35" d="M303.2,147.3c0.5,0,1.1,0,1.6-0.2c0.5-0.3,1-0.7,1.5-1.2c1.3-1,3.1-1.1,4.7-1.1c0.3,0,0.7,0,1,0.1
			c1,0.5,0.7,1.9,1,3c0.4,0.8,0.9,1.6,1.5,2.3c1,2,0.4,4.4-1.3,5.7c-1.7,1.3-3.9,1.8-6,1.4c-2.1-0.4-4.1-1.1-6-2.1l-6.1-2.8
			c-1.4-0.6-3.2-1.5-3.8-3.1c-0.5-1.3,0-2.7,1.3-3.3c1.3-0.5,3,0.1,4.2,0.3C298.9,147,301.1,147.2,303.2,147.3L303.2,147.3z"/>
		
			<linearGradient id="SVGID_29_" gradientUnits="userSpaceOnUse" x1="19.2347" y1="336.4798" x2="20.2081" y2="336.7087" gradientTransform="matrix(1.522 0 0 -3.58 267.012 1290.02)">
			<stop  offset="1" style="stop-color:#010101;stop-opacity:0"/>
			<stop  offset="1" style="stop-color:#010101;stop-opacity:0.2105"/>
		</linearGradient>
		<path class="st36" d="M297.3,85c0-0.3,0.2-0.5,0.3-0.8c0-0.4-0.1-0.7-0.5-0.9c0,0-0.1-0.1-0.1-0.1c-0.1,0-0.1,0.1-0.2,0.2
			c-0.2,0.4-0.4,0.9-0.5,1.4c-0.1,0.5-0.1,1,0.1,1.5c0.1,0.3,0.3,0.5,0.6,0.5c0.3,0,0.5-0.2,0.6-0.5c0.2-0.2,0.2-0.5,0.1-0.8
			C297.5,85.3,297.2,85.3,297.3,85z"/>
		<g class="st37">
			<g class="st37">
				<path class="st1" d="M357.9,118.6v-3.8c-5-0.4-7.9-3.3-8.3-7.3h3.7c0.4,2.3,2.3,4.1,4.6,4.4v-10c-5.5-1.7-7.6-3.7-7.6-7.6
					c0-4.2,3.2-6.9,7.6-7.2v-2.8h2.4v2.8c5.5,0.5,7.3,4.1,7.5,6.7h-3.5c-0.4-2-2-3.5-4-3.8v9c6.3,1.8,8.2,4.5,8.2,8.2
					c0,4.6-3.1,7.3-8.2,7.7v3.8L357.9,118.6z M357.9,98.3v-8.4c-3,0.2-4.1,2-4.1,4S354.8,97.2,357.9,98.3z M360.2,102.6v9.3
					c2.9-0.3,4.4-1.7,4.4-4.4C364.6,105.3,363.6,103.8,360.2,102.6L360.2,102.6z"/>
			</g>
		</g>
		<path class="st11" d="M359,118.3v-3.8c-5-0.4-7.9-3.3-8.3-7.3h3.6c0.4,2.3,2.3,4.1,4.6,4.4v-10c-5.5-1.6-7.6-3.7-7.6-7.6
			c0-4.2,3.2-6.9,7.6-7.2V84h2.4v2.8c5.5,0.5,7.3,4.1,7.5,6.7h-3.6c-0.4-2-2-3.5-4-3.8v9c6.3,1.8,8.2,4.5,8.2,8.1
			c0,4.6-3.1,7.3-8.2,7.7v3.8L359,118.3z M359,98v-8.4c-3,0.2-4,2-4,4S355.9,96.9,359,98z M361.4,102.3v9.3c2.9-0.3,4.4-1.7,4.4-4.4
			C365.7,105.1,364.8,103.5,361.4,102.3z"/>
	</g>
</g>
</svg>
