<?xml version="1.0" encoding="UTF-8" standalone="no"?><!-- Generator: Gravit.io --><svg xmlns="http://www.w3.org/2000/svg" xmlns:xlink="http://www.w3.org/1999/xlink" style="isolation:isolate" viewBox="0 0 400 300" width="400pt" height="300pt"><defs><clipPath id="_clipPath_fN6b4txtqsAMAvWLgsszuxmxuaaqukOq"><rect width="400" height="300"/></clipPath></defs><g clip-path="url(#_clipPath_fN6b4txtqsAMAvWLgsszuxmxuaaqukOq)"><g><path d=" M 154 100 L 306 100 L 306 228 L 154 228 L 154 100 Z " fill="rgb(234,234,232)"/><path d=" M 226 148 L 306 148 L 306 204 L 226 204 L 226 148 Z " fill="rgb(203,203,203)"/><path d=" M 214 96 L 246 96 L 246 116 C 246 124.837 238.837 132 230 132 C 221.163 132 214 124.837 214 116 L 214 96 Z " fill="rgb(229,119,10)"/><path d=" M 182 96 L 214 96 L 214 116 C 214 124.837 206.837 132 198 132 C 189.163 132 182 124.837 182 116 L 182 96 Z " fill="rgb(203,203,203)"/><path d=" M 278 96 L 310 96 L 310 116 C 310 124.837 302.837 132 294 132 C 285.163 132 278 124.837 278 116 L 278 96 Z " fill="rgb(229,119,10)"/><path d=" M 246 96 L 278 96 L 278 116 C 278 124.837 270.837 132 262 132 C 253.163 132 246 124.837 246 116 L 246 96 Z " fill="rgb(203,203,203)"/><path d=" M 150 96 L 182 96 L 182 116 C 182 124.837 174.837 132 166 132 C 157.163 132 150 124.837 150 116 L 150 96 Z " fill="rgb(229,119,10)"/><path d=" M 310 100 L 150 100 L 150 80 L 162 76 L 302 76 L 310 80 L 310 100 Z " fill="rgb(251,181,64)"/><path d=" M 310 80 L 150 80 L 158 64 L 166 60 L 294 60 L 302 64 L 310 80 Z " fill="rgb(229,119,10)"/><path d=" M 210 212 L 170 212 L 170 168 C 170 156.954 178.954 148 190 148 C 201.046 148 210 156.954 210 168 L 210 212 Z " fill="rgb(99,104,155)"/><path d=" M 226 148 L 302 148 L 302 200 L 226 200 L 226 148 Z " fill="rgb(253,254,251)"/><path d=" M 166 212 L 214 212 L 214 228 L 166 228 L 166 212 Z " fill="rgb(203,203,203)"/><path d=" M 166 220 L 214 220 L 214 228 L 166 228 L 166 220 Z " fill="rgb(168,168,168)"/><path d=" M 314 248 L 150.346 248 C 143.579 248.003 137.779 243.163 136.572 236.505 L 124.006 167.39 C 123.229 163.109 119.5 159.998 115.15 160 L 110 160 C 107.791 160 106 158.209 106 156 C 106 153.791 107.791 152 110 152 L 115.15 152 C 123.367 151.997 130.409 157.874 131.876 165.959 L 144.442 235.073 C 144.961 237.926 147.446 240 150.346 240 L 314 240 C 316.209 240 318 241.791 318 244 C 318 246.209 316.209 248 314 248 Z " fill="rgb(40,43,78)"/><circle vector-effect="non-scaling-stroke" cx="178.00000000000003" cy="252.00000000000006" r="12" fill="rgb(234,234,232)"/><circle vector-effect="non-scaling-stroke" cx="290" cy="252.00000000000006" r="12" fill="rgb(234,234,232)"/><path d=" M 178 268 C 169.163 268 162 260.837 162 252 C 162 243.163 169.163 236 178 236 C 186.837 236 194 243.163 194 252 C 193.99 260.832 186.832 267.99 178 268 L 178 268 Z  M 178 244 C 173.582 244 170 247.582 170 252 C 170 256.418 173.582 260 178 260 C 182.418 260 186 256.418 186 252 C 185.995 247.584 182.416 244.005 178 244 L 178 244 Z " fill="rgb(168,168,168)"/><path d=" M 290 268 C 281.163 268 274 260.837 274 252 C 274 243.163 281.163 236 290 236 C 298.837 236 306 243.163 306 252 C 305.99 260.832 298.832 267.99 290 268 L 290 268 Z  M 290 244 C 285.582 244 282 247.582 282 252 C 282 256.418 285.582 260 290 260 C 294.418 260 298 256.418 298 252 C 297.995 247.584 294.416 244.005 290 244 L 290 244 Z " fill="rgb(168,168,168)"/><path d=" M 110 164 L 94 164 C 89.582 164 86 160.418 86 156 C 86 151.582 89.582 148 94 148 L 110 148 L 110 164 Z " fill="rgb(99,104,155)"/><path d=" M 154 32 L 306 32 L 306 64 L 154 64 L 154 32 Z " fill="rgb(40,43,78)"/><path d=" M 134 112 L 86 112 C 83.791 112 82 110.209 82 108 C 82 105.791 83.791 104 86 104 L 134 104 C 136.209 104 138 105.791 138 108 C 138 110.209 136.209 112 134 112 Z " fill="rgb(99,104,155)"/><path d=" M 134 92 L 90 92 C 87.791 92 86 90.209 86 88 C 86 85.791 87.791 84 90 84 L 134 84 C 136.209 84 138 85.791 138 88 C 138 90.209 136.209 92 134 92 Z " fill="rgb(99,104,155)"/><path d=" M 134 128 L 118 128 C 115.791 128 114 126.209 114 124 C 114 121.791 115.791 120 118 120 L 134 120 C 136.209 120 138 121.791 138 124 C 138 126.209 136.209 128 134 128 Z " fill="rgb(99,104,155)"/><path d=" M 106 128 L 98 128 C 95.791 128 94 126.209 94 124 C 94 121.791 95.791 120 98 120 L 106 120 C 108.209 120 110 121.791 110 124 C 110 126.209 108.209 128 106 128 Z " fill="rgb(99,104,155)"/><path d=" M 254 164 L 278 164 L 278 188 L 254 188 L 254 164 Z " fill="rgb(234,157,45)"/><path d=" M 270 164 L 270 172 C 270 174.209 268.209 176 266 176 C 263.791 176 262 174.209 262 172 L 262 164 L 270 164 Z " fill="rgb(195,131,37)"/><path d=" M 290 52 L 170 52 C 167.791 52 166 50.209 166 48 C 166 45.791 167.791 44 170 44 L 290 44 C 292.209 44 294 45.791 294 48 C 294 50.209 292.209 52 290 52 Z " fill="rgb(99,104,155)"/></g></g></svg>