<svg width="66" height="87" viewBox="0 0 66 87" fill="none" xmlns="http://www.w3.org/2000/svg">
<path d="M65.3409 10.5028C65.3409 5.11266 61.018 0.72508 55.6278 0.638838L10.5392 0.557983C5.08437 0.557983 0.659058 4.9833 0.659058 10.4381V76.9149C0.659058 82.3751 5.08437 86.8004 10.5392 86.8004H55.4554C60.9156 86.8004 65.3409 82.3751 65.3409 76.9203V10.5028ZM21.7885 33.7991H19.0557C14.8567 33.7991 11.4394 30.3817 11.4394 26.1828C11.4394 22.4043 14.1614 19.2995 17.7297 18.6635V15.8337C17.7297 14.346 18.9371 13.1386 20.4247 13.1386C21.9124 13.1386 23.1198 14.346 23.1198 15.8337V18.5288H26.7151C28.2027 18.5288 29.4101 19.7361 29.4101 21.2238C29.4101 22.7115 28.2027 23.9189 26.7151 23.9189H19.061C17.8321 23.9189 16.8349 24.9215 16.8349 26.145C16.8349 27.4063 17.8375 28.4089 19.061 28.4089H21.7938C25.9928 28.4089 29.4101 31.8263 29.4101 36.0252C29.4101 39.8037 26.6881 42.9084 23.1198 43.5445V46.3743C23.1198 47.862 21.9124 49.0694 20.4247 49.0694C18.9371 49.0694 17.7297 47.862 17.7297 46.3743V43.6792H14.1344C12.6468 43.6792 11.4394 42.4718 11.4394 40.9841C11.4394 39.4965 12.6468 38.2891 14.1344 38.2891H21.7885C23.0174 38.2891 24.0146 37.2865 24.0146 36.0629C24.0146 34.7962 23.0174 33.7991 21.7885 33.7991ZM51.8655 76.0201H14.1344C12.6468 76.0201 11.4394 74.8127 11.4394 73.3251C11.4394 71.8374 12.6468 70.63 14.1344 70.63H51.8655C53.3532 70.63 54.5606 71.8374 54.5606 73.3251C54.5606 74.8127 53.3532 76.0201 51.8655 76.0201ZM51.8655 61.6446H14.1344C12.6468 61.6446 11.4394 60.4372 11.4394 58.9495C11.4394 57.4618 12.6468 56.2544 14.1344 56.2544H51.8655C53.3532 56.2544 54.5606 57.4618 54.5606 58.9495C54.5606 60.4372 53.3532 61.6446 51.8655 61.6446ZM51.8655 47.2744H39.2903C37.8026 47.2744 36.5952 46.067 36.5952 44.5794C36.5952 43.0917 37.8026 41.8843 39.2903 41.8843H51.8655C53.3532 41.8843 54.5606 43.0917 54.5606 44.5794C54.5606 46.067 53.3532 47.2744 51.8655 47.2744ZM54.5606 30.2038C54.5606 31.6915 53.3532 32.8989 51.8655 32.8989H39.2903C37.8026 32.8989 36.5952 31.6915 36.5952 30.2038C36.5952 28.7161 37.8026 27.5088 39.2903 27.5088H51.8655C53.3532 27.5088 54.5606 28.7161 54.5606 30.2038Z" fill="#A91F23"/>
</svg>
