<?xml version="1.0" encoding="utf-8"?>
<!-- Generator: Adobe Illustrator 24.0.1, SVG Export Plug-In . SVG Version: 6.00 Build 0)  -->
<svg version="1.1" id="Layer_1" xmlns="http://www.w3.org/2000/svg" xmlns:xlink="http://www.w3.org/1999/xlink" x="0px" y="0px"
	 viewBox="0 0 400 300" style="enable-background:new 0 0 400 300;" xml:space="preserve">
<style type="text/css">
	.st0{clip-path:url(#SVGID_2_);}
	.st1{fill:url(#SVGID_3_);}
	.st2{fill:#282B4E;}
	.st3{opacity:0.58;}
	.st4{fill:url(#SVGID_4_);}
	.st5{fill:url(#SVGID_5_);}
	.st6{fill:#20233F;}
	.st7{fill:#FDB523;}
	.st8{fill:#EFA92B;}
	.st9{font-family:'RobotoMonoForPowerline-Bold';}
	.st10{font-size:12.7708px;}
	.st11{opacity:0.38;}
	.st12{fill:url(#SVGID_6_);}
	.st13{fill:url(#SVGID_7_);}
	.st14{fill:#656995;}
</style>
<g>
	<defs>
		<rect id="SVGID_1_" width="400" height="300"/>
	</defs>
	<clipPath id="SVGID_2_">
		<use xlink:href="#SVGID_1_"  style="overflow:visible;"/>
	</clipPath>
	<g class="st0">
		<linearGradient id="SVGID_3_" gradientUnits="userSpaceOnUse" x1="30" y1="178.5176" x2="370.0001" y2="178.5176">
			<stop  offset="0" style="stop-color:#F5524E"/>
			<stop  offset="1" style="stop-color:#D0342F"/>
		</linearGradient>
		<path class="st1" d="M36.7,165.3l149.1-84.9c7.4-4.2,16.5-4.2,23.9,0.1l153.6,89.5c4.1,2.4,6.6,6.8,6.6,11.5
			c0,4.7-2.6,9.1-6.7,11.5l-143.4,82.4c-9.9,5.7-22.1,5.7-31.9,0l-151.3-87c-4.1-2.4-6.7-6.8-6.7-11.6S32.6,167.7,36.7,165.3z"/>
		<path class="st2" d="M383.6,175.3l-104.7,61c-6.1,3.6-16.2,3.6-22.4,0L80.5,135.6c-6.2-3.6-6.3-9.4-0.2-12.9l104.7-61
			c6.1-3.6,16.2-3.6,22.4,0l175.9,100.7C389.6,166,389.7,171.7,383.6,175.3z"/>
		<path class="st2" d="M388.4,168.8l-104.7,61c-6.1,3.6-16.2,3.6-22.4,0L85.3,129c-6.2-3.6-6.3-9.4-0.2-12.9l104.8-61
			c6.1-3.6,16.2-3.6,22.4,0l175.9,100.7C394.5,159.5,394.5,165.2,388.4,168.8z"/>
		<path class="st2" d="M384.6,171l-104.7,61c-6.1,3.6-16.2,3.6-22.4,0L81.5,131.2c-6.2-3.6-6.3-9.4-0.2-12.9l104.7-61
			c6.1-3.6,16.2-3.6,22.4,0l175.9,100.7C390.7,161.7,390.7,167.5,384.6,171z"/>
		<g class="st3">
			
				<linearGradient id="SVGID_4_" gradientUnits="userSpaceOnUse" x1="9.096906e-02" y1="299.261" x2="1.0466" y2="299.8195" gradientTransform="matrix(312.349 0 0 -179.983 76.796 54049.5898)">
				<stop  offset="0.1591" style="stop-color:#000000"/>
				<stop  offset="0.2754" style="stop-color:#000000"/>
				<stop  offset="1" style="stop-color:#000000"/>
			</linearGradient>
			<path class="st4" d="M384.6,171l-104.7,61c-0.8,0.4-1.6,0.8-2.4,1.2c-6.1,2.4-14.5,2-20-1.1L81.5,131.3
				c-6.2-3.6-6.3-9.3-0.2-12.9l48-27.9l56.7-33c6.1-3.6,16.2-3.6,22.4,0l175.9,100.7C390.7,161.7,390.7,167.5,384.6,171z"/>
		</g>
		<g class="st3">
			
				<linearGradient id="SVGID_5_" gradientUnits="userSpaceOnUse" x1="0.3034" y1="299.2581" x2="0.9268" y2="300.0401" gradientTransform="matrix(233.123 0 0 -133.11 144.213 39995.0898)">
				<stop  offset="0" style="stop-color:#000000"/>
				<stop  offset="0.25" style="stop-color:#282B4E"/>
				<stop  offset="1" style="stop-color:#282B4E"/>
			</linearGradient>
			<path class="st5" d="M178.2,62.1l199.1,112.5L342,195.2L144.2,81.4L178.2,62.1L178.2,62.1z"/>
		</g>
		<g class="st3">
			<path class="st6" d="M325.4,205.2l-48,27.9c-6.1,2.4-14.5,2-20-1.1L81.5,131.3c-6.2-3.6-6.3-9.3-0.2-12.9l48-27.9
				c6.1-2.4,14.5-2,20,1.1l175.9,100.7C331.4,195.9,331.5,201.6,325.4,205.2z"/>
		</g>
		<path class="st7" d="M212.3,103.1l-22.5,13.1c-3.4,2-9,2-12.4,0l-27.6-15.8c-3.5-2-3.5-5.2-0.1-7.2l22.5-13.1c3.4-2,9-2,12.4,0
			l27.6,15.8C215.6,97.9,215.7,101.1,212.3,103.1z"/>
		<path class="st8" d="M197.7,111.4l-3.7,2.1l-11.5-6.6c-1.9,0.7-4.1,1-6.1,0.6l-0.6-0.1l-0.4-0.2c-1-0.5-9.5-5.1-11.5-6.6
			c-2.1-1.5-1-3.7,0-5.1l-9.2-5.2l3.7-2.1l11.9,6.8l-1,1c-1.1,1.1-1.6,2.5-1.3,2.8c1.2,0.9,6.6,3.9,10.2,5.9
			c0.8-0.1,1.5-0.3,2.2-0.8l1.8-1.3L197.7,111.4z"/>
		<path class="st8" d="M204.6,107.4l3.7-2.1l-11.5-6.6c1.6-1.4,1.5-2.8,1-3.5l-0.2-0.3l-0.4-0.2c-0.9-0.6-9-5.4-11.5-6.6
			c-2.6-1.2-6.5-0.5-8.8,0l-9.2-5.2l-3.7,2.1l11.9,6.8l1.7-0.6c1.9-0.6,4.3-1,4.9-0.8c1.5,0.7,6.7,3.7,10.2,5.9
			c-0.1,0.3-0.3,0.7-1.4,1.3l-2.2,1.1L204.6,107.4z"/>
		<path class="st8" d="M201.8,109.2l-0.8,0.5l-40-22.9l0.8-0.5L201.8,109.2L201.8,109.2z"/>
		<path class="st8" d="M189.5,116.3l-0.8,0.4l-40-22.9l0.8-0.5L189.5,116.3L189.5,116.3z"/>
		<path class="st8" d="M214,102.1l-0.8,0.5l-40-22.9l0.8-0.5L214,102.1L214,102.1z"/>
		<text transform="matrix(0.8849 0.5024 -0.8647 0.5024 218.9352 115.1987)" class="st2 st9 st10">CREDIT CARD</text>
		<path class="st2" d="M186.1,167.4l-85.9-49.6c-1.9-1.1-1.7-3,0.5-4.3l0,0c2.2-1.3,5.5-1.4,7.4-0.3l85.9,49.6
			c1.9,1.1,1.7,3-0.5,4.3l0,0C191.4,168.3,188,168.5,186.1,167.4z"/>
		<path class="st2" d="M314.8,171.4l-104.7,61c-6.1,3.6-16.2,3.6-22.4,0L11.8,131.6c-6.2-3.6-6.3-9.4-0.2-12.9l104.7-61
			c6.1-3.6,16.2-3.6,22.4,0l175.9,100.7C320.9,162,320.9,167.8,314.8,171.4z"/>
		<path class="st2" d="M315.8,167.1l-104.7,61c-6.1,3.6-16.2,3.6-22.4,0L12.8,127.3c-6.2-3.6-6.3-9.4-0.2-12.9l104.7-61
			c6.1-3.6,16.2-3.6,22.4,0l175.9,100.7C321.9,157.7,321.9,163.5,315.8,167.1z"/>
		<g class="st11">
			
				<linearGradient id="SVGID_6_" gradientUnits="userSpaceOnUse" x1="1.366628e-02" y1="299.4185" x2="0.9999" y2="299.5838" gradientTransform="matrix(312.343 0 0 -179.983 8.022 54045.6562)">
				<stop  offset="1" style="stop-color:#000000"/>
				<stop  offset="1" style="stop-color:#000000"/>
				<stop  offset="1" style="stop-color:#000000"/>
			</linearGradient>
			<path class="st12" d="M315.8,167.1l-104.7,61c-0.8,0.5-1.6,0.8-2.4,1.2c-6.1,2.4-14.5,2-20-1.1L12.7,127.3
				c-6.2-3.6-6.3-9.4-0.2-12.9l48-27.9l56.8-33c6.1-3.6,16.2-3.6,22.4,0l175.9,100.7C321.9,157.7,321.9,163.5,315.8,167.1z"/>
		</g>
		<g class="st3">
			
				<linearGradient id="SVGID_7_" gradientUnits="userSpaceOnUse" x1="1.561494e-02" y1="299.413" x2="0.9999" y2="299.5898" gradientTransform="matrix(253.145 0 0 -145.788 8.022 43821.3477)">
				<stop  offset="1" style="stop-color:#282B4E;stop-opacity:0.85"/>
				<stop  offset="1" style="stop-color:#000000"/>
				<stop  offset="1" style="stop-color:#000000"/>
			</linearGradient>
			<path class="st13" d="M256.6,201.3l-48,27.9c-6.1,2.4-14.5,2-20-1.1L12.7,127.3c-6.2-3.6-6.3-9.4-0.2-12.9l48-27.9
				c6.1-2.4,14.5-2,20,1.1l175.9,100.7C262.7,191.9,262.7,197.7,256.6,201.3z"/>
		</g>
		<path class="st7" d="M143.5,99.1L121,112.3c-3.4,2-9,2-12.4,0L80.9,96.4c-3.5-2-3.5-5.2-0.1-7.2l22.5-13.1c3.4-2,9-2,12.4,0
			L143.4,92C146.9,93.9,146.9,97.2,143.5,99.1z"/>
		<path class="st8" d="M128.9,107.5l-3.7,2.2l-11.5-6.6c-1.9,0.7-4.1,1-6.1,0.6l-0.6-0.1l-0.4-0.2c-1-0.5-9.5-5.1-11.5-6.6
			c-2.1-1.5-1-3.7,0-5.1L86,86.4l3.7-2.1l11.9,6.8l-1,1c-1.1,1.1-1.6,2.5-1.3,2.8c1.2,0.9,6.6,3.9,10.2,5.9c0.8-0.1,1.5-0.4,2.2-0.8
			l1.8-1.3L128.9,107.5z"/>
		<path class="st8" d="M135.8,103.4l3.7-2.1L128,94.7c1.6-1.4,1.5-2.8,1-3.5l-0.2-0.3l-0.4-0.2c-0.9-0.6-9-5.4-11.5-6.6
			c-2.6-1.2-6.5-0.5-8.8,0l-9.2-5.2L95.2,81l11.9,6.8l1.7-0.6c1.9-0.6,4.3-0.9,4.9-0.8c1.5,0.7,6.7,3.7,10.2,5.9
			c-0.1,0.3-0.3,0.7-1.4,1.3l-2.2,1.1L135.8,103.4z"/>
		<path class="st8" d="M133,105.2l-0.8,0.4l-40-22.9l0.8-0.5L133,105.2L133,105.2z"/>
		<path class="st8" d="M120.8,112.4l-0.8,0.5L80,89.9l0.8-0.5L120.8,112.4L120.8,112.4z"/>
		<path class="st8" d="M145.2,98.1l-0.8,0.5l-40-22.9l0.8-0.5L145.2,98.1L145.2,98.1z"/>
		<text transform="matrix(0.8849 0.5024 -0.8647 0.5024 150.1608 111.2587)" class="st14 st9 st10">CREDIT CARD</text>
		<path class="st2" d="M217.7,205.5L45.2,105.9c-1.9-1.1-1.7-3,0.5-4.3l0,0c2.2-1.3,5.5-1.4,7.4-0.3l172.5,99.6
			c1.9,1.1,1.7,3-0.5,4.3l0,0C222.9,206.5,219.6,206.6,217.7,205.5z"/>
		<path class="st2" d="M117.4,163.4l-85.9-49.6c-1.9-1.1-1.7-3,0.5-4.3l0,0c2.2-1.3,5.5-1.4,7.4-0.3l85.9,49.6
			c1.9,1.1,1.7,3-0.5,4.3l0,0C122.6,164.4,119.3,164.5,117.4,163.4z"/>
		<path class="st2" d="M204.8,213.9L142.6,178c-1.9-1.1-1.7-3,0.5-4.3l0,0c2.2-1.3,5.5-1.4,7.4-0.3l62.2,35.9c1.9,1.1,1.7,3-0.5,4.3
			l0,0C210,214.9,206.7,215,204.8,213.9z"/>
	</g>
</g>
</svg>
