<svg width="400" height="300" viewBox="0 0 400 300" fill="none" xmlns="http://www.w3.org/2000/svg">
<path d="M70.0971 191.879L193.069 262.62C196.256 264.46 200.115 264.46 203.303 262.62L345.148 182.263C346.91 181.26 348 179.336 348 177.33C348 175.323 346.91 173.399 345.148 172.396L218.821 99.5644C217.563 98.8119 216.053 98.8119 214.794 99.5644L70.0132 185.022C68.7549 185.775 68 187.029 68 188.451C68.0839 189.872 68.8388 191.21 70.0971 191.879Z" fill="#282B4E"/>
<path d="M103 58H154V116H103V58Z" fill="#4398D1"/>
<path d="M239.953 117.967L215.2 94H200.8L176.046 117.967C162.147 131.063 154.183 149.304 154 168.448C154 195.261 178.177 217 208 217C237.822 217 262 195.261 262 168.448C261.817 149.304 253.853 131.063 239.953 117.967Z" fill="#EB4A46"/>
<path d="M246.705 126C247.229 129.649 247.492 133.33 247.501 137.014C247.501 169.237 218.138 195.359 181.931 195.359C174.49 195.353 167.092 194.199 160 191.946C170.48 207.894 188.472 217.358 207.626 216.99C237.654 216.99 262 195.326 262 168.606C261.883 153.093 256.493 138.078 246.705 126Z" fill="#D63934"/>
<path d="M242.925 58.0946H204.815V40H186.666L168.518 58.0946H154V116H233.851C237.863 116 241.11 112.761 241.11 108.761V76.1905H242.925C247.938 76.1905 252 72.1407 252 67.1433C252 62.1444 247.938 58.0946 242.925 58.0946Z" fill="#FFB782"/>
<path d="M135 98H143V105H135V98Z" fill="#3582BD"/>
<path d="M224.072 58L233 36H183L191.928 58H224.072Z" fill="#ED4B47"/>
<path d="M212.125 151.857H204.875C202.874 151.857 201.25 150.225 201.25 148.214C201.25 146.203 202.874 144.571 204.875 144.571H219.375V137.286H212.125V130H204.875V137.286C198.868 137.286 194 142.178 194 148.214C194 154.25 198.868 159.142 204.875 159.142H212.125C214.126 159.142 215.75 160.775 215.75 162.785C215.75 164.796 214.126 166.429 212.125 166.429H197.625V173.714H204.875V181H212.125V173.714C218.132 173.714 223 168.822 223 162.785C223 156.749 218.132 151.857 212.125 151.857Z" fill="white"/>
<path d="M232.882 116C236.816 116 240 112.756 240 108.751V79C222.075 98.073 196.98 109.531 178 116H232.882Z" fill="#F5AB76"/>
<path d="M295.572 228.036L257.009 242.393C253.696 243.59 250.29 244.234 246.793 244.234H207.033C201.419 244.234 195.989 242.67 191.295 239.632L141.503 208.064C138.19 205.119 137.638 200.241 140.123 196.651C142.792 192.694 147.301 191.957 152.271 194.35L200.591 215.703L200.498 207.788C201.143 201.345 206.113 196.191 212.555 195.271L242.099 191.865C248.91 190.945 252.315 188.644 258.297 185.147C266.397 180.361 275.6 177.876 284.988 177.876H295.572V228.036V228.036Z" fill="#FFDDCE"/>
<path d="M259.31 234.754C255.904 236.043 252.223 236.687 248.541 236.687H206.757C202.339 236.687 197.921 235.767 193.872 233.926L164.604 215.427C161.843 213.678 160.187 210.733 160.279 207.512C160.371 205.763 160.831 204.106 161.843 202.634C161.843 202.634 162.764 201.069 163.684 199.597L200.591 215.703L200.498 207.788C201.143 201.345 206.113 196.191 212.555 195.271L242.099 191.865C248.91 190.945 252.315 188.644 258.297 185.147C266.397 180.361 275.6 177.876 284.988 177.876H295.572V221.225L259.31 234.754Z" fill="#FFDDCE"/>
<path d="M139.939 196.651C142.608 192.694 147.117 191.957 152.087 194.35L165.433 200.241C164.788 201.253 164.236 202.081 164.236 202.081C161.751 205.671 162.395 210.641 165.617 213.494L194.608 231.901C198.474 233.65 202.615 234.57 206.849 234.57H246.609C250.106 234.57 253.603 233.926 256.825 232.73L295.388 218.372V228.036L256.825 242.393C253.511 243.59 250.106 244.234 246.609 244.234H214.12H206.849C201.327 244.234 195.805 242.67 191.111 239.632L141.319 208.064C138.098 205.211 137.546 200.241 139.939 196.651Z" fill="#FFCBBE"/>
<path d="M204.18 199.689V199.873L204.088 199.781C204.088 199.781 204.088 199.689 204.18 199.689Z" fill="#F5DBCC"/>
<path d="M200.591 215.703H230.779C232.251 215.703 233.448 214.506 233.448 213.034C233.448 211.561 232.251 210.365 230.779 210.365H200.591V215.703Z" fill="#FFCBBE"/>
<path d="M287.289 235.675C287.289 238.436 289.59 240.737 292.351 240.737H304.592C307.353 240.737 309.654 238.436 309.654 235.675V173.55C309.654 170.789 307.353 168.488 304.592 168.488H292.351C289.59 168.488 287.289 170.789 287.289 173.55V235.675Z" fill="#407093"/>
</svg>
