<?xml version="1.0" encoding="utf-8"?>
<!-- Generator: Adobe Illustrator 24.0.1, SVG Export Plug-In . SVG Version: 6.00 Build 0)  -->
<svg version="1.1" id="Layer_1" xmlns="http://www.w3.org/2000/svg" xmlns:xlink="http://www.w3.org/1999/xlink" x="0px" y="0px"
	 viewBox="0 0 400 300" style="enable-background:new 0 0 400 300;" xml:space="preserve">
<style type="text/css">
	.st0{clip-path:url(#SVGID_2_);}
	.st1{fill:#FFDBC2;}
	.st2{fill:#4A4C77;}
	.st3{fill:#06577A;}
	.st4{fill:#F2696A;}
	.st5{fill:#8CCC00;}
	.st6{fill:#FFB888;}
	.st7{fill:url(#SVGID_3_);}
	.st8{fill:#5A2500;}
	.st9{fill:#282B4E;}
	.st10{opacity:0.33;}
	.st11{fill:#8783AA;}
	.st12{fill:#F4F4F4;}
	.st13{fill:#A3A1AD;}
	.st14{fill:#BABABC;}
	.st15{fill:#CCCCCC;}
	.st16{fill:#FCBF81;}
	.st17{fill:#34323D;}
	.st18{fill:#FF413B;}
	.st19{opacity:0.13;}
	.st20{fill:#FFFFFF;}
	.st21{fill:#42210B;}
	.st22{fill:#606060;}
	.st23{opacity:0.37;}
	.st24{fill:#36B2BF;}
</style>
<g>
	<defs>
		<rect id="SVGID_1_" width="400" height="300"/>
	</defs>
	<clipPath id="SVGID_2_">
		<use xlink:href="#SVGID_1_"  style="overflow:visible;"/>
	</clipPath>
	<g class="st0">
		<path class="st1" d="M376.2,184.3c-38.6,20.7-152,86.2-187.8,106.8c-6.7,3.9-15.1,3.9-21.8,0l-136-79.4c-5.4-3.2-3.7-9.1,1.8-12.2
			L222.2,89.2c2-1.1,4.4-1.1,6.4,0l147.7,84c2,1.1,3.3,3.3,3.2,5.6C379.6,181.1,378.3,183.2,376.2,184.3z"/>
		<path class="st2" d="M325.5,191.6c-28.9,15.5-113.7,64.5-140.4,79.9c-5,2.9-11.3,2.9-16.3,0L67.1,212.1c-4-2.4-2.8-6.8,1.3-9.1
			l141.9-82.5c1.5-0.8,3.3-0.8,4.8,0l110.5,62.8c1.5,0.9,2.4,2.5,2.4,4.2C328,189.2,327.1,190.8,325.5,191.6L325.5,191.6z"/>
		<path class="st3" d="M323.5,155c0,0-2.3,19.7,8.1,23.5c0,0,16-6.1,16.1-23.5"/>
		<ellipse vector-effect="non-scaling-stroke" class="st4" cx="335.6" cy="155" rx="12.1" ry="7"/>
		<path class="st5" d="M338.8,139.4c0,0-4.8-6.9-2.7-11.6c0,0,1.7-3.1,4.1-3.5c0,0-0.2,6.5,2.2,5.7c2.4-0.8,0-6.8,0-6.8
			s2.5-3.4,5.3-3.3c2.8,0.1,0,6.1,1.9,5.1c1.9-1,0.1-6.1,2.3-6.7c2-0.5,4-0.8,6.1-1c0,0,2.1,5.9,0,6.8c0,0-5.1,1.1-3.6,2.4l5.6-0.2
			c0,0,0.3,3.3-1.1,4.8c0,0-9.6-1.8-8.2,1.1l6.9,1.4c0,0-2.8,4-6.1,5.8C348.2,141.2,338.8,139.4,338.8,139.4z"/>
		<path class="st5" d="M339.9,156.6c0,0-3.4-3.4-2.8-6.3c0.3-1,1.1-1.9,2-2.5c0,0,0.6,3.7,1.9,3l-0.7-3.9c0,0,1.1-2.2,2.7-2.5
			c0,0,0.6,3.5,1.6,2.7c0,0-0.6-3.5,0.6-4c1.1-0.5,2.2-0.9,3.3-1.2c0,0,1.8,3.1,0.7,3.9c0,0-2.8,1.2-1.8,1.8l3.1-0.7
			c0,0,0.5,1.9-0.1,2.8c0,0-5.7,0-4.5,1.5l4.1,0.1c-0.7,1.5-1.6,2.8-2.8,3.9C345.4,156.7,339.9,156.6,339.9,156.6z"/>
		<path class="st5" d="M327.2,149.3c0,0-8.4,0.3-11.2-4c0,0-1.7-3.1-0.8-5.4c0,0,5.4,3.7,6,1.2c0.6-2.5-5.8-3.7-5.8-3.7
			s-1.5-4,0-6.3c1.5-2.3,5.1,3.3,5.3,1.1s-5.1-3.4-4.4-5.5c0.7-1.9,1.5-3.8,2.4-5.6c0,0,6.1,1.5,5.7,3.7c0,0-1.8,4.9,0.1,4.4
			l2.8-4.8c0,0,3,1.6,3.4,3.5c0,0-6.7,7.2-3.5,7.5l4.9-5.1c0,0,1.9,4.5,1.6,8.2S327.2,149.3,327.2,149.3z"/>
		<path class="st3" d="M356.2,119.9l-2.7,2.3c0.1-1,0.2-1.9,0.4-2.8c0.1-0.5-0.7-0.7-0.8-0.2c-0.2,1.3-0.4,2.5-0.5,3.8
			c-2.3,2-4.7,4.2-6.8,6.5c-0.2-1.6-0.2-3.2-0.1-4.8c0-0.5-0.8-0.5-0.8,0c-0.1,1.9,0,3.7,0.2,5.6c-1.4,1.5-2.7,3.1-3.9,4.7
			c-1.4-1.9-2.3-4-2.7-6.3c-0.1-0.5-0.9-0.3-0.8,0.2c0.5,2.4,1.5,4.7,2.9,6.7c0,0,0,0.1,0.1,0.1c-3.7,4.9-5.8,10.7-6.1,16.8
			c0,0.5,0.8,0.5,0.8,0c0.3-5.9,2.3-11.5,5.8-16.2c3.2,0.9,6.5,1.2,9.8,1c0.5,0,0.5-0.8,0-0.8c-3.1,0.2-6.3-0.1-9.3-0.9
			c1.7-2.3,3.5-4.4,5.5-6.4h0.1c1.8,0.2,3.7,0.3,5.5,0.4c1.2,0.2,2.3,0,3.4-0.4c0.5-0.2,0.1-0.9-0.4-0.7c-1.3,0.6-3,0.3-4.4,0.2
			c-1.2-0.1-2.3-0.2-3.5-0.3c2.8-2.8,5.8-5.4,8.7-7.8C357.2,120.1,356.6,119.6,356.2,119.9z"/>
		<path class="st3" d="M331.8,135.2c0.1-0.2-0.1-0.4-0.3-0.5c-0.2-0.1-0.4,0-0.5,0.3c-0.9,2.9-2.6,5.5-5.1,7.3
			c-0.9-2.5-1.7-5-2.5-7.5c1.9-1.9,3.5-4.1,4.6-6.5c0.2-0.5-0.5-0.9-0.7-0.4c-1.1,2.2-2.5,4.2-4.2,6c-0.8-2.9-1.6-5.8-2.2-8.8
			c-0.1-0.5-0.9-0.3-0.8,0.2c0.8,4.1,1.9,8.1,3.1,12c-1.5-0.3-2.9-0.8-4.3-1.4c-0.5-0.2-0.9,0.5-0.4,0.7c1.6,0.8,3.3,1.3,5,1.6l0,0
			c0.8,2.6,1.8,5.2,2.8,7.7c-2.4-0.1-4.7-0.6-6.9-1.5c-0.5-0.2-0.9,0.5-0.4,0.7c2.4,1,5,1.6,7.6,1.6c1.3,3.2,2.7,6.3,4.2,9.3
			c0.2,0.5,0.9,0.1,0.7-0.4c-2-4.1-3.8-8.3-5.4-12.5l0,0C328.9,141.1,330.8,138.4,331.8,135.2z"/>
		<path class="st3" d="M346,145.4l-2.2,3.6c-0.3-0.4-0.5-0.7-0.7-1.1c-0.2-0.5-0.9-0.1-0.7,0.4c0.2,0.5,0.6,1,0.9,1.4l0,0l-2.4,4
			c-0.3-0.3-0.4-0.6-0.5-1c-0.1-0.5-0.9-0.5-0.8,0c0.1,0.6,0.4,1.2,0.9,1.6l-2.9,4.9c-0.1,0.2,0,0.4,0.1,0.5c0.2,0.1,0.4,0,0.5-0.1
			l3.9-6.5c0.7,0,1.3-0.1,1.9-0.3c0.5-0.2,0.3-0.9-0.2-0.8c-0.4,0.1-0.8,0.2-1.2,0.2l3.9-6.6c0-0.2,0-0.4-0.2-0.4
			C346.3,145.3,346.1,145.3,346,145.4L346,145.4z"/>
		<path class="st6" d="M64.6,202.7v6.6l6.6-3.3L64.6,202.7L64.6,202.7z"/>
		<path class="st6" d="M328,181.6v5.8l-2.3-2.9L328,181.6L328,181.6z"/>
		<linearGradient id="SVGID_3_" gradientUnits="userSpaceOnUse" x1="64.649" y1="191.1826" x2="328.0274" y2="191.1826">
			<stop  offset="0" style="stop-color:#F5524E"/>
			<stop  offset="1" style="stop-color:#D0342F"/>
		</linearGradient>
		<path class="st7" d="M325.5,186c-28.9,15.5-113.7,64.5-140.4,79.9c-5,2.9-11.3,2.9-16.3,0L67.1,206.5c-4-2.4-2.8-6.8,1.3-9.1
			l141.9-82.5c1.5-0.8,3.3-0.8,4.8,0l110.5,62.8c1.5,0.9,2.4,2.5,2.4,4.2C328,183.6,327.1,185.2,325.5,186z"/>
		<path class="st8" d="M219,91.6c-0.2-0.8-0.7-1.5-1.4-1.8c-0.7-0.4-1.5-0.1-1.9,0.5c-0.2,0.3-0.2,0.7-0.1,1l0,0
			c-0.2,1,0.1,2,0.8,2.8c0.5,0.5,1.4,0.5,1.9,0C218.9,93.4,219.2,92.5,219,91.6L219,91.6z"/>
		<path class="st9" d="M261.9,46.6l-52.4-30.9c-1.6-0.8-3.4-0.9-5-0.3l0,0h-0.1c-0.4,0.1-0.8,0.3-1.1,0.5l-4.9,2.2l2.6,1.2l0,0
			l1.6,134c0,4.8,2.6,9.2,6.7,11.7l48.8,28.4l-0.8,4.6l6.6-3.5l0,0c1.3-0.7,2.1-2.1,2.1-3.6V54.1C266.1,51,264.5,48.2,261.9,46.6
			L261.9,46.6z"/>
		<g class="st10">
			<path class="st11" d="M261.9,46.6l-52.4-30.9c-1.6-0.8-3.4-0.9-5-0.3l0,0h-0.1c-0.4,0.1-0.8,0.3-1.1,0.5l-4.9,2.2l2.6,1.2l0,0
				l1.6,134c0,4.8,2.6,9.2,6.7,11.7l48.8,28.4l-0.8,4.6l6.6-3.5l0,0c1.3-0.7,2.1-2.1,2.1-3.6V54.1C266.1,51,264.5,48.2,261.9,46.6
				L261.9,46.6z"/>
		</g>
		<path class="st12" d="M253.6,197.7L203,168.2c-4.1-2.4-6.7-6.9-6.7-11.7V21.3c0-1.3,0.7-2.5,1.8-3.1c1.1-0.6,2.5-0.6,3.6,0
			L255.5,50c2.6,1.6,4.3,4.4,4.3,7.5v136.7c0,1.5-0.8,2.8-2.1,3.6C256.5,198.4,254.9,198.4,253.6,197.7L253.6,197.7z"/>
		<path class="st13" d="M256.6,65.7l-57.7-33.1V151l57.7,33.3V65.7L256.6,65.7z"/>
		<path class="st14" d="M219.8,173.1c-0.5-1.9,0.3-3.8,1.8-4.1c1.4-0.3,3,0.9,3.4,2.9c0.5,1.9-0.3,3.8-1.8,4.1
			C221.8,176.4,220.3,175.1,219.8,173.1z"/>
		<path class="st15" d="M220.2,38.3L220.2,38.3c0,0.5,0.2,0.9,0.6,1.1l11.1,6.4c0.4,0.3,0.9,0.3,1.3,0.1c0.4-0.2,0.7-0.7,0.7-1.2
			v-0.3c0-0.5-0.3-0.9-0.7-1.1l-11.1-6.1c-0.4-0.2-0.9-0.2-1.3,0C220.5,37.4,220.2,37.9,220.2,38.3z"/>
		<path class="st15" d="M214.5,34.8c-0.3-0.9-0.1-1.8,0.6-2.1c0.7-0.2,1.5,0.3,1.8,1.2c0.3,0.9,0.1,1.8-0.6,2.1
			C215.6,36.2,214.8,35.7,214.5,34.8z"/>
		<path class="st16" d="M183.1,99.9c0.2-0.5,0.4-0.9,0.7-1.3c0,0,0,0,0,0.1c0,0.1,0.1,0.1,0.1,0.1c0.1,0,0.1,0,0.2-0.1l0.5-0.8
			c0,0.1,0,0.2,0,0.3c0.1,0.4,0.4,0.6,0.8,0.6c0.2,0,0.4-0.1,0.5-0.3c0.1-0.2,0.2-0.4,0.1-0.6l0.2-0.3c0,0.1,0,0.2,0,0.2
			c0.1,0.2,0.2,0.4,0.5,0.4c0.2,0.1,0.5,0,0.6-0.2c0.1-0.1,0.2-0.2,0.2-0.2c0.1,0.1,0.3,0.1,0.4,0c0.6-0.2,1.3-0.5,1.9-0.8
			c-0.1,0-0.1-0.1-0.2-0.2c0-0.1,0-0.2,0.1-0.3c0.7-0.6,1.5-1.1,2.3-1.6h0.1V95c0.2-0.6,0.1-1.3-0.1-1.8c0.4-0.5,0.5-1.1,0.4-1.7
			c-0.1,0-0.1,0-0.2-0.1c-0.1-0.1-0.2-0.2-0.3-0.3c-0.1-0.2-0.2-0.4-0.3-0.6c0-0.1,0-0.2,0.1-0.3c-0.3-0.4-0.6-0.8-1-1.1
			c0.7-1.3,1.1-2.7,1-4.2c0-0.3-0.2-0.5-0.5-0.6c-0.3-0.1-0.6,0.1-0.7,0.3c-0.3,0.5-0.6,0.9-0.8,1.4c-0.1,0-0.1,0.1-0.2,0.2
			c-1.3,2.6-2.7,5.1-4.2,7.6c-0.3,0.4-3.4,4.8-3.1,4.9C182.6,98.8,179.9,104.8,183.1,99.9z M185,98L185,98c0,0,0.1,0.1,0.1,0.1
			c0,0,0.1,0,0.1-0.1l0,0c0.2,0.1,0.4,0.2,0.6,0.1c-0.1,0.2-0.3,0.3-0.4,0.3C185.2,98.3,185,98.2,185,98L185,98z"/>
		<path class="st16" d="M183.5,98.5c0.7-0.6,1.3-1.2,1.7-2c0.2-0.3,0.5-0.6,0.8-0.7s0.7,0,1,0.1c0-0.4,0.1-0.7,0.1-1.1
			c0-1.8,2.9-1.8,2.8,0c0.1,1.4-0.3,2.8-1.1,4c-0.9,1.1-1.9,2-3.1,2.7c-0.4,0.2-0.9,0.2-1.4,0c-0.4-0.2-0.7-0.6-0.8-1.1l-0.1-0.1
			C183,99.9,183,99,183.5,98.5z"/>
		<path class="st17" d="M188,99.6c1.2-0.8,2-2,2.4-3.3c0,0,0.1,0.1,0.1,0.1c0,0,0.1,0,0.1,0l1.1-0.8c0.2-0.1,0.4-0.3,0.6-0.5
			c0.4-0.5,0-1.1-0.2-1.7c0,0,0-0.1-0.1-0.1l0.2-0.3c0.3-0.4,0.4-0.9,0.4-1.4c-0.1-0.5-0.5-0.8-0.8-1.2c0.1-0.5-0.2-1-0.7-1.2
			c-0.6-0.3-0.9,0.2-1.3,0.6c-0.7,0.9-1.3,1.9-2,2.9c-0.1,0.2,0.2,0.4,0.3,0.2c0.3-0.5,0.7-1.1,1-1.6c0.3-0.6,0.7-1.1,1.1-1.6
			c1.3-0.7,1,1,0.8,1.5c-0.1,0.3-0.3,0.5-0.4,0.8l-0.9,1.7c0,0,0,0.1,0,0.1c0.6,2.1-0.3,4.3-2.2,5.5C187.6,99.4,187.8,99.7,188,99.6
			z M190.6,93.8c-0.1,0-0.1,0-0.2,0v-0.1c0.6-0.9,1.1-1.9,1.5-2.9c0.1,0.1,0.2,0.2,0.3,0.3c0.3,0.3,0.3,0.8,0.1,1.2
			C192,92.9,191.4,94.2,190.6,93.8L190.6,93.8z M190.5,96c0.1-0.6,0.1-1.2,0-1.8c0.6,0.3,1.1-0.1,1.5-0.6c0.1,0.2,0.2,0.5,0.2,0.7
			c0.1,0.3-0.1,0.6-0.4,0.8C191.4,95.4,190.9,95.7,190.5,96z"/>
		<path class="st9" d="M167.9,105.2c0,0,8.2,0.4,10.4-1.6l5.2-8.2c0,0,5.7,3.6,6,5.7c0,0-5.9,12.2-8.7,12.9"/>
		<path class="st17" d="M155.4,206.7c0,0,7-3.1,8.6-3.2c0,0,4.5,0.4,2,3.5c0,0-7.3,4.8-8.3,4.9c-1,0.2-3.3-0.6-3.4-0.3
			s-0.3,2.1-0.3,2.1s-6.1,2.3-6.4-1.8c0-0.5,0.9-8.1,0.9-8.1"/>
		<path class="st17" d="M147.4,188.8c1.2-7.9,3.4-15.5,4.3-23.4c0.6-5,1-10,1.6-15s2.5-9.8,3.7-14.8c0.1-0.2,0-0.5-0.2-0.6
			c0.1-0.2,0.1-0.4,0.2-0.5c0.6-0.6,1.2-1.1,1.9-1.7l8.5,5.8c0,0,0,5.2-0.3,12.8c-1,4.4-1.8,8.4-2.9,12.6c0.2,0.3,0.3,0.6,0.3,1
			c-2.8,13.2-4.8,26.6-6.1,40c0,0.5-0.3,0.8-0.8,1l-0.2,2.1c-7.4,2.9-9.1-2.1-9.1-2.1s-0.3-4.3-0.8-10.2
			C147.4,193.3,147.4,191,147.4,188.8z"/>
		<path class="st16" d="M210.4,108.6c-0.4,0.3-0.9,0.6-1.5,0.9c0.7-0.9,1.4-1.9,1.9-3c0.6-0.9-0.8-1.7-1.5-1c-1.9,2.1-3.9,4-6.1,5.8
			c-0.1,0.1-0.2,0.2-0.2,0.3h-1.3c-0.4,0-0.8,0-1.1,0h-0.3c-0.3-0.1-0.6,0-0.8,0.2c-0.2,0.1-0.3,0.1-0.5,0.2c-0.1,0-0.1,0.1-0.1,0.1
			c-0.4,0-0.9,0.1-1.3,0.1c-0.3,0.1-0.5,0.3-0.7,0.5c-0.1,0.3-0.1,0.6,0,0.9l-0.2-0.1c-1-0.6-1.8,1-0.8,1.6c2.1,1.3,4.5,2,6.9,1.9
			c0.2,0.2,0.5,0.2,0.8,0.1l0.4-0.2c2.1-0.1,4.1-0.5,6.1-1.3c0.5-0.2,1.1-0.3,1.6-0.4l0,0C211.2,113.1,210.8,110.8,210.4,108.6z"/>
		<path class="st17" d="M170.6,218.1l4.1,1.5c0.2,0.8,0.9,1.3,1.7,1.5c0.1,0.2,0.4,0.3,0.6,0.3c1.7,0.1,3.4-0.2,4.9-0.8
			c2-0.6,9.7-3.6,7.6,2c-1.4,1-3,1.9-4.4,2.7c-0.8,0.5-1.6,1-2.5,1.4c-0.4,0.3-0.9,0.5-1.4,0.7c-1.1,0.2-3.8-0.7-3.9-0.4
			c-0.1,0.3-0.3,2.4-0.3,2.4s-7,2.7-7.3-2C169.6,226.9,170.6,218.1,170.6,218.1z"/>
		<path class="st17" d="M164.8,175.9c-0.9-13.9-1.3-27.9-4.3-41.6c-0.1-3.6-2.4-1.3-2.3-2.7c1.2-11.4,17.9,2.2,17.9,2.2
			c0.7,0.6,0.8,4.1,0.9,4.9c0.8,4.4,1.4,8.8,1.9,13.2c2.8,22.3,1.7,44.5,0.6,66.9c-3.5,3.6-5.9,4.7-11.6,2.4
			c-1.1-14.7-2.2-29.3-3.2-44L164.8,175.9z"/>
		<path class="st9" d="M173.7,106.8c-0.2-0.7-2-1.2-2.6-1.5c-1.3-0.7-0.5-1.9-1.8-2.7c-1.8-1.1-3.7-2-5.7-2.8h-0.1
			c-3.2,0-8.5-0.2-8.8,4c-0.5,6.5,0.1,13,0.6,19.5c0.2,2.6,0.4,5.2,0.7,7.7c0.1,0.9,0.2,8.4,0.8,8.7c6.3,2.6,14.3,1.7,20.4-0.8
			C176.9,128.1,175.7,117.4,173.7,106.8L173.7,106.8z"/>
		<path class="st17" d="M168.1,113.3c0.4,4.4,3.5,8.1,7.8,9.3c0,0.4,0.1,3.1,0.2,3.5c-5-1.2-8.7-7.5-9.2-12.8
			C166.7,112.5,168,112.5,168.1,113.3z"/>
		<path class="st16" d="M165,86.6c0.4,0.1,3.9,8.2,2.5,13.1c-1.4,4.9-9.7-0.1-11.8-3.9C153.7,92.1,157.1,84.6,165,86.6z"/>
		<path class="st17" d="M164.9,87.8c0,1.5-0.9,2.9-2.3,3.5c-2.3,0.9-4.3,1.4-4.1,2.5c0.1,1.1,4.2-0.2,4.2,2.3c0,1.7-0.2,3.3-0.7,4.9
			c-0.3,1.2-7.2-2.5-9.5-8.8c-2.3-6.3,3.5-8,3.7-8s0.8-1.8,3.6-2.4s3.6,0.5,3.6,0.5c1.3-0.8,3-0.6,4.1,0.4c2.6,2.1,1.9,5.8-1,7.4
			L164.9,87.8z"/>
		<path class="st9" d="M168.1,101.9c0,0,14.4,8.2,19.6,8.2c3.7,0,11.1-1.2,15-1.9c3.6,3,3.8,8.3,1.6,12.3c-6.3,1-24.9,3.7-30.7,0.8
			c-7.1-3.5-14.8-8.2-14.8-8.2S151.6,106.3,168.1,101.9z"/>
		<path class="st16" d="M208.9,109.5c0,0,2.1-1.8,2.7-1.4c1.1,1.5,1.7,3.3,1.7,5.2c-0.2,1.8-1.1,3.3-5.5,3.2"/>
		<path class="st18" d="M110.3,71.9c-0.1-0.4-0.7-0.1-0.6,0.3c0.4,1.1,0.4,2.9-0.6,3.7c-0.1,0.1-0.2,0.1-0.2,0.1c0-0.2,0-0.3,0-0.5
			c-0.1-0.3-0.2-0.6-0.4-0.9c-0.1-0.2-0.3-0.4-0.4-0.5c0.2-0.3,0.4-0.5,0.6-0.7c0.3-0.3-0.1-0.8-0.4-0.5l-0.4,0.4
			c-0.1-0.1-0.2-0.1-0.3-0.1c-0.1,0-0.2,0.1-0.2,0.2c-0.1,0.2-0.1,0.4-0.1,0.6c-0.2,0.3-0.3,0.5-0.3,0.8c-0.7,0.7-0.3,2.2,0.9,1.9
			l0.2-0.1c0.1,0,0.2,0,0.3,0c0.8-0.1,1.5-0.7,1.8-1.5C110.6,74.2,110.7,73,110.3,71.9z M107.7,75.3L107.7,75.3
			c0.1,0,0.2-0.1,0.2-0.2l0.1,0.2c0.2,0.2,0.2,0.5,0.1,0.8C107.8,75.9,107.7,75.6,107.7,75.3z"/>
		<path class="st18" d="M107.2,56.4c0.3-0.3-0.2-0.7-0.5-0.4c-0.4,0.5-0.6,1.1-0.6,1.7c0.1,0.6,0.4,1.2,0.8,1.6
			c0.3,0.3,0.7-0.3,0.4-0.5c-0.3-0.3-0.6-0.7-0.6-1.2C106.7,57.2,106.9,56.7,107.2,56.4z"/>
		<path class="st18" d="M122.1,61.3h-0.3l-0.4-0.4c-0.3-0.3-0.8,0.1-0.5,0.4l0.1,0.1c-0.9,0.1-1.8,0.4-2.6,0.7
			c-0.4,0.1-0.1,0.7,0.3,0.6c0.6-0.2,1.3-0.4,2-0.6c-0.3,0.4-0.4,0.9-0.3,1.4c0.1,0.3,0.2,0.5,0.4,0.7c0,0.1,0.1,0.3,0.2,0.3
			c0.1,0,0.3,0,0.4-0.1c0.1,0,0.2,0,0.3,0c0.6-0.2,1-0.7,1.1-1.3c0-0.4-0.1-0.7-0.3-1l0.1-0.3c0.1-0.1,0-0.2,0-0.3
			C122.4,61.3,122.2,61.3,122.1,61.3z M121,63.6c-0.1-0.2-0.1-0.4,0-0.6c0.1-0.4,0.3-0.7,0.5-1l0,0l0.1,0.1L121,63.6z"/>
		<path class="st18" d="M94,94.2c-0.4-0.1-0.6,0.5-0.2,0.6c0.8,0.3,2.2,0.7,2,1.8c-0.1,0.6-0.5,0.9-1,0.6c-0.4-0.3-0.6-0.7-0.8-1.1
			c-0.2-0.4-0.8-0.1-0.6,0.3c0.2,0.7,0.7,1.2,1.4,1.6c0.6,0.2,1.2-0.1,1.5-0.6C97.1,95.7,95.3,94.7,94,94.2z"/>
		<path class="st18" d="M93,67.1c-0.3-0.3-0.8,0.1-0.5,0.4c0.5,0.5,0.7,1.3,0.5,2c-0.2,0.7-0.9,1.2-1.6,1.3
			c-0.7,0.1-1.5-0.3-1.9-0.9c-0.2-0.3-0.7,0.1-0.5,0.4c0.6,0.8,1.5,1.2,2.4,1c0.9-0.1,1.7-0.8,2.1-1.7C93.8,68.8,93.6,67.8,93,67.1
			L93,67.1z"/>
		<path class="st9" d="M115.5,43.3c9.9,4.5,12.1,21,4.9,36.8s-21.1,24.9-31,20.4c-9.9-4.5-13.5-23.3-6.3-39.1
			C90.3,45.6,105.6,38.8,115.5,43.3z"/>
		<g class="st19">
			<path d="M115.5,43.3c9.9,4.5,12.1,21,4.9,36.8s-21.1,24.9-31,20.4c-9.9-4.5-13.5-23.3-6.3-39.1C90.3,45.6,105.6,38.8,115.5,43.3z
				"/>
		</g>
		<path class="st20" d="M113.1,50.1c8,3.6,9.9,16.4,4.3,28.6S100.9,97.8,93,94.2s-11.1-17.6-5.6-29.8C93,52.2,105.1,46.5,113.1,50.1
			z"/>
		<path class="st21" d="M108.8,53.7l-6.6,19.9l1.8-1l-9.2-2.1c-1.9-0.4-2.7,2.5-0.8,2.9l9.2,2.1c0.8,0.2,1.6-0.2,1.8-1l6.6-19.9
			C112.3,52.8,109.4,52,108.8,53.7L108.8,53.7z"/>
		<path class="st22" d="M102.3,53.8c-0.6,0.1-1,0.7-0.9,1.3c0.1,0.6,0.7,1.1,1.3,1c0.6-0.1,1-0.7,0.9-1.3
			C103.5,54.1,102.9,53.7,102.3,53.8L102.3,53.8z"/>
		<path class="st22" d="M104.8,88.9c-0.6,0.1-1,0.7-0.9,1.3c0.1,0.6,0.7,1.1,1.3,1c0.6-0.1,1-0.7,0.9-1.3
			C106,89.3,105.4,88.8,104.8,88.9L104.8,88.9z"/>
		<path class="st22" d="M117.6,67.1c-0.6,0.1-1,0.7-0.9,1.3c0.1,0.6,0.7,1.1,1.3,1c0.6-0.1,1-0.7,0.9-1.3
			C118.8,67.5,118.2,67.1,117.6,67.1L117.6,67.1z"/>
		<path class="st22" d="M88.6,75.2c-0.6,0.1-1,0.7-0.9,1.3c0.1,0.6,0.7,1.1,1.3,1c0.6-0.1,1-0.7,0.9-1.3S89.3,75.1,88.6,75.2z"/>
		<g class="st23">
			<path class="st24" d="M103.7,74.1c0,0-8.8-18-8.8-17.9c0,0.1-5.9,6.7-8.1,14.5L103.7,74.1z"/>
		</g>
	</g>
</g>
</svg>
