<?xml version="1.0" encoding="UTF-8" standalone="no"?><!-- Generator: Gravit.io --><svg xmlns="http://www.w3.org/2000/svg" xmlns:xlink="http://www.w3.org/1999/xlink" style="isolation:isolate" viewBox="0 0 511.88 358.84" width="511.88pt" height="358.84pt"><defs><clipPath id="_clipPath_1zqo4jeNUum8MMWDq1FmvXXWissFZGnH"><rect width="511.88" height="358.84"/></clipPath></defs><g clip-path="url(#_clipPath_1zqo4jeNUum8MMWDq1FmvXXWissFZGnH)"><path d=" M 105.48 213.23 L 28.64 243.8 C 28.64 243.8 24.24 263.08 32.24 269.55 C 39.24 275.14 151.44 337.9 180.63 354.2 C 185.883 357.171 191.848 358.647 197.88 358.47 C 205.62 358.22 216.35 356.64 225.33 350.8 C 241.42 340.35 492.44 197.94 492.44 197.94 C 492.44 197.94 506.94 188.29 496.24 166.08 C 488.97 151 434.55 148.91 434.55 148.91 L 105.48 213.23 Z " fill="rgb(104,225,253)"/><linearGradient id="_lgradient_38" x1="0.2489966134427371" y1="0.005035969222026926" x2="1.0207782769774347" y2="0.09109733731494318" gradientTransform="matrix(472.744,0,0,209.556,27.433,148.91)" gradientUnits="userSpaceOnUse"><stop offset="41.66666666666667%" stop-opacity="1" style="stop-color:rgb(101,108,183)"/><stop offset="100%" stop-opacity="1" style="stop-color:rgb(41,44,79)"/><stop offset="100%" stop-opacity="1" style="stop-color:rgb(40,43,78)"/></linearGradient><path d=" M 105.48 213.23 L 28.64 243.8 C 28.64 243.8 24.24 263.08 32.24 269.55 C 39.24 275.12 150.63 337.45 180.31 354.02 C 186.068 357.233 192.615 358.758 199.2 358.42 C 206.81 358.03 216.85 356.32 225.33 350.8 C 241.42 340.35 492.44 197.94 492.44 197.94 C 492.44 197.94 506.94 188.29 496.24 166.08 C 488.97 151 434.55 148.91 434.55 148.91 L 105.48 213.23 Z " fill="url(#_lgradient_38)"/><path d=" M 105.48 192.31 L 36.29 232.54 C 36.29 232.54 24.24 242.19 32.24 248.63 C 39.6 254.51 163.24 323.55 184.43 335.4 C 186.667 336.65 189.161 337.369 191.72 337.5 C 198.83 337.87 213.58 337.5 225.33 329.89 C 241.42 319.43 492.44 177.02 492.44 177.02 C 492.44 177.02 502.9 167.37 489.22 157.71 C 475.54 148.05 434.51 127.95 434.51 127.95 L 105.48 192.31 Z " fill="rgb(170,174,232)"/><path d=" M 108.6 198.51 L 53.62 231.61 L 213.23 319.69 L 471.61 171.28 L 430.77 149.13 L 108.6 198.51 L 108.6 198.51 Z " fill="rgb(229,119,10)"/><linearGradient id="_lgradient_39" x1="0" y1="0.5" x2="1" y2="0.5" gradientTransform="matrix(331.74,0,0,193.9,106.82,47.49)" gradientUnits="userSpaceOnUse"><stop offset="0%" stop-opacity="1" style="stop-color:rgb(105,110,181)"/><stop offset="100%" stop-opacity="1" style="stop-color:rgb(28,32,89)"/></linearGradient><path d=" M 106.82 176.22 L 325.65 47.49 L 438.56 112.66 L 216.5 241.39 L 106.82 176.22 L 106.82 176.22 Z " fill="url(#_lgradient_39)"/><path d=" M 154.15 160.53 C 154.15 160.53 157.37 176.62 146.91 179.44 L 205.24 214.84 C 205.24 214.84 224.55 210.01 237.02 214.84 L 404.77 117.49 C 404.77 117.49 401.55 105.42 404.77 99.79 L 341.24 67.61 C 341.24 67.61 314.12 72.23 311.18 68.31 L 154.15 160.53 Z " fill="rgb(229,119,10)"/><linearGradient id="_lgradient_40" x1="0" y1="0.5" x2="1" y2="0.5" gradientTransform="matrix(110.09,0,0,127.52,106.82,176.22)" gradientUnits="userSpaceOnUse"><stop offset="0%" stop-opacity="1" style="stop-color:rgb(105,110,181)"/><stop offset="100%" stop-opacity="1" style="stop-color:rgb(28,32,89)"/></linearGradient><path d=" M 106.82 176.22 L 106.82 237.77 L 216.91 303.74 L 216.5 241.39 L 106.82 176.22 L 106.82 176.22 Z " fill="url(#_lgradient_40)"/><linearGradient id="_lgradient_41" x1="0" y1="0.5" x2="1" y2="0.5" gradientTransform="matrix(224.47,0,0,191.08,216.5,112.66)" gradientUnits="userSpaceOnUse"><stop offset="0%" stop-opacity="1" style="stop-color:rgb(105,110,181)"/><stop offset="100%" stop-opacity="1" style="stop-color:rgb(28,32,89)"/></linearGradient><path d=" M 440.97 169.78 L 438.56 112.66 L 216.5 241.39 L 216.91 303.74 L 440.97 169.78 L 440.97 169.78 Z " fill="url(#_lgradient_41)"/><linearGradient id="_lgradient_42" x1="0" y1="0.5" x2="1" y2="0.5" gradientTransform="matrix(110.09,0,0,127.52,106.82,176.22)" gradientUnits="userSpaceOnUse"><stop offset="100%" stop-opacity="0" style="stop-color:rgb(1,1,1)"/><stop offset="100%" stop-opacity="0.009561554900057848" style="stop-color:rgb(1,1,1)"/></linearGradient><path d=" M 106.82 176.22 L 106.82 237.77 L 216.91 303.74 L 216.5 241.39 L 106.82 176.22 L 106.82 176.22 Z " fill="url(#_lgradient_42)"/><linearGradient id="_lgradient_43" x1="0" y1="0.5" x2="1" y2="0.5" gradientTransform="matrix(224.47,0,0,191.08,216.5,112.66)" gradientUnits="userSpaceOnUse"><stop offset="100%" stop-opacity="0" style="stop-color:rgb(1,1,1)"/><stop offset="100%" stop-opacity="0.004689408735899533" style="stop-color:rgb(1,1,1)"/></linearGradient><path d=" M 440.97 169.78 L 438.56 112.66 L 216.5 241.39 L 216.91 303.74 L 440.97 169.78 L 440.97 169.78 Z " fill="url(#_lgradient_43)"/><path d=" M 196.976 139.926 L 201.476 142.526 C 203.391 141.715 205.363 141.046 207.376 140.526 C 215.376 138.336 222.066 140.126 223.166 143.146 C 224.266 146.166 219.546 146.766 215.166 146.556 C 210.786 146.346 212.166 142.636 212.166 142.636 L 209.856 142.536 C 206.736 141.636 195.676 148.066 199.296 152.536 C 202.916 157.006 217.996 150.726 217.996 150.726 C 240.326 147.306 241.126 148.516 246.556 153.726 C 251.986 158.936 242.556 165.586 242.556 165.586 L 247.786 170.016 L 244.566 171.426 L 238.336 167.596 C 231.496 173.236 220.436 170.916 216.916 169.506 C 213.396 168.096 210.576 164.786 217.216 162.506 C 223.856 160.226 223.046 165.726 227.166 168.046 C 231.286 170.366 235.716 166.046 235.716 166.046 L 222.346 158.046 L 219.526 158.646 C 219.226 158.746 201.926 162.166 195.896 156.646 C 189.866 151.126 198.506 144.876 198.506 144.876 L 193.776 142.066 L 196.976 139.926 Z " fill="rgb(255,255,255)"/><linearGradient id="_lgradient_44" x1="0" y1="0.5" x2="1" y2="0.5" gradientTransform="matrix(327.38,0,0,135,113.42,112.58)" gradientUnits="userSpaceOnUse"><stop offset="0%" stop-opacity="1" style="stop-color:rgb(105,110,181)"/><stop offset="100%" stop-opacity="1" style="stop-color:rgb(28,32,89)"/></linearGradient><path d=" M 216.37 247.58 L 216 247.36 L 113.42 186.22 L 114.16 184.99 L 216.37 245.92 L 440.06 112.58 L 440.8 113.81 L 216.37 247.58 L 216.37 247.58 Z " fill="url(#_lgradient_44)"/><linearGradient id="_lgradient_45" x1="0" y1="0.5" x2="1" y2="0.5" gradientTransform="matrix(327.38,0,0,135,113.42,117.94)" gradientUnits="userSpaceOnUse"><stop offset="0%" stop-opacity="1" style="stop-color:rgb(105,110,181)"/><stop offset="100%" stop-opacity="1" style="stop-color:rgb(28,32,89)"/></linearGradient><path d=" M 216.37 252.94 L 216 252.73 L 113.42 191.58 L 114.16 190.35 L 216.37 251.28 L 440.06 117.94 L 440.8 119.17 L 216.37 252.94 L 216.37 252.94 Z " fill="url(#_lgradient_45)"/><linearGradient id="_lgradient_46" x1="0" y1="0.5" x2="1" y2="0.5" gradientTransform="matrix(327.38,0,0,135,113.42,123.31)" gradientUnits="userSpaceOnUse"><stop offset="0%" stop-opacity="1" style="stop-color:rgb(105,110,181)"/><stop offset="100%" stop-opacity="1" style="stop-color:rgb(28,32,89)"/></linearGradient><path d=" M 216.37 258.31 L 216 258.09 L 113.42 196.95 L 114.16 195.72 L 216.37 256.64 L 440.06 123.31 L 440.8 124.54 L 216.37 258.31 L 216.37 258.31 Z " fill="url(#_lgradient_46)"/><linearGradient id="_lgradient_47" x1="0" y1="0.5" x2="1" y2="0.5" gradientTransform="matrix(327.38,0,0,135,113.42,128.67)" gradientUnits="userSpaceOnUse"><stop offset="0%" stop-opacity="1" style="stop-color:rgb(105,110,181)"/><stop offset="100%" stop-opacity="1" style="stop-color:rgb(28,32,89)"/></linearGradient><path d=" M 216.37 263.67 L 216 263.45 L 113.42 202.31 L 114.16 201.08 L 216.37 262.01 L 440.06 128.67 L 440.8 129.9 L 216.37 263.67 L 216.37 263.67 Z " fill="url(#_lgradient_47)"/><linearGradient id="_lgradient_48" x1="0" y1="0.5" x2="1" y2="0.5" gradientTransform="matrix(327.38,0,0,135.01,113.42,134.03)" gradientUnits="userSpaceOnUse"><stop offset="0%" stop-opacity="1" style="stop-color:rgb(105,110,181)"/><stop offset="100%" stop-opacity="1" style="stop-color:rgb(28,32,89)"/></linearGradient><path d=" M 216.37 269.04 L 216 268.82 L 113.42 207.67 L 114.16 206.44 L 216.37 267.37 L 440.06 134.03 L 440.8 135.26 L 216.37 269.04 L 216.37 269.04 Z " fill="url(#_lgradient_48)"/><linearGradient id="_lgradient_49" x1="0" y1="0.5" x2="1" y2="0.5" gradientTransform="matrix(327.38,0,0,135,113.42,139.4)" gradientUnits="userSpaceOnUse"><stop offset="0%" stop-opacity="1" style="stop-color:rgb(105,110,181)"/><stop offset="100%" stop-opacity="1" style="stop-color:rgb(28,32,89)"/></linearGradient><path d=" M 216.37 274.4 L 216 274.18 L 113.42 213.04 L 114.16 211.81 L 216.37 272.74 L 440.06 139.4 L 440.8 140.63 L 216.37 274.4 L 216.37 274.4 Z " fill="url(#_lgradient_49)"/><linearGradient id="_lgradient_50" x1="0" y1="0.5" x2="1" y2="0.5" gradientTransform="matrix(327.38,0,0,135,113.42,144.76)" gradientUnits="userSpaceOnUse"><stop offset="0%" stop-opacity="1" style="stop-color:rgb(105,110,181)"/><stop offset="100%" stop-opacity="1" style="stop-color:rgb(28,32,89)"/></linearGradient><path d=" M 216.37 279.76 L 216 279.55 L 113.42 218.4 L 114.16 217.17 L 216.37 278.1 L 440.06 144.76 L 440.8 145.99 L 216.37 279.76 L 216.37 279.76 Z " fill="url(#_lgradient_50)"/><linearGradient id="_lgradient_51" x1="0" y1="0.5" x2="1" y2="0.5" gradientTransform="matrix(327.38,0,0,135,113.42,150.13)" gradientUnits="userSpaceOnUse"><stop offset="0%" stop-opacity="1" style="stop-color:rgb(105,110,181)"/><stop offset="100%" stop-opacity="1" style="stop-color:rgb(28,32,89)"/></linearGradient><path d=" M 216.37 285.13 L 216 284.91 L 113.42 223.76 L 114.16 222.54 L 216.37 283.46 L 440.06 150.13 L 440.8 151.35 L 216.37 285.13 L 216.37 285.13 Z " fill="url(#_lgradient_51)"/><linearGradient id="_lgradient_52" x1="0" y1="0.5" x2="1" y2="0.5" gradientTransform="matrix(327.38,0,0,135,113.42,155.49)" gradientUnits="userSpaceOnUse"><stop offset="0%" stop-opacity="1" style="stop-color:rgb(105,110,181)"/><stop offset="100%" stop-opacity="1" style="stop-color:rgb(28,32,89)"/></linearGradient><path d=" M 216.37 290.49 L 216 290.27 L 113.42 229.13 L 114.16 227.9 L 216.37 288.83 L 440.06 155.49 L 440.8 156.72 L 216.37 290.49 L 216.37 290.49 Z " fill="url(#_lgradient_52)"/><linearGradient id="_lgradient_53" x1="0" y1="0.5" x2="1" y2="0.5" gradientTransform="matrix(67.979,0,0,75.514,272.696,153.965)" gradientUnits="userSpaceOnUse"><stop offset="100%" stop-opacity="0" style="stop-color:rgb(1,1,1)"/><stop offset="100%" stop-opacity="0.015482152948188957" style="stop-color:rgb(1,1,1)"/></linearGradient><path d=" M 274.74 158.27 C 272.563 161.005 272.085 164.723 273.5 167.92 C 274.622 170.045 276.2 171.895 278.12 173.34 C 284.814 179.021 292.408 183.546 300.59 186.73 C 302.45 187.46 304.43 188.17 305.74 189.68 C 307.27 191.46 307.56 193.97 307.74 196.31 L 310.24 222.42 C 310.47 224.86 310.92 227.66 313.02 228.91 C 315.12 230.16 317.79 229.21 319.32 227.43 C 320.731 225.543 321.555 223.282 321.69 220.93 C 322.81 211.76 320.69 201.64 325.62 193.81 C 326.649 199.664 328.381 205.372 330.78 210.81 C 332.12 213.81 335.01 217.3 338.02 215.93 C 340.13 214.93 340.59 212.19 340.65 209.87 C 340.95 198.104 338.53 186.428 333.58 175.75 C 332.524 173.214 331.012 170.892 329.12 168.9 C 326.892 166.987 324.361 165.459 321.63 164.38 L 308.36 158.27 C 305.266 156.697 301.997 155.495 298.62 154.69 C 292.72 153.58 278.97 153.08 274.74 158.27 Z " fill="url(#_lgradient_53)"/><linearGradient id="_lgradient_54" x1="0" y1="0.5" x2="1" y2="0.5" gradientTransform="matrix(327.38,0,0,135,113.42,160.72)" gradientUnits="userSpaceOnUse"><stop offset="0%" stop-opacity="1" style="stop-color:rgb(105,110,181)"/><stop offset="100%" stop-opacity="1" style="stop-color:rgb(28,32,89)"/></linearGradient><path d=" M 216.37 295.72 L 216 295.5 L 113.42 234.36 L 114.16 233.13 L 216.37 294.06 L 440.06 160.72 L 440.8 161.95 L 216.37 295.72 L 216.37 295.72 Z " fill="url(#_lgradient_54)"/><linearGradient id="_lgradient_55" x1="0" y1="0.5" x2="1" y2="0.5" gradientTransform="matrix(327.38,0,0,135,113.42,165.95)" gradientUnits="userSpaceOnUse"><stop offset="0%" stop-opacity="1" style="stop-color:rgb(105,110,181)"/><stop offset="100%" stop-opacity="1" style="stop-color:rgb(28,32,89)"/></linearGradient><path d=" M 216.37 300.95 L 216 300.73 L 113.42 239.59 L 114.16 238.36 L 216.37 299.29 L 440.06 165.95 L 440.8 167.18 L 216.37 300.95 L 216.37 300.95 Z " fill="url(#_lgradient_55)"/><mask id="_mask_hp8ladwAAAX9yUYrF0JdFu5YY83Erzpf" x="-200%" y="-200%" width="400%" height="400%"><rect x="-200%" y="-200%" width="400%" height="400%" style="fill:white;"/><path d=" M 278.99 136.8 L 289.45 143.37 C 289.45 143.37 294.54 140.15 292.93 138 C 291.32 135.85 282.74 134.52 278.99 136.8 Z " fill="black" stroke="none"/></mask><path d=" M 278.99 136.8 L 289.45 143.37 C 289.45 143.37 294.54 140.15 292.93 138 C 291.32 135.85 282.74 134.52 278.99 136.8 Z " fill="none"/><path d=" M 278.99 136.8 L 289.45 143.37 C 289.45 143.37 294.54 140.15 292.93 138 C 291.32 135.85 282.74 134.52 278.99 136.8 Z " fill="none" mask="url(#_mask_hp8ladwAAAX9yUYrF0JdFu5YY83Erzpf)" vector-effect="non-scaling-stroke" stroke-width="11.42" stroke="rgb(159,239,252)" stroke-linejoin="miter" stroke-linecap="butt" stroke-miterlimit="10"/><path d=" M 288.32 170.87 C 292.82 175.75 298.92 178.92 305.24 180.98 C 308.09 181.91 311.32 182.89 312.69 185.55 C 313.314 187.007 313.595 188.587 313.51 190.17 C 313.659 198.021 313.402 205.875 312.74 213.7 C 312.32 218.7 311.99 224.34 315.53 227.84 C 317.14 229.226 319 230.292 321.01 230.98 L 327.01 233.44 C 328.37 234.01 330.06 234.53 331.22 233.63 C 332.38 232.73 332.22 230.75 331.43 229.47 C 330.45 228.302 329.398 227.196 328.28 226.16 C 325.22 222.63 325.58 217.38 326 212.72 Q 326.88 203 327.07 193.24 C 327.22 185.78 326.77 177.55 321.63 172.15 C 318.81 169.15 314.91 167.49 311.91 164.7 C 309.06 162.04 307.14 158.5 304.34 155.78 C 299.53 151.13 285.34 140.7 282.92 147.13 C 278.09 160.08 284.63 166.86 288.32 170.87 Z " fill="rgb(47,48,74)"/><path d=" M 333.98 160.69 C 337.05 162.61 340.24 164.69 341.98 167.8 C 343.52 170.52 343.83 173.73 344.04 176.8 Q 344.9 188.98 344.54 201.2 C 344.42 205.54 344.32 210.32 347.08 213.67 C 348.73 215.67 351.49 217.56 350.9 220.09 C 350.36 222.39 347.43 223.09 345.07 223.02 C 342.071 223.071 339.136 222.144 336.71 220.38 C 332.71 217.15 332.13 211.38 331.82 206.3 L 330.69 187.3 C 330.5 184.12 330.22 180.7 328.18 178.25 C 326.805 176.779 325.117 175.638 323.24 174.91 C 315.56 171.38 306.6 168.97 301.85 161.97 C 299.65 158.71 298.74 154.06 301.18 150.97 C 308.95 141.18 327.56 156.67 333.98 160.69 Z " fill="rgb(47,48,74)"/><path d=" M 326.66 137.73 C 326.394 139.106 325.975 140.448 325.41 141.73 C 325.257 142.098 325.041 142.437 324.77 142.73 C 324.509 142.885 324.226 143 323.93 143.07 C 319.61 144.17 315.02 141.82 312.33 138.33 C 312.31 138.706 312.31 139.084 312.33 139.46 C 312.345 140.805 312.204 142.147 311.91 143.46 C 311.12 146.68 308.61 149.15 306.22 151.46 C 305.411 152.307 304.464 153.01 303.42 153.54 C 302.366 153.94 301.248 154.147 300.12 154.15 C 297.66 154.27 295.19 154.3 292.69 154.3 C 290.272 154.411 287.854 154.072 285.56 153.3 C 282.284 151.789 279.689 149.111 278.28 145.79 C 276.913 142.493 275.956 139.04 275.43 135.51 C 274.993 133.413 274.742 131.281 274.68 129.14 C 274.711 127.289 274.952 125.447 275.4 123.65 C 276.041 120.729 276.914 117.863 278.01 115.08 C 279.53 111.32 280.75 102.62 284.47 100.38 C 289.369 97.607 295.04 96.508 300.62 97.25 C 302.29 97.44 314.62 101.25 315.97 103.85 C 318.24 108.14 319.76 114.66 320.22 119.44 C 320.27 121.824 320.548 124.199 321.05 126.53 C 321.915 129.128 323.346 131.502 325.24 133.48 C 325.925 134.117 326.446 134.909 326.76 135.79 C 326.856 136.437 326.822 137.096 326.66 137.73 Z " fill="rgb(255,255,255)"/><linearGradient id="_lgradient_56" x1="0" y1="0.5" x2="0.49544714077081475" y2="-0.36863808959889877" gradientTransform="matrix(31.339,0,0,37.451,279.191,111.04)" gradientUnits="userSpaceOnUse"><stop offset="0%" stop-opacity="0" style="stop-color:rgb(1,1,1)"/></linearGradient><path d=" M 310.53 141.38 C 310.539 140.297 310.271 139.23 309.75 138.28 C 309.205 137.319 308.163 136.75 307.06 136.81 C 304.93 137.06 304.25 139.97 302.36 140.99 C 300.97 141.74 299.26 141.3 297.77 140.76 C 295.05 139.778 292.434 138.529 289.96 137.03 C 289.469 136.774 289.045 136.408 288.72 135.96 C 288.465 135.465 288.331 134.917 288.33 134.36 C 287.91 128.42 289.03 122.45 288.44 116.53 C 288.41 114.736 287.772 113.004 286.63 111.62 C 286.339 111.276 285.92 111.067 285.47 111.04 C 284.982 111.13 284.548 111.406 284.26 111.81 C 281.554 115.09 279.883 119.099 279.46 123.33 C 279.052 127.533 279.109 131.769 279.63 135.96 C 279.719 137.564 279.998 139.152 280.46 140.69 C 281.432 143.339 283.343 145.538 285.83 146.87 C 288.318 148.174 291.137 148.71 293.93 148.41 C 295.582 148.123 297.253 147.956 298.93 147.91 C 299.83 147.91 300.72 148.14 301.62 148.1 C 302.616 148.011 303.595 147.786 304.53 147.43 C 308.24 146.22 310.53 145.79 310.53 141.38 Z " fill="url(#_lgradient_56)"/><path d=" M 279.43 103.13 C 278.503 104.29 277.774 105.594 277.27 106.99 C 273.69 115.7 272.03 125.06 270.4 134.34 C 269.71 138.26 269.12 142.67 271.4 145.91 C 272.751 147.578 274.511 148.867 276.51 149.65 C 281.555 151.948 287.086 152.978 292.62 152.65 C 293.992 149.694 294.848 146.525 295.15 143.28 L 288 139.93 C 287.15 139.727 286.42 139.184 285.982 138.428 C 285.543 137.672 285.434 136.769 285.68 135.93 L 288.24 110.22 C 288.294 109.046 288.523 107.886 288.92 106.78 C 290.19 103.78 293.62 100.63 288.64 99.86 C 285.234 99.508 281.851 100.709 279.43 103.13 L 279.43 103.13 Z " fill="rgb(255,255,255)"/><linearGradient id="_lgradient_57" x1="0.000504947750719964" y1="0.4986299783671626" x2="1.0000014226354565" y2="0.4986299783671626" gradientTransform="matrix(8.324,0,0,14.744,316.616,137.608)" gradientUnits="userSpaceOnUse"><stop offset="0%" stop-opacity="1" style="stop-color:rgb(229,198,214)"/><stop offset="42%" stop-opacity="1" style="stop-color:rgb(234,212,208)"/><stop offset="100%" stop-opacity="1" style="stop-color:rgb(240,233,203)"/></linearGradient><path d=" M 317.91 142.36 C 317.37 142.96 316.55 143.51 316.62 144.31 C 316.67 144.89 317.18 145.31 317.51 145.77 C 318.042 146.789 318.294 147.931 318.24 149.08 C 318.19 150.242 318.699 151.357 319.61 152.08 C 320.631 152.582 321.858 152.377 322.66 151.57 C 323.435 150.769 323.972 149.769 324.21 148.68 C 324.808 146.599 325.041 144.43 324.9 142.27 C 324.908 141.066 324.522 139.893 323.8 138.93 C 320.46 135.08 319.41 140.7 317.91 142.36 Z " fill="url(#_lgradient_57)"/><path d=" M 311.78 135.52 C 311.829 135.199 311.959 134.896 312.16 134.64 C 312.439 134.392 312.789 134.238 313.16 134.2 C 316.229 133.611 319.363 133.429 322.48 133.66 C 322.345 138.099 321.417 142.478 319.74 146.59 C 319.366 147.877 318.63 149.029 317.62 149.91 C 316.27 150.91 314.47 150.84 312.82 150.76 C 312.055 150.797 311.298 150.598 310.65 150.19 C 309.02 148.87 310.06 145.47 310.19 143.68 C 310.521 140.925 311.052 138.198 311.78 135.52 L 311.78 135.52 Z " fill="rgb(53,56,101)"/><linearGradient id="_lgradient_58" x1="0" y1="0.5" x2="1" y2="0.5" gradientTransform="matrix(10.48,0,0,18.729,294.801,87.276)" gradientUnits="userSpaceOnUse"><stop offset="100%" stop-opacity="1" style="stop-color:rgb(229,198,214)"/><stop offset="100%" stop-opacity="1" style="stop-color:rgb(230,201,213)"/><stop offset="100%" stop-opacity="1" style="stop-color:rgb(235,214,208)"/></linearGradient><path d=" M 295.44 100.35 C 296.71 101.09 300.6 105.89 302.06 105.99 C 303.568 106.138 304.949 105.138 305.28 103.66 C 305.293 102.952 305.195 102.247 304.99 101.57 C 304.41 98.65 305.76 95.47 304.65 92.71 C 304.073 91.257 302.86 90.151 301.36 89.71 C 299.89 89.3 295.36 86.14 295.17 87.71 C 294.64 91.54 294.64 99.88 295.44 100.35 Z " fill="url(#_lgradient_58)"/><linearGradient id="_lgradient_59" x1="0" y1="0.5" x2="0.438092263594657" y2="-0.39893001317038557" gradientTransform="matrix(9.87,0,0,10.88,295.51,89.08)" gradientUnits="userSpaceOnUse"><stop offset="0%" stop-opacity="0.45401448568064184" style="stop-color:rgb(1,1,1)"/><stop offset="100%" stop-opacity="0.03696037847427551" style="stop-color:rgb(1,1,1)"/></linearGradient><path d=" M 295.51 89.08 C 295.51 89.08 296.84 97.49 300.98 99.89 C 300.98 99.89 304.92 99.96 304.92 99.96 L 305.38 94.35 L 295.51 89.08 Z " fill="url(#_lgradient_59)"/><linearGradient id="_lgradient_60" x1="0" y1="0.5" x2="1" y2="0.5" gradientTransform="matrix(18.905,0,0,24.563,294.889,72.769)" gradientUnits="userSpaceOnUse"><stop offset="100%" stop-opacity="1" style="stop-color:rgb(229,198,214)"/><stop offset="100%" stop-opacity="1" style="stop-color:rgb(230,200,213)"/><stop offset="100%" stop-opacity="1" style="stop-color:rgb(234,213,208)"/></linearGradient><path d=" M 296.73 80.75 C 295.505 82.326 294.856 84.274 294.89 86.27 C 294.933 88.254 295.34 90.213 296.09 92.05 C 296.595 93.721 297.609 95.193 298.99 96.26 C 300.112 96.891 301.373 97.234 302.66 97.26 C 304.211 97.469 305.79 97.219 307.2 96.54 C 308.4 95.769 309.384 94.706 310.06 93.45 C 311.038 91.866 311.861 90.191 312.52 88.45 C 313.499 86.098 313.923 83.552 313.76 81.01 C 313.582 78.441 312.311 76.071 310.27 74.5 C 309.16 73.802 307.929 73.32 306.64 73.08 C 305.335 72.729 303.969 72.674 302.64 72.92 C 300.63 73.457 298.908 74.755 297.84 76.54 C 296.791 78.31 296.047 80.243 295.64 82.26" fill="url(#_lgradient_60)"/><path d=" M 315.4 81.78 C 314.038 82.582 312.404 82.781 310.89 82.33 C 309.37 82 307.89 81.38 306.36 81.2 C 304.803 80.904 303.201 81.42 302.11 82.57 C 301.39 83.5 301.11 84.9 299.96 85.25 C 299.755 85.35 299.515 85.35 299.31 85.25 C 298.92 84.96 299.15 84.36 299.24 83.88 C 299.45 82.72 297.81 81.31 296.66 81.53 C 295.51 81.75 294.89 84.65 294.99 86.53 C 294.378 84.587 293.91 82.602 293.59 80.59 C 293.563 78.216 294.043 75.863 295 73.69 C 295.978 71.496 297.771 69.767 300 68.87 C 301.725 68.342 303.53 68.132 305.33 68.25 C 307.472 68.149 309.618 68.378 311.69 68.93 C 315.72 70.23 319.76 78.68 315.4 81.78 Z " fill="rgb(96,97,97)"/><linearGradient id="_lgradient_61" x1="0" y1="0.5" x2="1" y2="0.5" gradientTransform="matrix(23.911,0,0,12.727,291.058,144.811)" gradientUnits="userSpaceOnUse"><stop offset="100%" stop-opacity="1" style="stop-color:rgb(229,198,214)"/><stop offset="100%" stop-opacity="1" style="stop-color:rgb(229,199,213)"/><stop offset="100%" stop-opacity="1" style="stop-color:rgb(234,213,208)"/></linearGradient><path d=" M 303.24 147.29 C 303.786 147.336 304.335 147.265 304.85 147.08 C 305.384 146.749 305.881 146.36 306.33 145.92 C 307.62 144.92 309.39 144.84 311.03 144.82 C 311.37 144.79 311.712 144.838 312.03 144.96 C 313.03 145.44 312.71 146.89 313.03 147.96 C 313.422 148.78 313.912 149.549 314.49 150.25 C 315.457 152.227 314.926 154.611 313.21 155.99 C 311.48 157.287 309.286 157.801 307.16 157.41 C 305.074 157.004 303.055 156.311 301.16 155.35 L 295.04 152.59 C 293.61 151.95 291.79 151.13 291.25 149.52 C 290.731 148.249 291.298 146.794 292.54 146.21 C 293.83 145.7 295.54 146.28 296.78 146.55 C 298.908 146.982 301.069 147.23 303.24 147.29 L 303.24 147.29 Z " fill="url(#_lgradient_61)"/><linearGradient id="_lgradient_62" x1="0" y1="0.5" x2="0.9734443997616316" y2="0.271076430718205" gradientTransform="matrix(1.522,0,0,3.58,296.244,83.2)" gradientUnits="userSpaceOnUse"><stop offset="100%" stop-opacity="0" style="stop-color:rgb(1,1,1)"/><stop offset="100%" stop-opacity="0.21052631578946487" style="stop-color:rgb(1,1,1)"/></linearGradient><path d=" M 297.29 85 C 297.29 84.71 297.54 84.48 297.6 84.2 C 297.638 83.827 297.464 83.464 297.15 83.26 C 297.122 83.227 297.083 83.205 297.04 83.2 C 296.95 83.2 296.89 83.29 296.85 83.37 C 296.625 83.82 296.447 84.293 296.32 84.78 C 296.194 85.274 296.225 85.795 296.41 86.27 C 296.507 86.537 296.74 86.732 297.02 86.78 C 297.29 86.745 297.522 86.571 297.63 86.32 C 297.782 86.092 297.809 85.802 297.7 85.55 C 297.55 85.35 297.24 85.32 297.29 85 Z " fill="url(#_lgradient_62)"/><g style="opacity:0.24;"><g opacity="0.24"><path d=" M 357.86 118.58 L 357.86 114.81 C 352.86 114.4 350 111.46 349.58 107.49 L 353.24 107.49 C 353.637 109.827 355.518 111.627 357.87 111.92 L 357.87 101.92 C 352.37 100.26 350.22 98.19 350.22 94.35 C 350.22 90.17 353.44 87.4 357.87 87.11 L 357.87 84.3 L 360.24 84.3 L 360.24 87.15 C 365.74 87.69 367.52 91.25 367.76 93.81 L 364.24 93.81 C 363.855 91.817 362.249 90.287 360.24 90 L 360.24 99 C 366.57 100.82 368.39 103.47 368.39 107.15 C 368.39 111.74 365.32 114.43 360.24 114.8 L 360.24 118.57 L 357.86 118.58 Z  M 357.86 98.31 L 357.86 89.91 C 354.86 90.16 353.8 91.91 353.8 93.91 C 353.8 95.91 354.76 97.23 357.86 98.31 Z  M 360.22 102.61 L 360.22 111.96 C 363.07 111.67 364.6 110.22 364.6 107.53 C 364.6 105.34 363.65 103.81 360.24 102.61 L 360.22 102.61 Z " fill="rgb(104,225,253)"/></g></g><path d=" M 359 118.29 L 359 114.53 C 354 114.11 351.14 111.18 350.73 107.21 L 354.37 107.21 C 354.771 109.543 356.651 111.338 359 111.63 L 359 101.63 C 353.5 99.98 351.35 97.91 351.35 94.06 C 351.35 89.88 354.57 87.11 359 86.82 L 359 84.01 L 361.36 84.01 L 361.36 86.86 C 366.86 87.4 368.64 90.96 368.89 93.52 L 365.33 93.52 C 364.944 91.529 363.338 90.003 361.33 89.72 L 361.33 98.72 C 367.66 100.54 369.48 103.18 369.48 106.86 C 369.48 111.46 366.42 114.15 361.33 114.52 L 361.33 118.28 L 359 118.29 Z  M 359 98.02 L 359 89.63 C 356 89.87 354.95 91.63 354.95 93.63 C 354.95 95.63 355.9 96.95 359 98.02 Z  M 361.36 102.32 L 361.36 111.67 C 364.21 111.38 365.74 109.94 365.74 107.25 C 365.74 105.08 364.79 103.52 361.36 102.32 Z " fill="rgb(255,255,255)"/></g></svg>