<?xml version="1.0" encoding="utf-8"?>
<!-- Generator: Adobe Illustrator 24.0.1, SVG Export Plug-In . SVG Version: 6.00 Build 0)  -->
<svg version="1.1" id="Layer_1" xmlns="http://www.w3.org/2000/svg" xmlns:xlink="http://www.w3.org/1999/xlink" x="0px" y="0px"
	 viewBox="0 0 400 300" style="enable-background:new 0 0 400 300;" xml:space="preserve">
<style type="text/css">
	.st0{fill:url(#SVGID_1_);}
	.st1{fill:url(#SVGID_2_);}
	.st2{fill:url(#SVGID_3_);}
	.st3{fill:url(#SVGID_4_);}
	.st4{fill:url(#SVGID_5_);}
	.st5{fill:#E85642;}
	.st6{fill:#282B4E;}
	.st7{opacity:0.51;fill:#3795A5;enable-background:new    ;}
	.st8{opacity:0.78;fill:#3795A5;enable-background:new    ;}
	.st9{fill:#5ED18D;}
	.st10{fill:#146666;}
	.st11{fill:#E87D34;}
	.st12{fill:#EF8A3F;}
	.st13{fill:#FF9A55;}
	.st14{fill:#07375D;}
	.st15{fill:#FFC799;}
	.st16{fill:#9BC634;}
	.st17{fill:#FF7B61;}
	.st18{fill:#352118;}
	.st19{fill:#90BA1C;}
	.st20{fill:#3795A5;}
	.st21{fill:#FF8373;}
	.st22{fill:url(#SVGID_6_);}
</style>
<title>a</title>
<g>
	<g id="Layer_2_1_">
		<linearGradient id="SVGID_1_" gradientUnits="userSpaceOnUse" x1="39.2578" y1="201.1286" x2="338.4301" y2="201.1286">
			<stop  offset="0" style="stop-color:#F5524E"/>
			<stop  offset="1" style="stop-color:#D0342F"/>
		</linearGradient>
		<path class="st0" d="M335.7,181.4l-115.5-67.2c-1.7-1-3.8-1-5.5,0L42,213.1c-2.6,1.5-3.5,4.8-2,7.5c0.5,0.8,1.2,1.5,2,2
			l110.4,63.8c5.5,3.2,12.3,3.2,17.8,0l165.4-95.5c2.6-1.5,3.5-4.8,2-7.5C337.2,182.6,336.6,181.9,335.7,181.4z"/>
		
			<linearGradient id="SVGID_2_" gradientUnits="userSpaceOnUse" x1="258.3959" y1="74.2854" x2="250.6758" y2="64.5054" gradientTransform="matrix(1 0 0 -1 0 300)">
			<stop  offset="0" style="stop-color:#808080"/>
			<stop  offset="1" style="stop-color:#FFFFFF"/>
		</linearGradient>
		<path class="st1" d="M255.8,226.4c-4.4,2.6-7.8,4.4-14.5,8.2c5.1,3.1,7.4,4.9,7.9,5.2l15.2-8.9
			C263.2,230.3,261.2,229.1,255.8,226.4z"/>
		
			<linearGradient id="SVGID_3_" gradientUnits="userSpaceOnUse" x1="218.5075" y1="90.0232" x2="196.4975" y2="73.0732" gradientTransform="matrix(1 0 0 -1 0 300)">
			<stop  offset="0" style="stop-color:#808080"/>
			<stop  offset="1" style="stop-color:#FFFFFF"/>
		</linearGradient>
		<path class="st2" d="M207.1,200.7c-14.7,8.6-25.3,14.4-47.9,27.3c17.1,10.4,30.4,20,32.4,21.1l50.9-29.9
			C238.5,217.2,225.4,209.8,207.1,200.7z"/>
		
			<linearGradient id="SVGID_4_" gradientUnits="userSpaceOnUse" x1="181.7696" y1="58.2161" x2="169.8896" y2="43.1761" gradientTransform="matrix(1 0 0 -1 0 300)">
			<stop  offset="0" style="stop-color:#808080"/>
			<stop  offset="1" style="stop-color:#FFFFFF"/>
		</linearGradient>
		<path class="st3" d="M176,242.3c-6.7,3.9-11.4,6.5-21.7,12.4c7.8,4.7,13.8,9.1,14.7,9.6l23-13.5
			C190.2,249.8,184.3,246.4,176,242.3z"/>
		
			<linearGradient id="SVGID_5_" gradientUnits="userSpaceOnUse" x1="117.7976" y1="91.8744" x2="98.9176" y2="62.5744" gradientTransform="matrix(1 0 0 -1 0 300)">
			<stop  offset="0" style="stop-color:#808080"/>
			<stop  offset="1" style="stop-color:#FFFFFF"/>
		</linearGradient>
		<path class="st4" d="M93,202.3c-14.8,8.6-21.3,11.4-44,24.4c17.2,10.4,61.2,35.3,63.1,36.4l40.6-20.7
			C148.7,240.2,111.3,211.3,93,202.3z"/>
		<polyline class="st5" points="91.1,106.3 91.1,135.1 98.9,139.2 98.9,107.4 		"/>
		<polygon class="st6" points="284.7,65.7 284.7,165.3 152.7,242.3 152.7,129.1 		"/>
		<polygon class="st6" points="93,107.4 93,207.4 152.7,242.3 152.7,140.2 		"/>
		<polygon class="st7" points="284.7,65.7 284.7,165.3 152.7,242.3 152.7,129.1 		"/>
		<polyline class="st6" points="94.4,182.6 94.4,106.6 152.7,140.2 152.7,217.6 		"/>
		<polygon class="st8" points="93,107.4 93,207.4 152.7,242.3 152.7,140.2 		"/>
		<polygon class="st6" points="229.8,30.3 93,107.4 93,107.4 152.1,141.1 284.7,65.7 		"/>
		<polygon class="st5" points="152.9,142.1 152.9,170.4 162.5,175.9 162.5,147.6 		"/>
		<polyline class="st5" points="162.5,147.6 162.5,135.2 91.1,93.5 91.1,106.3 152.9,142.1 		"/>
		<path class="st6" d="M183.7,233.7c-3.9-0.3-8.1-1.5-11-4.2v11.6c0,6.7,5.4,12.1,12.1,12.1h0l0,0c6.7,0,12.1-5.4,12.1-12.1v0v-11.8
			C192.8,231,188.1,234.1,183.7,233.7z"/>
		<ellipse class="st9" cx="184.8" cy="229.4" rx="12.1" ry="6.4"/>
		<path class="st9" d="M184.8,230.5c0,0-8.2-1.2-10.4-14.5C174.4,216,181.4,219.9,184.8,230.5z"/>
		<path class="st9" d="M186,228.8c0,0-9.4-16.9,0-28.2C188.9,209.8,188.9,219.6,186,228.8z"/>
		<path class="st9" d="M184.8,218.2c0,0-8.2-1.2-10.4-14.5C174.4,203.7,181.4,207.6,184.8,218.2z"/>
		<path class="st9" d="M185.8,223.6c0,0-2.1-8,9.4-15.2C195.1,208.4,194.3,216.4,185.8,223.6z"/>
		<ellipse class="st10" cx="184.8" cy="229.4" rx="12.1" ry="6.4"/>
		<path class="st9" d="M184.8,230.5c0,0-8.2-1.2-10.4-14.5C174.4,216,181.4,219.9,184.8,230.5z"/>
		<path class="st9" d="M186,228.8c0,0-9.4-16.9,0-28.2C188.9,209.8,188.9,219.6,186,228.8z"/>
		<path class="st9" d="M184.8,218.2c0,0-8.2-1.2-10.4-14.5C174.4,203.7,181.4,207.6,184.8,218.2z"/>
		<path class="st9" d="M185.8,223.6c0,0-2.1-8,9.4-15.2C195.1,208.4,194.3,216.4,185.8,223.6z"/>
		<polygon class="st11" points="228.9,227 249.8,215.5 249.8,191.9 224.9,202.5 		"/>
		<polygon class="st12" points="204.3,189.2 204.3,212.8 228.9,227 229.4,203.7 		"/>
		<path class="st13" d="M224.5,177.1c-6.4,4.4-13.5,7.8-20.2,11.8v0.3l25.1,14.5l20.4-11.8L224.5,177.1z"/>
		<path class="st14" d="M232,182.1l-7.5-3.4c0,0,1.8,6.6,0.1,7.3c-0.2,0.1-0.7-0.1-0.9-0.1c-1.8-0.6-3.5-1.7-5.4-1.6
			c-1.5,0-3.8,1.3-2.7,3c0.9,1.5,11.8,8,15.6,6.7C234.8,192.9,232,182.1,232,182.1z"/>
		<path class="st15" d="M251.8,84.4c0,0,0.2-6.2-0.3-7.4s-4.3-5-5.4-5.1s-0.8,0.5-0.8,0.5s-2-0.9-2.3-0.5s-0.1,0.7,0.4,1.2
			c0,0-1.3-0.2-1.4,0.3s1,1,1,1s-1.1,0.1-1,0.7s2,1.5,2.4,2s1.4,0.8,1.4,1.6c-0.4,1.3,0,2.8,0.8,3.8c0.9,1.2,1.5,2.5,1.8,4
			C248.5,86.4,251.5,85.9,251.8,84.4z"/>
		<path class="st14" d="M256.6,214.2c0,0,2.4,10.3,1.4,10.9s-5.1,1.2-4.2,3.7s5.3,3.2,7,3.6s4.8-2.9,4.8-4.2s1.8-7.7,1.7-8.8
			s-4-6.9-4-6.9"/>
		<path class="st16" d="M268.8,144.8c0,0-0.1,43.4,0.9,49.5s2.9,19.9,2.9,19.9s-8.4,3-15.9,0c0,0-7.9-35.3-5.4-55.5
			S268.8,144.8,268.8,144.8z"/>
		<path class="st16" d="M266.7,146.7c-5.5-1.5-19.2,0-19.2,0s-19.2-3.8-25.1-3.3s-7.8,4-6.6,9s5.7,28,5.7,28s5.1,4.4,13.7,2.9
			l-2.9-21.2c0,0,17.8,8.5,28,4.3c2.7-1.1,5-2.9,6.7-5.3C266.8,156.2,266.6,151.5,266.7,146.7z"/>
		<path class="st17" d="M268.8,145.7c1.4-8.1,2.2-26.2,0.1-32c-2.6-6.8-15.4,0.6-20.4,4.3c-2.8,2.1-0.6,24.4,0,30.6
			C254,152.5,265,151.5,268.8,145.7z"/>
		<path class="st17" d="M268.4,113.7c0,0-1.9-1.8-3.4-3.3c-0.1-0.4-0.9-1.2-0.9-1.6c-1.5-1.8-2.7-3.9-3.6-6.1
			c-1.4-4-5.7-22.9-5.7-22.9s-6.7,1.1-9.7,5.7c0,0,4,19.2,7.1,25.9c1.8,3.9,4.4,7.4,7.6,10.2C264.6,120.5,265.4,110.9,268.4,113.7z"
			/>
		<path class="st15" d="M255.7,108.2c0.1,0.2,0,5.4,0,5.4s1.9,0.1,5.5-2.4l-0.3-5.6L255.7,108.2z"/>
		<path class="st15" d="M257.5,95.8c0,0-1.6,4-3.3,5.3s-3.2,4.4-1.8,7s11.8-0.7,12-3.7S263.8,94.1,257.5,95.8z"/>
		<path class="st18" d="M267.3,96.3c-1.5-1.6-3.6-2.6-5.9-2.7c-3.4,0.1-5.2,2-4.9,4s2.8,2.8,2.9,3.9s-1.6,6.6-0.8,8s2.3,1.2,3.9,1.1
			s6.6-3.7,7.5-8.1C270.6,100.1,269.5,97.6,267.3,96.3z"/>
		<path class="st17" d="M252.4,116.2c0,0-14.8-2.2-16-2.9s-3.2-13.2-3.2-13.2c-2.6,0.6-5.1,1.4-7.6,2.2c0,0,0.1,14.1,2.1,18.3
			s20,8.1,20,8.1"/>
		<path class="st19" d="M250.7,167.3c0,0,7.9,1.6,13.6-3.5l-12.2,24.4C252.2,188.2,250.5,170.7,250.7,167.3z"/>
		<polygon class="st11" points="228.9,94.8 249.8,83.3 249.8,59.8 224.9,70.3 		"/>
		<polygon class="st12" points="204.3,57.1 204.3,80.6 228.9,94.8 229.4,71.6 		"/>
		<path class="st13" d="M224.5,45c-6.4,4.4-13.5,7.8-20.2,11.8v0.3l25.1,14.5l20.4-11.8L224.5,45z"/>
		<path class="st15" d="M224.3,94.8c1.2,2,2,4.2,2.6,6.5c0,0.1,0.1,0.4,0.1,0.8l1.7-0.3c1.2-0.2,2.5-0.5,3.7-0.9
			c-0.2-1.9-0.4-4-0.6-5.6c0.1-1.3,0.4-2.6,0.9-3.8c0.4-0.8,0.5-1.8,0.4-2.7c-0.1-0.3-0.3-0.4-0.6-0.4c-0.7,0-0.9,0.5-1.2,1
			c-0.4,0.7-0.9,1.3-1.3,2c-1.7-1.9-4.2-4.2-5.1-4.3c-1.3-0.2-0.9,0.6-0.9,0.6s-2.4-1-2.8-0.7s-0.2,0.9,0.5,1.4c0,0-1.5-0.3-1.7,0.4
			s1.2,1.2,1.2,1.2s-1.3,0.1-1.2,0.8s2.5,1.8,2.9,2.4S223.9,94.1,224.3,94.8z"/>
		<path class="st15" d="M250.5,78.7c-0.1,0-0.2-0.1-0.3-0.2c0.2-0.1,0.3-0.3,0.3-0.6c-0.1-0.6-0.3-1.1-0.5-1.6
			c0.3,0,0.6-0.1,0.6-0.4c0-0.1,0-0.3-0.1-0.4c-0.7-0.8-1.4-1.5-2.2-2.1c-0.4-0.3-0.9-0.9-1.4-0.8c-0.2,0-0.4,0.2-0.5,0.4
			c-0.6,1.5,1.7,2.4,2.1,3.6s0.3,2.5,1.6,3.1C250.6,79.8,251.1,78.9,250.5,78.7z"/>
		<polygon class="st20" points="192,158.1 152.7,201.7 152.9,170.4 		"/>
		<polygon class="st17" points="91.1,106.3 91.1,93.5 117.2,78.7 192,117.9 192,158.1 162.5,175.9 162.5,147.6 		"/>
		<polygon class="st21" points="162.5,135.2 192,117.9 192,158.1 162.5,175.9 		"/>
		<linearGradient id="SVGID_6_" gradientUnits="userSpaceOnUse" x1="91.12" y1="134.695" x2="162.5" y2="134.695">
			<stop  offset="0" style="stop-color:#F5524E"/>
			<stop  offset="1" style="stop-color:#D0342F"/>
		</linearGradient>
		<polyline class="st22" points="91.1,135.1 162.5,175.9 162.5,135.2 91.1,93.5 		"/>
		<path class="st15" d="M131.2,120.8c0.7-1.4,1.1-2.9,1.3-4.4c0.1-1.3-1-5.9,0-6.2s1.7,3.2,1.7,3.2s0.2-7.6,1.1-7.6s0.9,4.1,0.9,4.1
			s0.9-5.2,1.8-5s0,6.2,0,6.2s0.8-5.1,1.9-4.8s0,5.5,0,5.5s0.9-2.3,1.6-1.6s-2.3,7.6-2.7,8.4s-3.1,5-3.4,5.2
			S131.2,120.8,131.2,120.8z"/>
		<path class="st15" d="M117,115.1c-1.9,1.2,5.2-7.3,5.2-8.6s1-5.9,0-6.2s-1.7,3.2-1.7,3.2s-0.2-7.6-1.1-7.6s-0.9,4.1-0.9,4.1
			s-0.8-5.2-1.8-5s0,6.2,0,6.2s-0.8-5.1-1.8-4.8s0,5.5,0,5.5s-0.9-2.3-1.6-1.6s1.6,5.9,1.9,6.7s-4.6,6.7-4.3,6.9
			S117,115.1,117,115.1z"/>
		<path class="st17" d="M88.8,128.7c0,0,13.3-10.2,14.5-11s11.5-11.1,11.5-11.1c2.3,1.2,4.6,2.2,7,3.1c0,0-9.1,12.2-13,15.6
			c-3.5,3-14.2,11.4-14.2,11.4"/>
		<path class="st14" d="M89,219.4c0,0-1.9,8-0.7,8.9c0,0,6.9-3.6,8-0.7c0.9,2.4-3.9,4.2-7.1,5.7c-2.7,1.3-8.1,3-9.1,0.6
			s3.6-19.3,3.6-19.3"/>
		<path class="st14" d="M109.9,232.6c0,0-0.6,8.2,0.7,8.9c0,0,7.3-3.9,8.8-1.1c1.2,2.2-3.9,5.3-6.7,6.6s-8,3.6-9.3,1.4
			s0.5-19.6,0.5-19.6"/>
		<path class="st18" d="M91,223.6c2.5-11,10.3-46.5,9.3-57.6c-1.1-13.3-11.5-9.4-11.5-9.4s-3.8,19.8-6.5,35
			c-2.2,12.1-4,27.7-4.6,33.7C82.1,227.4,87.7,227.1,91,223.6z"/>
		<path class="st18" d="M113.7,235.8c-0.2-17.3-0.4-63.2-5.3-73.9c-6.2-13.6-12.8,0.2-12.8,6.5c0,5.8,4.8,63.8,5.5,72
			C105.5,242.5,112.2,240.5,113.7,235.8z"/>
		<path class="st17" d="M108.6,162.6c0.7-7,2.7-27.8-0.1-29.9c-5-3.7-17.2-10.8-19.7-4c-2,5.3-1.5,21.2-0.3,30
			C94.3,162.1,101.9,164.2,108.6,162.6z"/>
		<path class="st15" d="M101.2,122.8c-0.1,0.2,0,5.5,0,5.5s-1.9,0.1-5.5-2.4l0.3-5.6L101.2,122.8z"/>
		<path class="st15" d="M99.5,110.4c0,0,1.6,4,3.3,5.3s3.2,4.4,1.8,7s-11.8-0.7-12-3.7S93.2,108.8,99.5,110.4z"/>
		<path class="st18" d="M89.6,110.9c1.5-1.6,3.6-2.6,5.9-2.7c3.4,0.1,5.2,2,4.9,4s-2.8,2.8-2.9,3.9s1.6,6.6,0.8,8s-2.3,1.2-3.9,1.1
			s-6.6-3.7-7.5-8.1C86.3,114.7,87.4,112.2,89.6,110.9z"/>
		<path class="st17" d="M104.5,130.8c0,0,14.8-2.2,16-2.9s11.5-11.1,11.5-11.1c2.3,1.2,4.6,2.2,7,3.1c0,0-9.1,12.2-13,15.6
			c-3.5,3-17.8,9.6-17.8,9.6"/>
	</g>
</g>
</svg>
