<?xml version="1.0" encoding="utf-8"?>
<!-- Generator: Adobe Illustrator 24.0.1, SVG Export Plug-In . SVG Version: 6.00 Build 0)  -->
<svg version="1.1" id="Layer_1" xmlns="http://www.w3.org/2000/svg" xmlns:xlink="http://www.w3.org/1999/xlink" x="0px" y="0px"
	 viewBox="0 0 527.3 407.1" style="enable-background:new 0 0 527.3 407.1;" xml:space="preserve">
<style type="text/css">
	.st0{clip-path:url(#SVGID_2_);}
	.st1{fill:#282B4E;}
	.st2{fill:url(#SVGID_3_);}
	.st3{fill:#393D6A;}
	.st4{fill:url(#SVGID_4_);}
	.st5{fill:url(#SVGID_5_);}
	.st6{fill:url(#SVGID_6_);}
	.st7{fill:#1E213B;}
	.st8{fill:url(#SVGID_7_);}
	.st9{fill:url(#SVGID_8_);}
	.st10{fill:url(#SVGID_9_);}
	.st11{fill:url(#SVGID_10_);}
	.st12{fill:url(#SVGID_11_);}
	.st13{fill:url(#SVGID_12_);}
	.st14{fill:#FFFFFF;}
	.st15{fill:#888DC3;}
	.st16{fill:#1C1E37;}
	.st17{fill:url(#SVGID_13_);}
	.st18{fill:#F3A984;}
	.st19{fill:url(#SVGID_14_);}
	.st20{fill:url(#SVGID_15_);}
	.st21{fill:url(#SVGID_16_);}
	.st22{fill:#606161;}
	.st23{fill:url(#SVGID_17_);}
	.st24{fill:url(#SVGID_18_);}
	.st25{fill:url(#SVGID_19_);}
	.st26{fill:url(#SVGID_20_);}
	.st27{fill:url(#SVGID_21_);}
	.st28{fill:url(#SVGID_22_);}
	.st29{fill:url(#SVGID_23_);}
	.st30{fill:url(#SVGID_24_);}
	.st31{fill:#1A1C33;}
	.st32{fill:url(#SVGID_25_);}
</style>
<g>
	<defs>
		<rect id="SVGID_1_" width="527.3" height="407.1"/>
	</defs>
	<clipPath id="SVGID_2_">
		<use xlink:href="#SVGID_1_"  style="overflow:visible;"/>
	</clipPath>
	<g class="st0">
		<path class="st1" d="M302.7,209.3c0,0,90.4,82.7,70.1,110.2c-16.4,22.3-60.7,37.9-77,43c-3.9,1.2-8.2,0.9-11.8-0.9l-98.1-47.9
			c-1.8-0.9-2.8-2.9-2.5-4.9c0.3-2,1.9-3.6,3.9-3.9c20.1-3,53.9-9.6,63.8-21.4c14.4-17.1-53.3-83.2-53.3-83.2L302.7,209.3z"/>
		
			<linearGradient id="SVGID_3_" gradientUnits="userSpaceOnUse" x1="63.6676" y1="353.8314" x2="64.6676" y2="353.8314" gradientTransform="matrix(192.557 0 0 -162.971 -12076.4775 57946.082)">
			<stop  offset="0" style="stop-color:#010101;stop-opacity:0"/>
			<stop  offset="0.95" style="stop-color:#010101"/>
		</linearGradient>
		<path class="st2" d="M302.7,209.3c0,0,90.4,82.7,70.1,110.2c-16.4,22.3-60.7,37.9-77,43c-3.9,1.2-8.2,0.9-11.8-0.9l-98.1-47.9
			c-1.8-0.9-2.8-2.9-2.5-4.9c0.3-2,1.9-3.6,3.9-3.9c20.1-3,53.9-9.6,63.8-21.4c14.4-17.1-53.3-83.2-53.3-83.2L302.7,209.3z"/>
		<path class="st3" d="M303.3,203c0,0,90.4,82.7,70.1,110.2c-16.5,22.3-60.7,37.9-77,43.1c-3.9,1.2-8.2,0.9-11.9-0.9l-98.1-47.9
			c-1.8-0.9-2.8-2.9-2.5-4.9c0.3-2,1.9-3.6,3.9-3.9c20.1-3,53.9-9.6,63.8-21.4c14.4-17.1-53.3-83.2-53.3-83.2L303.3,203z"/>
		
			<linearGradient id="SVGID_4_" gradientUnits="userSpaceOnUse" x1="63.6006" y1="354.0563" x2="64.4588" y2="354.5695" gradientTransform="matrix(119.94 0 0 -69.17 -7367.5903 24808.0586)">
			<stop  offset="1" style="stop-color:#010101;stop-opacity:0"/>
			<stop  offset="1" style="stop-color:#010101;stop-opacity:1.041488e-02"/>
		</linearGradient>
		<path class="st4" d="M244.6,284l101.5,53c0,0,15.7-9,18.4-15.3l-99.3-53.9l-13.8,9.4L244.6,284z"/>
		<path class="st1" d="M365.1,332L154.5,225.5c-9.2-4.7-14.9-13.3-14.9-22.6V32.7c0-20.1,24.9-32.7,44.8-22.7L395,116.6
			c9.2,4.7,14.9,13.3,14.9,22.7v170.1C409.9,329.5,385,342,365.1,332z"/>
		<linearGradient id="SVGID_5_" gradientUnits="userSpaceOnUse" x1="139.54" y1="171.0025" x2="409.88" y2="171.0025">
			<stop  offset="0" style="stop-color:#000000;stop-opacity:0"/>
			<stop  offset="1" style="stop-color:#FFFFFF;stop-opacity:0.37"/>
		</linearGradient>
		<path class="st5" d="M409.9,139.2v170.1c0,11.8-8.6,21-19.6,24.6c-8.3,2.7-17.3,2-25.1-1.9L154.5,225.5
			c-9.2-4.7-14.9-13.3-14.9-22.6V32.7c0-8.5,4.4-15.6,11-20.2c10-7,23-7.9,33.8-2.4L395,116.6C404.2,121.2,409.9,129.9,409.9,139.2z
			"/>
		
			<linearGradient id="SVGID_6_" gradientUnits="userSpaceOnUse" x1="64.2347" y1="353.598" x2="64.6044" y2="354.8153" gradientTransform="matrix(261.74 0 0 -324.734 -16547.8203 115020.625)">
			<stop  offset="0" style="stop-color:#FFFFFF;stop-opacity:0"/>
			<stop  offset="0.6625" style="stop-color:#FFFFFF;stop-opacity:0.37"/>
		</linearGradient>
		<path class="st6" d="M401.3,143.5v170.1c0,8.5-4.4,15.6-11,20.3c-8.3,2.7-17.3,2-25.1-1.9L154.5,225.5
			c-9.2-4.7-14.9-13.3-14.9-22.6V32.7c0-8.5,4.4-15.6,11-20.2c8.3-2.7,17.4-2.1,25.2,1.9l210.6,106.5
			C395.6,125.6,401.3,134.2,401.3,143.5z"/>
		<path class="st7" d="M188.9,148.2l183.4,93c2.4,1.2,3.8,3.8,3.5,6.4l0,0c-0.2,2.1-1.4,4-3.3,5c-1.9,1-4.1,1.1-6,0.2l-202.7-98.2
			c-2.7-1.3-4.1-4.2-3.5-7.1l0.7-3.4c0.4-1.8,1.5-3.4,3.2-4.4c1.6-0.9,3.6-1.1,5.4-0.5C169.4,139.2,188.6,148,188.9,148.2z"/>
		<path class="st1" d="M323,216.3l-144.9,73.3c-9.4,4.8-25.9,4.2-36.8-1.3l-87.7-44.4c-7.4-3.8-10.3-8.8-8.4-13.2
			c1.1,2.8,4,5.5,8.4,7.8l73.6,37.2l10.7,5.4l3.5,1.8c0.4,0.2,0.8,0.4,1.2,0.5c0.5,0.2,1,0.5,1.5,0.7c0.5,0.2,0.9,0.4,1.4,0.5
			c0.3,0.1,0.7,0.2,1,0.3c0.6,0.2,1.2,0.4,1.9,0.6c0.6,0.2,1.3,0.4,1.9,0.5c0.7,0.2,1.3,0.3,2,0.4c1.3,0.2,2.7,0.5,4,0.6
			c0.4,0.1,0.8,0.1,1.2,0.1c0.4,0,1,0.1,1.6,0.1c7.1,0.4,14.1-0.6,19.1-3.1l139.5-70.6L323,216.3z"/>
		
			<linearGradient id="SVGID_7_" gradientUnits="userSpaceOnUse" x1="64.2694" y1="354.6271" x2="64.2865" y2="352.3486" gradientTransform="matrix(278.327 0 0 -79.175 -17704.2852 28295.582)">
			<stop  offset="0" style="stop-color:#5F6395"/>
			<stop  offset="0.6292" style="stop-color:#343257;stop-opacity:4.472812e-03"/>
		</linearGradient>
		<path class="st8" d="M323,216.3l-144.9,73.3c-9.4,4.8-25.9,4.2-36.8-1.3l-87.7-44.4c-7.4-3.8-10.3-8.8-8.4-13.2
			c1.1,2.8,4,5.5,8.4,7.8l73.6,37.2l10.7,5.4l3.5,1.8c0.4,0.2,0.8,0.4,1.2,0.5c0.5,0.2,1,0.5,1.5,0.7c0.5,0.2,0.9,0.4,1.4,0.5
			c0.3,0.1,0.7,0.2,1,0.3c0.6,0.2,1.2,0.4,1.9,0.6c0.6,0.2,1.3,0.3,1.9,0.5s1.3,0.3,2,0.4c1.3,0.2,2.7,0.5,4,0.6
			c0.4,0.1,0.8,0.1,1.2,0.1c0.4,0,1,0.1,1.6,0.1c7.1,0.4,14.1-0.6,19.1-3.1l139.5-70.6L323,216.3z"/>
		<linearGradient id="SVGID_8_" gradientUnits="userSpaceOnUse" x1="44.6363" y1="218.6045" x2="317.63" y2="218.6045">
			<stop  offset="0" style="stop-color:#F5524E"/>
			<stop  offset="1" style="stop-color:#D0342F"/>
		</linearGradient>
		<path class="st9" d="M317.6,213.6l-139.5,70.6c-8.1,4.1-21.3,4.2-31.7,0.7c-1.3-0.4-2.6-0.9-3.9-1.5c-0.4-0.1-0.8-0.3-1.2-0.5
			l-3.5-1.8l-10.7-5.4l-73.6-37.2c-4.4-2.3-7.3-5-8.4-7.8c-1.6-4,0.2-8,5.8-10.9l138.6-70.1l93.7,46.7l19,9.5L317.6,213.6z"/>
		
			<linearGradient id="SVGID_9_" gradientUnits="userSpaceOnUse" x1="63.7555" y1="353.868" x2="64.7555" y2="353.868" gradientTransform="matrix(261.74 0 0 -171.202 -16547.8203 60823.8281)">
			<stop  offset="0" style="stop-color:#F5524E"/>
			<stop  offset="1" style="stop-color:#D0342F"/>
		</linearGradient>
		<path class="st10" d="M401.3,288.5v16.1c0,8.5-4.4,15.6-11,20.3c-8.3,2.7-17.3,2-25.1-1.9L154.5,216.5
			c-9.2-4.7-14.9-13.3-14.9-22.6V156l0.9-0.7L401.3,288.5z"/>
		<path class="st7" d="M91,238.6c-0.2,2.6,1.5,5,3.6,6.5c2.2,1.3,4.7,2.2,7.3,2.7c16.6,3.9,33.6,7.8,50.5,5.2
			c1.3-0.1,2.5-0.6,3.5-1.4c1-1.1,1.1-2.8,1.7-4.2c1.3-2.9,5-4,8.3-4c3.3,0,6.5,0.8,9.7-0.1c3.1-0.8,6-4,4.9-7.1
			c-0.7-1.9-2.7-3-4.6-3.9c-15.9-7.4-33.3-11-50.9-10.7c-7.3,0.2-10.7,2.5-16.8,5.7C103.2,229.9,91.6,231.5,91,238.6z"/>
		
			<linearGradient id="SVGID_10_" gradientUnits="userSpaceOnUse" x1="63.6348" y1="354.1094" x2="64.6348" y2="354.1094" gradientTransform="matrix(175.25 0 0 -88.61 -11024.9297 31618.4609)">
			<stop  offset="0" style="stop-color:#414466"/>
			<stop  offset="1" style="stop-color:#1A1D37"/>
		</linearGradient>
		<path class="st11" d="M283.3,196.5l19,9.5l-156,78.9l-0.4,0.2l-3.5-1.7l-4.7-2.3l-10.8-5.3l0.1,0L283.3,196.5L283.3,196.5z"/>
		
			<linearGradient id="SVGID_11_" gradientUnits="userSpaceOnUse" x1="48.5981" y1="377.2838" x2="49.4363" y2="376.7385" gradientTransform="matrix(4.12 0 0 -2.29 170.05 1032.4199)">
			<stop  offset="1" style="stop-color:#010101;stop-opacity:0"/>
			<stop  offset="1" style="stop-color:#010101;stop-opacity:7.745633e-02"/>
		</linearGradient>
		<path class="st12" d="M373.9,169.8l-0.5,0.2c-1.1-0.9-2.4-1.6-3.7-2.3L373.9,169.8z"/>
		<linearGradient id="SVGID_12_" gradientUnits="userSpaceOnUse" x1="199.9666" y1="129.6143" x2="330.0133" y2="129.6143">
			<stop  offset="0" style="stop-color:#F5524E"/>
			<stop  offset="1" style="stop-color:#D0342F"/>
		</linearGradient>
		<path class="st13" d="M313.7,177.5l-95.5-48.9c-9.5-4.8-17.6-18-18-29.4l-0.2-5.5c-0.5-11.4,6.8-16.7,16.3-11.9l95.5,48.9
			c9.5,4.8,17.5,18,18,29.4l0.2,5.5C330.5,177,323.2,182.3,313.7,177.5z"/>
		<path class="st14" d="M232.7,122.1c0.1-0.9,0.2-1.9,0.1-2.8v-10.5c0-1,0-2-0.1-2.9c0.9,0.5,1.6,1,2.8,1.7l4.1,2.4
			c3.7,2.2,5.8,5.2,5.8,8.6s-2.2,4.3-5.8,2.2l-3-1.7v2.5c0,1,0,2,0.1,3L232.7,122.1z M239.4,117.2c1.3,0.8,2.1,0.4,2.1-0.9
			c0-1.4-0.8-2.6-2.1-3.3l-2.8-1.6v4.1L239.4,117.2z"/>
		<path class="st14" d="M264.1,140.3c-0.1-0.8-0.3-1.6-0.5-2.4l-0.5-2l-5.4-3.1l-0.5,1.4c-0.2,0.6-0.4,1.2-0.5,1.8l-4.4-2.5
			c0.4-0.6,0.7-1.2,0.9-1.8l4.1-9.4c0.3-0.6,0.5-1.2,0.6-1.8l4.9,2.9c0.2,0.8,0.4,1.7,0.6,2.5l4.1,14.1c0.4,1.2,0.7,2.2,0.9,2.9
			L264.1,140.3z M260.4,125.3l-1.8,4.8l3.5,2.1L260.4,125.3z"/>
		<path class="st14" d="M284.7,149.4c0,1,0,2,0.2,3l-4.1-2.4c0.1-0.9,0.2-1.9,0.2-2.8v-3.6l-4.3-9.9c-0.3-0.8-0.8-1.7-1.5-3.2
			l4.8,2.8c0.2,0.9,0.5,1.7,0.9,2.6l2.1,5.2l2.1-2.7c0.4-0.5,0.7-1,0.9-1.6l4.8,2.8c-0.6,0.5-1.3,1.2-1.5,1.5l-4.3,4.9V149.4z"/>
		<path class="st15" d="M115.2,196.5l-0.6-0.3l3.7-7.6c0.3-0.8,0.8-1.6,1.4-2.3c0.6-0.6,1.3-1.1,2.1-1.4c0.2-0.1,0.4-0.1,0.6-0.1
			c0.3,0,0.6,0.2,0.9,0.4c0.7,0.7,1.2,1.7,1.2,2.8c0.3,2.5,0.2,5-0.3,7.4l-0.6-0.1c0.5-2.4,0.6-4.8,0.3-7.2c0-0.9-0.4-1.7-1-2.4
			c-0.1-0.1-0.3-0.2-0.5-0.2l0,0c-0.1,0-0.2,0-0.3,0.1c-0.7,0.2-1.4,0.7-1.9,1.2c-0.5,0.6-1,1.4-1.3,2.1L115.2,196.5z"/>
		<path class="st1" d="M126.1,194.1c0.1,3.3,0.2,6.5,0.4,9.8c0.1,4.5,0.7,8.9,1.9,13.3c0.2,0.5,0.3,1,0.1,1.6
			c-0.2,0.3-0.6,0.6-0.9,0.7c-3.7,1.7-7.4,3.4-11.4,3.9c-3.5,0.2-7,0-10.5-0.7c-0.1,0-0.3-0.1-0.4-0.1c-0.2-0.2-0.2-0.5-0.1-0.8
			c0.8-3.9,0.3-7.9,0.9-11.8c0.6-3.9,2.3-7.6,4-11.2c0.7-1.6,1.6-1.6,3.3-1.9l6.1-1.3C119.9,195.4,126.1,194.3,126.1,194.1z"/>
		<path class="st16" d="M126.1,194.1c0.1,3.3,0.2,6.5,0.4,9.8c0.1,4.5,0.7,8.9,1.9,13.3c0.2,0.5,0.3,1,0.1,1.6
			c-0.2,0.3-0.6,0.6-0.9,0.7c-3.7,1.7-7.4,3.4-11.4,3.9c-3.5,0.2-7,0-10.5-0.7c-0.1,0-0.3-0.1-0.4-0.1c-0.2-0.2-0.2-0.5-0.1-0.8
			c0.8-3.9,0.3-7.9,0.9-11.8c0.6-3.9,2.3-7.6,4-11.2c0.7-1.6,1.6-1.6,3.3-1.9l6.1-1.3C119.9,195.4,126.1,194.3,126.1,194.1z"/>
		<path class="st1" d="M130.2,147.3c-1.9,0.3-3.1,2.1-4,3.8c-1.5,2.4-2.8,5-3.8,7.7c-0.8,2.8-1.4,5.6-1.6,8.5
			c-0.3,3.7-0.6,7.5-0.7,11.2c0,1.2,0.1,2.6,1.1,3.2c0.8,0.4,1.8,0.2,2.5-0.4c0.6-0.6,1.1-1.4,1.3-2.3c1-2.7,1.4-5.6,2.5-8.3
			c0.7-1.7,1.6-3.3,2.4-5c2.6-6,2.8-12.8,0.5-18.9L130.2,147.3z"/>
		
			<linearGradient id="SVGID_13_" gradientUnits="userSpaceOnUse" x1="58.6291" y1="354.9748" x2="59.6219" y2="355.0946" gradientTransform="matrix(11.899 0 0 -35.101 -577.416 12626.6143)">
			<stop  offset="1" style="stop-color:#010101"/>
			<stop  offset="1" style="stop-color:#010101;stop-opacity:0.9522"/>
		</linearGradient>
		<path class="st17" d="M130.2,147.3c-1.9,0.3-3.1,2.1-4,3.8c-1.5,2.4-2.8,5-3.8,7.7c-0.8,2.8-1.4,5.6-1.6,8.5
			c-0.3,3.7-0.6,7.5-0.7,11.2c0,1.2,0.1,2.6,1.1,3.2c0.8,0.4,1.8,0.2,2.5-0.4c0.6-0.6,1.1-1.4,1.3-2.3c1-2.7,1.4-5.6,2.5-8.3
			c0.7-1.7,1.6-3.3,2.4-5c2.6-6,2.8-12.8,0.5-18.9L130.2,147.3z"/>
		<path class="st18" d="M119.7,184.9c-0.1,1.1,0.1,2.2,0.6,3.1c0.5,1,1.6,1.5,2.7,1.4c1.1-0.3,1.9-1.3,1.9-2.5
			c-0.1-0.5-0.1-0.9,0-1.4c0.1-0.2,0.2-0.5,0.2-0.7c0.2-0.8-0.4-1.6-0.5-2.4c-0.1-0.8,0.2-1.5-0.2-2.2c-0.9-1.1-2.4-1.4-3.5-0.7
			C119.8,180.4,119.7,183.6,119.7,184.9z"/>
		<path class="st15" d="M118.9,197.5l-0.6-0.2l2.4-8.1c0.2-0.9,0.5-1.7,1-2.5c0.5-0.7,1.1-1.3,1.9-1.7c0.2-0.1,0.4-0.2,0.6-0.2
			c0.3,0,0.6,0.1,0.9,0.2c0.8,0.6,1.4,1.5,1.7,2.6c0.7,2.4,1,4.9,0.9,7.4h-0.6c0.1-2.4-0.2-4.9-0.9-7.2c-0.2-0.9-0.7-1.6-1.4-2.2
			c-0.1-0.1-0.3-0.2-0.5-0.2c-0.1,0-0.2,0.1-0.4,0.1c-0.7,0.4-1.2,0.9-1.6,1.5c-0.4,0.7-0.7,1.5-0.9,2.3L118.9,197.5z"/>
		<path class="st1" d="M129.2,193.4c0.6,3.2,1.3,6.4,2,9.6c0.8,4.4,2.1,8.7,4,12.8c0.3,0.4,0.4,1,0.3,1.5c-0.2,0.4-0.5,0.7-0.8,0.8
			c-3.3,2.2-6.7,4.5-10.6,5.6c-3.4,0.8-6.9,1.1-10.4,1c-0.1,0-0.3,0-0.4-0.1c-0.2-0.1-0.3-0.5-0.2-0.8c0.2-3.9-1-7.8-1-11.8
			s1-7.9,2.1-11.7c0.5-1.7,1.3-1.8,2.9-2.4l5.8-2.2C123.3,195.6,129.2,193.6,129.2,193.4z"/>
		
			<linearGradient id="SVGID_14_" gradientUnits="userSpaceOnUse" x1="61.9459" y1="354.7859" x2="61.4261" y2="355.6122" gradientTransform="matrix(23.567 0 0 -31.463 -1332.338 11385.292)">
			<stop  offset="0" style="stop-color:#313353"/>
			<stop  offset="1" style="stop-color:#434E88"/>
		</linearGradient>
		<path class="st19" d="M129.2,193.4c0.6,3.2,1.3,6.4,2,9.6c0.8,4.4,2.1,8.7,4,12.8c0.3,0.4,0.4,1,0.3,1.5c-0.2,0.4-0.5,0.7-0.8,0.8
			c-3.3,2.2-6.7,4.5-10.6,5.6c-3.4,0.8-6.9,1.1-10.4,1c-0.1,0-0.3,0-0.4-0.1c-0.2-0.1-0.3-0.5-0.2-0.8c0.2-3.9-1-7.8-1-11.8
			s1-7.9,2.1-11.7c0.5-1.7,1.3-1.8,2.9-2.4l5.8-2.2C123.3,195.6,129.2,193.6,129.2,193.4z"/>
		<path class="st18" d="M132.6,236.6c0,0.4,0.2,0.7,0.4,0.9c0.4,0.2,0.8,0.3,1.2,0.3c2.4-0.2,4.8-1,6.8-2.5c0.8-0.5,1.6-1.5,1.1-2.3
			c-0.3-0.4-0.8-0.7-1.4-0.8c-0.9-0.2-1.9-0.3-2.8-0.3c-0.2,0-0.5,0-0.7-0.1c-0.4-0.2-0.5-0.8-0.5-1.3c0-4.8,0.1-9.6,0.4-14.3
			c0.1-1.1,0.1-2.1-0.1-3.2c-0.2-1.1-0.8-2-1.6-2.7c-1.1-0.7-3.4-0.6-4.1,0.7c-0.3,0.6,0,1.4,0.1,2c0.1,1.1,0.1,2.2,0.1,3.3
			c0.1,4.3-0.1,8.6,0.1,12.9C131.8,231.8,132.1,234.3,132.6,236.6L132.6,236.6z"/>
		<path class="st1" d="M137.5,232.5c-0.1,0.2-0.1,0.4-0.1,0.6c0.1,0.6,0,1.3-0.3,1.8c-0.6,1-1.9,1.2-3.1,1.1c-0.6,0-1.3,0-1.6,0.4
			c-0.1,0.3-0.2,0.6-0.2,0.9c0,0.4,0,0.8,0.1,1.2c0,0.1,0,0.3,0.1,0.4c0.1,0.1,0.2,0.2,0.4,0.2c1.1,0.2,2.3,0.1,3.3-0.4l5.6-2.3
			c2-0.8,2.7-2.6,0.5-3.7C141.4,232.3,138.2,231.6,137.5,232.5z"/>
		
			<linearGradient id="SVGID_15_" gradientUnits="userSpaceOnUse" x1="58.8647" y1="361.0537" x2="59.0536" y2="360.0718" gradientTransform="matrix(11.422 0 0 -7.235 -534.703 2847.259)">
			<stop  offset="1" style="stop-color:#010101;stop-opacity:0"/>
			<stop  offset="1" style="stop-color:#010101;stop-opacity:0.101"/>
		</linearGradient>
		<path class="st20" d="M137.5,232.5c-0.1,0.2-0.1,0.4-0.1,0.6c0.1,0.6,0,1.3-0.3,1.8c-0.6,1-1.9,1.2-3.1,1.1c-0.6,0-1.3,0-1.6,0.4
			c-0.1,0.3-0.2,0.6-0.2,0.9c0,0.4,0,0.8,0.1,1.2c0,0.1,0,0.3,0.1,0.4c0.1,0.1,0.2,0.2,0.4,0.2c1.1,0.2,2.3,0.1,3.3-0.4l5.6-2.3
			c2-0.8,2.7-2.6,0.5-3.7C141.4,232.3,138.2,231.6,137.5,232.5z"/>
		<path class="st18" d="M143.5,240.8c0,0.4,0.2,0.7,0.4,1c0.4,0.2,0.8,0.3,1.2,0.2c2.5-0.2,4.8-1.1,6.8-2.5c0.8-0.5,1.6-1.5,1.1-2.3
			c-0.3-0.4-0.8-0.7-1.4-0.8c-0.9-0.2-1.9-0.3-2.8-0.3c-0.2,0-0.5,0-0.7-0.1c-0.4-0.2-0.5-0.8-0.5-1.3c0-4.8,0.1-9.5,0.4-14.3
			c0.1-1.1,0.1-2.1-0.1-3.2c-0.2-1.1-0.7-2-1.6-2.7c-1.1-0.7-3.4-0.6-4.1,0.7c-0.3,0.6,0,1.4,0.1,2c0.1,1.1,0.1,2.2,0.1,3.3
			c0.1,4.3-0.1,8.6,0.1,12.9C142.8,235.9,143,238.4,143.5,240.8L143.5,240.8z"/>
		<path class="st1" d="M148.8,236.4c-0.1,0.2-0.1,0.4-0.1,0.6c0.1,0.6,0,1.3-0.3,1.8c-0.6,1-1.9,1.1-3.1,1.1c-0.6,0-1.3-0.1-1.6,0.4
			c-0.1,0.3-0.2,0.6-0.2,0.9c0,0.4,0,0.8,0.1,1.2c0,0.1,0,0.3,0.1,0.4c0.1,0.1,0.2,0.2,0.4,0.2c1.1,0.2,2.3,0.1,3.3-0.5l5.6-2.2
			c2-0.8,2.7-2.6,0.5-3.7C152.7,236.2,149.4,235.6,148.8,236.4z"/>
		
			<linearGradient id="SVGID_16_" gradientUnits="userSpaceOnUse" x1="58.8899" y1="361.0379" x2="58.9645" y2="360.0407" gradientTransform="matrix(11.422 0 0 -7.199 -523.473 2838.4319)">
			<stop  offset="1" style="stop-color:#010101;stop-opacity:0"/>
			<stop  offset="1" style="stop-color:#010101;stop-opacity:6.989586e-02"/>
		</linearGradient>
		<path class="st21" d="M148.8,236.4c-0.1,0.2-0.1,0.4-0.1,0.6c0.1,0.6,0,1.3-0.3,1.8c-0.6,1-1.9,1.1-3.1,1.1
			c-0.6,0-1.3-0.1-1.6,0.4c-0.1,0.3-0.2,0.6-0.2,0.9c0,0.4,0,0.8,0.1,1.2c0,0.1,0,0.3,0.1,0.4c0.1,0.1,0.2,0.2,0.4,0.2
			c1.1,0.2,2.3,0.1,3.3-0.5l5.6-2.2c2-0.8,2.7-2.6,0.5-3.7C152.7,236.2,149.4,235.6,148.8,236.4z"/>
		<path class="st22" d="M129.9,182.6c-0.7,3.2-1.1,6.5-1,9.8l-0.4,13.4c-0.1,2.3-0.1,4.6,0.9,6.6c1.1,1.9,2.8,3.5,4.9,4.3
			c4.6,2.1,9.9,1.9,14.9,1.7c1,0.1,2-0.2,2.9-0.7c1.2-0.8,1.5-2.4,1.6-3.8c0.3-4.4-1.1-8.7-2-13c-0.7-3.7-1.1-7.4-1.1-11.2
			c0.1-1-0.1-2.1-0.6-3c-0.4-0.5-1-1-1.6-1.3c-3.2-1.8-6.5-3.2-10-4.2c-1.8-0.7-3.8-0.9-5.7-0.7
			C131.5,180.9,130.2,181.5,129.9,182.6z"/>
		
			<linearGradient id="SVGID_17_" gradientUnits="userSpaceOnUse" x1="61.4669" y1="354.9214" x2="62.4668" y2="354.9214" gradientTransform="matrix(25.265 0 0 -37.99 -1424.6129 13683.0439)">
			<stop  offset="1" style="stop-color:#010101;stop-opacity:0"/>
			<stop  offset="1" style="stop-color:#010101;stop-opacity:4.167188e-02"/>
		</linearGradient>
		<path class="st23" d="M129.9,182.6c-0.7,3.2-1.1,6.5-1,9.8l-0.4,13.4c-0.1,2.3-0.1,4.6,0.9,6.6c1.1,1.9,2.8,3.5,4.9,4.3
			c4.6,2.1,9.9,1.9,14.9,1.7c1,0.1,2-0.2,2.9-0.7c1.2-0.8,1.5-2.4,1.6-3.8c0.3-4.4-1.1-8.7-2-13c-0.7-3.7-1.1-7.4-1.1-11.2
			c0.1-1-0.1-2.1-0.6-3c-0.4-0.5-1-1-1.6-1.3c-3.2-1.8-6.5-3.2-10-4.2c-1.8-0.7-3.8-0.9-5.7-0.7
			C131.5,180.9,130.2,181.5,129.9,182.6z"/>
		<path class="st1" d="M143.2,148.5c-2.5-1.3-5.1-2.6-7.9-2.8s-5.9,1.1-6.9,3.8c-0.4,1.1-0.5,2.3-0.4,3.5l-0.1,23.1
			c-0.1,1.9,0.1,3.8,0.6,5.6c1.1,3,3.8,5.1,6.6,6.5c3.5,1.8,7.7,2.7,11.5,1.6c1.1-0.2,2.2-0.8,2.9-1.7c1-1.3,1-3,1-4.6l-0.2-24
			c0-1.1-0.1-2.2-0.2-3.3C149.3,152.4,146.4,150.1,143.2,148.5z"/>
		
			<linearGradient id="SVGID_18_" gradientUnits="userSpaceOnUse" x1="61.6637" y1="354.6348" x2="61.8155" y2="355.6232" gradientTransform="matrix(22.622 0 0 -44.611 -1256.03 15991.9395)">
			<stop  offset="0" style="stop-color:#010101;stop-opacity:0"/>
			<stop  offset="1" style="stop-color:#000000"/>
		</linearGradient>
		<path class="st24" d="M143.2,148.5c-2.5-1.3-5.1-2.6-7.9-2.8s-5.9,1.1-6.9,3.8c-0.4,1.1-0.5,2.3-0.4,3.5l-0.1,23.1
			c-0.1,1.9,0.1,3.8,0.6,5.6c1.1,3,3.8,5.1,6.6,6.5c3.5,1.8,7.7,2.7,11.5,1.6c1.1-0.2,2.2-0.8,2.9-1.7c1-1.3,1-3,1-4.6l-0.2-24
			c0-1.1-0.1-2.2-0.2-3.3C149.3,152.4,146.4,150.1,143.2,148.5z"/>
		<path class="st18" d="M146.4,141.2c-0.1,1.3-0.7,2.5-1.7,3.4c-0.4,0.3-0.7,0.6-1,1c-0.5,0.9-0.1,2-0.2,3c-0.1,0.7-0.7,1.1-1.4,1
			c-1.2-0.1-2.4-0.8-3-1.8c-0.6-1.1-1-2.3-1.1-3.6c-0.2-1.8-0.3-3.6-0.1-5.4c0-1.1,0.3-2.2,0.8-3.2c0.8-1.6,2.6-2.5,4.4-2.3
			c1.4,0.3,2.6,1.4,2.8,2.9c0.1,0.7,0,1.4,0,2.2C146.1,139.2,146.3,140.2,146.4,141.2L146.4,141.2z"/>
		<path class="st22" d="M130.3,146.5c-0.4,1.9-0.7,3.9-0.8,5.8c-0.1,3.2,0.7,6.3,2.3,9.1c0.9,1.6,2.4,3.2,4.2,3.4
			c1.9,0,3.6-1.1,4.3-2.9c0.7-1.7,0.9-3.6,0.7-5.4c-0.2-1.8-0.2-3.7,0.1-5.5c0.4-1.9,1.3-3.6,1.9-5.4c0.5-2.5,0.7-5,0.4-7.5
			c0-0.6-0.1-1.2-0.3-1.7c-0.3-0.5-0.8-0.9-1.3-1.2c-2.6-1.4-5.6-1.4-8.2-0.2c-2.1,1.1-2.3,2.4-2.1,4.4
			C131.8,141.6,130.7,144.2,130.3,146.5z"/>
		
			<linearGradient id="SVGID_19_" gradientUnits="userSpaceOnUse" x1="59.9039" y1="355.1317" x2="60.1848" y2="356.0914" gradientTransform="matrix(14.116 0 0 -30.686 -709.959 11050.8984)">
			<stop  offset="0" style="stop-color:#010101"/>
			<stop  offset="1" style="stop-color:#000000"/>
		</linearGradient>
		<path class="st25" d="M130.3,146.5c-0.4,1.9-0.7,3.9-0.8,5.8c-0.1,3.2,0.7,6.3,2.3,9.1c0.9,1.6,2.4,3.2,4.2,3.4
			c1.9,0,3.6-1.1,4.3-2.9c0.7-1.7,0.9-3.6,0.7-5.4c-0.2-1.8-0.2-3.7,0.1-5.5c0.4-1.9,1.3-3.6,1.9-5.4c0.5-2.5,0.7-5,0.4-7.5
			c0-0.6-0.1-1.2-0.3-1.7c-0.3-0.5-0.8-0.9-1.3-1.2c-2.6-1.4-5.6-1.4-8.2-0.2c-2.1,1.1-2.3,2.4-2.1,4.4
			C131.8,141.6,130.7,144.2,130.3,146.5z"/>
		<path class="st1" d="M123,141.1c-1.6-4.4,3.2-10.2,10.8-13.1c7.6-2.8,15.1-1.6,16.7,2.8c1.6,4.4-3.2,10.2-10.8,13.1
			C132.1,146.7,124.6,145.5,123,141.1z"/>
		
			<linearGradient id="SVGID_20_" gradientUnits="userSpaceOnUse" x1="62.6678" y1="357.6378" x2="63.6011" y2="357.9973" gradientTransform="matrix(27.475 -10.294 -5.951 -15.882 532.126 6468.0972)">
			<stop  offset="1" style="stop-color:#FFFFFF;stop-opacity:0"/>
			<stop  offset="1" style="stop-color:#FFFFFF;stop-opacity:9.366118e-02"/>
		</linearGradient>
		<path class="st26" d="M122.8,141c-1.6-4.4,3.2-10.2,10.8-13.1c7.6-2.8,15.1-1.6,16.7,2.8c1.6,4.4-3.2,10.2-10.8,13.1
			C132,146.6,124.5,145.4,122.8,141z"/>
		<path class="st1" d="M156.2,168.5c1.4,6.8,2.3,13.7,2.7,20.7c0.1,1.1,0,2.5-0.9,3.2c-0.8,0.4-1.7,0.3-2.4-0.2
			c-0.7-0.5-1.2-1.2-1.6-2c-3.8-6.3-6.4-13.2-8.5-20.2c-1.1-3.1-1.7-6.4-1.8-9.6c0.1-2.4,0.7-5.4,2.3-7.3c2.1-2.4,3.8-0.3,5.2,1.7
			C153.9,158.8,155.2,163.7,156.2,168.5z"/>
		
			<linearGradient id="SVGID_21_" gradientUnits="userSpaceOnUse" x1="60.1143" y1="354.5524" x2="60.8274" y2="355.2534" gradientTransform="matrix(15.4 0 0 -40.686 -778.0699 14608.7285)">
			<stop  offset="0" style="stop-color:#010101;stop-opacity:0"/>
			<stop  offset="1" style="stop-color:#000000"/>
		</linearGradient>
		<path class="st27" d="M156.2,168.5c1.4,6.8,2.3,13.7,2.7,20.7c0.1,1.1,0,2.5-0.9,3.2c-0.8,0.4-1.7,0.3-2.4-0.2
			c-0.7-0.5-1.2-1.2-1.6-2c-3.8-6.3-6.4-13.2-8.5-20.2c-1.1-3.1-1.7-6.4-1.8-9.6c0.1-2.4,0.7-5.4,2.3-7.3c2.1-2.4,3.8-0.3,5.2,1.7
			C153.9,158.8,155.2,163.7,156.2,168.5z"/>
		<path class="st1" d="M137,125.6c-2.5-0.7-5.2,0.3-6.7,2.4c-1.4,2.1-1.3,5-0.5,7.5c0.1,0.4,0.3,0.7,0.6,1c0.3,0.2,0.6,0.3,1,0.3
			c2,0.2,4.1,0.4,5.9-0.4c1.8-0.8,4.8-3.7,4.8-5.8C142,128.4,138.9,126.1,137,125.6z"/>
		
			<linearGradient id="SVGID_22_" gradientUnits="userSpaceOnUse" x1="59.1394" y1="358.8694" x2="60.0208" y2="359.3418" gradientTransform="matrix(12.77 0 0 -9.555 -623.9901 3563.8901)">
			<stop  offset="1" style="stop-color:#FFFFFF;stop-opacity:0"/>
			<stop  offset="1" style="stop-color:#FFFFFF;stop-opacity:0.1377"/>
		</linearGradient>
		<path class="st28" d="M142.1,130.6c0,2-3.1,5-4.8,5.8c-1.9,0.7-3.9,0.8-5.9,0.4c-0.3,0-0.7-0.1-1-0.3c-0.3-0.3-0.5-0.7-0.6-1
			c-0.2-0.7-0.3-1.4-0.5-2.1c0.1,0,0.1,0,0.2,0c2,0.2,4.1,0.4,5.9-0.4c1.7-0.7,4.6-3.5,4.8-5.5C141.2,128.2,141.9,129.3,142.1,130.6
			L142.1,130.6z"/>
		
			<linearGradient id="SVGID_23_" gradientUnits="userSpaceOnUse" x1="58.2968" y1="359.938" x2="59.1802" y2="360.4066" gradientTransform="matrix(11.034 0 0 -8.156 -512.97 3066.6821)">
			<stop  offset="1" style="stop-color:#FFFFFF;stop-opacity:0"/>
			<stop  offset="1" style="stop-color:#FFFFFF;stop-opacity:0.1852"/>
		</linearGradient>
		<path class="st29" d="M140.2,127.5c-0.2,2-3.1,4.8-4.8,5.5c-1.8,0.8-3.9,0.6-5.9,0.4c-0.1,0-0.1,0-0.2,0c-0.3-1.9,0-3.8,1-5.4
			c1.5-2.1,4.2-3,6.7-2.4C138.2,126,139.3,126.6,140.2,127.5L140.2,127.5z"/>
		<path class="st15" d="M152.8,201.4c-0.4-3,0.2-6,1.5-8.7c0.2-0.4,0.5-0.8,0.8-1.1c1-0.7,2.3-0.7,3.3,0c0.9,0.7,1.5,1.7,1.8,2.8
			c0.5,1.5,0.6,3.2,0.3,4.8l-0.6-0.1c0.3-1.5,0.2-3-0.3-4.4c-0.2-1-0.8-1.8-1.6-2.4c-0.8-0.5-1.8-0.5-2.5,0c-0.3,0.3-0.5,0.6-0.7,1
			c-1.3,2.6-1.8,5.5-1.5,8.4H152.8z"/>
		<path class="st1" d="M163,197.1l5.7,28c0.1,0.3,0.1,0.6,0,0.9c-0.1,0.6-0.7,0.9-1.2,1.2c-5.7,2.7-11.7,5.1-17.7,7
			c-0.1,0-0.3,0-0.4,0c-0.1-0.1-0.2-0.2-0.2-0.3c-0.2-0.8-0.3-1.6-0.3-2.4c-0.1-6.1-0.4-12.2-1-18.3c-0.1-1.5-0.3-3.1-0.5-4.6
			c-0.1-1.2-0.8-3.1-0.5-4.2c0.4-1.7,5.3-2.7,6.9-3.4C154.5,200.6,163,197.5,163,197.1z"/>
		
			<linearGradient id="SVGID_24_" gradientUnits="userSpaceOnUse" x1="61.048" y1="355.1895" x2="62.0971" y2="354.6572" gradientTransform="matrix(21.923 0 0 -37.103 -1192.321 13385.5322)">
			<stop  offset="0" style="stop-color:#44465E"/>
			<stop  offset="1" style="stop-color:#000000"/>
		</linearGradient>
		<path class="st30" d="M163,197.1l5.7,28c0.1,0.3,0.1,0.6,0,0.9c-0.1,0.6-0.7,0.9-1.2,1.2c-5.7,2.7-11.7,5.1-17.7,7
			c-0.1,0-0.3,0-0.4,0c-0.1-0.1-0.2-0.2-0.2-0.3c-0.2-0.8-0.3-1.6-0.3-2.4c-0.1-6.1-0.4-12.2-1-18.3c-0.1-1.5-0.3-3.1-0.5-4.6
			c-0.1-1.2-0.8-3.1-0.5-4.2c0.4-1.7,5.3-2.7,6.9-3.4C154.5,200.6,163,197.5,163,197.1z"/>
		<path class="st1" d="M166.4,195.8l5.7,27.9c0.1,0.3,0.1,0.6,0,0.9c-0.1,0.6-0.7,0.9-1.2,1.2c-5.7,2.7-11.7,5.1-17.7,7
			c-0.1,0-0.3,0-0.4,0c-0.1-0.1-0.2-0.2-0.2-0.3c-0.2-0.8-0.3-1.6-0.3-2.4c-0.1-6.1-0.4-12.2-1-18.3c-0.1-1.5-0.3-3.1-0.5-4.6
			c-0.1-1.1-0.8-3.1-0.5-4.2c0.4-1.7,5.3-2.7,6.9-3.4C158,199.4,166.5,196.2,166.4,195.8z"/>
		<path class="st15" d="M157,202.4c-1.6-2.5-2.5-5.5-2.4-8.5c0-0.5,0.1-0.9,0.2-1.4c0.6-1.1,1.8-1.7,3-1.4c1.1,0.2,2.1,0.8,2.8,1.7
			c1.1,1.2,1.9,2.6,2.4,4.1l-0.6,0.2c-0.4-1.4-1.2-2.8-2.2-3.9c-0.6-0.8-1.5-1.3-2.5-1.5c-0.9-0.2-1.8,0.3-2.3,1.1
			c-0.1,0.4-0.2,0.8-0.2,1.2c-0.1,2.9,0.8,5.7,2.3,8.2L157,202.4z"/>
		<path class="st31" d="M167.3,196.9l5.6,27.9c0.1,0.3,0.1,0.6,0,0.9c-0.1,0.6-0.7,0.9-1.2,1.2c-5.7,2.7-11.7,5.1-17.7,7
			c-0.1,0.1-0.2,0.1-0.4,0c-0.1-0.1-0.2-0.2-0.2-0.3c-0.2-0.8-0.3-1.6-0.3-2.4c-0.1-6.1-0.4-12.2-1-18.3c-0.2-1.5-0.3-3.1-0.5-4.6
			c-0.1-1.1-0.8-3.1-0.5-4.2c0.4-1.7,5.3-2.7,6.9-3.4C158.9,200.4,167.4,197.2,167.3,196.9z"/>
		<path class="st1" d="M170.8,195.6l5.6,28c0.1,0.3,0.1,0.6,0.1,0.9c-0.1,0.6-0.7,0.9-1.2,1.2c-5.7,2.7-11.7,5.1-17.7,7
			c-0.1,0-0.2,0-0.4,0c-0.1-0.1-0.2-0.2-0.2-0.3c-0.2-0.8-0.3-1.6-0.3-2.4c-0.1-6.1-0.4-12.2-1-18.3c-0.1-1.5-0.3-3.1-0.5-4.6
			c-0.1-1.2-0.8-3.1-0.5-4.2c0.4-1.7,5.3-2.7,6.9-3.4C162.4,199.2,170.9,196,170.8,195.6z"/>
		
			<linearGradient id="SVGID_25_" gradientUnits="userSpaceOnUse" x1="61.1198" y1="355.1826" x2="62.2102" y2="354.5391" gradientTransform="matrix(21.896 0 0 -37.103 -1182.693 13384.0723)">
			<stop  offset="0" style="stop-color:#282B4E"/>
			<stop  offset="1" style="stop-color:#000000"/>
		</linearGradient>
		<path class="st32" d="M170.8,195.6l5.6,28c0.1,0.3,0.1,0.6,0.1,0.9c-0.1,0.6-0.7,0.9-1.2,1.2c-5.7,2.7-11.7,5.1-17.7,7
			c-0.1,0-0.2,0-0.4,0c-0.1-0.1-0.2-0.2-0.2-0.3c-0.2-0.8-0.3-1.6-0.3-2.4c-0.1-6.1-0.4-12.2-1-18.3c-0.1-1.5-0.3-3.1-0.5-4.6
			c-0.1-1.2-0.8-3.1-0.5-4.2c0.4-1.7,5.3-2.7,6.9-3.4C162.4,199.2,170.9,196,170.8,195.6z"/>
		<path class="st18" d="M155.8,188.6c-0.6,0-1.3,0.3-1.8,0.7c-0.3,0.4-0.4,0.9-0.3,1.4c0.1,0.5,0.2,0.9,0.3,1.4
			c0.1,0.9-0.2,2,0.2,2.8c0.5,0.8,1.4,1.2,2.3,1.2c1.6,0.1,3-0.8,3.6-2.2c0.1-0.5,0.1-1,0.1-1.4c-0.1-1.1-0.6-3.5-1.4-4.3
			C157.9,187.2,156.7,188.4,155.8,188.6z"/>
		<path class="st14" d="M437.2,170.7V166c-2.5,0-5-0.7-7.2-2.1l1.1-3.1c2,1.3,4.4,2,6.8,2c3.3,0,5.6-1.9,5.6-4.6s-1.8-4.2-5.3-5.6
			c-4.8-1.9-7.8-4-7.8-8.1c0-3.9,2.8-6.9,7.1-7.6v-4.8h2.9v4.6c2.1,0,4.2,0.6,6.1,1.6l-1.2,3.1c-1.8-1.1-3.8-1.6-5.9-1.6
			c-3.6,0-5,2.2-5,4c0,2.5,1.7,3.7,5.8,5.4c4.8,2,7.3,4.4,7.3,8.6c0,3.7-2.6,7.2-7.4,8v4.9L437.2,170.7z"/>
	</g>
</g>
</svg>
