<?xml version="1.0" encoding="UTF-8" standalone="no"?><!-- Generator: Gravit.io --><svg xmlns="http://www.w3.org/2000/svg" xmlns:xlink="http://www.w3.org/1999/xlink" style="isolation:isolate" viewBox="0 0 400 300" width="400pt" height="300pt"><defs><clipPath id="_clipPath_HSTSMCX7OI2zcUhvjS8DifVmmbg41EMO"><rect width="400" height="300"/></clipPath></defs><g clip-path="url(#_clipPath_HSTSMCX7OI2zcUhvjS8DifVmmbg41EMO)"><path d=" M 36.717 165.335 L 185.843 80.469 C 193.262 76.235 202.376 76.281 209.752 80.589 L 363.399 170.084 C 367.498 172.472 370.013 176.863 370 181.606 C 369.987 186.35 367.446 190.726 363.334 193.091 L 219.892 275.446 C 210.004 281.131 197.839 281.131 187.952 275.446 L 36.663 188.407 C 32.531 186.03 29.989 181.622 30 176.855 C 30.011 172.088 32.574 167.692 36.717 165.335 Z " fill="rgb(229,119,10)"/><path d=" M 189.265 94.877 L 238.74 94.877 C 265.304 94.877 275.304 108.325 273.759 128.082 C 271.205 160.699 251.486 178.745 225.33 178.745 L 212.125 178.745 C 208.536 178.745 206.123 181.121 205.152 187.557 L 199.545 224.977 C 199.175 227.404 197.898 228.808 195.982 229 L 164.897 229 C 161.972 229 160.938 226.765 161.704 221.925 L 180.657 101.965 C 181.397 97.163 184.028 94.877 189.265 94.877 Z " fill-rule="evenodd" fill="rgb(0,158,227)"/><path d=" M 158.32 53.587 L 207.847 53.587 C 221.793 53.587 238.344 54.034 249.404 63.804 C 256.799 70.33 260.681 80.713 259.787 91.901 C 256.748 129.717 234.13 150.904 203.785 150.904 L 179.367 150.904 C 175.203 150.904 172.458 153.663 171.283 161.121 L 164.463 204.543 C 164.016 207.353 162.803 209.013 160.631 209.217 L 130.07 209.217 C 126.686 209.217 125.485 206.663 126.366 201.018 L 148.333 61.837 C 149.214 56.244 152.292 53.587 158.32 53.587 Z " fill-rule="evenodd" fill="rgb(17,57,132)"/><path d=" M 171.998 156.715 L 180.644 101.965 C 181.397 97.163 184.028 94.864 189.265 94.864 L 238.74 94.864 C 246.927 94.864 253.555 96.141 258.74 98.504 C 253.772 132.169 231.997 150.866 203.492 150.866 L 179.111 150.866 C 175.842 150.878 173.441 152.513 171.998 156.715 Z " fill-rule="evenodd" fill="rgb(23,44,112)"/></g></svg>