<svg width="400" height="300" viewBox="0 0 400 300" fill="none" xmlns="http://www.w3.org/2000/svg">
<path d="M67.0971 181.879L190.069 252.62C193.256 254.46 197.115 254.46 200.303 252.62L342.148 172.263C343.91 171.26 345 169.336 345 167.33C345 165.323 343.91 163.399 342.148 162.396L215.821 89.5644C214.563 88.8119 213.053 88.8119 211.794 89.5644L67.0132 175.022C65.7549 175.775 65 177.029 65 178.451C65.0839 179.872 65.8388 181.21 67.0971 181.879Z" fill="#282B4E"/>
<rect x="94" y="52" width="206" height="139" rx="30" fill="url(#paint0_linear)"/>
<path d="M247.943 134.882C246.073 134.882 244.554 133.364 244.554 131.493C244.554 118.412 233.914 107.772 220.834 107.772H188.079V122.459C188.079 125.441 184.494 126.945 182.352 124.912L157.499 101.191C156.828 100.547 156.449 99.659 156.449 98.7373C156.449 97.8088 156.828 96.9277 157.499 96.2838L182.352 72.5624C184.507 70.5088 188.079 72.0405 188.079 75.0159V89.7028H216.32C235.629 89.7028 251.339 105.413 251.339 124.722V131.5C251.332 133.364 249.814 134.882 247.943 134.882V134.882Z" fill="white"/>
<path d="M205.919 167.941V153.065H177.676C158.372 153.072 142.661 137.161 142.661 117.604V110.739C142.661 108.845 144.18 107.307 146.05 107.307C147.921 107.307 149.439 108.845 149.439 110.739C149.439 123.988 160.08 134.765 173.162 134.765H205.919V119.89C205.919 116.883 209.491 115.318 211.646 117.405L236.501 141.43C237.172 142.082 237.551 142.982 237.551 143.915C237.551 144.856 237.172 145.748 236.501 146.4L211.646 170.426C209.498 172.506 205.919 170.954 205.919 167.941V167.941Z" fill="white"/>
<defs>
<linearGradient id="paint0_linear" x1="94.1608" y1="121.47" x2="300.005" y2="121.47" gradientUnits="userSpaceOnUse">
<stop stop-color="#F5524E"/>
<stop offset="1" stop-color="#D0342F"/>
</linearGradient>
</defs>
</svg>
