<?xml version="1.0" encoding="UTF-8" standalone="no"?><!-- Generator: Gravit.io --><svg xmlns="http://www.w3.org/2000/svg" xmlns:xlink="http://www.w3.org/1999/xlink" style="isolation:isolate" viewBox="0 0 400 300" width="400pt" height="300pt"><defs><clipPath id="_clipPath_Ln4iGD5iolJxzrbHXs9LVXh9S3u3naAq"><rect width="400" height="300"/></clipPath></defs><g clip-path="url(#_clipPath_Ln4iGD5iolJxzrbHXs9LVXh9S3u3naAq)"><path d=" M 36.717 165.335 L 185.843 80.469 C 193.262 76.235 202.376 76.281 209.752 80.589 L 363.399 170.084 C 367.498 172.472 370.013 176.863 370 181.606 C 369.987 186.35 367.446 190.726 363.334 193.091 L 219.892 275.446 C 210.004 281.131 197.839 281.131 187.952 275.446 L 36.663 188.407 C 32.531 186.03 29.989 181.622 30 176.855 C 30.011 172.088 32.574 167.692 36.717 165.335 Z " fill="rgb(40,43,78)"/><g><g><path d=" M 190.286 59.33 C 189.396 59.33 188.518 58.921 187.95 58.149 C 185.315 54.57 180.627 50.463 173.25 51.251 C 164.565 52.176 158.115 49.412 154.233 46.931 C 152.885 46.069 152.491 44.278 153.353 42.93 C 154.214 41.581 156.006 41.188 157.354 42.049 C 160.454 44.03 165.623 46.238 172.637 45.489 C 183.282 44.359 189.723 50.784 192.616 54.715 C 193.565 56.004 193.289 57.817 192 58.766 C 191.483 59.146 190.882 59.33 190.286 59.33 Z " fill="rgb(255,208,100)"/></g><g><path d=" M 159.954 74.714 C 159.437 74.714 158.914 74.576 158.441 74.286 C 157.077 73.449 156.651 71.665 157.488 70.301 C 161.201 64.251 168.007 60.094 177.168 58.277 C 183.848 56.953 189.453 57.316 189.688 57.332 C 191.284 57.442 192.489 58.824 192.38 60.421 C 192.27 62.016 190.884 63.212 189.295 63.113 C 189.094 63.099 169.422 61.933 162.426 73.332 C 161.879 74.223 160.928 74.714 159.954 74.714 L 159.954 74.714 Z " fill="rgb(255,208,100)"/></g></g><path d=" M 203.623 185.726 C 251.201 185.726 277.51 115.938 202.376 62.036 C 200.507 60.695 199.397 58.537 199.422 56.237 C 199.443 54.336 200.045 52.49 201.135 50.933 C 204.652 45.91 209.715 37.318 212.752 30.397 C 213.479 28.74 212.438 26.957 210.493 26.957 C 205.98 26.957 205.98 24.004 201.467 24.004 C 196.954 24.004 196.954 26.957 192.441 26.957 C 188.595 26.957 187.017 23.649 185.147 26.055 C 179.694 33.073 198.372 57.754 198.372 57.754 C 115.885 111.98 142.481 185.727 191.183 185.727 L 203.623 185.727 L 203.623 185.726 Z " fill="rgb(255,150,44)"/><path d=" M 222.326 57.753 C 222.326 57.753 241.281 33.153 235.83 26.096 C 233.973 23.691 232.389 26.957 228.547 26.957 C 224.033 26.957 224.033 24.004 219.52 24.004 C 215.006 24.004 215.006 26.957 210.493 26.957 C 210.271 26.957 210.068 26.945 209.866 26.931 C 208.053 34.704 199.881 46.814 195.205 53.299 C 197.046 56.001 198.372 57.753 198.372 57.753 C 197.272 58.476 196.195 59.204 195.133 59.934 C 273.944 114.104 247.574 185.726 199.374 185.726 L 229.807 185.726 C 278.656 185.726 305.088 112.16 222.326 57.753 L 222.326 57.753 Z " fill="rgb(229,119,10)"/><path d=" M 225.851 66.503 C 214.837 69.285 203.956 69.285 192.941 66.503 C 189.107 65.535 186.934 61.224 188.313 57.305 C 188.328 57.261 188.344 57.217 188.359 57.173 C 189.516 53.888 192.797 52.044 196.012 52.851 C 205.031 55.115 213.758 55.116 222.779 52.851 C 225.995 52.044 229.275 53.888 230.432 57.173 C 230.447 57.217 230.463 57.261 230.478 57.305 C 231.858 61.224 229.685 65.535 225.851 66.503 L 225.851 66.503 Z " fill="rgb(255,224,125)"/><g><g><g><g><g><g><g><g><g><g><g><g><path d=" M 122.294 198.379 L 164.239 213.991 C 167.801 215.317 171.572 215.996 175.373 215.996 L 218.599 215.996 C 224.649 215.996 230.573 214.277 235.683 211.039 L 289.808 176.743 C 293.378 173.572 294.04 168.244 291.354 164.295 C 288.414 159.976 283.552 159.225 278.201 161.755 L 225.506 184.957 L 225.569 176.407 C 224.871 169.39 219.468 163.758 212.485 162.77 L 180.396 159.076 C 172.993 158.028 169.294 155.547 162.841 151.772 C 154.031 146.619 144.007 143.902 133.8 143.902 L 122.294 143.902 L 122.294 198.379 Z " fill="rgb(255,221,206)"/></g><path d=" M 161.691 205.672 C 165.436 207.066 169.4 207.78 173.396 207.78 L 218.839 207.78 C 223.677 207.78 228.438 206.732 232.805 204.733 L 264.58 184.597 C 267.533 182.727 269.407 179.47 269.311 175.977 C 269.26 174.124 268.694 172.269 267.584 170.639 C 267.584 170.639 266.617 168.981 265.623 167.293 L 225.506 184.957 L 225.569 176.407 C 224.871 169.39 219.468 163.758 212.485 162.77 L 180.396 159.076 C 172.993 158.028 169.294 155.547 162.841 151.772 C 154.031 146.619 144.007 143.902 133.8 143.902 L 122.294 143.902 L 122.294 191.008 L 161.691 205.672 Z " fill="rgb(255,221,206)"/><path d=" M 291.354 164.295 C 288.414 159.976 283.552 159.225 278.201 161.755 L 263.707 168.137 C 264.409 169.248 264.967 170.135 264.967 170.135 C 267.653 174.083 266.992 179.411 263.421 182.582 L 231.883 202.566 C 227.73 204.467 223.201 205.465 218.599 205.465 L 175.373 205.465 C 171.572 205.465 167.801 204.786 164.239 203.46 L 122.294 187.847 L 122.294 198.378 L 164.239 213.991 C 167.801 215.317 171.572 215.996 175.373 215.996 L 210.69 215.996 L 218.6 215.996 C 224.649 215.996 230.574 214.277 235.684 211.039 L 289.808 176.743 C 293.378 173.572 294.04 168.243 291.354 164.295 L 291.354 164.295 Z " fill="rgb(255,203,190)"/><g><path d=" M 221.634 167.6 L 221.633 167.806 L 221.769 167.746 C 221.725 167.697 221.679 167.649 221.634 167.6 Z " fill="rgb(245,219,204)"/></g><g><g><g><path d=" M 225.506 184.951 L 192.74 184.951 C 191.14 184.951 189.843 183.655 189.843 182.054 C 189.843 180.454 191.14 179.157 192.74 179.157 L 225.548 179.157 L 225.506 184.951 Z " fill="rgb(255,203,190)"/></g></g></g></g></g><path d=" M 131.32 206.734 C 131.32 209.777 128.853 212.244 125.81 212.244 L 112.51 212.244 C 109.467 212.244 107 209.777 107 206.734 L 107 139.26 C 107 136.217 109.467 133.75 112.51 133.75 L 125.81 133.75 C 128.853 133.75 131.32 136.217 131.32 139.26 L 131.32 206.734 Z " fill="rgb(64,112,147)"/></g></g></g></g></g></g></g></g></g><path d=" M 216.73 113.785 C 215.403 113.316 214.183 112.868 213.056 112.435 L 213.056 93.963 C 216.483 94.531 218.54 96.304 218.691 96.437 C 219.868 97.508 221.689 97.429 222.769 96.258 C 223.853 95.082 223.78 93.249 222.603 92.164 C 222.4 91.976 218.851 88.779 213.056 88.112 L 213.056 83.993 C 213.056 82.392 211.759 81.095 210.159 81.095 C 208.558 81.095 207.261 82.392 207.261 83.993 L 207.261 88.346 C 206.563 88.48 205.847 88.651 205.112 88.872 C 200.197 90.352 196.524 94.566 195.525 99.869 C 194.618 104.68 196.144 109.308 199.506 111.946 C 201.437 113.46 203.867 114.846 207.261 116.328 L 207.261 139.24 C 203.909 139.1 201.85 138.468 198.251 136.115 C 196.912 135.239 195.117 135.614 194.241 136.953 C 193.365 138.292 193.74 140.087 195.079 140.963 C 199.809 144.057 202.97 144.864 207.261 145.031 L 207.261 149.63 C 207.261 151.23 208.558 152.527 210.159 152.527 C 211.759 152.527 213.056 151.23 213.056 149.63 L 213.056 144.827 C 221.188 143.508 225.934 136.925 226.966 130.784 C 228.257 123.112 224.238 116.44 216.73 113.785 L 216.73 113.785 Z  M 203.082 107.386 C 201.428 106.089 200.715 103.62 201.219 100.941 C 201.687 98.458 203.395 95.44 206.784 94.42 C 206.945 94.371 207.104 94.329 207.262 94.287 L 207.262 109.936 C 205.527 109.07 204.167 108.237 203.082 107.386 Z  M 221.253 129.823 C 220.614 133.625 217.823 137.684 213.056 138.905 L 213.056 118.621 C 213.62 118.827 214.196 119.035 214.799 119.248 C 222.008 121.797 221.561 127.986 221.253 129.823 Z " fill="rgb(255,255,255)"/></g></svg>