<?xml version="1.0" encoding="UTF-8" standalone="no"?><!-- Generator: Gravit.io --><svg xmlns="http://www.w3.org/2000/svg" xmlns:xlink="http://www.w3.org/1999/xlink" style="isolation:isolate" viewBox="0 0 400 300" width="400pt" height="300pt"><defs><clipPath id="_clipPath_RsYCyTeKi8hZvOalirGDZmOBTKg6gEk5"><rect width="400" height="300"/></clipPath></defs><g clip-path="url(#_clipPath_RsYCyTeKi8hZvOalirGDZmOBTKg6gEk5)"><path d=" M 376.23 184.27 C 337.66 204.97 224.23 270.45 188.46 291.12 C 181.724 295.035 173.406 295.035 166.67 291.12 L 30.67 211.7 C 25.26 208.54 26.99 202.57 32.44 199.48 L 222.22 89.16 C 224.208 88.031 226.642 88.031 228.63 89.16 L 376.36 173.16 C 378.379 174.293 379.618 176.439 379.591 178.754 C 379.563 181.069 378.275 183.184 376.23 184.27 Z " fill="rgb(255,219,194)"/><path d=" M 325.54 191.6 C 296.69 207.08 211.82 256.06 185.1 271.52 C 180.061 274.448 173.839 274.448 168.8 271.52 L 67.09 212.07 C 63.09 209.71 64.34 205.24 68.42 202.93 L 210.37 120.46 C 211.856 119.619 213.674 119.619 215.16 120.46 L 325.65 183.3 C 327.151 184.154 328.068 185.756 328.045 187.482 C 328.022 189.209 327.063 190.786 325.54 191.6 L 325.54 191.6 Z " fill="rgb(74,76,119)"/><path d=" M 323.51 155 C 323.51 155 321.22 174.66 331.63 178.47 C 331.63 178.47 347.63 172.37 347.76 155" fill="rgb(6,87,122)"/><ellipse vector-effect="non-scaling-stroke" cx="335.64" cy="155.03" rx="12.120000000000005" ry="7.009999999999991" fill="rgb(242,105,106)"/><path d=" M 338.75 139.44 C 338.75 139.44 333.99 132.57 336.07 127.82 C 336.07 127.82 337.78 124.77 340.21 124.28 C 340.21 124.28 339.97 130.79 342.39 129.96 C 344.81 129.13 342.39 123.14 342.39 123.14 C 342.39 123.14 344.94 119.69 347.73 119.8 C 350.52 119.91 347.73 125.89 349.67 124.9 C 351.61 123.91 349.79 118.82 351.97 118.21 C 353.965 117.742 355.99 117.407 358.03 117.21 C 358.03 117.21 360.09 123.15 358.03 124 C 358.03 124 352.94 125.14 354.39 126.45 C 354.39 126.45 359.97 126.25 359.97 126.25 C 359.97 126.25 360.23 129.59 358.83 131.04 C 358.83 131.04 349.18 129.29 350.64 132.16 C 350.64 132.16 357.55 133.59 357.55 133.59 C 357.55 133.59 354.76 137.59 351.49 139.39 C 348.22 141.19 338.75 139.44 338.75 139.44 Z " fill="rgb(140,204,0)"/><path d=" M 339.86 156.63 C 339.86 156.63 336.42 153.24 337.1 150.32 C 337.445 149.286 338.156 148.415 339.1 147.87 C 339.1 147.87 339.66 151.59 340.95 150.87 C 340.95 150.87 340.22 147 340.22 147 C 340.22 147 341.3 144.77 342.89 144.53 C 342.89 144.53 343.54 147.99 344.54 147.22 C 344.54 147.22 343.96 143.75 345.13 143.22 C 346.215 142.746 347.331 142.345 348.47 142.02 C 348.47 142.02 350.27 145.17 349.19 145.88 C 349.19 145.88 346.42 147.07 347.39 147.66 C 347.39 147.66 350.54 146.95 350.54 146.95 C 350.54 146.95 351.04 148.82 350.4 149.79 C 350.4 149.79 344.74 149.79 345.87 151.3 C 345.87 151.3 349.95 151.38 349.95 151.38 C 349.267 152.86 348.31 154.196 347.13 155.32 C 345.42 156.66 339.86 156.63 339.86 156.63 Z " fill="rgb(140,204,0)"/><path d=" M 327.22 149.3 C 327.22 149.3 318.87 149.62 315.98 145.3 C 315.98 145.3 314.33 142.22 315.22 139.91 C 315.22 139.91 320.58 143.61 321.22 141.12 C 321.86 138.63 315.47 137.46 315.47 137.46 C 315.47 137.46 313.93 133.46 315.47 131.17 C 317.01 128.88 320.61 134.44 320.81 132.27 C 321.01 130.1 315.74 128.9 316.41 126.73 C 317.096 124.798 317.911 122.913 318.85 121.09 C 318.85 121.09 324.97 122.54 324.58 124.74 C 324.58 124.74 322.8 129.65 324.69 129.12 C 324.69 129.12 327.52 124.31 327.52 124.31 C 327.52 124.31 330.52 125.89 330.94 127.85 C 330.94 127.85 324.28 135.05 327.48 135.36 C 327.48 135.36 332.4 130.3 332.4 130.3 C 332.4 130.3 334.26 134.79 334.04 138.53 C 333.82 142.27 327.22 149.3 327.22 149.3 Z " fill="rgb(140,204,0)"/><path d=" M 356.21 119.88 L 353.54 122.16 C 353.63 121.21 353.74 120.27 353.89 119.33 C 353.97 118.83 353.21 118.62 353.13 119.12 Q 352.83 121.01 352.68 122.91 C 350.34 124.96 348.02 127.11 345.85 129.39 C 345.666 127.79 345.619 126.178 345.71 124.57 C 345.71 124.06 344.95 124.06 344.92 124.57 C 344.818 126.43 344.895 128.295 345.15 130.14 C 343.77 131.63 342.475 133.196 341.27 134.83 C 339.915 132.955 338.993 130.804 338.57 128.53 C 338.48 128.03 337.72 128.24 337.81 128.74 C 338.262 131.16 339.261 133.445 340.73 135.42 C 340.753 135.447 340.78 135.47 340.81 135.49 C 337.153 140.368 335.043 146.23 334.75 152.32 C 334.75 152.83 335.52 152.83 335.54 152.32 C 335.822 146.447 337.844 140.79 341.35 136.07 C 344.534 136.931 347.837 137.269 351.13 137.07 C 351.63 137.07 351.64 136.25 351.13 136.28 C 348.007 136.483 344.872 136.192 341.84 135.42 C 343.514 133.161 345.352 131.029 347.34 129.04 L 347.41 129.04 C 349.25 129.2 351.09 129.37 352.94 129.43 C 354.099 129.596 355.281 129.458 356.37 129.03 C 356.82 128.8 356.42 128.12 355.97 128.35 C 354.7 128.99 352.92 128.65 351.55 128.57 C 350.38 128.5 349.21 128.4 348.04 128.3 C 350.85 125.51 353.87 122.92 356.78 120.46 C 357.16 120.11 356.6 119.56 356.21 119.88 Z " fill="rgb(6,87,122)"/><path d=" M 331.76 135.24 C 331.826 135.03 331.71 134.806 331.5 134.74 C 331.29 134.674 331.066 134.79 331 135 C 330.147 137.911 328.371 140.466 325.94 142.28 Q 324.6 138.56 323.49 134.75 C 325.394 132.853 326.96 130.645 328.12 128.22 C 328.34 127.76 327.66 127.36 327.44 127.82 C 326.366 130.032 324.945 132.058 323.23 133.82 C 322.41 130.92 321.68 127.98 321.07 125.02 C 320.97 124.52 320.21 124.73 320.31 125.23 Q 321.57 131.31 323.42 137.23 C 321.931 136.938 320.483 136.465 319.11 135.82 C 318.65 135.6 318.25 136.28 318.71 136.5 C 320.297 137.254 321.979 137.789 323.71 138.09 L 323.71 138.09 C 324.54 140.69 325.48 143.25 326.47 145.79 C 324.11 145.716 321.784 145.204 319.61 144.28 C 319.15 144.08 318.75 144.76 319.21 144.96 C 321.604 145.988 324.175 146.542 326.78 146.59 Q 328.68 151.33 330.96 155.93 C 331.19 156.38 331.87 155.99 331.64 155.53 C 329.606 151.457 327.8 147.273 326.23 143 L 326.23 143 C 328.876 141.092 330.82 138.364 331.76 135.24 Z " fill="rgb(6,87,122)"/><path d=" M 346 145.45 L 343.83 149.09 C 343.563 148.733 343.332 148.352 343.14 147.95 C 342.92 147.49 342.24 147.89 342.46 148.35 C 342.708 148.863 343.013 149.346 343.37 149.79 L 343.37 149.79 L 341.02 153.74 C 340.757 153.487 340.588 153.152 340.54 152.79 C 340.48 152.29 339.69 152.29 339.75 152.79 C 339.822 153.422 340.133 154.001 340.62 154.41 L 337.68 159.35 C 337.57 159.538 337.632 159.78 337.82 159.89 C 338.008 160 338.25 159.938 338.36 159.75 L 342.24 153.24 C 342.892 153.25 343.54 153.152 344.16 152.95 C 344.64 152.79 344.43 152.03 343.95 152.19 C 343.554 152.315 343.144 152.392 342.73 152.42 L 346.66 145.82 C 346.707 145.647 346.63 145.465 346.474 145.377 C 346.318 145.29 346.123 145.32 346 145.45 L 346 145.45 Z " fill="rgb(6,87,122)"/><path d=" M 64.63 202.68 L 64.63 209.23 L 71.23 205.95 L 64.63 202.68 L 64.63 202.68 Z " fill="rgb(255,184,136)"/><path d=" M 328.03 181.63 L 328.03 187.48 L 325.71 184.55 L 328.03 181.63 L 328.03 181.63 Z " fill="rgb(255,184,136)"/><path d=" M 325.54 186 C 296.69 201.48 211.82 250.46 185.1 265.92 C 180.061 268.848 173.839 268.848 168.8 265.92 L 67.09 206.49 C 63.09 204.13 64.34 199.66 68.42 197.35 L 210.37 114.88 C 211.856 114.039 213.674 114.039 215.16 114.88 L 325.65 177.72 C 327.14 178.577 328.05 180.173 328.027 181.892 C 328.004 183.611 327.053 185.183 325.54 186 Z " fill="rgb(48,49,81)"/><path d=" M 219 91.61 C 218.839 90.826 218.337 90.155 217.63 89.78 C 216.973 89.417 216.146 89.632 215.75 90.27 C 215.594 90.579 215.545 90.93 215.61 91.27 L 215.61 91.27 C 215.393 92.268 215.698 93.308 216.42 94.03 C 216.961 94.562 217.829 94.562 218.37 94.03 C 218.947 93.366 219.18 92.471 219 91.61 L 219 91.61 Z " fill="rgb(90,37,0)"/><path d=" M 261.88 46.64 L 209.53 15.71 C 207.98 14.917 206.173 14.794 204.53 15.37 L 204.53 15.37 L 204.45 15.37 C 204.066 15.499 203.694 15.663 203.34 15.86 L 198.45 18.03 L 201 19.23 L 201 19.23 L 202.63 153.23 C 202.629 158.032 205.181 162.473 209.33 164.89 L 258.14 193.33 L 257.38 197.91 L 264 194.41 L 264 194.41 C 265.307 193.694 266.117 192.32 266.11 190.83 L 266.11 54.1 C 266.115 51.041 264.507 48.206 261.88 46.64 L 261.88 46.64 Z " fill="rgb(40,43,78)"/><g opacity="0.33"><path d=" M 261.88 46.64 L 209.53 15.71 C 207.98 14.917 206.173 14.794 204.53 15.37 L 204.53 15.37 L 204.45 15.37 C 204.066 15.499 203.694 15.663 203.34 15.86 L 198.45 18.03 L 201 19.23 L 201 19.23 L 202.63 153.23 C 202.629 158.032 205.181 162.473 209.33 164.89 L 258.14 193.33 L 257.38 197.91 L 264 194.41 L 264 194.41 C 265.307 193.694 266.117 192.32 266.11 190.83 L 266.11 54.1 C 266.115 51.041 264.507 48.206 261.88 46.64 L 261.88 46.64 Z " fill="rgb(135,131,170)"/></g><path d=" M 253.64 197.69 L 203 168.2 C 198.851 165.783 196.299 161.342 196.3 156.54 L 196.3 21.3 C 196.295 20.01 196.985 18.818 198.104 18.178 C 199.224 17.539 200.602 17.551 201.71 18.21 L 255.54 50 C 258.182 51.561 259.802 54.402 259.8 57.47 L 259.8 194.14 C 259.802 195.608 259.019 196.965 257.747 197.697 C 256.476 198.43 254.909 198.427 253.64 197.69 L 253.64 197.69 Z " fill="rgb(244,244,244)"/><path d=" M 256.59 65.72 L 198.93 32.66 L 198.93 150.96 L 256.59 184.29 L 256.59 65.72 L 256.59 65.72 Z " fill="rgb(229,119,10)"/><path d=" M 219.807 173.148 C 219.347 171.22 220.133 169.379 221.561 169.038 C 222.989 168.697 224.522 169.985 224.982 171.912 C 225.442 173.839 224.656 175.681 223.228 176.022 C 221.8 176.363 220.268 175.075 219.807 173.148 Z " fill="rgb(186,186,188)"/><path d=" M 220.24 38.35 L 220.24 38.35 C 220.24 38.813 220.488 39.24 220.89 39.47 L 232 45.86 C 232.401 46.125 232.916 46.144 233.336 45.911 C 233.757 45.678 234.012 45.23 234 44.75 L 234 44.48 C 234 44.009 233.743 43.576 233.33 43.35 L 222.19 37.22 C 221.788 36.981 221.288 36.978 220.883 37.212 C 220.478 37.447 220.232 37.882 220.24 38.35 Z " fill="rgb(204,204,204)"/><path d=" M 214.497 34.823 C 214.165 33.93 214.426 33.008 215.08 32.765 C 215.733 32.521 216.534 33.048 216.866 33.941 C 217.198 34.833 216.937 35.755 216.284 35.998 C 215.63 36.242 214.83 35.715 214.497 34.823 Z " fill="rgb(204,204,204)"/><linearGradient id="_lgradient_67" x1="1.1994483709705221" y1="-0.026694045174538772" x2="0.14376831580762106" y2="0.542001007402603" gradientTransform="matrix(58.01,0,0,38.96,131.43,203.49)" gradientUnits="userSpaceOnUse"><stop offset="0%" stop-opacity="1" style="stop-color:rgb(212,163,151)"/><stop offset="100%" stop-opacity="1" style="stop-color:rgb(255,255,255)"/></linearGradient><path d=" M 132 225.35 C 131.817 225.2 131.627 225.06 131.43 224.93 L 164 203.49 L 189.44 222.64 L 161.81 242.45 C 152.25 236 141.42 232 132 225.35 Z " fill="url(#_lgradient_67)"/><path d=" M 183.15 99.87 C 183.343 99.407 183.57 98.959 183.83 98.53 C 183.824 98.553 183.824 98.577 183.83 98.6 C 183.85 98.666 183.906 98.715 183.974 98.725 C 184.042 98.736 184.111 98.707 184.15 98.65 L 184.64 97.9 C 184.624 97.996 184.624 98.094 184.64 98.19 C 184.72 98.573 185.082 98.83 185.47 98.78 C 185.69 98.764 185.891 98.65 186.019 98.47 C 186.146 98.29 186.187 98.063 186.13 97.85 L 186.36 97.59 C 186.348 97.666 186.348 97.744 186.36 97.82 C 186.427 98.038 186.603 98.205 186.824 98.26 C 187.045 98.315 187.279 98.251 187.44 98.09 C 187.53 98.02 187.6 97.93 187.69 97.85 C 187.83 97.911 187.99 97.911 188.13 97.85 C 188.772 97.631 189.399 97.374 190.01 97.08 C 189.926 97.041 189.866 96.964 189.848 96.873 C 189.83 96.782 189.857 96.688 189.92 96.62 C 190.64 96.038 191.402 95.51 192.2 95.04 L 192.3 95.04 L 192.3 94.96 C 192.49 94.353 192.447 93.697 192.18 93.12 C 192.57 92.646 192.721 92.02 192.59 91.42 C 192.528 91.414 192.468 91.39 192.42 91.35 C 192.306 91.253 192.208 91.138 192.13 91.01 C 191.99 90.833 191.882 90.634 191.81 90.42 C 191.777 90.312 191.817 90.195 191.91 90.13 C 191.61 89.73 191.27 89.36 190.91 89.02 C 191.65 87.745 191.998 86.281 191.91 84.81 C 191.91 84.518 191.713 84.263 191.43 84.19 C 191.147 84.117 190.851 84.245 190.71 84.5 C 190.418 84.964 190.154 85.445 189.92 85.94 C 189.844 85.99 189.782 86.059 189.74 86.14 C 188.478 88.731 187.076 91.251 185.54 93.69 C 185.28 94.1 182.09 98.5 182.45 98.6 C 182.55 98.76 179.93 104.79 183.15 99.87 Z  M 185 98 C 185 98 185 98 185 98 C 185.032 98.038 185.08 98.06 185.13 98.06 C 185.18 98.06 185.228 98.038 185.26 98 L 185.26 98 C 185.418 98.117 185.619 98.157 185.81 98.11 C 185.74 98.292 185.554 98.402 185.361 98.375 C 185.169 98.349 185.019 98.194 185 98 L 185 98 Z " fill="rgb(252,191,129)"/><path d=" M 183.5 98.47 C 184.195 97.918 184.779 97.24 185.22 96.47 C 185.393 96.149 185.688 95.912 186.039 95.814 C 186.39 95.716 186.766 95.765 187.08 95.95 C 187.128 95.595 187.151 95.238 187.15 94.88 C 187.15 93.07 190 93.04 189.97 94.88 C 190.028 96.294 189.647 97.691 188.88 98.88 C 188.027 99.963 186.987 100.884 185.81 101.6 C 185.388 101.837 184.876 101.848 184.444 101.629 C 184.012 101.41 183.718 100.991 183.66 100.51 L 183.53 100.41 C 183.011 99.872 182.998 99.024 183.5 98.47 Z " fill="rgb(252,191,129)"/><path d=" M 188 99.55 C 189.183 98.771 190.034 97.581 190.39 96.21 C 190.413 96.249 190.45 96.276 190.494 96.285 C 190.538 96.295 190.583 96.286 190.62 96.26 L 191.75 95.5 C 191.986 95.361 192.198 95.185 192.38 94.98 C 192.79 94.46 192.38 93.86 192.22 93.32 C 192.208 93.288 192.188 93.26 192.16 93.24 L 192.32 92.97 C 192.602 92.558 192.748 92.069 192.74 91.57 C 192.66 91.08 192.2 90.76 191.98 90.34 C 192.07 89.834 191.795 89.335 191.32 89.14 C 190.72 88.87 190.39 89.32 190.06 89.76 Q 189.06 91.18 188.06 92.67 C 187.94 92.86 188.25 93.03 188.37 92.84 C 188.71 92.3 189.05 91.77 189.37 91.25 C 189.669 90.667 190.054 90.131 190.51 89.66 C 191.77 88.93 191.51 90.66 191.32 91.12 C 191.2 91.38 191.05 91.63 190.9 91.88 L 190 93.57 C 189.978 93.614 189.978 93.666 190 93.71 C 190.559 95.824 189.68 98.055 187.83 99.22 C 187.65 99.38 187.83 99.68 188 99.55 Z  M 190.56 93.81 C 190.504 93.768 190.426 93.768 190.37 93.81 L 190.37 93.69 C 190.998 92.8 191.515 91.836 191.91 90.82 C 192 90.93 192.09 91.04 192.17 91.16 C 192.428 91.504 192.456 91.968 192.24 92.34 C 192 92.91 191.35 94.25 190.58 93.82 L 190.56 93.81 Z  M 190.46 96 C 190.572 95.402 190.572 94.788 190.46 94.19 C 191.06 94.49 191.58 94.09 191.95 93.6 C 192.055 93.825 192.139 94.059 192.2 94.3 C 192.258 94.615 192.104 94.932 191.82 95.08 C 191.39 95.36 190.92 95.65 190.46 96 Z " fill="rgb(52,50,61)"/><path d=" M 167.87 105.24 C 167.87 105.24 176.1 105.63 178.24 103.66 C 178.24 103.66 183.47 95.48 183.47 95.48 C 183.47 95.48 189.14 99.12 189.47 101.22 C 189.47 101.22 183.54 113.46 180.79 114.14" fill="rgb(40,43,78)"/><path d=" M 155.39 206.71 C 155.39 206.71 162.39 203.62 164.02 203.49 C 164.02 203.49 168.49 203.94 166.02 207.01 C 166.02 207.01 158.7 211.8 157.74 211.95 C 156.78 212.1 154.43 211.37 154.37 211.62 C 154.31 211.87 154.09 213.72 154.09 213.72 C 154.09 213.72 147.97 216.05 147.71 211.96 C 147.71 211.43 148.59 203.83 148.59 203.83" fill="rgb(52,50,61)"/><path d=" M 147.41 188.78 C 148.62 180.92 150.83 173.3 151.76 165.34 C 152.34 160.34 152.76 155.34 153.37 150.34 C 153.98 145.34 155.85 140.5 157.05 135.55 C 157.115 135.313 157.012 135.063 156.8 134.94 C 156.86 134.77 156.91 134.59 156.96 134.42 C 157.58 133.83 158.21 133.27 158.82 132.74 L 167.37 138.5 C 167.37 138.5 167.32 143.74 167.05 151.32 C 166.05 155.74 165.3 159.69 164.18 163.88 C 164.428 164.149 164.525 164.524 164.44 164.88 C 161.658 178.087 159.632 191.442 158.37 204.88 C 158.335 205.334 158.037 205.725 157.61 205.88 L 157.37 207.95 C 149.93 210.82 148.3 205.82 148.3 205.82 C 148.3 205.82 147.96 201.56 147.54 195.64 C 147.39 193.32 147.36 191 147.41 188.78 Z " fill="rgb(52,50,61)"/><path d=" M 210.36 108.56 C 209.92 108.82 209.44 109.12 208.89 109.49 C 209.626 108.551 210.275 107.547 210.83 106.49 C 211.38 105.57 210.01 104.81 209.34 105.49 C 207.445 107.552 205.403 109.473 203.23 111.24 C 203.129 111.315 203.043 111.411 202.98 111.52 L 201.65 111.52 C 201.25 111.52 200.88 111.52 200.51 111.52 L 200.19 111.52 C 199.917 111.462 199.634 111.549 199.44 111.75 C 199.266 111.809 199.098 111.886 198.94 111.98 C 198.889 112.015 198.842 112.055 198.8 112.1 C 198.36 112.1 197.92 112.18 197.49 112.24 C 197.198 112.303 196.949 112.493 196.812 112.758 C 196.675 113.023 196.663 113.335 196.78 113.61 L 196.6 113.51 C 195.6 112.9 194.83 114.51 195.81 115.14 C 197.892 116.418 200.287 117.093 202.73 117.09 C 202.954 117.26 203.251 117.298 203.51 117.19 L 203.93 117.04 C 206.003 116.937 208.048 116.512 209.99 115.78 C 210.508 115.575 211.054 115.45 211.61 115.41 L 211.61 115.41 C 211.25 113.12 210.79 110.84 210.36 108.56 Z " fill="rgb(252,191,129)"/><path d=" M 170.61 218.15 L 174.74 219.63 C 174.989 220.396 175.624 220.974 176.41 221.15 C 176.557 221.325 176.764 221.439 176.99 221.47 C 178.667 221.588 180.348 221.314 181.9 220.67 C 183.9 220.05 191.61 217.09 189.46 222.67 C 188.05 223.67 186.46 224.52 185.03 225.4 C 184.22 225.89 183.4 226.4 182.57 226.84 C 182.13 227.14 181.643 227.367 181.13 227.51 C 180.02 227.68 177.32 226.84 177.25 227.13 C 177.18 227.42 176.93 229.55 176.93 229.55 C 176.93 229.55 169.93 232.23 169.59 227.55 C 169.55 226.87 170.61 218.15 170.61 218.15 Z " fill="rgb(52,50,61)"/><path d=" M 164.79 175.86 C 163.93 161.96 163.45 147.98 160.52 134.31 C 160.39 130.76 158.09 133.03 158.25 131.62 C 159.5 120.19 176.16 133.79 176.16 133.79 C 176.83 134.34 176.92 137.85 177.05 138.64 Q 178.18 145.23 178.98 151.86 C 181.74 174.19 180.72 196.4 179.59 218.8 C 176.05 222.42 173.73 223.5 168.03 221.16 C 166.89 206.5 165.81 191.84 164.87 177.16 L 164.79 175.86 Z " fill="rgb(52,50,61)"/><path d=" M 173.7 106.76 C 173.54 106.04 171.7 105.55 171.12 105.25 C 169.83 104.55 170.58 103.33 169.32 102.57 C 167.484 101.501 165.572 100.569 163.6 99.78 L 163.55 99.78 C 160.39 99.78 155.09 99.6 154.77 103.78 C 154.28 110.28 154.85 116.78 155.35 123.24 C 155.55 125.84 155.78 128.42 156.01 130.96 C 156.09 131.89 156.21 139.39 156.77 139.62 C 163.04 142.22 171.06 141.3 177.2 138.87 C 176.865 128.092 175.695 117.357 173.7 106.76 L 173.7 106.76 Z " fill="rgb(40,43,78)"/><path d=" M 168.07 113.32 C 168.457 117.75 171.568 121.468 175.86 122.63 C 175.86 123.06 175.99 125.7 176.04 126.13 C 171.04 124.93 167.34 118.64 166.82 113.32 C 166.73 112.52 168 112.52 168.07 113.32 Z " fill="rgb(52,50,61)"/><path d=" M 165 86.64 C 165.41 86.75 168.92 94.81 167.54 99.7 C 166.16 104.59 157.85 99.56 155.76 95.83 C 153.67 92.1 157.14 84.6 165 86.64 Z " fill="rgb(252,191,129)"/><path d=" M 164.9 87.76 C 164.89 89.289 163.981 90.668 162.58 91.28 C 160.25 92.14 158.32 92.72 158.44 93.8 C 158.56 94.88 162.65 93.65 162.66 96.11 C 162.661 97.762 162.439 99.407 162 101 C 161.74 102.21 154.76 98.51 152.46 92.19 C 150.16 85.87 155.92 84.19 156.2 84.19 C 156.48 84.19 157 82.43 159.83 81.82 C 162.66 81.21 163.45 82.3 163.45 82.3 C 164.771 81.504 166.461 81.689 167.58 82.75 C 170.19 84.82 169.52 88.6 166.58 90.13 L 164.9 87.76 Z " fill="rgb(52,50,61)"/><path d=" M 168.05 101.87 C 168.05 101.87 182.43 110.11 187.61 110.12 C 191.35 110.12 198.75 108.91 202.61 108.23 C 206.17 111.23 206.41 116.53 204.2 120.58 C 197.92 121.58 179.32 124.28 173.49 121.39 C 166.43 117.89 158.66 113.2 158.66 113.2 C 158.66 113.2 151.61 106.3 168.05 101.87 Z " fill="rgb(40,43,78)"/><path d=" M 208.89 109.49 C 208.89 109.49 211.04 107.72 211.6 108.08 C 212.703 109.57 213.296 111.376 213.29 113.23 C 213.11 115.01 212.2 116.52 207.78 116.47" fill="rgb(252,191,129)"/><path d=" M 110.27 71.91 C 110.13 71.52 109.55 71.79 109.69 72.17 C 110.1 73.31 110.14 75.05 109.07 75.87 C 108.993 75.93 108.909 75.98 108.82 76.02 C 108.857 75.866 108.857 75.704 108.82 75.55 C 108.748 75.232 108.604 74.934 108.4 74.68 C 108.261 74.509 108.134 74.328 108.02 74.14 C 108.213 73.882 108.423 73.638 108.65 73.41 C 108.93 73.12 108.53 72.62 108.25 72.92 L 107.89 73.31 C 107.812 73.245 107.708 73.22 107.61 73.244 C 107.511 73.268 107.43 73.337 107.39 73.43 C 107.302 73.628 107.281 73.849 107.33 74.06 C 107.174 74.318 107.069 74.603 107.02 74.9 C 106.29 75.55 106.74 77.08 107.93 76.79 L 108.08 76.74 C 108.19 76.754 108.3 76.754 108.41 76.74 C 109.249 76.624 109.951 76.043 110.22 75.24 C 110.648 74.174 110.666 72.988 110.27 71.91 Z  M 107.7 75.27 L 107.7 75.27 C 107.806 75.248 107.883 75.158 107.89 75.05 L 108 75.22 C 108.177 75.454 108.207 75.766 108.08 76.03 C 107.833 75.857 107.69 75.571 107.7 75.27 Z " fill="rgb(255,65,59)"/><path d=" M 107.19 56.41 C 107.47 56.11 106.95 55.73 106.68 56.04 C 106.275 56.507 106.077 57.118 106.13 57.734 C 106.183 58.35 106.482 58.918 106.96 59.31 C 107.28 59.57 107.65 59.05 107.33 58.8 C 106.984 58.508 106.773 58.087 106.746 57.635 C 106.72 57.183 106.88 56.74 107.19 56.41 Z " fill="rgb(255,65,59)"/><path d=" M 122.11 61.33 L 121.78 61.33 L 121.39 60.94 C 121.1 60.66 120.6 61.06 120.9 61.34 L 120.99 61.42 C 120.094 61.555 119.216 61.786 118.37 62.11 C 117.99 62.26 118.25 62.84 118.63 62.69 C 119.278 62.443 119.948 62.256 120.63 62.13 C 120.34 62.55 120.215 63.063 120.28 63.57 C 120.334 63.831 120.484 64.063 120.7 64.22 C 120.7 64.356 120.786 64.477 120.914 64.522 C 121.042 64.567 121.185 64.526 121.27 64.42 C 121.356 64.431 121.444 64.431 121.53 64.42 C 122.131 64.244 122.561 63.714 122.61 63.09 C 122.621 62.737 122.527 62.389 122.34 62.09 L 122.48 61.78 C 122.535 61.667 122.52 61.533 122.44 61.436 C 122.36 61.339 122.231 61.298 122.11 61.33 Z  M 121 63.57 C 120.937 63.382 120.937 63.178 121 62.99 C 121.109 62.623 121.293 62.283 121.54 61.99 L 121.54 61.99 L 121.62 62.1 L 121 63.57 Z " fill="rgb(255,65,59)"/><path d=" M 94 94.24 C 93.61 94.11 93.38 94.7 93.77 94.83 C 94.61 95.11 95.92 95.54 95.77 96.65 C 95.71 97.22 95.27 97.55 94.77 97.25 C 94.416 96.954 94.15 96.566 94 96.13 C 93.82 95.76 93.24 96.02 93.42 96.39 C 93.66 97.069 94.155 97.628 94.8 97.95 C 95.385 98.157 96.033 97.895 96.31 97.34 C 97.14 95.7 95.29 94.67 94 94.24 Z " fill="rgb(255,65,59)"/><path d=" M 93 67.06 C 92.72 66.77 92.22 67.17 92.51 67.46 C 93.042 67.983 93.227 68.766 92.985 69.472 C 92.743 70.178 92.117 70.683 91.376 70.77 C 90.635 70.857 89.909 70.511 89.51 69.88 C 89.28 69.54 88.79 69.94 89.02 70.28 C 89.58 71.042 90.512 71.435 91.448 71.303 C 92.384 71.172 93.173 70.537 93.501 69.651 C 93.829 68.764 93.645 67.769 93.02 67.06 L 93 67.06 Z " fill="rgb(255,65,59)"/><path d=" M 115.52 43.31 C 125.43 47.83 127.63 64.31 120.43 80.08 C 113.23 95.85 99.35 104.99 89.43 100.47 C 79.51 95.95 75.95 77.2 83.15 61.41 C 90.35 45.62 105.61 38.79 115.52 43.31 Z " fill="rgb(40,43,78)"/><g opacity="0.13"><path d=" M 115.52 43.31 C 125.43 47.83 127.63 64.31 120.43 80.08 C 113.23 95.85 99.35 104.99 89.43 100.47 C 79.51 95.95 75.95 77.2 83.15 61.41 C 90.35 45.62 105.61 38.79 115.52 43.31 Z " fill="rgb(0,0,0)"/></g><path d=" M 113.09 50.1 C 121.04 53.73 122.98 66.54 117.43 78.71 C 111.88 90.88 100.92 97.81 93 94.18 C 85.08 90.55 81.89 76.59 87.45 64.41 C 93.01 52.23 105.14 46.47 113.09 50.1 Z " fill="rgb(255,255,255)"/><path d=" M 108.81 53.73 L 102.25 73.66 L 104.1 72.66 L 94.87 70.58 C 92.99 70.16 92.19 73.05 94.07 73.47 L 103.3 75.55 C 104.084 75.755 104.892 75.318 105.15 74.55 L 111.71 54.62 C 112.31 52.78 109.42 51.99 108.82 53.82 L 108.81 53.73 Z " fill="rgb(66,33,11)"/><path d=" M 102.3 53.78 C 101.685 53.903 101.277 54.488 101.373 55.108 C 101.47 55.727 102.037 56.16 102.66 56.09 C 103.275 55.967 103.683 55.382 103.587 54.762 C 103.49 54.143 102.923 53.71 102.3 53.78 L 102.3 53.78 Z " fill="rgb(96,96,96)"/><path d=" M 104.8 88.89 C 104.185 89.013 103.777 89.598 103.873 90.218 C 103.97 90.837 104.537 91.27 105.16 91.2 C 105.775 91.077 106.183 90.492 106.087 89.872 C 105.99 89.253 105.423 88.82 104.8 88.89 L 104.8 88.89 Z " fill="rgb(96,96,96)"/><path d=" M 117.61 67.13 C 116.995 67.253 116.587 67.838 116.683 68.458 C 116.78 69.077 117.347 69.51 117.97 69.44 C 118.585 69.317 118.993 68.732 118.897 68.112 C 118.8 67.493 118.233 67.06 117.61 67.13 L 117.61 67.13 Z " fill="rgb(96,96,96)"/><path d=" M 88.63 75.19 C 88.004 75.304 87.584 75.898 87.685 76.526 C 87.786 77.154 88.37 77.587 89 77.5 C 89.626 77.386 90.046 76.792 89.945 76.164 C 89.844 75.536 89.26 75.103 88.63 75.19 Z " fill="rgb(96,96,96)"/><g opacity="0.37"><path d=" M 103.7 74.06 C 103.7 74.06 94.93 56.06 94.91 56.13 C 94.89 56.2 89 62.85 86.77 70.61 L 103.7 74.06 Z " fill="rgb(54,178,191)"/></g></g></svg>