<?xml version="1.0" encoding="utf-8"?>
<!-- Generator: Adobe Illustrator 24.0.1, SVG Export Plug-In . SVG Version: 6.00 Build 0)  -->
<svg version="1.1" id="Layer_1" xmlns="http://www.w3.org/2000/svg" xmlns:xlink="http://www.w3.org/1999/xlink" x="0px" y="0px"
	 viewBox="0 0 400 300" style="enable-background:new 0 0 400 300;" xml:space="preserve">
<style type="text/css">
	.st0{clip-path:url(#SVGID_2_);}
	.st1{fill:#282B4E;}
	.st2{opacity:0.36;}
	.st3{fill:#63689B;}
	.st4{opacity:0.32;}
	.st5{fill:none;}
	.st6{fill:#FEDBAB;}
	.st7{fill:url(#SVGID_3_);}
	.st8{fill:#FEA832;}
	.st9{fill:#FDFDFD;}
	.st10{fill:#FE9923;}
	.st11{fill:#FC1A40;}
	.st12{fill:#C60034;}
	.st13{fill:#FEDB41;}
	.st14{fill:#FCBF29;}
</style>
<g>
	<defs>
		<rect id="SVGID_1_" width="400" height="300"/>
	</defs>
	<clipPath id="SVGID_2_">
		<use xlink:href="#SVGID_1_"  style="overflow:visible;"/>
	</clipPath>
	<g class="st0">
		<g>
			<path class="st1" d="M36.7,165.3l149.1-84.9c7.4-4.2,16.5-4.2,23.9,0.1l153.6,89.5c4.1,2.4,6.6,6.8,6.6,11.5
				c0,4.7-2.6,9.1-6.7,11.5l-143.4,82.4c-9.9,5.7-22.1,5.7-31.9,0l-151.3-87c-4.1-2.4-6.7-6.8-6.7-11.6S32.6,167.7,36.7,165.3z"/>
			<g class="st2">
				<path class="st3" d="M78.3,166.3l112.3-64c5.6-3.2,12.4-3.1,18,0.1l115.8,67.4c3.1,1.8,5.1,5.1,5.1,8.7s-1.9,6.9-5.1,8.7
					l-108,62c-7.4,4.3-16.6,4.3-24.1,0l-114-65.6c-3.1-1.8-5-5.1-5-8.7C73.3,171.4,75.2,168.1,78.3,166.3L78.3,166.3z"/>
			</g>
		</g>
		<g class="st4">
			<path class="st5" d="M286.8,161.8L145.5,244l-90.2-53.3l141.5-87.9"/>
		</g>
		<path class="st6" d="M291.8,55.5H108.4c-10.8,0-19.6,8.7-19.6,19.6v117.4c0,10.8,8.7,19.6,19.6,19.6h183.4
			c10.8,0,19.6-8.7,19.6-19.6V75C311.4,64.2,302.6,55.5,291.8,55.5z"/>
		<linearGradient id="SVGID_3_" gradientUnits="userSpaceOnUse" x1="160.553" y1="133.707" x2="311.369" y2="133.707">
			<stop  offset="0" style="stop-color:#F5524E"/>
			<stop  offset="1" style="stop-color:#D0342F"/>
		</linearGradient>
		<path class="st7" d="M311.4,75v117.4c0,10.8-8.7,19.6-19.6,19.6H160.6V55.5h131.3C302.6,55.5,311.4,64.2,311.4,75z"/>
		<path class="st8" d="M193.1,101.1c0,10.7-8.7,19.6-19.6,19.6h-26.1c-10.7,0-19.6-8.7-19.6-19.6c0-11.2,9.4-20.1,20.7-19.6
			c3.1,0.3,7.3,1.3,11.9,4.6c0.1,0.1,0.4,0.3,0.5,0.4C173.2,76.1,193.1,84,193.1,101.1z"/>
		<path class="st9" d="M278.8,107.6h-39.6c-3.6,0-6.5-2.9-6.5-6.5c0-3.6,2.9-6.5,6.5-6.5h39.6c3.6,0,6.5,2.9,6.5,6.5
			C285.3,104.7,282.4,107.6,278.8,107.6z"/>
		<path class="st9" d="M278.8,146.7h-39.6c-3.6,0-6.5-2.9-6.5-6.5c0-3.6,2.9-6.5,6.5-6.5h39.6c3.6,0,6.5,2.9,6.5,6.5
			C285.3,143.8,282.4,146.7,278.8,146.7z"/>
		<path class="st9" d="M278.8,185.9h-39.6c-3.6,0-6.5-2.9-6.5-6.5c0-3.6,2.9-6.5,6.5-6.5h39.6c3.6,0,6.5,2.9,6.5,6.5
			C285.3,182.9,282.4,185.9,278.8,185.9z"/>
		<path class="st10" d="M193.1,101.1c0,10.7-8.7,19.6-19.6,19.6h-13V86.1c0.1,0.1,0.4,0.3,0.5,0.4C173.2,76.1,193.1,84,193.1,101.1z
			"/>
		<path class="st11" d="M206.2,133.7l-10,6l10,7v32.6c0,3.7-2.9,6.5-6.5,6.5h-78.2c-3.7,0-6.5-2.9-6.5-6.5v-32.6l8.5-6.4l-8.5-6.6
			v-19.6c0-3.7,2.9-6.5,6.5-6.5h78.2c3.7,0,6.5,2.9,6.5,6.5V133.7z"/>
		<path class="st12" d="M206.2,133.7l-10,6l10,7v32.6c0,3.7-2.9,6.5-6.5,6.5h-39.1v-78.2h39.1c3.7,0,6.5,2.9,6.5,6.5V133.7z"/>
		<rect x="114.9" y="133.7" class="st8" width="91.3" height="13"/>
		<rect x="160.6" y="133.7" class="st10" width="45.6" height="13"/>
		<rect x="154" y="107.6" class="st13" width="13" height="78.2"/>
		<rect x="160.6" y="107.6" class="st14" width="6.5" height="78.2"/>
	</g>
</g>
</svg>
