<?xml version="1.0" encoding="UTF-8" standalone="no"?><!-- Generator: Gravit.io --><svg xmlns="http://www.w3.org/2000/svg" xmlns:xlink="http://www.w3.org/1999/xlink" style="isolation:isolate" viewBox="0 0 527.26 407.09" width="527.26pt" height="407.09pt"><defs><clipPath id="_clipPath_EhtouUIix3X1Z6zLaQTknLKsF7xdsK8I"><rect width="527.26" height="407.09"/></clipPath></defs><g clip-path="url(#_clipPath_EhtouUIix3X1Z6zLaQTknLKsF7xdsK8I)"><path d=" M 302.67 209.33 C 302.67 209.33 393.11 291.98 372.74 319.53 C 356.29 341.8 312.06 357.41 295.74 362.58 C 291.822 363.816 287.579 363.497 283.89 361.69 L 185.76 313.75 C 183.941 312.853 182.915 310.879 183.227 308.876 C 183.538 306.872 185.115 305.302 187.12 305 C 207.17 302 241 295.37 250.91 283.6 C 265.29 266.53 197.61 200.35 197.61 200.35 L 302.67 209.33 Z " fill="rgb(40,43,78)"/><linearGradient id="_lgradient_18" x1="-0.0003183633881933545" y1="0.5000279662531666" x2="1.000008556058486" y2="0.5000279662531666" gradientTransform="matrix(192.557,0,0,162.971,183.171,200.35)" gradientUnits="userSpaceOnUse"><stop offset="0%" stop-opacity="0" style="stop-color:rgb(1,1,1)"/><stop offset="95%" stop-opacity="1" style="stop-color:rgb(1,1,1)"/></linearGradient><path d=" M 302.67 209.33 C 302.67 209.33 393.11 291.98 372.74 319.53 C 356.29 341.8 312.06 357.41 295.74 362.58 C 291.822 363.816 287.579 363.497 283.89 361.69 L 185.76 313.75 C 183.941 312.853 182.915 310.879 183.227 308.876 C 183.538 306.872 185.115 305.302 187.12 305 C 207.17 302 241 295.37 250.91 283.6 C 265.29 266.53 197.61 200.35 197.61 200.35 L 302.67 209.33 Z " fill="url(#_lgradient_18)"/><path d=" M 303.27 203.04 C 303.27 203.04 393.7 285.69 373.34 313.24 C 356.88 335.51 312.66 351.12 296.29 356.29 C 292.372 357.526 288.129 357.207 284.44 355.4 L 186.31 307.48 C 184.491 306.583 183.465 304.609 183.777 302.606 C 184.088 300.602 185.665 299.032 187.67 298.73 C 207.72 295.73 241.55 289.1 251.46 277.33 C 265.84 260.26 198.16 194.08 198.16 194.08 L 303.27 203.04 Z " fill="rgb(57,61,106)"/><linearGradient id="_lgradient_19" x1="0" y1="0.5" x2="0.8582472731717785" y2="-0.01323641540055065" gradientTransform="matrix(119.94,0,0,69.17,244.57,267.88)" gradientUnits="userSpaceOnUse"><stop offset="100%" stop-opacity="0" style="stop-color:rgb(1,1,1)"/><stop offset="100%" stop-opacity="0.010414876609749367" style="stop-color:rgb(1,1,1)"/></linearGradient><path d=" M 244.57 284.05 L 346.09 337.05 C 346.09 337.05 361.81 328.05 364.51 321.78 C 364.51 321.78 265.24 267.88 265.24 267.88 L 251.46 277.31 L 244.57 284.05 Z " fill="url(#_lgradient_19)"/><path d=" M 365.09 331.98 L 154.47 225.48 C 145.23 220.81 139.54 212.17 139.54 202.83 L 139.54 32.68 C 139.54 12.55 164.42 -0.04 184.32 10.03 L 394.97 116.57 C 404.21 121.24 409.9 129.88 409.9 139.22 L 409.9 309.32 C 409.87 329.48 384.97 342.04 365.09 331.98 Z " fill="rgb(40,43,78)"/><path d=" M 409.88 139.23 L 409.88 309.33 C 409.88 321.13 401.33 330.33 390.25 333.9 C 381.942 336.597 372.906 335.91 365.1 331.99 L 154.46 225.48 C 145.23 220.8 139.54 212.16 139.54 202.83 L 139.54 32.69 C 139.54 24.22 143.94 17.1 150.54 12.45 C 160.503 5.475 173.495 4.545 184.35 10.03 L 394.97 116.57 C 404.18 121.25 409.88 129.87 409.88 139.23 Z " fill="rgb(85,88,136)"/><linearGradient id="_lgradient_20" x1="0.4747841369297774" y1="0.5669327316047154" x2="0.8444826538401582" y2="-0.6503549751697001" gradientTransform="matrix(261.74,0,0,324.734,139.54,10.788)" gradientUnits="userSpaceOnUse"><stop offset="0%" stop-opacity="0" style="stop-color:rgb(255,255,255)"/><stop offset="66.25%" stop-opacity="0.37" style="stop-color:rgb(255,255,255)"/></linearGradient><path d=" M 401.28 143.53 L 401.28 313.63 C 401.28 322.12 396.86 329.24 390.28 333.9 C 381.972 336.597 372.936 335.91 365.13 331.99 L 154.46 225.48 C 145.23 220.8 139.54 212.16 139.54 202.83 L 139.54 32.69 C 139.54 24.22 143.94 17.1 150.54 12.45 C 158.87 9.704 167.949 10.38 175.78 14.33 L 386.36 120.87 C 395.59 125.55 401.28 134.17 401.28 143.53 Z " fill="url(#_lgradient_20)"/><path d=" M 188.88 148.17 L 372.23 241.17 C 374.617 242.388 376.014 244.943 375.75 247.61 L 375.75 247.61 C 375.542 249.727 374.311 251.607 372.455 252.646 C 370.6 253.685 368.353 253.75 366.44 252.82 L 163.76 154.63 C 161.092 153.338 159.636 150.406 160.22 147.5 L 160.9 144.06 C 161.268 142.211 162.421 140.612 164.06 139.68 C 165.699 138.747 167.662 138.572 169.44 139.2 C 169.44 139.2 188.62 148.04 188.88 148.17 Z " fill="rgb(30,33,59)"/><path d=" M 322.97 216.3 L 178.11 289.58 C 168.68 294.36 152.22 293.75 141.34 288.26 L 53.64 243.91 C 46.22 240.15 43.32 235.11 45.2 230.76 C 46.35 233.54 49.2 236.26 53.64 238.52 L 127.2 275.72 L 137.86 281.08 L 141.34 282.86 C 141.715 283.07 142.107 283.251 142.51 283.4 C 142.991 283.646 143.485 283.867 143.99 284.06 C 144.443 284.263 144.907 284.44 145.38 284.59 C 145.704 284.725 146.039 284.836 146.38 284.92 C 146.99 285.13 147.62 285.33 148.26 285.51 C 148.885 285.72 149.523 285.89 150.17 286.02 C 150.828 286.202 151.496 286.346 152.17 286.45 C 153.49 286.7 154.84 286.93 156.17 287.09 C 156.57 287.14 156.98 287.19 157.41 287.21 C 157.84 287.23 158.41 287.31 158.96 287.34 C 166.08 287.77 173.1 286.75 178.11 284.21 L 317.63 213.63 L 322.97 216.3 Z " fill="rgb(40,43,78)"/><linearGradient id="_lgradient_21" x1="0.4665618574207717" y1="0.05519405055269366" x2="0.48369357500891375" y2="2.3336518332301406" gradientTransform="matrix(278.327,0,0,79.175,44.643,213.63)" gradientUnits="userSpaceOnUse"><stop offset="0%" stop-opacity="1" style="stop-color:rgb(95,99,149)"/><stop offset="62.916666666666664%" stop-opacity="0.00447281201218394" style="stop-color:rgb(52,50,87)"/></linearGradient><path d=" M 322.97 216.3 L 178.11 289.58 C 168.68 294.36 152.22 293.75 141.34 288.26 L 53.64 243.91 C 46.22 240.15 43.32 235.11 45.2 230.76 C 46.35 233.54 49.2 236.26 53.64 238.52 L 127.2 275.72 L 137.86 281.08 L 141.34 282.86 C 141.715 283.07 142.107 283.251 142.51 283.4 C 142.99 283.63 143.51 283.86 143.99 284.06 C 144.443 284.263 144.907 284.44 145.38 284.59 C 145.72 284.72 146.05 284.82 146.38 284.92 C 146.99 285.13 147.62 285.33 148.26 285.51 C 148.9 285.69 149.53 285.86 150.17 286.02 C 150.81 286.18 151.49 286.32 152.17 286.45 C 153.49 286.7 154.84 286.93 156.17 287.09 C 156.57 287.14 157.01 287.19 157.41 287.21 C 157.81 287.23 158.41 287.31 158.96 287.34 C 166.08 287.77 173.1 286.75 178.11 284.21 L 317.63 213.63 L 322.97 216.3 Z " fill="url(#_lgradient_21)"/><path d=" M 317.63 213.63 L 178.11 284.21 C 170.05 288.31 156.85 288.46 146.38 284.92 C 145.048 284.527 143.753 284.019 142.51 283.4 C 142.107 283.251 141.715 283.07 141.34 282.86 L 137.86 281.08 L 127.2 275.72 L 53.64 238.48 C 49.2 236.22 46.35 233.48 45.2 230.72 C 43.58 226.72 45.43 222.72 51.03 219.87 L 189.6 149.77 L 283.3 196.47 L 302.3 205.96 L 317.63 213.63 Z " fill="rgb(40,43,78)"/><path d=" M 91.02 238.65 C 90.81 241.23 92.49 243.65 94.66 245.12 C 96.909 246.431 99.375 247.328 101.94 247.77 C 118.52 251.67 135.59 255.58 152.43 253 C 153.735 252.929 154.978 252.422 155.96 251.56 C 156.96 250.44 157.04 248.74 157.68 247.35 C 159.02 244.41 162.68 243.35 165.94 243.35 C 169.2 243.35 172.47 244.1 175.6 243.29 C 178.73 242.48 181.6 239.29 180.48 236.21 C 179.76 234.27 177.75 233.21 175.87 232.33 C 159.934 224.951 142.528 221.296 124.97 221.64 C 117.65 221.84 114.31 224.14 108.17 227.36 C 103.24 229.95 91.61 231.48 91.02 238.65 Z " fill="rgb(30,33,59)"/><linearGradient id="_lgradient_22" x1="0" y1="0.5" x2="1" y2="0.5" gradientTransform="matrix(175.25,0,0,88.61,127.07,196.52)" gradientUnits="userSpaceOnUse"><stop offset="0%" stop-opacity="1" style="stop-color:rgb(65,68,102)"/><stop offset="100%" stop-opacity="1" style="stop-color:rgb(26,29,55)"/></linearGradient><path d=" M 283.3 196.52 L 302.32 206 L 146.37 284.93 L 145.99 285.13 L 142.51 283.4 L 137.85 281.08 L 127.07 275.77 L 127.2 275.72 L 283.3 196.52 L 283.3 196.52 Z " fill="url(#_lgradient_22)"/><linearGradient id="_lgradient_23" x1="0" y1="0.5" x2="0.8382071636222245" y2="1.0453519513602068" gradientTransform="matrix(4.12,0,0,2.29,369.73,167.76)" gradientUnits="userSpaceOnUse"><stop offset="100%" stop-opacity="0" style="stop-color:rgb(1,1,1)"/><stop offset="100%" stop-opacity="0.07745633399171312" style="stop-color:rgb(1,1,1)"/></linearGradient><path d=" M 373.85 169.82 L 373.39 170.05 C 372.247 169.17 371.021 168.403 369.73 167.76 L 373.85 169.82 Z " fill="url(#_lgradient_23)"/><path d=" M 373.85 169.82 L 373.39 170.05 C 372.247 169.17 371.021 168.403 369.73 167.76 L 373.85 169.82 Z " fill="rgb(40,43,78)"/><linearGradient id="_lgradient_24" x1="0" y1="0.5" x2="1" y2="0.5" gradientTransform="matrix(261.74,0,0,171.202,139.54,164.32)" gradientUnits="userSpaceOnUse"><stop offset="0%" stop-opacity="0.24" style="stop-color:rgb(47,50,77)"/><stop offset="100%" stop-opacity="1" style="stop-color:rgb(22,15,38)"/></linearGradient><path d=" M 401.28 297.54 L 401.28 313.63 C 401.28 322.12 396.86 329.24 390.28 333.9 C 381.972 336.597 372.936 335.91 365.13 331.99 L 154.46 225.48 C 145.23 220.8 139.54 212.16 139.54 202.83 L 139.54 165.04 L 140.48 164.32 L 401.28 297.54 Z " fill="url(#_lgradient_24)"/><path d=" M 313.73 177.48 L 218.23 128.59 C 208.76 123.74 200.68 110.59 200.23 99.14 L 199.99 93.64 C 199.5 82.22 206.78 76.9 216.25 81.75 L 311.75 130.64 C 321.22 135.48 329.3 148.64 329.75 160.09 L 329.99 165.59 C 330.48 177 323.2 182.33 313.73 177.48 Z " fill="rgb(40,43,78)"/><path d=" M 232.72 122.07 C 232.835 121.141 232.885 120.206 232.87 119.27 L 232.87 108.73 C 232.877 107.751 232.827 106.773 232.72 105.8 C 233.6 106.35 234.28 106.8 235.49 107.47 L 239.62 109.87 C 243.36 112.03 245.41 115.08 245.41 118.47 C 245.41 121.86 243.26 122.75 239.6 120.63 L 236.6 118.9 L 236.6 121.39 C 236.599 122.392 236.65 123.393 236.75 124.39 L 232.72 122.07 Z  M 239.43 117.22 C 240.75 117.98 241.53 117.67 241.53 116.33 C 241.492 114.937 240.683 113.681 239.43 113.07 L 236.62 111.48 L 236.62 115.63 L 239.43 117.22 Z " fill="rgb(255,255,255)"/><path d=" M 264.1 140.28 C 263.993 139.486 263.842 138.698 263.65 137.92 L 263.14 135.92 L 257.76 132.8 L 257.26 134.16 C 257.027 134.752 256.866 135.37 256.78 136 L 252.37 133.48 C 252.73 132.894 253.031 132.275 253.27 131.63 L 257.35 122.27 C 257.634 121.703 257.842 121.101 257.97 120.48 L 262.9 123.34 C 263.068 124.178 263.282 125.006 263.54 125.82 L 267.63 139.92 C 267.99 141.16 268.29 142.14 268.54 142.83 L 264.1 140.28 Z  M 260.42 125.28 L 258.67 130.11 L 262.22 132.17 L 260.42 125.28 Z " fill="rgb(255,255,255)"/><path d=" M 284.74 149.37 C 284.731 150.372 284.781 151.374 284.89 152.37 L 280.77 149.98 C 280.877 149.051 280.927 148.116 280.92 147.18 L 280.92 143.58 L 276.59 133.7 C 276.25 132.89 275.83 132.01 275.08 130.46 L 279.85 133.23 C 280.076 134.106 280.374 134.962 280.74 135.79 L 282.83 140.96 L 284.92 138.24 C 285.314 137.785 285.61 137.254 285.79 136.68 L 290.57 139.48 C 290.02 139.98 289.3 140.68 289.06 140.96 L 284.74 145.82 L 284.74 149.37 Z " fill="rgb(255,255,255)"/><path d=" M 115.22 196.48 L 114.65 196.21 L 118.31 188.59 C 118.659 187.765 119.124 186.994 119.69 186.3 C 120.264 185.654 120.999 185.171 121.82 184.9 C 122.01 184.834 122.209 184.797 122.41 184.79 C 122.734 184.816 123.04 184.95 123.28 185.17 C 124.011 185.917 124.441 186.906 124.49 187.95 C 124.829 190.431 124.731 192.953 124.2 195.4 L 123.58 195.27 C 124.101 192.896 124.199 190.448 123.87 188.04 C 123.839 187.148 123.484 186.298 122.87 185.65 C 122.742 185.519 122.572 185.438 122.39 185.42 L 122.39 185.42 C 122.27 185.422 122.152 185.446 122.04 185.49 C 121.322 185.727 120.679 186.152 120.18 186.72 C 119.655 187.37 119.224 188.09 118.9 188.86 L 115.22 196.48 Z " fill="rgb(136,141,195)"/><path d=" M 126.05 194.09 Q 126.18 198.99 126.43 203.9 C 126.49 208.381 127.114 212.836 128.29 217.16 C 128.521 217.646 128.546 218.205 128.36 218.71 C 128.122 219.037 127.791 219.285 127.41 219.42 C 123.75 221.11 120.01 222.81 116.01 223.28 C 112.512 223.53 108.995 223.298 105.56 222.59 C 105.425 222.577 105.295 222.533 105.18 222.46 C 104.96 222.28 105 221.93 105.06 221.65 C 105.85 217.79 105.34 213.77 105.92 209.87 C 106.5 205.97 108.22 202.27 109.92 198.66 C 110.66 197.09 111.5 197.09 113.19 196.74 L 119.31 195.48 C 119.87 195.36 126.05 194.26 126.05 194.09 Z " fill="rgb(40,43,78)"/><path d=" M 126.05 194.09 Q 126.18 198.99 126.43 203.9 C 126.49 208.381 127.114 212.836 128.29 217.16 C 128.521 217.646 128.546 218.205 128.36 218.71 C 128.122 219.037 127.791 219.285 127.41 219.42 C 123.75 221.11 120.01 222.81 116.01 223.28 C 112.512 223.53 108.995 223.298 105.56 222.59 C 105.425 222.577 105.295 222.533 105.18 222.46 C 104.96 222.28 105 221.93 105.06 221.65 C 105.85 217.79 105.34 213.77 105.92 209.87 C 106.5 205.97 108.22 202.27 109.92 198.66 C 110.66 197.09 111.5 197.09 113.19 196.74 L 119.31 195.48 C 119.87 195.36 126.05 194.26 126.05 194.09 Z " fill="rgb(28,30,55)"/><path d=" M 130.17 147.33 C 128.3 147.65 127.11 149.46 126.17 151.1 C 124.636 153.541 123.353 156.131 122.34 158.83 C 121.495 161.608 120.971 164.473 120.78 167.37 C 120.43 171.1 120.21 174.83 120.12 178.58 C 120.12 179.76 120.2 181.18 121.24 181.76 C 122.07 182.141 123.049 181.97 123.7 181.33 C 124.327 180.687 124.787 179.901 125.04 179.04 C 126.04 176.32 126.43 173.42 127.52 170.75 C 128.21 169.04 129.16 167.45 129.93 165.75 C 132.531 159.754 132.71 152.985 130.43 146.86 L 130.17 147.33 Z " fill="rgb(40,43,78)"/><linearGradient id="_lgradient_25" x1="0" y1="0.5" x2="0.9928040640525628" y2="0.38024988350437927" gradientTransform="matrix(11.899,0,0,35.101,120.12,146.86)" gradientUnits="userSpaceOnUse"><stop offset="100%" stop-opacity="1" style="stop-color:rgb(1,1,1)"/><stop offset="100%" stop-opacity="0.9521748487529592" style="stop-color:rgb(1,1,1)"/></linearGradient><path d=" M 130.17 147.33 C 128.3 147.65 127.11 149.46 126.17 151.1 C 124.636 153.541 123.353 156.131 122.34 158.83 C 121.495 161.608 120.971 164.473 120.78 167.37 C 120.43 171.1 120.21 174.83 120.12 178.58 C 120.12 179.76 120.2 181.18 121.24 181.76 C 122.07 182.141 123.049 181.97 123.7 181.33 C 124.327 180.687 124.787 179.901 125.04 179.04 C 126.04 176.32 126.43 173.42 127.52 170.75 C 128.21 169.04 129.16 167.45 129.93 165.75 C 132.531 159.754 132.71 152.985 130.43 146.86 L 130.17 147.33 Z " fill="url(#_lgradient_25)"/><path d=" M 119.69 184.89 C 119.595 185.97 119.818 187.054 120.33 188.01 C 120.859 188.984 121.93 189.535 123.03 189.4 C 124.175 189.107 124.956 188.05 124.9 186.87 C 124.835 186.412 124.835 185.948 124.9 185.49 C 124.96 185.25 125.09 185.03 125.15 184.79 C 125.35 183.98 124.77 183.18 124.67 182.35 C 124.57 181.52 124.85 180.83 124.52 180.17 C 123.664 179.104 122.163 178.812 120.97 179.48 C 119.85 180.36 119.73 183.61 119.69 184.89 Z " fill="rgb(243,169,132)"/><path d=" M 118.86 197.48 L 118.26 197.3 L 120.65 189.19 C 120.862 188.319 121.198 187.484 121.65 186.71 C 122.114 185.982 122.758 185.386 123.52 184.98 C 123.698 184.882 123.89 184.814 124.09 184.78 C 124.411 184.75 124.732 184.831 125 185.01 C 125.849 185.628 126.438 186.541 126.65 187.57 C 127.381 189.965 127.689 192.469 127.56 194.97 L 126.93 194.97 C 127.059 192.544 126.761 190.113 126.05 187.79 C 125.872 186.919 125.386 186.141 124.68 185.6 C 124.534 185.489 124.353 185.435 124.17 185.45 C 124.043 185.47 123.921 185.514 123.81 185.58 C 123.146 185.931 122.585 186.448 122.18 187.08 C 121.771 187.812 121.462 188.596 121.26 189.41 L 118.86 197.48 Z " fill="rgb(136,141,195)"/><path d=" M 129.16 193.39 C 129.78 196.61 130.44 199.82 131.16 203.02 C 131.946 207.436 133.29 211.734 135.16 215.81 C 135.467 216.253 135.582 216.801 135.48 217.33 C 135.302 217.695 135.011 217.993 134.65 218.18 C 131.31 220.43 127.9 222.72 124.02 223.82 C 120.609 224.629 117.103 224.965 113.6 224.82 C 113.464 224.836 113.326 224.815 113.2 224.76 C 112.95 224.61 112.94 224.27 112.95 223.98 C 113.12 220.04 111.95 216.16 111.95 212.22 C 111.95 208.28 112.95 204.34 114.08 200.51 C 114.56 198.84 115.39 198.71 117 198.09 L 122.83 195.87 C 123.27 195.64 129.2 193.57 129.16 193.39 Z " fill="rgb(40,43,78)"/><linearGradient id="_lgradient_26" x1="0.6955424237154935" y1="0.9090990924179536" x2="0.17573680566877659" y2="0.08272720530844369" gradientTransform="matrix(23.567,0,0,31.463,111.95,193.39)" gradientUnits="userSpaceOnUse"><stop offset="0%" stop-opacity="1" style="stop-color:rgb(49,51,83)"/><stop offset="100%" stop-opacity="1" style="stop-color:rgb(67,78,136)"/></linearGradient><path d=" M 129.16 193.39 C 129.78 196.61 130.44 199.82 131.16 203.02 C 131.946 207.436 133.29 211.734 135.16 215.81 C 135.467 216.253 135.582 216.801 135.48 217.33 C 135.302 217.695 135.011 217.993 134.65 218.18 C 131.31 220.43 127.9 222.72 124.02 223.82 C 120.609 224.629 117.103 224.965 113.6 224.82 C 113.464 224.836 113.326 224.815 113.2 224.76 C 112.95 224.61 112.94 224.27 112.95 223.98 C 113.12 220.04 111.95 216.16 111.95 212.22 C 111.95 208.28 112.95 204.34 114.08 200.51 C 114.56 198.84 115.39 198.71 117 198.09 L 122.83 195.87 C 123.27 195.64 129.2 193.57 129.16 193.39 Z " fill="url(#_lgradient_26)"/><path d=" M 132.55 236.64 C 132.584 236.996 132.735 237.33 132.98 237.59 C 133.334 237.831 133.768 237.925 134.19 237.85 C 136.64 237.664 138.993 236.818 141 235.4 C 141.77 234.85 142.56 233.89 142.1 233.07 C 141.768 232.637 141.273 232.359 140.73 232.3 C 139.801 232.093 138.851 231.996 137.9 232.01 C 137.659 232.038 137.414 232.004 137.19 231.91 C 136.77 231.68 136.71 231.11 136.71 230.63 C 136.71 225.86 136.8 221.08 137.1 216.32 C 137.215 215.255 137.195 214.18 137.04 213.12 C 136.87 212.047 136.285 211.084 135.41 210.44 C 134.33 209.74 132.01 209.83 131.36 211.17 C 131.09 211.74 131.36 212.53 131.41 213.17 C 131.5 214.27 131.52 215.38 131.55 216.48 C 131.64 220.79 131.47 225.1 131.69 229.4 C 131.798 231.831 132.086 234.251 132.55 236.64 L 132.55 236.64 Z " fill="rgb(243,169,132)"/><path d=" M 137.52 232.48 C 137.407 232.673 137.378 232.905 137.44 233.12 C 137.545 233.737 137.44 234.371 137.14 234.92 C 136.53 235.92 135.21 236.07 134.08 236.01 C 133.5 236.01 132.81 235.96 132.48 236.44 C 132.332 236.719 132.276 237.037 132.32 237.35 C 132.32 237.75 132.37 238.15 132.43 238.55 C 132.438 238.688 132.479 238.822 132.55 238.94 C 132.65 239.063 132.787 239.151 132.94 239.19 C 134.058 239.439 135.229 239.279 136.24 238.74 L 141.87 236.48 C 143.87 235.69 144.59 233.88 142.33 232.74 C 141.44 232.31 138.17 231.62 137.52 232.48 Z " fill="rgb(40,43,78)"/><linearGradient id="_lgradient_27" x1="0" y1="0.5" x2="0.1889460538710858" y2="1.4819874687217474" gradientTransform="matrix(11.422,0,0,7.235,132.305,232.069)" gradientUnits="userSpaceOnUse"><stop offset="100%" stop-opacity="0" style="stop-color:rgb(1,1,1)"/><stop offset="100%" stop-opacity="0.10102030508132191" style="stop-color:rgb(1,1,1)"/></linearGradient><path d=" M 137.52 232.48 C 137.407 232.673 137.378 232.905 137.44 233.12 C 137.545 233.737 137.44 234.371 137.14 234.92 C 136.53 235.92 135.21 236.07 134.08 236.01 C 133.5 236.01 132.81 235.96 132.48 236.44 C 132.332 236.719 132.276 237.037 132.32 237.35 C 132.32 237.75 132.37 238.15 132.43 238.55 C 132.438 238.688 132.479 238.822 132.55 238.94 C 132.65 239.063 132.787 239.151 132.94 239.19 C 134.058 239.439 135.229 239.279 136.24 238.74 L 141.87 236.48 C 143.87 235.69 144.59 233.88 142.33 232.74 C 141.44 232.31 138.17 231.62 137.52 232.48 Z " fill="url(#_lgradient_27)"/><path d=" M 143.51 240.76 C 143.537 241.132 143.688 241.484 143.94 241.76 C 144.294 242 144.729 242.09 145.15 242.01 C 147.611 241.803 149.969 240.928 151.97 239.48 C 152.74 238.94 153.53 237.98 153.06 237.16 C 152.732 236.726 152.241 236.444 151.7 236.38 C 150.771 236.177 149.821 236.083 148.87 236.1 C 148.628 236.125 148.383 236.087 148.16 235.99 C 147.74 235.77 147.68 235.19 147.67 234.71 Q 147.67 227.56 148.07 220.41 C 148.187 219.342 148.163 218.262 148 217.2 C 147.838 216.13 147.254 215.168 146.38 214.53 C 145.3 213.82 142.98 213.92 142.33 215.26 C 142.06 215.82 142.33 216.61 142.38 217.26 C 142.46 218.36 142.49 219.46 142.52 220.56 C 142.61 224.87 142.44 229.18 142.66 233.49 C 142.758 235.931 143.042 238.362 143.51 240.76 L 143.51 240.76 Z " fill="rgb(243,169,132)"/><path d=" M 148.75 236.36 C 148.637 236.553 148.608 236.785 148.67 237 C 148.775 237.617 148.67 238.251 148.37 238.8 C 147.76 239.8 146.44 239.95 145.31 239.89 C 144.73 239.89 144.04 239.84 143.71 240.32 C 143.562 240.599 143.506 240.917 143.55 241.23 C 143.55 241.63 143.55 242.03 143.66 242.43 C 143.668 242.568 143.709 242.702 143.78 242.82 C 143.88 242.943 144.017 243.031 144.17 243.07 C 145.288 243.319 146.459 243.159 147.47 242.62 L 153.1 240.43 C 155.1 239.64 155.82 237.83 153.56 236.69 C 152.67 236.24 149.4 235.55 148.75 236.36 Z " fill="rgb(40,43,78)"/><linearGradient id="_lgradient_28" x1="0" y1="0.5" x2="0.07459607966767647" y2="1.4972138310804828" gradientTransform="matrix(11.422,0,0,7.199,143.535,235.986)" gradientUnits="userSpaceOnUse"><stop offset="100%" stop-opacity="0" style="stop-color:rgb(1,1,1)"/><stop offset="100%" stop-opacity="0.06989585517578772" style="stop-color:rgb(1,1,1)"/></linearGradient><path d=" M 148.75 236.36 C 148.637 236.553 148.608 236.785 148.67 237 C 148.775 237.617 148.67 238.251 148.37 238.8 C 147.76 239.8 146.44 239.95 145.31 239.89 C 144.73 239.89 144.04 239.84 143.71 240.32 C 143.562 240.599 143.506 240.917 143.55 241.23 C 143.55 241.63 143.55 242.03 143.66 242.43 C 143.668 242.568 143.709 242.702 143.78 242.82 C 143.88 242.943 144.017 243.031 144.17 243.07 C 145.288 243.319 146.459 243.159 147.47 242.62 L 153.1 240.43 C 155.1 239.64 155.82 237.83 153.56 236.69 C 152.67 236.24 149.4 235.55 148.75 236.36 Z " fill="url(#_lgradient_28)"/><path d=" M 129.87 182.65 C 129.16 185.871 128.808 189.161 128.82 192.46 L 128.38 205.85 C 128.31 208.11 128.26 210.47 129.26 212.49 C 130.36 214.44 132.097 215.951 134.18 216.77 C 138.8 218.83 144.06 218.66 149.11 218.46 C 150.109 218.511 151.103 218.282 151.98 217.8 C 153.15 217 153.49 215.45 153.58 214.05 C 153.84 209.67 152.45 205.39 151.58 201.05 C 150.839 197.363 150.48 193.61 150.51 189.85 C 150.631 188.816 150.435 187.77 149.95 186.85 C 149.51 186.303 148.953 185.863 148.32 185.56 C 145.153 183.785 141.799 182.367 138.32 181.33 C 136.491 180.666 134.532 180.44 132.6 180.67 C 131.51 180.92 130.17 181.53 129.87 182.65 Z " fill="rgb(96,97,97)"/><linearGradient id="_lgradient_29" x1="0" y1="0.5" x2="1" y2="0.5" gradientTransform="matrix(25.265,0,0,37.99,128.347,180.583)" gradientUnits="userSpaceOnUse"><stop offset="100%" stop-opacity="0" style="stop-color:rgb(1,1,1)"/><stop offset="100%" stop-opacity="0.04167187565112308" style="stop-color:rgb(1,1,1)"/></linearGradient><path d=" M 129.87 182.65 C 129.16 185.871 128.808 189.161 128.82 192.46 L 128.38 205.85 C 128.31 208.11 128.26 210.47 129.26 212.49 C 130.36 214.44 132.097 215.951 134.18 216.77 C 138.8 218.83 144.06 218.66 149.11 218.46 C 150.109 218.511 151.103 218.282 151.98 217.8 C 153.15 217 153.49 215.45 153.58 214.05 C 153.84 209.67 152.45 205.39 151.58 201.05 C 150.839 197.363 150.48 193.61 150.51 189.85 C 150.631 188.816 150.435 187.77 149.95 186.85 C 149.51 186.303 148.953 185.863 148.32 185.56 C 145.153 183.785 141.799 182.367 138.32 181.33 C 136.491 180.666 134.532 180.44 132.6 180.67 C 131.51 180.92 130.17 181.53 129.87 182.65 Z " fill="url(#_lgradient_29)"/><path d=" M 143.16 148.48 C 140.67 147.17 138.09 145.83 135.28 145.66 C 132.47 145.49 129.36 146.81 128.37 149.45 C 128.016 150.578 127.87 151.76 127.94 152.94 L 127.81 176.05 C 127.692 177.946 127.905 179.847 128.44 181.67 C 129.5 184.67 132.19 186.75 135.02 188.17 C 138.55 189.93 142.68 190.87 146.48 189.81 C 147.609 189.561 148.631 188.963 149.4 188.1 C 150.4 186.83 150.4 185.1 150.4 183.48 L 150.23 159.48 C 150.254 158.359 150.177 157.238 150 156.13 C 149.26 152.38 146.35 150.13 143.16 148.48 Z " fill="rgb(40,43,78)"/><linearGradient id="_lgradient_30" x1="0" y1="0.5" x2="0.1517661844002145" y2="-0.4884164230083392" gradientTransform="matrix(22.622,0,0,44.611,127.778,145.645)" gradientUnits="userSpaceOnUse"><stop offset="0%" stop-opacity="0" style="stop-color:rgb(1,1,1)"/></linearGradient><path d=" M 143.16 148.48 C 140.67 147.17 138.09 145.83 135.28 145.66 C 132.47 145.49 129.36 146.81 128.37 149.45 C 128.016 150.578 127.87 151.76 127.94 152.94 L 127.81 176.05 C 127.692 177.946 127.905 179.847 128.44 181.67 C 129.5 184.67 132.19 186.75 135.02 188.17 C 138.55 189.93 142.68 190.87 146.48 189.81 C 147.609 189.561 148.631 188.963 149.4 188.1 C 150.4 186.83 150.4 185.1 150.4 183.48 L 150.23 159.48 C 150.254 158.359 150.177 157.238 150 156.13 C 149.26 152.38 146.35 150.13 143.16 148.48 Z " fill="url(#_lgradient_30)"/><path d=" M 146.36 141.16 C 146.275 142.473 145.657 143.694 144.65 144.54 C 144.261 144.812 143.922 145.151 143.65 145.54 C 143.16 146.42 143.59 147.54 143.4 148.54 C 143.293 149.196 142.677 149.642 142.02 149.54 C 140.771 149.472 139.642 148.775 139.02 147.69 C 138.412 146.598 138.05 145.386 137.96 144.14 C 137.737 142.345 137.693 140.533 137.83 138.73 C 137.865 137.614 138.13 136.518 138.61 135.51 C 139.458 133.891 141.23 132.979 143.04 133.23 C 144.488 133.53 145.61 134.676 145.88 136.13 C 146 136.84 145.88 137.58 145.93 138.29 C 146.134 139.237 146.277 140.195 146.36 141.16 L 146.36 141.16 Z " fill="rgb(243,169,132)"/><path d=" M 130.3 146.48 C 129.863 148.397 129.586 150.347 129.47 152.31 C 129.395 155.482 130.187 158.615 131.76 161.37 C 132.69 162.99 134.11 164.58 135.98 164.74 C 137.876 164.745 139.588 163.609 140.32 161.86 C 140.997 160.128 141.25 158.26 141.06 156.41 C 140.868 154.569 140.901 152.712 141.16 150.88 C 141.55 149.01 142.51 147.32 143.03 145.48 C 143.575 143.023 143.717 140.493 143.45 137.99 C 143.465 137.412 143.349 136.837 143.11 136.31 C 142.793 135.804 142.338 135.398 141.8 135.14 C 139.242 133.755 136.173 133.692 133.56 134.97 C 131.46 136.03 131.24 137.37 131.49 139.38 C 131.76 141.55 130.74 144.24 130.3 146.48 Z " fill="rgb(96,97,97)"/><linearGradient id="_lgradient_31" x1="0" y1="0.5" x2="0.280882711588248" y2="-0.45974210198929644" gradientTransform="matrix(14.116,0,0,30.686,129.465,134.054)" gradientUnits="userSpaceOnUse"><stop offset="0%" stop-opacity="1" style="stop-color:rgb(1,1,1)"/></linearGradient><path d=" M 130.3 146.48 C 129.863 148.397 129.586 150.347 129.47 152.31 C 129.395 155.482 130.187 158.615 131.76 161.37 C 132.69 162.99 134.11 164.58 135.98 164.74 C 137.876 164.745 139.588 163.609 140.32 161.86 C 140.997 160.128 141.25 158.26 141.06 156.41 C 140.868 154.569 140.901 152.712 141.16 150.88 C 141.55 149.01 142.51 147.32 143.03 145.48 C 143.575 143.023 143.717 140.493 143.45 137.99 C 143.465 137.412 143.349 136.837 143.11 136.31 C 142.793 135.804 142.338 135.398 141.8 135.14 C 139.242 133.755 136.173 133.692 133.56 134.97 C 131.46 136.03 131.24 137.37 131.49 139.38 C 131.76 141.55 130.74 144.24 130.3 146.48 Z " fill="url(#_lgradient_31)"/><path d=" M 122.965 141.095 C 121.323 136.712 126.145 130.848 133.727 128.007 C 141.309 125.166 148.798 126.418 150.44 130.801 C 152.082 135.184 147.26 141.048 139.678 143.889 C 132.096 146.73 124.607 145.478 122.965 141.095 Z " fill="rgb(40,43,78)"/><linearGradient id="_lgradient_32" x1="0" y1="0.5" x2="0.9331556729220559" y2="0.14052748353541" gradientTransform="matrix(27.475,-10.294,5.951,15.882,119.872,133.053)" gradientUnits="userSpaceOnUse"><stop offset="100%" stop-opacity="0" style="stop-color:rgb(255,255,255)"/><stop offset="100%" stop-opacity="0.0936611791008753" style="stop-color:rgb(255,255,255)"/></linearGradient><path d=" M 122.847 140.994 C 121.205 136.611 126.028 130.746 133.61 127.906 C 141.191 125.065 148.68 126.317 150.322 130.699 C 151.964 135.082 147.142 140.947 139.56 143.787 C 131.978 146.628 124.49 145.376 122.847 140.994 Z " fill="url(#_lgradient_32)"/><path d=" M 156.18 168.48 C 157.589 175.292 158.501 182.196 158.91 189.14 C 158.98 190.29 158.91 191.67 157.96 192.3 C 157.183 192.719 156.233 192.645 155.53 192.11 C 154.845 191.568 154.282 190.886 153.88 190.11 C 150.06 183.85 147.52 176.9 145.35 169.89 C 144.241 166.792 143.627 163.539 143.53 160.25 C 143.58 157.82 144.19 154.84 145.85 152.96 C 147.97 150.55 149.6 152.66 151.02 154.68 C 153.86 158.77 155.19 163.71 156.18 168.48 Z " fill="rgb(40,43,78)"/><linearGradient id="_lgradient_33" x1="0" y1="0.5" x2="0.7131187383200761" y2="-0.20104326903321934" gradientTransform="matrix(15.4,0,0,40.686,143.53,151.884)" gradientUnits="userSpaceOnUse"><stop offset="0%" stop-opacity="0" style="stop-color:rgb(1,1,1)"/></linearGradient><path d=" M 156.18 168.48 C 157.589 175.292 158.501 182.196 158.91 189.14 C 158.98 190.29 158.91 191.67 157.96 192.3 C 157.183 192.719 156.233 192.645 155.53 192.11 C 154.845 191.568 154.282 190.886 153.88 190.11 C 150.06 183.85 147.52 176.9 145.35 169.89 C 144.241 166.792 143.627 163.539 143.53 160.25 C 143.58 157.82 144.19 154.84 145.85 152.96 C 147.97 150.55 149.6 152.66 151.02 154.68 C 153.86 158.77 155.19 163.71 156.18 168.48 Z " fill="url(#_lgradient_33)"/><path d=" M 137.04 125.61 C 134.529 124.946 131.867 125.886 130.33 127.98 C 128.88 130.12 129.04 132.98 129.79 135.46 C 129.881 135.847 130.091 136.197 130.39 136.46 C 130.693 136.64 131.038 136.736 131.39 136.74 C 133.39 136.95 135.47 137.13 137.29 136.31 C 139.11 135.49 142.11 132.57 142.1 130.55 C 142.04 128.36 138.91 126.11 137.04 125.61 Z " fill="rgb(40,43,78)"/><linearGradient id="_lgradient_34" x1="0" y1="0.5" x2="0.8813744510252478" y2="0.027581671524121443" gradientTransform="matrix(12.77,0,0,9.555,129.29,127.42)" gradientUnits="userSpaceOnUse"><stop offset="100%" stop-opacity="0" style="stop-color:rgb(255,255,255)"/><stop offset="100%" stop-opacity="0.1377410468319561" style="stop-color:rgb(255,255,255)"/></linearGradient><path d=" M 142.06 130.58 C 142.06 132.58 138.97 135.58 137.24 136.35 C 135.344 137.002 133.31 137.147 131.34 136.77 C 130.99 136.772 130.645 136.683 130.34 136.51 C 130.048 136.221 129.84 135.858 129.74 135.46 C 129.544 134.781 129.394 134.089 129.29 133.39 C 129.363 133.402 129.437 133.402 129.51 133.39 C 131.51 133.58 133.6 133.77 135.42 132.94 C 137.08 132.21 140.01 129.43 140.2 127.42 C 141.234 128.168 141.908 129.313 142.06 130.58 L 142.06 130.58 Z " fill="url(#_lgradient_34)"/><linearGradient id="_lgradient_35" x1="0" y1="0.5" x2="0.8834212071125157" y2="0.03142026204298426" gradientTransform="matrix(11.034,0,0,8.156,129.206,125.458)" gradientUnits="userSpaceOnUse"><stop offset="100%" stop-opacity="0" style="stop-color:rgb(255,255,255)"/><stop offset="100%" stop-opacity="0.18522634659554044" style="stop-color:rgb(255,255,255)"/></linearGradient><path d=" M 140.24 127.48 C 140.05 129.48 137.12 132.27 135.46 133 C 133.64 133.83 131.53 133.64 129.55 133.45 C 129.477 133.462 129.403 133.462 129.33 133.45 C 128.992 131.588 129.348 129.667 130.33 128.05 C 131.864 125.957 134.518 125.011 137.03 125.66 C 138.22 126.025 139.316 126.646 140.24 127.48 L 140.24 127.48 Z " fill="url(#_lgradient_35)"/><path d=" M 152.83 201.37 C 152.468 198.372 153.004 195.333 154.37 192.64 C 154.569 192.212 154.847 191.825 155.19 191.5 C 156.169 190.77 157.511 190.77 158.49 191.5 C 159.378 192.196 160.011 193.166 160.29 194.26 C 160.772 195.796 160.878 197.425 160.6 199.01 L 159.98 198.9 C 160.24 197.415 160.14 195.889 159.69 194.45 C 159.454 193.487 158.905 192.629 158.13 192.01 C 157.376 191.461 156.354 191.461 155.6 192.01 C 155.317 192.299 155.089 192.638 154.93 193.01 C 153.618 195.588 153.102 198.498 153.45 201.37 L 152.83 201.37 Z " fill="rgb(136,141,195)"/><path d=" M 162.97 197.07 L 168.63 225.07 C 168.69 225.36 168.69 225.66 168.63 225.95 C 168.49 226.53 167.91 226.87 167.38 227.14 C 161.635 229.864 155.715 232.203 149.66 234.14 C 149.541 234.184 149.409 234.184 149.29 234.14 C 149.19 234.071 149.119 233.968 149.09 233.85 C 148.872 233.076 148.777 232.273 148.81 231.47 Q 148.66 222.29 147.81 213.15 C 147.67 211.61 147.51 210.08 147.33 208.55 C 147.2 207.39 146.54 205.43 146.82 204.32 C 147.25 202.62 152.11 201.61 153.68 200.97 C 154.49 200.65 162.97 197.48 162.97 197.07 Z " fill="rgb(40,43,78)"/><linearGradient id="_lgradient_36" x1="-0.14831034720106984" y1="0.49335186291555555" x2="0.9007970710478599" y2="1.0256490108304535" gradientTransform="matrix(21.923,0,0,37.103,146.751,197.07)" gradientUnits="userSpaceOnUse"><stop offset="0%" stop-opacity="1" style="stop-color:rgb(68,70,94)"/><stop offset="100%" stop-opacity="1" style="stop-color:rgb(0,0,0)"/></linearGradient><path d=" M 162.97 197.07 L 168.63 225.07 C 168.69 225.36 168.69 225.66 168.63 225.95 C 168.49 226.53 167.91 226.87 167.38 227.14 C 161.635 229.864 155.715 232.203 149.66 234.14 C 149.541 234.184 149.409 234.184 149.29 234.14 C 149.19 234.071 149.119 233.968 149.09 233.85 C 148.872 233.076 148.777 232.273 148.81 231.47 Q 148.66 222.29 147.81 213.15 C 147.67 211.61 147.51 210.08 147.33 208.55 C 147.2 207.39 146.54 205.43 146.82 204.32 C 147.25 202.62 152.11 201.61 153.68 200.97 C 154.49 200.65 162.97 197.48 162.97 197.07 Z " fill="url(#_lgradient_36)"/><path d=" M 166.4 195.84 L 172.06 223.79 C 172.125 224.083 172.125 224.387 172.06 224.68 C 171.92 225.26 171.34 225.6 170.81 225.87 C 165.065 228.594 159.146 230.933 153.09 232.87 C 152.972 232.919 152.838 232.919 152.72 232.87 C 152.616 232.805 152.543 232.7 152.52 232.58 C 152.302 231.806 152.207 231.003 152.24 230.2 C 152.14 224.09 151.8 217.97 151.24 211.88 C 151.1 210.35 150.94 208.81 150.76 207.28 C 150.63 206.13 149.97 204.17 150.25 203.06 C 150.68 201.36 155.54 200.34 157.11 199.7 C 157.97 199.41 166.47 196.2 166.4 195.84 Z " fill="rgb(40,43,78)"/><path d=" M 157.02 202.42 C 155.38 199.885 154.531 196.919 154.58 193.9 C 154.571 193.426 154.649 192.955 154.81 192.51 C 155.365 191.403 156.599 190.811 157.81 191.07 C 158.914 191.305 159.91 191.899 160.64 192.76 C 161.742 193.931 162.551 195.346 163 196.89 L 162.4 197.06 C 161.975 195.613 161.215 194.287 160.18 193.19 C 159.544 192.43 158.676 191.9 157.71 191.68 C 156.793 191.505 155.868 191.941 155.42 192.76 C 155.291 193.129 155.231 193.519 155.24 193.91 C 155.187 196.806 156.002 199.651 157.58 202.08 L 157.02 202.42 Z " fill="rgb(136,141,195)"/><path d=" M 167.33 196.85 L 172.97 224.8 C 173.035 225.093 173.035 225.397 172.97 225.69 C 172.84 226.27 172.25 226.61 171.72 226.88 C 165.975 229.604 160.056 231.943 154 233.88 C 153.886 233.934 153.754 233.934 153.64 233.88 C 153.536 233.815 153.463 233.71 153.44 233.59 C 153.221 232.817 153.127 232.013 153.16 231.21 C 153.06 225.1 152.72 218.98 152.16 212.89 C 152.01 211.36 151.85 209.82 151.68 208.29 C 151.54 207.14 150.89 205.18 151.17 204.07 C 151.6 202.37 156.45 201.35 158.03 200.71 C 158.91 200.42 167.41 197.21 167.33 196.85 Z " fill="rgb(26,28,51)"/><path d=" M 170.82 195.61 L 176.47 223.61 C 176.552 223.896 176.569 224.197 176.52 224.49 C 176.39 225.07 175.81 225.41 175.27 225.68 C 169.525 228.404 163.605 230.743 157.55 232.68 C 157.434 232.724 157.306 232.724 157.19 232.68 C 157.09 232.611 157.019 232.508 156.99 232.39 C 156.772 231.616 156.677 230.813 156.71 230.01 Q 156.56 220.83 155.71 211.69 C 155.57 210.15 155.4 208.62 155.23 207.09 C 155.1 205.93 154.44 203.97 154.72 202.86 C 155.15 201.16 160 200.15 161.58 199.51 C 162.39 199.19 170.89 195.97 170.82 195.61 Z " fill="rgb(40,43,78)"/><linearGradient id="_lgradient_37" x1="0.04446202459620173" y1="0.26992556865476747" x2="1.1348520437361824" y2="0.9134076407099396" gradientTransform="matrix(21.896,0,0,37.103,154.651,195.61)" gradientUnits="userSpaceOnUse"><stop offset="0%" stop-opacity="1" style="stop-color:rgb(40,43,78)"/><stop offset="100%" stop-opacity="1" style="stop-color:rgb(0,0,0)"/></linearGradient><path d=" M 170.82 195.61 L 176.47 223.61 C 176.552 223.896 176.569 224.197 176.52 224.49 C 176.39 225.07 175.81 225.41 175.27 225.68 C 169.525 228.404 163.605 230.743 157.55 232.68 C 157.434 232.724 157.306 232.724 157.19 232.68 C 157.09 232.611 157.019 232.508 156.99 232.39 C 156.772 231.616 156.677 230.813 156.71 230.01 Q 156.56 220.83 155.71 211.69 C 155.57 210.15 155.4 208.62 155.23 207.09 C 155.1 205.93 154.44 203.97 154.72 202.86 C 155.15 201.16 160 200.15 161.58 199.51 C 162.39 199.19 170.89 195.97 170.82 195.61 Z " fill="url(#_lgradient_37)"/><path d=" M 155.78 188.58 C 155.138 188.607 154.522 188.846 154.03 189.26 C 153.74 189.657 153.625 190.156 153.71 190.64 C 153.77 191.12 153.92 191.58 153.97 192.06 C 154.07 193 153.79 194.06 154.22 194.86 C 154.719 195.644 155.591 196.11 156.52 196.09 C 158.077 196.225 159.533 195.304 160.08 193.84 C 160.188 193.365 160.212 192.874 160.15 192.39 C 160.02 191.24 159.59 188.92 158.76 188.05 C 157.93 187.18 156.73 188.38 155.78 188.58 Z " fill="rgb(243,169,132)"/><path d=" M 437.21 170.71 L 437.21 165.96 C 434.664 165.957 432.169 165.24 430.01 163.89 L 431.14 160.74 C 433.161 162.044 435.515 162.738 437.92 162.74 C 441.26 162.74 443.51 160.82 443.51 158.13 C 443.51 155.44 441.68 153.95 438.2 152.54 C 433.4 150.65 430.44 148.49 430.44 144.4 C 430.44 140.49 433.21 137.53 437.54 136.82 L 437.54 132.07 L 440.46 132.07 L 440.46 136.63 C 442.604 136.65 444.707 137.218 446.57 138.28 L 445.4 141.39 C 443.608 140.321 441.556 139.768 439.47 139.79 C 435.84 139.79 434.47 141.95 434.47 143.79 C 434.47 146.24 436.21 147.46 440.31 149.16 C 445.15 151.16 447.6 153.58 447.6 157.76 C 447.6 161.48 445.01 164.96 440.16 165.76 L 440.16 170.65 L 437.21 170.71 Z " fill="rgb(255,255,255)"/></g></svg>