<?xml version="1.0" encoding="UTF-8" standalone="no"?><!-- Generator: Gravit.io --><svg xmlns="http://www.w3.org/2000/svg" xmlns:xlink="http://www.w3.org/1999/xlink" style="isolation:isolate" viewBox="0 0 400 300" width="400pt" height="300pt"><defs><clipPath id="_clipPath_coA499INVYfdQtf1GkVE9NF4vUiAMiz1"><rect width="400" height="300"/></clipPath></defs><g clip-path="url(#_clipPath_coA499INVYfdQtf1GkVE9NF4vUiAMiz1)"><path d=" M 36.717 165.335 L 185.843 80.469 C 193.262 76.235 202.376 76.281 209.752 80.589 L 363.399 170.084 C 367.498 172.472 370.013 176.863 370 181.606 C 369.987 186.35 367.446 190.726 363.334 193.091 L 219.892 275.446 C 210.004 281.131 197.839 281.131 187.952 275.446 L 36.663 188.407 C 32.531 186.03 29.989 181.622 30 176.855 C 30.011 172.088 32.574 167.692 36.717 165.335 Z " fill="rgb(229,119,10)"/><path d=" M 383.567 175.317 L 278.822 236.316 C 272.688 239.891 262.658 239.898 256.435 236.316 L 80.505 135.572 C 74.274 132.005 74.206 126.214 80.341 122.639 L 185.085 61.677 C 191.227 58.103 201.249 58.095 207.473 61.677 L 383.403 162.422 C 389.634 165.952 389.709 171.743 383.567 175.317 Z " fill="rgb(40,43,78)"/><path d=" M 388.395 168.803 L 283.658 229.764 C 277.516 233.339 267.487 233.346 261.27 229.764 L 85.341 129.02 C 79.109 125.453 79.035 119.662 85.176 116.087 L 189.936 55.118 C 196.078 51.543 206.107 51.536 212.324 55.118 L 388.253 155.862 C 394.462 159.452 394.537 165.228 388.395 168.803 Z " fill="rgb(40,43,78)"/><path d=" M 384.582 171.026 L 279.845 231.988 C 273.703 235.563 263.673 235.57 257.457 231.988 L 81.527 131.243 C 75.296 127.676 75.229 121.885 81.371 118.311 L 186.108 57.349 C 192.249 53.775 202.279 53.767 208.495 57.349 L 384.425 158.094 C 390.679 161.691 390.723 167.452 384.582 171.026 Z " fill="rgb(40,43,78)"/><g opacity="0.58"><linearGradient id="_lgradient_63" x1="0.15176542389232453" y1="0.8430372692059217" x2="1.1073521041975076" y2="0.28449946641055857" gradientTransform="matrix(312.349,0,0,179.983,76.796,54.688)" gradientUnits="userSpaceOnUse"><stop offset="15.90548892353848%" stop-opacity="1" style="stop-color:rgb(0,0,0)"/><stop offset="27.537186715379896%" stop-opacity="1" style="stop-color:rgb(0,0,0)"/><stop offset="100%" stop-opacity="1" style="stop-color:rgb(0,0,0)"/></linearGradient><path d=" M 384.582 171.019 L 279.837 231.988 C 279.056 232.437 278.24 232.824 277.397 233.145 C 271.293 235.51 262.905 235.122 257.442 232.003 L 81.512 131.258 C 75.289 127.699 75.214 121.908 81.348 118.333 L 129.34 90.408 L 186.055 57.372 C 192.19 53.797 202.219 53.79 208.443 57.372 L 384.365 158.116 C 390.679 161.691 390.723 167.452 384.582 171.019 Z " fill="url(#_lgradient_63)"/></g><g opacity="0.58"><linearGradient id="_lgradient_64" x1="0" y1="0.5" x2="0.623372424985693" y2="-0.2819250729881071" gradientTransform="matrix(233.123,0,0,133.11,144.213,62.088)" gradientUnits="userSpaceOnUse"><stop offset="0%" stop-opacity="1" style="stop-color:rgb(0,0,0)"/><stop offset="25%" stop-opacity="1" style="stop-color:rgb(40,43,78)"/><stop offset="100%" stop-opacity="1" style="stop-color:rgb(40,43,78)"/></linearGradient><path d=" M 178.249 62.088 L 377.336 174.601 L 342.038 195.198 L 144.213 81.416 L 178.249 62.088 L 178.249 62.088 Z " fill="url(#_lgradient_64)"/></g><g opacity="0.58"><path d=" M 325.389 205.212 L 277.397 233.145 C 271.293 235.51 262.905 235.122 257.442 232.003 L 81.512 131.258 C 75.289 127.699 75.214 121.908 81.348 118.333 L 129.34 90.408 C 135.437 88.043 143.832 88.431 149.295 91.55 L 325.225 192.287 C 331.448 195.854 331.523 201.645 325.389 205.212 Z " fill="rgb(32,35,63)"/></g><path d=" M 212.264 103.065 L 189.727 116.169 C 186.324 118.154 180.772 118.154 177.309 116.169 L 149.698 100.356 C 146.243 98.378 146.205 95.132 149.608 93.184 L 172.145 80.065 C 175.548 78.088 181.1 78.08 184.563 80.065 L 212.174 95.878 C 215.629 97.878 215.667 101.087 212.264 103.065 Z " fill="rgb(253,181,35)"/><path d=" M 197.704 111.393 L 193.973 113.542 L 182.473 106.945 C 180.524 107.69 178.413 107.906 176.354 107.572 L 175.802 107.468 L 175.369 107.229 C 174.406 106.707 165.854 102.08 163.914 100.654 C 161.854 99.162 162.921 96.923 163.914 95.55 L 154.742 90.326 L 158.474 88.177 L 170.414 95.02 L 169.421 96.02 C 168.362 97.132 167.802 98.498 168.093 98.826 C 169.279 99.699 174.645 102.692 178.339 104.699 C 179.119 104.632 179.866 104.351 180.496 103.886 L 182.324 102.602 L 197.704 111.393 Z " fill="rgb(239,169,43)"/><path d=" M 204.6 107.371 L 208.331 105.222 L 196.809 98.625 C 198.406 97.237 198.301 95.826 197.846 95.087 L 197.66 94.766 L 197.257 94.52 C 196.339 93.968 188.249 89.073 185.772 87.961 C 183.137 86.782 179.264 87.416 176.929 87.961 L 167.757 82.737 L 164.026 84.886 L 175.966 91.729 L 177.705 91.17 C 179.63 90.55 181.988 90.214 182.563 90.378 C 184.055 91.058 189.279 94.11 192.809 96.244 C 192.757 96.505 192.51 96.99 191.421 97.498 L 189.219 98.565 L 204.6 107.371 Z " fill="rgb(239,169,43)"/><path d=" M 201.779 109.177 L 200.995 109.632 L 160.966 86.699 L 161.742 86.244 L 201.779 109.177 L 201.779 109.177 Z " fill="rgb(239,169,43)"/><path d=" M 189.548 116.296 L 188.764 116.744 L 148.735 93.819 L 149.519 93.364 L 189.548 116.296 L 189.548 116.296 Z " fill="rgb(239,169,43)"/><path d=" M 214.003 102.057 L 213.226 102.513 L 173.19 79.58 L 173.973 79.125 L 214.003 102.057 L 214.003 102.057 Z " fill="rgb(239,169,43)"/><text transform="matrix(0.657,0.373,-0.642,0.373,218.935,115.199)" style="font-family:'Roboto';font-weight:700;font-size:17.2px;font-style:normal;font-variant-ligatures:none;fill:#282B4E;stroke:none;">CREDIT CARD</text><path d=" M 186.13 167.355 L 100.228 117.759 C 98.325 116.662 98.564 114.774 100.758 113.468 L 100.758 113.468 C 102.952 112.199 106.281 112.065 108.184 113.162 L 194.085 162.758 C 195.988 163.855 195.749 165.743 193.548 167.041 L 193.548 167.041 C 191.354 168.31 188.033 168.452 186.13 167.355 Z " fill="rgb(40,43,78)"/><path d=" M 314.792 171.392 L 210.085 232.346 C 203.943 235.921 193.913 235.928 187.697 232.346 L 11.76 131.602 C 5.536 128.035 5.461 122.244 11.603 118.669 L 116.34 57.707 C 122.482 54.133 132.511 54.125 138.728 57.707 L 314.658 158.452 C 320.859 162.019 320.934 167.81 314.792 171.392 Z " fill="rgb(40,43,78)"/><path d=" M 315.807 167.094 L 211.07 228.055 C 204.928 231.63 194.898 231.63 188.682 228.055 L 12.752 127.311 C 6.521 123.744 6.446 117.953 12.588 114.378 L 117.318 53.409 C 123.459 49.834 133.489 49.827 139.705 53.409 L 315.635 154.154 C 321.881 157.728 321.948 163.519 315.807 167.094 Z " fill="rgb(40,43,78)"/><g opacity="0.38"><linearGradient id="_lgradient_65" x1="0" y1="0.5" x2="0.9862389504583918" y2="0.3346738599049451" gradientTransform="matrix(312.343,0,0,179.983,8.022,50.755)" gradientUnits="userSpaceOnUse"><stop offset="100%" stop-opacity="1" style="stop-color:rgb(0,0,0)"/><stop offset="100%" stop-opacity="1" style="stop-color:rgb(0,0,0)"/><stop offset="100%" stop-opacity="1" style="stop-color:rgb(0,0,0)"/></linearGradient><path d=" M 315.814 167.086 L 211.07 228.048 C 210.289 228.501 209.473 228.89 208.63 229.212 C 202.525 231.578 194.13 231.189 188.667 228.07 L 12.737 127.326 C 6.514 123.759 6.439 117.975 12.581 114.4 L 60.565 86.476 L 117.318 53.439 C 123.459 49.864 133.482 49.857 139.705 53.439 L 315.635 154.183 C 321.874 157.728 321.948 163.512 315.814 167.086 Z " fill="url(#_lgradient_65)"/></g><g opacity="0.58"><linearGradient id="_lgradient_66" x1="0" y1="0.5" x2="0.9842613245324011" y2="0.32328088663157195" gradientTransform="matrix(253.145,0,0,145.788,8.022,84.95)" gradientUnits="userSpaceOnUse"><stop offset="100%" stop-opacity="0.85" style="stop-color:rgb(40,43,78)"/><stop offset="100%" stop-opacity="1" style="stop-color:rgb(0,0,0)"/><stop offset="100%" stop-opacity="1" style="stop-color:rgb(0,0,0)"/></linearGradient><path d=" M 256.614 201.28 L 208.63 229.212 C 202.525 231.578 194.13 231.189 188.667 228.07 L 12.737 127.326 C 6.514 123.759 6.439 117.975 12.581 114.4 L 60.565 86.476 C 66.669 84.11 75.057 84.498 80.52 87.617 L 256.45 188.362 C 262.673 191.922 262.748 197.712 256.614 201.28 Z " fill="url(#_lgradient_66)"/></g><path d=" M 143.489 99.132 L 120.959 112.251 C 117.556 114.229 112.004 114.236 108.534 112.251 L 80.923 96.438 C 77.468 94.453 77.423 91.214 80.833 89.267 L 103.37 76.155 C 106.781 74.17 112.325 74.17 115.795 76.155 L 143.407 91.968 C 146.854 93.938 146.899 97.154 143.489 99.132 Z " fill="rgb(253,181,35)"/><path d=" M 128.929 107.453 L 125.235 109.61 L 113.721 103.013 C 111.771 103.752 109.661 103.969 107.601 103.639 L 107.042 103.528 L 106.616 103.296 C 105.646 102.774 97.102 98.147 95.161 96.722 C 93.102 95.229 94.161 92.99 95.161 91.617 L 85.997 86.393 L 89.691 84.244 L 101.631 91.08 L 100.669 92.087 C 99.616 93.207 99.057 94.572 99.34 94.901 C 100.527 95.774 105.893 98.766 109.586 100.774 C 110.368 100.704 111.116 100.422 111.751 99.96 L 113.579 98.677 L 128.929 107.453 Z " fill="rgb(239,169,43)"/><path d=" M 135.832 103.438 L 139.526 101.289 L 127.997 94.692 C 129.586 93.296 129.489 91.893 129.034 91.155 L 128.84 90.834 L 128.437 90.587 C 127.526 90.035 119.437 85.14 116.952 84.028 C 114.318 82.849 110.452 83.483 108.109 84.028 L 98.937 78.804 L 95.206 80.953 L 107.146 87.796 L 108.878 87.229 C 110.803 86.617 113.161 86.282 113.743 86.446 C 115.236 87.125 120.459 90.177 123.989 92.311 C 123.937 92.572 123.691 93.058 122.594 93.565 L 120.355 94.632 L 135.832 103.438 Z " fill="rgb(239,169,43)"/><path d=" M 133.004 105.244 L 132.228 105.692 L 92.191 82.767 L 92.975 82.311 L 133.004 105.244 L 133.004 105.244 Z " fill="rgb(239,169,43)"/><path d=" M 120.773 112.356 L 119.997 112.811 L 79.96 89.886 L 80.744 89.431 L 120.773 112.356 L 120.773 112.356 Z " fill="rgb(239,169,43)"/><path d=" M 145.235 98.125 L 144.452 98.58 L 104.422 75.647 L 105.206 75.192 L 145.235 98.125 L 145.235 98.125 Z " fill="rgb(239,169,43)"/><text transform="matrix(0.657,0.373,-0.642,0.373,150.16,111.259)" style="font-family:'Roboto';font-weight:700;font-size:17.2px;font-style:normal;font-variant-ligatures:none;fill:#656995;stroke:none;">CREDIT CARD</text><path d=" M 217.726 205.496 L 45.2 105.886 C 43.297 104.789 43.535 102.901 45.729 101.602 L 45.729 101.602 C 47.923 100.334 51.252 100.199 53.155 101.296 L 225.681 200.906 C 227.584 202.003 227.346 203.891 225.144 205.19 L 225.144 205.19 C 222.95 206.466 219.629 206.593 217.726 205.496 Z " fill="rgb(40,43,78)"/><path d=" M 117.355 163.422 L 31.453 113.826 C 29.551 112.721 29.789 110.804 31.983 109.535 L 31.983 109.535 C 34.185 108.266 37.506 108.132 39.409 109.229 L 125.31 158.825 C 127.213 159.922 126.974 161.81 124.78 163.109 L 124.78 163.109 C 122.579 164.377 119.258 164.519 117.355 163.422 Z " fill="rgb(40,43,78)"/><path d=" M 204.786 213.929 L 142.571 178.019 C 140.668 176.914 140.907 174.996 143.108 173.728 L 143.108 173.728 C 145.302 172.459 148.631 172.325 150.534 173.422 L 212.741 209.339 C 214.644 210.436 214.406 212.324 212.204 213.623 L 212.204 213.623 C 210.01 214.854 206.682 214.996 204.786 213.929 Z " fill="rgb(40,43,78)"/></g></svg>