<?xml version="1.0" encoding="utf-8"?>
<!-- Generator: Adobe Illustrator 24.0.1, SVG Export Plug-In . SVG Version: 6.00 Build 0)  -->
<svg version="1.1" id="Layer_1" xmlns="http://www.w3.org/2000/svg" xmlns:xlink="http://www.w3.org/1999/xlink" x="0px" y="0px"
	 viewBox="0 0 400 300" style="enable-background:new 0 0 400 300;" xml:space="preserve">
<style type="text/css">
	.st0{clip-path:url(#SVGID_2_);}
	.st1{fill:#282B4E;}
	.st2{fill:url(#SVGID_3_);}
	.st3{fill:url(#SVGID_4_);}
	.st4{fill:url(#SVGID_5_);}
	.st5{fill:url(#SVGID_6_);}
	.st6{fill:url(#SVGID_7_);}
	.st7{fill:url(#SVGID_8_);}
	.st8{fill:url(#SVGID_9_);}
	.st9{fill:url(#SVGID_10_);}
	.st10{fill:url(#SVGID_11_);}
	.st11{fill:url(#SVGID_12_);}
	.st12{fill:url(#SVGID_13_);}
	.st13{fill:url(#SVGID_14_);}
	.st14{fill:url(#SVGID_15_);}
	.st15{fill:url(#SVGID_16_);}
	.st16{fill:url(#SVGID_17_);}
	.st17{fill:url(#SVGID_18_);}
	.st18{fill:url(#SVGID_19_);}
	.st19{fill:url(#SVGID_20_);}
	.st20{fill:url(#SVGID_21_);}
	.st21{fill:#FFFFFF;}
</style>
<g>
	<defs>
		<rect id="SVGID_1_" width="400" height="300"/>
	</defs>
	<clipPath id="SVGID_2_">
		<use xlink:href="#SVGID_1_"  style="overflow:visible;"/>
	</clipPath>
	<g class="st0">
		<path class="st1" d="M40.5,203l146.6,84.6c3.8,2.2,8.4,2.2,12.2,0l169.1-96.1c2.1-1.2,3.4-3.5,3.4-5.9s-1.3-4.7-3.4-5.9
			L217.8,92.6c-1.5-0.9-3.3-0.9-4.8,0L40.4,194.8c-1.5,0.9-2.4,2.4-2.4,4.1C38.1,200.6,39,202.2,40.5,203L40.5,203z"/>
		
			<linearGradient id="SVGID_3_" gradientUnits="userSpaceOnUse" x1="0.1245" y1="299.727" x2="0.7336" y2="299.3588" gradientTransform="matrix(99.483 0 0 -46.846 161.079 14272.751)">
			<stop  offset="0" style="stop-color:#FFDCBD"/>
			<stop  offset="1" style="stop-color:#FFA9B1"/>
		</linearGradient>
		<path class="st2" d="M249.2,265.8h-76.8c-6.2,0-11.3-5.1-11.3-11.3v-24.2c0-6.2,5.1-11.3,11.3-11.3h76.8c6.2,0,11.3,5.1,11.3,11.3
			v24.2C260.6,260.7,255.5,265.8,249.2,265.8z"/>
		
			<linearGradient id="SVGID_4_" gradientUnits="userSpaceOnUse" x1="0.5" y1="299.0891" x2="0.5" y2="300.2079" gradientTransform="matrix(99.483 0 0 -26.581 161.079 8213.5156)">
			<stop  offset="0" style="stop-color:#FFA9B1;stop-opacity:0"/>
			<stop  offset="1" style="stop-color:#F89580"/>
		</linearGradient>
		<path class="st3" d="M161.1,239.2v6.4l20.1,20.1h68c6.3,0,11.3-5.1,11.3-11.3v-15.3H161.1z"/>
		
			<linearGradient id="SVGID_5_" gradientUnits="userSpaceOnUse" x1="-0.4277" y1="300.0609" x2="0.6325" y2="299.4199" gradientTransform="matrix(37.702 0 0 -89.482 245.298 26992.4922)">
			<stop  offset="0" style="stop-color:#FFDCBD"/>
			<stop  offset="1" style="stop-color:#FFA9B1"/>
		</linearGradient>
		<path class="st4" d="M283,147.9v51.8c0,20.8-16.9,37.7-37.7,37.7v-89.5H283z"/>
		
			<linearGradient id="SVGID_6_" gradientUnits="userSpaceOnUse" x1="0.847" y1="299.5" x2="0.1967" y2="299.5" gradientTransform="matrix(20.508 0 0 -72.17 262.492 21812.0508)">
			<stop  offset="0" style="stop-color:#FFA9B1;stop-opacity:0"/>
			<stop  offset="1" style="stop-color:#F89580"/>
		</linearGradient>
		<path class="st5" d="M266.2,161.1h-3.7v72.2c12.2-6.3,20.5-18.9,20.5-33.5v-21.8L266.2,161.1z"/>
		
			<linearGradient id="SVGID_7_" gradientUnits="userSpaceOnUse" x1="0.1673" y1="299.8327" x2="0.9507" y2="299.0493" gradientTransform="matrix(149.217 0 0 -211.588 117 63510.6016)">
			<stop  offset="0" style="stop-color:#F5524E"/>
			<stop  offset="1" style="stop-color:#D0342F"/>
		</linearGradient>
		<path class="st6" d="M253.2,245.8H130c-7.2,0-13-5.8-13-13V47.2c0-7.2,5.8-13,13-13h123.2c7.2,0,13,5.8,13,13v185.5
			C266.2,240,260.4,245.8,253.2,245.8L253.2,245.8z"/>
		<linearGradient id="SVGID_8_" gradientUnits="userSpaceOnUse" x1="122.655" y1="139.9965" x2="260.563" y2="139.9965">
			<stop  offset="0" style="stop-color:#F5524E"/>
			<stop  offset="1" style="stop-color:#D0342F"/>
		</linearGradient>
		<path class="st7" d="M248.4,239.5H134.8c-6.7,0-12.1-5.4-12.1-12.2V52.7c0-6.7,5.4-12.2,12.1-12.2h113.6c6.7,0,12.2,5.4,12.2,12.2
			v174.7C260.6,234,255.1,239.5,248.4,239.5z"/>
		
			<linearGradient id="SVGID_9_" gradientUnits="userSpaceOnUse" x1="0.2642" y1="299.7358" x2="0.9989" y2="299.0011" gradientTransform="matrix(125.976 0 0 -186.333 128.62 55946.7266)">
			<stop  offset="0" style="stop-color:#EEF5F6"/>
			<stop  offset="1" style="stop-color:#CBE5E8"/>
		</linearGradient>
		<path class="st8" d="M243.4,46.8h-30.4c-0.9,0-1.7,0.7-1.7,1.7c0,2.6-2.1,4.6-4.6,4.6h-30c-2.6,0-4.6-2.1-4.6-4.6
			c0-0.9-0.7-1.7-1.7-1.7h-30.4c-6.2,0-11.2,5-11.2,11.2v163.9c0,6.2,5,11.2,11.2,11.2h103.5c6.2,0,11.2-5,11.2-11.2V58.1
			C254.6,51.9,249.6,46.8,243.4,46.8L243.4,46.8z"/>
		
			<linearGradient id="SVGID_10_" gradientUnits="userSpaceOnUse" x1="0.9167" y1="299.3007" x2="-0.1901" y2="299.9377" gradientTransform="matrix(118.885 0 0 -210.906 147.333 63306.6875)">
			<stop  offset="0" style="stop-color:#3E5959;stop-opacity:0"/>
			<stop  offset="1" style="stop-color:#384949"/>
		</linearGradient>
		<path class="st9" d="M266.2,232.8V106.6l-68.5-68.8c-2.6-3.9-8.2-3.9-10.8,0L161.7,76c-2.3,3.5-0.7,8,2.9,9.5l10.9,11.4
			c-16.5,6.7-28.1,22.8-28.1,41.7c0,13.3,5.8,25.2,14.9,33.4l73.8,73.8h17.2C260.4,245.8,266.2,240,266.2,232.8L266.2,232.8z"/>
		
			<linearGradient id="SVGID_11_" gradientUnits="userSpaceOnUse" x1="0.5265" y1="299.3776" x2="0.3838" y2="299.7448" gradientTransform="matrix(108.195 0 0 -52.461 157.739 15931.6289)">
			<stop  offset="0" style="stop-color:#3E5959;stop-opacity:0"/>
			<stop  offset="1" style="stop-color:#384949"/>
		</linearGradient>
		<path class="st10" d="M265.9,235.5l-39.6-39.6c-0.9-1.5-2.5-2.6-4.4-2.6h-59c-2.8,0-5.1,2.3-5.1,5.1v9.1c0,1.9,1,3.6,2.6,4.4
			l33.8,33.8h59.1C259.5,245.8,264.7,241.4,265.9,235.5L265.9,235.5z"/>
		
			<linearGradient id="SVGID_12_" gradientUnits="userSpaceOnUse" x1="0.5" y1="300.2657" x2="0.5" y2="298.6875" gradientTransform="matrix(69.327 0 0 -27.025 156.945 8300.0352)">
			<stop  offset="0" style="stop-color:#282B4E"/>
			<stop  offset="1" style="stop-color:#444984"/>
		</linearGradient>
		<path class="st11" d="M221.1,219.6h-59c-2.8,0-5.1-3.2-5.1-7.2v-12.7c0-4,2.3-7.2,5.1-7.2h59c2.8,0,5.1,3.2,5.1,7.2v12.7
			C226.3,216.3,224,219.6,221.1,219.6z"/>
		
			<linearGradient id="SVGID_13_" gradientUnits="userSpaceOnUse" x1="0.1978" y1="299.7463" x2="0.681" y2="299.2631" gradientTransform="matrix(63.351 0 0 -88.192 159.934 26491.8027)">
			<stop  offset="0" style="stop-color:#FFFFFF"/>
			<stop  offset="1" style="stop-color:#BFBFBF"/>
		</linearGradient>
		<path class="st12" d="M186.2,37.1L161,75.3c-2.8,4.3,0.2,10,5.4,10h11.8v30.9c0,3.4,2.8,6.2,6.2,6.2h14.4c3.4,0,6.2-2.8,6.2-6.2
			V85.3h11.8c5.1,0,8.2-5.7,5.4-10L197,37.1C194.4,33.2,188.8,33.2,186.2,37.1L186.2,37.1z"/>
		<g>
			
				<linearGradient id="SVGID_14_" gradientUnits="userSpaceOnUse" x1="0.2475" y1="299.7525" x2="0.8135" y2="299.1865" gradientTransform="matrix(89.913 0 0 -89.913 146.652 27066.8574)">
				<stop  offset="0" style="stop-color:#FFE177"/>
				<stop  offset="1" style="stop-color:#FE9738"/>
			</linearGradient>
			<circle vector-effect="non-scaling-stroke" class="st13" cx="191.6" cy="137.9" r="45"/>
			
				<linearGradient id="SVGID_15_" gradientUnits="userSpaceOnUse" x1="0.7525" y1="299.2475" x2="0.1865" y2="299.8135" gradientTransform="matrix(69.933 0 0 -69.933 156.642 21082.8477)">
				<stop  offset="0" style="stop-color:#FFE177"/>
				<stop  offset="1" style="stop-color:#FE9738"/>
			</linearGradient>
			<circle vector-effect="non-scaling-stroke" class="st14" cx="191.6" cy="137.9" r="35"/>
			
				<linearGradient id="SVGID_16_" gradientUnits="userSpaceOnUse" x1="0.7376" y1="299.3297" x2="6.754785e-02" y2="299.6481" gradientTransform="matrix(59.745 0 0 -70.314 175.737 21205.4746)">
				<stop  offset="0" style="stop-color:#FE9738;stop-opacity:0"/>
				<stop  offset="1" style="stop-color:#F46700"/>
			</linearGradient>
			<path class="st15" d="M235.5,147.8l-29.4-29.4c-1.5-2.3-5.6-3.2-8.8-3.5c-0.2-0.3-2.5-2.4-2.6-2.6c-0.4-0.6-1.3-1-2.2-1
				c-1.4,0-2.5,0.9-2.5,1.8v1.8c-6.9,1-13.1,5-13.1,13.3c0,4,1.6,6.7,3.9,8.7c0,0,9.1,9.1,9.2,9.2v6.2c-4.8-0.9-7.1-4.7-9.8-4.7
				c-2.5,0-4.5,3.3-4.5,5.5c0,1.6,1,3.2,2.6,4.6l23.9,23.9C218.8,177.6,231.8,164.4,235.5,147.8L235.5,147.8z"/>
			
				<linearGradient id="SVGID_17_" gradientUnits="userSpaceOnUse" x1="0.2762" y1="299.7294" x2="0.8095" y2="299.1961" gradientTransform="matrix(32.141 0 0 -53.676 175.537 16213.876)">
				<stop  offset="0" style="stop-color:#FE9738"/>
				<stop  offset="1" style="stop-color:#F46700"/>
			</linearGradient>
			<path class="st16" d="M194.8,132.7v-9.6c4.3,0.3,5.5,2.4,7.7,2.4c2.9,0,4.1-3.6,4.1-5.4c0-4.5-7.7-5.6-11.7-5.7v-1.6
				c0-0.9-1.2-1.8-2.5-1.8c-1.4,0-2.5,0.9-2.5,1.8v1.8c-6.9,1-13.1,5-13.1,13.3c0,8.4,7.1,11.2,13.1,13.5v10.6
				c-4.8-0.9-7.1-4.7-9.8-4.7c-2.5,0-4.5,3.3-4.5,5.5c0,4.2,6.4,8.2,14.3,8.5v1.6c0,0.9,1,1.8,2.5,1.8c1.2,0,2.5-0.9,2.5-1.8v-1.9
				c7.7-1.2,12.9-6.2,12.9-14.3C207.7,138,200.7,134.9,194.8,132.7L194.8,132.7z M190.5,131.1c-2.5-1-4.2-2.2-4.2-4.1
				c0-1.6,1.2-3.1,4.2-3.7V131.1z M194.1,152v-8.8c2.4,1.1,4,2.5,4,4.6C198.1,150.2,196.4,151.5,194.1,152z"/>
		</g>
		
			<linearGradient id="SVGID_18_" gradientUnits="userSpaceOnUse" x1="0.5" y1="299.6307" x2="0.5" y2="298.9691" gradientTransform="matrix(149.217 0 0 -34.208 117 10473.9824)">
			<stop  offset="0" style="stop-color:#F5524E;stop-opacity:0"/>
			<stop  offset="1" style="stop-color:#D0342F"/>
		</linearGradient>
		<path class="st17" d="M117,211.6v21.2c0,7.2,5.8,13,13,13h123.2c7.2,0,13-5.8,13-13v-21.2H117z"/>
		
			<linearGradient id="SVGID_19_" gradientUnits="userSpaceOnUse" x1="0.5" y1="299.1756" x2="0.5" y2="300.1055" gradientTransform="matrix(31.71 0 0 -31.71 234.507 9669.665)">
			<stop  offset="0" style="stop-color:#3E5959;stop-opacity:0"/>
			<stop  offset="1" style="stop-color:#384949"/>
		</linearGradient>
		<path class="st18" d="M266.2,188.4v-31.7h-31.7L266.2,188.4z"/>
		
			<linearGradient id="SVGID_20_" gradientUnits="userSpaceOnUse" x1="0.2022" y1="299.6801" x2="1.0192" y2="299.186" gradientTransform="matrix(55.403 0 0 -32.108 227.597 9761.3438)">
			<stop  offset="0" style="stop-color:#FFDCBD"/>
			<stop  offset="1" style="stop-color:#FFA9B1"/>
		</linearGradient>
		<path class="st19" d="M283,161.1h-36.2c-10.6,0-19.2-8.6-19.2-19.2v-0.3c0-7,5.6-12.6,12.6-12.6h23.6c10.6,0,19.2,8.6,19.2,19.2
			V161.1z"/>
		
			<linearGradient id="SVGID_21_" gradientUnits="userSpaceOnUse" x1="0.5" y1="299.6461" x2="0.5" y2="299.1385" gradientTransform="matrix(99.483 0 0 -17.107 161.079 5380.791)">
			<stop  offset="0" style="stop-color:#FFA9B1;stop-opacity:0"/>
			<stop  offset="1" style="stop-color:#F89580"/>
		</linearGradient>
		<path class="st20" d="M161.1,248.7v5.8c0,6.2,5.1,11.3,11.3,11.3h76.8c6.3,0,11.3-5.1,11.3-11.3v-5.8H161.1z"/>
		<g>
			<path class="st21" d="M182,204.3c-0.2-0.2-0.4-0.4-0.7-0.5c-0.3-0.1-0.6-0.2-0.9-0.2c-0.2,0-0.4,0-0.5,0.1
				c-0.2,0-0.3,0.1-0.5,0.2c-0.1,0.1-0.3,0.2-0.3,0.4c-0.1,0.2-0.1,0.3-0.1,0.5c0,0.3,0.1,0.5,0.3,0.7c0.2,0.2,0.5,0.3,0.8,0.4
				l1,0.3c0.4,0.1,0.7,0.3,1,0.5c0.3,0.2,0.6,0.5,0.8,0.8c0.2,0.4,0.3,0.8,0.3,1.3c0,0.4-0.1,0.9-0.3,1.3c-0.2,0.3-0.4,0.7-0.7,0.9
				c-0.3,0.2-0.7,0.4-1,0.5c-0.4,0.1-0.8,0.2-1.3,0.2c-0.6,0-1.1-0.1-1.6-0.3c-0.5-0.2-1-0.5-1.3-0.9l1.2-1.1
				c0.2,0.3,0.5,0.5,0.8,0.7c0.3,0.2,0.7,0.2,1,0.2c0.2,0,0.4,0,0.6-0.1c0.2,0,0.4-0.1,0.5-0.2c0.2-0.1,0.3-0.2,0.4-0.4
				c0.1-0.2,0.1-0.3,0.1-0.5c0-0.3-0.1-0.6-0.3-0.8c-0.2-0.2-0.5-0.3-0.8-0.4c-0.3-0.1-0.6-0.2-1-0.3c-0.4-0.1-0.7-0.3-1-0.5
				c-0.3-0.2-0.6-0.4-0.8-0.8c-0.2-0.4-0.3-0.8-0.3-1.3c0-0.4,0.1-0.8,0.3-1.2c0.2-0.3,0.4-0.6,0.7-0.8c0.3-0.2,0.7-0.4,1.1-0.5
				c0.9-0.2,1.8-0.2,2.6,0.1c0.4,0.1,0.8,0.4,1.2,0.7L182,204.3z"/>
			<path class="st21" d="M184.9,202.4h5.9v1.4h-4.3v2.2h4.1v1.4h-4.1v2.4h4.6v1.4h-6.2V202.4z"/>
			<path class="st21" d="M192.6,202.4h2.1l4.3,6.7l0,0v-6.7h1.6v9h-2l-4.4-6.9l0,0v6.9h-1.6L192.6,202.4z"/>
			<path class="st21" d="M202.7,202.4h3.6c0.6,0,1.2,0.1,1.7,0.3c1.1,0.4,2,1.2,2.5,2.2c0.3,0.6,0.4,1.3,0.4,2
				c0,1.3-0.6,2.5-1.6,3.3c-0.5,0.4-1,0.6-1.5,0.8c-0.5,0.2-1.1,0.3-1.6,0.3h-3.3L202.7,202.4z M205.5,209.9c0.5,0,1-0.1,1.4-0.2
				c0.4-0.1,0.8-0.3,1.1-0.5c0.3-0.2,0.6-0.6,0.8-0.9c0.2-0.4,0.3-0.9,0.3-1.4c0-0.5-0.1-0.9-0.3-1.4c-0.1-0.4-0.4-0.7-0.7-0.9
				c-0.3-0.3-0.7-0.4-1.1-0.5c-0.4-0.1-0.9-0.2-1.3-0.2h-1.5v6.1H205.5z"/>
		</g>
	</g>
</g>
</svg>
