<svg width="94" height="79" viewBox="0 0 94 79" fill="none" xmlns="http://www.w3.org/2000/svg">
<path d="M85.0551 0.353699H24.6613C19.8277 0.353699 15.8942 4.28721 15.8942 9.12082V44.1893C15.8942 49.0229 19.8277 52.9564 24.6613 52.9564H85.0551C89.8887 52.9564 93.8222 49.0229 93.8222 44.1893V9.12082C93.8222 4.28721 89.8887 0.353699 85.0551 0.353699ZM36.3508 17.8879H30.506C28.8929 17.8879 27.5837 16.5787 27.5837 14.9656C27.5837 13.3524 28.8929 12.0432 30.506 12.0432H36.3508C37.9639 12.0432 39.2732 13.3524 39.2732 14.9656C39.2732 16.5787 37.9639 17.8879 36.3508 17.8879ZM54.8553 38.3446C48.4085 38.3446 43.1658 33.1018 43.1658 26.6551C43.1658 20.2083 48.4085 14.9656 54.8553 14.9656C61.302 14.9656 66.5448 20.2083 66.5448 26.6551C66.5448 33.1018 61.302 38.3446 54.8553 38.3446ZM79.2103 41.2669H73.3656C71.7524 41.2669 70.4432 39.9577 70.4432 38.3446C70.4432 36.7314 71.7524 35.4222 73.3656 35.4222H79.2103C80.8235 35.4222 82.1327 36.7314 82.1327 38.3446C82.1327 39.9577 80.8235 41.2669 79.2103 41.2669Z" fill="#A91F23"/>
<path d="M79.2104 58.8012H18.8166C13.983 58.8012 10.0495 54.8677 10.0495 50.0341V15.8832L0.598555 51.1271C-0.617153 55.7678 2.15326 60.5839 6.79983 61.8639L67.0533 78.0012C67.8015 78.1999 68.5496 78.2876 69.286 78.2876C73.167 78.2876 76.7206 75.6984 77.7434 71.7999L81.3321 58.5148C80.6482 58.6843 79.9469 58.8012 79.2104 58.8012Z" fill="#A91F23"/>
</svg>
