<?xml version="1.0" encoding="utf-8"?>
<!-- Generator: Adobe Illustrator 24.0.1, SVG Export Plug-In . SVG Version: 6.00 Build 0)  -->
<svg version="1.1" id="Layer_1" xmlns="http://www.w3.org/2000/svg" xmlns:xlink="http://www.w3.org/1999/xlink" x="0px" y="0px"
	 viewBox="0 0 400 300" style="enable-background:new 0 0 400 300;" xml:space="preserve">
<style type="text/css">
	.st0{clip-path:url(#SVGID_2_);}
	.st1{fill:url(#SVGID_3_);}
	.st2{fill:#282B4E;}
	.st3{fill:#D9D9D9;}
	.st4{fill:#EEEEEF;}
	.st5{fill:#C1C1C1;}
	.st6{fill:#595D8C;}
	.st7{fill:url(#SVGID_4_);}
	.st8{fill:#A3A3A3;}
</style>
<g>
	<defs>
		<rect id="SVGID_1_" width="400" height="300"/>
	</defs>
	<clipPath id="SVGID_2_">
		<use xlink:href="#SVGID_1_"  style="overflow:visible;"/>
	</clipPath>
	<g class="st0">
		<linearGradient id="SVGID_3_" gradientUnits="userSpaceOnUse" x1="30" y1="178.5176" x2="370.0001" y2="178.5176">
			<stop  offset="0" style="stop-color:#F5524E"/>
			<stop  offset="1" style="stop-color:#D0342F"/>
		</linearGradient>
		<path class="st1" d="M36.7,165.3l149.1-84.9c7.4-4.2,16.5-4.2,23.9,0.1l153.6,89.5c4.1,2.4,6.6,6.8,6.6,11.5
			c0,4.7-2.6,9.1-6.7,11.5l-143.4,82.4c-9.9,5.7-22.1,5.7-31.9,0l-151.3-87c-4.1-2.4-6.7-6.8-6.7-11.6S32.6,167.7,36.7,165.3z"/>
		<rect x="137.4" y="86.7" class="st2" width="125.1" height="115.6"/>
		<rect x="253.1" y="105.7" class="st3" width="15.2" height="75.8"/>
		<path class="st4" d="M275.8,90.5h-30.3v16.2c0,1.5,1.2,2.7,2.7,2.7h24.8c1.5,0,2.7-1.2,2.7-2.7V90.5z"/>
		<path class="st4" d="M273.1,177.7h-24.8c-1.5,0-2.7,1.2-2.7,2.7v16.2h30.3v-16.2C275.8,179,274.6,177.7,273.1,177.7z"/>
		<path class="st3" d="M275.8,90.5h-11.4v19h8.6c1.5,0,2.7-1.2,2.7-2.7V90.5z"/>
		<path class="st3" d="M273.1,177.7h-8.6v19h11.4v-16.2C275.8,179,274.6,177.7,273.1,177.7z"/>
		<rect x="131.8" y="105.7" class="st3" width="15.2" height="75.8"/>
		<path class="st4" d="M154.5,90.5h-30.3v16.2c0,1.5,1.2,2.7,2.7,2.7h24.8c1.5,0,2.7-1.2,2.7-2.7L154.5,90.5L154.5,90.5z"/>
		<path class="st4" d="M151.8,177.7h-24.8c-1.5,0-2.7,1.2-2.7,2.7v16.2h30.3v-16.2C154.5,179,153.3,177.7,151.8,177.7z"/>
		<path class="st3" d="M154.5,90.5h-11.4v19h8.6c1.5,0,2.7-1.2,2.7-2.7V90.5z"/>
		<path class="st3" d="M151.8,177.7h-8.6v19h11.4v-16.2C154.5,179,153.3,177.7,151.8,177.7z"/>
		<path class="st4" d="M234.1,192.9v-68.2c-8.4,0-15.2-6.8-15.2-15.2H181c0,8.4-6.8,15.2-15.2,15.2v68.2H234.1z"/>
		<path class="st4" d="M109,79.2h182L201.9-2.5c-1.1-1-2.8-1-3.8,0L109,79.2z"/>
		<path class="st5" d="M291,79.2H109l6.8,13.6c0.5,1,1.5,1.6,2.5,1.6h163.3c1.1,0,2.1-0.6,2.5-1.6L291,79.2z"/>
		<path class="st6" d="M146.9,67.8h106.2c2.6,0,3.8-3.3,1.9-5l-53.1-46.5c-1.1-0.9-2.7-0.9-3.7,0L145,62.8
			C143.1,64.5,144.3,67.8,146.9,67.8z"/>
		<circle vector-effect="non-scaling-stroke" class="st4" cx="200" cy="45" r="7.6"/>
		<linearGradient id="SVGID_4_" gradientUnits="userSpaceOnUse" x1="185.071" y1="151.2005" x2="214.931" y2="151.2005">
			<stop  offset="0" style="stop-color:#F5524E"/>
			<stop  offset="1" style="stop-color:#D0342F"/>
		</linearGradient>
		<path class="st7" d="M203.6,148.1v-15.2c2.5,1.3,4.3,3.9,4.3,7c0,2,1.6,3.6,3.6,3.6c2,0,3.6-1.6,3.6-3.6c0-7-4.9-12.9-11.4-14.5
			v-0.7c0-2-1.6-3.6-3.6-3.6c-2,0-3.6,1.6-3.6,3.6v0.7c-6.5,1.6-11.4,7.5-11.4,14.5s4.9,12.9,11.4,14.5v15.2c-2.5-1.3-4.3-3.9-4.3-7
			c0-2-1.6-3.6-3.6-3.6c-2,0-3.6,1.6-3.6,3.6c0,7,4.9,12.9,11.4,14.5v0.7c0,2,1.6,3.6,3.6,3.6c2,0,3.6-1.6,3.6-3.6v-0.7
			c6.5-1.6,11.4-7.5,11.4-14.5C214.9,155.6,210.1,149.7,203.6,148.1z M192.2,139.8c0-3,1.7-5.7,4.3-7v13.9
			C193.9,145.5,192.2,142.9,192.2,139.8z M203.6,169.5v-13.9c2.5,1.3,4.3,3.9,4.3,7S206.1,168.2,203.6,169.5z"/>
		<path class="st3" d="M280.7,192.9H119.3c-1.5,0-2.7,1.2-2.7,2.7v16.2h166.8v-16.2C283.4,194.1,282.2,192.9,280.7,192.9z"/>
		<path class="st5" d="M280.7,192.9H272v19h11.4v-16.2C283.4,194.1,282.2,192.9,280.7,192.9z"/>
		<path class="st5" d="M288.3,208.1H111.7c-1.5,0-2.7,1.2-2.7,2.7v9.7c0,1.5,1.2,2.7,2.7,2.7h176.5c1.5,0,2.7-1.2,2.7-2.7v-9.7
			C291,209.3,289.8,208.1,288.3,208.1z"/>
		<path class="st8" d="M288.3,208.1h-8.6v15.2h8.6c1.5,0,2.7-1.2,2.7-2.7v-9.7C291,209.3,289.8,208.1,288.3,208.1z"/>
		<path class="st8" d="M279.6,79.2L272,94.3h9.6c1.1,0,2.1-0.6,2.5-1.6l6.8-13.6L279.6,79.2L279.6,79.2L279.6,79.2z"/>
		<path class="st3" d="M198.1-2.5L194.3,1l85.3,78.2H291L201.9-2.5C200.8-3.5,199.2-3.5,198.1-2.5z"/>
		<path class="st8" d="M198.1,16.3l-3.8,3.3l55,48.1h3.8c2.6,0,3.8-3.3,1.9-5l-53.1-46.5C200.8,15.4,199.2,15.4,198.1,16.3z"/>
	</g>
</g>
</svg>
