<?xml version="1.0" encoding="utf-8"?>
<!-- Generator: Adobe Illustrator 24.0.1, SVG Export Plug-In . SVG Version: 6.00 Build 0)  -->
<svg version="1.1" id="Layer_1" xmlns="http://www.w3.org/2000/svg" xmlns:xlink="http://www.w3.org/1999/xlink" x="0px" y="0px"
	 viewBox="0 0 400 300" style="enable-background:new 0 0 400 300;" xml:space="preserve">
<style type="text/css">
	.st0{clip-path:url(#SVGID_2_);}
	.st1{fill:#282B4E;}
	.st2{fill:#FFD064;}
	.st3{fill:url(#SVGID_3_);}
	.st4{fill:url(#SVGID_4_);}
	.st5{fill:#FFE07D;}
	.st6{fill:#FFDDCE;}
	.st7{fill:#FFCBBE;}
	.st8{fill:#F5DBCC;}
	.st9{fill:#407093;}
	.st10{fill:#FFFFFF;}
</style>
<g>
	<defs>
		<rect id="SVGID_1_" width="400" height="300"/>
	</defs>
	<clipPath id="SVGID_2_">
		<use xlink:href="#SVGID_1_"  style="overflow:visible;"/>
	</clipPath>
	<g class="st0">
		<path class="st1" d="M36.7,165.3l149.1-84.9c7.4-4.2,16.5-4.2,23.9,0.1l153.6,89.5c4.1,2.4,6.6,6.8,6.6,11.5
			c0,4.7-2.6,9.1-6.7,11.5l-143.4,82.4c-9.9,5.7-22.1,5.7-31.9,0l-151.3-87c-4.1-2.4-6.7-6.8-6.7-11.6S32.6,167.7,36.7,165.3z"/>
		<g>
			<g>
				<path class="st2" d="M190.3,59.3c-0.9,0-1.8-0.4-2.3-1.2c-2.6-3.6-7.3-7.7-14.7-6.9c-8.7,0.9-15.1-1.8-19-4.3
					c-1.3-0.9-1.7-2.7-0.9-4c0.9-1.3,2.7-1.7,4-0.9c3.1,2,8.3,4.2,15.3,3.4c10.6-1.1,17.1,5.3,20,9.2c0.9,1.3,0.7,3.1-0.6,4.1
					C191.5,59.1,190.9,59.3,190.3,59.3z"/>
			</g>
			<g>
				<path class="st2" d="M160,74.7c-0.5,0-1-0.1-1.5-0.4c-1.4-0.8-1.8-2.6-1-4c3.7-6.1,10.5-10.2,19.7-12c6.7-1.3,12.3-1,12.5-0.9
					c1.6,0.1,2.8,1.5,2.7,3.1c-0.1,1.6-1.5,2.8-3.1,2.7c-0.2,0-19.9-1.2-26.9,10.2C161.9,74.2,160.9,74.7,160,74.7L160,74.7z"/>
			</g>
		</g>
		<linearGradient id="SVGID_3_" gradientUnits="userSpaceOnUse" x1="145.3167" y1="104.8655" x2="249.4862" y2="104.8655">
			<stop  offset="0" style="stop-color:#F5524E"/>
			<stop  offset="1" style="stop-color:#D0342F"/>
		</linearGradient>
		<path class="st3" d="M203.6,185.7c47.6,0,73.9-69.8-1.2-123.7c-1.9-1.3-3-3.5-3-5.8c0-1.9,0.6-3.7,1.7-5.3
			c3.5-5,8.6-13.6,11.6-20.5c0.7-1.7-0.3-3.4-2.3-3.4c-4.5,0-4.5-3-9-3s-4.5,3-9,3c-3.8,0-5.4-3.3-7.3-0.9
			c-5.5,7,13.2,31.7,13.2,31.7c-82.5,54.2-55.9,128-7.2,128L203.6,185.7L203.6,185.7z"/>
		<linearGradient id="SVGID_4_" gradientUnits="userSpaceOnUse" x1="195.133" y1="104.865" x2="275.6725" y2="104.865">
			<stop  offset="0" style="stop-color:#F5524E"/>
			<stop  offset="1" style="stop-color:#D0342F"/>
		</linearGradient>
		<path class="st4" d="M222.3,57.8c0,0,19-24.6,13.5-31.7c-1.9-2.4-3.4,0.9-7.3,0.9c-4.5,0-4.5-3-9-3c-4.5,0-4.5,3-9,3
			c-0.2,0-0.4,0-0.6,0c-1.8,7.8-10,19.9-14.7,26.4c1.8,2.7,3.2,4.5,3.2,4.5c-1.1,0.7-2.2,1.5-3.2,2.2
			c78.8,54.2,52.4,125.8,4.2,125.8h30.4C278.7,185.7,305.1,112.2,222.3,57.8L222.3,57.8z"/>
		<path class="st5" d="M225.9,66.5c-11,2.8-21.9,2.8-32.9,0c-3.8-1-6-5.3-4.6-9.2c0,0,0-0.1,0-0.1c1.2-3.3,4.4-5.1,7.7-4.3
			c9,2.3,17.7,2.3,26.8,0c3.2-0.8,6.5,1,7.7,4.3c0,0,0,0.1,0,0.1C231.9,61.2,229.7,65.5,225.9,66.5L225.9,66.5z"/>
		<g>
			<g>
				<g>
					<g>
						<g>
							<g>
								<g>
									<g>
										<g>
											<g>
												<g>
													<g>
														<path class="st6" d="M122.3,198.4l41.9,15.6c3.6,1.3,7.3,2,11.1,2h43.2c6.1,0,12-1.7,17.1-5l54.1-34.3
															c3.6-3.2,4.2-8.5,1.5-12.4c-2.9-4.3-7.8-5.1-13.2-2.5L225.5,185l0.1-8.6c-0.7-7-6.1-12.6-13.1-13.6l-32.1-3.7
															c-7.4-1-11.1-3.5-17.6-7.3c-8.8-5.2-18.8-7.9-29-7.9h-11.5V198.4z"/>
													</g>
													<path class="st6" d="M161.7,205.7c3.7,1.4,7.7,2.1,11.7,2.1h45.4c4.8,0,9.6-1,14-3l31.8-20.1c3-1.9,4.8-5.1,4.7-8.6
														c-0.1-1.9-0.6-3.7-1.7-5.3c0,0-1-1.7-2-3.3L225.5,185l0.1-8.6c-0.7-7-6.1-12.6-13.1-13.6l-32.1-3.7
														c-7.4-1-11.1-3.5-17.6-7.3c-8.8-5.2-18.8-7.9-29-7.9h-11.5V191L161.7,205.7z"/>
													<path class="st7" d="M291.4,164.3c-2.9-4.3-7.8-5.1-13.2-2.5l-14.5,6.4c0.7,1.1,1.3,2,1.3,2c2.7,3.9,2,9.3-1.5,12.4
														l-31.5,20c-4.2,1.9-8.7,2.9-13.3,2.9h-43.2c-3.8,0-7.6-0.7-11.1-2l-41.9-15.6v10.5l41.9,15.6c3.6,1.3,7.3,2,11.1,2
														h35.3h7.9c6,0,12-1.7,17.1-5l54.1-34.3C293.4,173.6,294,168.2,291.4,164.3L291.4,164.3z"/>
													<g>
														<path class="st8" d="M221.6,167.6l0,0.2l0.1-0.1C221.7,167.7,221.7,167.6,221.6,167.6z"/>
													</g>
													<g>
														<g>
															<g>
																<path class="st7" d="M225.5,185h-32.8c-1.6,0-2.9-1.3-2.9-2.9c0-1.6,1.3-2.9,2.9-2.9h32.8L225.5,185z"/>
															</g>
														</g>
													</g>
												</g>
											</g>
											<path class="st9" d="M131.3,206.7c0,3-2.5,5.5-5.5,5.5h-13.3c-3,0-5.5-2.5-5.5-5.5v-67.5c0-3,2.5-5.5,5.5-5.5h13.3
												c3,0,5.5,2.5,5.5,5.5V206.7z"/>
										</g>
									</g>
								</g>
							</g>
						</g>
					</g>
				</g>
			</g>
		</g>
		<path class="st10" d="M216.7,113.8c-1.3-0.5-2.5-0.9-3.7-1.4V94c3.4,0.6,5.5,2.3,5.6,2.5c1.2,1.1,3,1,4.1-0.2c1.1-1.2,1-3-0.2-4.1
			c-0.2-0.2-3.8-3.4-9.5-4.1V84c0-1.6-1.3-2.9-2.9-2.9c-1.6,0-2.9,1.3-2.9,2.9v4.4c-0.7,0.1-1.4,0.3-2.1,0.5
			c-4.9,1.5-8.6,5.7-9.6,11c-0.9,4.8,0.6,9.4,4,12.1c1.9,1.5,4.4,2.9,7.8,4.4v22.9c-3.4-0.1-5.4-0.8-9-3.1c-1.3-0.9-3.1-0.5-4,0.8
			c-0.9,1.3-0.5,3.1,0.8,4c4.7,3.1,7.9,3.9,12.2,4.1v4.6c0,1.6,1.3,2.9,2.9,2.9c1.6,0,2.9-1.3,2.9-2.9v-4.8
			c8.1-1.3,12.9-7.9,13.9-14C228.3,123.1,224.2,116.4,216.7,113.8L216.7,113.8z M203.1,107.4c-1.7-1.3-2.4-3.8-1.9-6.4
			c0.5-2.5,2.2-5.5,5.6-6.5c0.2,0,0.3-0.1,0.5-0.1v15.6C205.5,109.1,204.2,108.2,203.1,107.4z M221.3,129.8
			c-0.6,3.8-3.4,7.9-8.2,9.1v-20.3c0.6,0.2,1.1,0.4,1.7,0.6C222,121.8,221.6,128,221.3,129.8z"/>
	</g>
</g>
</svg>
