<?xml version="1.0" encoding="UTF-8" standalone="no"?><!-- Generator: Gravit.io --><svg xmlns="http://www.w3.org/2000/svg" xmlns:xlink="http://www.w3.org/1999/xlink" style="isolation:isolate" viewBox="0 0 400 300" width="400pt" height="300pt"><defs><clipPath id="_clipPath_rPYeFFiTIYR3NGBJl9KhHrq5ntVQgcrS"><rect width="400" height="300"/></clipPath></defs><g clip-path="url(#_clipPath_rPYeFFiTIYR3NGBJl9KhHrq5ntVQgcrS)"><path d=" M 36.717 165.335 L 185.843 80.469 C 193.262 76.235 202.376 76.281 209.752 80.589 L 363.399 170.084 C 367.498 172.472 370.013 176.863 370 181.606 C 369.987 186.35 367.446 190.726 363.334 193.091 L 219.892 275.446 C 210.004 281.131 197.839 281.131 187.952 275.446 L 36.663 188.407 C 32.531 186.03 29.989 181.622 30 176.855 C 30.011 172.088 32.574 167.692 36.717 165.335 Z " fill="rgb(229,119,10)"/><rect x="137.439" y="86.74" width="125.125" height="115.645" transform="matrix(1,0,0,1,0,0)" fill="rgb(40,43,78)"/><rect x="253.084" y="105.7" width="15.165" height="75.83" transform="matrix(1,0,0,1,0,0)" fill="rgb(217,217,217)"/><path d=" M 275.833 90.535 L 245.499 90.535 L 245.499 106.746 C 245.499 108.262 246.729 109.492 248.246 109.492 L 273.087 109.492 C 274.604 109.492 275.833 108.263 275.833 106.746 L 275.833 90.535 Z " fill="rgb(238,238,239)"/><path d=" M 273.087 177.741 L 248.246 177.741 C 246.73 177.741 245.5 178.97 245.5 180.487 L 245.5 196.7 L 275.834 196.7 L 275.834 180.487 C 275.833 178.971 274.604 177.741 273.087 177.741 Z " fill="rgb(238,238,239)"/><path d=" M 275.833 90.535 L 264.458 90.535 L 264.458 109.492 L 273.086 109.492 C 274.603 109.492 275.833 108.262 275.833 106.745 L 275.833 90.535 Z " fill="rgb(217,217,217)"/><path d=" M 273.087 177.742 L 264.459 177.742 L 264.459 196.7 L 275.833 196.7 L 275.833 180.489 C 275.833 178.972 274.603 177.742 273.087 177.742 Z " fill="rgb(217,217,217)"/><rect x="131.753" y="105.7" width="15.165" height="75.83" transform="matrix(1,0,0,1,0,0)" fill="rgb(217,217,217)"/><path d=" M 154.502 90.535 L 124.167 90.535 L 124.167 106.746 C 124.167 108.262 125.396 109.492 126.914 109.492 L 151.755 109.492 C 153.271 109.492 154.501 108.263 154.501 106.746 L 154.501 90.535 L 154.502 90.535 Z " fill="rgb(238,238,239)"/><path d=" M 151.755 177.741 L 126.914 177.741 C 125.397 177.741 124.167 178.97 124.167 180.487 L 124.167 196.7 L 154.501 196.7 L 154.501 180.487 C 154.502 178.971 153.272 177.741 151.755 177.741 Z " fill="rgb(238,238,239)"/><path d=" M 154.501 90.535 L 143.126 90.535 L 143.126 109.492 L 151.754 109.492 C 153.271 109.492 154.501 108.262 154.501 106.745 L 154.501 90.535 Z " fill="rgb(217,217,217)"/><path d=" M 151.754 177.742 L 143.126 177.742 L 143.126 196.7 L 154.501 196.7 L 154.501 180.489 C 154.501 178.972 153.271 177.742 151.754 177.742 Z " fill="rgb(217,217,217)"/><path d=" M 234.125 192.907 L 234.125 124.66 C 225.749 124.66 218.958 117.869 218.958 109.493 L 181.042 109.493 C 181.042 117.869 174.251 124.66 165.875 124.66 L 165.875 192.907 L 234.125 192.907 Z " fill="rgb(238,238,239)"/><path d=" M 109 79.159 L 291 79.159 L 201.922 -2.495 C 200.834 -3.492 199.166 -3.492 198.078 -2.495 L 109 79.159 Z " fill="rgb(238,238,239)"/><path d=" M 291 79.16 L 109 79.16 L 115.798 92.754 C 116.28 93.718 117.265 94.326 118.342 94.326 L 281.66 94.326 C 282.737 94.326 283.721 93.718 284.203 92.754 L 291 79.16 Z " fill="rgb(193,193,193)"/><path d=" M 146.902 67.785 L 253.098 67.785 C 255.724 67.785 256.947 64.531 254.971 62.801 L 201.873 16.339 C 200.801 15.401 199.2 15.401 198.128 16.339 L 145.03 62.801 C 143.054 64.53 144.277 67.785 146.902 67.785 Z " fill="rgb(89,93,140)"/><circle vector-effect="non-scaling-stroke" cx="199.99867293417665" cy="45.03520674032773" r="7.583296470393805" fill="rgb(238,238,239)"/><path d=" M 203.555 148.077 L 203.555 132.868 C 206.083 134.165 207.821 136.793 207.821 139.825 C 207.821 141.788 209.412 143.38 211.376 143.38 C 213.339 143.38 214.93 141.788 214.93 139.825 C 214.93 132.818 210.076 126.926 203.555 125.327 L 203.555 124.659 C 203.555 122.696 201.964 121.104 200 121.104 C 198.037 121.104 196.446 122.696 196.446 124.659 L 196.446 125.327 C 189.924 126.926 185.071 132.818 185.071 139.825 C 185.071 146.832 189.924 152.724 196.446 154.323 L 196.446 169.532 C 193.918 168.234 192.18 165.606 192.18 162.575 C 192.18 160.612 190.589 159.02 188.626 159.02 C 186.663 159.02 185.071 160.612 185.071 162.575 C 185.071 169.582 189.924 175.474 196.446 177.073 L 196.446 177.742 C 196.446 179.705 198.038 181.297 200.001 181.297 C 201.964 181.297 203.556 179.705 203.556 177.742 L 203.556 177.073 C 210.077 175.474 214.931 169.582 214.931 162.575 C 214.93 155.568 210.076 149.676 203.555 148.077 Z  M 192.18 139.825 C 192.18 136.794 193.917 134.165 196.445 132.868 L 196.445 146.782 C 193.918 145.484 192.18 142.856 192.18 139.825 Z  M 203.555 169.532 L 203.555 155.618 C 206.083 156.916 207.821 159.543 207.821 162.575 C 207.821 165.607 206.083 168.235 203.555 169.532 Z " fill="rgb(251,132,54)"/><path d=" M 280.67 192.908 L 119.331 192.908 C 117.814 192.908 116.584 194.138 116.584 195.655 L 116.584 211.868 L 283.416 211.868 L 283.416 195.655 C 283.416 194.138 282.187 192.908 280.67 192.908 Z " fill="rgb(217,217,217)"/><path d=" M 280.67 192.908 L 272.042 192.908 L 272.042 211.868 L 283.416 211.868 L 283.416 195.655 C 283.416 194.138 282.187 192.908 280.67 192.908 Z " fill="rgb(193,193,193)"/><path d=" M 288.253 208.076 L 111.747 208.076 C 110.23 208.076 109 209.306 109 210.823 L 109 220.496 C 109 222.013 110.229 223.243 111.747 223.243 L 288.253 223.243 C 289.77 223.243 291 222.014 291 220.496 L 291 210.823 C 291 209.306 289.77 208.076 288.253 208.076 Z " fill="rgb(193,193,193)"/><path d=" M 288.253 208.076 L 279.624 208.076 L 279.624 223.243 L 288.253 223.243 C 289.769 223.243 290.999 222.014 290.999 220.496 L 290.999 210.823 C 290.999 209.306 289.769 208.076 288.253 208.076 Z " fill="rgb(163,163,163)"/><path d=" M 279.624 79.16 L 272.041 94.326 L 281.659 94.326 C 282.736 94.326 283.721 93.718 284.202 92.755 L 291 79.161 L 279.624 79.161 L 279.624 79.16 L 279.624 79.16 Z " fill="rgb(163,163,163)"/><path d=" M 198.078 -2.495 L 194.313 0.956 L 279.625 79.159 L 291 79.159 L 201.922 -2.495 C 200.835 -3.492 199.166 -3.492 198.078 -2.495 Z " fill="rgb(217,217,217)"/><path d=" M 198.128 16.339 L 194.312 19.678 L 249.291 67.785 L 253.098 67.785 C 255.723 67.785 256.947 64.531 254.97 62.801 L 201.873 16.339 C 200.801 15.401 199.2 15.401 198.128 16.339 Z " fill="rgb(163,163,163)"/></g></svg>