<?xml version="1.0" encoding="utf-8"?>
<!-- Generator: Adobe Illustrator 24.0.1, SVG Export Plug-In . SVG Version: 6.00 Build 0)  -->
<svg version="1.1" id="Layer_1" xmlns="http://www.w3.org/2000/svg" xmlns:xlink="http://www.w3.org/1999/xlink" x="0px" y="0px"
	 viewBox="0 0 290 195" style="enable-background:new 0 0 290 195;" xml:space="preserve">
<style type="text/css">
	.st0{opacity:0;fill:#FFFFFF;}
	.st1{fill:#F4F4F4;}
	.st2{fill:#F2F2F2;}
</style>
<rect x="-0.4" y="-0.2" class="st0" width="290.2" height="195.4"/>
<path class="st1" d="M118.9,50.5H2.8c-1.5,0-2.7-1.2-2.7-2.7v-8.1c0-1.5,1.2-2.7,2.7-2.7h116c1.5,0,2.7,1.2,2.7,2.7v8.1
	C121.5,49.4,120.3,50.5,118.9,50.5z"/>
<path class="st2" d="M150.3,31.3H2.5c-1.5,0-2.7-1.2-2.7-2.7V16.9c0-1.5,1.2-2.7,2.7-2.7h147.8c1.5,0,2.7,1.2,2.7,2.7v11.7
	C152.9,30.1,151.7,31.3,150.3,31.3z"/>
<path class="st1" d="M286.8,31.3h-98.5c-1.5,0-2.7-1.2-2.7-2.7V16.9c0-1.5,1.2-2.7,2.7-2.7h98.5c1.5,0,2.7,1.2,2.7,2.7v11.7
	C289.5,30.1,288.3,31.3,286.8,31.3z"/>
<path class="st1" d="M118.9,114.8H2.8c-1.5,0-2.7-1.2-2.7-2.7V104c0-1.5,1.2-2.7,2.7-2.7h116c1.5,0,2.7,1.2,2.7,2.7v8.1
	C121.5,113.6,120.3,114.8,118.9,114.8z"/>
<path class="st2" d="M150.3,95.5H2.5c-1.5,0-2.7-1.2-2.7-2.7V81.2c0-1.5,1.2-2.7,2.7-2.7h147.8c1.5,0,2.7,1.2,2.7,2.7v11.7
	C152.9,94.3,151.7,95.5,150.3,95.5z"/>
<path class="st1" d="M286.8,95.5h-98.5c-1.5,0-2.7-1.2-2.7-2.7V81.2c0-1.5,1.2-2.7,2.7-2.7h98.5c1.5,0,2.7,1.2,2.7,2.7v11.7
	C289.5,94.3,288.3,95.5,286.8,95.5z"/>
<path class="st1" d="M118.5,179.4H2.5c-1.5,0-2.7-1.2-2.7-2.7v-8.1c0-1.5,1.2-2.7,2.7-2.7h116c1.5,0,2.7,1.2,2.7,2.7v8.1
	C121.2,178.2,120,179.4,118.5,179.4z"/>
<path class="st2" d="M149.9,160.1H2.1c-1.5,0-2.7-1.2-2.7-2.7v-11.7c0-1.5,1.2-2.7,2.7-2.7h147.8c1.5,0,2.7,1.2,2.7,2.7v11.7
	C152.6,159,151.4,160.1,149.9,160.1z"/>
<path class="st1" d="M286.5,160.1h-98.5c-1.5,0-2.7-1.2-2.7-2.7v-11.7c0-1.5,1.2-2.7,2.7-2.7h98.5c1.5,0,2.7,1.2,2.7,2.7v11.7
	C289.1,159,287.9,160.1,286.5,160.1z"/>
</svg>
