<?xml version="1.0" encoding="utf-8"?>
<!-- Generator: Adobe Illustrator 24.0.1, SVG Export Plug-In . SVG Version: 6.00 Build 0)  -->
<svg version="1.1" id="Layer_1" xmlns="http://www.w3.org/2000/svg" xmlns:xlink="http://www.w3.org/1999/xlink" x="0px" y="0px"
	 viewBox="0 0 400 300" style="enable-background:new 0 0 400 300;" xml:space="preserve">
<style type="text/css">
	.st0{clip-path:url(#SVGID_2_);}
	.st1{fill:url(#SVGID_3_);}
	.st2{fill-rule:evenodd;clip-rule:evenodd;fill:#009EE3;}
	.st3{fill-rule:evenodd;clip-rule:evenodd;fill:#113984;}
	.st4{fill-rule:evenodd;clip-rule:evenodd;fill:#172C70;}
</style>
<g>
	<defs>
		<rect id="SVGID_1_" width="400" height="300"/>
	</defs>
	<clipPath id="SVGID_2_">
		<use xlink:href="#SVGID_1_"  style="overflow:visible;"/>
	</clipPath>
	<g class="st0">
		<linearGradient id="SVGID_3_" gradientUnits="userSpaceOnUse" x1="30" y1="178.5176" x2="370.0001" y2="178.5176">
			<stop  offset="0" style="stop-color:#F5524E"/>
			<stop  offset="1" style="stop-color:#D0342F"/>
		</linearGradient>
		<path class="st1" d="M36.7,165.3l149.1-84.9c7.4-4.2,16.5-4.2,23.9,0.1l153.6,89.5c4.1,2.4,6.6,6.8,6.6,11.5
			c0,4.7-2.6,9.1-6.7,11.5l-143.4,82.4c-9.9,5.7-22.1,5.7-31.9,0l-151.3-87c-4.1-2.4-6.7-6.8-6.7-11.6S32.6,167.7,36.7,165.3z"/>
		<path class="st2" d="M189.3,94.9h49.5c26.6,0,36.6,13.4,35,33.2c-2.6,32.6-22.3,50.7-48.4,50.7h-13.2c-3.6,0-6,2.4-7,8.8
			l-5.6,37.4c-0.4,2.4-1.6,3.8-3.6,4h-31.1c-2.9,0-4-2.2-3.2-7.1l19-120C181.4,97.2,184,94.9,189.3,94.9z"/>
		<path class="st3" d="M158.3,53.6h49.5c13.9,0,30.5,0.4,41.6,10.2c7.4,6.5,11.3,16.9,10.4,28.1c-3,37.8-25.7,59-56,59h-24.4
			c-4.2,0-6.9,2.8-8.1,10.2l-6.8,43.4c-0.4,2.8-1.7,4.5-3.8,4.7h-30.6c-3.4,0-4.6-2.6-3.7-8.2l22-139.2
			C149.2,56.2,152.3,53.6,158.3,53.6z"/>
		<path class="st4" d="M172,156.7l8.6-54.8c0.8-4.8,3.4-7.1,8.6-7.1h49.5c8.2,0,14.8,1.3,20,3.6c-5,33.7-26.7,52.4-55.2,52.4h-24.4
			C175.8,150.9,173.4,152.5,172,156.7z"/>
	</g>
</g>
</svg>
