<svg width="120" height="39" viewBox="0 0 120 39" fill="none" xmlns="http://www.w3.org/2000/svg">
<path fill-rule="evenodd" clip-rule="evenodd" d="M30.0014 37.9994H19.6161L11.8284 8.28885C11.4588 6.92216 10.6739 5.71393 9.51945 5.14448C6.63829 3.71342 3.46346 2.57451 0 2.00011V0.856252H16.7299C19.0389 0.856252 20.7706 2.57451 21.0592 4.57007L25.0999 26.0013L35.4802 0.856252H45.5769L30.0014 37.9994ZM51.3492 37.9994H41.5411L49.6174 0.856252H59.4255L51.3492 37.9994ZM72.1148 11.1464C72.4035 9.14591 74.1352 8.00205 76.1555 8.00205C79.3304 7.71485 82.7888 8.28925 85.675 9.71536L87.4067 1.71826C84.5205 0.574404 81.3457 0 78.4645 0C68.9451 0 62.0181 5.14488 62.0181 12.2853C62.0181 17.7174 66.9247 20.5696 70.3882 22.2879C74.1352 24.0012 75.5783 25.1451 75.2897 26.8584C75.2897 29.4283 72.4035 30.5722 69.5223 30.5722C66.0588 30.5722 62.5954 29.7155 59.4256 28.2845L57.6939 36.2865C61.1573 37.7126 64.9043 38.287 68.3678 38.287C79.0418 38.5693 85.675 33.4294 85.675 25.7145C85.675 15.9991 72.1148 15.4297 72.1148 11.1464V11.1464ZM120 37.9994L112.212 0.856252H103.847C102.116 0.856252 100.384 2.00011 99.8066 3.71342L85.3857 37.9994H95.4824L97.4977 32.5723H109.903L111.058 37.9994H120ZM105.291 10.8469L108.173 24.8455H100.096L105.291 10.8469Z" fill="#17347B"/>
</svg>
