<svg width="68" height="82" viewBox="0 0 68 82" fill="none" xmlns="http://www.w3.org/2000/svg">
<path d="M3.92407 38.0029V74.6872C3.92407 78.607 7.11298 81.7959 11.0326 81.7959H23.5622V38.0029H3.92407Z" fill="#A91F23"/>
<path d="M39.6981 38.0029H28.3008V81.7962H39.6981V38.0029Z" fill="#A91F23"/>
<path d="M60.6135 18.8857H49.6944C50.3537 18.3801 50.9839 17.8301 51.5784 17.2357C51.7046 17.1095 51.8288 16.982 51.9509 16.8531C56.04 12.5343 54.9242 7.01941 51.7086 3.8038C48.4931 0.588351 42.9782 -0.527326 38.6594 3.5618C38.5305 3.68391 38.4028 3.80822 38.2769 3.93412C36.3974 5.81353 34.9554 8.04283 34.0001 10.4592C33.0447 8.04299 31.6027 5.81385 29.7238 3.93475C29.5972 3.80806 29.4694 3.68391 29.3405 3.5618C25.0217 -0.527484 19.507 0.588351 16.2914 3.8038C13.0758 7.01941 11.96 12.5344 16.0491 16.8531C16.171 16.9818 16.2954 17.1095 16.4216 17.2357C17.0161 17.8302 17.6461 18.3801 18.3056 18.8857H7.38638C3.46674 18.8857 0.277832 22.0746 0.277832 25.9943V27.4445C0.277832 30.064 1.70438 32.3531 3.81915 33.5863H64.1808C66.2955 32.3533 67.722 30.064 67.722 27.4445V25.9943C67.722 22.0746 64.5332 18.8857 60.6135 18.8857ZM30.6094 18.122C26.5922 18.2784 22.6413 16.7536 19.7722 13.8847C19.7721 13.8845 19.7719 13.8842 19.7718 13.8841C19.6764 13.7887 19.5824 13.6921 19.4901 13.5947C17.2329 11.2107 18.1614 8.63566 19.6422 7.15478C20.4846 6.31222 21.6812 5.64878 22.9954 5.64878C23.9911 5.64878 25.0546 6.02994 26.082 7.00266C26.1794 7.09491 26.276 7.1889 26.372 7.28494C29.2407 10.1538 30.7622 14.1043 30.6094 18.122ZM48.2281 13.8839C48.2279 13.8841 48.2278 13.8844 48.2276 13.8845C45.4898 16.6222 41.7681 18.1327 37.942 18.1324C37.7583 18.1324 37.5746 18.1291 37.3905 18.122C37.238 14.1043 38.7593 10.1538 41.6286 7.28446C41.724 7.18906 41.8206 7.09507 41.9182 7.00282C44.3021 4.74588 46.8772 5.67421 48.3579 7.15494C49.8388 8.63566 50.7671 11.2109 48.51 13.5948C48.4175 13.692 48.3236 13.7885 48.2281 13.8839Z" fill="#A91F23"/>
<path d="M44.4377 38.0029V81.7959H56.9673C60.887 81.7959 64.0759 78.607 64.0759 74.6873V38.0029H44.4377Z" fill="#A91F23"/>
</svg>
