<svg width="48" height="46" viewBox="0 0 48 46" fill="none" xmlns="http://www.w3.org/2000/svg">
<rect x="0.893066" width="46.8396" height="46" rx="23" fill="#EFEFEF"/>
<path d="M29.3842 35.5464C26.3108 35.5464 23.8102 33.0906 23.8102 30.0723C23.8102 27.0539 26.3108 24.5981 29.3842 24.5981C32.4577 24.5981 34.9583 27.0539 34.9583 30.0723C34.9583 33.0906 32.4577 35.5464 29.3842 35.5464ZM29.3842 25.8614C27.02 25.8614 25.0965 27.7504 25.0965 30.0723C25.0965 32.3941 27.02 34.2831 29.3842 34.2831C31.7485 34.2831 33.672 32.3941 33.672 30.0723C33.672 27.7504 31.7485 25.8614 29.3842 25.8614Z" fill="#32334D"/>
<path d="M28.7411 27.751H30.0274V32.3829H28.7411V27.751Z" fill="#32334D"/>
<path d="M27.026 29.439H31.7425V30.7022H27.026V29.439Z" fill="#32334D"/>
<path d="M22.361 28.8082H16.7355C15.4346 28.8082 14.3772 27.769 14.3772 26.4923V17.6495C14.3772 16.3719 15.4346 15.3335 16.7355 15.3335H32.6C33.9009 15.3335 34.9583 16.3719 34.9583 17.6495V24.8079H33.672V17.6495C33.672 17.0692 33.1909 16.5968 32.6 16.5968H16.7355C16.1446 16.5968 15.6635 17.0684 15.6635 17.6495V26.4923C15.6635 27.0725 16.1446 27.545 16.7355 27.545H22.361V28.8082Z" fill="#32334D"/>
<path d="M24.6678 24.5926C23.2494 24.5926 22.0951 23.459 22.0951 22.0661C22.0951 20.6731 23.2494 19.5396 24.6678 19.5396C26.0861 19.5396 27.2404 20.6731 27.2404 22.0661C27.2404 23.459 26.0861 24.5926 24.6678 24.5926ZM24.6678 20.8028C23.9586 20.8028 23.3814 21.3696 23.3814 22.0661C23.3814 22.7625 23.9586 23.3293 24.6678 23.3293C25.3769 23.3293 25.9541 22.7625 25.9541 22.0661C25.9541 21.3696 25.3769 20.8028 24.6678 20.8028Z" fill="#32334D"/>
</svg>
