<svg width="48" height="46" viewBox="0 0 48 46" fill="none" xmlns="http://www.w3.org/2000/svg">
<rect x="0.91394" width="46.8396" height="46" rx="23" fill="#EFEFEF"/>
<path d="M23.6475 26.6895C21.5292 26.6895 19.8057 24.966 19.8057 22.8477C19.8057 20.7293 21.5292 19.0059 23.6475 19.0059C25.7658 19.0059 27.4893 20.7293 27.4893 22.8477C27.4893 24.966 25.7658 26.6895 23.6475 26.6895ZM23.6475 19.8924C22.0179 19.8924 20.6922 21.2181 20.6922 22.8477C20.6922 24.4772 22.0179 25.8029 23.6475 25.8029C25.277 25.8029 26.6027 24.4772 26.6027 22.8477C26.6027 21.2181 25.277 19.8924 23.6475 19.8924Z" fill="#32334D"/>
<path d="M23.2042 21.2222H24.0908V24.4729H23.2042V21.2222Z" fill="#32334D"/>
<path d="M22.0221 22.4043H25.2728V23.2909H22.0221V22.4043Z" fill="#32334D"/>
<path d="M31.8438 30.75H17.4062C16.0797 30.75 15 29.6711 15 28.3438V17.4063C15 16.0798 16.0797 15 17.4062 15H31.8438C33.1711 15 34.25 16.0798 34.25 17.4063V20.4688H32.9375V17.4063C32.9375 16.8034 32.4466 16.3125 31.8438 16.3125H17.4062C16.8034 16.3125 16.3125 16.8034 16.3125 17.4063V28.3438C16.3125 28.9466 16.8034 29.4375 17.4062 29.4375H31.8438C32.4466 29.4375 32.9375 28.9466 32.9375 28.3438V24.4063H34.25V28.3438C34.25 29.6711 33.1711 30.75 31.8438 30.75Z" fill="#32334D"/>
<path d="M35.3438 25.0625H32.0625C30.6152 25.0625 29.4375 23.8847 29.4375 22.4375C29.4375 20.9902 30.6152 19.8125 32.0625 19.8125H35.3438C35.706 19.8125 36 20.1065 36 20.4688V24.4062C36 24.7685 35.706 25.0625 35.3438 25.0625ZM32.0625 21.125C31.3389 21.125 30.75 21.7139 30.75 22.4375C30.75 23.1611 31.3389 23.75 32.0625 23.75H34.6875V21.125H32.0625Z" fill="#32334D"/>
</svg>
