<?xml version="1.0" encoding="utf-8"?>
<!-- Generator: Adobe Illustrator 24.0.1, SVG Export Plug-In . SVG Version: 6.00 Build 0)  -->
<svg version="1.1" id="Layer_1" xmlns="http://www.w3.org/2000/svg" xmlns:xlink="http://www.w3.org/1999/xlink" x="0px" y="0px"
	 viewBox="0 0 290 78.5" style="enable-background:new 0 0 290 78.5;" xml:space="preserve">
<style type="text/css">
	.st0{opacity:0;}
	.st1{fill:#F2F2F2;}
	.st2{opacity:0.85;}
	.st3{fill:#D1D1D1;}
	.st4{fill:#E2E2E2;}
</style>
<g class="st0">
	<rect class="st1" width="290" height="78.3"/>
</g>
<g class="st2">
	<path class="st3" d="M147.7,31H2.8c-1.3,0-2.3-1-2.3-2.3V5.3C0.5,4,1.5,3,2.8,3h144.9c1.3,0,2.3,1,2.3,2.3v23.4
		C150,30,149,31,147.7,31z"/>
</g>
<g class="st2">
	<path class="st4" d="M112.9,51H2.8c-1.2,0-2.2-0.9-2.2-2.1V35.4c0-1.2,0.9-2.1,2.2-2.1h110c1.2,0,2.2,0.9,2.2,2.1v13.5
		C115,50.1,114.1,51,112.9,51z"/>
</g>
<g class="st2">
	<path class="st4" d="M82.7,75H2.6c-1.6,0-2.8-1-2.8-2.3V57c0-1.3,1.2-2.3,2.8-2.3h80.1c1.6,0,2.8,1,2.8,2.3v15.7
		C85.5,74,84.2,75,82.7,75z"/>
</g>
<g class="st2">
	<path class="st4" d="M257.2,75H98c-1.6,0-2.8-1-2.8-2.3V57c0-1.3,1.2-2.3,2.8-2.3h159.1c1.6,0,2.8,1,2.8,2.3v15.7
		C260,74,258.8,75,257.2,75z"/>
</g>
</svg>
