<?xml version="1.0" encoding="utf-8"?>
<!-- Generator: Adobe Illustrator 24.0.1, SVG Export Plug-In . SVG Version: 6.00 Build 0)  -->
<svg version="1.1" id="Layer_1" xmlns="http://www.w3.org/2000/svg" xmlns:xlink="http://www.w3.org/1999/xlink" x="0px" y="0px"
	 viewBox="0 0 1920 1284" style="enable-background:new 0 0 1920 1284;" xml:space="preserve">
<style type="text/css">
	.st0{display:none;opacity:0.4;}
	.st1{display:inline;}
	.st2{clip-path:url(#SVGID_2_);}
	.st3{opacity:9.000000e-02;fill:#333657;enable-background:new    ;}
	.st4{opacity:4.000000e-02;fill:#333657;enable-background:new    ;}
	.st5{opacity:6.000000e-02;fill:#333657;enable-background:new    ;}
	.st6{fill:none;stroke:#3D82C4;stroke-width:1.301;stroke-miterlimit:10;}
	.st7{fill:none;stroke:#EF5451;stroke-width:1.301;stroke-miterlimit:10;}
	.st8{fill:url(#SVGID_3_);}
	.st9{fill:none;stroke:#FFBC12;stroke-width:0.5;stroke-linecap:round;stroke-linejoin:round;stroke-miterlimit:10;}
	.st10{fill:none;stroke:#7753C7;stroke-width:0.5;stroke-linecap:round;stroke-linejoin:round;stroke-miterlimit:10;}
	.st11{fill:none;stroke:#3D82C4;stroke-width:0.3;stroke-miterlimit:10;}
	.st12{fill:none;stroke:#D8D8D8;stroke-miterlimit:10;}
	.st13{fill:none;stroke:#EF5451;stroke-width:0.2;stroke-miterlimit:10;}
	.st14{fill:none;stroke:#EF5451;stroke-width:0.4;stroke-miterlimit:10;}
	.st15{fill:none;stroke:#EF5451;stroke-width:0.3;stroke-miterlimit:10;}
	.st16{fill:#FAFBFC;stroke:#EFEFEF;stroke-linecap:round;stroke-linejoin:round;stroke-miterlimit:10;}
	.st17{fill:none;stroke:#EFEFEF;stroke-linecap:round;stroke-linejoin:round;stroke-miterlimit:10;}
</style>
<g class="st0">
	<g class="st1">
		<g>
			<defs>
				<path id="SVGID_1_" d="M1915.2,1284H4.8c-2.2,0-4-1.8-4-4V4c0-2.2,1.8-4,4-4h1910.3c2.2,0,4,1.8,4,4v1276
					C1919.2,1282.2,1917.4,1284,1915.2,1284z"/>
			</defs>
			<clipPath id="SVGID_2_">
				<use xlink:href="#SVGID_1_"  style="overflow:visible;"/>
			</clipPath>
			<g class="st2">
				<path class="st3" d="M1717.2,1846.8c0,0,77.1-348.8-443.7-469.4c-599-138.7-575-539.7-73.6-587.1
					c504.8-47.8,686.4-227.4,264.7-568.7c-456.3-369.4,88.1-481.4-668.8-825L2354.2-49.1L1717.2,1846.8z"/>
				<path class="st4" d="M1660.9,279.6c366.6,296.8,225.9,500.3-213.1,541.9c-436,41.3-492.8,320.2-46.9,429.6
					c452,111,399.4,348.3,399.4,348.3L2354.2-49.1l-1355-482C1657.3-232.4,1264.1-41.6,1660.9,279.6z M1756.7,1136.7
					c-184.6,178.8-627.7-0.4-588.9-82.6c41.2-87,233.1,99.4,385.1-28.2C1667.1,930.2,1852.2,1044.3,1756.7,1136.7z M2059.1,220.6
					c-10.7,192.5-350.4,120.5-395.5-168.1c-32.4-207.2-202.5-281.1-149.8-319.4C1588.7-321.4,2074.3-53.9,2059.1,220.6z"/>
				<path class="st5" d="M318.2,833.6c-139.1-458.1,88.8-544,473.6-322.8c382.2,219.8,582.3,22.8,274.9-326.9
					C755-170.8,928.9-335.8,928.9-335.8L-180.2-225.9l-253.9,927l852.3,1186.2C39.7,1258,468.8,1329.5,318.2,833.6z M1041.5,523.6
					C763.9,530.3,530.2,50.6,620.3,13c95.5-39.9,119.3,256.5,334,267C1115.4,287.8,1185.1,520.2,1041.5,523.6z M-42.6,650.5
					C72.1,498,312.6,755.2,191.1,1019.4c-87.2,189.7,12.4,349.7-52.1,350.6C47.3,1371.3-206.1,868-42.6,650.5z M-15.7-129.4
					c-4.7-192.8,339.6-149.8,407.6,134c48.9,203.8,224.4,263,174.9,305.6C496.5,370.8-8.9,145.4-15.7-129.4z"/>
			</g>
		</g>
	</g>
</g>
<path class="st6" d="M277.4,611.7c-4.3-5.7-3.1-13.8,2.6-18.1s13.8-3.1,18.1,2.6c4.3,5.7,3.1,13.8-2.6,18.1
	C289.8,618.5,281.7,617.4,277.4,611.7z"/>
<path class="st6" d="M1088.5,1096.4c-10.7-14.3-7.8-34.5,6.5-45.2s34.5-7.8,45.2,6.5s7.8,34.5-6.5,45.2
	C1119.3,1113.6,1099.1,1110.7,1088.5,1096.4z"/>
<g>
	<line class="st7" x1="161.8" y1="67.5" x2="166.1" y2="96.5"/>
	<line class="st7" x1="182.5" y1="205.4" x2="186.8" y2="234.4"/>
	<line class="st7" x1="90.8" y1="163.5" x2="119.9" y2="159.1"/>
	<line class="st7" x1="228.7" y1="142.8" x2="257.8" y2="138.4"/>
	<line class="st7" x1="106.4" y1="100.8" x2="130.1" y2="118.2"/>
	<line class="st7" x1="218.6" y1="183.7" x2="242.2" y2="201.1"/>
	<line class="st7" x1="124.1" y1="218.8" x2="141.6" y2="195.2"/>
	<line class="st7" x1="207" y1="106.7" x2="224.5" y2="83.1"/>
</g>
<g>
	<line class="st7" x1="1597.4" y1="951.9" x2="1581.6" y2="982.4"/>
	<line class="st7" x1="1522.4" y1="1096.7" x2="1506.6" y2="1127.2"/>
	<line class="st7" x1="1464.3" y1="994.1" x2="1494.8" y2="1009.9"/>
	<line class="st7" x1="1609.2" y1="1069.2" x2="1639.7" y2="1085"/>
	<line class="st7" x1="1522.2" y1="945.4" x2="1532.5" y2="978.2"/>
	<line class="st7" x1="1571.5" y1="1100.9" x2="1581.8" y2="1133.7"/>
	<line class="st7" x1="1457.9" y1="1069.4" x2="1490.6" y2="1059"/>
	<line class="st7" x1="1613.4" y1="1020.1" x2="1646.1" y2="1009.7"/>
</g>
<linearGradient id="SVGID_3_" gradientUnits="userSpaceOnUse" x1="1004.3173" y1="-510.1479" x2="1038.8312" y2="-475.6341" gradientTransform="matrix(0.576 -0.8174 0.8174 0.576 162.1624 2153.24)">
	<stop  offset="1.281420e-03" style="stop-color:#FF974F"/>
	<stop  offset="1" style="stop-color:#FF5652"/>
</linearGradient>
<circle class="st8" cx="347.7" cy="1034.3" r="24.4"/>
<polygon class="st9" points="1574.4,392.2 1685.2,409.7 1614.6,496.9 "/>
<polygon class="st10" points="736.9,897.8 636.3,913.8 700.4,993 "/>
<g>
	<path class="st11" d="M325.6,893.1c0-0.4-0.1-0.7-0.3-0.9c-7.5-19.1-17-37.2-26.4-55.4c-0.4-0.7-0.9-1-1.5-1
		c-48.7-15.6-98-28.9-147.8-40.1c-1.3-0.6-3.2,0.2-3,1.8c-3.7,10-7.7,20-11.4,30c-0.3,0.8-0.1,1.5,0.4,1.9
		c8.9,16.3,17.4,32.9,26.3,49.2c0.3,0.6,0.9,0.9,1.4,1c21.3,6.6,42.8,12.5,64.4,18.1c0.5,0.5,1.3,0.7,2,0.5
		c27.2,7.1,54.5,13.9,81.6,21.3c0.1,0,0.2,0,0.3,0.1c0.8,0.2,1.6,0,2-1c3.7-8.2,8.8-15.4,11.7-24
		C325.6,894.1,325.8,893.6,325.6,893.1z M319.6,897.7c-19.5-4.6-38.8-9.5-58.2-14.6c0.5-1.6,1-3.1,1.5-4.7
		c19.4,5.2,38.7,10.5,58,16.2C320.5,895.7,320.1,896.7,319.6,897.7z M316.5,904c-18.7-6-38-9.8-56.9-15c0.5-1.5,0.9-2.9,1.4-4.4
		c19.3,5.1,38.6,10,58,14.6C318.2,900.9,317.4,902.4,316.5,904z M313.6,909.4c-18.6-4.8-37.2-9.7-55.8-14.6c0.4-1.3,0.8-2.5,1.2-3.8
		c18.8,5.1,37.9,8.9,56.5,14.8C314.9,907.1,314.2,908.2,313.6,909.4z M310.7,915c-18.2-5-36.5-9.7-54.7-14.4
		c0.4-1.4,0.9-2.8,1.3-4.2c18.5,4.9,36.9,9.8,55.5,14.6C312,912.2,311.4,913.6,310.7,915z M231.9,894.4c2.4-7.4,4.9-14.8,7.3-22.2
		c6.6,1.7,13.1,3.4,19.7,5.2c-2.3,7.4-4.6,14.8-7,22.2C245.3,897.9,238.6,896.1,231.9,894.4z M166.5,876.1c0.5-1.1,1.1-2.2,1.6-3.4
		c20.4,5.2,40.8,10.7,61.2,16.1c-0.5,1.5-1,3-1.5,4.4C207.4,888,186.8,882.4,166.5,876.1z M140.9,824c7.4,16,15.2,31.7,23.5,47.2
		c-0.3,0.6-0.6,1.1-0.8,1.7c-8.1-15-16-30.2-24.1-45.1C139.9,826.5,140.4,825.2,140.9,824z M142.6,819.3
		c8.2,15.4,16.5,30.8,24.7,46.2c-0.7,1.3-1.4,2.6-2,3.9c-8.3-15.6-16.2-31.5-23.6-47.5C142,821,142.3,820.2,142.6,819.3z
		 M146.3,809.8c7.2,16.9,15.3,33.3,24.2,49.4c0,0.1,0.1,0.1,0.1,0.2c-0.8,1.5-1.6,3-2.4,4.5c-8.3-15.5-16.6-31-24.8-46.5
		C144.4,814.8,145.3,812.3,146.3,809.8z M241.2,823c7,16.5,13.2,33.2,18.6,50.3c-6.4-1.7-12.8-3.4-19.2-5c0.3-0.9,0-1.6-0.6-2
		c-7-16.4-13.9-32.9-20.9-49.3C226.4,818.9,233.8,821,241.2,823z M295.7,839.4c8.6,16.7,17.3,33.2,24.4,50.7
		c-18.5-5.4-37-10.6-55.6-15.5c-1.3-4-2.6-8-3.9-12c7.2-2.7,11-9.4,8.1-17.2c-3.2-8.8-12-12.8-20.3-15.5c-0.7-1.8-1.5-3.6-2.2-5.3
		C262.8,829.2,279.3,834.2,295.7,839.4z M249.2,831.8c4.9,1.6,9.5,3.5,13.3,7.4c7,7.1,7.5,18.1-2.5,21.8
		C256.7,851.2,253.1,841.4,249.2,831.8z M229.9,887.3c-20.3-5.4-40.6-10.8-61-16.1c0.7-1.4,1.5-2.8,2.2-4.2
		c20.2,4.8,40.3,10,60.4,15.4C231,884.1,230.4,885.7,229.9,887.3z M232,880.9c-20-5.3-40-10.5-60.1-15.3c0.7-1.3,1.4-2.7,2.1-4.1
		c19.7,5.1,39.4,10.4,59.1,15.7C232.8,878.5,232.4,879.7,232,880.9z M233.7,875.7c-19.6-5.3-39.2-10.6-58.9-15.6
		c0.6-1.3,1.3-2.5,1.9-3.8c19.5,4.9,39,9.9,58.5,14.9C234.7,872.7,234.2,874.2,233.7,875.7z M231.6,857.1c-6-2.3-12.3-5.2-16.7-9.7
		c-7.4-7.6-4.8-16.4,3.9-20.4C223.1,837,227.4,847.1,231.6,857.1z M214.4,816.4c1.3,3,2.6,6.1,3.9,9.1c-6.6,3-11.9,9-8.9,16.8
		c3.6,9,14.4,13.7,23.1,16.9c1.1,2.6,2.2,5.2,3.3,7.8c-19.5-5.1-39.1-10-58.6-14.9c-8-17.5-18.2-33.7-25.1-51.7
		c20.8,4.7,41.5,9.8,62.1,15.3C214.2,815.9,214.3,816.1,214.4,816.4z M173.4,853.7c-0.6,1.3-1.3,2.6-1.9,3.9
		c-8.9-16-16.9-32.4-24.1-49.3c-0.1-0.2-0.2-0.3-0.4-0.4c0.6-1.6,1.2-3.1,1.8-4.7C155.7,820.7,165.5,836.6,173.4,853.7z"/>
	<path class="st11" d="M161,808.7c10.6,2.6,21.2,5.3,31.8,7.9c1,0.3,1.5-1.3,0.4-1.6c-10.6-2.6-21.2-5.3-31.8-7.9
		C160.4,806.9,160,808.4,161,808.7z"/>
	<path class="st11" d="M273.5,870.8c12.5,3.6,24.9,7.5,37.1,11.7c1,0.3,1.4-1.2,0.4-1.6c-12.3-4.2-24.7-8.1-37.1-11.7
		C272.9,868.9,272.4,870.5,273.5,870.8z"/>
	<path class="st11" d="M283.9,867.8c8,2.5,15.9,5,23.9,7.4c1,0.3,1.4-1.3,0.4-1.6c-8-2.5-15.9-5-23.9-7.4
		C283.4,865.9,282.9,867.5,283.9,867.8z"/>
	<path class="st11" d="M182.7,849.5c10.9,2,21.5,4.9,31.9,8.7c1,0.4,1.4-1.2,0.4-1.6c-10.4-3.9-21-6.8-31.9-8.7
		C182.1,847.7,181.7,849.3,182.7,849.5z"/>
	<path class="st11" d="M178.3,825.3c-3.7,3-1.5,8.3,1.7,10.8c4.8,3.7,14.7,3.8,16.3-3.4v-0.1v-0.1
		C196.8,824.6,183.7,820.9,178.3,825.3z M194.7,832.4c-1.8,7.7-14.9,5-16.5-1.6c-0.7-3,1.3-4.9,4.1-5.4
		C186.8,824.6,194.9,826.7,194.7,832.4z"/>
	<path class="st11" d="M281.7,860.6c4.8,3.7,14.7,3.8,16.3-3.4v-0.1V857c0.5-7.9-12.7-11.5-18-7.2
		C276.3,852.8,278.6,858.1,281.7,860.6z M284,849.9c4.5-0.8,12.6,1.3,12.4,7c-1.8,7.7-14.9,5-16.5-1.6
		C279.2,852.2,281.2,850.4,284,849.9z"/>
</g>
<g>
	<path class="st12" d="M1194.6,619.3c-3.2-10.1-10-20.1-14.7-29.6c-4.5-9.2-9.1-18.3-13.3-27.6c-4.3-9.5-9.3-17.8-20.8-15.3
		c-15.1,3.4-29.8,13.3-43.6,19.8c-20.4,9.7-41.3,18.5-61.6,28.3c-12.6,6.1-34.6,13.3-31.1,31.1c1.7,8.8,9,17.6,13.1,25.6
		c5.9,11.5,11.7,22.9,18.6,33.9c6.9,12.9,15.6,20,30.4,13.9c17-7,33.2-17.7,49.3-26.6c18-10,35.9-20.1,53.9-29.9
		C1185,637.1,1199,633.2,1194.6,619.3z M1175.8,635.5c-7.9,4.3-15.7,8.6-23.5,13c-16.1,8.9-32.1,17.9-48.2,26.8
		c-7.1,3.9-14.1,7.8-21.2,11.6c-4.2,2.3-8.6,5.3-13.2,6.7c-10.4,3.2-18.6-2.2-23.4-11.1c-10.2-16.1-19.6-33.7-27.8-50.9
		c-7.3-15.4,4.9-21.1,16.8-27.4c8.2-4.3,16.7-8.1,25.2-11.9c17.2-7.8,34.4-15.6,51.4-23.8c7.1-3.4,14.1-7,21.2-10.4
		c9.4-4.4,18-10.1,25.7,1.1c3.5,5,5.4,12,8.1,17.5c4.5,9.1,9,18.2,13.5,27.3c1.8,3.6,6,9.7,6.8,13.7
		C1189.7,629.9,1182.8,631.7,1175.8,635.5z"/>
	<path class="st12" d="M1105.9,596.2c0.4-0.2,0.6-0.6,0.5-1c0-0.2,0-0.3-0.1-0.5c-1.9-3.4-3.6-6.9-5.5-10.4c-0.2-0.4-0.6-0.6-1-0.5
		l0,0h-0.1c-0.1,0-0.2,0-0.3,0.1c-22.6,11.5-46,21.1-68.5,32.8c-0.5,0.3-0.6,0.8-0.5,1.2c0,0.1,0,0.2,0.1,0.3
		c1.7,3.4,3.4,6.7,5.1,10.1c0.3,0.6,0.8,0.6,1.3,0.4c0.1,0,0.1,0,0.2,0C1060.1,618.3,1083.4,608,1105.9,596.2z M1032.8,618.1
		c21.9-11.3,44.6-20.7,66.6-31.8c1.5,2.8,3,5.6,4.5,8.4c-21.8,11.4-44.4,21.5-66.9,31.6C1035.5,623.6,1034.2,620.9,1032.8,618.1z"/>
	<path class="st12" d="M1090.3,611.5c-17.4,9.1-34.9,18.1-52.3,27.2c-1.3,0.7-0.1,2.6,1.1,1.9c17.4-9.1,34.9-18.1,52.3-27.2
		C1092.7,612.7,1091.6,610.8,1090.3,611.5z"/>
	<path class="st12" d="M1094.1,619.7c-16.4,8.5-32.8,17.1-49.3,25.6c-1.3,0.7-0.1,2.6,1.1,1.9c16.4-8.5,32.8-17.1,49.3-25.6
		C1096.5,620.9,1095.4,619,1094.1,619.7z"/>
	<path class="st12" d="M1180.5,624.3c-3.1-6.2-5.9-12.5-9-18.7c-0.3-0.5-0.8-0.6-1.2-0.5c-0.1,0-0.2,0-0.3,0.1
		c-8.5,4.3-17,8.6-25.6,12.9c-0.9,0.4-0.6,1.5,0.1,1.9c0,0.2,0,0.4,0.2,0.6c3.5,5.6,7.1,11.2,10.6,16.8c0.1,0.7,0.9,1.2,1.6,0.8
		c7.7-4.2,15.5-8.1,23.2-12.3c0.5-0.3,0.6-0.8,0.5-1.2C1180.5,624.5,1180.5,624.4,1180.5,624.3z M1146.5,619.4
		c7.8-3.9,15.7-7.9,23.5-11.8c2.7,5.6,5.3,11.2,8,16.8c-7,3.8-14.2,7.5-21.2,11.3C1153.4,630.3,1150,624.8,1146.5,619.4
		L1146.5,619.4z"/>
	<path class="st12" d="M1127.1,649.3c-20,10.9-40,21.8-60.1,32.7c-1.2,0.7-0.1,2.6,1.1,1.9c20-10.9,40-21.8,60.1-32.7
		C1129.5,650.5,1128.3,648.6,1127.1,649.3z"/>
</g>
<g>
	<path class="st13" d="M1757,741.9c-16.1,2.8-32.2,5.6-48.3,8.3c-1.2,0.2-0.7,2,0.5,1.8c16.1-2.8,32.2-5.6,48.3-8.3
		C1758.6,743.5,1758.1,741.7,1757,741.9z"/>
	<path class="st13" d="M1813.3,659.3c-19.2-5.8-38.6-10.9-57.8-16.7c-10.7-3.3-33.1-14.5-42.4-3.7c-4.5,5.3-4.5,13.3-6.1,19.8
		c-2.2,9.2-4.7,18.2-6.3,27.6c-7.4,1.3-15,2.1-17.6,10c-3,8.9,2,21.3,3.3,30.3c1.4,9.5,1.6,24.2,7.9,32c4.9,6.2,12.6,5,19.5,4
		c25.3-3.9,50.4-9,75.6-13.4c12.9-2.3,26.8-4.4,22-18.9c0.7-0.4,1.3-0.9,1.9-1.6c4.5-5,5.2-16.3,6.8-22.6c2.5-9.2,5.5-18.4,7.8-27.7
		C1830.8,666.1,1824.1,662.5,1813.3,659.3z M1791.6,743.9c-6.8,1.2-13.5,2.4-20.2,3.6c-14.4,2.6-28.7,5.3-43.1,7.8
		c-3.6,0.6-7.1,1.2-10.7,1.8c-6.4,1.1-7.2,1-14.2-2.2c-8.2-3.8-7.1-2.6-8.5-9.3c-0.9-4.1-1.8-8.1-2.5-12.2c-1.4-8-2.6-16-3.7-24
		c-0.8-6.3-3.2-12.8,3.8-16.2c2.1-1,4.8-1.5,7.3-1.8c-1.6,10.8,2.5,17,14.2,20.1c0.3,0.1,0.6,0.2,1,0.2c-5.3,0.8-10.7,1.6-16,2.4
		c-1.2,0.2-0.7,1.9,0.5,1.8c6.7-1,13.3-2,20-3c4,1,8,2,12,2.9c-9.8,1.5-19.6,3-29.4,4.5c-1.2,0.2-0.7,1.9,0.5,1.8
		c11.3-1.7,22.5-3.4,33.8-5.1c12,2.6,24,5,35.9,7.5c1.1,0.2,2.2,0.5,3.3,0.7c-0.3,0.4-0.3,0.9,0,1.2c0,0.1,0,0.3,0,0.4
		c1.1,4.6,2.2,9.2,3.3,13.7c0,0.5,0.4,1.2,1.1,1.1c6.2-1.1,12.4-1.9,18.6-3c0.5-0.1,0.7-0.5,0.6-1c0-0.1,0-0.1,0-0.2
		c-0.3-2.4-0.5-4.8-0.8-7.1c0.9,0.2,1.9,0.4,2.8,0.6c1.9,0.4,3.7,0.7,5.4,0.7C1810.8,743,1799.2,742.5,1791.6,743.9z M1796.6,729.8
		c0.3,2.3,0.5,4.7,0.8,7c-5.6,1-11.2,1.8-16.8,2.7c-1.1-4.4-2.1-8.8-3.2-13.2c0.8-0.1,1.6-0.2,2.4-0.3
		C1785.3,727.3,1790.9,728.6,1796.6,729.8z M1823.2,677.1c-2.9,11.9-6.7,23.6-9.9,35.4c-1.4,5.3-1.4,7.3-6.4,10.6s-6.1,2.5-11.4,1.3
		c-6.1-1.4-12.1-2.7-18.2-4c-13.1-2.8-26.1-5.6-39.2-8.5c-5.9-1.3-11.8-2.6-17.7-4c-9.9-2.3-18.6-4.3-15.3-18.7
		c2-12.4,5.6-24.3,8.3-36.5c1.7-7.8,0.3-12.1,13.3-12.7c3.1-0.1,6.9,1.4,9.9,2.1c6.6,1.6,13,3.7,19.5,5.7c13.2,4,26.4,8,39.7,11.7
		C1805.2,662.1,1826.3,663.9,1823.2,677.1z"/>
	<path class="st13" d="M1808.1,705.9c-6.6-1.8-13.2-3.4-19.9-5.2c-0.8-0.2-1.2,0.5-1.1,1.1c-0.1,0.1-0.1,0.2-0.1,0.4
		c-0.8,4.7-1.5,9.5-2.3,14.2c-0.2,0.5-0.1,1.1,0.5,1.3c6.1,1.4,12.2,3,18.3,4.3c0.1,0,0.2,0,0.3,0l0,0h0.1c0.3,0,0.6-0.2,0.7-0.6
		c1.3-4.8,2.8-9.5,4-14.3c0.1-0.2,0-0.4,0-0.6C1808.6,706.2,1808.4,706,1808.1,705.9z M1788.7,702.7c6,1.6,12,3.1,18,4.7
		c-1.1,4.2-2.4,8.4-3.5,12.6c-5.5-1.2-11-2.7-16.6-3.9C1787.3,711.6,1788,707.2,1788.7,702.7z"/>
	<path class="st13" d="M1764.1,709.3c-15.9-3.6-31.9-7.2-47.8-10.8c-1.1-0.3-1.6,1.5-0.5,1.8c15.9,3.6,31.9,7.2,47.8,10.8
		C1764.7,711.4,1765.2,709.6,1764.1,709.3z"/>
	<path class="st13" d="M1719.8,659.1c0.1,0.2,0.3,0.4,0.6,0.5c9.8,2.3,19.1,5.9,28.9,8.2c0.1,0,0.2,0,0.3,0c0.4,0,0.7-0.2,0.8-0.6
		c0.4-2.6,1.7-5,2.2-7.6c0-0.1,0-0.1,0-0.2c0.1-0.4-0.1-0.8-0.6-0.9c-10.1-2.3-19.7-6.2-29.8-8.5c-0.2,0-0.3,0-0.5,0
		s-0.4,0.1-0.5,0.3s-0.2,0.4-0.2,0.7c-0.4,2.5-0.9,5-1.3,7.4C1719.6,658.7,1719.7,658.9,1719.8,659.1z M1722.6,651.9
		c9.4,2.2,18.5,5.8,28,8c-0.5,2-1.3,3.9-1.7,5.8c-9.2-2.3-18.1-5.6-27.3-7.8C1721.9,656,1722.3,654,1722.6,651.9z"/>
	<path class="st13" d="M1754.8,669.4c1.9,0.4,3.6,1.2,5.5,1.6c0.5,0.1,0.8-0.1,1-0.5c0-0.1,0.1-0.1,0.1-0.2v-0.1v-0.1
		c0.4-2.6,1.8-5,2.2-7.6c0.1-0.5-0.2-0.7-0.6-0.8h-0.1c-1.8-0.5-3.7-1-5.5-1.6c-0.2,0-0.3,0-0.4,0c-0.3,0-0.6,0.2-0.7,0.7
		c-0.4,2.6-1.7,5-2.2,7.6c0,0.1,0,0.1,0,0.2C1754.1,668.9,1754.3,669.3,1754.8,669.4z M1759.9,669c-1.3-0.3-2.5-0.8-3.7-1.1
		c0.5-2,1.3-3.8,1.7-5.8c1.3,0.4,2.5,0.7,3.8,1.1C1761.2,665.1,1760.3,667,1759.9,669z"/>
	<path class="st13" d="M1766.6,672.7C1766.6,672.7,1766.6,672.8,1766.6,672.7c5.4,1.5,10.6,3.1,15.9,4.6c0.1,0,0.1,0,0.2,0
		s0.2,0,0.2,0c0.1,0,0.1,0,0.2,0c0.1-0.1,0.3-0.2,0.4-0.3c0,0,0,0,0.1,0c0.1-0.2,0.1-0.3,0.2-0.4c0.7-2.5,1.4-4.9,2.1-7.4
		c0.1-0.5-0.2-1-0.6-1.1c-5.2-1.6-10.6-2.9-15.8-4.5c-0.6-0.2-1,0.2-1.1,0.7c0,0.1-0.1,0.1-0.1,0.2c-0.4,2.6-1.8,5-2.2,7.6
		C1765.9,672.4,1766.2,672.6,1766.6,672.7z M1769.7,665.4c4.7,1.4,9.4,2.6,14,4c-0.6,2-1.1,3.9-1.7,5.9c-4.7-1.3-9.4-2.7-14.1-4
		C1768.4,669.3,1769.2,667.4,1769.7,665.4z"/>
	<path class="st13" d="M1790.4,679.5c1.5,0.4,3,0.8,4.5,1.3c0.2,0,0.3,0,0.4,0c0.3,0,0.6-0.2,0.7-0.7c0.5-2.6,1.7-5,2.2-7.6
		c0-0.1,0-0.1,0-0.2c0-0.4-0.1-0.8-0.6-0.9c-1.5-0.4-3-0.9-4.5-1.3c-0.1,0-0.3,0-0.4,0c-0.4,0-0.7,0.2-0.7,0.6
		c-0.4,2.6-1.8,5-2.2,7.6c0,0.1,0,0.1,0,0.2C1789.8,679,1789.9,679.4,1790.4,679.5z M1793.5,672.2c0.9,0.3,1.8,0.5,2.7,0.8
		c-0.5,2-1.3,3.9-1.7,5.8c-0.9-0.3-1.8-0.5-2.7-0.8C1792.2,676,1793.1,674.2,1793.5,672.2z"/>
	<path class="st13" d="M1797,687.1c-25.6-7.3-51.2-14.6-76.8-21.9c-1.1-0.3-1.6,1.4-0.5,1.8c25.6,7.3,51.2,14.6,76.8,21.9
		C1797.7,689.2,1798.2,687.4,1797,687.1z"/>
	<path class="st13" d="M1764.5,684.5c-15.4-4.4-30.7-8.8-46.1-13.1c-1.1-0.3-1.6,1.4-0.5,1.8c15.4,4.4,30.7,8.8,46.1,13.1
		C1765.2,686.5,1765.7,684.8,1764.5,684.5z"/>
</g>
<g id="XMLID_4018_">
	<path id="XMLID_4019_" class="st14" d="M1297.4,366.4c26,0,47.1-21.1,47.1-47.1c0-12.3-4.7-23.5-12.5-31.9l8.9-8.9
		c0.3,0.4,0.8,0.8,1.4,0.8l18.6,2c0.1,0,0.1,0,0.2,0c1,0,1.9-0.7,2-1.8c0.1-1.1-0.7-2.1-1.7-2.2l-17.4-1.9l5.1-5.1
		c0.1,0,0.2,0,0.3,0.1l18.6,2c0.1,0,0.1,0,0.2,0c1,0,1.9-0.7,2-1.8c0.1-1.1-0.7-2.1-1.8-2.2l-15.7-1.7l9.5-9.5c0.8-0.8,0.8-2,0-2.8
		s-2-0.8-2.8,0l-9.8,9.8l-5.2-13.3c-0.4-1-1.5-1.5-2.6-1.1c-1,0.4-1.5,1.5-1.1,2.6l5.7,14.8c0,0.1,0.1,0.1,0.1,0.1l-4.2,4.2
		l-5.2-13.8c-0.4-1-1.5-1.5-2.5-1.2c-1,0.4-1.5,1.5-1.2,2.5l5.7,15.2c0,0.1,0.1,0.1,0.1,0.2l-10,10c-8.4-7.7-19.6-12.5-31.9-12.5
		c-26,0-47.1,21.1-47.1,47.1C1250.3,345.2,1271.4,366.4,1297.4,366.4z M1297.4,276.1c11.2,0,21.4,4.3,29.1,11.3l-9.3,9.3
		c-5.3-4.6-12.2-7.4-19.8-7.4c-16.5,0-30,13.5-30,30s13.5,30,30,30s30-13.5,30-30c0-7.6-2.8-14.5-7.4-19.8l9.3-9.3
		c7,7.7,11.3,17.9,11.3,29.1c0,23.8-19.4,43.2-43.2,43.2c-23.8,0-43.2-19.4-43.2-43.2C1254.2,295.4,1273.6,276.1,1297.4,276.1z
		 M1296,320.7c0.4,0.4,0.9,0.6,1.4,0.6s1-0.2,1.4-0.6l6.1-6.1c0.9,1.4,1.4,3,1.4,4.7c0,4.9-4,8.8-8.8,8.8c-4.9,0-8.8-4-8.8-8.8
		c0-4.9,4-8.8,8.8-8.8c1.7,0,3.3,0.5,4.7,1.4l-6.1,6.1C1295.2,318.6,1295.2,319.9,1296,320.7z M1304.9,308.9
		c-2.1-1.5-4.7-2.5-7.5-2.5c-7.1,0-12.8,5.7-12.8,12.8c0,7.1,5.7,12.8,12.8,12.8c7.1,0,12.8-5.7,12.8-12.8c0-2.8-0.9-5.4-2.5-7.5
		l9.4-9.4c3.9,4.6,6.3,10.5,6.3,17c0,14.4-11.7,26-26,26c-14.4,0-26-11.7-26-26c0-14.4,11.7-26,26-26c6.5,0,12.4,2.4,17,6.3
		L1304.9,308.9z"/>
</g>
<g id="XMLID_4002_">
	<path id="XMLID_4009_" class="st15" d="M743,272.5c-16.2,0-29.4,13.2-29.4,29.4c0,16.2,13.2,29.4,29.4,29.4
		c12.8,0,23.8-8.3,27.8-19.7c2,0.1,3.8,0.1,5.3,0.1c9,0,30-1,30-9.8v-0.1c0,0,0,0,0-0.1v-11.3v-0.5c0.1-0.3,0.1-0.5,0.1-0.8
		s0-0.5-0.1-0.8v-9.7c0.1-0.3,0.1-0.5,0.1-0.8s0-0.5-0.1-0.8v-10.8c0.1-0.3,0.1-0.5,0.1-0.8c0-0.5-0.1-0.9-0.2-1.3
		c0.1-0.4,0.2-0.8,0.2-1.2v-0.1c0,0,0,0,0-0.1v-11.8c0.1-0.3,0.1-0.5,0.1-0.8s0-0.5-0.1-0.8v-10.8c0.1-0.3,0.1-0.5,0.1-0.8
		c0-0.5-0.1-0.9-0.3-1.4c-0.3-0.9-0.8-1.7-1.6-2.1c-6.1-5.2-25.7-5.4-28.3-5.4s-22.1,0.2-28.3,5.4c-0.8,0.5-1.3,1.2-1.6,2.1
		c-0.2,0.4-0.3,0.9-0.3,1.4c0,0.3,0,0.5,0.1,0.8v10.8c-0.1,0.2-0.1,0.5-0.1,0.8s0,0.5,0.1,0.8v11.8v0.1c0,0,0,0,0,0.1
		c0,0.4,0.1,0.8,0.2,1.2c-0.1,0.4-0.2,0.9-0.2,1.3c0,0.3,0,0.5,0.1,0.8v6.4C745,272.5,744,272.5,743,272.5z M802.7,301.7
		c0,0.1,0,0.1,0,0.2v0.1c-0.2,3.3-12,6-26.6,6c-1.4,0-2.9,0-4.2-0.1c0.4-1.9,0.6-3.9,0.6-6c0-0.5,0-1,0-1.5c1.4,0,2.6,0.1,3.7,0.1
		c6.8,0,20.3-0.5,26.6-4.5L802.7,301.7L802.7,301.7z M802.7,290.4c0,0.1,0,0.1,0,0.2v0.1c-0.2,3.3-12,6-26.6,6c-1.4,0-2.8,0-4.1-0.1
		c-0.6-3.1-1.6-6.1-3.1-8.8c2.8,0.2,5.3,0.2,7.2,0.2c6.8,0,20.3-0.5,26.6-4.5L802.7,290.4L802.7,290.4z M802.7,262.6
		c0,0.1,0,0.1,0,0.2v0.1c-0.2,3.3-12,6-26.6,6s-26.4-2.7-26.6-6c0-0.1,0-0.1,0-0.2v-0.1v-6.9c6.3,4,19.8,4.5,26.6,4.5
		s20.3-0.5,26.6-4.5V262.6z M776.1,233.2c15.1,0,24.5,2.8,26,4.6c-1.6,1.7-10.9,4.6-26,4.6s-24.5-2.8-26-4.6
		C751.6,236,761,233.2,776.1,233.2z M776.1,246.6c2.4,0,19.2-0.2,26.6-4.3v7.9c0,0.1,0,0.1,0,0.2v0.1c-0.2,3.3-12,6-26.6,6
		s-26.4-2.7-26.6-6c0-0.1,0-0.1,0-0.2v-0.1v-7.9C756.9,246.5,773.7,246.6,776.1,246.6z M776.1,274.3c2.4,0,19.2-0.2,26.6-4.3v7.9
		c0,0.1,0,0.1,0,0.2v0.1c-0.2,3.3-12,6-26.6,6c-3.5,0-6.8-0.2-9.9-0.4c-4.1-5.3-10-9.1-16.7-10.6v-3.1
		C756.9,274.2,773.7,274.3,776.1,274.3z M768.7,301.9c0,14.1-11.5,25.6-25.6,25.6s-25.6-11.5-25.6-25.6s11.5-25.6,25.6-25.6
		S768.7,287.8,768.7,301.9z"/>
	<path id="XMLID_4006_" class="st15" d="M723.2,301.9c0,10.9,8.9,19.8,19.8,19.8c10.9,0,19.8-8.9,19.8-19.8s-8.9-19.8-19.8-19.8
		C732.1,282.1,723.2,291,723.2,301.9z M760.3,301.9c0,9.5-7.8,17.3-17.3,17.3s-17.3-7.8-17.3-17.3s7.8-17.3,17.3-17.3
		C752.6,284.6,760.3,292.4,760.3,301.9z"/>
	<path id="XMLID_4003_" class="st15" d="M740.6,289.4v2.1c-1,0.4-1.9,1-2.6,1.7c-1.1,1.2-1.7,2.7-1.7,4.4c0,0.9,0.2,1.7,0.5,2.5
		c0.4,1,1.2,1.9,2.3,2.7c0.8,0.6,1.8,1.1,3.2,1.6c1.1,0.4,1.6,0.8,1.8,1c0.1,0.1,0.2,0.2,0.2,0.3c0,0.1,0.1,0.2,0.1,0.3
		c0,0.2-0.1,0.4-0.2,0.5c-0.3,0.2-0.7,0.3-1.2,0.3c-1.2,0.1-2.4-0.5-3.1-0.9l-0.7-0.5c-0.3-0.2-0.7-0.3-1.1-0.1
		c-0.4,0.1-0.7,0.4-0.8,0.8l-1.2,3.3c-0.2,0.5,0,1.1,0.5,1.4l0.4,0.3c0.7,0.5,1.5,0.9,2.5,1.2c0.3,0.1,0.7,0.2,1.1,0.3v1.9
		c0,0.7,0.6,1.3,1.3,1.3h3.2c0.7,0,1.3-0.6,1.3-1.3v-2.2c1.2-0.4,2.2-1.1,2.9-2c1.1-1.2,1.6-2.8,1.6-4.4c0-0.9-0.1-1.7-0.4-2.4
		c-0.4-1.1-1.1-2.1-2.1-2.9c-0.8-0.7-1.8-1.2-3.2-1.8c0,0-0.1,0-0.1-0.1c-1.3-0.6-1.9-0.9-2.1-1.1c-0.1-0.1-0.1-0.1-0.2-0.2
		c0,0,0-0.1,0-0.2s0-0.2,0.1-0.3c0.2-0.2,0.5-0.3,1-0.3c0.6,0,1.1,0.1,1.7,0.3c0.4,0.1,0.7,0.3,1,0.5l0.7,0.4c0.3,0.2,0.7,0.2,1,0.1
		s0.6-0.4,0.8-0.7l1.2-3.2c0.2-0.6,0-1.2-0.5-1.5l-0.5-0.3c-0.8-0.5-1.8-0.8-2.8-1.1v-1.8c0-0.7-0.6-1.3-1.3-1.3H742
		C741.2,288.1,740.6,288.7,740.6,289.4z M743.1,292.4v-1.8h0.7v1.6c0,0.6,0.5,1.2,1.1,1.3c0.9,0.1,1.7,0.3,2.5,0.7l-0.3,0.9
		c-0.3-0.1-0.5-0.2-0.9-0.4c-0.8-0.3-1.6-0.4-2.5-0.4c-1.2,0-2.1,0.3-2.7,1c-0.6,0.5-0.9,1.3-0.9,2.1c0,0.5,0.1,0.9,0.3,1.2
		c0.2,0.4,0.4,0.7,0.8,1c0.6,0.5,1.5,1,2.9,1.6l0,0c1.1,0.5,2,0.9,2.6,1.4s1.1,1.1,1.3,1.8c0.2,0.5,0.2,1,0.2,1.6c0,1-0.4,2-1,2.8
		l0,0c-0.6,0.7-1.5,1.2-2.6,1.5c-0.6,0.1-1,0.6-1,1.2v1.9h-0.7v-1.7c0-0.7-0.5-1.2-1.1-1.3c-0.6-0.1-1.2-0.2-1.7-0.3
		c-0.5-0.2-1-0.4-1.4-0.6l0.3-0.9c1.2,0.6,2.5,1,3.8,1c1.2,0,2.1-0.3,2.9-0.9c0.7-0.6,1.1-1.5,1.1-2.5c0-0.5-0.1-0.9-0.3-1.3
		s-0.4-0.7-0.7-1.1c-0.6-0.6-1.4-1.1-2.6-1.6c-1.2-0.5-2-0.9-2.7-1.4s-1.2-1-1.4-1.7c-0.2-0.4-0.3-0.9-0.3-1.5c0-1,0.4-2,1-2.7
		c0.6-0.6,1.4-1.1,2.4-1.3C742.7,293.5,743.1,293,743.1,292.4z"/>
</g>
<g>
	<g>
		<path class="st16" d="M632.4,1097.2v14.3c0,6.8,5.5,12.3,12.3,12.3h23.7l18.4,13.4l-1-13.4c6.8,0,12.3-5.5,12.3-12.3v-14.3
			c0-6.8-5.5-12.3-12.3-12.3h-41.2C637.9,1085,632.4,1090.5,632.4,1097.2z"/>
		<line class="st17" x1="678.5" y1="1095.6" x2="645.6" y2="1095.6"/>
		<line class="st17" x1="686.8" y1="1112.5" x2="663.3" y2="1112.5"/>
		<line class="st17" x1="686.8" y1="1104.1" x2="670.3" y2="1104.1"/>
		<line class="st17" x1="657.1" y1="1104.1" x2="646.7" y2="1104.1"/>
	</g>
	<g>
		<path class="st16" d="M653.9,1115v16.9c0,8-6.5,14.5-14.5,14.5h-28l-21.8,15.9l1.1-15.9c-8,0-14.5-6.5-14.5-14.5V1115
			c0-8,6.5-14.5,14.5-14.5h48.7C647.4,1100.5,653.9,1107,653.9,1115z"/>
		<line class="st17" x1="599.4" y1="1113" x2="638.3" y2="1113"/>
		<line class="st17" x1="589.6" y1="1133.1" x2="617.4" y2="1133.1"/>
		<line class="st17" x1="589.6" y1="1123" x2="609.2" y2="1123"/>
		<line class="st17" x1="624.6" y1="1123" x2="637" y2="1123"/>
	</g>
</g>
</svg>
