<?xml version="1.0" encoding="utf-8"?>
<!-- Generator: Adobe Illustrator 24.0.1, SVG Export Plug-In . SVG Version: 6.00 Build 0)  -->
<svg version="1.1" id="Layer_1" xmlns="http://www.w3.org/2000/svg" xmlns:xlink="http://www.w3.org/1999/xlink" x="0px" y="0px"
	 viewBox="0 0 700 332.4" style="enable-background:new 0 0 700 332.4;" xml:space="preserve">
<style type="text/css">
	.st0{opacity:3.000000e-02;clip-path:url(#SVGID_2_);}
	.st1{fill:#8A8A8A;}
	.st2{fill:#B5B5B5;}
	.st3{fill:#868686;}
	.st4{opacity:0.1;clip-path:url(#SVGID_2_);}
	.st5{fill:#B3B3B3;}
	.st6{opacity:0.18;clip-path:url(#SVGID_2_);}
	.st7{fill:#777A9D;fill-opacity:0.5725;}
	.st8{clip-path:url(#SVGID_2_);fill:#68E1FD;}
	.st9{clip-path:url(#SVGID_2_);fill:#FFFFFF;}
	.st10{clip-path:url(#SVGID_2_);fill:none;}
	.st11{clip-path:url(#SVGID_2_);fill:#FFFFFF;filter:url(#Adobe_OpacityMaskFilter);}
	.st12{clip-path:url(#SVGID_2_);}
	
		.st13{clip-path:url(#SVGID_2_);mask:url(#_mask_9LBNRVdeepIB6rz7DzDkBrmaPYJcJjvO_1_);fill:none;stroke:#FFFFFF;stroke-width:6.6;stroke-miterlimit:10;}
	.st14{fill:#9798A4;}
	.st15{opacity:0.51;clip-path:url(#SVGID_2_);}
	.st16{fill:#FFFFFF;}
	.st17{clip-path:url(#SVGID_2_);fill:#1E2120;}
	.st18{clip-path:url(#SVGID_2_);fill:#BD897E;}
	.st19{clip-path:url(#SVGID_2_);fill:#777677;}
	.st20{clip-path:url(#SVGID_2_);fill:#AEAEAF;}
</style>
<g>
	<defs>
		<rect id="SVGID_1_" width="700" height="332.4"/>
	</defs>
	<clipPath id="SVGID_2_">
		<use xlink:href="#SVGID_1_"  style="overflow:visible;"/>
	</clipPath>
	<g class="st0">
		<path class="st1" d="M670,260.2c-0.7-3.1-1.3-6.2-1.8-9.2c-4.9-32.4,7-67.1-7.5-97.3c-8.6-18-25.5-31.8-42.1-44.8
			c-46.2-36.3-94.3-71.8-150.5-95c-5.3-2.4-10.9-4.2-16.6-5.4c-8.1-1.5-16.5-1-24.7-0.5c-20,1.3-40.5,2.7-59.1,9.3
			C349.1,24,333.2,35.6,320,48.7c-29.4,29.3-47.1,66.2-50.4,105c-1.6,19-13.9,27.6-24.8,43c-16.4,23-27.4,49.6-19,75.1
			c8.9,26.9,38.6,45.8,70,51.6c31.4,5.8,64.2,0.3,94.6-8.5c19.9-5.8,40-13.1,60.9-12.1c19.5,0.9,37.4,8.8,55.6,14.8
			c32.4,10.5,66.9,14.8,101.4,12.8c13.7-0.8,27.8-2.8,39.5-9.2c12.5-6.9,20.5-18.4,24.1-30.7C674.8,280.7,672.3,270.3,670,260.2z"/>
	</g>
	<g class="st0">
		<path class="st2" d="M181.6,120.5c-12.6,9.1-28.9,19.1-27,32.7c0.8,5.8,5,11,6.5,16.7c8.4,32.2-66.7,48.8-58.5,81.1
			c3.5,13.6,22,21.7,39.3,21.9s33.5-5.8,49.4-11.1c14.4-4.9,35.6-7.4,41.7,4.2c3.9,7.4-1.7,15.5-5.9,22.9c-4.2,7.4-6,17.6,2.3,22
			c6,3.1,13.8,1.4,20.5-0.8c36.9-11.8,76-32.3,113.1-20.8c22.6,7,37.6,24.5,59.1,33.5c21.8,9.1,47.6,8.4,72.1,7.5l89.9-3.3
			c9.7-0.4,19.8-0.8,28.5-4.4c13.5-5.6,20.7-17.7,27-28.9l38-68.5c1.4-2,2-4.2,1.7-6.5c-1.5-5.7-11.4-5.7-18.2-7.8
			c-13.5-4.3-14.9-19.4-10.8-30.7c4.1-11.2,11.4-22.8,7.2-34c-10.8-28.8-77-17.2-91.5-45c-2.4-4.7-2.9-9.8-5.3-14.5
			c-7.6-15.1-31.6-20-51.7-18.2c-20.1,1.8-39.7,8.1-59.8,7.1c-27.8-1.4-51.4-16.3-72.2-31.1c-20.8-14.9-42.3-31-69.4-35.8
			c-15-2.7-32.7-0.5-45.5,6.5C243.7,25.2,248.4,34.4,243,49C233.8,73.3,205.6,103.3,181.6,120.5z"/>
	</g>
	<g class="st0">
		<path class="st3" d="M223.5,140.2l13.1-43.6c11.4-37.8,51.3-59.2,89-47.8L569.1,122c37.8,11.4,59.2,51.3,47.8,89l-13.1,43.6
			c-11.4,37.8-51.3,59.2-89,47.8l-243.4-73.3C233.6,217.8,212.2,177.9,223.5,140.2z"/>
	</g>
	<g class="st4">
		<path class="st5" d="M671.8,38.7H379.7c-4.1,0-7.4,3.3-7.4,7.4v181.7c0,4.1,3.3,7.4,7.4,7.4h292.1c4.1,0,7.4-3.3,7.4-7.4V46.1
			C679.2,42,675.9,38.7,671.8,38.7z"/>
	</g>
	<g class="st6">
		<path class="st7" d="M487.5,38.7h78.1c-2.9-2.2-6.1-4.1-9.5-5.6c-6.2-2.7-12.9-3.9-19.6-4.4C519.6,27.5,502.7,31.2,487.5,38.7z"/>
	</g>
	<path class="st8" d="M559,210.5c-0.8,1-1.7,1.9-2.7,2.6c-1.5,0.8-3.2,1.3-5,1.5l-26.4,4c-0.3,0-0.5,0.1-0.7,0.2
		c-0.3,0.3-0.4,0.8-0.4,1.2c-0.1,5,0.5,9.9,2,14.6c0.1,0.4,0.3,0.7,0.5,1c0.4,0.2,0.8,0.4,1.2,0.4c8.9,0.8,17.8,0.5,26.8,0.3
		c1.5,0,3-0.1,4.5-0.5c2.5-0.7,4.5-2.4,6.4-4.1c4-3.7,20.3-18.8,21.3-20.8c1.3-2.9,2.4-5.9,3.1-9c0.8-3-5.2-3.4-5.1-6.5
		c0.1-2.1-0.2-4.3-0.8-6.3c-0.4-1.8-1.4-3.5-2.7-4.9c-0.9-0.8,0.5-6.4-0.8-6.5c-1.5,5-8.1,14.9-10.9,19.2
		C566.1,201.6,562.6,206.1,559,210.5L559,210.5z"/>
	<path class="st9" d="M637.8,211.6h-21.5v17.6c0,3.4,2.8,6.2,6.2,6.2h9c3.4,0,6.2-2.8,6.2-6.2V211.6z"/>
	<path class="st10" d="M617.8,215.9h-6.5c-2.9,0-5.2,2.3-5.2,5.2v2.1c0,2.9,2.3,5.2,5.2,5.2h6.5V215.9z"/>
	<defs>
		<filter id="Adobe_OpacityMaskFilter" filterUnits="userSpaceOnUse" x="602.8" y="212.6" width="18.3" height="19.1">
			<feColorMatrix  type="matrix" values="1 0 0 0 0  0 1 0 0 0  0 0 1 0 0  0 0 0 1 0"/>
		</filter>
	</defs>
	<mask maskUnits="userSpaceOnUse" x="602.8" y="212.6" width="18.3" height="19.1" id="_mask_9LBNRVdeepIB6rz7DzDkBrmaPYJcJjvO_1_">
		<rect x="-1400" y="-664.8" class="st11" width="2800" height="1329.6"/>
		<path class="st12" d="M617.8,215.9h-6.5c-2.9,0-5.2,2.3-5.2,5.2v2.1c0,2.9,2.3,5.2,5.2,5.2h6.5V215.9z"/>
	</mask>
	<path vector-effect="non-scaling-stroke" class="st13" d="M617.8,215.9h-6.5c-2.9,0-5.2,2.3-5.2,5.2v2.1c0,2.9,2.3,5.2,5.2,5.2h6.5
		V215.9z"/>
	<g class="st6">
		<path class="st14" d="M372.3,46.1v36.3h306.9V46.1c0-4.1-3.3-7.4-7.4-7.5H379.7C375.6,38.7,372.3,42,372.3,46.1z"/>
	</g>
	<path class="st8" d="M440.3,234.9h106.4c3,0,5.4-2.4,5.4-5.4l0,0c0-3-2.4-5.4-5.4-5.4H440.3c-3,0-5.4,2.4-5.4,5.4l0,0
		C434.9,232.5,437.4,234.9,440.3,234.9z"/>
	<g class="st15">
		<rect x="417.9" y="156.6" class="st16" width="114.8" height="6.5"/>
	</g>
	<rect x="451.1" y="145.5" class="st9" width="81.6" height="6.5"/>
	<rect x="385.3" y="145.5" class="st9" width="54.7" height="6.5"/>
	<rect x="385.5" y="104.6" class="st9" width="84" height="5.7"/>
	<g class="st15">
		<rect x="397.2" y="114.8" class="st16" width="89.9" height="5.7"/>
	</g>
	<rect x="475.9" y="104.6" class="st9" width="55.3" height="5.7"/>
	<rect x="385.5" y="124.7" class="st9" width="121.5" height="5.7"/>
	<g class="st15">
		<rect x="513.3" y="124.7" class="st16" width="17.8" height="5.7"/>
	</g>
	<g class="st15">
		<rect x="385.5" y="134.9" class="st16" width="80.2" height="5.7"/>
	</g>
	<rect x="475.9" y="134.9" class="st9" width="55.3" height="5.7"/>
	<rect x="495.6" y="114.6" class="st9" width="35.5" height="5.7"/>
	<rect x="416.2" y="85.3" class="st9" width="84" height="5.7"/>
	<g class="st15">
		<rect x="427.9" y="95.5" class="st16" width="89.9" height="5.7"/>
	</g>
	<rect x="506.6" y="85.3" class="st9" width="55.3" height="5.7"/>
	<rect x="416.9" y="73.4" class="st9" width="84" height="5.7"/>
	<rect x="507.4" y="62.6" class="st9" width="55.3" height="5.7"/>
	<rect x="507.4" y="52.8" class="st9" width="55.3" height="5.7"/>
	<path class="st17" d="M520.5,180.5c-1,1.4-2.2,2.5-3.6,3.5c-2.1,1.1-4.3,1.8-6.7,2l-35.5,5.3c-0.4,0-0.7,0.1-1,0.3
		c-0.4,0.4-0.6,1-0.5,1.6c-0.2,6.6,0.7,13.3,2.7,19.6c0.1,0.5,0.4,1,0.7,1.4c0.5,0.3,1,0.5,1.6,0.5c11.9,1,23.9,0.7,35.9,0.4
		c2,0,4-0.2,6-0.7c3.3-0.9,6.1-3.2,8.6-5.6c5.4-5,27.2-25.2,28.5-27.9c1.8-3.9,3.2-8,4.2-12.1c1.1-4-7-4.5-6.8-8.7
		c0.1-2.9-0.2-5.7-1-8.5c-0.6-2.5-1.8-4.7-3.6-6.6c-1.2-1.1,0.7-8.6-1-8.7c-2,6.7-10.8,20-14.6,25.7
		C530,168.5,525.4,174.7,520.5,180.5L520.5,180.5z"/>
	<path class="st17" d="M610.2,124.3c2.4,2.1,4.6,4.4,6.7,6.9c4.9,6,8.2,13.2,11.2,20.4c8.1,19,15.2,39.4,13.1,60
		c0,1.2-0.4,2.5-1,3.5c-1,1.2-2.3,2.1-3.8,2.5c-3.9,1.2-8.1,1.3-12.2,1.3c-16,0.1-32,0.3-48-0.5c-2.5-0.1-5.1-0.3-7.2-1.7
		c-1.5-1.1-2.7-2.6-3.5-4.4c-4.3-8.1-5.6-17.4-8.9-26c-4.4-11.1-16.7-21.2-14.1-32.9C553.5,103.7,605.2,119.7,610.2,124.3z"/>
	<path class="st18" d="M537.9,83.1c1.9,9.1,3.8,18.5,8.9,26.3c1.8,3.2,4.5,5.8,7.7,7.6c3.3,1.6,7.4,1.9,10.4-0.1
		c1.5-1,3.2-2.5,4.8-1.8c1.2,0.5,1.6,2,1.8,3.3c0.4,3.2,0.4,6.4-0.1,9.6c-0.2,0.9-0.3,1.8-0.2,2.7c0.4,1.7,1.9,3,3.6,3.3
		c1.7,0.3,3.5,0,5-0.8c4.9-2.2,8.4-6.7,9.4-12c0.2-1.8,0.3-3.5,0.3-5.3c0.2-7.9,1.5-15.8,1.2-23.7c-0.3-7.9-2.2-16.1-7.6-22
		c-3.1-3.2-6.8-5.7-10.8-7.5c-6.1-2.9-12.8-4.9-19.4-3.9c-5.3,0.8-10,4-12.9,8.6C536.6,72.8,536.6,76.7,537.9,83.1z"/>
	<path class="st17" d="M521.3,63c-0.9-7.6,2.9-15,9.7-18.5c2.9-1.5,6.2-2.1,9.4-2.9c7.4-2,14.6-5.3,22.2-6c7.6-0.7,16.4,2,19.8,8.9
		c0.6,1.3,1.2,2.8,2.6,3.1c0.7,0.1,1.5,0,2.2-0.2c5.1-0.9,9.7,3.5,12,8.1c3.7,7.5,3.9,16.2,3.1,24.6c-0.7,7.7-2.7,16-8.9,20.7
		c-0.6,0.5-1.5,0.9-2.1,0.4c-0.3-0.3-0.4-0.6-0.5-1c-0.6-2.9-0.9-5.9-0.7-8.9c0.1-2.2,0.5-4.6-0.1-6.8c-0.6-2.2-2.4-4.3-4.7-4.2
		c-2.1,0-3.8,2-4.3,4c-0.4,2.1-0.3,4.2,0.2,6.3c-0.3,0.8-1.5-0.2-1.7-1c-1.5-7-1.9-14.8-6.7-20c-1,1-1.7,2.3-2.1,3.6
		c-1.5-1.5-3.7-2.1-5.7-1.4c-1.4,0.6-2.7,1.5-3.8,2.5C549.5,83.3,523.8,80.6,521.3,63z"/>
	<path class="st17" d="M606.8,135.6c3.7,2.7,5.6,7.5,5.7,12.1c0.1,4.6-4.8,33.8-9.3,42.1c-3.6,6.4-11,23.3-22.2,27.9
		c-3.3,1.4-52.6,0.8-75.5-1.7c0.1-5.4,0.4-10.8,0.8-16.2c0-0.7,0.2-1.4,0.6-2c0.6-0.6,1.4-4.5,2.2-4.5c13.3,0.1,26.8,4.1,40.1,4.4
		c1.9,0.1,3.9,0,5.8-0.3c1.6-0.4,3.1-1,4.4-1.8c10.3-5.8,16-17.3,20-28.4c3.1-8.6,5.6-17.5,10-25.5c1.6-2.9,3-5.6,6.1-6.9
		C599.2,133.3,603.4,133.2,606.8,135.6z"/>
	<path class="st18" d="M507.4,192.2c-6.9-0.7-14.6,0.9-19,6.3c-0.5,0.5-0.8,1.1-0.9,1.8c0,0.6,0.2,1.2,0.5,1.7
		c2.6,4.3,8.2,5.3,12.9,7c2.5,0.9,4.8,2,7,3.5c1.2,1,2.7,1.7,4.2,2.1c3.3,0.5,6.1-2.5,7.6-5.5c1.7-3.3,4.4-10.2,1.1-13.3
		C518.2,193.2,510.8,192.5,507.4,192.2z"/>
	<path class="st18" d="M450.1,190.5c-1.2,0.7-2.3,1.7-3.1,2.8c-0.8,1.2-0.9,2.7-0.3,4c0.5,0.8,1.2,1.4,2.1,1.9
		c6.1,3.7,13.7,4.3,19.9,7.8c1.3,0.9,2.7,1.6,4.3,1.9c1.8,0,3.6-0.8,4.8-2.2c1.1-1.4,2-3,2.6-4.7
		C487.6,182.8,460.6,183.8,450.1,190.5z"/>
	<path class="st9" d="M665.7,213.4H275.7c-3.4,0-6.2,2.8-6.2,6.2l0,0c0,3.4,2.8,6.2,6.2,6.2h389.9c3.4,0,6.2-2.8,6.2-6.2l0,0
		C671.8,216.2,669.1,213.4,665.7,213.4z"/>
	<rect x="347.4" y="226" class="st19" width="219" height="76.4"/>
	<path class="st19" d="M361.4,213.2h142.7c4,0,7.2-3.2,7.2-7.2l0,0c0-4-3.2-7.2-7.2-7.2H361.4c-4,0-7.2,3.2-7.2,7.2l0,0
		C354.2,210,357.4,213.2,361.4,213.2z"/>
	<path class="st9" d="M454.6,213.3H345.1L316.2,140c-0.8-2-0.5-4.2,0.7-6c1.2-1.8,3.2-2.8,5.3-2.8h85.9c8.5,0,16.1,5.2,19.3,13.1
		L454.6,213.3z"/>
	<path class="st20" d="M449.1,213.3h-104l-27.4-69.6c-0.7-1.9-0.5-4,0.6-5.7c1.1-1.7,3-2.7,5.1-2.7h81.6c8.1,0,15.4,4.9,18.3,12.5
		L449.1,213.3z"/>
	<rect x="566.4" y="226" class="st20" width="86.5" height="76.4"/>
</g>
</svg>
