<?xml version="1.0" encoding="UTF-8" standalone="no"?><!-- Generator: Gravit.io --><svg xmlns="http://www.w3.org/2000/svg" xmlns:xlink="http://www.w3.org/1999/xlink" style="isolation:isolate" viewBox="0 0 700 332.41" width="700pt" height="332.41pt"><defs><clipPath id="_clipPath_SnR8y72xua3K6L4fsuTWDVaxottT3Egl"><rect width="700" height="332.41"/></clipPath></defs><g clip-path="url(#_clipPath_SnR8y72xua3K6L4fsuTWDVaxottT3Egl)"><g opacity="0.13"><path d=" M 670.037 260.23 C 669.357 257.138 668.705 254.069 668.252 251.059 C 663.402 218.616 675.22 183.952 660.724 153.776 C 652.091 135.805 635.197 121.995 618.61 108.941 C 572.459 72.627 524.269 37.162 468.125 13.937 C 462.842 11.586 457.268 9.769 451.511 8.52 C 443.438 6.997 435.057 7.52 426.824 8.055 C 406.839 9.345 386.335 10.717 367.709 17.355 C 349.084 23.992 333.216 35.57 319.973 48.74 C 290.563 78.046 272.865 114.897 269.545 153.741 C 267.933 172.77 255.689 181.325 244.724 196.692 C 228.296 219.72 217.305 246.304 225.738 271.785 C 234.665 298.671 264.375 317.584 295.751 323.361 C 327.127 329.138 359.942 323.663 390.345 314.84 C 410.25 309.028 430.314 301.775 451.272 302.751 C 470.723 303.646 488.67 311.586 506.922 317.526 C 539.304 327.988 573.859 332.346 608.311 330.312 C 622.047 329.487 636.156 327.499 647.787 321.071 C 660.258 314.178 668.265 302.647 671.889 290.348 C 674.82 280.654 672.262 270.285 670.037 260.23 Z " fill="rgb(138,138,138)"/></g><g opacity="0.15"><path d=" M 181.601 120.538 C 168.951 129.658 152.676 139.647 154.605 153.235 C 155.395 159.036 159.599 164.186 161.103 169.909 C 169.51 202.157 94.365 218.692 102.637 250.97 C 106.108 264.542 124.658 272.685 141.897 272.887 C 159.136 273.089 175.411 267.117 191.319 261.766 C 205.743 256.911 226.877 254.413 232.99 265.985 C 236.846 273.399 231.254 281.496 227.05 288.879 C 222.847 296.262 221.053 306.499 229.364 310.858 C 235.323 313.96 243.21 312.223 249.824 310.098 C 286.77 298.279 325.817 277.789 362.898 289.344 C 385.459 296.371 400.5 313.883 421.981 322.817 C 443.752 331.891 469.571 331.209 494.08 330.293 L 583.938 326.974 C 593.676 326.617 603.761 326.183 612.438 322.584 C 625.936 316.954 633.167 304.902 639.434 293.672 L 677.422 225.175 C 678.814 223.209 679.42 220.945 679.157 218.692 C 677.691 212.968 667.722 213.015 660.973 210.858 C 647.475 206.546 646.106 191.408 650.194 180.193 C 654.282 168.979 661.61 157.392 657.387 146.209 C 646.55 117.389 580.429 129.007 565.87 101.227 C 563.44 96.573 562.958 91.377 560.606 86.693 C 553.028 71.616 529.02 66.73 508.908 68.514 C 488.796 70.298 469.243 76.611 449.131 75.587 C 421.364 74.191 397.781 59.316 376.975 44.456 C 356.169 29.597 334.668 13.434 307.557 8.626 C 292.574 5.942 274.891 8.129 262.087 15.14 C 243.749 25.192 248.435 34.374 242.978 48.97 C 233.799 73.26 205.627 103.274 181.601 120.538 Z " fill="rgb(181,181,181)"/></g><g style="mix-blend-mode:normal;" opacity="0.18"><path d="M 223.538 140.157 L 236.676 96.521 C 248.048 58.75 287.946 37.317 325.718 48.688 L 569.099 121.962 C 606.87 133.334 628.303 173.232 616.932 211.003 L 603.794 254.639 C 592.422 292.41 552.524 313.843 514.752 302.472 L 271.371 229.198 C 233.6 217.826 212.167 177.928 223.538 140.157 Z" style="stroke:none;fill:#868686;stroke-miterlimit:10;"/></g><g style="mix-blend-mode:normal;" opacity="0.28"><path d="M 671.805 38.69 L 379.745 38.69 C 375.653 38.69 372.33 42.013 372.33 46.105 L 372.33 227.845 C 372.33 231.937 375.653 235.26 379.745 235.26 L 671.805 235.26 C 675.897 235.26 679.22 231.937 679.22 227.845 L 679.22 46.105 C 679.22 42.013 675.897 38.69 671.805 38.69 Z" style="stroke:none;fill:#B3B3B3;stroke-miterlimit:10;"/></g><g opacity="0.18"><path d=" M 487.517 38.701 L 565.608 38.701 C 562.668 36.466 559.476 34.586 556.096 33.1 C 549.923 30.407 543.195 29.206 536.484 28.725 C 519.599 27.507 502.663 31.236 487.517 38.701 Z " fill="rgb(119,122,157)" fill-opacity="0.5725490196078431"/></g><path d=" M 558.971 210.524 C 558.21 211.532 557.296 212.416 556.262 213.142 C 554.724 213.971 553.031 214.473 551.29 214.617 L 524.843 218.602 C 524.58 218.62 524.326 218.706 524.106 218.851 C 523.809 219.173 523.667 219.608 523.716 220.044 C 523.594 224.995 524.262 229.935 525.697 234.676 C 525.772 235.063 525.959 235.421 526.235 235.703 C 526.592 235.945 527.014 236.072 527.445 236.068 C 536.343 236.822 545.283 236.581 554.207 236.341 C 555.707 236.362 557.204 236.198 558.664 235.852 C 561.15 235.156 563.18 233.458 565.052 231.709 C 569.071 227.973 585.335 212.951 586.321 210.913 C 587.629 207.993 588.682 204.966 589.47 201.865 C 590.298 198.883 584.241 198.51 584.366 195.411 C 584.453 193.268 584.196 191.126 583.603 189.064 C 583.163 187.226 582.249 185.535 580.952 184.159 C 580.041 183.331 581.449 177.713 580.19 177.647 C 578.732 182.618 572.136 192.561 569.27 196.82 C 566.083 201.568 562.646 206.142 558.971 210.524 L 558.971 210.524 Z " fill="rgb(104,225,253)"/><path d=" M 637.773 211.601 L 616.306 211.601 L 616.306 229.232 C 616.306 232.664 619.088 235.446 622.52 235.446 L 631.559 235.446 C 634.991 235.446 637.773 232.664 637.773 229.232 L 637.773 211.601 Z " fill="rgb(255,255,255)"/><mask id="_mask_9LBNRVdeepIB6rz7DzDkBrmaPYJcJjvO" x="-200%" y="-200%" width="400%" height="400%"><rect x="-200%" y="-200%" width="400%" height="400%" style="fill:white;"/><path d=" M 617.756 215.876 L 611.252 215.876 C 608.392 215.876 606.073 218.194 606.073 221.054 L 606.073 223.2 C 606.073 226.06 608.392 228.379 611.252 228.379 L 617.756 228.379 L 617.756 215.876 Z " fill="black" stroke="none"/></mask><path d=" M 617.756 215.876 L 611.252 215.876 C 608.392 215.876 606.073 218.194 606.073 221.054 L 606.073 223.2 C 606.073 226.06 608.392 228.379 611.252 228.379 L 617.756 228.379 L 617.756 215.876 Z " fill="none"/><path d=" M 617.756 215.876 L 611.252 215.876 C 608.392 215.876 606.073 218.194 606.073 221.054 L 606.073 223.2 C 606.073 226.06 608.392 228.379 611.252 228.379 L 617.756 228.379 L 617.756 215.876 Z " fill="none" mask="url(#_mask_9LBNRVdeepIB6rz7DzDkBrmaPYJcJjvO)" vector-effect="non-scaling-stroke" stroke-width="6.6" stroke="rgb(255,255,255)" stroke-linejoin="miter" stroke-linecap="butt" stroke-miterlimit="10"/><g opacity="0.18"><path d=" M 372.334 46.116 L 372.334 82.406 L 679.217 82.406 L 679.217 46.116 C 679.217 42.014 675.904 38.682 671.802 38.659 L 379.749 38.659 C 375.647 38.682 372.334 42.014 372.334 46.116 Z " fill="rgb(151,152,164)"/></g><path d="M 440.342 234.91 L 546.758 234.91 C 549.739 234.91 552.16 232.488 552.16 229.505 L 552.16 229.505 C 552.16 226.522 549.739 224.1 546.758 224.1 L 440.342 224.1 C 437.361 224.1 434.94 226.522 434.94 229.505 L 434.94 229.505 C 434.94 232.488 437.361 234.91 440.342 234.91 Z" style="stroke:none;fill:#68E1FD;stroke-miterlimit:10;"/><g opacity="0.51"><rect x="417.887" y="156.594" width="114.836" height="6.463" transform="matrix(1,0,0,1,0,0)" fill="rgb(255,255,255)"/></g><rect x="451.087" y="145.533" width="81.636" height="6.463" transform="matrix(1,0,0,1,0,0)" fill="rgb(255,255,255)"/><rect x="385.275" y="145.533" width="54.651" height="6.463" transform="matrix(1,0,0,1,0,0)" fill="rgb(255,255,255)"/><rect x="385.466" y="104.619" width="84.022" height="5.742" transform="matrix(1,0,0,1,0,0)" fill="rgb(255,255,255)"/><g opacity="0.51"><rect x="397.198" y="114.819" width="89.888" height="5.742" transform="matrix(1,0,0,1,0,0)" fill="rgb(255,255,255)"/></g><rect x="475.901" y="104.619" width="55.264" height="5.742" transform="matrix(1,0,0,1,0,0)" fill="rgb(255,255,255)"/><rect x="385.466" y="124.712" width="121.456" height="5.742" transform="matrix(1,0,0,1,0,0)" fill="rgb(255,255,255)"/><g opacity="0.51"><rect x="513.335" y="124.712" width="17.83" height="5.742" transform="matrix(1,0,0,1,0,0)" fill="rgb(255,255,255)"/></g><g opacity="0.51"><rect x="385.466" y="134.911" width="80.17" height="5.742" transform="matrix(1,0,0,1,0,0)" fill="rgb(255,255,255)"/></g><rect x="475.901" y="134.911" width="55.264" height="5.742" transform="matrix(1,0,0,1,0,0)" fill="rgb(255,255,255)"/><rect x="495.629" y="114.579" width="35.536" height="5.742" transform="matrix(1,0,0,1,0,0)" fill="rgb(255,255,255)"/><rect x="416.197" y="85.29" width="84.022" height="5.742" transform="matrix(1,0,0,1,0,0)" fill="rgb(255,255,255)"/><g opacity="0.51"><rect x="427.929" y="95.489" width="89.888" height="5.742" transform="matrix(1,0,0,1,0,0)" fill="rgb(255,255,255)"/></g><rect x="506.624" y="85.29" width="55.264" height="5.742" transform="matrix(1,0,0,1,0,0)" fill="rgb(255,255,255)"/><rect x="416.942" y="73.4" width="84.022" height="5.742" transform="matrix(1,0,0,1,0,0)" fill="rgb(255,255,255)"/><rect x="507.369" y="62.612" width="55.264" height="5.742" transform="matrix(1,0,0,1,0,0)" fill="rgb(255,255,255)"/><rect x="507.369" y="52.769" width="55.264" height="5.742" transform="matrix(1,0,0,1,0,0)" fill="rgb(255,255,255)"/><linearGradient id="_lgradient_41" x1="0" y1="0.5" x2="0.1613630674949073" y2="1.4868951111686763" gradientTransform="matrix(-88.292,0,0,79.019,561.496,136.452)" gradientUnits="userSpaceOnUse"><stop offset="100%" stop-opacity="1" style="stop-color:rgb(40,43,78)"/><stop offset="100%" stop-opacity="1" style="stop-color:rgb(0,0,0)"/><stop offset="100%" stop-opacity="1" style="stop-color:rgb(0,0,0)"/></linearGradient><path d=" M 520.496 180.536 C 519.475 181.889 518.249 183.073 516.863 184.047 C 514.801 185.159 512.531 185.832 510.197 186.024 L 474.734 191.368 C 474.381 191.392 474.04 191.507 473.745 191.702 C 473.347 192.134 473.156 192.718 473.223 193.301 C 473.058 199.941 473.955 206.564 475.878 212.921 C 475.979 213.441 476.23 213.92 476.6 214.299 C 477.079 214.623 477.645 214.794 478.222 214.788 C 490.154 215.799 502.142 215.477 514.107 215.155 C 516.119 215.183 518.127 214.963 520.084 214.499 C 523.417 213.566 526.139 211.288 528.65 208.944 C 534.039 203.934 555.847 183.791 557.169 181.058 C 558.923 177.143 560.335 173.084 561.391 168.926 C 562.502 164.927 554.381 164.427 554.547 160.272 C 554.665 157.398 554.319 154.525 553.525 151.761 C 552.934 149.296 551.709 147.029 549.97 145.184 C 548.748 144.073 550.637 136.541 548.948 136.452 C 546.993 143.118 538.149 156.45 534.305 162.16 C 530.033 168.527 525.423 174.661 520.496 180.536 L 520.496 180.536 Z " fill="url(#_lgradient_41)"/><linearGradient id="_lgradient_42" x1="0" y1="0.5" x2="0.1613630674949073" y2="1.4868951111686763" gradientTransform="matrix(-99.395,0,0,100.799,641.546,118.136)" gradientUnits="userSpaceOnUse"><stop offset="100%" stop-opacity="1" style="stop-color:rgb(40,43,78)"/><stop offset="100%" stop-opacity="1" style="stop-color:rgb(0,0,0)"/><stop offset="100%" stop-opacity="1" style="stop-color:rgb(0,0,0)"/></linearGradient><path d=" M 610.23 124.253 C 612.619 126.382 614.847 128.684 616.896 131.141 C 621.807 137.174 625.073 144.351 628.117 151.506 C 636.216 170.548 643.271 190.913 641.171 211.499 C 641.132 212.738 640.797 213.949 640.194 215.032 C 639.238 216.258 637.894 217.123 636.383 217.488 C 632.484 218.732 628.317 218.788 624.162 218.821 C 608.153 218.965 592.121 219.11 576.123 218.332 C 573.645 218.21 571.023 218.021 568.968 216.621 C 567.467 215.472 566.269 213.973 565.48 212.255 C 561.18 204.167 559.925 194.812 556.592 186.302 C 552.148 175.192 539.927 165.093 542.504 153.383 C 553.525 103.667 605.186 119.665 610.23 124.253 Z " fill="url(#_lgradient_42)"/><path d=" M 537.883 83.069 C 539.76 92.19 541.727 101.556 546.77 109.41 C 548.609 112.582 551.269 115.199 554.47 116.987 C 557.725 118.62 561.858 118.843 564.902 116.843 C 566.424 115.854 568.09 114.299 569.746 115.032 C 570.946 115.576 571.335 117.065 571.501 118.365 C 571.918 121.558 571.873 124.795 571.368 127.975 C 571.162 128.871 571.109 129.795 571.212 130.708 C 571.652 132.435 573.067 133.741 574.823 134.041 C 576.542 134.292 578.296 134.017 579.856 133.252 C 584.782 131.049 588.295 126.546 589.233 121.231 C 589.466 119.463 589.577 117.682 589.566 115.899 C 589.777 107.988 591.032 100.111 590.777 92.212 C 590.521 84.313 588.555 76.092 583.189 70.259 C 580.09 67.083 576.408 64.533 572.346 62.749 C 566.291 59.86 559.536 57.827 552.914 58.882 C 547.582 59.725 542.885 62.859 540.06 67.459 C 536.594 72.781 536.583 76.747 537.883 83.069 Z " fill="rgb(189,137,126)"/><path d=" M 521.34 62.971 C 520.416 55.38 524.287 48.01 531.061 44.462 C 534.005 42.995 537.283 42.373 540.46 41.529 C 547.904 39.529 555.047 36.218 562.68 35.507 C 570.312 34.796 579.089 37.474 582.489 44.395 C 583.111 45.662 583.722 47.195 585.089 47.528 C 585.835 47.608 586.59 47.541 587.311 47.328 C 592.41 46.428 596.998 50.783 599.298 55.416 C 603.009 62.915 603.198 71.659 602.387 79.98 C 601.642 87.679 599.676 96.001 593.499 100.689 C 592.888 101.156 591.988 101.578 591.399 101.078 C 591.129 100.796 590.961 100.433 590.921 100.045 C 590.3 97.126 590.068 94.137 590.232 91.157 C 590.355 88.935 590.71 86.579 590.132 84.391 C 589.555 82.202 587.699 80.125 585.433 80.191 C 583.333 80.191 581.645 82.147 581.122 84.191 C 580.75 86.272 580.83 88.409 581.356 90.457 C 581.022 91.29 579.856 90.29 579.656 89.424 C 578.123 82.447 577.778 74.636 572.934 69.426 C 571.949 70.446 571.231 71.694 570.846 73.059 C 569.368 71.528 567.146 70.976 565.124 71.637 C 563.718 72.248 562.426 73.094 561.302 74.136 C 549.504 83.346 523.817 80.613 521.34 62.971 Z " fill="rgb(63,61,86)"/><linearGradient id="_lgradient_43" x1="0" y1="0.5" x2="0.1613630674949073" y2="1.4868951111686763" gradientTransform="matrix(-107.035,0,0,84.679,612.499,133.739)" gradientUnits="userSpaceOnUse"><stop offset="100%" stop-opacity="1" style="stop-color:rgb(40,43,78)"/><stop offset="100%" stop-opacity="1" style="stop-color:rgb(0,0,0)"/><stop offset="100%" stop-opacity="1" style="stop-color:rgb(0,0,0)"/></linearGradient><path d=" M 606.831 135.63 C 610.564 138.341 612.386 143.107 612.497 147.706 C 612.608 152.306 607.742 181.492 603.153 189.78 C 599.598 196.223 592.188 213.044 580.933 217.688 C 577.601 219.065 528.328 218.488 505.464 216.01 C 505.608 210.599 505.875 205.189 506.23 199.778 C 506.197 199.065 506.413 198.362 506.841 197.79 C 507.419 197.19 508.241 193.268 509.063 193.268 C 522.395 193.324 535.838 197.401 549.17 197.712 C 551.106 197.837 553.051 197.721 554.958 197.368 C 556.52 196.978 558.017 196.364 559.402 195.546 C 569.69 189.724 575.379 178.292 579.4 167.171 C 582.478 158.594 584.955 149.717 589.399 141.707 C 590.977 138.852 592.388 136.074 595.499 134.819 C 599.154 133.341 603.442 133.174 606.831 135.63 Z " fill="url(#_lgradient_43)"/><path d=" M 507.419 192.224 C 500.498 191.568 492.81 193.112 488.421 198.501 C 487.959 198.992 487.657 199.612 487.555 200.278 C 487.559 200.879 487.745 201.463 488.088 201.956 C 490.677 206.256 496.298 207.278 501.02 208.977 C 503.476 209.857 505.821 211.021 508.008 212.444 C 509.239 213.42 510.662 214.124 512.185 214.51 C 515.518 215.01 518.285 212.033 519.796 209.055 C 521.529 205.722 524.24 198.879 520.907 195.723 C 518.185 193.224 510.841 192.535 507.419 192.224 Z " fill="rgb(189,137,126)"/><path d=" M 450.103 190.513 C 448.871 191.213 447.812 192.182 447.003 193.346 C 446.2 194.544 446.091 196.078 446.715 197.379 C 447.239 198.166 447.953 198.808 448.792 199.245 C 454.936 202.9 462.468 203.556 468.69 207.022 C 469.966 207.95 471.43 208.587 472.978 208.889 C 474.823 208.929 476.581 208.108 477.733 206.667 C 478.867 205.252 479.736 203.645 480.3 201.923 C 487.577 182.814 460.569 183.847 450.103 190.513 Z " fill="rgb(189,137,126)"/><path d="M 665.653 213.44 L 275.717 213.44 C 272.308 213.44 269.54 216.207 269.54 219.615 L 269.54 219.615 C 269.54 223.023 272.308 225.79 275.717 225.79 L 665.653 225.79 C 669.062 225.79 671.83 223.023 671.83 219.615 L 671.83 219.615 C 671.83 216.207 669.062 213.44 665.653 213.44 Z" style="stroke:none;fill:#FFFFFF;stroke-miterlimit:10;"/><linearGradient id="_lgradient_44" x1="0" y1="0.5" x2="0.6487385434290357" y2="-0.2610113680291335" gradientTransform="matrix(-218.965,0,0,76.447,566.357,225.976)" gradientUnits="userSpaceOnUse"><stop offset="100%" stop-opacity="1" style="stop-color:rgb(40,43,78)"/><stop offset="100%" stop-opacity="1" style="stop-color:rgb(0,0,0)"/><stop offset="100%" stop-opacity="1" style="stop-color:rgb(0,0,0)"/></linearGradient><rect x="347.392" y="225.976" width="218.965" height="76.447" transform="matrix(1,0,0,1,0,0)" fill="url(#_lgradient_44)"/><defs><linearGradient id="_lgradient_45" x1="0" y1="0.5" x2="0.1613630674949073" y2="1.4868951111686763"><stop offset="100%" style="stop-color:#282B4E"/><stop offset="100%" style="stop-color:#000000"/><stop offset="100%" style="stop-color:#000000"/></linearGradient></defs><path d="M 361.424 213.23 L 504.116 213.23 C 508.114 213.23 511.36 209.986 511.36 205.99 L 511.36 205.99 C 511.36 201.994 508.114 198.75 504.116 198.75 L 361.424 198.75 C 357.426 198.75 354.18 201.994 354.18 205.99 L 354.18 205.99 C 354.18 209.986 357.426 213.23 361.424 213.23 Z" style="stroke:none;fill:url(#_lgradient_45);stroke-miterlimit:10;"/><path d=" M 454.636 213.255 L 345.125 213.255 L 316.24 140.007 C 315.461 138.025 315.712 135.787 316.91 134.026 C 318.108 132.266 320.099 131.211 322.228 131.208 L 408.163 131.208 C 416.669 131.224 424.304 136.428 427.428 144.34 L 454.636 213.255 Z " fill="rgb(255,255,255)"/><linearGradient id="_lgradient_46" x1="0" y1="0.5" x2="0.6487385434290357" y2="-0.2610113680291335" gradientTransform="matrix(-131.869,0,0,77.936,449.07,135.396)" gradientUnits="userSpaceOnUse"><stop offset="100%" stop-opacity="1" style="stop-color:rgb(60,64,102)"/><stop offset="100%" stop-opacity="1" style="stop-color:rgb(0,0,0)"/><stop offset="100%" stop-opacity="1" style="stop-color:rgb(0,0,0)"/></linearGradient><path d=" M 449.07 213.333 L 345.059 213.333 L 317.628 143.751 C 316.885 141.869 317.122 139.741 318.261 138.068 C 319.4 136.395 321.293 135.395 323.317 135.396 L 404.93 135.396 C 413.021 135.393 420.291 140.336 423.262 147.862 L 449.07 213.333 Z " fill="url(#_lgradient_46)"/><rect x="566.357" y="225.976" width="86.535" height="76.447" transform="matrix(1,0,0,1,0,0)" fill="rgb(99,102,142)"/></g></svg>