<svg width="128" height="128" viewBox="0 0 128 128" fill="none" xmlns="http://www.w3.org/2000/svg">
<rect x="0.922363" y="0.922325" width="126.155" height="126.155" rx="63.0777" fill="url(#paint0_linear)"/>
<circle cx="65.3077" cy="60.6811" r="11.2716" fill="#43456B"/>
<path d="M59.5361 71.2434V50.1614L52.8296 55.7886V66.9435L59.5361 71.2434Z" fill="#2B2C51"/>
<path d="M32.0849 74.7691V46.5888C32.0849 42.9089 35.0796 39.9142 38.7595 39.9142H90.6703C94.3503 39.9142 97.345 42.9089 97.345 46.5888V74.7691C97.345 78.4491 94.3503 81.4438 90.6703 81.4438H38.7551C35.0796 81.4438 32.0849 78.4491 32.0849 74.7691ZM81.0322 60.6812C81.0322 61.9093 82.0289 62.9061 83.2571 62.9061H86.225C87.4532 62.9061 88.4499 61.9093 88.4499 60.6812C88.4499 59.4531 87.4532 58.4563 86.225 58.4563H83.2571C82.0289 58.4563 81.0322 59.4531 81.0322 60.6812ZM54.3337 60.6812C54.3337 66.4036 58.9881 71.0625 64.7149 71.0625C70.4418 71.0625 75.0962 66.4036 75.0962 60.6812C75.0962 54.9588 70.4418 50.2999 64.7149 50.2999C58.9881 50.2999 54.3337 54.9544 54.3337 60.6812ZM40.9844 60.6812C40.9844 61.9093 41.9811 62.9061 43.2093 62.9061H46.1773C47.4054 62.9061 48.4021 61.9093 48.4021 60.6812C48.4021 59.4531 47.4054 58.4563 46.1773 58.4563H43.2093C41.9811 58.4563 40.9844 59.4531 40.9844 60.6812Z" fill="white"/>
<rect x="58.5118" y="72.5227" width="12.3363" height="19.3855" rx="6.16813" fill="#3A3C5B"/>
<path d="M75.7102 93.3431L66.8107 102.243C65.6537 103.4 63.7759 103.4 62.6145 102.243L53.715 93.3431C52.8651 92.4932 52.6115 91.2205 53.0698 90.1081C53.5281 89.0001 54.6094 88.2793 55.8109 88.2793H73.6099C74.8113 88.2793 75.8926 89.0001 76.3509 90.1081C76.8137 91.2205 76.5601 92.4932 75.7102 93.3431Z" fill="white"/>
<path d="M64.7149 76.4118C63.0774 76.4118 61.7469 77.7422 61.7469 79.3797V97.9219C61.7469 99.5594 63.0729 100.89 64.7149 100.89C66.3524 100.89 67.6829 99.5594 67.6829 97.9219V79.3797C67.6829 77.7422 66.3524 76.4118 64.7149 76.4118Z" fill="white"/>
<defs>
<linearGradient id="paint0_linear" x1="86.9374" y1="0.922326" x2="42.9741" y2="127.078" gradientUnits="userSpaceOnUse">
<stop stop-color="#545787"/>
<stop offset="1" stop-color="#2C2D43"/>
</linearGradient>
</defs>
</svg>
