<svg width="58" height="58" viewBox="0 0 58 58" fill="none" xmlns="http://www.w3.org/2000/svg">
<rect width="58" height="58" rx="29" fill="white"/>
<path d="M29.4621 19.8906C24.7354 19.8906 20.8887 23.7355 20.8887 28.4641C20.8887 33.1926 24.7336 37.0375 29.4621 37.0375C34.1906 37.0375 38.0355 33.1926 38.0355 28.4641C38.0355 23.7355 34.1888 19.8906 29.4621 19.8906ZM28.9973 27.5455H29.9287C31.3598 27.5455 32.5244 28.7102 32.5244 30.1413C32.5244 31.429 31.5967 32.4872 30.3806 32.7039V33.6684C30.3806 34.1754 29.9691 34.5869 29.4621 34.5869C28.9551 34.5869 28.5436 34.1754 28.5436 33.6684V32.7499H27.3183C26.8113 32.7499 26.3998 32.3384 26.3998 31.8313C26.3998 31.3243 26.8113 30.9128 27.3183 30.9128H29.9269C30.3457 30.9128 30.6856 30.5711 30.6856 30.1541C30.6856 29.7243 30.3439 29.3826 29.9269 29.3826H28.9955C27.5644 29.3826 26.3998 28.2179 26.3998 26.7868C26.3998 25.4991 27.3275 24.441 28.5436 24.2242V23.2597C28.5436 22.7527 28.9551 22.3412 29.4621 22.3412C29.9691 22.3412 30.3806 22.7527 30.3806 23.2597V24.1783H31.6059C32.1129 24.1783 32.5244 24.5898 32.5244 25.0968C32.5244 25.6038 32.1129 26.0153 31.6059 26.0153H28.9973C28.5785 26.0153 28.2386 26.357 28.2386 26.774C28.2368 27.2039 28.5785 27.5455 28.9973 27.5455Z" fill="#DDDDDD"/>
<path d="M15.9375 28.5029C15.9375 21.0261 22.0212 14.9404 29.5 14.9404C32.1853 14.9404 34.7389 15.7251 36.9031 17.1453L34.9501 19.0983C34.3418 19.7047 34.7719 20.751 35.636 20.751H41.4485C41.9832 20.751 42.4172 20.317 42.4172 19.7822V13.9697C42.4172 13.1114 41.3749 12.6736 40.7626 13.2858L38.2904 15.7581C35.7445 13.9911 32.7085 13.0049 29.5 13.0049C20.9537 13.0049 14 19.9585 14 28.5048C14 30.02 14.2228 31.5254 14.6626 32.9824C14.8157 33.492 15.3524 33.7845 15.8697 33.6315C16.3812 33.4764 16.6718 32.9359 16.5168 32.4244C16.1332 31.1476 15.9375 29.8281 15.9375 28.5029Z" fill="#808080"/>
<path d="M44.3372 24.0267C44.1822 23.5133 43.6455 23.2226 43.1301 23.3776C42.6186 23.5326 42.328 24.0732 42.483 24.5847C42.8666 25.8596 43.0623 27.179 43.0623 28.5023C43.0623 35.9791 36.9786 42.0648 29.4998 42.0648C26.8183 42.0648 24.2725 41.284 22.1083 39.8677L24.0535 37.9011C24.658 37.2908 24.224 36.2523 23.3638 36.2523H17.5513C17.2936 36.2523 17.0437 36.355 16.8635 36.539C16.6814 36.7231 16.5806 36.973 16.5825 37.2307L16.6465 43.0432C16.6542 43.9035 17.7044 44.322 18.303 43.7136L20.7288 41.2607C23.2708 43.02 26.301 44.0023 29.4998 44.0023C38.0461 44.0023 44.9998 37.0486 44.9998 28.5023C44.9998 26.9891 44.777 25.4817 44.3372 24.0267Z" fill="#808080"/>
</svg>
