<svg width="58" height="58" viewBox="0 0 58 58" fill="none" xmlns="http://www.w3.org/2000/svg">
<rect width="58" height="58" rx="29" fill="white"/>
<path d="M28.6184 25.2953C31.7375 25.2953 34.266 22.7668 34.266 19.6477C34.266 16.5285 31.7375 14 28.6184 14C25.4992 14 22.9707 16.5285 22.9707 19.6477C22.9707 22.7668 25.4992 25.2953 28.6184 25.2953Z" fill="#808080"/>
<path d="M40.0435 25.297C42.0154 25.297 43.6139 23.6985 43.6139 21.7266C43.6139 19.7548 42.0154 18.1562 40.0435 18.1562C38.0716 18.1562 36.4731 19.7548 36.4731 21.7266C36.4731 23.6985 38.0716 25.297 40.0435 25.297Z" fill="#DDDDDD"/>
<path d="M17.1932 25.297C19.165 25.297 20.7635 23.6985 20.7635 21.7266C20.7635 19.7548 19.165 18.1562 17.1932 18.1562C15.2213 18.1562 13.6228 19.7548 13.6228 21.7266C13.6228 23.6985 15.2213 25.297 17.1932 25.297Z" fill="#DDDDDD"/>
<path d="M20.711 28.5018C19.3056 27.3504 18.0328 27.5028 16.4078 27.5028C13.9773 27.5028 12 29.4684 12 31.8839V38.9734C12 40.0224 12.8562 40.8754 13.9092 40.8754C18.4549 40.8754 17.9073 40.9576 17.9073 40.6793C17.9073 35.6558 17.3123 31.9718 20.711 28.5018Z" fill="#DDDDDD"/>
<path d="M30.1639 27.5297C27.3256 27.293 24.8585 27.5325 22.7305 29.2889C19.1694 32.1413 19.8547 35.9819 19.8547 40.6803C19.8547 41.9234 20.8661 42.9537 22.128 42.9537C35.8306 42.9537 36.3759 43.3957 37.1885 41.5963C37.4549 40.9878 37.3819 41.1812 37.3819 35.3598C37.3819 30.7362 33.3784 27.5297 30.1639 27.5297Z" fill="#808080"/>
<path d="M40.8289 27.5026C39.195 27.5026 37.9292 27.3517 36.5256 28.5017C39.899 31.9458 39.3293 35.3785 39.3293 40.6792C39.3293 40.9592 38.8747 40.8752 43.2593 40.8752C44.3499 40.8752 45.2367 39.9917 45.2367 38.9057V31.8838C45.2367 29.4683 43.2593 27.5026 40.8289 27.5026Z" fill="#DDDDDD"/>
</svg>
