<svg width="58" height="58" viewBox="0 0 58 58" fill="none" xmlns="http://www.w3.org/2000/svg">
<rect width="58" height="58" rx="29" fill="url(#paint0_linear)"/>
<path d="M22.6294 33.4227V37.5372C22.6294 38.2943 23.2438 38.9087 24.0009 38.9087H42.5164C43.2735 38.9087 43.8879 38.2943 43.8879 37.5372V25.8793C43.8879 25.1223 43.2735 24.5078 42.5164 24.5078H31.8871H24.0009C23.2438 24.5078 22.6294 25.1223 22.6294 25.8793V33.4227Z" fill="#66688E"/>
<path d="M25.7153 37.5372V33.4227V25.8793C25.7153 25.1223 26.3297 24.5078 27.0868 24.5078H24.0009C23.2438 24.5078 22.6294 25.1223 22.6294 25.8793V33.4227V37.5372C22.6294 38.2943 23.2438 38.9087 24.0009 38.9087H27.0868C26.3297 38.9087 25.7153 38.2943 25.7153 37.5372Z" fill="#2B2C51"/>
<path d="M31.5443 20.395V36.1674C31.5443 35.4131 31.2288 34.7273 30.7351 34.2336C30.2413 33.7261 29.5556 33.4244 28.8013 33.4244H14.4003C13.646 33.4244 13.0288 32.8209 13.0288 32.0528V20.395C13.0288 19.6406 13.646 19.0234 14.4003 19.0234H30.1728C30.9271 19.0234 31.5443 19.6406 31.5443 20.395Z" fill="#43456B"/>
<path d="M16.1147 32.0528V20.395C16.1147 19.6406 16.7319 19.0234 17.4862 19.0234H14.4003C13.646 19.0234 13.0288 19.6406 13.0288 20.395V32.0528C13.0288 32.8209 13.646 33.4244 14.4003 33.4244H17.4862C16.7319 33.4244 16.1147 32.8209 16.1147 32.0528Z" fill="#2B2C51"/>
<path d="M42.5162 39.9426H24.0007C22.6772 39.9426 21.6006 38.8659 21.6006 37.5424V33.4279H23.6579V37.5424C23.6579 37.7317 23.8115 37.8853 24.0007 37.8853H42.5162C42.7055 37.8853 42.8591 37.7317 42.8591 37.5424V25.8845C42.8591 25.6953 42.7055 25.5417 42.5162 25.5417H31.887V23.4844H42.5162C43.8397 23.4844 44.9164 24.561 44.9164 25.8845V37.5424C44.9164 38.8659 43.8397 39.9426 42.5162 39.9426Z" fill="white"/>
<path d="M28.8011 39.9443H24.6865V37.887H28.8011C29.7461 37.887 30.5155 37.1176 30.5155 36.1726C30.5155 35.2276 29.7461 34.4582 28.8011 34.4582H14.4002C13.0766 34.4582 12 33.3816 12 32.058V20.4002C12 19.0766 13.0766 18 14.4002 18H30.1726C31.4961 18 32.5728 19.0766 32.5728 20.4002V36.1726C32.5728 38.2518 30.8817 39.9443 28.8011 39.9443ZM14.4002 20.0573C14.2109 20.0573 14.0573 20.2109 14.0573 20.4002V32.058C14.0573 32.2473 14.2109 32.4009 14.4002 32.4009H28.8011C29.4183 32.4009 30.0012 32.5491 30.5155 32.8138V20.4002C30.5155 20.2109 30.3619 20.0573 30.1726 20.0573H14.4002Z" fill="white"/>
<path d="M16.8003 21.7695H26.4009V23.8268H16.8003V21.7695Z" fill="white"/>
<path d="M23.6577 28.6289H27.7723V30.6862H23.6577V28.6289Z" fill="white"/>
<path d="M34.6299 27.2578H41.4875V29.3151H34.6299V27.2578Z" fill="white"/>
<path d="M34.6299 32.7422H41.4875V34.7995H34.6299V32.7422Z" fill="white"/>
<defs>
<linearGradient id="paint0_linear" x1="39.5455" y1="3.02375e-07" x2="19.3333" y2="58" gradientUnits="userSpaceOnUse">
<stop stop-color="#545787"/>
<stop offset="1" stop-color="#2C2D43"/>
</linearGradient>
</defs>
</svg>
