<svg width="58" height="58" viewBox="0 0 58 58" fill="none" xmlns="http://www.w3.org/2000/svg">
<rect width="58" height="58" rx="29" fill="white"/>
<circle cx="29" cy="33" r="9" fill="#DDDDDD"/>
<path d="M23.9932 37.501C24.4379 37.501 24.7984 37.1405 24.7984 36.6958C24.7984 36.2511 24.4379 35.8906 23.9932 35.8906C23.5485 35.8906 23.188 36.2511 23.188 36.6958C23.188 37.1405 23.5485 37.501 23.9932 37.501Z" fill="#808080"/>
<path d="M27.1299 36.7784C27.5746 36.7784 27.9351 36.4179 27.9351 35.9732C27.9351 35.5285 27.5746 35.168 27.1299 35.168C26.6852 35.168 26.3247 35.5285 26.3247 35.9732C26.3247 36.4179 26.6852 36.7784 27.1299 36.7784Z" fill="#808080"/>
<path d="M26.4673 39.9737C26.912 39.9737 27.2725 39.6132 27.2725 39.1685C27.2725 38.7238 26.912 38.3633 26.4673 38.3633C26.0226 38.3633 25.6621 38.7238 25.6621 39.1685C25.6621 39.6132 26.0226 39.9737 26.4673 39.9737Z" fill="#808080"/>
<path d="M29.8247 23.4805C29.8182 23.4091 29.8506 23.026 29.7208 22.526H31.9091C33.9935 22.526 35.6883 20.8312 35.6883 18.7468V15.8312C35.6883 15.3701 35.3182 15 34.8571 15H31.9416C29.8571 15 28.1623 16.6948 28.1623 18.7792V20.487C27.6688 20.2078 27.1104 20.052 26.526 20.052C26.0649 20.052 25.6948 20.4221 25.6948 20.8831C25.6948 21.3442 26.0649 21.7143 26.526 21.7143C26.961 21.7143 27.3766 21.8831 27.6883 22.1948C28.2338 22.7403 28.1623 23.4351 28.1688 23.474C23.0455 23.8961 19 28.2078 19 33.4416C19 38.9546 23.487 43.4416 29 43.4416C34.513 43.4416 39 38.9546 39 33.4416C38.9935 28.2078 34.9545 23.9026 29.8247 23.4805ZM29.8247 18.7792C29.8247 17.6169 30.7727 16.6688 31.9351 16.6688H34.0195V18.7532C34.0195 19.9156 33.0714 20.8636 31.9091 20.8636H31.0065L32.8831 18.987C33.2078 18.6623 33.2078 18.1364 32.8831 17.8052C32.5584 17.4805 32.0325 17.4805 31.7013 17.8052L29.8247 19.6818V18.7792ZM28.9935 41.3117C24.6494 41.3117 21.1234 37.7857 21.1234 33.4416C21.1234 29.0974 24.6494 25.5714 28.9935 25.5714C33.3377 25.5714 36.8636 29.0974 36.8636 33.4416C36.8636 37.7857 33.3377 41.3117 28.9935 41.3117Z" fill="#808080"/>
</svg>
