<svg width="58" height="58" viewBox="0 0 58 58" fill="none" xmlns="http://www.w3.org/2000/svg">
<rect width="58" height="58" rx="29" fill="url(#paint0_linear)"/>
<path d="M20.7438 36.2008L19.4438 25.4008C19.3438 24.3008 19.6438 23.3008 20.3438 22.5008L19.7438 21.8008C17.5438 21.8008 15.8438 23.7008 16.1438 25.8008L17.3438 36.2008C17.6438 39.0008 20.0438 41.1008 22.8438 41.1008H26.2438C23.4438 41.1008 21.1438 39.0008 20.7438 36.2008Z" fill="#C7E3F7"/>
<path d="M35.4438 42.2H22.8438C19.4438 42.2 16.6438 39.7 16.2438 36.3L15.0438 25.9C14.8438 24.6 15.3438 23.2 16.2438 22.2C17.1438 21.2 18.4438 20.6 19.7438 20.6C20.3438 20.6 20.8438 21.1 20.8438 21.7C20.8438 22.3 20.3438 22.8 19.7438 22.8C19.0438 22.8 18.3438 23.1 17.8438 23.6C17.3438 24.1 17.1438 24.8 17.2438 25.6L18.4438 36.1C18.7438 38.3 20.5438 40 22.8438 40H35.4438C37.6438 40 39.5438 38.3 39.8438 36.1L41.0438 25.7C41.1438 25 40.9438 24.3 40.4438 23.7C39.9438 23.2 39.2438 22.9 38.5438 22.9C37.9438 22.9 37.4438 22.4 37.4438 21.8C37.4438 21.2 37.9438 20.7 38.5438 20.7C39.8438 20.7 41.1438 21.3 42.0438 22.3C42.9438 23.3 43.3438 24.7 43.2438 26L42.0438 36.3C41.6438 39.7 38.8438 42.2 35.4438 42.2ZM25.1438 29.6V20.2C25.1438 18 26.9438 16.2 29.1438 16.2C31.3438 16.2 33.1438 18 33.1438 20.2V20.6H28.4438C27.8438 20.6 27.3438 21.1 27.3438 21.7C27.3438 22.3 27.8438 22.8 28.4438 22.8H34.2438C34.8438 22.8 35.3438 22.3 35.3438 21.7V20.2C35.3438 16.8 32.5438 14 29.1438 14C25.7438 14 22.9438 16.8 22.9438 20.2V29.6C22.9438 30.2 23.4438 30.7 24.0438 30.7C24.6438 30.7 25.1438 30.2 25.1438 29.6Z" fill="white"/>
<path d="M28.2438 34.2H37.6438C38.2438 34.2 38.7438 33.7 38.7438 33.1C38.7438 32.5 38.2438 32 37.6438 32H28.2438C27.6438 32 27.1438 32.5 27.1438 33.1C27.1438 33.4 27.2438 33.7 27.4438 33.9C27.6438 34 27.9438 34.2 28.2438 34.2Z" fill="white"/>
<defs>
<linearGradient id="paint0_linear" x1="39.5455" y1="3.02375e-07" x2="19.3333" y2="58" gradientUnits="userSpaceOnUse">
<stop stop-color="#00C1FF"/>
<stop offset="1" stop-color="#0085FF"/>
</linearGradient>
</defs>
</svg>
