<svg width="58" height="58" viewBox="0 0 58 58" fill="none" xmlns="http://www.w3.org/2000/svg">
<rect width="58" height="58" rx="29" fill="white"/>
<path d="M29.5746 20.3573H36.9993L37.7273 19.7755C38.2522 19.3563 38.4472 18.677 38.2262 18.0433C38.0035 17.4095 37.4267 17 36.7572 17H29.8168C29.1473 17 28.5704 17.4095 28.3478 18.0433C28.1251 18.677 28.3218 19.3579 28.8466 19.7755L29.5746 20.3573Z" fill="#DDDDDD"/>
<path d="M15.533 30.0023C15.2373 30.0088 15 30.2493 15 30.545V40.2934C15 40.5924 15.2421 40.8346 15.5411 40.8346H17.8405C18.0826 40.8346 18.2955 40.6737 18.3621 40.4413L20.759 31.9929C20.9134 31.4469 20.6209 30.8733 20.0879 30.6799C19.1064 30.3208 17.6 29.9682 15.533 30.0023Z" fill="#DDDDDD"/>
<path d="M27.6472 32.0146C27.7674 32.0845 27.8909 32.156 28.0193 32.2291L28.1363 32.2454C29.8214 32.4875 33.1316 32.9604 33.8271 35.2971H35.1596C36.5018 34.756 37.7579 34.3351 38.8321 34.3351C38.9214 34.3351 39.0043 34.3514 39.0921 34.3563C40.3921 33.3504 40.9982 31.675 40.9982 30.0077C40.9982 27.3606 39.4853 24.1512 37.4508 22.0273H29.2088C27.1532 24.2487 25.832 27.5849 25.832 30.0077C25.832 30.3831 25.8662 30.7585 25.9279 31.1257C26.5649 31.3939 27.1028 31.6994 27.6472 32.0146Z" fill="#808080"/>
<path d="M38.8336 35.9588C36.6674 35.9588 32.3335 38.7018 30.1674 38.7018C28.0013 38.7018 25.5621 37.041 25.5621 37.041C25.5621 37.041 28.4806 37.5822 30.1658 37.5822C31.8509 37.5822 32.3319 37.0069 32.3319 36.2285C32.3319 34.3322 29.1111 34.038 27.4829 33.791C25.8839 32.9005 25.0535 32.1969 22.4048 31.9727C22.3885 32.127 22.3641 32.2798 22.3219 32.4342L20.146 40.1042C22.6111 41.2238 26.8556 42.9999 29.0835 42.9999C32.3335 42.9999 40.9997 38.666 40.9997 37.5838C40.9997 36.4999 39.9158 35.9588 38.8336 35.9588Z" fill="#808080"/>
</svg>
