<svg width="58" height="58" viewBox="0 0 58 58" fill="none" xmlns="http://www.w3.org/2000/svg">
<rect width="58" height="58" rx="29" fill="url(#paint0_linear)"/>
<path d="M15.6458 36.6456L36.0755 42.1202C37.1301 42.4023 38.215 41.7774 38.4971 40.7215L41.6885 28.8115C41.9706 27.7569 41.3457 26.672 40.2898 26.3899L19.8588 20.9154C18.8043 20.6333 17.7194 21.2581 17.4373 22.314L14.2459 34.2241C13.9651 35.2786 14.5899 36.3635 15.6458 36.6456Z" fill="#49CA93"/>
<path d="M18.612 37.3034C17.5574 37.0213 16.9313 35.9364 17.2134 34.8818L20.4048 22.9718C20.6249 22.1532 21.3275 21.5982 22.1251 21.5218L19.8604 20.9154C18.8058 20.6333 17.7209 21.2581 17.4388 22.314L14.2474 34.2241C13.9653 35.2786 14.5901 36.3635 15.646 36.6456L36.077 42.1202C36.313 42.1834 36.5489 42.1953 36.7783 42.1729L18.612 37.3034Z" fill="#39A577"/>
<path d="M21.4197 33.5061H41.852C42.9435 33.5061 43.8293 32.6202 43.8293 31.5287V19.6648C43.8293 18.5733 42.9435 17.6875 41.852 17.6875H21.4197C20.3282 17.6875 19.4424 18.5733 19.4424 19.6648V31.5287C19.4424 32.6202 20.3282 33.5061 21.4197 33.5061Z" fill="#F3F3F1"/>
<path d="M21.4197 33.5061H41.852C42.9435 33.5061 43.8293 32.6202 43.8293 31.5287V19.6648C43.8293 18.5733 42.9435 17.6875 41.852 17.6875H21.4197C20.3282 17.6875 19.4424 18.5733 19.4424 19.6648V31.5287C19.4424 32.6202 20.3282 33.5061 21.4197 33.5061Z" fill="#49CA93"/>
<path d="M22.4084 31.5287V19.6648C22.4084 18.5733 23.2942 17.6875 24.3857 17.6875H21.4197C20.3282 17.6875 19.4424 18.5733 19.4424 19.6648V31.5287C19.4424 32.6202 20.3282 33.5061 21.4197 33.5061H24.3857C23.2942 33.5061 22.4084 32.6202 22.4084 31.5287Z" fill="#39A577"/>
<path d="M31.6359 28.5648C33.274 28.5648 34.6019 27.2369 34.6019 25.5988C34.6019 23.9607 33.274 22.6328 31.6359 22.6328C29.9978 22.6328 28.6699 23.9607 28.6699 25.5988C28.6699 27.2369 29.9978 28.5648 31.6359 28.5648Z" fill="#49CA93"/>
<path d="M41.8519 34.4951H21.4196C19.7837 34.4951 18.4536 33.165 18.4536 31.5291V19.6652C18.4536 18.0293 19.7837 16.6992 21.4196 16.6992H41.8519C43.4878 16.6992 44.8179 18.0293 44.8179 19.6652V31.5291C44.8179 33.165 43.4878 34.4951 41.8519 34.4951ZM21.4196 18.6765C20.8739 18.6765 20.4309 19.1195 20.4309 19.6652V31.5291C20.4309 32.0749 20.8739 32.5178 21.4196 32.5178H41.8519C42.3976 32.5178 42.8406 32.0749 42.8406 31.5291V19.6652C42.8406 19.1195 42.3976 18.6765 41.8519 18.6765H21.4196Z" fill="white"/>
<path d="M36.5172 43.0621C36.2681 43.0621 36.0136 43.0304 35.7605 42.9645L15.377 37.5058C13.8044 37.0721 12.8671 35.4454 13.2784 33.8741L15.5708 25.3281L17.4809 25.8409L15.1898 34.3816C15.0527 34.9049 15.3678 35.452 15.8951 35.597L36.2681 41.0531C36.5198 41.1203 36.7874 41.0834 37.0155 40.9529C37.2409 40.8224 37.4017 40.6115 37.4676 40.3597L38.2309 37.5321L40.1397 38.0476L39.3777 40.8685C39.0337 42.1854 37.8315 43.0621 36.5172 43.0621Z" fill="white"/>
<path d="M31.6358 29.5499C29.4555 29.5499 27.6812 27.7756 27.6812 25.5953C27.6812 23.4149 29.4555 21.6406 31.6358 21.6406C33.8161 21.6406 35.5904 23.4149 35.5904 25.5953C35.5904 27.7756 33.8161 29.5499 31.6358 29.5499ZM31.6358 23.6179C30.5456 23.6179 29.6585 24.5051 29.6585 25.5953C29.6585 26.6854 30.5456 27.5726 31.6358 27.5726C32.726 27.5726 33.6131 26.6854 33.6131 25.5953C33.6131 24.5051 32.726 23.6179 31.6358 23.6179Z" fill="white"/>
<path d="M23.397 20.6523H25.3743V22.6297H23.397V20.6523Z" fill="#39A577"/>
<path d="M37.8975 28.5625H39.8748V30.5398H37.8975V28.5625Z" fill="#39A577"/>
<defs>
<linearGradient id="paint0_linear" x1="43.0606" y1="-1.75758" x2="18.4545" y2="58" gradientUnits="userSpaceOnUse">
<stop stop-color="#20D386"/>
<stop offset="1" stop-color="#1CA469"/>
</linearGradient>
</defs>
</svg>
