<svg width="58" height="58" viewBox="0 0 58 58" fill="none" xmlns="http://www.w3.org/2000/svg">
<rect width="58" height="58" rx="29" fill="url(#paint0_linear)"/>
<path d="M31.4698 21.9617C31.4698 18.4726 33.9851 15.5762 37.3001 14.9722C36.8849 14.8971 36.4583 14.8516 36.0203 14.8516C32.0932 14.8516 28.9102 18.0346 28.9102 21.9617C28.9102 25.8888 32.0932 29.0719 36.0203 29.0719C36.4583 29.0719 36.8849 29.0264 37.3001 28.9513C33.9851 28.3472 31.4698 25.4508 31.4698 21.9617Z" fill="#2B2C51"/>
<path d="M19.2404 40.4508H36.8736C37.8155 40.4508 38.58 39.6863 38.58 38.7444V27.9369C38.58 26.995 37.8155 26.2305 36.8736 26.2305H19.2404C18.2984 26.2305 17.5339 26.995 17.5339 27.9369V38.7444C17.5339 39.6863 18.2984 40.4508 19.2404 40.4508Z" fill="#43456B"/>
<path d="M20.8765 38.7444V27.9369C20.8765 26.995 21.8749 26.2305 23.105 26.2305H19.7623C18.5323 26.2305 17.5339 26.995 17.5339 27.9369V38.7444C17.5339 39.6863 18.5323 40.4508 19.7623 40.4508H23.105C21.8749 40.4508 20.8765 39.6863 20.8765 38.7444Z" fill="#2B2C51"/>
<path d="M37.3487 41.3028H19.3006C17.8555 41.3028 16.6807 40.1453 16.6807 38.7216V27.8234C16.6807 26.4008 17.8555 25.2422 19.3006 25.2422H37.3487C38.7937 25.2422 39.9685 26.4008 39.9685 27.8234V38.7216C39.9685 40.1453 38.7937 41.3028 37.3487 41.3028ZM19.3006 26.963C18.8185 26.963 18.4273 27.3496 18.4273 27.8234V38.7216C18.4273 39.1954 18.8185 39.582 19.3006 39.582H37.3487C37.8307 39.582 38.222 39.1954 38.222 38.7216V27.8234C38.222 27.3496 37.8307 26.963 37.3487 26.963H19.3006Z" fill="white"/>
<path d="M27.0075 34.0258C27.2126 34.1139 27.4475 34.0846 27.6205 33.9492L30.1997 31.9315C30.284 31.8656 30.3323 31.7692 30.3323 31.6669C30.3323 31.5647 30.284 31.4682 30.1997 31.4024L27.6205 29.3846C27.4474 29.2493 27.2125 29.2198 27.0075 29.3081C26.8003 29.3973 26.6714 29.5849 26.6714 29.7978V30.1945L24.2251 30.478C23.5865 30.5521 23.105 31.0631 23.105 31.6669C23.105 32.2706 23.5865 32.7817 24.2251 32.8557L26.6714 33.1393V33.5359C26.6714 33.7489 26.8003 33.9366 27.0075 34.0258Z" fill="white"/>
<path d="M29.6417 38.0414C29.8489 37.9522 29.9778 37.7646 29.9778 37.5515V37.155L32.4241 36.8714C33.0627 36.7974 33.5442 36.2862 33.5442 35.6825C33.5442 35.0788 33.0627 34.5678 32.4241 34.4937L29.9778 34.2102V33.8135C29.9778 33.6005 29.8489 33.4129 29.6416 33.3237C29.4366 33.2355 29.2017 33.2648 29.0287 33.4003L26.4493 35.4181C26.3652 35.484 26.3169 35.5804 26.3169 35.6825C26.3169 35.7848 26.3652 35.8811 26.4493 35.947L29.0287 37.9649C29.2018 38.1002 29.4366 38.1295 29.6417 38.0414Z" fill="white"/>
<path d="M37.4814 23.6368C37.4498 23.2608 37.1523 22.9783 36.7904 22.9783H35.9338C34.6161 22.9783 33.5442 21.8678 33.5442 20.5028C33.5442 19.1261 34.6161 18.0156 35.9338 18.0156H38.3347V19.766H35.9338C35.5415 19.766 35.2349 20.0848 35.2349 20.4899C35.2349 20.9068 35.5415 21.2256 35.9338 21.2256H36.7904C38.0382 21.2256 39.0594 22.1971 39.1654 23.4862L37.4814 23.6368Z" fill="white"/>
<path d="M35.1504 17.2109H36.7565V18.817H35.1504V17.2109Z" fill="white"/>
<path d="M42.0541 27.6515L40.7509 26.4932C41.726 25.3278 42.2629 23.8303 42.2629 22.2736C42.2629 18.69 39.4328 15.7729 35.9534 15.7729C32.474 15.7729 29.6439 18.69 29.6439 22.2736C29.6439 22.7322 29.6863 23.153 29.7724 23.562L28.0917 23.9402C27.9782 23.406 27.9231 22.8611 27.9231 22.2736C27.9231 17.7125 31.5253 14 35.9534 14C40.3815 14 43.9837 17.7125 43.9837 22.2736C43.9837 24.2546 43.2988 26.1646 42.0541 27.6515Z" fill="white"/>
<defs>
<linearGradient id="paint0_linear" x1="39.5455" y1="3.02375e-07" x2="19.3333" y2="58" gradientUnits="userSpaceOnUse">
<stop stop-color="#545787"/>
<stop offset="1" stop-color="#2C2D43"/>
</linearGradient>
</defs>
</svg>
