<svg width="58" height="58" viewBox="0 0 58 58" fill="none" xmlns="http://www.w3.org/2000/svg">
<rect width="58" height="58" rx="29" fill="url(#paint0_linear)"/>
<path d="M27.7873 43.5251H24.0809C20.8378 43.5251 18.1738 40.6459 18.1738 37.1408V23.8715C18.1738 22.1189 18.753 20.4916 19.9112 19.3649L23.9651 14.9835C26.2816 12.4799 29.988 12.4799 32.3045 14.8583C30.6829 14.7332 28.9456 15.3591 27.6715 16.7361L22.4594 22.3693C22.1119 22.7448 21.8802 23.3707 21.8802 23.9967V37.1408C21.8802 40.6459 24.4284 43.5251 27.7873 43.5251Z" fill="#A7DAA6" fill-opacity="0.5"/>
<path d="M33.5134 43.2556C33.5134 42.5173 32.8924 42.0251 32.2714 42.0251H23.7009C20.8441 42.0251 18.6084 39.8101 18.6084 36.9799V23.9362C18.6084 22.5826 19.1052 21.3521 20.0989 20.3676L24.4462 16.0608C26.4335 14.0919 29.663 14.0919 31.6503 16.0608L35.9976 20.3676C36.6187 20.9829 37.1155 21.7212 37.3639 22.5826C37.6123 23.1979 38.2334 23.6901 38.9786 23.444C39.5997 23.1979 40.0965 22.5826 39.8481 21.8443C39.4755 20.6138 38.8544 19.3832 37.8608 18.5218L33.5134 14.215C30.5324 11.2617 25.6883 11.2617 22.7073 14.215L18.2358 18.6449C16.7453 20.1215 16 21.9673 16 24.0593V36.9799C16 41.1637 19.4778 44.6092 23.7009 44.6092H32.2714C32.8924 44.4862 33.5134 43.994 33.5134 43.2556ZM27.9241 20.7368C27.0546 20.7368 26.3093 21.4751 26.3093 22.3365C26.3093 23.1979 27.0546 23.9362 27.9241 23.9362C28.7935 23.9362 29.5388 23.1979 29.5388 22.3365C29.5388 21.3521 28.7935 20.7368 27.9241 20.7368Z" fill="white"/>
<path d="M39.3036 29.5974C40.174 29.5974 40.8796 28.8918 40.8796 28.0214C40.8796 27.1509 40.174 26.4453 39.3036 26.4453C38.4332 26.4453 37.7275 27.1509 37.7275 28.0214C37.7275 28.8918 38.4332 29.5974 39.3036 29.5974Z" fill="white"/>
<path d="M29.9678 38.3178C29.9678 37.5904 30.5739 37.1055 31.1801 37.1055H39.7877C40.5151 37.1055 41.0001 37.7116 41.0001 38.3178C41.0001 38.924 40.3939 39.5301 39.7877 39.5301H31.1801C30.4527 39.5301 29.9678 39.0452 29.9678 38.3178Z" fill="white"/>
<path d="M29.9678 33.5912C29.9678 32.8638 30.5739 32.3789 31.1801 32.3789H39.7877C40.5151 32.3789 41.0001 32.9851 41.0001 33.5912C41.0001 34.1974 40.3939 34.8036 39.7877 34.8036H31.1801C30.4527 34.8036 29.9678 34.1974 29.9678 33.5912Z" fill="white"/>
<defs>
<linearGradient id="paint0_linear" x1="39.5455" y1="3.02375e-07" x2="19.3333" y2="58" gradientUnits="userSpaceOnUse">
<stop stop-color="#545787"/>
<stop offset="1" stop-color="#2C2D43"/>
</linearGradient>
</defs>
</svg>
