<svg width="58" height="58" viewBox="0 0 58 58" fill="none" xmlns="http://www.w3.org/2000/svg">
<rect width="58" height="58" rx="29" fill="white"/>
<path d="M37.4362 17.1198C36.1261 15.6358 33.7552 15 30.7221 15H21.9197C21.2998 15 20.7729 15.4478 20.6746 16.0538L17.0093 39.1151C16.9373 39.5699 17.2921 39.9809 17.7557 39.9809H23.1896L24.5542 31.3928L24.512 31.6633C24.6086 31.0574 25.1337 30.6095 25.7537 30.6095H28.3354C33.4092 30.6095 37.3801 28.5653 38.5409 22.652C38.5761 22.4764 38.6305 22.1392 38.6305 22.1392C38.9606 19.9509 38.6287 18.4668 37.4362 17.1198Z" fill="#DDDDDD"/>
<path d="M40.0056 23.2617C38.7447 29.0837 34.7211 32.1642 28.3354 32.1642H26.0206L24.2925 43.1021H28.0473C28.59 43.1021 29.0519 42.7104 29.1362 42.1783L29.1801 41.9465L30.0442 36.5179L30.1004 36.2193C30.1847 35.6872 30.6466 35.2955 31.1875 35.2955H31.8742C36.3123 35.2955 39.7861 33.5077 40.8012 28.3355C41.2087 26.2596 41.012 24.5192 40.0056 23.2617Z" fill="#808080"/>
</svg>
