<svg width="58" height="58" viewBox="0 0 58 58" fill="none" xmlns="http://www.w3.org/2000/svg">
<rect width="58" height="58" rx="29" fill="white"/>
<path d="M36.5259 22.0898C38.4589 22.0898 40.0259 20.5228 40.0259 18.5898C40.0259 16.6568 38.4589 15.0898 36.5259 15.0898C34.5929 15.0898 33.0259 16.6568 33.0259 18.5898C33.0259 20.5228 34.5929 22.0898 36.5259 22.0898Z" fill="#DDDDDD"/>
<path d="M25.5422 28.3594C27.4752 28.3594 29.0422 26.7924 29.0422 24.8594C29.0422 22.9264 27.4752 21.3594 25.5422 21.3594C23.6092 21.3594 22.0422 22.9264 22.0422 24.8594C22.0422 26.7924 23.6092 28.3594 25.5422 28.3594Z" fill="#DDDDDD"/>
<path d="M42.7279 45.9992H22.2253C20.6077 45.9992 19.2964 44.7648 19.2964 43.2421V28.9055C19.2964 27.3828 20.6077 26.1484 22.2253 26.1484H42.7279C44.3455 26.1484 45.6569 27.3828 45.6569 28.9055V43.2421C45.6569 44.7648 44.3455 45.9992 42.7279 45.9992Z" fill="#DDDDDD"/>
<path d="M39.4939 45.9992H19.4185C17.8346 45.9992 16.5505 44.7648 16.5505 43.2421V28.9055C16.5505 27.3828 17.8346 26.1484 19.4185 26.1484H39.4939C41.0778 26.1484 42.3619 27.3828 42.3619 28.9055V43.2421C42.3619 44.7648 41.0778 45.9992 39.4939 45.9992Z" fill="#808080"/>
<path d="M45.657 32.9414H34.263C32.6699 32.9414 31.3784 34.2278 31.3784 35.8145C31.3784 37.4013 32.6699 38.6877 34.263 38.6877H45.657V32.9414Z" fill="#DDDDDD"/>
<path d="M34.5259 34.5547C34.1299 34.5547 33.7429 34.7152 33.4639 34.9942C33.1849 35.2732 33.0259 35.6602 33.0259 36.0547C33.0259 36.4492 33.1849 36.8362 33.4639 37.1152C33.7444 37.3942 34.1299 37.5547 34.5259 37.5547C34.9204 37.5547 35.3059 37.3942 35.5864 37.1152C35.8654 36.8362 36.0259 36.4492 36.0259 36.0547C36.0259 35.6602 35.8654 35.2732 35.5864 34.9942C35.3074 34.715 34.9204 34.5547 34.5259 34.5547Z" fill="#808080"/>
<rect x="25" y="11" width="2" height="5" rx="1" fill="#808080"/>
<rect x="28" y="11" width="2" height="8" rx="1" fill="#808080"/>
<path d="M16.9521 37.5547C17.3466 37.5547 17.7336 37.3942 18.0126 37.1152C18.2916 36.8362 18.4521 36.4492 18.4521 36.0547C18.4521 35.6602 18.2916 35.2732 18.0126 34.9942C17.7336 34.7152 17.3481 34.5547 16.9521 34.5547C16.5576 34.5547 16.1706 34.7152 15.8916 34.9942C15.6126 35.2732 15.4521 35.6602 15.4521 36.0547C15.4521 36.4492 15.6126 36.8362 15.8916 37.1152C16.1706 37.3942 16.5575 37.5547 16.9521 37.5547Z" fill="#808080"/>
</svg>
