<svg width="58" height="58" viewBox="0 0 58 58" fill="none" xmlns="http://www.w3.org/2000/svg">
<rect width="58" height="58" rx="29" fill="url(#paint0_linear)"/>
<path d="M18.6458 29.7518L18.3679 30.7668L16.5917 37.328L16.2292 38.6692H12.9062V28.3984C16.8937 28.3984 18.6458 29.7518 18.6458 29.7518V29.7518Z" fill="white"/>
<path d="M12.9062 28.3984V38.6692H15.625V28.6401C14.8686 28.4975 13.9732 28.3984 12.9062 28.3984Z" fill="#3088D1"/>
<path d="M40.0914 36.2549C40.0914 36.2549 31.3317 41.0878 27.707 41.0878C24.8314 41.0878 18.9111 38.4176 16.5913 37.3302L18.3674 30.7695L30.0027 33.1497C31.1263 33.3793 31.9358 34.3701 31.9358 35.5179V36.0495C33.6757 35.5058 35.5001 34.7446 37.0708 34.7446C39.4873 34.7446 40.0914 36.2549 40.0914 36.2549V36.2549Z" fill="#2EB9FF"/>
<path d="M19.3098 37.9304L21.0859 31.3697L30.4437 33.2836C30.3023 33.2256 30.1561 33.1773 30.0027 33.1458L18.3674 30.7656L16.5913 37.3263C18.7528 38.34 24.0388 40.7251 27.0763 41.0453C24.2285 40.185 20.9119 38.6807 19.3098 37.9304Z" fill="#3088D1"/>
<path d="M16.5913 38.2296L15.946 37.9674L16.5671 37.3294V36.4062L17.2124 36.6685L16.5913 37.3052V38.2296Z" fill="black"/>
<path d="M34.2617 17.6325H34.1409L37.3125 15.2294C38.0024 14.7086 37.6109 13.6562 36.7337 13.6562H28.0598C27.1826 13.6562 26.7912 14.7074 27.4811 15.2294L30.6527 17.6325H30.5319C27.3047 19.4256 24.7021 24.5328 24.7021 28.2348C24.7021 30.8856 26.1013 33.5353 29.3659 33.5353H35.662C38.9267 33.5353 40.0926 30.8844 40.0926 28.2348C40.0914 24.5328 37.4889 19.4256 34.2617 17.6325V17.6325Z" fill="#01AEFF"/>
<path d="M27.4207 28.2348C27.4207 24.5328 30.0232 19.4268 33.2504 17.6325H33.3712L30.1996 15.2294C29.5097 14.7086 29.9012 13.6562 30.7783 13.6562H28.0598C27.1826 13.6562 26.7912 14.7074 27.4811 15.2294L30.6527 17.6325H30.5319C27.3047 19.4256 24.7021 24.5328 24.7021 28.2348C24.7021 30.8856 26.1013 33.5353 29.3659 33.5353H32.0844C28.8186 33.5353 27.4207 30.8844 27.4207 28.2348Z" fill="#3088D1"/>
<path d="M40.8405 29.9128H39.0281V27.6413C39.0281 23.5563 35.8952 18.5675 32.2379 18.5675C32.1932 18.5675 32.1509 18.5638 32.1086 18.5578C28.5081 18.6859 25.4488 23.6094 25.4488 27.6413V27.7984H23.6365V27.6413C23.6365 22.7165 27.4726 16.7563 32.2367 16.743C32.2802 16.7394 32.3442 16.7479 32.3974 16.7575C37.165 16.8832 40.8417 22.6622 40.8417 27.6413V29.9128H40.8405Z" fill="white"/>
<path d="M30.1151 18.3597L27.2854 16.0955C26.7018 15.6291 26.4819 14.8703 26.7308 14.1635C26.9773 13.4567 27.6201 13 28.368 13H36.1091C36.857 13 37.4998 13.4567 37.7463 14.1647C37.9939 14.8716 37.774 15.6303 37.1893 16.0979L34.362 18.3609L33.2287 16.9437L35.8928 14.8123H28.5818L31.2472 16.9449L30.1151 18.3597Z" fill="white"/>
<path d="M27.8677 16.7422H36.6075V18.5547H27.8677V16.7422Z" fill="white"/>
<path d="M16.2288 39.5745H12.9062C12.406 39.5745 12 39.1685 12 38.6683V28.3984C12 27.8982 12.406 27.4922 12.9062 27.4922C17.141 27.4922 19.1141 28.9626 19.1962 29.0254C19.4886 29.249 19.6167 29.6271 19.5212 29.9824L17.1048 38.9064C16.996 39.3002 16.6384 39.5745 16.2288 39.5745ZM13.8123 37.7622H15.5353L17.5869 30.1853C16.955 29.8869 15.7189 29.4423 13.8111 29.3311V37.7622H13.8123Z" fill="white"/>
<path d="M27.7069 41.9981C24.7951 41.9981 19.236 39.5816 16.1804 38.1426L16.9537 36.5031C21.9183 38.8446 25.8378 40.187 27.7069 40.187C30.1572 40.187 35.7199 37.5409 38.6342 36.0137C38.2983 35.8216 37.7981 35.6561 37.0707 35.6561C36.0099 35.6561 34.699 36.0923 33.4303 36.5164C32.0252 36.9852 30.5717 37.4684 29.2172 37.4684C26.6703 37.4684 23.3102 36.2566 23.1688 36.2058L23.7874 34.5022C23.8189 34.5143 26.9917 35.6561 29.2172 35.6561C30.2781 35.6561 31.589 35.2199 32.8576 34.7958C34.2628 34.327 35.7163 33.8438 37.0707 33.8438C40.0659 33.8438 40.8984 35.8385 40.9322 35.9243C41.1026 36.3496 40.9298 36.8329 40.5287 37.054C40.1626 37.2546 31.5213 41.9981 27.7069 41.9981Z" fill="white"/>
<path d="M32.8421 36.0641H31.0298V35.5204C31.0298 34.8051 30.5223 34.1829 29.8215 34.0403L18.1851 31.6577L18.5487 29.8828L30.184 32.2642C31.7233 32.5772 32.8409 33.9473 32.8409 35.5192V36.0641H32.8421Z" fill="white"/>
<defs>
<linearGradient id="paint0_linear" x1="39.5455" y1="3.02375e-07" x2="19.3333" y2="58" gradientUnits="userSpaceOnUse">
<stop stop-color="#00C1FF"/>
<stop offset="1" stop-color="#0085FF"/>
</linearGradient>
</defs>
</svg>
