<svg width="58" height="58" viewBox="0 0 58 58" fill="none" xmlns="http://www.w3.org/2000/svg">
<rect width="58" height="58" rx="29" fill="url(#paint0_linear)"/>
<path d="M17.2739 30.2422H40.0952V38.385C40.0952 39.4895 39.1998 40.385 38.0952 40.385H19.2739C18.1694 40.385 17.2739 39.4895 17.2739 38.385V30.2422Z" fill="#43456B"/>
<path d="M14.9863 23.5H42.4861V29.1666C42.4861 29.7189 42.0384 30.1666 41.4861 30.1666H15.9863C15.434 30.1666 14.9863 29.7189 14.9863 29.1666V23.5Z" fill="#43456B"/>
<path d="M17.2739 30.043H20.0047V40.3808C18.4965 40.3808 17.2739 39.1582 17.2739 37.6501V30.043Z" fill="#2B2C51"/>
<path d="M14.9863 23.5H17.4863V30.1666H15.9863C15.434 30.1666 14.9863 29.7189 14.9863 29.1666V23.5Z" fill="#2B2C51"/>
<path d="M41.5822 30.6256H15.9815C14.9733 30.6256 14.1528 29.8192 14.1528 28.8283V24.0356C14.1528 23.0447 14.9733 22.2383 15.9815 22.2383H41.5822C42.5904 22.2383 43.4109 23.0447 43.4109 24.0356V28.8283C43.4109 29.8192 42.5904 30.6256 41.5822 30.6256ZM15.9815 23.4365C15.6462 23.4365 15.3719 23.7049 15.3719 24.0356V28.8283C15.3719 29.159 15.6462 29.4274 15.9815 29.4274H41.5822C41.9175 29.4274 42.1918 29.159 42.1918 28.8283V24.0356C42.1918 23.7049 41.9175 23.4365 41.5822 23.4365H15.9815Z" fill="white"/>
<path d="M28.6049 23.3414L28.6032 23.349C28.2227 23.2644 27.0701 22.999 25.8844 22.6272C25.2917 22.4413 24.6879 22.228 24.167 21.9964C23.6503 21.7666 23.1994 21.5121 22.9256 21.2384C22.3284 20.6435 21.9999 19.8498 21.9999 19.0065C21.9999 18.1632 22.3284 17.3696 22.9243 16.7736C24.1557 15.5422 26.1584 15.5421 27.3886 16.7737C27.6624 17.0472 27.9169 17.498 28.1466 18.0147C28.3783 18.5357 28.5915 19.1396 28.7774 19.7325C28.7789 19.7373 28.7804 19.7421 28.7819 19.7469C28.7832 19.7425 28.7846 19.7382 28.786 19.7338C28.9718 19.1409 29.185 18.537 29.4166 18.0159C29.6463 17.499 29.9008 17.048 30.1744 16.7742C30.1745 16.7742 30.1745 16.7742 30.1745 16.7742L30.2806 16.8802C31.4532 15.706 33.3606 15.7072 34.532 16.8802L28.6049 23.3414ZM28.6049 23.3414L28.6032 23.349C28.6569 23.3609 28.7111 23.367 28.7656 23.367C28.7712 23.367 28.7767 23.3669 28.7823 23.3668C28.7878 23.3669 28.7934 23.367 28.7989 23.367C28.8534 23.367 28.9062 23.3609 28.9579 23.3511L28.9579 23.3512L28.9625 23.3502C29.343 23.2656 30.4954 23.0001 31.6809 22.6283C32.2735 22.4424 32.8772 22.2291 33.398 21.9975C33.9147 21.7676 34.3656 21.513 34.6393 21.2392C35.2351 20.6432 35.5635 19.8495 35.5635 19.0061C35.5635 18.1628 35.2352 17.3691 34.6381 16.7742L28.6049 23.3414ZM26.3257 17.8371L26.326 17.8375C26.4238 17.9352 26.5419 18.1252 26.6724 18.398C26.8008 18.6666 26.9347 19.0012 27.0682 19.3753C27.3085 20.049 27.5448 20.8431 27.7431 21.5942C26.9921 21.3963 26.1982 21.16 25.5246 20.9195C25.1505 20.786 24.816 20.6519 24.5474 20.5234C24.2747 20.3929 24.0847 20.2747 23.987 20.1769C23.6745 19.8633 23.5028 19.449 23.5028 19.0065C23.5028 18.564 23.6745 18.1498 23.987 17.8361C24.3088 17.5144 24.7331 17.3533 25.1571 17.3533C25.5811 17.3533 26.0053 17.5144 26.3257 17.8371ZM33.5758 20.1752L33.5756 20.1754C33.4779 20.2731 33.2879 20.3914 33.0152 20.522C32.7467 20.6505 32.4122 20.7845 32.0382 20.9181C31.3647 21.1586 30.5709 21.395 29.8201 21.5928C30.0184 20.8416 30.2546 20.0474 30.4949 19.3737C30.6284 18.9995 30.7622 18.6649 30.8907 18.3963C31.0211 18.1234 31.1392 17.9334 31.2369 17.8357C31.5587 17.5138 31.9829 17.3527 32.4069 17.3527C32.8308 17.3527 33.255 17.5138 33.5767 17.8355C33.8891 18.1492 34.0609 18.5635 34.0609 19.0061C34.0609 19.4487 33.8891 19.8629 33.5758 20.1752Z" fill="white" stroke="white" stroke-width="0.3"/>
<path fill-rule="evenodd" clip-rule="evenodd" d="M16.5894 29.9922V38.1915C16.5894 39.8701 17.9549 41.2369 19.6347 41.2369H37.9071C39.5869 41.2369 40.9525 39.8701 40.9525 38.1915V29.9922H39.7343V38.1915C39.7343 39.1989 38.9145 40.0187 37.9071 40.0187H19.6347C18.6273 40.0187 17.8075 39.1989 17.8075 38.1915V29.9922H16.5894Z" fill="white"/>
<path fill-rule="evenodd" clip-rule="evenodd" d="M25.1162 29.9922V35.7574C25.1162 35.9913 25.2502 36.2045 25.4609 36.3056C25.6729 36.4067 25.9214 36.3775 26.1054 36.2325L28.7707 34.1007L31.436 36.2337C31.5456 36.3214 31.6809 36.3665 31.8161 36.3665C31.905 36.3665 31.9951 36.347 32.0804 36.3068C32.2912 36.2045 32.4252 35.9913 32.4252 35.7574V29.9922H31.207V34.4893L29.152 32.8448C28.9278 32.667 28.6148 32.667 28.3906 32.8448L26.3344 34.4893V29.9922H25.1162Z" fill="white"/>
<defs>
<linearGradient id="paint0_linear" x1="39.5455" y1="3.02375e-07" x2="19.3333" y2="58" gradientUnits="userSpaceOnUse">
<stop stop-color="#545787"/>
<stop offset="1" stop-color="#2C2D43"/>
</linearGradient>
</defs>
</svg>
