<svg width="58" height="58" viewBox="0 0 58 58" fill="none" xmlns="http://www.w3.org/2000/svg">
<rect width="58" height="58" rx="29" fill="url(#paint0_linear)"/>
<path d="M40.9564 22.7292L39.2421 17.5863C39.1255 17.2361 38.7978 16.9999 38.4287 17H19.5714C19.2023 16.9999 18.8746 17.2361 18.758 17.5863L17.0437 22.7292C17.0173 22.8092 17.0025 22.8927 17 22.9769C17 22.9855 17 22.9915 17 23V23.8572C17.0031 25.2002 17.6382 26.4634 18.7143 27.2669C18.7143 27.2738 18.7143 27.2789 18.7143 27.2858V38.4287C18.7143 39.8488 19.8655 41.0001 21.2857 41.0001H36.7143C38.1345 41.0001 39.2858 39.8488 39.2858 38.4287V27.2858C39.2858 27.2789 39.2858 27.2737 39.2858 27.2669C40.3619 26.4634 40.997 25.2002 41.0001 23.8572V23C41.0001 22.9915 41.0001 22.9855 41.0001 22.9769C40.9975 22.8926 40.9828 22.8092 40.9564 22.7292ZM35.0001 18.7143H37.8107L38.9541 22.1429H35.0001V18.7143ZM29.8572 18.7143H33.2858V22.1429H29.8572V18.7143ZM24.7143 18.7143H28.1429V22.1429H24.7143V18.7143ZM20.1894 18.7143H23V22.1429H19.046L20.1894 18.7143ZM30.7144 39.2858H27.2858V32.4286H30.7144V39.2858ZM37.5715 38.4287C37.5715 38.9021 37.1877 39.2858 36.7143 39.2858H32.4286V31.5715C32.4286 31.0981 32.0449 30.7144 31.5715 30.7144H26.4286C25.9552 30.7144 25.5714 31.0981 25.5714 31.5715V39.2858H21.2857C20.8123 39.2858 20.4286 38.9021 20.4286 38.4287V28.0572C21.6315 28.3041 22.8823 28.0171 23.8572 27.2703C25.3873 28.3941 27.4699 28.3941 29 27.2703C30.5301 28.3941 32.6128 28.3941 34.1429 27.2703C35.1177 28.0171 36.3686 28.3041 37.5715 28.0572V38.4287V38.4287ZM36.7143 26.4286C35.9731 26.4281 35.2692 26.103 34.7883 25.5389C34.4768 25.1824 33.9353 25.146 33.5789 25.4575C33.55 25.4827 33.5227 25.51 33.4975 25.5389C32.5444 26.6026 30.9095 26.6923 29.8458 25.7392C29.7754 25.6761 29.7085 25.6093 29.6454 25.5389C29.31 25.1824 28.7491 25.1654 28.3926 25.5009C28.3796 25.5132 28.3669 25.5258 28.3546 25.5389C27.4016 26.6026 25.7666 26.6923 24.7029 25.7392C24.6325 25.6761 24.5657 25.6093 24.5026 25.5389C24.1671 25.1824 23.6062 25.1654 23.2497 25.5009C23.2367 25.5132 23.224 25.5258 23.2117 25.5389C22.7308 26.103 22.027 26.4281 21.2857 26.4286C19.8655 26.4286 18.7143 25.2773 18.7143 23.8572H39.2858C39.2858 25.2773 38.1345 26.4286 36.7143 26.4286Z" fill="white"/>
<rect x="20" y="27" width="3" height="13" fill="white" fill-opacity="0.5"/>
<path d="M21 22.5L22 18.5L19.5 18L19 19L18 21.5V23.5V25.5L20.5 27L23 26.5C21.4 26.1 21 23.6667 21 22.5Z" fill="white" fill-opacity="0.5"/>
<defs>
<linearGradient id="paint0_linear" x1="43.0606" y1="-1.75758" x2="18.4545" y2="58" gradientUnits="userSpaceOnUse">
<stop stop-color="#20D386"/>
<stop offset="1" stop-color="#1CA469"/>
</linearGradient>
</defs>
</svg>
