<svg width="58" height="58" viewBox="0 0 58 58" fill="none" xmlns="http://www.w3.org/2000/svg">
<rect width="58" height="58" rx="29" fill="url(#paint0_linear)"/>
<path d="M29.7873 42.9157H26.0809C22.8378 42.9157 20.1738 40.0365 20.1738 36.5314V23.2621C20.1738 21.5096 20.753 19.8822 21.9112 18.7555L25.9651 14.3742C28.2816 11.8705 31.988 11.8705 34.3045 14.249C32.6829 14.1238 30.9456 14.7497 29.6715 16.1267L24.4594 21.7599C24.1119 22.1355 23.8802 22.7614 23.8802 23.3873V36.5314C23.8802 40.0365 26.4284 42.9157 29.7873 42.9157Z" fill="#A7DAA6" fill-opacity="0.5"/>
<path d="M35.5134 42.6463C35.5134 41.9079 34.8924 41.4157 34.2714 41.4157H25.7009C22.8441 41.4157 20.6084 39.2008 20.6084 36.3705V23.3268C20.6084 21.9732 21.1052 20.7427 22.0989 19.7583L26.4462 15.4514C28.4335 13.4825 31.663 13.4825 33.6503 15.4514L37.9976 19.7583C38.6187 20.3735 39.1155 21.1119 39.3639 21.9732C39.6123 22.5885 40.2334 23.0807 40.9786 22.8346C41.5997 22.5885 42.0965 21.9732 41.8481 21.2349C41.4755 20.0044 40.8544 18.7738 39.8608 17.9125L35.5134 13.6056C32.5324 10.6523 27.6883 10.6523 24.7073 13.6056L20.2358 18.0355C18.7453 19.5122 18 21.358 18 23.4499V36.3705C18 40.5543 21.4778 43.9998 25.7009 43.9998H34.2714C34.8924 43.8768 35.5134 43.3846 35.5134 42.6463ZM29.9241 20.1274C29.0546 20.1274 28.3093 20.8658 28.3093 21.7271C28.3093 22.5885 29.0546 23.3268 29.9241 23.3268C30.7935 23.3268 31.5388 22.5885 31.5388 21.7271C31.5388 20.7427 30.7935 20.1274 29.9241 20.1274Z" fill="white"/>
<path d="M41.3036 28.988C42.174 28.988 42.8796 28.2824 42.8796 27.412C42.8796 26.5416 42.174 25.8359 41.3036 25.8359C40.4332 25.8359 39.7275 26.5416 39.7275 27.412C39.7275 28.2824 40.4332 28.988 41.3036 28.988Z" fill="white"/>
<path d="M31.9678 37.7084C31.9678 36.981 32.5739 36.4961 33.1801 36.4961H41.7877C42.5151 36.4961 43.0001 37.1023 43.0001 37.7084C43.0001 38.3146 42.3939 38.9208 41.7877 38.9208H33.1801C32.4527 38.9208 31.9678 38.4358 31.9678 37.7084Z" fill="white"/>
<path d="M31.9678 32.9819C31.9678 32.2545 32.5739 31.7695 33.1801 31.7695H41.7877C42.5151 31.7695 43.0001 32.3757 43.0001 32.9819C43.0001 33.588 42.3939 34.1942 41.7877 34.1942H33.1801C32.4527 34.1942 31.9678 33.588 31.9678 32.9819Z" fill="white"/>
<defs>
<linearGradient id="paint0_linear" x1="43.0606" y1="-1.75758" x2="18.4545" y2="58" gradientUnits="userSpaceOnUse">
<stop stop-color="#20D386"/>
<stop offset="1" stop-color="#1CA469"/>
</linearGradient>
</defs>
</svg>
