<svg width="58" height="58" viewBox="0 0 58 58" fill="none" xmlns="http://www.w3.org/2000/svg">
<rect width="58" height="58" rx="29" fill="url(#paint0_linear)"/>
<path d="M37.0714 19.9541V39.0414C37.0714 40.1763 36.1293 41.1049 34.9778 41.1049H23.9864C22.8349 41.1049 21.8928 40.1763 21.8928 39.0414V19.9541C21.8928 18.8192 22.8349 17.8906 23.9864 17.8906H24.5098C25.3787 17.8906 26.08 18.5819 26.08 19.4382C26.08 20.0057 26.5511 20.47 27.1268 20.47H31.8374C32.4131 20.47 32.8842 20.0057 32.8842 19.4382C32.8842 18.5819 33.5856 17.8906 34.4544 17.8906H34.9778C36.1293 17.8906 37.0714 18.8192 37.0714 19.9541Z" fill="#43456B"/>
<path d="M24.8971 39.1354V19.8646C24.8971 19.0719 25.5008 18.3865 26.3733 18.0344C26.0478 17.876 25.6615 17.7812 25.2433 17.7812H24.5509C23.0276 17.7812 21.7812 18.7187 21.7812 19.8646V39.1354C21.7812 40.2812 23.0276 41.2188 24.5509 41.2188H27.6667C26.1434 41.2188 24.8971 40.2812 24.8971 39.1354Z" fill="#2B2C51"/>
<path d="M44.049 33.9676H31.8797C31.2956 33.9676 30.8215 33.497 30.8215 32.9172V26.0895C30.8215 25.5097 31.2956 25.0391 31.8797 25.0391H44.049C44.6332 25.0391 45.1072 25.5097 45.1072 26.0895V32.9172C45.1072 33.497 44.6332 33.9676 44.049 33.9676Z" fill="#43456B"/>
<path d="M33.8846 32.685V26.3124C33.8846 25.7712 34.459 25.332 35.1667 25.332H32.2821C31.5744 25.332 31 25.7712 31 26.3124V32.685C31 33.2261 31.5744 33.6654 32.2821 33.6654H35.1667C34.459 33.6654 33.8846 33.2261 33.8846 32.685Z" fill="#343656"/>
<path d="M34.393 17.8906C33.5349 17.8906 32.8422 18.6085 32.8422 19.4978C32.8422 20.0871 32.377 20.5692 31.8084 20.5692H27.1561C26.5875 20.5692 26.1223 20.0871 26.1223 19.4978C26.1223 18.6085 25.4296 17.8906 24.5715 17.8906H34.393Z" fill="#43456B"/>
<path d="M28.8009 19.4978C28.8009 18.6085 28.0452 17.8906 27.1091 17.8906H24.5715C25.5076 17.8906 26.2633 18.6085 26.2633 19.4978C26.2633 20.0871 26.7708 20.5692 27.3911 20.5692H29.9287C29.3084 20.5692 28.8009 20.0871 28.8009 19.4978Z" fill="#343656"/>
<path d="M37.6667 31.1654C36.7475 31.1654 36 30.4179 36 29.4987C36 28.5795 36.7475 27.832 37.6667 27.832C38.5858 27.832 39.3333 28.5795 39.3333 29.4987C39.3333 30.4179 38.5858 31.1654 37.6667 31.1654ZM37.6667 29.082C37.4367 29.082 37.25 29.2687 37.25 29.4987C37.25 29.7287 37.4367 29.9154 37.6667 29.9154C37.8967 29.9154 38.0833 29.7287 38.0833 29.4987C38.0833 29.2687 37.8967 29.082 37.6667 29.082Z" fill="white"/>
<path d="M32.6667 28.6094H33.5596V30.3951H32.6667V28.6094Z" fill="white"/>
<path d="M41.5952 28.6094H42.4881V30.3951H41.5952V28.6094Z" fill="white"/>
<path d="M43.4167 34.5H31.9167C30.9517 34.5 30.1667 33.715 30.1667 32.75V26.25C30.1667 25.285 30.9517 24.5 31.9167 24.5H43.4167C44.3817 24.5 45.1667 25.285 45.1667 26.25V32.75C45.1667 33.715 44.3817 34.5 43.4167 34.5ZM31.9167 26C31.7787 26 31.6667 26.112 31.6667 26.25V32.75C31.6667 32.888 31.7787 33 31.9167 33H43.4167C43.5547 33 43.6667 32.888 43.6667 32.75V26.25C43.6667 26.112 43.5547 26 43.4167 26H31.9167Z" fill="white"/>
<path d="M31.677 21.1667H26.9895C25.9843 21.1667 25.1666 20.349 25.1666 19.3438C25.1666 18.9125 24.8166 18.5625 24.3853 18.5625H23.8645V17H24.3853C25.678 17 26.7291 18.051 26.7291 19.3438C26.7291 19.4875 26.8458 19.6042 26.9895 19.6042H31.677C31.8208 19.6042 31.9374 19.4875 31.9374 19.3438C31.9374 18.051 32.9885 17 34.2812 17H34.802V18.5625H34.2812C33.8499 18.5625 33.4999 18.9125 33.4999 19.3438C33.4999 20.349 32.6822 21.1667 31.677 21.1667Z" fill="white"/>
<path d="M34.8021 42H23.8646C22.2844 42 21 40.7156 21 39.1354V19.8646C21 18.2844 22.2844 17 23.8646 17H34.8021C36.3823 17 37.6667 18.2844 37.6667 19.8646V21.4271H36.1042V19.8646C36.1042 19.1469 35.5198 18.5625 34.8021 18.5625H23.8646C23.1469 18.5625 22.5625 19.1469 22.5625 19.8646V39.1354C22.5625 39.8531 23.1469 40.4375 23.8646 40.4375H34.8021C35.5198 40.4375 36.1042 39.8531 36.1042 39.1354V37.5729H37.6667V39.1354C37.6667 40.7156 36.3823 42 34.8021 42Z" fill="white"/>
<defs>
<linearGradient id="paint0_linear" x1="39.5455" y1="3.02375e-07" x2="19.3333" y2="58" gradientUnits="userSpaceOnUse">
<stop stop-color="#545787"/>
<stop offset="1" stop-color="#2C2D43"/>
</linearGradient>
</defs>
</svg>
