<svg width="751" height="291" viewBox="0 0 751 291" fill="none" xmlns="http://www.w3.org/2000/svg">
<rect y="2" width="751" height="287" rx="3" fill="white"/>
<rect x="10.4907" y="0.816406" width="716.509" height="1" fill="#F2F2F2"/>
<rect x="10.4907" y="68.8164" width="716.509" height="1" fill="#F2F2F2"/>
<path d="M296.471 21.3555V27.1562C296.467 27.9609 296.213 28.6191 295.709 29.1309C295.209 29.6426 294.529 29.9297 293.67 29.9922L293.371 30.0039C292.438 30.0039 291.693 29.752 291.139 29.248C290.584 28.7441 290.303 28.0508 290.295 27.168V21.3555H291.408V27.1328C291.408 27.75 291.578 28.2305 291.918 28.5742C292.258 28.9141 292.742 29.084 293.371 29.084C294.008 29.084 294.494 28.9141 294.83 28.5742C295.17 28.2344 295.34 27.7559 295.34 27.1387V21.3555H296.471ZM298.246 29.8867V21.3555H301.035C301.961 21.3555 302.656 21.5469 303.121 21.9297C303.59 22.3125 303.824 22.8789 303.824 23.6289C303.824 24.0273 303.711 24.3809 303.484 24.6895C303.258 24.9941 302.949 25.2305 302.559 25.3984C303.02 25.5273 303.383 25.7734 303.648 26.1367C303.918 26.4961 304.053 26.9258 304.053 27.4258C304.053 28.1914 303.805 28.793 303.309 29.2305C302.812 29.668 302.111 29.8867 301.205 29.8867H298.246ZM299.371 25.8965V28.9668H301.229C301.752 28.9668 302.164 28.832 302.465 28.5625C302.77 28.2891 302.922 27.9141 302.922 27.4375C302.922 26.4102 302.363 25.8965 301.246 25.8965H299.371ZM299.371 24.9941H301.07C301.562 24.9941 301.955 24.8711 302.248 24.625C302.545 24.3789 302.693 24.0449 302.693 23.623C302.693 23.1543 302.557 22.8145 302.283 22.6035C302.01 22.3887 301.594 22.2812 301.035 22.2812H299.371V24.9941ZM310.434 27.6602H306.859L306.057 29.8867H304.896L308.154 21.3555H309.139L312.402 29.8867H311.248L310.434 27.6602ZM307.199 26.7344H310.1L308.646 22.7441L307.199 26.7344ZM316.527 29.8867V21.3555H319.316C320.242 21.3555 320.938 21.5469 321.402 21.9297C321.871 22.3125 322.105 22.8789 322.105 23.6289C322.105 24.0273 321.992 24.3809 321.766 24.6895C321.539 24.9941 321.23 25.2305 320.84 25.3984C321.301 25.5273 321.664 25.7734 321.93 26.1367C322.199 26.4961 322.334 26.9258 322.334 27.4258C322.334 28.1914 322.086 28.793 321.59 29.2305C321.094 29.668 320.393 29.8867 319.486 29.8867H316.527ZM317.652 25.8965V28.9668H319.51C320.033 28.9668 320.445 28.832 320.746 28.5625C321.051 28.2891 321.203 27.9141 321.203 27.4375C321.203 26.4102 320.645 25.8965 319.527 25.8965H317.652ZM317.652 24.9941H319.352C319.844 24.9941 320.236 24.8711 320.529 24.625C320.826 24.3789 320.975 24.0449 320.975 23.623C320.975 23.1543 320.838 22.8145 320.564 22.6035C320.291 22.3887 319.875 22.2812 319.316 22.2812H317.652V24.9941ZM327.748 29.8867C327.686 29.7617 327.635 29.5391 327.596 29.2188C327.092 29.7422 326.49 30.0039 325.791 30.0039C325.166 30.0039 324.652 29.8281 324.25 29.4766C323.852 29.1211 323.652 28.6719 323.652 28.1289C323.652 27.4688 323.902 26.957 324.402 26.5938C324.906 26.2266 325.613 26.043 326.523 26.043H327.578V25.5449C327.578 25.166 327.465 24.8652 327.238 24.6426C327.012 24.416 326.678 24.3027 326.236 24.3027C325.85 24.3027 325.525 24.4004 325.264 24.5957C325.002 24.791 324.871 25.0273 324.871 25.3047H323.781C323.781 24.9883 323.893 24.6836 324.115 24.3906C324.342 24.0938 324.646 23.8594 325.029 23.6875C325.416 23.5156 325.84 23.4297 326.301 23.4297C327.031 23.4297 327.604 23.6133 328.018 23.9805C328.432 24.3438 328.646 24.8457 328.662 25.4863V28.4043C328.662 28.9863 328.736 29.4492 328.885 29.793V29.8867H327.748ZM325.949 29.0605C326.289 29.0605 326.611 28.9727 326.916 28.7969C327.221 28.6211 327.441 28.3926 327.578 28.1113V26.8105H326.729C325.4 26.8105 324.736 27.1992 324.736 27.9766C324.736 28.3164 324.85 28.582 325.076 28.7734C325.303 28.9648 325.594 29.0605 325.949 29.0605ZM331.387 23.5469L331.422 24.3438C331.906 23.7344 332.539 23.4297 333.32 23.4297C334.66 23.4297 335.336 24.1855 335.348 25.6973V29.8867H334.264V25.6914C334.26 25.2344 334.154 24.8965 333.947 24.6777C333.744 24.459 333.426 24.3496 332.992 24.3496C332.641 24.3496 332.332 24.4434 332.066 24.6309C331.801 24.8184 331.594 25.0645 331.445 25.3691V29.8867H330.361V23.5469H331.387ZM338.752 26.9512L338.072 27.6602V29.8867H336.988V20.8867H338.072V26.3301L338.652 25.6328L340.627 23.5469H341.945L339.479 26.1953L342.232 29.8867H340.961L338.752 26.9512ZM343.029 31.5859L342.414 31.1641C342.781 30.6523 342.973 30.125 342.988 29.582V28.6035H344.049V29.4531C344.049 29.8477 343.951 30.2422 343.756 30.6367C343.564 31.0312 343.322 31.3477 343.029 31.5859ZM354.842 27.1797C354.736 28.082 354.402 28.7793 353.84 29.2715C353.281 29.7598 352.537 30.0039 351.607 30.0039C350.6 30.0039 349.791 29.6426 349.182 28.9199C348.576 28.1973 348.273 27.2305 348.273 26.0195V25.1992C348.273 24.4062 348.414 23.709 348.695 23.1074C348.98 22.5059 349.383 22.0449 349.902 21.7246C350.422 21.4004 351.023 21.2383 351.707 21.2383C352.613 21.2383 353.34 21.4922 353.887 22C354.434 22.5039 354.752 23.2031 354.842 24.0977H353.711C353.613 23.418 353.4 22.9258 353.072 22.6211C352.748 22.3164 352.293 22.1641 351.707 22.1641C350.988 22.1641 350.424 22.4297 350.014 22.9609C349.607 23.4922 349.404 24.248 349.404 25.2285V26.0547C349.404 26.9805 349.598 27.7168 349.984 28.2637C350.371 28.8105 350.912 29.084 351.607 29.084C352.232 29.084 352.711 28.9434 353.043 28.6621C353.379 28.377 353.602 27.8828 353.711 27.1797H354.842ZM360.127 29.8867C360.064 29.7617 360.014 29.5391 359.975 29.2188C359.471 29.7422 358.869 30.0039 358.17 30.0039C357.545 30.0039 357.031 29.8281 356.629 29.4766C356.23 29.1211 356.031 28.6719 356.031 28.1289C356.031 27.4688 356.281 26.957 356.781 26.5938C357.285 26.2266 357.992 26.043 358.902 26.043H359.957V25.5449C359.957 25.166 359.844 24.8652 359.617 24.6426C359.391 24.416 359.057 24.3027 358.615 24.3027C358.229 24.3027 357.904 24.4004 357.643 24.5957C357.381 24.791 357.25 25.0273 357.25 25.3047H356.16C356.16 24.9883 356.271 24.6836 356.494 24.3906C356.721 24.0938 357.025 23.8594 357.408 23.6875C357.795 23.5156 358.219 23.4297 358.68 23.4297C359.41 23.4297 359.982 23.6133 360.396 23.9805C360.811 24.3438 361.025 24.8457 361.041 25.4863V28.4043C361.041 28.9863 361.115 29.4492 361.264 29.793V29.8867H360.127ZM358.328 29.0605C358.668 29.0605 358.99 28.9727 359.295 28.7969C359.6 28.6211 359.82 28.3926 359.957 28.1113V26.8105H359.107C357.779 26.8105 357.115 27.1992 357.115 27.9766C357.115 28.3164 357.229 28.582 357.455 28.7734C357.682 28.9648 357.973 29.0605 358.328 29.0605ZM363.76 23.5469L363.789 24.25C364.254 23.7031 364.881 23.4297 365.67 23.4297C366.557 23.4297 367.16 23.7695 367.48 24.4492C367.691 24.1445 367.965 23.8984 368.301 23.7109C368.641 23.5234 369.041 23.4297 369.502 23.4297C370.893 23.4297 371.6 24.166 371.623 25.6387V29.8867H370.539V25.7031C370.539 25.25 370.436 24.9121 370.229 24.6895C370.021 24.4629 369.674 24.3496 369.186 24.3496C368.783 24.3496 368.449 24.4707 368.184 24.7129C367.918 24.9512 367.764 25.2734 367.721 25.6797V29.8867H366.631V25.7324C366.631 24.8105 366.18 24.3496 365.277 24.3496C364.566 24.3496 364.08 24.6523 363.818 25.2578V29.8867H362.734V23.5469H363.76ZM375.895 30.0039C375.035 30.0039 374.336 29.7227 373.797 29.1602C373.258 28.5938 372.988 27.8379 372.988 26.8926V26.6934C372.988 26.0645 373.107 25.5039 373.346 25.0117C373.588 24.5156 373.924 24.1289 374.354 23.8516C374.787 23.5703 375.256 23.4297 375.76 23.4297C376.584 23.4297 377.225 23.7012 377.682 24.2441C378.139 24.7871 378.367 25.5645 378.367 26.5762V27.0273H374.072C374.088 27.6523 374.27 28.1582 374.617 28.5449C374.969 28.9277 375.414 29.1191 375.953 29.1191C376.336 29.1191 376.66 29.041 376.926 28.8848C377.191 28.7285 377.424 28.5215 377.623 28.2637L378.285 28.7793C377.754 29.5957 376.957 30.0039 375.895 30.0039ZM375.76 24.3203C375.322 24.3203 374.955 24.4805 374.658 24.8008C374.361 25.1172 374.178 25.5625 374.107 26.1367H377.283V26.0547C377.252 25.5039 377.104 25.0781 376.838 24.7773C376.572 24.4727 376.213 24.3203 375.76 24.3203ZM382.691 24.5195C382.527 24.4922 382.35 24.4785 382.158 24.4785C381.447 24.4785 380.965 24.7812 380.711 25.3867V29.8867H379.627V23.5469H380.682L380.699 24.2793C381.055 23.7129 381.559 23.4297 382.211 23.4297C382.422 23.4297 382.582 23.457 382.691 23.5117V24.5195ZM383.289 26.6582C383.289 26.0371 383.41 25.4785 383.652 24.9824C383.898 24.4863 384.238 24.1035 384.672 23.834C385.109 23.5645 385.607 23.4297 386.166 23.4297C387.029 23.4297 387.727 23.7285 388.258 24.3262C388.793 24.9238 389.061 25.7188 389.061 26.7109V26.7871C389.061 27.4043 388.941 27.959 388.703 28.4512C388.469 28.9395 388.131 29.3203 387.689 29.5938C387.252 29.8672 386.748 30.0039 386.178 30.0039C385.318 30.0039 384.621 29.7051 384.086 29.1074C383.555 28.5098 383.289 27.7188 383.289 26.7344V26.6582ZM384.379 26.7871C384.379 27.4902 384.541 28.0547 384.865 28.4805C385.193 28.9062 385.631 29.1191 386.178 29.1191C386.729 29.1191 387.166 28.9043 387.49 28.4746C387.814 28.041 387.977 27.4355 387.977 26.6582C387.977 25.9629 387.811 25.4004 387.479 24.9707C387.15 24.5371 386.713 24.3203 386.166 24.3203C385.631 24.3203 385.199 24.5332 384.871 24.959C384.543 25.3848 384.379 25.9941 384.379 26.7871ZM390.133 26.6582C390.133 26.0371 390.254 25.4785 390.496 24.9824C390.742 24.4863 391.082 24.1035 391.516 23.834C391.953 23.5645 392.451 23.4297 393.01 23.4297C393.873 23.4297 394.57 23.7285 395.102 24.3262C395.637 24.9238 395.904 25.7188 395.904 26.7109V26.7871C395.904 27.4043 395.785 27.959 395.547 28.4512C395.312 28.9395 394.975 29.3203 394.533 29.5938C394.096 29.8672 393.592 30.0039 393.021 30.0039C392.162 30.0039 391.465 29.7051 390.93 29.1074C390.398 28.5098 390.133 27.7188 390.133 26.7344V26.6582ZM391.223 26.7871C391.223 27.4902 391.385 28.0547 391.709 28.4805C392.037 28.9062 392.475 29.1191 393.021 29.1191C393.572 29.1191 394.01 28.9043 394.334 28.4746C394.658 28.041 394.82 27.4355 394.82 26.6582C394.82 25.9629 394.654 25.4004 394.322 24.9707C393.994 24.5371 393.557 24.3203 393.01 24.3203C392.475 24.3203 392.043 24.5332 391.715 24.959C391.387 25.3848 391.223 25.9941 391.223 26.7871ZM398.289 23.5469L398.324 24.3438C398.809 23.7344 399.441 23.4297 400.223 23.4297C401.562 23.4297 402.238 24.1855 402.25 25.6973V29.8867H401.166V25.6914C401.162 25.2344 401.057 24.8965 400.85 24.6777C400.646 24.459 400.328 24.3496 399.895 24.3496C399.543 24.3496 399.234 24.4434 398.969 24.6309C398.703 24.8184 398.496 25.0645 398.348 25.3691V29.8867H397.264V23.5469H398.289Z" fill="#212121"/>
<path d="M291.59 42.9727V46.3125H290.465V37.7812H293.611C294.545 37.7812 295.275 38.0195 295.803 38.4961C296.334 38.9727 296.6 39.6035 296.6 40.3887C296.6 41.2168 296.34 41.8555 295.82 42.3047C295.305 42.75 294.564 42.9727 293.6 42.9727H291.59ZM291.59 42.0527H293.611C294.213 42.0527 294.674 41.9121 294.994 41.6309C295.314 41.3457 295.475 40.9355 295.475 40.4004C295.475 39.8926 295.314 39.4863 294.994 39.1816C294.674 38.877 294.234 38.7188 293.676 38.707H291.59V42.0527ZM299.043 46.3125H297.959V37.3125H299.043V46.3125ZM304.697 46.3125C304.635 46.1875 304.584 45.9648 304.545 45.6445C304.041 46.168 303.439 46.4297 302.74 46.4297C302.115 46.4297 301.602 46.2539 301.199 45.9023C300.801 45.5469 300.602 45.0977 300.602 44.5547C300.602 43.8945 300.852 43.3828 301.352 43.0195C301.855 42.6523 302.562 42.4688 303.473 42.4688H304.527V41.9707C304.527 41.5918 304.414 41.291 304.188 41.0684C303.961 40.8418 303.627 40.7285 303.186 40.7285C302.799 40.7285 302.475 40.8262 302.213 41.0215C301.951 41.2168 301.82 41.4531 301.82 41.7305H300.73C300.73 41.4141 300.842 41.1094 301.064 40.8164C301.291 40.5195 301.596 40.2852 301.979 40.1133C302.365 39.9414 302.789 39.8555 303.25 39.8555C303.98 39.8555 304.553 40.0391 304.967 40.4062C305.381 40.7695 305.596 41.2715 305.611 41.9121V44.8301C305.611 45.4121 305.686 45.875 305.834 46.2188V46.3125H304.697ZM302.898 45.4863C303.238 45.4863 303.561 45.3984 303.865 45.2227C304.17 45.0469 304.391 44.8184 304.527 44.5371V43.2363H303.678C302.35 43.2363 301.686 43.625 301.686 44.4023C301.686 44.7422 301.799 45.0078 302.025 45.1992C302.252 45.3906 302.543 45.4863 302.898 45.4863ZM309.854 45.5449C310.24 45.5449 310.578 45.4277 310.867 45.1934C311.156 44.959 311.316 44.666 311.348 44.3145H312.373C312.354 44.6777 312.229 45.0234 311.998 45.3516C311.768 45.6797 311.459 45.9414 311.072 46.1367C310.689 46.332 310.283 46.4297 309.854 46.4297C308.99 46.4297 308.303 46.1426 307.791 45.5684C307.283 44.9902 307.029 44.2012 307.029 43.2012V43.0195C307.029 42.4023 307.143 41.8535 307.369 41.373C307.596 40.8926 307.92 40.5195 308.342 40.2539C308.768 39.9883 309.27 39.8555 309.848 39.8555C310.559 39.8555 311.148 40.0684 311.617 40.4941C312.09 40.9199 312.342 41.4727 312.373 42.1523H311.348C311.316 41.7422 311.16 41.4062 310.879 41.1445C310.602 40.8789 310.258 40.7461 309.848 40.7461C309.297 40.7461 308.869 40.9453 308.564 41.3438C308.264 41.7383 308.113 42.3105 308.113 43.0605V43.2656C308.113 43.9961 308.264 44.5586 308.564 44.9531C308.865 45.3477 309.295 45.5449 309.854 45.5449ZM316.223 46.4297C315.363 46.4297 314.664 46.1484 314.125 45.5859C313.586 45.0195 313.316 44.2637 313.316 43.3184V43.1191C313.316 42.4902 313.436 41.9297 313.674 41.4375C313.916 40.9414 314.252 40.5547 314.682 40.2773C315.115 39.9961 315.584 39.8555 316.088 39.8555C316.912 39.8555 317.553 40.127 318.01 40.6699C318.467 41.2129 318.695 41.9902 318.695 43.002V43.4531H314.4C314.416 44.0781 314.598 44.584 314.945 44.9707C315.297 45.3535 315.742 45.5449 316.281 45.5449C316.664 45.5449 316.988 45.4668 317.254 45.3105C317.52 45.1543 317.752 44.9473 317.951 44.6895L318.613 45.2051C318.082 46.0215 317.285 46.4297 316.223 46.4297ZM316.088 40.7461C315.65 40.7461 315.283 40.9062 314.986 41.2266C314.689 41.543 314.506 41.9883 314.436 42.5625H317.611V42.4805C317.58 41.9297 317.432 41.5039 317.166 41.2031C316.9 40.8984 316.541 40.7461 316.088 40.7461ZM322.668 43.0898C322.668 42.1172 322.898 41.3359 323.359 40.7461C323.82 40.1523 324.424 39.8555 325.17 39.8555C325.912 39.8555 326.5 40.1094 326.934 40.6172V37.3125H328.018V46.3125H327.021L326.969 45.6328C326.535 46.1641 325.932 46.4297 325.158 46.4297C324.424 46.4297 323.824 46.1289 323.359 45.5273C322.898 44.9258 322.668 44.1406 322.668 43.1719V43.0898ZM323.752 43.2129C323.752 43.9316 323.9 44.4941 324.197 44.9004C324.494 45.3066 324.904 45.5098 325.428 45.5098C326.115 45.5098 326.617 45.2012 326.934 44.584V41.6719C326.609 41.0742 326.111 40.7754 325.439 40.7754C324.908 40.7754 324.494 40.9805 324.197 41.3906C323.9 41.8008 323.752 42.4082 323.752 43.2129ZM333.619 45.6855C333.197 46.1816 332.578 46.4297 331.762 46.4297C331.086 46.4297 330.57 46.2344 330.215 45.8438C329.863 45.4492 329.686 44.8672 329.682 44.0977V39.9727H330.766V44.0684C330.766 45.0293 331.156 45.5098 331.938 45.5098C332.766 45.5098 333.316 45.2012 333.59 44.584V39.9727H334.674V46.3125H333.643L333.619 45.6855ZM340.926 37.7812L343.715 44.7422L346.504 37.7812H347.963V46.3125H346.838V42.9902L346.943 39.4043L344.143 46.3125H343.281L340.486 39.4219L340.598 42.9902V46.3125H339.473V37.7812H340.926ZM353.693 46.3125C353.631 46.1875 353.58 45.9648 353.541 45.6445C353.037 46.168 352.436 46.4297 351.736 46.4297C351.111 46.4297 350.598 46.2539 350.195 45.9023C349.797 45.5469 349.598 45.0977 349.598 44.5547C349.598 43.8945 349.848 43.3828 350.348 43.0195C350.852 42.6523 351.559 42.4688 352.469 42.4688H353.523V41.9707C353.523 41.5918 353.41 41.291 353.184 41.0684C352.957 40.8418 352.623 40.7285 352.182 40.7285C351.795 40.7285 351.471 40.8262 351.209 41.0215C350.947 41.2168 350.816 41.4531 350.816 41.7305H349.727C349.727 41.4141 349.838 41.1094 350.061 40.8164C350.287 40.5195 350.592 40.2852 350.975 40.1133C351.361 39.9414 351.785 39.8555 352.246 39.8555C352.977 39.8555 353.549 40.0391 353.963 40.4062C354.377 40.7695 354.592 41.2715 354.607 41.9121V44.8301C354.607 45.4121 354.682 45.875 354.83 46.2188V46.3125H353.693ZM351.895 45.4863C352.234 45.4863 352.557 45.3984 352.861 45.2227C353.166 45.0469 353.387 44.8184 353.523 44.5371V43.2363H352.674C351.346 43.2363 350.682 43.625 350.682 44.4023C350.682 44.7422 350.795 45.0078 351.021 45.1992C351.248 45.3906 351.539 45.4863 351.895 45.4863ZM359.371 40.9453C359.207 40.918 359.029 40.9043 358.838 40.9043C358.127 40.9043 357.645 41.207 357.391 41.8125V46.3125H356.307V39.9727H357.361L357.379 40.7051C357.734 40.1387 358.238 39.8555 358.891 39.8555C359.102 39.8555 359.262 39.8828 359.371 39.9375V40.9453ZM362.799 45.5449C363.186 45.5449 363.523 45.4277 363.812 45.1934C364.102 44.959 364.262 44.666 364.293 44.3145H365.318C365.299 44.6777 365.174 45.0234 364.943 45.3516C364.713 45.6797 364.404 45.9414 364.018 46.1367C363.635 46.332 363.229 46.4297 362.799 46.4297C361.936 46.4297 361.248 46.1426 360.736 45.5684C360.229 44.9902 359.975 44.2012 359.975 43.2012V43.0195C359.975 42.4023 360.088 41.8535 360.314 41.373C360.541 40.8926 360.865 40.5195 361.287 40.2539C361.713 39.9883 362.215 39.8555 362.793 39.8555C363.504 39.8555 364.094 40.0684 364.562 40.4941C365.035 40.9199 365.287 41.4727 365.318 42.1523H364.293C364.262 41.7422 364.105 41.4062 363.824 41.1445C363.547 40.8789 363.203 40.7461 362.793 40.7461C362.242 40.7461 361.814 40.9453 361.51 41.3438C361.209 41.7383 361.059 42.3105 361.059 43.0605V43.2656C361.059 43.9961 361.209 44.5586 361.51 44.9531C361.811 45.3477 362.24 45.5449 362.799 45.5449ZM367.621 40.7402C368.102 40.1504 368.727 39.8555 369.496 39.8555C370.836 39.8555 371.512 40.6113 371.523 42.123V46.3125H370.439V42.1172C370.436 41.6602 370.33 41.3223 370.123 41.1035C369.92 40.8848 369.602 40.7754 369.168 40.7754C368.816 40.7754 368.508 40.8691 368.242 41.0566C367.977 41.2441 367.77 41.4902 367.621 41.7949V46.3125H366.537V37.3125H367.621V40.7402ZM375.777 46.4297C374.918 46.4297 374.219 46.1484 373.68 45.5859C373.141 45.0195 372.871 44.2637 372.871 43.3184V43.1191C372.871 42.4902 372.99 41.9297 373.229 41.4375C373.471 40.9414 373.807 40.5547 374.236 40.2773C374.67 39.9961 375.139 39.8555 375.643 39.8555C376.467 39.8555 377.107 40.127 377.564 40.6699C378.021 41.2129 378.25 41.9902 378.25 43.002V43.4531H373.955C373.971 44.0781 374.152 44.584 374.5 44.9707C374.852 45.3535 375.297 45.5449 375.836 45.5449C376.219 45.5449 376.543 45.4668 376.809 45.3105C377.074 45.1543 377.307 44.9473 377.506 44.6895L378.168 45.2051C377.637 46.0215 376.84 46.4297 375.777 46.4297ZM375.643 40.7461C375.205 40.7461 374.838 40.9062 374.541 41.2266C374.244 41.543 374.061 41.9883 373.99 42.5625H377.166V42.4805C377.135 41.9297 376.986 41.5039 376.721 41.2031C376.455 40.8984 376.096 40.7461 375.643 40.7461ZM382.141 46.4297C381.281 46.4297 380.582 46.1484 380.043 45.5859C379.504 45.0195 379.234 44.2637 379.234 43.3184V43.1191C379.234 42.4902 379.354 41.9297 379.592 41.4375C379.834 40.9414 380.17 40.5547 380.6 40.2773C381.033 39.9961 381.502 39.8555 382.006 39.8555C382.83 39.8555 383.471 40.127 383.928 40.6699C384.385 41.2129 384.613 41.9902 384.613 43.002V43.4531H380.318C380.334 44.0781 380.516 44.584 380.863 44.9707C381.215 45.3535 381.66 45.5449 382.199 45.5449C382.582 45.5449 382.906 45.4668 383.172 45.3105C383.438 45.1543 383.67 44.9473 383.869 44.6895L384.531 45.2051C384 46.0215 383.203 46.4297 382.141 46.4297ZM382.006 40.7461C381.568 40.7461 381.201 40.9062 380.904 41.2266C380.607 41.543 380.424 41.9883 380.354 42.5625H383.529V42.4805C383.498 41.9297 383.35 41.5039 383.084 41.2031C382.818 40.8984 382.459 40.7461 382.006 40.7461ZM382.533 37.3125H383.846L382.275 39.0352H381.402L382.533 37.3125Z" fill="#212121"/>
<path d="M15.7012 27.1602H12.127L11.3242 29.3867H10.1641L13.4219 20.8555H14.4062L17.6699 29.3867H16.5156L15.7012 27.1602ZM12.4668 26.2344H15.3672L13.9141 22.2441L12.4668 26.2344ZM21.1914 28.6191C21.5781 28.6191 21.916 28.502 22.2051 28.2676C22.4941 28.0332 22.6543 27.7402 22.6855 27.3887H23.7109C23.6914 27.752 23.5664 28.0977 23.3359 28.4258C23.1055 28.7539 22.7969 29.0156 22.4102 29.2109C22.0273 29.4062 21.6211 29.5039 21.1914 29.5039C20.3281 29.5039 19.6406 29.2168 19.1289 28.6426C18.6211 28.0645 18.3672 27.2754 18.3672 26.2754V26.0938C18.3672 25.4766 18.4805 24.9277 18.707 24.4473C18.9336 23.9668 19.2578 23.5938 19.6797 23.3281C20.1055 23.0625 20.6074 22.9297 21.1855 22.9297C21.8965 22.9297 22.4863 23.1426 22.9551 23.5684C23.4277 23.9941 23.6797 24.5469 23.7109 25.2266H22.6855C22.6543 24.8164 22.498 24.4805 22.2168 24.2188C21.9395 23.9531 21.5957 23.8203 21.1855 23.8203C20.6348 23.8203 20.207 24.0195 19.9023 24.418C19.6016 24.8125 19.4512 25.3848 19.4512 26.1348V26.3398C19.4512 27.0703 19.6016 27.6328 19.9023 28.0273C20.2031 28.4219 20.6328 28.6191 21.1914 28.6191ZM27.4727 28.6191C27.8594 28.6191 28.1973 28.502 28.4863 28.2676C28.7754 28.0332 28.9355 27.7402 28.9668 27.3887H29.9922C29.9727 27.752 29.8477 28.0977 29.6172 28.4258C29.3867 28.7539 29.0781 29.0156 28.6914 29.2109C28.3086 29.4062 27.9023 29.5039 27.4727 29.5039C26.6094 29.5039 25.9219 29.2168 25.4102 28.6426C24.9023 28.0645 24.6484 27.2754 24.6484 26.2754V26.0938C24.6484 25.4766 24.7617 24.9277 24.9883 24.4473C25.2148 23.9668 25.5391 23.5938 25.9609 23.3281C26.3867 23.0625 26.8887 22.9297 27.4668 22.9297C28.1777 22.9297 28.7676 23.1426 29.2363 23.5684C29.709 23.9941 29.9609 24.5469 29.9922 25.2266H28.9668C28.9355 24.8164 28.7793 24.4805 28.498 24.2188C28.2207 23.9531 27.877 23.8203 27.4668 23.8203C26.916 23.8203 26.4883 24.0195 26.1836 24.418C25.8828 24.8125 25.7324 25.3848 25.7324 26.1348V26.3398C25.7324 27.0703 25.8828 27.6328 26.1836 28.0273C26.4844 28.4219 26.9141 28.6191 27.4727 28.6191ZM30.9238 26.1582C30.9238 25.5371 31.0449 24.9785 31.2871 24.4824C31.5332 23.9863 31.873 23.6035 32.3066 23.334C32.7441 23.0645 33.2422 22.9297 33.8008 22.9297C34.6641 22.9297 35.3613 23.2285 35.8926 23.8262C36.4277 24.4238 36.6953 25.2188 36.6953 26.2109V26.2871C36.6953 26.9043 36.5762 27.459 36.3379 27.9512C36.1035 28.4395 35.7656 28.8203 35.3242 29.0938C34.8867 29.3672 34.3828 29.5039 33.8125 29.5039C32.9531 29.5039 32.2559 29.2051 31.7207 28.6074C31.1895 28.0098 30.9238 27.2188 30.9238 26.2344V26.1582ZM32.0137 26.2871C32.0137 26.9902 32.1758 27.5547 32.5 27.9805C32.8281 28.4062 33.2656 28.6191 33.8125 28.6191C34.3633 28.6191 34.8008 28.4043 35.125 27.9746C35.4492 27.541 35.6113 26.9355 35.6113 26.1582C35.6113 25.4629 35.4453 24.9004 35.1133 24.4707C34.7852 24.0371 34.3477 23.8203 33.8008 23.8203C33.2656 23.8203 32.834 24.0332 32.5059 24.459C32.1777 24.8848 32.0137 25.4941 32.0137 26.2871ZM41.9688 28.7598C41.5469 29.2559 40.9277 29.5039 40.1113 29.5039C39.4355 29.5039 38.9199 29.3086 38.5645 28.918C38.2129 28.5234 38.0352 27.9414 38.0312 27.1719V23.0469H39.1152V27.1426C39.1152 28.1035 39.5059 28.584 40.2871 28.584C41.1152 28.584 41.666 28.2754 41.9395 27.6582V23.0469H43.0234V29.3867H41.9922L41.9688 28.7598ZM45.7012 23.0469L45.7363 23.8438C46.2207 23.2344 46.8535 22.9297 47.6348 22.9297C48.9746 22.9297 49.6504 23.6855 49.6621 25.1973V29.3867H48.5781V25.1914C48.5742 24.7344 48.4688 24.3965 48.2617 24.1777C48.0586 23.959 47.7402 23.8496 47.3066 23.8496C46.9551 23.8496 46.6465 23.9434 46.3809 24.1309C46.1152 24.3184 45.9082 24.5645 45.7598 24.8691V29.3867H44.6758V23.0469H45.7012ZM52.7676 21.5117V23.0469H53.9512V23.8848H52.7676V27.8164C52.7676 28.0703 52.8203 28.2617 52.9258 28.3906C53.0312 28.5156 53.2109 28.5781 53.4648 28.5781C53.5898 28.5781 53.7617 28.5547 53.9805 28.5078V29.3867C53.6953 29.4648 53.418 29.5039 53.1484 29.5039C52.6641 29.5039 52.2988 29.3574 52.0527 29.0645C51.8066 28.7715 51.6836 28.3555 51.6836 27.8164V23.8848H50.5293V23.0469H51.6836V21.5117H52.7676ZM55.1875 28.8184C55.1875 28.6309 55.2422 28.4746 55.3516 28.3496C55.4648 28.2246 55.6328 28.1621 55.8555 28.1621C56.0781 28.1621 56.2461 28.2246 56.3594 28.3496C56.4766 28.4746 56.5352 28.6309 56.5352 28.8184C56.5352 28.998 56.4766 29.1484 56.3594 29.2695C56.2461 29.3906 56.0781 29.4512 55.8555 29.4512C55.6328 29.4512 55.4648 29.3906 55.3516 29.2695C55.2422 29.1484 55.1875 28.998 55.1875 28.8184ZM55.1934 23.6445C55.1934 23.457 55.248 23.3008 55.3574 23.1758C55.4707 23.0508 55.6387 22.9883 55.8613 22.9883C56.084 22.9883 56.252 23.0508 56.3652 23.1758C56.4824 23.3008 56.541 23.457 56.541 23.6445C56.541 23.8242 56.4824 23.9746 56.3652 24.0957C56.252 24.2168 56.084 24.2773 55.8613 24.2773C55.6387 24.2773 55.4707 24.2168 55.3574 24.0957C55.248 23.9746 55.1934 23.8242 55.1934 23.6445ZM66.3438 25.748C66.3438 27.0176 66.127 27.9609 65.6934 28.5781C65.2598 29.1953 64.582 29.5039 63.6602 29.5039C62.75 29.5039 62.0762 29.2031 61.6387 28.6016C61.2012 27.9961 60.9746 27.0938 60.959 25.8945V24.4473C60.959 23.1934 61.1758 22.2617 61.6094 21.6523C62.043 21.043 62.7227 20.7383 63.6484 20.7383C64.5664 20.7383 65.2422 21.0332 65.6758 21.623C66.1094 22.209 66.332 23.1152 66.3438 24.3418V25.748ZM65.2598 24.2656C65.2598 23.3477 65.1309 22.6797 64.873 22.2617C64.6152 21.8398 64.207 21.6289 63.6484 21.6289C63.0938 21.6289 62.6895 21.8379 62.4355 22.2559C62.1816 22.6738 62.0508 23.3164 62.043 24.1836V25.918C62.043 26.8398 62.1758 27.5215 62.4414 27.9629C62.7109 28.4004 63.1172 28.6191 63.6602 28.6191C64.1953 28.6191 64.5918 28.4121 64.8496 27.998C65.1113 27.584 65.248 26.9316 65.2598 26.041V24.2656ZM71.2949 29.3867H70.2051V22.1621L68.0195 22.9648V21.9805L71.125 20.8145H71.2949V29.3867ZM79.8203 25.748C79.8203 27.0176 79.6035 27.9609 79.1699 28.5781C78.7363 29.1953 78.0586 29.5039 77.1367 29.5039C76.2266 29.5039 75.5527 29.2031 75.1152 28.6016C74.6777 27.9961 74.4512 27.0938 74.4355 25.8945V24.4473C74.4355 23.1934 74.6523 22.2617 75.0859 21.6523C75.5195 21.043 76.1992 20.7383 77.125 20.7383C78.043 20.7383 78.7188 21.0332 79.1523 21.623C79.5859 22.209 79.8086 23.1152 79.8203 24.3418V25.748ZM78.7363 24.2656C78.7363 23.3477 78.6074 22.6797 78.3496 22.2617C78.0918 21.8398 77.6836 21.6289 77.125 21.6289C76.5703 21.6289 76.166 21.8379 75.9121 22.2559C75.6582 22.6738 75.5273 23.3164 75.5195 24.1836V25.918C75.5195 26.8398 75.6523 27.5215 75.918 27.9629C76.1875 28.4004 76.5938 28.6191 77.1367 28.6191C77.6719 28.6191 78.0684 28.4121 78.3262 27.998C78.5879 27.584 78.7246 26.9316 78.7363 26.041V24.2656ZM81.707 25.1094L82.1406 20.8555H86.5117V21.8574H83.0605L82.8027 24.1836C83.2207 23.9375 83.6953 23.8145 84.2266 23.8145C85.0039 23.8145 85.6211 24.0723 86.0781 24.5879C86.5352 25.0996 86.7637 25.793 86.7637 26.668C86.7637 27.5469 86.5254 28.2402 86.0488 28.748C85.5762 29.252 84.9141 29.5039 84.0625 29.5039C83.3086 29.5039 82.6934 29.2949 82.2168 28.877C81.7402 28.459 81.4688 27.8809 81.4023 27.1426H82.4277C82.4941 27.6309 82.668 28 82.9492 28.25C83.2305 28.4961 83.6016 28.6191 84.0625 28.6191C84.5664 28.6191 84.9609 28.4473 85.2461 28.1035C85.5352 27.7598 85.6797 27.2852 85.6797 26.6797C85.6797 26.1094 85.5234 25.6523 85.2109 25.3086C84.9023 24.9609 84.4902 24.7871 83.9746 24.7871C83.502 24.7871 83.1309 24.8906 82.8613 25.0977L82.5742 25.332L81.707 25.1094ZM93.5371 29.3867H87.9473V28.6074L90.9004 25.3262C91.3379 24.8301 91.6387 24.4277 91.8027 24.1191C91.9707 23.8066 92.0547 23.4844 92.0547 23.1523C92.0547 22.707 91.9199 22.3418 91.6504 22.0566C91.3809 21.7715 91.0215 21.6289 90.5723 21.6289C90.0332 21.6289 89.6133 21.7832 89.3125 22.0918C89.0156 22.3965 88.8672 22.8223 88.8672 23.3691H87.7832C87.7832 22.584 88.0352 21.9492 88.5391 21.4648C89.0469 20.9805 89.7246 20.7383 90.5723 20.7383C91.3652 20.7383 91.9922 20.9473 92.4531 21.3652C92.9141 21.7793 93.1445 22.332 93.1445 23.0234C93.1445 23.8633 92.6094 24.8633 91.5391 26.0234L89.2539 28.502H93.5371V29.3867ZM100.035 25.748C100.035 27.0176 99.8184 27.9609 99.3848 28.5781C98.9512 29.1953 98.2734 29.5039 97.3516 29.5039C96.4414 29.5039 95.7676 29.2031 95.3301 28.6016C94.8926 27.9961 94.666 27.0938 94.6504 25.8945V24.4473C94.6504 23.1934 94.8672 22.2617 95.3008 21.6523C95.7344 21.043 96.4141 20.7383 97.3398 20.7383C98.2578 20.7383 98.9336 21.0332 99.3672 21.623C99.8008 22.209 100.023 23.1152 100.035 24.3418V25.748ZM98.9512 24.2656C98.9512 23.3477 98.8223 22.6797 98.5645 22.2617C98.3066 21.8398 97.8984 21.6289 97.3398 21.6289C96.7852 21.6289 96.3809 21.8379 96.127 22.2559C95.873 22.6738 95.7422 23.3164 95.7344 24.1836V25.918C95.7344 26.8398 95.8672 27.5215 96.1328 27.9629C96.4023 28.4004 96.8086 28.6191 97.3516 28.6191C97.8867 28.6191 98.2832 28.4121 98.541 27.998C98.8027 27.584 98.9395 26.9316 98.9512 26.041V24.2656ZM106.773 25.748C106.773 27.0176 106.557 27.9609 106.123 28.5781C105.689 29.1953 105.012 29.5039 104.09 29.5039C103.18 29.5039 102.506 29.2031 102.068 28.6016C101.631 27.9961 101.404 27.0938 101.389 25.8945V24.4473C101.389 23.1934 101.605 22.2617 102.039 21.6523C102.473 21.043 103.152 20.7383 104.078 20.7383C104.996 20.7383 105.672 21.0332 106.105 21.623C106.539 22.209 106.762 23.1152 106.773 24.3418V25.748ZM105.689 24.2656C105.689 23.3477 105.561 22.6797 105.303 22.2617C105.045 21.8398 104.637 21.6289 104.078 21.6289C103.523 21.6289 103.119 21.8379 102.865 22.2559C102.611 22.6738 102.48 23.3164 102.473 24.1836V25.918C102.473 26.8398 102.605 27.5215 102.871 27.9629C103.141 28.4004 103.547 28.6191 104.09 28.6191C104.625 28.6191 105.021 28.4121 105.279 27.998C105.541 27.584 105.678 26.9316 105.689 26.041V24.2656ZM113.512 25.748C113.512 27.0176 113.295 27.9609 112.861 28.5781C112.428 29.1953 111.75 29.5039 110.828 29.5039C109.918 29.5039 109.244 29.2031 108.807 28.6016C108.369 27.9961 108.143 27.0938 108.127 25.8945V24.4473C108.127 23.1934 108.344 22.2617 108.777 21.6523C109.211 21.043 109.891 20.7383 110.816 20.7383C111.734 20.7383 112.41 21.0332 112.844 21.623C113.277 22.209 113.5 23.1152 113.512 24.3418V25.748ZM112.428 24.2656C112.428 23.3477 112.299 22.6797 112.041 22.2617C111.783 21.8398 111.375 21.6289 110.816 21.6289C110.262 21.6289 109.857 21.8379 109.604 22.2559C109.35 22.6738 109.219 23.3164 109.211 24.1836V25.918C109.211 26.8398 109.344 27.5215 109.609 27.9629C109.879 28.4004 110.285 28.6191 110.828 28.6191C111.363 28.6191 111.76 28.4121 112.018 27.998C112.279 27.584 112.416 26.9316 112.428 26.041V24.2656ZM120.25 25.748C120.25 27.0176 120.033 27.9609 119.6 28.5781C119.166 29.1953 118.488 29.5039 117.566 29.5039C116.656 29.5039 115.982 29.2031 115.545 28.6016C115.107 27.9961 114.881 27.0938 114.865 25.8945V24.4473C114.865 23.1934 115.082 22.2617 115.516 21.6523C115.949 21.043 116.629 20.7383 117.555 20.7383C118.473 20.7383 119.148 21.0332 119.582 21.623C120.016 22.209 120.238 23.1152 120.25 24.3418V25.748ZM119.166 24.2656C119.166 23.3477 119.037 22.6797 118.779 22.2617C118.521 21.8398 118.113 21.6289 117.555 21.6289C117 21.6289 116.596 21.8379 116.342 22.2559C116.088 22.6738 115.957 23.3164 115.949 24.1836V25.918C115.949 26.8398 116.082 27.5215 116.348 27.9629C116.617 28.4004 117.023 28.6191 117.566 28.6191C118.102 28.6191 118.498 28.4121 118.756 27.998C119.018 27.584 119.154 26.9316 119.166 26.041V24.2656ZM122.137 25.1094L122.57 20.8555H126.941V21.8574H123.49L123.232 24.1836C123.65 23.9375 124.125 23.8145 124.656 23.8145C125.434 23.8145 126.051 24.0723 126.508 24.5879C126.965 25.0996 127.193 25.793 127.193 26.668C127.193 27.5469 126.955 28.2402 126.479 28.748C126.006 29.252 125.344 29.5039 124.492 29.5039C123.738 29.5039 123.123 29.2949 122.646 28.877C122.17 28.459 121.898 27.8809 121.832 27.1426H122.857C122.924 27.6309 123.098 28 123.379 28.25C123.66 28.4961 124.031 28.6191 124.492 28.6191C124.996 28.6191 125.391 28.4473 125.676 28.1035C125.965 27.7598 126.109 27.2852 126.109 26.6797C126.109 26.1094 125.953 25.6523 125.641 25.3086C125.332 24.9609 124.92 24.7871 124.404 24.7871C123.932 24.7871 123.561 24.8906 123.291 25.0977L123.004 25.332L122.137 25.1094ZM128.875 25.1094L129.309 20.8555H133.68V21.8574H130.229L129.971 24.1836C130.389 23.9375 130.863 23.8145 131.395 23.8145C132.172 23.8145 132.789 24.0723 133.246 24.5879C133.703 25.0996 133.932 25.793 133.932 26.668C133.932 27.5469 133.693 28.2402 133.217 28.748C132.744 29.252 132.082 29.5039 131.23 29.5039C130.477 29.5039 129.861 29.2949 129.385 28.877C128.908 28.459 128.637 27.8809 128.57 27.1426H129.596C129.662 27.6309 129.836 28 130.117 28.25C130.398 28.4961 130.77 28.6191 131.23 28.6191C131.734 28.6191 132.129 28.4473 132.414 28.1035C132.703 27.7598 132.848 27.2852 132.848 26.6797C132.848 26.1094 132.691 25.6523 132.379 25.3086C132.07 24.9609 131.658 24.7871 131.143 24.7871C130.67 24.7871 130.299 24.8906 130.029 25.0977L129.742 25.332L128.875 25.1094ZM135.443 30.1191H134.512L138.074 20.8555H139L135.443 30.1191ZM143.125 24.125L145.17 20.8555H146.494L143.799 25.0859L146.559 29.3867H145.223L143.125 26.0586L141.016 29.3867H139.686L142.451 25.0859L139.75 20.8555H141.068L143.125 24.125ZM152.576 27.1602H149.002L148.199 29.3867H147.039L150.297 20.8555H151.281L154.545 29.3867H153.391L152.576 27.1602ZM149.342 26.2344H152.242L150.789 22.2441L149.342 26.2344ZM160.398 25.6191H156.818V29.3867H155.693V20.8555H160.979V21.7812H156.818V24.6992H160.398V25.6191Z" fill="#7E8494"/>
<path d="M17.5469 45.8125H16.416L12.1211 39.2383V45.8125H10.9902V37.2812H12.1211L16.4277 43.8848V37.2812H17.5469V45.8125ZM19.1113 42.5898C19.1113 41.6172 19.3418 40.8359 19.8027 40.2461C20.2637 39.6523 20.8672 39.3555 21.6133 39.3555C22.3555 39.3555 22.9434 39.6094 23.377 40.1172V36.8125H24.4609V45.8125H23.4648L23.4121 45.1328C22.9785 45.6641 22.375 45.9297 21.6016 45.9297C20.8672 45.9297 20.2676 45.6289 19.8027 45.0273C19.3418 44.4258 19.1113 43.6406 19.1113 42.6719V42.5898ZM20.1953 42.7129C20.1953 43.4316 20.3438 43.9941 20.6406 44.4004C20.9375 44.8066 21.3477 45.0098 21.8711 45.0098C22.5586 45.0098 23.0605 44.7012 23.377 44.084V41.1719C23.0527 40.5742 22.5547 40.2754 21.8828 40.2754C21.3516 40.2754 20.9375 40.4805 20.6406 40.8906C20.3438 41.3008 20.1953 41.9082 20.1953 42.7129ZM30.0625 45.1855C29.6406 45.6816 29.0215 45.9297 28.2051 45.9297C27.5293 45.9297 27.0137 45.7344 26.6582 45.3438C26.3066 44.9492 26.1289 44.3672 26.125 43.5977V39.4727H27.209V43.5684C27.209 44.5293 27.5996 45.0098 28.3809 45.0098C29.209 45.0098 29.7598 44.7012 30.0332 44.084V39.4727H31.1172V45.8125H30.0859L30.0625 45.1855ZM34.5391 42.877L33.8594 43.5859V45.8125H32.7754V36.8125H33.8594V42.2559L34.4395 41.5586L36.4141 39.4727H37.7324L35.2656 42.1211L38.0195 45.8125H36.748L34.5391 42.877ZM38.5645 42.584C38.5645 41.9629 38.6855 41.4043 38.9277 40.9082C39.1738 40.4121 39.5137 40.0293 39.9473 39.7598C40.3848 39.4902 40.8828 39.3555 41.4414 39.3555C42.3047 39.3555 43.002 39.6543 43.5332 40.252C44.0684 40.8496 44.3359 41.6445 44.3359 42.6367V42.7129C44.3359 43.3301 44.2168 43.8848 43.9785 44.377C43.7441 44.8652 43.4062 45.2461 42.9648 45.5195C42.5273 45.793 42.0234 45.9297 41.4531 45.9297C40.5938 45.9297 39.8965 45.6309 39.3613 45.0332C38.8301 44.4355 38.5645 43.6445 38.5645 42.6602V42.584ZM39.6543 42.7129C39.6543 43.416 39.8164 43.9805 40.1406 44.4062C40.4688 44.832 40.9062 45.0449 41.4531 45.0449C42.0039 45.0449 42.4414 44.8301 42.7656 44.4004C43.0898 43.9668 43.252 43.3613 43.252 42.584C43.252 41.8887 43.0859 41.3262 42.7539 40.8965C42.4258 40.4629 41.9883 40.2461 41.4414 40.2461C40.9062 40.2461 40.4746 40.459 40.1465 40.8848C39.8184 41.3105 39.6543 41.9199 39.6543 42.7129ZM46.7207 39.4727L46.7559 40.2695C47.2402 39.6602 47.873 39.3555 48.6543 39.3555C49.9941 39.3555 50.6699 40.1113 50.6816 41.623V45.8125H49.5977V41.6172C49.5938 41.1602 49.4883 40.8223 49.2812 40.6035C49.0781 40.3848 48.7598 40.2754 48.3262 40.2754C47.9746 40.2754 47.666 40.3691 47.4004 40.5566C47.1348 40.7441 46.9277 40.9902 46.7793 41.2949V45.8125H45.6953V39.4727H46.7207ZM52.0586 42.5898C52.0586 41.6016 52.2871 40.8164 52.7441 40.2344C53.2012 39.6484 53.8066 39.3555 54.5605 39.3555C55.334 39.3555 55.9375 39.6289 56.3711 40.1758L56.4238 39.4727H57.4141V45.6602C57.4141 46.4805 57.1699 47.127 56.6816 47.5996C56.1973 48.0723 55.5449 48.3086 54.7246 48.3086C54.2676 48.3086 53.8203 48.2109 53.3828 48.0156C52.9453 47.8203 52.6113 47.5527 52.3809 47.2129L52.9434 46.5625C53.4082 47.1367 53.9766 47.4238 54.6484 47.4238C55.1758 47.4238 55.5859 47.2754 55.8789 46.9785C56.1758 46.6816 56.3242 46.2637 56.3242 45.7246V45.1797C55.8906 45.6797 55.2988 45.9297 54.5488 45.9297C53.8066 45.9297 53.2051 45.6309 52.7441 45.0332C52.2871 44.4355 52.0586 43.6211 52.0586 42.5898ZM53.1484 42.7129C53.1484 43.4277 53.2949 43.9902 53.5879 44.4004C53.8809 44.8066 54.291 45.0098 54.8184 45.0098C55.502 45.0098 56.0039 44.6992 56.3242 44.0781V41.1836C55.9922 40.5781 55.4941 40.2754 54.8301 40.2754C54.3027 40.2754 53.8906 40.4805 53.5938 40.8906C53.2969 41.3008 53.1484 41.9082 53.1484 42.7129ZM63.6543 37.2812L66.4434 44.2422L69.2324 37.2812H70.6914V45.8125H69.5664V42.4902L69.6719 38.9043L66.8711 45.8125H66.0098L63.2148 38.9219L63.3262 42.4902V45.8125H62.2012V37.2812H63.6543ZM74.5996 44.3418L76.1699 39.4727H77.2773L75.0039 45.8125H74.1777L71.8809 39.4727H72.9883L74.5996 44.3418ZM77.9395 42.584C77.9395 41.9629 78.0605 41.4043 78.3027 40.9082C78.5488 40.4121 78.8887 40.0293 79.3223 39.7598C79.7598 39.4902 80.2578 39.3555 80.8164 39.3555C81.6797 39.3555 82.377 39.6543 82.9082 40.252C83.4434 40.8496 83.7109 41.6445 83.7109 42.6367V42.7129C83.7109 43.3301 83.5918 43.8848 83.3535 44.377C83.1191 44.8652 82.7812 45.2461 82.3398 45.5195C81.9023 45.793 81.3984 45.9297 80.8281 45.9297C79.9688 45.9297 79.2715 45.6309 78.7363 45.0332C78.2051 44.4355 77.9395 43.6445 77.9395 42.6602V42.584ZM79.0293 42.7129C79.0293 43.416 79.1914 43.9805 79.5156 44.4062C79.8438 44.832 80.2812 45.0449 80.8281 45.0449C81.3789 45.0449 81.8164 44.8301 82.1406 44.4004C82.4648 43.9668 82.627 43.3613 82.627 42.584C82.627 41.8887 82.4609 41.3262 82.1289 40.8965C81.8008 40.4629 81.3633 40.2461 80.8164 40.2461C80.2812 40.2461 79.8496 40.459 79.5215 40.8848C79.1934 41.3105 79.0293 41.9199 79.0293 42.7129ZM86.0957 39.4727L86.1309 40.2695C86.6152 39.6602 87.248 39.3555 88.0293 39.3555C89.3691 39.3555 90.0449 40.1113 90.0566 41.623V45.8125H88.9727V41.6172C88.9688 41.1602 88.8633 40.8223 88.6562 40.6035C88.4531 40.3848 88.1348 40.2754 87.7012 40.2754C87.3496 40.2754 87.041 40.3691 86.7754 40.5566C86.5098 40.7441 86.3027 40.9902 86.1543 41.2949V45.8125H85.0703V39.4727H86.0957ZM91.4277 42.5898C91.4277 41.6172 91.6582 40.8359 92.1191 40.2461C92.5801 39.6523 93.1836 39.3555 93.9297 39.3555C94.6719 39.3555 95.2598 39.6094 95.6934 40.1172V36.8125H96.7773V45.8125H95.7812L95.7285 45.1328C95.2949 45.6641 94.6914 45.9297 93.918 45.9297C93.1836 45.9297 92.584 45.6289 92.1191 45.0273C91.6582 44.4258 91.4277 43.6406 91.4277 42.6719V42.5898ZM92.5117 42.7129C92.5117 43.4316 92.6602 43.9941 92.957 44.4004C93.2539 44.8066 93.6641 45.0098 94.1875 45.0098C94.875 45.0098 95.377 44.7012 95.6934 44.084V41.1719C95.3691 40.5742 94.8711 40.2754 94.1992 40.2754C93.668 40.2754 93.2539 40.4805 92.957 40.8906C92.6602 41.3008 92.5117 41.9082 92.5117 42.7129ZM98.1777 42.584C98.1777 41.9629 98.2988 41.4043 98.541 40.9082C98.7871 40.4121 99.127 40.0293 99.5605 39.7598C99.998 39.4902 100.496 39.3555 101.055 39.3555C101.918 39.3555 102.615 39.6543 103.146 40.252C103.682 40.8496 103.949 41.6445 103.949 42.6367V42.7129C103.949 43.3301 103.83 43.8848 103.592 44.377C103.357 44.8652 103.02 45.2461 102.578 45.5195C102.141 45.793 101.637 45.9297 101.066 45.9297C100.207 45.9297 99.5098 45.6309 98.9746 45.0332C98.4434 44.4355 98.1777 43.6445 98.1777 42.6602V42.584ZM99.2676 42.7129C99.2676 43.416 99.4297 43.9805 99.7539 44.4062C100.082 44.832 100.52 45.0449 101.066 45.0449C101.617 45.0449 102.055 44.8301 102.379 44.4004C102.703 43.9668 102.865 43.3613 102.865 42.584C102.865 41.8887 102.699 41.3262 102.367 40.8965C102.039 40.4629 101.602 40.2461 101.055 40.2461C100.52 40.2461 100.088 40.459 99.7598 40.8848C99.4316 41.3105 99.2676 41.9199 99.2676 42.7129Z" fill="#515152"/>
<rect x="10" y="137" width="724" height="1" fill="#F2F2F2"/>
<rect width="719" height="1" transform="matrix(1 0 0 -1 13 213)" fill="#F2F2F2"/>
<rect x="20.3037" y="289.223" width="700" height="1" fill="#F2F2F2"/>
<rect x="672" y="162.793" width="74" height="22" rx="2" fill="#F6F6F6"/>
<rect x="509" y="162" width="74" height="22" rx="2" fill="#F6F6F6"/>
<rect x="509" y="90" width="74" height="22" rx="2" fill="#E7E5E5"/>
<rect x="509" y="238" width="74" height="22" rx="2" fill="#E7E5E5"/>
<rect x="674.176" y="93" width="74" height="22" rx="2" fill="#E7E5E5"/>
<rect x="674.176" y="241" width="74" height="22" rx="2" fill="#E7E5E5"/>
<rect x="509" y="23" width="74" height="22" rx="2" fill="#F6F6F6"/>
<rect x="672.176" y="23" width="74" height="22" rx="2" fill="#F6F6F6"/>
<rect y="12" width="163" height="44" rx="4" fill="#F6F6F6"/>
<rect y="155" width="163" height="44" rx="4" fill="#F6F6F6"/>
<rect y="80" width="163" height="44" rx="4" fill="#E7E5E5"/>
<rect x="2" y="228" width="163" height="44" rx="4" fill="#E7E5E5"/>
<rect x="271" y="12" width="154" height="44" rx="4" fill="#F6F6F6"/>
<rect x="272" y="155" width="154" height="44" rx="4" fill="#F6F6F6"/>
<rect x="270" y="80" width="154" height="44" rx="4" fill="#E7E5E5"/>
<rect x="270" y="227" width="154" height="44" rx="4" fill="#E7E5E5"/>
</svg>
