<svg width="1007" height="326" viewBox="0 0 1007 326" fill="none" xmlns="http://www.w3.org/2000/svg">
<path d="M0 2.46348C0 1.10294 1.60635 0 3.58789 0H1003.41C1005.39 0 1007 1.10294 1007 2.46348V323.537C1007 324.897 1005.39 326 1003.41 326H3.58787C1.60633 326 0 324.897 0 323.537V2.46348Z" fill="white"/>
<path d="M17.9395 115.906C17.9395 114.249 19.2826 112.906 20.9395 112.906H975.297C976.954 112.906 978.297 114.249 978.297 115.906V133.192C978.297 134.849 976.954 136.192 975.297 136.192H20.9394C19.2826 136.192 17.9395 134.849 17.9395 133.192V115.906Z" fill="#F1F2F6" fill-opacity="0.7"/>
<path d="M17.9395 50.3105C17.9395 48.6537 19.2826 47.3105 20.9395 47.3105H975.297C976.954 47.3105 978.297 48.6537 978.297 50.3105V67.5963C978.297 69.2531 976.954 70.5963 975.297 70.5963H20.9394C19.2826 70.5963 17.9395 69.2531 17.9395 67.5963V50.3105Z" fill="#F1F2F6" fill-opacity="0.7"/>
<path d="M19 8C19 6.34315 20.3431 5 22 5H976.357C978.014 5 979.357 6.34315 979.357 8V25.2857C979.357 26.9426 978.014 28.2857 976.357 28.2857H22C20.3431 28.2857 19 26.9426 19 25.2857V8Z" fill="#F1F2F6" fill-opacity="0.7"/>
<path d="M17.9395 237.813C17.9395 236.156 19.2826 234.812 20.9395 234.812H975.297C976.954 234.812 978.297 236.156 978.297 237.812V255.098C978.297 256.755 976.954 258.098 975.297 258.098H20.9394C19.2826 258.098 17.9395 256.755 17.9395 255.098V237.813Z" fill="#F1F2F6" fill-opacity="0.7"/>
<path d="M17.9395 176.859C17.9395 175.203 19.2826 173.859 20.9395 173.859H975.297C976.954 173.859 978.297 175.203 978.297 176.859V194.83C978.297 196.487 976.954 197.83 975.297 197.83H20.9394C19.2826 197.83 17.9395 196.487 17.9395 194.83V176.859Z" fill="#F1F2F6" fill-opacity="0.7"/>
<path d="M17.9395 298.082C17.9395 296.425 19.2826 295.082 20.9395 295.082H975.297C976.954 295.082 978.297 296.425 978.297 298.082V315.368C978.297 317.025 976.954 318.368 975.297 318.368H20.9394C19.2826 318.368 17.9395 317.025 17.9395 315.368V298.082Z" fill="#F1F2F6" fill-opacity="0.7"/>
<path d="M19.1357 85.4551C19.1357 83.7982 20.4789 82.4551 22.1357 82.4551H976.493C978.15 82.4551 979.493 83.7982 979.493 85.4551V102.741C979.493 104.398 978.15 105.741 976.493 105.741H22.1357C20.4789 105.741 19.1357 104.398 19.1357 102.741V85.4551Z" fill="url(#paint0_linear)" fill-opacity="0.6"/>
<path d="M17.9395 146.039C17.9395 144.382 19.2826 143.039 20.9395 143.039H975.297C976.954 143.039 978.297 144.382 978.297 146.039V164.01C978.297 165.667 976.954 167.01 975.297 167.01H20.9394C19.2826 167.01 17.9395 165.667 17.9395 164.01V146.039Z" fill="url(#paint1_linear)" fill-opacity="0.6"/>
<path d="M17.9395 267.947C17.9395 266.29 19.2826 264.947 20.9395 264.947H975.297C976.954 264.947 978.297 266.29 978.297 267.947V285.233C978.297 286.89 976.954 288.233 975.297 288.233H20.9394C19.2826 288.233 17.9395 286.89 17.9395 285.233V267.947Z" fill="url(#paint2_linear)" fill-opacity="0.6"/>
<path d="M17.9395 207.678C17.9395 206.021 19.2826 204.678 20.9395 204.678H975.297C976.954 204.678 978.297 206.021 978.297 207.678V224.963C978.297 226.62 976.954 227.963 975.297 227.963H20.9394C19.2826 227.963 17.9395 226.62 17.9395 224.963V207.678Z" fill="url(#paint3_linear)" fill-opacity="0.6"/>
<defs>
<linearGradient id="paint0_linear" x1="19.1357" y1="105.741" x2="979.383" y2="118.27" gradientUnits="userSpaceOnUse">
<stop stop-color="#F1F2F6" stop-opacity="0.7"/>
<stop offset="0.5" stop-color="#F1F2F6" stop-opacity="0.3"/>
<stop offset="1" stop-color="#F1F2F6" stop-opacity="0.7"/>
</linearGradient>
<linearGradient id="paint1_linear" x1="17.9395" y1="167.01" x2="978.196" y2="179.181" gradientUnits="userSpaceOnUse">
<stop stop-color="#F1F2F6" stop-opacity="0.7"/>
<stop offset="0.5" stop-color="#F1F2F6" stop-opacity="0.3"/>
<stop offset="1" stop-color="#F1F2F6" stop-opacity="0.7"/>
</linearGradient>
<linearGradient id="paint2_linear" x1="17.9395" y1="288.233" x2="978.187" y2="300.762" gradientUnits="userSpaceOnUse">
<stop stop-color="#F1F2F6" stop-opacity="0.7"/>
<stop offset="0.5" stop-color="#F1F2F6" stop-opacity="0.3"/>
<stop offset="1" stop-color="#F1F2F6" stop-opacity="0.7"/>
</linearGradient>
<linearGradient id="paint3_linear" x1="17.9395" y1="227.963" x2="978.187" y2="240.493" gradientUnits="userSpaceOnUse">
<stop stop-color="#F1F2F6" stop-opacity="0.7"/>
<stop offset="0.5" stop-color="#F1F2F6" stop-opacity="0.3"/>
<stop offset="1" stop-color="#F1F2F6" stop-opacity="0.7"/>
</linearGradient>
</defs>
</svg>
