<svg width="1036" height="364" viewBox="0 0 1036 364" fill="none" xmlns="http://www.w3.org/2000/svg">
<rect y="0.234375" width="1036" height="363" rx="3" fill="white"/>
<rect x="30.3354" width="966.933" height="1" fill="#F2F2F2"/>
<rect x="30.3354" y="68" width="966.933" height="1" fill="#F2F2F2"/>
<rect x="114.222" y="21.4258" width="228.297" height="27.3594" rx="2" fill="#F7F7F7"/>
<rect x="982.128" y="23.2344" width="15.1947" height="22" rx="2" fill="#F7F7F7"/>
<rect x="915.824" y="26.2344" width="46.9653" height="22" rx="2" fill="#F7F7F7"/>
<rect x="114.222" y="88.4258" width="228.297" height="27.3594" rx="2" fill="#F7F7F7"/>
<rect x="982.128" y="90.2344" width="15.1947" height="22" rx="2" fill="#F7F7F7"/>
<rect x="915.824" y="90.2344" width="46.9653" height="22" rx="2" fill="#F7F7F7"/>
<rect x="114.222" y="156.426" width="228.297" height="27.3594" rx="2" fill="#F7F7F7"/>
<rect x="982.128" y="158.234" width="15.1947" height="22" rx="2" fill="#F7F7F7"/>
<rect x="915.824" y="158.234" width="46.9653" height="22" rx="2" fill="#F7F7F7"/>
<rect x="114.222" y="224.426" width="228.297" height="27.3594" rx="2" fill="#F7F7F7"/>
<rect x="982.128" y="226.234" width="15.1947" height="22" rx="2" fill="#F7F7F7"/>
<rect x="915.824" y="226.234" width="46.9653" height="22" rx="2" fill="#F7F7F7"/>
<rect x="114.222" y="292.426" width="228.297" height="27.3594" rx="2" fill="#F7F7F7"/>
<rect x="982.128" y="294.234" width="15.1947" height="22" rx="2" fill="#F7F7F7"/>
<rect x="915.824" y="294.234" width="46.9653" height="22" rx="2" fill="#F7F7F7"/>
<rect x="30.3354" y="68" width="966.933" height="1" fill="#F2F2F2"/>
<rect x="30.3354" y="136" width="966.933" height="1" fill="#F2F2F2"/>
<rect x="30.3354" y="136" width="966.933" height="1" fill="#F2F2F2"/>
<rect x="37.2959" y="21.2344" width="41.44" height="24" fill="#EEEEEE"/>
<rect x="37.2959" y="88.2344" width="41.44" height="24" fill="#EEEEEE"/>
<rect x="37.2959" y="158.234" width="41.44" height="24" fill="#EEEEEE"/>
<rect x="37.2959" y="226.234" width="41.44" height="24" fill="#EEEEEE"/>
<rect x="37.2959" y="292.234" width="41.44" height="24" fill="#EEEEEE"/>
</svg>
