<svg width="66" height="66" viewBox="0 0 66 66" fill="none" xmlns="http://www.w3.org/2000/svg">
<path d="M32.7772 56.9216C46.1129 56.9216 56.9235 46.1109 56.9235 32.7752C56.9235 19.4396 46.1129 8.62891 32.7772 8.62891C19.4415 8.62891 8.63086 19.4396 8.63086 32.7752C8.63086 46.1109 19.4415 56.9216 32.7772 56.9216Z" fill="#FBC9C9"/>
<path fill-rule="evenodd" clip-rule="evenodd" d="M26.8845 26.883C27.0377 26.7294 27.2197 26.6075 27.4201 26.5244C27.6205 26.4412 27.8353 26.3984 28.0522 26.3984C28.2692 26.3984 28.484 26.4412 28.6844 26.5244C28.8848 26.6075 29.0668 26.7294 29.22 26.883L33.0003 30.6667L36.7807 26.883C37.0904 26.5733 37.5105 26.3993 37.9484 26.3993C38.3864 26.3993 38.8065 26.5733 39.1162 26.883C39.4259 27.1927 39.5999 27.6128 39.5999 28.0508C39.5999 28.4887 39.4259 28.9088 39.1162 29.2185L35.3325 32.9989L39.1162 36.7792C39.4259 37.0889 39.5999 37.509 39.5999 37.947C39.5999 38.385 39.4259 38.805 39.1162 39.1147C38.8065 39.4244 38.3864 39.5984 37.9484 39.5984C37.5105 39.5984 37.0904 39.4244 36.7807 39.1147L33.0003 35.3311L29.22 39.1147C28.9103 39.4244 28.4902 39.5984 28.0522 39.5984C27.6142 39.5984 27.1942 39.4244 26.8845 39.1147C26.5748 38.805 26.4008 38.385 26.4008 37.947C26.4008 37.509 26.5748 37.0889 26.8845 36.7792L30.6681 32.9989L26.8845 29.2185C26.7309 29.0653 26.609 28.8833 26.5259 28.6829C26.4427 28.4825 26.3999 28.2677 26.3999 28.0508C26.3999 27.8338 26.4427 27.619 26.5259 27.4186C26.609 27.2182 26.7309 27.0362 26.8845 26.883Z" fill="#D73737"/>
<path d="M56.3345 9.66539C50.1016 3.43264 41.8146 0 33 0C24.1854 0 15.8984 3.43264 9.66552 9.66539C3.43252 15.8984 0 24.1854 0 33C0 41.8146 3.43252 50.1016 9.66552 56.3346C15.8984 62.5674 24.1854 66 33 66C41.8146 66 50.1016 62.5674 56.3345 56.3346C62.5675 50.1016 66 41.8146 66 33C66 24.1854 62.5675 15.8984 56.3345 9.66539ZM33 63.4219C16.2253 63.4219 2.57812 49.7747 2.57812 33C2.57812 16.2253 16.2253 2.57812 33 2.57812C49.7747 2.57812 63.4219 16.2253 63.4219 33C63.4219 49.7747 49.7747 63.4219 33 63.4219Z" fill="#D73737"/>
</svg>
