<svg width="28" height="28" viewBox="0 0 28 28" fill="none" xmlns="http://www.w3.org/2000/svg">
<path d="M12.759 19.8239C12.759 19.6269 12.7978 19.4319 12.8732 19.2499C12.9486 19.0679 13.0591 18.9025 13.1984 18.7632C13.3377 18.624 13.503 18.5135 13.685 18.4381C13.867 18.3627 14.0621 18.3239 14.259 18.3239C14.456 18.3239 14.6511 18.3627 14.8331 18.4381C15.015 18.5135 15.1804 18.624 15.3197 18.7632C15.459 18.9025 15.5695 19.0679 15.6449 19.2499C15.7202 19.4319 15.759 19.6269 15.759 19.8239C15.759 20.2217 15.601 20.6033 15.3197 20.8846C15.0384 21.1659 14.6569 21.3239 14.259 21.3239C13.8612 21.3239 13.4797 21.1659 13.1984 20.8846C12.9171 20.6033 12.759 20.2217 12.759 19.8239ZM12.906 10.8164C12.8861 10.6272 12.9061 10.4358 12.9648 10.2548C13.0236 10.0739 13.1197 9.90723 13.247 9.76579C13.3743 9.62435 13.5299 9.51125 13.7038 9.43383C13.8776 9.35641 14.0657 9.31641 14.256 9.31641C14.4463 9.31641 14.6345 9.35641 14.8083 9.43383C14.9821 9.51125 15.1378 9.62435 15.2651 9.76579C15.3924 9.90723 15.4885 10.0739 15.5472 10.2548C15.606 10.4358 15.626 10.6272 15.606 10.8164L15.081 16.0769C15.0634 16.2836 14.9688 16.4761 14.8161 16.6164C14.6633 16.7566 14.4634 16.8345 14.256 16.8345C14.0486 16.8345 13.8488 16.7566 13.696 16.6164C13.5432 16.4761 13.4487 16.2836 13.431 16.0769L12.906 10.8164Z" fill="#E74C3C"/>
<path d="M16.4748 5.31996C15.4823 3.62772 13.0359 3.62772 12.0434 5.31996L3.19164 20.4129C2.18736 22.1253 3.4222 24.281 5.40735 24.281H23.1108C25.096 24.281 26.3308 22.1253 25.3266 20.4129L16.4748 5.31996Z" stroke="#E74C3C" stroke-width="1.5"/>
</svg>
