<svg width="675" height="551" viewBox="0 0 675 551" fill="none" xmlns="http://www.w3.org/2000/svg">
<g filter="url(#filter0_d)">
<rect x="15" y="11" width="645" height="521" rx="5" fill="white"/>
</g>
<rect x="40" y="110" width="600" height="103" fill="white"/>
<rect x="40" y="109" width="600" height="1" fill="#E5E5E5"/>
<rect x="40" y="213" width="600" height="1" fill="#E5E5E5"/>
<rect x="40" y="214" width="600" height="103" fill="white"/>
<rect x="40" y="317" width="600" height="1" fill="#E5E5E5"/>
<rect x="40" y="421" width="600" height="1" fill="#E5E5E5"/>
<rect x="41" y="432" width="599" height="93" rx="3" fill="white"/>
<rect x="41" y="448" width="52" height="52" rx="4" fill="#E1E1E1" fill-opacity="0.4"/>
<rect x="120" y="451" width="165" height="12" fill="#E1E1E1" fill-opacity="0.5"/>
<rect x="553" y="469" width="87" height="19" rx="2" fill="#E1E1E1" fill-opacity="0.35"/>
<rect x="120" y="468" width="116" height="16" fill="#E1E1E1" fill-opacity="0.5"/>
<rect x="120" y="488" width="212" height="10" fill="#E1E1E1" fill-opacity="0.3"/>
<rect x="41" y="330" width="599" height="93" rx="3" fill="white"/>
<rect x="41" y="346" width="52" height="52" rx="4" fill="#E1E1E1" fill-opacity="0.4"/>
<rect x="120" y="349" width="165" height="12" fill="#E1E1E1" fill-opacity="0.5"/>
<rect x="553" y="367" width="87" height="19" rx="2" fill="#E1E1E1" fill-opacity="0.35"/>
<rect x="120" y="366" width="116" height="16" fill="#E1E1E1" fill-opacity="0.5"/>
<rect x="120" y="386" width="212" height="10" fill="#E1E1E1" fill-opacity="0.3"/>
<rect x="40" y="223" width="599" height="93" rx="3" fill="white"/>
<rect x="40" y="239" width="52" height="52" rx="4" fill="#E1E1E1" fill-opacity="0.4"/>
<rect x="119" y="242" width="165" height="12" fill="#E1E1E1" fill-opacity="0.5"/>
<rect x="552" y="260" width="87" height="19" rx="2" fill="#E1E1E1" fill-opacity="0.35"/>
<rect x="119" y="259" width="116" height="16" fill="#E1E1E1" fill-opacity="0.5"/>
<rect x="119" y="279" width="212" height="10" fill="#E1E1E1" fill-opacity="0.3"/>
<rect x="40" y="116" width="599" height="93" rx="3" fill="white"/>
<rect x="40" y="132" width="52" height="52" rx="4" fill="#E1E1E1" fill-opacity="0.4"/>
<rect x="119" y="135" width="165" height="12" fill="#E1E1E1" fill-opacity="0.5"/>
<rect x="552" y="153" width="87" height="19" rx="2" fill="#E1E1E1" fill-opacity="0.35"/>
<rect x="495" y="43" width="144" height="19" rx="2" fill="#E1E1E1" fill-opacity="0.35"/>
<rect x="119" y="152" width="116" height="16" fill="#E1E1E1" fill-opacity="0.5"/>
<rect x="119" y="172" width="212" height="10" fill="#E1E1E1" fill-opacity="0.3"/>
<rect x="40" y="72" width="309" height="10" fill="#E1E1E1" fill-opacity="0.3"/>
<rect x="40" y="86" width="68" height="10" fill="#E1E1E1" fill-opacity="0.3"/>
<rect x="41" y="48" width="133" height="10" fill="#E1E1E1" fill-opacity="0.3"/>
<defs>
<filter id="filter0_d" x="0" y="0" width="675" height="551" filterUnits="userSpaceOnUse" color-interpolation-filters="sRGB">
<feFlood flood-opacity="0" result="BackgroundImageFix"/>
<feColorMatrix in="SourceAlpha" type="matrix" values="0 0 0 0 0 0 0 0 0 0 0 0 0 0 0 0 0 0 127 0"/>
<feOffset dy="4"/>
<feGaussianBlur stdDeviation="7.5"/>
<feColorMatrix type="matrix" values="0 0 0 0 0 0 0 0 0 0 0 0 0 0 0 0 0 0 0.1 0"/>
<feBlend mode="normal" in2="BackgroundImageFix" result="effect1_dropShadow"/>
<feBlend mode="normal" in="SourceGraphic" in2="effect1_dropShadow" result="shape"/>
</filter>
</defs>
</svg>
