<svg width="341" height="291" viewBox="0 0 341 291" fill="none" xmlns="http://www.w3.org/2000/svg">
<rect x="1" y="126" width="339" height="1" fill="#EEEEEE"/>
<rect x="1" y="67" width="339" height="1" fill="#EEEEEE"/>
<rect x="1" y="167" width="339" height="1" fill="#EEEEEE"/>
<rect x="1" y="212" width="339" height="1" fill="#EEEEEE"/>
<rect x="1" y="254" width="339" height="1" fill="#EEEEEE"/>
<rect x="2" y="290" width="339" height="1" fill="#EEEEEE"/>
<rect y="0.53125" width="92" height="12.0323" fill="#E1E1E1" fill-opacity="0.5"/>
<rect y="20.5859" width="92" height="12.0323" fill="#E1E1E1" fill-opacity="0.5"/>
<rect y="40.6406" width="57" height="12.0323" fill="#E1E1E1" fill-opacity="0.5"/>
<rect y="190.039" width="92" height="12.0323" fill="#E1E1E1" fill-opacity="0.5"/>
<rect y="227.141" width="83" height="12.0323" fill="#E1E1E1" fill-opacity="0.5"/>
<rect x="1" y="96.7891" width="57" height="12.0323" fill="#E1E1E1" fill-opacity="0.5"/>
<rect x="1" y="141.91" width="35" height="12.0323" fill="#E1E1E1" fill-opacity="0.5"/>
<rect x="281" y="141.91" width="59" height="12.0323" fill="#E1E1E1" fill-opacity="0.5"/>
<rect x="281" y="226.137" width="59" height="12.0323" fill="#E1E1E1" fill-opacity="0.5"/>
<rect x="265" y="185.027" width="75" height="12.0324" fill="#E1E1E1" fill-opacity="0.5"/>
<rect x="2" y="268.25" width="35" height="12.0323" fill="#E1E1E1" fill-opacity="0.5"/>
<rect y="79.7461" width="165" height="12.0323" fill="#E1E1E1" fill-opacity="0.5"/>
</svg>
