<svg width="22" height="22" viewBox="0 0 22 22" fill="none" xmlns="http://www.w3.org/2000/svg">
<path d="M11.944 3.16228H18.1318L18.7385 2.61906C19.1759 2.22757 19.3384 1.5933 19.1542 1.00151C18.9687 0.409728 18.4879 0.0273438 17.93 0.0273438H12.1458C11.5879 0.0273438 11.1071 0.409728 10.9216 1.00151C10.736 1.5933 10.8999 2.22908 11.3373 2.61906L11.944 3.16228Z" fill="#A91F23"/>
<path d="M1.0076 11.0018C0.740575 11.007 0.526367 11.1984 0.526367 11.4337V19.1905C0.526367 19.4284 0.744977 19.6211 1.01494 19.6211H3.09099C3.3096 19.6211 3.5018 19.4931 3.56196 19.3082L5.72604 12.5858C5.86542 12.1513 5.60133 11.6949 5.1201 11.541C4.23392 11.2553 2.87385 10.9747 1.0076 11.0018Z" fill="#A91F23"/>
<path d="M10.2775 12.9886C10.3783 13.0464 10.4819 13.1055 10.5895 13.1659L10.6877 13.1794C12.1008 13.3796 14.8766 13.7706 15.4598 15.7028H16.5772C17.7028 15.2553 18.7561 14.9073 19.6569 14.9073C19.7318 14.9073 19.8013 14.9207 19.8749 14.9248C20.9651 14.0931 21.4733 12.7077 21.4733 11.3292C21.4733 9.14034 20.2047 6.48663 18.4986 4.73047H11.587C9.86324 6.56725 8.75537 9.32577 8.75537 11.3292C8.75537 11.6395 8.78399 11.9499 8.83577 12.2536C9.36994 12.4753 9.82099 12.7279 10.2775 12.9886Z" fill="#A91F23"/>
<path d="M19.7641 16.4718C18.0545 16.4718 14.634 18.6163 12.9244 18.6163C11.2148 18.6163 9.28977 17.3179 9.28977 17.3179C9.28977 17.3179 11.5932 17.741 12.9231 17.741C14.2531 17.741 14.6327 17.2912 14.6327 16.6827C14.6327 15.2001 12.0908 14.9702 10.8057 14.7771C9.54371 14.0809 8.88834 13.5308 6.79784 13.3555C6.78501 13.4762 6.76577 13.5956 6.73243 13.7163L5.01514 19.7127C6.96072 20.588 10.3107 21.9765 12.069 21.9765C14.634 21.9765 21.4737 18.5883 21.4737 17.7422C21.4737 16.8949 20.6182 16.4718 19.7641 16.4718Z" fill="#A91F23"/>
</svg>
