<svg width="116" height="116" viewBox="0 0 116 116" fill="none" xmlns="http://www.w3.org/2000/svg">
<rect x="1" y="1" width="114" height="114" rx="7" fill="white" stroke="#343657" stroke-width="2"/>
<rect x="18.8108" y="18.8125" width="78.3784" height="78.3784" rx="8" fill="#F6D1C4"/>
<path d="M61.6206 45.4578H73.1914L74.326 44.3712C75.144 43.5882 75.4479 42.3196 75.1034 41.136C74.7565 39.9523 73.8575 39.1875 72.8141 39.1875H61.9979C60.9546 39.1875 60.0555 39.9523 59.7086 41.136C59.3616 42.3196 59.6681 43.5913 60.486 44.3712L61.6206 45.4578Z" fill="#A91F23"/>
<path d="M37.0626 61.1365C36.503 61.1468 36.0542 61.5296 36.0542 62.0002V77.5149C36.0542 77.9907 36.5123 78.3761 37.0779 78.3761H41.428C41.8861 78.3761 42.2888 78.12 42.4148 77.7502L46.9494 64.3046C47.2414 63.4356 46.688 62.5227 45.6797 62.2149C43.8228 61.6434 40.973 61.0822 37.0626 61.1365Z" fill="#A91F23"/>
<path d="M56.4867 65.1149C56.698 65.2305 56.915 65.3487 57.1406 65.4696L57.3462 65.4965C60.3072 65.897 66.1234 66.679 67.3455 70.5436H69.6869C72.0454 69.6487 74.2525 68.9526 76.1399 68.9526C76.2969 68.9526 76.4425 68.9795 76.5967 68.9876C78.881 67.324 79.946 64.5532 79.946 61.7959C79.946 57.418 77.2877 52.1102 73.7129 48.5977H59.2307C55.6187 52.2714 53.2974 57.7888 53.2974 61.7959C53.2974 62.4167 53.3573 63.0375 53.4658 63.6448C54.5851 64.0883 55.5302 64.5935 56.4867 65.1149Z" fill="#A91F23"/>
<path d="M76.3637 72.0729C72.7815 72.0729 65.6144 76.3621 62.0322 76.3621C58.45 76.3621 54.4163 73.7652 54.4163 73.7652C54.4163 73.7652 59.2428 74.6114 62.0295 74.6114C64.8163 74.6114 65.6117 73.7119 65.6117 72.4947C65.6117 69.5294 60.2855 69.0695 57.5928 68.6832C54.9484 67.2908 53.5752 66.1905 49.1949 65.8398C49.168 66.0812 49.1277 66.3201 49.0578 66.5615L45.4595 78.555C49.5361 80.3058 56.5555 83.0831 60.2398 83.0831C65.6144 83.0831 79.946 76.3062 79.946 74.6139C79.946 72.9191 78.1535 72.0729 76.3637 72.0729Z" fill="#A91F23"/>
</svg>
