<svg width="17" height="16" viewBox="0 0 17 16" fill="none" xmlns="http://www.w3.org/2000/svg">
<path d="M11.4482 6.07033L11.4491 6.07126C11.4636 6.0872 11.4774 6.10867 11.4875 6.13551C11.4976 6.16237 11.5033 6.19259 11.5033 6.22406C11.5033 6.25553 11.4976 6.28575 11.4875 6.31262C11.4774 6.33945 11.4636 6.36092 11.4491 6.37687L11.4486 6.37733L7.67577 10.5268L7.67535 10.5273C7.66091 10.5432 7.64635 10.553 7.63393 10.5587C7.62167 10.5642 7.61048 10.5663 7.60052 10.5663C7.59056 10.5663 7.57936 10.5642 7.5671 10.5587C7.55468 10.553 7.54013 10.5432 7.52568 10.5273L7.52526 10.5268L5.63882 8.45206C5.62424 8.43602 5.61045 8.41446 5.60031 8.38755C5.59017 8.36061 5.58447 8.33033 5.58447 8.29879C5.58447 8.26726 5.59017 8.23697 5.60031 8.21003C5.61045 8.18312 5.62424 8.16156 5.63882 8.14552C5.65332 8.12958 5.66793 8.11975 5.68042 8.11406C5.69275 8.10844 5.70403 8.10634 5.71408 8.10634C5.72413 8.10634 5.73541 8.10844 5.74774 8.11406C5.76023 8.11975 5.77484 8.12958 5.78934 8.14552L7.23043 9.73184L7.60042 10.1391L7.97052 9.73193L11.2982 6.07072L11.2986 6.07033C11.313 6.0544 11.3276 6.0446 11.34 6.03893C11.3522 6.03334 11.3634 6.03125 11.3734 6.03125C11.3834 6.03125 11.3945 6.03334 11.4068 6.03893C11.4192 6.0446 11.4338 6.0544 11.4482 6.07033Z" stroke="#A91F23"/>
<circle cx="8.54384" cy="7.61074" r="7.11074" stroke="#A91F23"/>
</svg>
