<svg width="52" height="52" viewBox="0 0 52 52" fill="none" xmlns="http://www.w3.org/2000/svg">
<rect x="0.5" y="0.5" width="51" height="51" rx="3.5" fill="white" stroke="#E5E5E5"/>
<rect x="8.43237" y="8.43359" width="35.1351" height="35.1351" rx="8" fill="#F6D1C4"/>
<path d="M27.6229 20.3772H32.8099L33.3185 19.8902C33.6851 19.5391 33.8214 18.9705 33.667 18.4399C33.5114 17.9093 33.1084 17.5664 32.6407 17.5664H27.7921C27.3244 17.5664 26.9213 17.9093 26.7658 18.4399C26.6103 18.9705 26.7477 19.5405 27.1143 19.8902L27.6229 20.3772Z" fill="#A91F23"/>
<path d="M16.6141 27.4079C16.3633 27.4125 16.1621 27.5841 16.1621 27.7951V34.7499C16.1621 34.9632 16.3674 35.136 16.621 35.136H18.5711C18.7764 35.136 18.9569 35.0212 19.0134 34.8554L21.0461 28.8281C21.1771 28.4385 20.929 28.0293 20.477 27.8913C19.6446 27.6351 18.3671 27.3835 16.6141 27.4079Z" fill="#A91F23"/>
<path d="M25.3216 29.1894C25.4163 29.2412 25.5136 29.2943 25.6147 29.3485L25.7068 29.3605C27.0342 29.54 29.6415 29.8906 30.1893 31.623H31.2389C32.2961 31.2218 33.2855 30.9098 34.1316 30.9098C34.202 30.9098 34.2673 30.9218 34.3364 30.9255C35.3604 30.1797 35.8378 28.9376 35.8378 27.7016C35.8378 25.7391 34.6461 23.3597 33.0436 21.7852H26.5516C24.9325 23.432 23.8918 25.9053 23.8918 27.7016C23.8918 27.9799 23.9187 28.2582 23.9674 28.5304C24.4691 28.7292 24.8928 28.9557 25.3216 29.1894Z" fill="#A91F23"/>
<path d="M34.2321 32.3059C32.6262 32.3059 29.4134 34.2286 27.8076 34.2286C26.2018 34.2286 24.3936 33.0645 24.3936 33.0645C24.3936 33.0645 26.5571 33.4438 27.8064 33.4438C29.0556 33.4438 29.4122 33.0406 29.4122 32.4949C29.4122 31.1656 27.0246 30.9595 25.8175 30.7863C24.6321 30.1621 24.0165 29.6689 22.0529 29.5117C22.0409 29.6199 22.0228 29.727 21.9915 29.8352L20.3784 35.2116C22.2059 35.9964 25.3525 37.2414 27.0041 37.2414C29.4134 37.2414 35.8379 34.2035 35.8379 33.4449C35.8379 32.6852 35.0344 32.3059 34.2321 32.3059Z" fill="#A91F23"/>
</svg>
