<svg width="19" height="14" viewBox="0 0 19 14" fill="none" xmlns="http://www.w3.org/2000/svg">
<path d="M17.577 0.96875H1.42296C0.637057 0.96875 0 1.60581 0 2.39171V7.19288H19V2.39171C19 1.60581 18.3629 0.96875 17.577 0.96875Z" fill="#4173CD"/>
<path d="M19 7.19141H0V10.3034H19V7.19141Z" fill="#FFE15A"/>
<path d="M0 11.9938C0 12.7797 0.637057 13.4168 1.42296 13.4168H17.577C18.3629 13.4168 19 12.7797 19 11.9938V10.3047H0V11.9938Z" fill="#73AF00"/>
<path d="M17.0042 4.30389L18.3451 4.0819L17.0042 3.85991L18.158 3.1417L16.8343 3.44974L17.6255 2.34462L16.5204 3.13583L16.8284 1.81207L16.1102 2.96595L15.8882 1.625L15.6662 2.96591L14.948 1.81203L15.256 3.1358L14.1509 2.34459L14.9421 3.44971L13.6183 3.14166L14.7722 3.85987L13.4313 4.0819L14.7722 4.30389L13.6183 5.0221L14.9421 4.71406L14.1509 5.81918L15.256 5.02797L14.9479 6.35173L15.6661 5.19785L15.8882 6.5388L16.1102 5.19789L16.8284 6.35177L16.5203 5.028L17.6255 5.81921L16.8342 4.7141L18.158 5.02214L17.0042 4.30389ZM15.8882 4.90087C15.4358 4.90087 15.0692 4.53423 15.0692 4.0819C15.0692 3.62957 15.4358 3.26293 15.8882 3.26293C16.3405 3.26293 16.7071 3.62957 16.7071 4.0819C16.7071 4.53423 16.3405 4.90087 15.8882 4.90087Z" fill="#FFE15A"/>
<path d="M15.8883 4.69331C16.2275 4.69331 16.5025 4.41831 16.5025 4.07908C16.5025 3.73985 16.2275 3.46484 15.8883 3.46484C15.5491 3.46484 15.274 3.73985 15.274 4.07908C15.274 4.41831 15.5491 4.69331 15.8883 4.69331Z" fill="#FFE15A"/>
</svg>
