<svg width="112" height="76" viewBox="0 0 208 115" fill="none" xmlns="http://www.w3.org/2000/svg">
<rect width="208" height="114.89" rx="8" fill="#343657"/>
<path fill-rule="evenodd" clip-rule="evenodd" d="M4.14286 38.0537C17.8711 38.0537 29 26.3819 29 11.984C29 7.66322 27.9978 3.58797 26.2238 0H8C3.58172 0 0 3.58173 0 8V37.6932C1.34729 37.9303 2.73134 38.0537 4.14286 38.0537Z" fill="#E95927"/>
<path opacity="0.1" fill-rule="evenodd" clip-rule="evenodd" d="M1.98779 110.473C13.4837 102.31 39.3358 90.9198 72.7823 93.077C126.731 96.5564 152.642 80.7655 168.23 70.1129C186.261 57.7906 201.28 24.5916 204.068 1.98438C206.421 3.377 208 5.9414 208 8.87446V106.999C208 111.418 204.418 114.999 200 114.999H9.19654C6.02285 114.999 3.28078 113.151 1.98779 110.473Z" fill="url(#paint0_linear)"/>
<path d="M117.692 33.4219H87.9668V80.5439H117.692V33.4219Z" fill="#FF5F00"/>
<path d="M92.16 56.9778C92.1563 52.4404 93.216 47.9616 95.2591 43.8804C97.3021 39.7991 100.275 36.2224 103.952 33.4209C99.3976 29.9467 93.9276 27.7863 88.1677 27.1866C82.4077 26.5869 76.5901 27.5721 71.3797 30.0297C66.1694 32.4873 61.7765 36.318 58.7031 41.0841C55.6298 45.8502 54 51.3594 54 56.982C54 62.6046 55.6298 68.1137 58.7031 72.8798C61.7765 77.646 66.1694 81.4767 71.3797 83.9343C76.5901 86.3918 82.4077 87.3771 88.1677 86.7774C93.9276 86.1777 99.3976 84.0173 103.952 80.543C100.274 77.7407 97.3003 74.1626 95.2572 70.0799C93.2141 65.9971 92.155 61.5167 92.16 56.9778Z" fill="#EB001B"/>
<path d="M154 56.974C154 62.597 152.37 68.1065 149.296 72.8728C146.222 77.6391 141.828 81.4697 136.617 83.927C131.406 86.3842 125.588 87.3688 119.828 86.7682C114.067 86.1677 108.597 84.0062 104.043 80.5309C107.719 77.7269 110.691 74.1492 112.734 70.0677C114.778 65.9863 115.84 61.5077 115.84 56.9698C115.84 52.4319 114.778 47.9533 112.734 43.8719C110.691 39.7905 107.719 36.2128 104.043 33.4088C108.597 29.9335 114.067 27.772 119.828 27.1714C125.588 26.5709 131.406 27.5555 136.617 30.0127C141.828 32.4699 146.222 36.3006 149.296 41.0668C152.37 45.8331 154 51.3426 154 56.9657V56.974Z" fill="#F79E1B"/>
<defs>
<linearGradient id="paint0_linear" x1="204.208" y1="8.98865" x2="1.00433" y2="115.766" gradientUnits="userSpaceOnUse">
<stop stop-color="#E3E3E3"/>
<stop offset="1" stop-color="#232B46"/>
</linearGradient>
</defs>
</svg>
