<svg width="248" height="155" viewBox="0 0 248 155" fill="none" xmlns="http://www.w3.org/2000/svg">
<g filter="url(#filter0_d)">
<rect x="20" y="15" width="208" height="114.89" rx="8" fill="#979797"/>
</g>
<path fill-rule="evenodd" clip-rule="evenodd" d="M24.1429 53.0537C37.8711 53.0537 49 41.3819 49 26.984C49 22.6632 47.9978 18.588 46.2238 15H28C23.5817 15 20 18.5817 20 23V52.6932C21.3473 52.9303 22.7313 53.0537 24.1429 53.0537Z" fill="#E95927"/>
<path opacity="0.1" fill-rule="evenodd" clip-rule="evenodd" d="M22 125.488C33.4959 117.326 59.3481 105.935 92.7946 108.093C146.743 111.572 172.655 95.7811 188.242 85.1285C206.273 72.8062 221.292 39.6072 224.08 17C226.434 18.3926 228.012 20.957 228.012 23.8901V122.015C228.012 126.433 224.43 130.015 220.012 130.015H29.2088C26.0351 130.015 23.293 128.167 22 125.488Z" fill="url(#paint0_linear)"/>
<path d="M138.692 50.4219H108.967V97.5439H138.692V50.4219Z" fill="#FF5F00"/>
<path d="M113.16 73.9778C113.156 69.4404 114.216 64.9616 116.259 60.8804C118.302 56.7991 121.275 53.2224 124.952 50.4209C120.398 46.9467 114.928 44.7863 109.168 44.1866C103.408 43.5869 97.5901 44.5721 92.3797 47.0297C87.1694 49.4873 82.7765 53.318 79.7031 58.0841C76.6298 62.8502 75 68.3594 75 73.982C75 79.6046 76.6298 85.1137 79.7031 89.8798C82.7765 94.646 87.1694 98.4767 92.3797 100.934C97.5901 103.392 103.408 104.377 109.168 103.777C114.928 103.178 120.398 101.017 124.952 97.543C121.274 94.7407 118.3 91.1626 116.257 87.0799C114.214 82.9971 113.155 78.5167 113.16 73.9778Z" fill="#EB001B"/>
<path d="M175 73.974C175 79.597 173.37 85.1065 170.296 89.8728C167.222 94.6391 162.828 98.4697 157.617 100.927C152.406 103.384 146.588 104.369 140.828 103.768C135.067 103.168 129.597 101.006 125.043 97.5309C128.719 94.7269 131.691 91.1492 133.734 87.0677C135.778 82.9863 136.84 78.5077 136.84 73.9698C136.84 69.4319 135.778 64.9533 133.734 60.8719C131.691 56.7905 128.719 53.2128 125.043 50.4088C129.597 46.9335 135.067 44.772 140.828 44.1714C146.588 43.5709 152.406 44.5555 157.617 47.0127C162.828 49.4699 167.222 53.3006 170.296 58.0668C173.37 62.8331 175 68.3426 175 73.9657V73.974Z" fill="#F79E1B"/>
<defs>
<filter id="filter0_d" x="0" y="0" width="248" height="154.89" filterUnits="userSpaceOnUse" color-interpolation-filters="sRGB">
<feFlood flood-opacity="0" result="BackgroundImageFix"/>
<feColorMatrix in="SourceAlpha" type="matrix" values="0 0 0 0 0 0 0 0 0 0 0 0 0 0 0 0 0 0 127 0"/>
<feOffset dy="5"/>
<feGaussianBlur stdDeviation="10"/>
<feColorMatrix type="matrix" values="0 0 0 0 0 0 0 0 0 0 0 0 0 0 0 0 0 0 0.15 0"/>
<feBlend mode="normal" in2="BackgroundImageFix" result="effect1_dropShadow"/>
<feBlend mode="normal" in="SourceGraphic" in2="effect1_dropShadow" result="shape"/>
</filter>
<linearGradient id="paint0_linear" x1="224.22" y1="24.0043" x2="21.0165" y2="130.782" gradientUnits="userSpaceOnUse">
<stop offset="0.53125" stop-color="#E3E3E3"/>
<stop offset="1" stop-color="#232B46"/>
</linearGradient>
</defs>
</svg>
