<svg width="112" height="76" viewBox="0 0 209 116" fill="none" xmlns="http://www.w3.org/2000/svg">
<rect width="208" height="114.89" rx="8" fill="#979797"/>
<path fill-rule="evenodd" clip-rule="evenodd" d="M4.14286 38.0537C17.8711 38.0537 29 26.3819 29 11.984C29 7.66322 27.9978 3.58797 26.2238 0H8C3.58172 0 0 3.58173 0 8V37.6932C1.34729 37.9303 2.73134 38.0537 4.14286 38.0537Z" fill="#A91F23"/>
<path opacity="0.1" fill-rule="evenodd" clip-rule="evenodd" d="M2 110.488C13.4959 102.326 39.3481 90.9355 72.7946 93.0926C126.743 96.5721 152.655 80.7811 168.242 70.1285C186.273 57.8062 201.292 24.6072 204.08 2C206.434 3.39263 208.012 5.95702 208.012 8.89009V107.015C208.012 111.433 204.43 115.015 200.012 115.015H9.20875C6.03505 115.015 3.29299 113.167 2 110.488Z" fill="url(#paint0_linear)"/>
<path d="M118.692 35.4219H88.9668V82.5439H118.692V35.4219Z" fill="#FF5F00"/>
<path d="M93.16 58.9778C93.1563 54.4404 94.216 49.9616 96.2591 45.8804C98.3021 41.7991 101.275 38.2224 104.952 35.4209C100.398 31.9467 94.9276 29.7863 89.1677 29.1866C83.4077 28.5869 77.5901 29.5721 72.3797 32.0297C67.1694 34.4873 62.7765 38.318 59.7031 43.0841C56.6298 47.8502 55 53.3594 55 58.982C55 64.6046 56.6298 70.1137 59.7031 74.8798C62.7765 79.646 67.1694 83.4767 72.3797 85.9343C77.5901 88.3918 83.4077 89.3771 89.1677 88.7774C94.9276 88.1777 100.398 86.0173 104.952 82.543C101.274 79.7407 98.3003 76.1626 96.2572 72.0799C94.2141 67.9971 93.155 63.5167 93.16 58.9778Z" fill="#EB001B"/>
<path d="M155 58.974C155 64.597 153.37 70.1065 150.296 74.8728C147.222 79.6391 142.828 83.4697 137.617 85.927C132.406 88.3842 126.588 89.3688 120.828 88.7682C115.067 88.1677 109.597 86.0062 105.043 82.5309C108.719 79.7269 111.691 76.1492 113.734 72.0677C115.778 67.9863 116.84 63.5077 116.84 58.9698C116.84 54.4319 115.778 49.9533 113.734 45.8719C111.691 41.7905 108.719 38.2128 105.043 35.4088C109.597 31.9335 115.067 29.772 120.828 29.1714C126.588 28.5709 132.406 29.5555 137.617 32.0127C142.828 34.4699 147.222 38.3006 150.296 43.0668C153.37 47.8331 155 53.3426 155 58.9657V58.974Z" fill="#F79E1B"/>
<defs>
<linearGradient id="paint0_linear" x1="204.22" y1="9.00428" x2="1.01653" y2="115.782" gradientUnits="userSpaceOnUse">
<stop offset="0.53125" stop-color="#E3E3E3"/>
<stop offset="1" stop-color="#232B46"/>
</linearGradient>
</defs>
</svg>
