<svg width="248" height="155" viewBox="0 0 248 155" fill="none" xmlns="http://www.w3.org/2000/svg">
<g filter="url(#filter0_d)">
<rect x="20" y="15" width="208" height="114.89" rx="8" fill="#343657"/>
</g>
<path fill-rule="evenodd" clip-rule="evenodd" d="M24.1429 53.0537C37.8711 53.0537 49 41.3819 49 26.984C49 22.6632 47.9978 18.588 46.2238 15H28C23.5817 15 20 18.5817 20 23V52.6932C21.3473 52.9303 22.7313 53.0537 24.1429 53.0537Z" fill="#E95927"/>
<path opacity="0.1" fill-rule="evenodd" clip-rule="evenodd" d="M21.9878 125.473C33.4837 117.31 59.3358 105.92 92.7823 108.077C146.731 111.556 172.642 95.7655 188.23 85.1129C206.261 72.7906 221.28 39.5916 224.068 16.9844C226.421 18.377 228 20.9414 228 23.8745V121.999C228 126.418 224.418 129.999 220 129.999H29.1965C26.0228 129.999 23.2808 128.151 21.9878 125.473Z" fill="url(#paint0_linear)"/>
<path d="M137.692 48.4219H107.967V95.5439H137.692V48.4219Z" fill="#FF5F00"/>
<path d="M112.16 71.9778C112.156 67.4404 113.216 62.9616 115.259 58.8804C117.302 54.7991 120.275 51.2224 123.952 48.4209C119.398 44.9467 113.928 42.7863 108.168 42.1866C102.408 41.5869 96.5901 42.5721 91.3797 45.0297C86.1694 47.4873 81.7765 51.318 78.7031 56.0841C75.6298 60.8502 74 66.3594 74 71.982C74 77.6046 75.6298 83.1137 78.7031 87.8798C81.7765 92.646 86.1694 96.4767 91.3797 98.9343C96.5901 101.392 102.408 102.377 108.168 101.777C113.928 101.178 119.398 99.0173 123.952 95.543C120.274 92.7407 117.3 89.1626 115.257 85.0799C113.214 80.9971 112.155 76.5167 112.16 71.9778Z" fill="#EB001B"/>
<path d="M174 71.974C174 77.597 172.37 83.1065 169.296 87.8728C166.222 92.6391 161.828 96.4697 156.617 98.927C151.406 101.384 145.588 102.369 139.828 101.768C134.067 101.168 128.597 99.0062 124.043 95.5309C127.719 92.7269 130.691 89.1492 132.734 85.0677C134.778 80.9863 135.84 76.5077 135.84 71.9698C135.84 67.4319 134.778 62.9533 132.734 58.8719C130.691 54.7905 127.719 51.2128 124.043 48.4088C128.597 44.9335 134.067 42.772 139.828 42.1714C145.588 41.5709 151.406 42.5555 156.617 45.0127C161.828 47.4699 166.222 51.3006 169.296 56.0668C172.37 60.8331 174 66.3426 174 71.9657V71.974Z" fill="#F79E1B"/>
<defs>
<filter id="filter0_d" x="0" y="0" width="248" height="154.89" filterUnits="userSpaceOnUse" color-interpolation-filters="sRGB">
<feFlood flood-opacity="0" result="BackgroundImageFix"/>
<feColorMatrix in="SourceAlpha" type="matrix" values="0 0 0 0 0 0 0 0 0 0 0 0 0 0 0 0 0 0 127 0"/>
<feOffset dy="5"/>
<feGaussianBlur stdDeviation="10"/>
<feColorMatrix type="matrix" values="0 0 0 0 0 0 0 0 0 0 0 0 0 0 0 0 0 0 0.15 0"/>
<feBlend mode="normal" in2="BackgroundImageFix" result="effect1_dropShadow"/>
<feBlend mode="normal" in="SourceGraphic" in2="effect1_dropShadow" result="shape"/>
</filter>
<linearGradient id="paint0_linear" x1="224.208" y1="23.9887" x2="21.0043" y2="130.766" gradientUnits="userSpaceOnUse">
<stop stop-color="#E3E3E3"/>
<stop offset="1" stop-color="#232B46"/>
</linearGradient>
</defs>
</svg>
