<svg width="112" height="76" viewBox="0 0 208 115" fill="none" xmlns="http://www.w3.org/2000/svg">
<rect width="208" height="114.89" rx="8" fill="#979797"/>
<path fill-rule="evenodd" clip-rule="evenodd" d="M4.14286 38.0537C17.8711 38.0537 29 26.3819 29 11.984C29 7.66322 27.9978 3.58797 26.2238 0H8C3.58172 0 0 3.58173 0 8V37.6932C1.34729 37.9303 2.73134 38.0537 4.14286 38.0537Z" fill="#E95927"/>
<path opacity="0.1" fill-rule="evenodd" clip-rule="evenodd" d="M1.98779 110.473C13.4837 102.31 39.3358 90.9198 72.7823 93.077C126.731 96.5564 152.642 80.7655 168.23 70.1129C186.261 57.7906 201.28 24.5916 204.068 1.98438C206.421 3.377 208 5.9414 208 8.87446V106.999C208 111.418 204.418 114.999 200 114.999H9.19654C6.02285 114.999 3.28078 113.151 1.98779 110.473Z" fill="url(#paint0_linear)"/>
<path fill-rule="evenodd" clip-rule="evenodd" d="M79.0012 72.6688H70.3468L63.857 47.91C63.549 46.7711 62.8949 45.7642 61.9329 45.2897C59.5319 44.0971 56.8862 43.148 54 42.6694V41.7161H67.9416C69.8657 41.7161 71.3088 43.148 71.5494 44.811L74.9166 62.6704L83.5668 41.7161H91.9807L79.0012 72.6688ZM96.7912 72.6688H88.6178L95.3481 41.7161H103.522L96.7912 72.6688ZM114.096 50.2887C114.336 48.6216 115.779 47.6684 117.463 47.6684C120.109 47.429 122.991 47.9077 125.396 49.0961L126.839 42.4319C124.434 41.4787 121.788 41 119.387 41C111.454 41 105.682 45.2874 105.682 51.2378C105.682 55.7645 109.77 58.1413 112.657 59.5732C115.779 61.001 116.982 61.9542 116.741 63.382C116.741 65.5236 114.336 66.4768 111.935 66.4768C109.049 66.4768 106.163 65.7629 103.521 64.5704L102.078 71.2388C104.964 72.4272 108.087 72.9059 110.973 72.9059C119.868 73.1411 125.396 68.8578 125.396 62.4288C125.396 54.3326 114.096 53.8581 114.096 50.2887ZM154 72.6688L147.51 41.7161H140.54C139.097 41.7161 137.653 42.6694 137.172 44.0971L125.155 72.6688H133.569L135.248 68.1462H145.586L146.548 72.6688H154ZM141.743 50.0392L144.144 61.7047H137.413L141.743 50.0392Z" fill="white"/>
<defs>
<linearGradient id="paint0_linear" x1="204.208" y1="8.98865" x2="1.00433" y2="115.766" gradientUnits="userSpaceOnUse">
<stop offset="0.53125" stop-color="#E3E3E3"/>
<stop offset="1" stop-color="#232B46"/>
</linearGradient>
</defs>
</svg>
