<svg width="248" height="155" viewBox="0 0 248 155" fill="none" xmlns="http://www.w3.org/2000/svg">
<g filter="url(#filter0_d)">
<rect x="20" y="15" width="208" height="114.89" rx="8" fill="#BDBDBD"/>
</g>
<path fill-rule="evenodd" clip-rule="evenodd" d="M24.1429 53.0537C37.8711 53.0537 49 41.3819 49 26.984C49 22.6632 47.9978 18.588 46.2238 15H28C23.5817 15 20 18.5817 20 23V52.6932C21.3473 52.9303 22.7313 53.0537 24.1429 53.0537Z" fill="#E95927"/>
<path opacity="0.1" fill-rule="evenodd" clip-rule="evenodd" d="M21.9878 125.473C33.4837 117.31 59.3358 105.92 92.7823 108.077C146.731 111.556 172.642 95.7655 188.23 85.1129C206.261 72.7906 221.28 39.5916 224.068 16.9844C226.421 18.377 228 20.9414 228 23.8745V121.999C228 126.418 224.418 129.999 220 129.999H29.1965C26.0228 129.999 23.2808 128.151 21.9878 125.473Z" fill="url(#paint0_linear)"/>
<path fill-rule="evenodd" clip-rule="evenodd" d="M99.0012 87.6688H90.3468L83.857 62.91C83.549 61.7711 82.8949 60.7642 81.9329 60.2897C79.5319 59.0971 76.8862 58.148 74 57.6694V56.7161H87.9416C89.8657 56.7161 91.3088 58.148 91.5494 59.811L94.9166 77.6704L103.567 56.7161H111.981L99.0012 87.6688ZM116.791 87.6688H108.618L115.348 56.7161H123.522L116.791 87.6688ZM134.096 65.2887C134.336 63.6216 135.779 62.6684 137.463 62.6684C140.109 62.429 142.991 62.9077 145.396 64.0961L146.839 57.4319C144.434 56.4787 141.788 56 139.387 56C131.454 56 125.682 60.2874 125.682 66.2378C125.682 70.7645 129.77 73.1413 132.657 74.5732C135.779 76.001 136.982 76.9542 136.741 78.382C136.741 80.5236 134.336 81.4768 131.935 81.4768C129.049 81.4768 126.163 80.7629 123.521 79.5704L122.078 86.2388C124.964 87.4272 128.087 87.9059 130.973 87.9059C139.868 88.1411 145.396 83.8578 145.396 77.4288C145.396 69.3326 134.096 68.8581 134.096 65.2887ZM174 87.6688L167.51 56.7161H160.54C159.097 56.7161 157.653 57.6694 157.172 59.0971L145.155 87.6688H153.569L155.248 83.1462H165.586L166.548 87.6688H174ZM161.743 65.0392L164.144 76.7047H157.413L161.743 65.0392Z" fill="white"/>
<defs>
<filter id="filter0_d" x="0" y="0" width="248" height="154.89" filterUnits="userSpaceOnUse" color-interpolation-filters="sRGB">
<feFlood flood-opacity="0" result="BackgroundImageFix"/>
<feColorMatrix in="SourceAlpha" type="matrix" values="0 0 0 0 0 0 0 0 0 0 0 0 0 0 0 0 0 0 127 0"/>
<feOffset dy="5"/>
<feGaussianBlur stdDeviation="10"/>
<feColorMatrix type="matrix" values="0 0 0 0 0 0 0 0 0 0 0 0 0 0 0 0 0 0 0.15 0"/>
<feBlend mode="normal" in2="BackgroundImageFix" result="effect1_dropShadow"/>
<feBlend mode="normal" in="SourceGraphic" in2="effect1_dropShadow" result="shape"/>
</filter>
<linearGradient id="paint0_linear" x1="224.208" y1="23.9887" x2="21.0043" y2="130.766" gradientUnits="userSpaceOnUse">
<stop offset="0.322917" stop-color="#E3E3E3"/>
<stop offset="1" stop-color="#232B46"/>
</linearGradient>
</defs>
</svg>
