<svg width="58" height="51" viewBox="0 0 58 51" fill="none" xmlns="http://www.w3.org/2000/svg">
<path d="M19.0952 10.0885C18.0991 10.5069 14.2442 12.1106 12.0926 16.2643C11.6344 17.1508 9.48288 21.3045 11.0667 24.9702C13.1684 29.8311 19.5634 28.6458 22.5018 33.2178C25.0219 37.1524 19.7925 41.0172 22.0436 45.6989C23.219 48.1393 25.9284 50.1813 28.4286 50.3706C36.2479 50.9583 50.2928 34.1143 44.5852 20.8962C40.4216 11.2938 27.1536 6.7317 19.0952 10.0885Z" fill="url(#paint0_linear)"/>
<path d="M35.0327 17.641L20.6391 12.3019C20.2008 12.1425 19.7227 12.3617 19.5633 12.8L9.84148 38.9674C9.6821 39.4056 9.90124 39.8838 10.3395 40.0431L24.7331 45.3822C25.1714 45.5416 25.6495 45.3224 25.8089 44.8842L35.5307 18.7068C35.6901 18.2785 35.471 17.8004 35.0327 17.641Z" fill="#2D548D"/>
<path opacity="0.09" d="M26.4064 31.0459C26.0478 31.0459 25.6793 31.0359 25.3007 31.016C19.7127 30.7072 15.1505 28.217 13.0986 24.3621C9.82144 18.2062 13.0388 9.62985 17.9695 6.93044C20.4597 5.55583 22.6212 5.59568 23.9959 5.87458C26.3466 6.34275 28.0798 7.42849 28.8767 8.92263C29.7334 10.5263 29.2752 12.0304 28.7871 13.6142C28.3488 15.0386 27.9005 16.5029 28.4384 18.0867C28.9166 19.5011 30.1617 19.9394 31.4865 20.4076C32.8312 20.8857 34.2257 21.3738 34.9728 22.9177C35.7597 24.5513 35.6601 26.7826 34.7537 28.1273C33.5185 29.9203 30.2513 31.0459 26.4064 31.0459ZM22.442 5.83474C21.2168 5.83474 19.6927 6.11364 18.0293 7.03005C13.1484 9.70954 9.9609 18.2162 13.2082 24.3123C15.2402 28.1373 19.7724 30.5976 25.3207 30.9064C29.5839 31.1455 33.3392 30 34.664 28.0675C35.5505 26.7627 35.6502 24.5713 34.8732 22.9775C34.1461 21.4734 32.7814 20.9953 31.4566 20.5271C30.1119 20.049 28.8369 19.6008 28.3388 18.1365C27.791 16.5129 28.2492 15.0287 28.6875 13.5843C29.1656 12.0205 29.6238 10.5363 28.7871 8.97243C28.0101 7.50818 26.2968 6.44236 23.9859 5.98415C23.5377 5.8945 23.0197 5.83474 22.442 5.83474Z" fill="#AAAAD5"/>
<path opacity="0.2" d="M31.5465 16.3437L29.9527 17.4096L16.0373 26.7529L13.8359 28.2371L16.8641 20.0592L19.0754 18.575L24.0658 15.2182L25.6596 14.1523L31.5465 16.3437Z" fill="#EEEDF3"/>
<path opacity="0.2" d="M34.7141 17.5191L33.1203 18.585L14.4037 31.1557L12.1924 32.6299L13.2682 29.7512L15.4695 28.277V28.267L31.0484 17.818L32.6422 16.7422L34.7141 17.5191Z" fill="#EEEDF3"/>
<path d="M35.0325 17.641L34.7138 17.5215L32.6419 16.7545L31.5462 16.3461L25.6593 14.1646L20.639 12.3019C20.2107 12.1425 19.7226 12.3617 19.5632 12.8L16.8638 20.0715L13.8257 28.2494L13.2579 29.7734L12.1921 32.6521L9.84134 38.9873C9.81145 39.067 9.80149 39.1466 9.79153 39.2263C9.76165 39.5849 9.98079 39.9336 10.3394 40.0631L13.0089 41.0591L15.021 41.8062L20.3402 43.7785L22.2825 44.4957L24.7329 45.4021C25.1613 45.5615 25.6493 45.3424 25.8087 44.914L35.3513 19.2148L35.5306 18.7367C35.69 18.2785 35.4708 17.8004 35.0325 17.641ZM33.6679 19.2646L33.4687 19.8125L25.2509 41.9556C25.1613 42.1847 24.9023 42.3142 24.6632 42.2246L22.8603 41.5572L20.6788 40.7504L16.1765 39.0769L14.1146 38.3099L12.471 37.7023C12.2917 37.6326 12.1822 37.4732 12.1822 37.2939C12.1822 37.2341 12.1822 37.1744 12.212 37.1146L14.4234 31.1679L15.4892 28.2892L16.057 26.7652L19.095 18.5873L20.639 14.4336C20.7286 14.2045 20.9876 14.075 21.2167 14.1646L24.0855 15.2304L29.9724 17.4119L31.0681 17.8203L33.14 18.5873L33.4089 18.6869C33.638 18.7765 33.7575 19.0355 33.6679 19.2646Z" fill="#EEEDF3"/>
<path d="M17.1329 41.634C16.7245 41.4846 16.5153 41.0264 16.6647 40.618C16.8141 40.2096 17.2723 40.0004 17.6807 40.1498C18.0891 40.2992 18.2983 40.7574 18.1489 41.1658C17.9895 41.5842 17.5313 41.7834 17.1329 41.634Z" fill="#C9C7D9"/>
<path opacity="0.1" d="M25.0597 27.4077C24.862 26.5675 23.7417 26.3863 23.2804 27.1277L21.4352 30.1097L20.3972 25.7767C20.1831 24.9035 19.3099 24.3599 18.4367 24.574L6.52524 27.4077C5.65206 27.6219 5.10839 28.4951 5.32256 29.3683L8.15627 41.2797C8.37045 42.1529 9.24363 42.6966 10.1168 42.4824L22.0283 39.6487C22.9015 39.4345 23.4451 38.5614 23.231 37.6882L22.193 33.3552L25.175 35.2004C25.9164 35.6618 26.839 34.9863 26.6248 34.146L25.0597 27.4077Z" fill="#3F3F3F"/>
<path d="M24.6972 23.8811L22.7202 27.0937L21.6163 22.4477C21.3857 21.5086 20.4466 20.932 19.5075 21.1462L6.72287 24.1941C5.78379 24.4247 5.20716 25.3638 5.42134 26.3029L8.46923 39.0875C8.69988 40.0266 9.63896 40.6033 10.578 40.3891L23.3627 37.3412C24.3018 37.1105 24.8784 36.1715 24.6642 35.2324L23.5604 30.5864L26.773 32.5634C27.5638 33.0577 28.5523 32.3328 28.3382 31.4266L26.6083 24.1941C26.3941 23.288 25.1914 23.0903 24.6972 23.8811Z" fill="#E83B5B"/>
<path d="M12.769 27.3242L17.448 30.1909L14.5648 34.8698" fill="white"/>
<path d="M35.9391 45.3895H42.6627C42.862 45.3895 43.0313 45.2201 43.0313 45.0209C43.0313 44.8217 42.862 44.6523 42.6627 44.6523H35.9391C35.7399 44.6523 35.5706 44.8217 35.5706 45.0209C35.5706 45.2301 35.7299 45.3895 35.9391 45.3895Z" fill="#E2E2E1"/>
<path d="M38.1605 43.8285L37.8418 41.8861L38.7184 41.6172L38.8578 43.6891L38.1605 43.8285Z" fill="#D7DDE9"/>
<path d="M38.8876 43.48C38.9474 43.4899 38.9972 43.5099 39.047 43.5497C39.3558 43.8087 40.3021 44.2669 40.7802 44.3366C41.2982 44.4163 41.3281 44.6653 40.591 44.6653C39.8638 44.6653 39.3259 44.5956 39.0072 44.6056C38.6785 44.6155 38.7681 44.6653 37.9712 44.6653C37.3537 44.6653 37.5529 43.8784 37.772 43.5198C37.8417 43.4103 37.9314 43.3505 38.0609 43.3604L38.8876 43.48Z" fill="#ED9558"/>
<path d="M35.3416 42.0127L36.5568 40.4688L37.3437 40.9369L35.9193 42.4311L35.3416 42.0127Z" fill="#D7DDE9"/>
<path d="M36.0985 42.3117C36.1284 42.3615 36.1583 42.4113 36.1583 42.4711C36.1782 42.8695 36.487 43.9054 36.8555 44.2342C37.2241 44.5728 36.985 44.6525 36.3874 44.3736C35.73 44.0648 35.5805 43.3974 35.3514 43.1683C35.1223 42.9392 35.1423 43.0289 34.6044 42.4412C34.186 41.9929 34.8932 41.6045 35.3116 41.5148C35.4411 41.4849 35.5407 41.5148 35.6204 41.6244L36.0985 42.3117Z" fill="#ED9558"/>
<path d="M34.7935 9.17969C34.7935 9.17969 34.5545 10.7734 35.0127 11.5105C35.4709 12.2477 35.5406 12.3572 35.5406 12.3572" fill="#ED8C61"/>
<path d="M35.969 13.0666C35.8395 13.1463 35.6901 13.1861 35.5507 13.1861C35.2718 13.1861 34.9928 13.0467 34.8434 12.7777C34.8335 12.7678 34.7538 12.6283 34.3255 11.951C34.0266 11.4729 33.927 10.8254 33.9171 10.2576C33.8971 9.69982 33.9569 9.22169 33.9868 9.06232C34.0565 8.61407 34.4749 8.29532 34.9331 8.36505C35.3813 8.43478 35.7001 8.85314 35.6304 9.31134C35.5905 9.5504 35.5805 9.82931 35.5805 10.0883C35.5805 10.3572 35.6005 10.6162 35.6403 10.8055C35.6602 10.9151 35.6901 11.0147 35.73 11.0744C36.1981 11.8215 36.2679 11.941 36.2679 11.941C36.497 12.3295 36.3675 12.8375 35.969 13.0666Z" fill="#F6AD86"/>
<path d="M32.911 22.1928C33.0803 19.8121 32.2834 13.9053 31.875 11.5545C31.8153 11.1959 32.0842 10.8672 32.4528 10.8672H37.3436C37.6026 10.8672 37.8416 11.0465 37.9114 11.2955C38.4692 13.4271 38.8278 22.1828 38.8278 22.1828H32.911V22.1928Z" fill="#E8E8E8"/>
<path d="M40.9893 17.2429C40.9096 16.7947 40.3618 15.6492 39.7541 14.4539C39.1067 13.1888 38.3795 11.8541 38.0409 11.2564C37.8516 10.9177 37.4233 10.7982 37.0846 10.9775C36.7459 11.1668 36.6264 11.5951 36.8057 11.9338C37.3237 12.8701 37.8516 13.8562 38.3198 14.7427C38.8477 15.7588 39.3557 16.3763 39.5649 16.8744C39.1864 17.2031 38.2401 17.233 37.493 17.1832C37.2838 17.1632 36.487 17.1035 35.959 17.5916C35.7498 17.7808 35.5108 18.1295 35.5307 18.6773C35.5506 19.0558 35.6004 19.2052 35.9391 19.3746C36.0786 19.4443 36.2579 19.4543 36.4073 19.4443C36.7957 19.3945 36.8256 19.1853 36.8256 18.7371C36.8256 18.4183 36.995 18.0996 36.995 18.0996C36.995 18.0996 38.1305 18.3785 39.0768 18.498C40.0231 18.6175 40.4116 18.4283 40.7602 18.0398C40.9594 17.8107 41.0391 17.5218 40.9893 17.2429Z" fill="#F6AD86"/>
<path d="M33.17 26.0402C33.17 26.0402 32.4528 24.7254 32.911 22.1953H38.8179C38.8179 22.1953 38.8976 24.1178 38.7681 26.0402H33.17Z" fill="#3A63A9"/>
<path d="M39.7444 14.4544L39.0571 14.5938L38.32 14.7432C37.8618 13.8567 37.3239 12.8606 36.8059 11.9343C36.6166 11.5956 36.7461 11.1673 37.0848 10.978C37.4235 10.7888 37.8518 10.9183 38.0411 11.2569C38.3698 11.8546 39.0969 13.1893 39.7444 14.4544Z" fill="#ED8C61"/>
<path d="M33.1002 11.4258C33.0106 11.0473 32.6221 10.8182 32.2536 10.9178C30.5602 11.3362 29.3848 11.7147 28.568 12.0633C26.6854 12.8602 26.7053 13.4479 26.7053 13.7467C26.7153 14.0854 26.785 14.7528 30.8391 16.227C30.8391 16.3465 30.7096 16.8048 30.6299 16.9542C30.4407 17.2928 30.6399 17.6215 30.8391 17.9503C30.9088 18.0598 31.0682 18.1993 31.2575 18.1993C31.5065 18.1993 31.8153 17.8805 31.8551 17.6215C32.0045 16.6753 31.9846 16.1174 31.9348 16.0079C31.9348 15.9979 31.9249 15.988 31.9249 15.978C31.9049 15.9481 31.895 15.9182 31.8751 15.8883C31.8651 15.8684 31.8452 15.8585 31.8352 15.8385C31.8153 15.8186 31.8053 15.7987 31.7854 15.7887C31.7555 15.7589 31.7256 15.7389 31.6958 15.719C31.6858 15.719 31.6858 15.709 31.6758 15.709C31.626 15.6792 31.5762 15.6493 31.5264 15.6294C30.1518 15.0616 28.8669 14.1452 28.2991 13.7467C28.4983 13.6372 28.7772 13.4977 29.1258 13.3682C29.9924 13.0196 31.2674 12.6112 32.5723 12.2924C32.9608 12.1829 33.1899 11.8044 33.1002 11.4258Z" fill="#F6AD86"/>
<path d="M39.8539 14.1443L38.9076 14.3236L38.1705 14.4631L37.5429 14.5826C36.7361 12.9988 36.5468 12.6402 36.5169 12.1023C36.4871 11.4947 36.6464 11.1859 37.0449 10.9668C37.4433 10.7476 37.9414 10.8871 38.1605 11.2855C38.1804 11.3154 39.0371 12.5406 39.8539 14.1443Z" fill="#E8E8E8"/>
<path d="M42.4236 33.8469C42.334 34.4247 42.0252 35.0522 41.5869 35.8192C40.8498 37.0942 39.7242 38.5186 38.7082 39.7039C38.001 40.5307 37.3535 41.2479 36.9451 41.736C36.7658 41.9452 36.6264 42.1145 36.5467 42.2241L35.71 41.1483C36.0188 40.71 36.3076 40.1223 36.6662 39.5745C36.6762 39.5645 36.6861 39.5446 36.6961 39.5346C37.3734 38.5086 38.1006 37.3532 38.6783 36.2973C38.6982 36.2575 38.7182 36.2276 38.7381 36.1877C39.3557 35.0721 39.8139 34.086 39.9035 33.5082C40.0629 32.4823 38.5189 29.2748 36.9949 26.4459C36.8256 26.1172 36.6463 25.7985 36.477 25.4897C36.4172 25.3801 36.3873 25.2706 36.3773 25.151C36.3375 24.6331 36.716 24.0354 37.1842 23.7764C37.752 23.4577 38.4891 23.2983 38.8078 23.8661C39.4553 25.0415 42.8121 31.3268 42.4236 33.8469Z" fill="#3A63A9"/>
<path d="M38.7082 39.7018C38.0009 40.5285 37.3535 41.2457 36.9451 41.7338C36.8753 41.156 36.8056 40.5285 36.7359 39.891C36.7259 39.7715 36.706 39.642 36.696 39.5225C37.3734 38.4965 38.1005 37.341 38.6783 36.2852C38.7181 37.3311 38.7181 38.5562 38.7082 39.7018Z" fill="#2D548D"/>
<path d="M38.5587 34.1668C38.2698 31.806 36.2876 25.4609 35.9788 24.7637C35.7198 24.166 34.2854 24.0365 33.6878 24.3055C33.0901 24.5644 32.8212 25.2617 33.0801 25.8594C33.877 27.6723 36.1381 32.5232 36.3673 34.2365C36.4967 35.2625 36.676 37.3244 36.9948 39.0875C37.2239 40.3127 37.453 41.508 37.6223 42.3746C37.7717 43.1316 37.7717 42.9922 37.7817 43.0619L39.1962 42.8428C39.1962 42.8428 38.8973 36.9559 38.5587 34.1668Z" fill="#3A63A9"/>
<path d="M32.5823 12.2708C31.2774 12.5896 30.0024 12.998 29.1358 13.3466L28.5581 12.0517C29.3749 11.713 30.5503 11.3245 32.2437 10.9062C32.6222 10.8165 33.0007 11.0456 33.0903 11.4142C33.1899 11.8026 32.9608 12.1812 32.5823 12.2708Z" fill="#ED8C61"/>
<path d="M32.2635 10.8877C32.7117 10.818 33.0404 11.0372 33.16 11.4754C33.2795 11.9137 32.9807 12.2524 32.5822 12.4815C32.1041 12.7604 31.9348 12.8202 29.9127 13.5174L28.7871 11.9635C31.377 10.9575 31.5064 10.9973 32.2635 10.8877Z" fill="#E8E8E8"/>
<path d="M35.6304 10.8055C35.5905 10.8055 35.5507 10.8055 35.5208 10.8055C34.9132 10.8055 34.3554 10.6063 33.9171 10.2576C33.8971 9.69982 33.9569 9.22169 33.9868 9.06232C34.0565 8.61407 34.4749 8.29532 34.9331 8.36505C35.3813 8.43478 35.7001 8.85314 35.6304 9.31134C35.5905 9.5504 35.5805 9.82931 35.5805 10.0883C35.5606 10.3473 35.5805 10.6063 35.6304 10.8055Z" fill="#ED8C61"/>
<path d="M37.9712 7.85845C37.6425 9.38247 36.7958 10.4981 35.3316 10.4981C33.8773 10.4981 32.9609 9.39244 32.6919 7.85845C32.4529 6.42408 33.8773 5.01958 35.3316 5.01958C36.8058 5.00962 38.28 6.43404 37.9712 7.85845Z" fill="#F6AD86"/>
<path d="M38.1702 43.0707L38.1603 43.0309C37.7618 40.5606 37.1542 36.8352 36.8554 34.4844C36.6362 32.7711 34.5146 27.691 33.7177 25.8781C33.7077 25.8682 33.7077 25.8482 33.7077 25.8383C33.7077 25.8283 33.7077 25.8283 33.6978 25.8184C33.5683 25.4697 33.1798 24.1748 33.5483 22.1328L33.6679 22.1527C33.2993 24.1648 33.6878 25.4299 33.8073 25.7785C33.8073 25.7885 33.8173 25.7984 33.8173 25.8084C33.8173 25.8184 33.8173 25.8283 33.8273 25.8383C34.6241 27.6512 36.7458 32.7512 36.9649 34.4744C37.2737 36.8152 37.8714 40.5506 38.2698 43.0209L38.2798 43.0607L38.1702 43.0707Z" fill="#658BC1"/>
<path d="M36.2778 10.875C36.2778 11.2336 36.1383 11.8312 35.202 11.8312C34.5247 11.8312 33.668 11.5424 33.3493 10.9945L33.2795 10.875H36.2778Z" fill="#C8D6DB"/>
<path d="M33.5583 10.875C33.8074 11.3133 34.5544 11.5922 35.2019 11.5922C35.8494 11.5922 36.0386 11.2734 36.0386 10.875H33.5583Z" fill="#F6AD86"/>
<path d="M37.1046 18.2387C37.1046 18.2287 37.1444 17.8303 36.7261 17.2525L37.1145 17.0234C37.6026 17.7506 37.5528 18.2686 37.5528 18.2984L37.1046 18.2387Z" fill="#82AACE"/>
<path d="M36.8057 17.0319C37.0249 16.9322 37.3138 16.9821 37.4632 17.1414C37.6026 17.3008 37.5429 17.5199 37.3138 17.6196C37.0946 17.7192 36.8057 17.6694 36.6563 17.51C36.5169 17.3406 36.5766 17.1315 36.8057 17.0319Z" fill="#4E7DB0"/>
<path d="M37.9113 5.90579C37.1145 4.62083 35.1522 4.52122 34.7736 4.54114C34.5744 4.5511 34.1361 4.67063 33.9469 4.96946C33.9369 4.76028 33.9469 4.57102 33.9469 4.57102C33.7775 4.7802 33.7477 4.9595 33.7776 5.09895C33.658 4.93958 33.5783 4.77024 33.5783 4.77024C33.5484 4.98938 33.6082 5.11887 33.6979 5.1886C33.16 5.31809 32.4727 6.07512 32.7117 7.62903C32.8113 8.30637 34.3453 7.78841 34.7736 7.11106C35.0625 7.57923 35.6402 7.67883 35.6402 7.67883C35.441 7.47962 35.2617 7.18079 35.1223 6.88196C35.9391 7.38001 37.0248 7.9179 37.1543 8.24661C37.1543 8.24661 37.3934 7.71868 37.2141 7.38001C37.2141 7.38001 37.8615 7.53938 37.9412 8.18684C37.9313 8.16692 38.758 7.2804 37.9113 5.90579Z" fill="#424344"/>
<path d="M36.004 22.1294L35.886 22.1484L36.531 26.1408L36.649 26.1217L36.004 22.1294Z" fill="#658BC1"/>
<path d="M36.4669 25.3812L36.447 25.2617C36.447 25.2617 36.696 25.2219 36.8255 25.0326C36.9052 24.923 36.9251 24.7836 36.9052 24.6242L36.4968 22.0941L36.6164 22.0742L37.0247 24.6043C37.0546 24.8035 37.0247 24.9728 36.9251 25.1023C36.7658 25.3414 36.4769 25.3812 36.4669 25.3812Z" fill="#658BC1"/>
<path d="M32.6123 7.69654C32.4928 7.95553 32.5127 8.23443 32.6223 8.4735C32.7518 8.7524 33.1602 8.73248 33.2797 8.45357L33.6184 7.69654C33.7478 7.41764 33.4889 7.10885 33.19 7.18853C32.941 7.26822 32.7219 7.44752 32.6123 7.69654Z" fill="#F6AD86"/>
<path opacity="0.1" d="M50.8152 23.6024L41.496 22.4902C41.0916 22.4396 40.7377 22.7261 40.6871 23.1305L39.5749 32.4497C39.5243 32.8542 39.8108 33.2081 40.2153 33.2586L49.5344 34.3709C49.9389 34.4214 50.2928 34.1349 50.3433 33.7305L51.4556 24.4113C51.5061 24.0237 51.2196 23.653 50.8152 23.6024Z" fill="#3F3F3F"/>
<path d="M51.9105 33.0691L41.0241 31.7715C40.8387 31.7546 40.7039 31.5861 40.7376 31.4007L42.0352 20.5143C42.0521 20.3289 42.2206 20.1941 42.406 20.2278L53.2924 21.5254C53.4778 21.5423 53.6126 21.7108 53.5789 21.8962L52.2813 32.7826C52.2644 32.9511 52.0959 33.086 51.9105 33.0691Z" fill="#F8AA09"/>
<path d="M41.9004 30.5762L42.9789 21.5604C42.9958 21.4424 43.0969 21.375 43.198 21.375L52.2139 22.4535C52.3318 22.4704 52.3992 22.5715 52.3992 22.6726L51.3207 31.6885C51.3038 31.8064 51.2027 31.8738 51.1016 31.8738L42.0858 30.7953C41.9678 30.7953 41.9004 30.6942 41.9004 30.5762Z" fill="#FBBA38"/>
<path d="M47.3771 27.408L46.3323 28.2338C46.1469 28.3854 45.8604 28.3517 45.7087 28.1664C45.5571 27.981 45.2874 27.9473 45.0852 28.0989L43.5517 29.3123C43.2483 29.5482 43.3832 30.0538 43.7708 30.1043L43.9561 30.1212L47.5793 30.5594L49.6184 30.7953C50.006 30.8458 50.2588 30.3908 50.0229 30.0875L48.0006 27.4754C47.849 27.2901 47.5625 27.2563 47.3771 27.408Z" fill="#EE9F05"/>
<path d="M45.5068 25.654C45.4563 26.0753 45.0687 26.3787 44.6474 26.3281C44.2261 26.2776 43.9227 25.89 43.9733 25.4687C44.0238 25.0473 44.4114 24.744 44.8327 24.7946C45.254 24.8451 45.5574 25.2327 45.5068 25.654Z" fill="#EE9F05"/>
<defs>
<linearGradient id="paint0_linear" x1="47.7335" y1="45.9529" x2="-2.80205" y2="-0.47135" gradientUnits="userSpaceOnUse">
<stop stop-color="#6FC7DA"/>
<stop offset="0.3693" stop-color="#0D71B9"/>
<stop offset="0.7613" stop-color="#9E1460"/>
<stop offset="1" stop-color="#E7267A"/>
</linearGradient>
</defs>
</svg>
