<svg width="21" height="21" viewBox="0 0 21 21" fill="none" xmlns="http://www.w3.org/2000/svg">
<g clip-path="url(#clip0)">
<path d="M10.8243 20.793C16.347 20.793 20.8243 16.3158 20.8243 10.7929C20.8243 5.27007 16.347 0.792969 10.8243 0.792969C5.30146 0.792969 0.824219 5.27014 0.824219 10.793C0.824219 16.3159 5.30139 20.793 10.8243 20.793ZM10.8243 2.39295C15.4559 2.39295 19.2242 6.16132 19.2242 10.7929C19.2242 15.4245 15.4559 19.1929 10.8243 19.1929C6.19265 19.1929 2.42427 15.4245 2.42427 10.7929C2.42427 6.16132 6.19221 2.39295 10.8243 2.39295Z" fill="#747474"/>
<path d="M8.96585 15.5102C9.51822 15.5102 9.96587 15.0626 9.96587 14.5102V6.91018C9.96587 6.35781 9.51829 5.91016 8.96585 5.91016C8.41347 5.91016 7.96582 6.35773 7.96582 6.91018V14.5102C7.96582 15.0626 8.4134 15.5102 8.96585 15.5102Z" fill="#747474"/>
<path d="M12.9658 15.5102C13.5181 15.5102 13.9658 15.0626 13.9658 14.5102V6.91018C13.9658 6.35781 13.5182 5.91016 12.9658 5.91016C12.4133 5.91016 11.9658 6.35781 11.9658 6.91018V14.5102C11.9658 15.0626 12.4134 15.5102 12.9658 15.5102Z" fill="#747474"/>
</g>
<defs>
<clipPath id="clip0">
<rect width="20" height="20" fill="white" transform="translate(0.824219 0.792969)"/>
</clipPath>
</defs>
</svg>
