<svg width="15" height="15" viewBox="0 0 15 15" fill="none" xmlns="http://www.w3.org/2000/svg">
<path d="M9.36671 7.79297L14.6015 2.55799C14.7454 2.41389 14.8249 2.22163 14.8251 2.01663C14.8251 1.81151 14.7457 1.61902 14.6015 1.47514L14.1427 1.01653C13.9985 0.87208 13.8062 0.792969 13.601 0.792969C13.3961 0.792969 13.2039 0.87208 13.0596 1.01653L7.8249 6.25116L2.58993 1.01653C2.44593 0.87208 2.25356 0.792969 2.04844 0.792969C1.84355 0.792969 1.65118 0.87208 1.50719 1.01653L1.04823 1.47514C0.749547 1.77383 0.749547 2.25965 1.04823 2.55799L6.28309 7.79297L1.04823 13.0277C0.904126 13.1721 0.824788 13.3643 0.824788 13.5693C0.824788 13.7743 0.904126 13.9666 1.04823 14.1108L1.50708 14.5694C1.65107 14.7137 1.84355 14.793 2.04833 14.793C2.25345 14.793 2.44582 14.7137 2.58981 14.5694L7.82479 9.33466L13.0595 14.5694C13.2038 14.7137 13.396 14.793 13.6009 14.793H13.6011C13.8061 14.793 13.9984 14.7137 14.1426 14.5694L14.6013 14.1108C14.7453 13.9667 14.8248 13.7743 14.8248 13.5693C14.8248 13.3643 14.7453 13.1721 14.6013 13.0278L9.36671 7.79297Z" fill="#3E3F47"/>
</svg>
