<svg width="21" height="21" viewBox="0 0 21 21" fill="none" xmlns="http://www.w3.org/2000/svg">
<g clip-path="url(#clip0)">
<path d="M8.82415 14.2943H2.6958C1.54747 14.2943 0.695801 13.1927 0.695801 12.0443L0.824152 2.87767C0.824152 1.72933 1.75915 0.794331 2.90749 0.794331L18.7408 0.710938C19.8892 0.710938 20.8242 1.64594 20.8242 2.79427V10.3777C20.8242 10.6077 20.6375 10.7943 20.4075 10.7943C19.3242 10.7943 19.3242 10.5243 19.3242 10.2943V2.79433C19.3242 2.10517 19.5133 2.29433 18.8242 2.29433L2.90749 2.37767C2.21832 2.37767 2.32415 2.1885 2.32415 2.87767V12.0443C2.32415 12.7335 2.21832 13.1149 2.90749 13.1149H8.74082C8.97082 13.1149 9.15748 13.481 9.15748 13.711C9.15748 13.941 9.05415 14.2943 8.82415 14.2943Z" fill="#747474"/>
<path d="M10.8242 9.96094C9.44589 9.96094 8.32422 8.83927 8.32422 7.46094C8.32422 6.0826 9.44589 4.96094 10.8242 4.96094C12.2026 4.96094 13.3242 6.0826 13.3242 7.46094C13.3242 8.83927 12.2026 9.96094 10.8242 9.96094ZM10.8242 5.79427C9.90505 5.79427 9.15755 6.54177 9.15755 7.46094C9.15755 8.3801 9.90505 9.1276 10.8242 9.1276C11.7434 9.1276 12.4909 8.3801 12.4909 7.46094C12.4909 6.54177 11.7434 5.79427 10.8242 5.79427Z" fill="#747474"/>
<path d="M15.4074 20.7943C12.4207 20.7943 9.99072 18.3643 9.99072 15.3776C9.99072 12.3909 12.4207 9.96094 15.4074 9.96094C18.3941 9.96094 20.8241 12.3909 20.8241 15.3776C20.8241 18.3643 18.3941 20.7943 15.4074 20.7943ZM15.4074 10.7943C12.8799 10.7943 10.8241 12.8501 10.8241 15.3776C10.8241 17.9051 12.8799 19.9609 15.4074 19.9609C17.9349 19.9609 19.9907 17.9051 19.9907 15.3776C19.9907 12.8501 17.9349 10.7943 15.4074 10.7943Z" fill="#747474"/>
<path d="M15.4074 18.2943C15.1774 18.2943 14.9907 18.1076 14.9907 17.8776V12.8776C14.9907 12.6476 15.1774 12.4609 15.4074 12.4609C15.6374 12.4609 15.824 12.6476 15.824 12.8776V17.8776C15.824 18.1076 15.6374 18.2943 15.4074 18.2943Z" fill="#747474"/>
<path d="M17.9074 15.7943H12.9074C12.6774 15.7943 12.4907 15.6076 12.4907 15.3776C12.4907 15.1476 12.6774 14.9609 12.9074 14.9609H17.9074C18.1374 14.9609 18.3241 15.1476 18.3241 15.3776C18.3241 15.6076 18.1374 15.7943 17.9074 15.7943Z" fill="#747474"/>
<path d="M5.40755 4.1263H3.74089C3.51089 4.1263 3.32422 3.93963 3.32422 3.70963C3.32422 3.47964 3.51089 3.29297 3.74089 3.29297H5.40755C5.63755 3.29297 5.82422 3.47964 5.82422 3.70963C5.82422 3.93963 5.63755 4.1263 5.40755 4.1263Z" fill="#747474"/>
</g>
<defs>
<clipPath id="clip0">
<rect width="20" height="20" fill="white" transform="translate(0.824219 0.792969)"/>
</clipPath>
</defs>
</svg>
