<svg width="21" height="21" viewBox="0 0 21 21" fill="none" xmlns="http://www.w3.org/2000/svg">
<g clip-path="url(#clip0)">
<path d="M13.0485 17.3857L11.6055 18.8117V11.5742C11.6055 11.1427 11.2557 10.793 10.8242 10.793C10.3927 10.793 10.043 11.1427 10.043 11.5742V18.7345L8.67804 17.3857C8.37112 17.0824 7.87648 17.0854 7.5732 17.3923C7.26992 17.6992 7.27289 18.1938 7.57976 18.4971L9.20433 20.1025C9.64757 20.5478 10.2365 20.793 10.8633 20.793C11.49 20.793 12.079 20.5478 12.5222 20.1025L14.1468 18.4971C14.4537 18.1938 14.4566 17.6992 14.1533 17.3923C13.85 17.0854 13.3554 17.0824 13.0485 17.3857Z" fill="#747474"/>
<path d="M20.043 11.5742C19.6115 11.5742 19.2617 11.924 19.2617 12.3555C19.2617 13.217 18.5608 13.918 17.6992 13.918H13.9492C13.5177 13.918 13.168 14.2677 13.168 14.6992C13.168 15.1307 13.5177 15.4805 13.9492 15.4805H17.6992C19.4223 15.4805 20.8242 14.0786 20.8242 12.3555C20.8242 11.924 20.4745 11.5742 20.043 11.5742Z" fill="#747474"/>
<path d="M12.9794 10.7085C13.1102 10.7927 13.2568 10.833 13.4016 10.833C13.6584 10.833 13.9098 10.7065 14.0592 10.4746C14.5239 9.75297 14.7695 8.92965 14.7695 8.09375C14.7695 5.76754 12.9996 3.875 10.8242 3.875C8.64879 3.875 6.87891 5.76754 6.87891 8.09375C6.87891 8.98852 7.10539 9.79055 7.55207 10.4775C7.78727 10.8392 8.27121 10.9418 8.63289 10.7066C8.99461 10.4714 9.09719 9.9875 8.86199 9.62578C8.58293 9.19652 8.44141 8.68113 8.44141 8.09375C8.44141 6.6291 9.51031 5.4375 10.8242 5.4375C12.1381 5.4375 13.207 6.6291 13.207 8.09375C13.207 8.62898 13.0475 9.15977 12.7455 9.62863C12.5119 9.99145 12.6166 10.4749 12.9794 10.7085Z" fill="#747474"/>
<path d="M17.0352 8.87891C17.4666 8.87891 17.8164 8.52913 17.8164 8.09766C17.8164 7.66618 17.4666 7.31641 17.0352 7.31641C16.6037 7.31641 16.2539 7.66618 16.2539 8.09766C16.2539 8.52913 16.6037 8.87891 17.0352 8.87891Z" fill="#747474"/>
<path d="M4.61328 8.87891C5.04475 8.87891 5.39453 8.52913 5.39453 8.09766C5.39453 7.66618 5.04475 7.31641 4.61328 7.31641C4.18181 7.31641 3.83203 7.66618 3.83203 8.09766C3.83203 8.52913 4.18181 8.87891 4.61328 8.87891Z" fill="#747474"/>
<path d="M17.6992 0.792969H3.94922C2.22609 0.792969 0.824219 2.19484 0.824219 3.91797V12.3555C0.824219 14.0786 2.22609 15.4805 3.94922 15.4805H7.69922C8.1307 15.4805 8.48047 15.1307 8.48047 14.6992C8.48047 14.2677 8.1307 13.918 7.69922 13.918H3.94922C3.08766 13.918 2.38672 13.217 2.38672 12.3555V3.91797C2.38672 3.05641 3.08766 2.35547 3.94922 2.35547H17.6992C18.5608 2.35547 19.2617 3.05641 19.2617 3.91797V8.44922C19.2617 8.8807 19.6115 9.23047 20.043 9.23047C20.4745 9.23047 20.8242 8.8807 20.8242 8.44922V3.91797C20.8242 2.19484 19.4223 0.792969 17.6992 0.792969Z" fill="#747474"/>
</g>
<defs>
<clipPath id="clip0">
<rect width="20" height="20" fill="white" transform="translate(0.824219 0.792969)"/>
</clipPath>
</defs>
</svg>
