<svg width="21" height="21" viewBox="0 0 21 21" fill="none" xmlns="http://www.w3.org/2000/svg">
<g clip-path="url(#clip0)">
<path d="M10.8242 0.792969C5.31031 0.792969 0.824219 5.27906 0.824219 10.793C0.824219 16.3069 5.31031 20.793 10.8242 20.793C16.3381 20.793 20.8242 16.3069 20.8242 10.793C20.8242 5.27906 16.3381 0.792969 10.8242 0.792969ZM10.8242 18.293C6.68887 18.293 3.32422 14.9283 3.32422 10.793C3.32422 9.21461 3.80273 7.7225 4.71258 6.4493L15.1679 16.9046C13.8947 17.8145 12.4026 18.293 10.8242 18.293ZM16.9359 15.1366L6.48055 4.68133C7.75375 3.77148 9.24586 3.29297 10.8242 3.29297C14.9596 3.29297 18.3242 6.65762 18.3242 10.793C18.3242 12.3713 17.8457 13.8634 16.9359 15.1366Z" fill="#747474"/>
</g>
<defs>
<clipPath id="clip0">
<rect width="20" height="20" fill="white" transform="translate(0.824219 0.792969)"/>
</clipPath>
</defs>
</svg>
