<svg width="152" height="116" viewBox="0 0 152 116" fill="none" xmlns="http://www.w3.org/2000/svg">
<g filter="url(#filter0_d)">
<rect x="20" y="15.3516" width="112" height="75.4526" rx="5" fill="#343657"/>
</g>
<path opacity="0.1" fill-rule="evenodd" clip-rule="evenodd" d="M20.1152 87.5414C26.4832 82.0397 40.4307 74.5443 58.4108 75.9848C87.7711 78.337 101.873 67.662 110.356 60.4606C120.042 52.238 128.131 30.2646 129.798 15C131.142 16.1003 132 17.7726 132 19.6453V84.7961C132 88.1098 129.314 90.7961 126 90.7961H25.4518C23.1273 90.7961 21.1116 89.4743 20.1152 87.5414Z" fill="url(#paint0_linear)"/>
<path fill-rule="evenodd" clip-rule="evenodd" d="M22.5479 40.3217C30.9922 40.3217 37.8376 32.6637 37.8376 23.2171C37.8376 20.3811 37.2207 17.7063 36.1287 15.3516H25C22.2386 15.3516 20 17.5901 20 20.3516V40.0853C20.8286 40.2408 21.6798 40.3217 22.5479 40.3217Z" fill="#A91F23"/>
<defs>
<filter id="filter0_d" x="0" y="0.351562" width="152" height="115.453" filterUnits="userSpaceOnUse" color-interpolation-filters="sRGB">
<feFlood flood-opacity="0" result="BackgroundImageFix"/>
<feColorMatrix in="SourceAlpha" type="matrix" values="0 0 0 0 0 0 0 0 0 0 0 0 0 0 0 0 0 0 127 0"/>
<feOffset dy="5"/>
<feGaussianBlur stdDeviation="10"/>
<feColorMatrix type="matrix" values="0 0 0 0 0 0 0 0 0 0 0 0 0 0 0 0 0 0 0.15 0"/>
<feBlend mode="normal" in2="BackgroundImageFix" result="effect1_dropShadow"/>
<feBlend mode="normal" in="SourceGraphic" in2="effect1_dropShadow" result="shape"/>
</filter>
<linearGradient id="paint0_linear" x1="129.94" y1="19.6976" x2="10.699" y2="70.4368" gradientUnits="userSpaceOnUse">
<stop offset="0.53125" stop-color="#E3E3E3"/>
<stop offset="1" stop-color="#232B46"/>
</linearGradient>
</defs>
</svg>
