<svg width="152" height="116" viewBox="0 0 152 116" fill="none" xmlns="http://www.w3.org/2000/svg">
<g filter="url(#filter0_d)">
<rect x="20" y="15.3516" width="112" height="75.4526" rx="5" fill="#343657"/>
</g>
<path opacity="0.1" fill-rule="evenodd" clip-rule="evenodd" d="M20.1152 87.5414C26.4832 82.0397 40.4307 74.5443 58.4108 75.9848C87.7711 78.337 101.873 67.662 110.356 60.4606C120.042 52.238 128.131 30.2646 129.798 15C131.142 16.1003 132 17.7726 132 19.6453V84.7961C132 88.1098 129.314 90.7961 126 90.7961H25.4518C23.1273 90.7961 21.1116 89.4743 20.1152 87.5414Z" fill="url(#paint0_linear)"/>
<path fill-rule="evenodd" clip-rule="evenodd" d="M22.5479 40.3217C30.9922 40.3217 37.8376 32.6637 37.8376 23.2171C37.8376 20.3811 37.2207 17.7063 36.1287 15.3516H25C22.2386 15.3516 20 17.5901 20 20.3516V40.0853C20.8286 40.2408 21.6798 40.3217 22.5479 40.3217Z" fill="#A91F23"/>
<path fill-rule="evenodd" clip-rule="evenodd" d="M62.1051 61.5999H57.5687L54.1668 48.6219C54.0054 48.0249 53.6626 47.4971 53.1583 47.2483C51.8997 46.6232 50.5129 46.1257 49 45.8748V45.3752H56.3079C57.3165 45.3752 58.073 46.1257 58.199 46.9974L59.9641 56.3589L64.4983 45.3752H68.9087L62.1051 61.5999ZM71.4301 61.5985H67.1458L70.6737 45.3738H74.958L71.4301 61.5985ZM80.5009 49.8689C80.6269 48.9951 81.3834 48.4954 82.2659 48.4954C83.6527 48.37 85.1634 48.6209 86.4242 49.2438L87.1806 45.7506C85.9199 45.2509 84.533 45 83.2745 45C79.1163 45 76.0905 47.2474 76.0905 50.3664C76.0905 52.7393 78.2337 53.9852 79.7466 54.7357C81.3834 55.4841 82.0138 55.9838 81.8877 56.7322C81.8877 57.8548 80.6269 58.3544 79.3684 58.3544C77.8555 58.3544 76.3426 57.9802 74.958 57.3551L74.2015 60.8506C75.7144 61.4735 77.3512 61.7244 78.8641 61.7244C83.5267 61.8477 86.4242 59.6025 86.4242 56.2325C86.4242 51.9887 80.5009 51.7399 80.5009 49.8689ZM101.418 61.5985L98.0164 45.3738H94.3624C93.606 45.3738 92.8495 45.8734 92.5974 46.6218L86.2981 61.5985H90.7085L91.5888 59.2279H97.0078L97.5121 61.5985H101.418ZM94.9928 49.7398L96.2513 55.8546H92.7235L94.9928 49.7398Z" fill="white"/>
<defs>
<filter id="filter0_d" x="0" y="0.351562" width="152" height="115.453" filterUnits="userSpaceOnUse" color-interpolation-filters="sRGB">
<feFlood flood-opacity="0" result="BackgroundImageFix"/>
<feColorMatrix in="SourceAlpha" type="matrix" values="0 0 0 0 0 0 0 0 0 0 0 0 0 0 0 0 0 0 127 0"/>
<feOffset dy="5"/>
<feGaussianBlur stdDeviation="10"/>
<feColorMatrix type="matrix" values="0 0 0 0 0 0 0 0 0 0 0 0 0 0 0 0 0 0 0.15 0"/>
<feBlend mode="normal" in2="BackgroundImageFix" result="effect1_dropShadow"/>
<feBlend mode="normal" in="SourceGraphic" in2="effect1_dropShadow" result="shape"/>
</filter>
<linearGradient id="paint0_linear" x1="129.94" y1="19.6976" x2="10.699" y2="70.4368" gradientUnits="userSpaceOnUse">
<stop offset="0.53125" stop-color="#E3E3E3"/>
<stop offset="1" stop-color="#232B46"/>
</linearGradient>
</defs>
</svg>
