<svg width="28" height="19" viewBox="0 0 28 19" fill="none" xmlns="http://www.w3.org/2000/svg">
<path d="M22.2409 0.981676L11.0041 5.30084C9.93392 5.7122 9.3844 6.88243 9.77917 7.90945L12.1656 14.118C12.5604 15.1451 13.7522 15.6459 14.8224 15.2346L26.0592 10.9154C27.1294 10.504 27.6789 9.33382 27.2842 8.30681L24.8977 2.09822C24.5029 1.0712 23.3111 0.570299 22.2409 0.981676ZM23.4287 10.5013L16.4984 13.1652C15.7109 11.9081 14.1792 11.2645 12.6653 11.5543L11.8673 9.47843C13.1857 8.67963 13.8918 7.17578 13.6347 5.71485L20.5649 3.051C21.3525 4.30806 22.8841 4.95171 24.398 4.66191L25.196 6.73779C23.8777 7.53663 23.1715 9.04048 23.4287 10.5013ZM23.6038 2.59557L23.9072 3.38503C23.127 3.44843 22.3687 3.12975 21.8955 2.5396L22.7182 2.22339C23.0749 2.08628 23.4722 2.25325 23.6038 2.59557ZM11.4814 6.54256L12.3041 6.22633C12.348 6.98155 11.9983 7.7261 11.3766 8.20159L11.0731 7.41209C10.9415 7.06977 11.1247 6.67967 11.4814 6.54256ZM13.4595 13.6207L13.1561 12.8312C13.9363 12.7678 14.6946 13.0865 15.1678 13.6766L14.3451 13.9929C13.9884 14.13 13.5911 13.963 13.4595 13.6207ZM25.5819 9.6737L24.7592 9.98991C24.7153 9.2347 25.065 8.49015 25.6868 8.0147L25.9902 8.80416C26.1218 9.14653 25.9386 9.53658 25.5819 9.6737ZM17.5017 5.42865C15.9621 6.02044 15.1716 7.70392 15.7395 9.18141C16.3074 10.6589 18.022 11.3795 19.5616 10.7877C21.1013 10.1959 21.8918 8.5124 21.3239 7.03491C20.756 5.55742 19.0414 4.83685 17.5017 5.42865ZM19.0843 9.54591C18.2582 9.86346 17.3382 9.47681 17.0334 8.68401C16.7287 7.89122 17.1529 6.98788 17.979 6.67033C18.8052 6.35278 19.7252 6.73943 20.0299 7.53223C20.3347 8.32502 19.9104 9.22838 19.0843 9.54591Z" fill="#CACACA"/>
<path d="M3.81193 14.9822L8.98194 13.0305C9.44192 12.8568 9.67191 12.3624 9.49581 11.9262C9.3197 11.4898 8.80399 11.2774 8.34406 11.4505L3.17393 13.4022C2.71395 13.5758 2.48396 14.0703 2.66006 14.5065C2.81001 14.878 3.20611 15.0875 3.60436 15.0345C3.67384 15.0253 3.74357 15.008 3.81193 14.9822Z" fill="#CACACA"/>
<path d="M6.32196 11.4316C6.39025 11.4225 6.45843 11.4054 6.52544 11.3795L7.62383 10.9561C8.08963 10.7765 8.32231 10.2474 8.14354 9.77429C7.96465 9.30117 7.44191 9.06318 6.97632 9.24265L5.87794 9.66603C5.41213 9.84565 5.17945 10.3747 5.35823 10.8478C5.51141 11.2529 5.91634 11.4856 6.32196 11.4316Z" fill="#CACACA"/>
<path d="M7.18549 16.5839C7.25377 16.5748 7.32196 16.5577 7.38897 16.5318L8.48735 16.1084C8.95316 15.9288 9.18584 15.3998 9.00706 14.9266C8.82817 14.4535 8.30543 14.2155 7.83985 14.395L6.74146 14.8184C6.27566 14.998 6.04298 15.527 6.22175 16.0002C6.37494 16.4052 6.77986 16.6379 7.18549 16.5839Z" fill="#CACACA"/>
<path d="M4.99767 15.8519L3.0643 16.589C2.60805 16.7629 2.38121 17.2489 2.55774 17.6745C2.70898 18.0391 3.10712 18.241 3.50496 18.182C3.57152 18.1722 3.63796 18.155 3.70337 18.1301L5.63674 17.3931C6.09298 17.2191 6.31982 16.7332 6.1433 16.3076C5.96678 15.8821 5.45398 15.6784 4.99767 15.8519Z" fill="#CACACA"/>
<path d="M3.54149 10.708L1.59743 11.4164C1.13867 11.5835 0.904668 12.0661 1.07488 12.4942C1.22071 12.8611 1.61582 13.0688 2.0145 13.0158C2.0812 13.0069 2.14788 12.9907 2.21365 12.9668L4.15771 12.2584C4.61647 12.0912 4.85047 11.6086 4.68026 11.1805C4.51004 10.7524 4.00031 10.5413 3.54149 10.708Z" fill="#CACACA"/>
</svg>
