<svg width="23" height="23" viewBox="0 0 23 23" fill="none" xmlns="http://www.w3.org/2000/svg">
<path d="M22.7062 14.2637L20.6427 13.123C20.851 12.0472 20.851 10.9436 20.6427 9.86775L22.7062 8.72703C22.9436 8.59719 23.0501 8.32824 22.9726 8.07784C22.435 6.42704 21.5195 4.9339 20.323 3.69116C20.1389 3.50104 19.8386 3.45467 19.6061 3.58451L17.5426 4.72523C16.6755 4.01112 15.6777 3.4593 14.5975 3.09761V0.820806C14.5975 0.56113 14.4086 0.333913 14.1422 0.278268C12.3644 -0.101972 10.5431 -0.083424 8.85258 0.278268C8.58617 0.333913 8.39725 0.56113 8.39725 0.820806V3.10225C7.3219 3.46858 6.32405 4.02039 5.45214 4.72986L3.39347 3.58914C3.15612 3.4593 2.86064 3.50104 2.67657 3.6958C1.48012 4.9339 0.564614 6.42703 0.026938 8.08247C-0.0554088 8.33287 0.0560016 8.60182 0.293354 8.73166L2.35687 9.87239C2.14858 10.9482 2.14858 12.0518 2.35687 13.1276L0.293354 14.2683C0.0560016 14.3982 -0.0505649 14.6671 0.026938 14.9175C0.564614 16.5683 1.48012 18.0615 2.67657 19.3042C2.86064 19.4943 3.16096 19.5407 3.39347 19.4109L5.45699 18.2701C6.32405 18.9842 7.3219 19.5361 8.4021 19.8977V22.1792C8.4021 22.4389 8.59101 22.6661 8.85743 22.7217C10.6351 23.102 12.4565 23.0834 14.147 22.7217C14.4134 22.6661 14.6023 22.4389 14.6023 22.1792V19.8977C15.6777 19.5314 16.6755 18.9796 17.5474 18.2701L19.611 19.4109C19.8483 19.5407 20.1438 19.499 20.3279 19.3042C21.5243 18.0661 22.4398 16.573 22.9775 14.9175C23.0501 14.6625 22.9436 14.3935 22.7062 14.2637ZM11.4974 15.205C9.36119 15.205 7.62222 13.5403 7.62222 11.4954C7.62222 9.45041 9.36119 7.7857 11.4974 7.7857C13.6335 7.7857 15.3725 9.45041 15.3725 11.4954C15.3725 13.5403 13.6335 15.205 11.4974 15.205Z" fill="#CACACA"/>
</svg>
