<svg width="26" height="21" viewBox="0 0 26 21" fill="none" xmlns="http://www.w3.org/2000/svg">
<path d="M22.8358 0H6.56125C5.25871 0 4.19873 1.05998 4.19873 2.36251V11.8126C4.19873 13.1151 5.25871 14.1751 6.56125 14.1751H22.8358C24.1384 14.1751 25.1983 13.1151 25.1983 11.8126V2.36251C25.1983 1.05998 24.1384 0 22.8358 0ZM9.71127 4.72503H8.13626C7.70155 4.72503 7.34875 4.37223 7.34875 3.93752C7.34875 3.50282 7.70155 3.15002 8.13626 3.15002H9.71127C10.146 3.15002 10.4988 3.50282 10.4988 3.93752C10.4988 4.37223 10.146 4.72503 9.71127 4.72503ZM14.6977 10.2376C12.9605 10.2376 11.5477 8.82478 11.5477 7.08754C11.5477 5.35031 12.9605 3.93752 14.6977 3.93752C16.435 3.93752 17.8478 5.35031 17.8478 7.08754C17.8478 8.82478 16.435 10.2376 14.6977 10.2376ZM21.2608 11.0251H19.6858C19.2511 11.0251 18.8983 10.6723 18.8983 10.2376C18.8983 9.80286 19.2511 9.45006 19.6858 9.45006H21.2608C21.6955 9.45006 22.0483 9.80286 22.0483 10.2376C22.0483 10.6723 21.6955 11.0251 21.2608 11.0251Z" fill="#E95927"/>
<path d="M21.261 15.7489H4.98639C3.68386 15.7489 2.62387 14.6889 2.62387 13.3864V4.18359L0.0770845 13.6809C-0.250518 14.9315 0.496037 16.2293 1.74817 16.5742L17.9849 20.9228C18.1865 20.9764 18.3881 21 18.5866 21C19.6324 21 20.59 20.3022 20.8656 19.2517L21.8327 15.6717C21.6484 15.7174 21.4594 15.7489 21.261 15.7489Z" fill="#FAB39A"/>
</svg>
