<svg width="22" height="22" viewBox="0 0 22 22" fill="none" xmlns="http://www.w3.org/2000/svg">
<circle cx="11" cy="11" r="11" fill="#E4E4E4"/>
<path d="M10.2518 7.60282L10.7472 7.14529C10.957 6.95157 11.2963 6.95157 11.5039 7.14529L15.8427 11.1496C16.0525 11.3434 16.0525 11.6566 15.8427 11.8483L11.5039 15.8547C11.2941 16.0484 10.9548 16.0484 10.7472 15.8547L10.2518 15.3972C10.0397 15.2014 10.0442 14.882 10.2607 14.6903L12.9501 12.3244H6.53565C6.23881 12.3244 6 12.1038 6 11.8297V11.1703C6 10.8962 6.23881 10.6756 6.53565 10.6756H12.9501L10.2607 8.30971C10.042 8.11804 10.0375 7.7986 10.2518 7.60282Z" fill="#E95927"/>
</svg>
