<svg width="40" height="40" viewBox="0 0 40 40" fill="none" xmlns="http://www.w3.org/2000/svg">
<path d="M0 6C0 2.68629 2.68629 0 6 0H34C37.3137 0 40 2.68629 40 6V34C40 37.3137 37.3137 40 34 40H6C2.68629 40 0 37.3137 0 34V6Z" fill="#E95927"/>
<path d="M17.2666 17.5156C13.8244 17.5156 11.0239 20.3161 11.0239 23.7583C11.0239 27.2005 13.8244 30.0009 17.2666 30.0009C20.7088 30.0009 23.5092 27.2005 23.5092 23.7583C23.5092 20.3161 20.7088 17.5156 17.2666 17.5156ZM16.9507 23.134H17.5837C18.5563 23.134 19.3479 23.9256 19.3479 24.8982C19.3479 25.7734 18.7174 26.4925 17.8908 26.6399V27.2953C17.8908 27.6399 17.6112 27.9196 17.2666 27.9196C16.922 27.9196 16.6423 27.6399 16.6423 27.2953V26.6711H15.8095C15.4649 26.6711 15.1853 26.3914 15.1853 26.0468C15.1853 25.7022 15.4649 25.4226 15.8095 25.4226H17.5824C17.8671 25.4226 18.0981 25.1903 18.0981 24.9069C18.0981 24.6148 17.8659 24.3825 17.5824 24.3825H16.9494C15.9768 24.3825 15.1853 23.591 15.1853 22.6184C15.1853 21.7431 15.8158 21.024 16.6423 20.8767V20.2212C16.6423 19.8766 16.922 19.5969 17.2666 19.5969C17.6112 19.5969 17.8908 19.8766 17.8908 20.2212V20.8454H18.7236C19.0682 20.8454 19.3479 21.1251 19.3479 21.4697C19.3479 21.8143 19.0682 22.094 18.7236 22.094H16.9507C16.666 22.094 16.435 22.3262 16.435 22.6096C16.4338 22.9018 16.666 23.134 16.9507 23.134Z" fill="white"/>
<path d="M30.167 15.0175H23.5086C23.1715 15.0175 22.8682 14.8153 22.7396 14.5044C22.6097 14.1935 22.6821 13.8352 22.9206 13.5967L26.2504 10.2669C26.575 9.94228 27.1019 9.94228 27.4278 10.2669L30.7576 13.5967C30.9961 13.8352 31.0672 14.1923 30.9386 14.5044C30.8075 14.8153 30.5041 15.0175 30.167 15.0175Z" fill="white"/>
<path d="M22.469 29.9967C22.0095 29.9967 21.6362 29.6234 21.6362 29.1639C21.6362 28.7045 22.0083 28.3312 22.469 28.3312C24.4204 28.3312 26.0061 26.7443 26.0061 24.7941V11.4773C26.0061 11.0166 26.3781 10.6445 26.8388 10.6445C27.2983 10.6445 27.6716 11.0178 27.6716 11.4773V24.7953C27.6704 27.6632 25.3369 29.9967 22.469 29.9967Z" fill="white"/>
</svg>
