<svg width="862" height="535" viewBox="0 0 862 535" fill="none" xmlns="http://www.w3.org/2000/svg">
<g filter="url(#filter0_d)">
<path d="M10 13.597C10 11.6104 11.3431 10 13 10H849C850.657 10 852 11.6104 852 13.597V482.403C852 484.39 850.657 486 849 486H13C11.3431 486 10 484.39 10 482.403V13.597Z" fill="white"/>
</g>
<path d="M3 76H852V110H3V76Z" fill="#F1F2F6" fill-opacity="0.7"/>
<path d="M26 167C26 165.343 27.3431 164 29 164H826C827.657 164 829 165.343 829 167V195C829 196.657 827.657 198 826 198H29C27.3432 198 26 196.657 26 195V167Z" fill="#F1F2F6" fill-opacity="0.7"/>
<path d="M26 345C26 343.343 27.3431 342 29 342H826C827.657 342 829 343.343 829 345V373C829 374.657 827.657 376 826 376H29C27.3432 376 26 374.657 26 373V345Z" fill="#F1F2F6" fill-opacity="0.7"/>
<path d="M26 256C26 254.343 27.3431 253 29 253H826C827.657 253 829 254.343 829 256V285C829 286.657 827.657 288 826 288H29C27.3432 288 26 286.657 26 285V256Z" fill="#F1F2F6" fill-opacity="0.7"/>
<path d="M26 433C26 431.343 27.3431 430 29 430H826C827.657 430 829 431.343 829 433V461C829 462.657 827.657 464 826 464H29C27.3432 464 26 462.657 26 461V433Z" fill="#F1F2F6" fill-opacity="0.7"/>
<path d="M26 123C26 121.343 27.3431 120 29 120H826C827.657 120 829 121.343 829 123V151C829 152.657 827.657 154 826 154H29C27.3432 154 26 152.657 26 151V123Z" fill="url(#paint0_linear)" fill-opacity="0.6"/>
<path d="M26 211C26 209.343 27.3431 208 29 208H826C827.657 208 829 209.343 829 211V240C829 241.657 827.657 243 826 243H29C27.3432 243 26 241.657 26 240V211Z" fill="url(#paint1_linear)" fill-opacity="0.6"/>
<path d="M26 389C26 387.343 27.3431 386 29 386H826C827.657 386 829 387.343 829 389V417C829 418.657 827.657 420 826 420H29C27.3432 420 26 418.657 26 417V389Z" fill="url(#paint2_linear)" fill-opacity="0.6"/>
<path d="M26 301C26 299.343 27.3431 298 29 298H826C827.657 298 829 299.343 829 301V329C829 330.657 827.657 332 826 332H29C27.3432 332 26 330.657 26 329V301Z" fill="url(#paint3_linear)" fill-opacity="0.6"/>
<path d="M361 30C361 28.3431 362.343 27 364 27H468C469.657 27 471 28.3431 471 30V56C471 57.6569 469.657 59 468 59H364C362.343 59 361 57.6569 361 56V30Z" fill="#F1F2F6" fill-opacity="0.7"/>
<path d="M511 30C511 28.3431 509.657 27 508 27H482C480.343 27 479 28.3431 479 30V56C479 57.6569 480.343 59 482 59H508C509.657 59 511 57.6569 511 56V30Z" fill="url(#paint4_linear)" fill-opacity="0.6"/>
<path d="M551 30C551 28.3431 549.657 27 548 27H522C520.343 27 519 28.3431 519 30V56C519 57.6569 520.343 59 522 59H548C549.657 59 551 57.6569 551 56V30Z" fill="#F1F2F6" fill-opacity="0.7"/>
<path d="M27 30C27 28.3431 28.3431 27 30 27H152C153.657 27 155 28.3431 155 30V56C155 57.6569 153.657 59 152 59H30C28.3431 59 27 57.6569 27 56V30Z" fill="#F1F2F6" fill-opacity="0.7"/>
<path d="M165 30C165 28.3431 166.343 27 168 27H347C348.657 27 350 28.3431 350 30V56C350 57.6569 348.657 59 347 59H168C166.343 59 165 57.6569 165 56V30Z" fill="url(#paint5_linear)" fill-opacity="0.6"/>
<rect x="10" y="499" width="214" height="36" rx="3" fill="white" fill-opacity="0.5"/>
<defs>
<filter id="filter0_d" x="0" y="0" width="862" height="496" filterUnits="userSpaceOnUse" color-interpolation-filters="sRGB">
<feFlood flood-opacity="0" result="BackgroundImageFix"/>
<feColorMatrix in="SourceAlpha" type="matrix" values="0 0 0 0 0 0 0 0 0 0 0 0 0 0 0 0 0 0 127 0"/>
<feOffset/>
<feGaussianBlur stdDeviation="5"/>
<feColorMatrix type="matrix" values="0 0 0 0 0 0 0 0 0 0 0 0 0 0 0 0 0 0 0.07 0"/>
<feBlend mode="normal" in2="BackgroundImageFix" result="effect1_dropShadow"/>
<feBlend mode="normal" in="SourceGraphic" in2="effect1_dropShadow" result="shape"/>
</filter>
<linearGradient id="paint0_linear" x1="26" y1="154" x2="829" y2="160" gradientUnits="userSpaceOnUse">
<stop stop-color="#F1F2F6" stop-opacity="0.7"/>
<stop offset="0.5" stop-color="#F1F2F6" stop-opacity="0.3"/>
<stop offset="1" stop-color="#F1F2F6" stop-opacity="0.7"/>
</linearGradient>
<linearGradient id="paint1_linear" x1="26" y1="243" x2="829.003" y2="248.829" gradientUnits="userSpaceOnUse">
<stop stop-color="#F1F2F6" stop-opacity="0.7"/>
<stop offset="0.5" stop-color="#F1F2F6" stop-opacity="0.3"/>
<stop offset="1" stop-color="#F1F2F6" stop-opacity="0.7"/>
</linearGradient>
<linearGradient id="paint2_linear" x1="26" y1="420" x2="829" y2="426" gradientUnits="userSpaceOnUse">
<stop stop-color="#F1F2F6" stop-opacity="0.7"/>
<stop offset="0.5" stop-color="#F1F2F6" stop-opacity="0.3"/>
<stop offset="1" stop-color="#F1F2F6" stop-opacity="0.7"/>
</linearGradient>
<linearGradient id="paint3_linear" x1="26" y1="332" x2="829" y2="338" gradientUnits="userSpaceOnUse">
<stop stop-color="#F1F2F6" stop-opacity="0.7"/>
<stop offset="0.5" stop-color="#F1F2F6" stop-opacity="0.3"/>
<stop offset="1" stop-color="#F1F2F6" stop-opacity="0.7"/>
</linearGradient>
<linearGradient id="paint4_linear" x1="511" y1="58.9998" x2="478.998" y2="59.01" gradientUnits="userSpaceOnUse">
<stop stop-color="#F1F2F6" stop-opacity="0.7"/>
<stop offset="0.5" stop-color="#F1F2F6" stop-opacity="0.3"/>
<stop offset="1" stop-color="#F1F2F6" stop-opacity="0.7"/>
</linearGradient>
<linearGradient id="paint5_linear" x1="165" y1="58.9998" x2="350.01" y2="59.3382" gradientUnits="userSpaceOnUse">
<stop stop-color="#F1F2F6" stop-opacity="0.7"/>
<stop offset="0.5" stop-color="#F1F2F6" stop-opacity="0.3"/>
<stop offset="1" stop-color="#F1F2F6" stop-opacity="0.7"/>
</linearGradient>
</defs>
</svg>
