<svg width="842" height="483" viewBox="0 0 842 483" fill="none" xmlns="http://www.w3.org/2000/svg">
<path d="M0 3.64494C0 1.63189 1.34315 0 3 0H839C840.657 0 842 1.63189 842 3.64494V478.702C842 480.715 840.657 482.347 839 482.347H2.99998C1.34313 482.347 0 480.715 0 478.702V3.64494Z" fill="white"/>
<path d="M15 170.055C15 168.398 16.3431 167.055 18 167.055H815C816.657 167.055 818 168.398 818 170.055V198.508C818 200.165 816.657 201.508 815 201.508H18C16.3432 201.508 15 200.165 15 198.508V170.055Z" fill="#F1F2F6" fill-opacity="0.7"/>
<path d="M15 73C15 71.3431 16.3431 70 18 70H815C816.657 70 818 71.3431 818 73V101.453C818 103.11 816.657 104.453 815 104.453H18C16.3432 104.453 15 103.11 15 101.453V73Z" fill="#F1F2F6" fill-opacity="0.7"/>
<path d="M15 350.426C15 348.769 16.3431 347.426 18 347.426H815C816.657 347.426 818 348.769 818 350.426V378.879C818 380.536 816.657 381.879 815 381.879H18C16.3432 381.879 15 380.536 15 378.879V350.426Z" fill="#F1F2F6" fill-opacity="0.7"/>
<path d="M15 260.24C15 258.583 16.3431 257.24 18 257.24H815C816.657 257.24 818 258.583 818 260.24V289.707C818 291.364 816.657 292.707 815 292.707H18C16.3432 292.707 15 291.364 15 289.707V260.24Z" fill="#F1F2F6" fill-opacity="0.7"/>
<path d="M15 439.6C15 437.943 16.3431 436.6 18 436.6H815C816.657 436.6 818 437.943 818 439.6V468.053C818 469.71 816.657 471.053 815 471.053H18C16.3432 471.053 15 469.71 15 468.053V439.6Z" fill="#F1F2F6" fill-opacity="0.7"/>
<path d="M16 125C16 123.343 17.3431 122 19 122H816C817.657 122 819 123.343 819 125V153.453C819 155.11 817.657 156.453 816 156.453H19C17.3432 156.453 16 155.11 16 153.453V125Z" fill="url(#paint0_linear)" fill-opacity="0.6"/>
<path d="M15 21C15 19.3431 16.3431 18 18 18H815C816.657 18 818 19.3431 818 21V49.4533C818 51.1102 816.657 52.4533 815 52.4533H18C16.3432 52.4533 15 51.1102 15 49.4533V21Z" fill="url(#paint1_linear)" fill-opacity="0.6"/>
<path d="M15 214.641C15 212.984 16.3431 211.641 18 211.641H815C816.657 211.641 818 212.984 818 214.641V244.107C818 245.764 816.657 247.107 815 247.107H18C16.3432 247.107 15 245.764 15 244.107V214.641Z" fill="url(#paint2_linear)" fill-opacity="0.6"/>
<path d="M15 395.014C15 393.357 16.3431 392.014 18 392.014H815C816.657 392.014 818 393.357 818 395.014V423.467C818 425.124 816.657 426.467 815 426.467H18C16.3432 426.467 15 425.124 15 423.467V395.014Z" fill="url(#paint3_linear)" fill-opacity="0.6"/>
<path d="M15 305.84C15 304.183 16.3431 302.84 18 302.84H815C816.657 302.84 818 304.183 818 305.84V334.293C818 335.95 816.657 337.293 815 337.293H18C16.3432 337.293 15 335.95 15 334.293V305.84Z" fill="url(#paint4_linear)" fill-opacity="0.6"/>
<defs>
<linearGradient id="paint0_linear" x1="16" y1="156.453" x2="819.001" y2="162.374" gradientUnits="userSpaceOnUse">
<stop stop-color="#F1F2F6" stop-opacity="0.7"/>
<stop offset="0.5" stop-color="#F1F2F6" stop-opacity="0.3"/>
<stop offset="1" stop-color="#F1F2F6" stop-opacity="0.7"/>
</linearGradient>
<linearGradient id="paint1_linear" x1="15" y1="52.4532" x2="818.001" y2="58.3743" gradientUnits="userSpaceOnUse">
<stop stop-color="#F1F2F6" stop-opacity="0.7"/>
<stop offset="0.5" stop-color="#F1F2F6" stop-opacity="0.3"/>
<stop offset="1" stop-color="#F1F2F6" stop-opacity="0.7"/>
</linearGradient>
<linearGradient id="paint2_linear" x1="15" y1="247.107" x2="818.004" y2="252.859" gradientUnits="userSpaceOnUse">
<stop stop-color="#F1F2F6" stop-opacity="0.7"/>
<stop offset="0.5" stop-color="#F1F2F6" stop-opacity="0.3"/>
<stop offset="1" stop-color="#F1F2F6" stop-opacity="0.7"/>
</linearGradient>
<linearGradient id="paint3_linear" x1="15" y1="426.467" x2="818.001" y2="432.388" gradientUnits="userSpaceOnUse">
<stop stop-color="#F1F2F6" stop-opacity="0.7"/>
<stop offset="0.5" stop-color="#F1F2F6" stop-opacity="0.3"/>
<stop offset="1" stop-color="#F1F2F6" stop-opacity="0.7"/>
</linearGradient>
<linearGradient id="paint4_linear" x1="15" y1="337.293" x2="818.001" y2="343.214" gradientUnits="userSpaceOnUse">
<stop stop-color="#F1F2F6" stop-opacity="0.7"/>
<stop offset="0.5" stop-color="#F1F2F6" stop-opacity="0.3"/>
<stop offset="1" stop-color="#F1F2F6" stop-opacity="0.7"/>
</linearGradient>
</defs>
</svg>
