<svg width="40" height="40" viewBox="0 0 40 40" fill="none" xmlns="http://www.w3.org/2000/svg">
<path d="M0 6C0 2.68629 2.68629 0 6 0H34C37.3137 0 40 2.68629 40 6V34C40 37.3137 37.3137 40 34 40H6C2.68629 40 0 37.3137 0 34V6Z" fill="#E95927"/>
<path d="M27.0534 12H18.9067C18.2234 12 17.6666 12.5797 17.6666 13.2936V18.0966C17.6666 18.8093 18.2224 19.3901 18.9067 19.3901H27.0534C27.7366 19.3901 28.2934 18.8104 28.2934 18.0966V13.2936C28.2923 12.5808 27.7366 12 27.0534 12ZM19.9692 16.2499H19.6154C19.3221 16.2499 19.0841 16.0016 19.0841 15.6956C19.0841 15.3897 19.3221 15.1414 19.6154 15.1414H19.9692C20.2625 15.1414 20.5005 15.3897 20.5005 15.6956C20.5005 16.0016 20.2625 16.2499 19.9692 16.2499ZM22.9795 17.1732C22.1985 17.1732 21.5631 16.5103 21.5631 15.6956C21.5631 14.8809 22.1985 14.218 22.9795 14.218C23.7605 14.218 24.3959 14.8809 24.3959 15.6956C24.397 16.5103 23.7615 17.1732 22.9795 17.1732ZM26.3446 16.2499H25.9908C25.6975 16.2499 25.4595 16.0016 25.4595 15.6956C25.4595 15.3897 25.6975 15.1414 25.9908 15.1414H26.3446C26.6379 15.1414 26.8759 15.3897 26.8759 15.6956C26.8759 16.0016 26.6379 16.2499 26.3446 16.2499Z" fill="white"/>
<path d="M12.3485 20.1294C12.1551 20.1327 12 20.2968 12 20.4985V27.1482C12 27.3521 12.1583 27.5173 12.3538 27.5173H13.8574C14.0157 27.5173 14.1549 27.4075 14.1985 27.249L15.7657 21.4861C15.8667 21.1137 15.6754 20.7224 15.3269 20.5905C14.6851 20.3466 13.7001 20.1061 12.3485 20.1294Z" fill="white"/>
<path d="M27.5847 24.1948C26.1683 24.1948 23.3344 26.0659 21.918 26.0659C20.5005 26.0659 18.9066 24.9342 18.9066 24.9342C18.9066 24.9342 20.815 25.3033 21.9169 25.3033C23.0188 25.3033 23.3333 24.9109 23.3333 24.3799C23.3333 23.0863 21.2273 22.8857 20.1626 22.7172C19.117 22.1098 18.5741 21.6298 16.8421 21.4769C16.8314 21.5822 16.8155 21.6864 16.7879 21.7917L15.3651 27.0236C16.977 27.7885 19.7514 29 21.2082 29C23.3333 29 29 26.0437 29 25.3055C29 24.5672 28.2923 24.1948 27.5847 24.1948Z" fill="white"/>
</svg>
