<svg width="40" height="40" viewBox="0 0 40 40" fill="none" xmlns="http://www.w3.org/2000/svg">
<path d="M0 6C0 2.68629 2.68629 0 6 0H34C37.3137 0 40 2.68629 40 6V34C40 37.3137 37.3137 40 34 40H6C2.68629 40 0 37.3137 0 34V6Z" fill="#E95927"/>
<path d="M10.4762 21.2044H29.5238C30.3359 21.2044 31 20.5719 31 19.7904V16.3201C31 15.5386 30.3359 14.9061 29.5238 14.9061H10.4762C9.66409 14.9061 9 15.5386 9 16.3201V19.7904C9 20.5719 9.66409 21.2044 10.4762 21.2044ZM10.1384 16.3201C10.1384 16.1448 10.2886 15.9989 10.4762 15.9989H29.5238C29.7113 15.9989 29.8616 16.1448 29.8616 16.3201V19.7904C29.8616 19.9657 29.7113 20.1116 29.5238 20.1116H10.4762C10.2886 20.1116 10.1384 19.9657 10.1384 19.7904V16.3201Z" fill="white"/>
<path fill-rule="evenodd" clip-rule="evenodd" d="M19.723 15.4509L19.7354 15.4508L19.7477 15.4509C19.7886 15.4509 19.8281 15.4465 19.8668 15.4394L19.8704 15.4386C20.1535 15.3774 21.011 15.1852 21.8932 14.9158C22.3342 14.7812 22.7836 14.6267 23.1713 14.459C23.5558 14.2924 23.8918 14.1078 24.096 13.9091C24.5401 13.4768 24.7849 12.9011 24.7849 12.2893C24.7849 11.6776 24.5402 11.1019 24.0952 10.6704C23.1785 9.77701 21.6859 9.77611 20.7683 10.6704C20.5641 10.8692 20.3746 11.1963 20.2035 11.5707C20.0315 11.9473 19.8732 12.3838 19.7351 12.8123C19.5969 12.3834 19.4384 11.9467 19.2662 11.5698C19.0952 11.1956 18.9056 10.8686 18.7014 10.67C17.7845 9.77663 16.2918 9.77671 15.374 10.67C14.9299 11.1023 14.6851 11.6779 14.6851 12.2896C14.6851 12.9013 14.9298 13.477 15.375 13.9085C15.5793 14.1072 15.9153 14.2918 16.2998 14.4581C16.6876 14.626 17.137 14.7805 17.5781 14.9151C18.4604 15.1843 19.3181 15.3766 19.6012 15.4377C19.6415 15.4465 19.6822 15.4509 19.723 15.4509ZM15.8793 12.6837C16.2589 13.1503 17.1061 13.4549 18.0601 13.7978C18.343 13.8995 18.6354 14.0046 18.9277 14.1183C18.914 14.0451 18.9001 13.9735 18.8859 13.9034C18.1019 10.0152 16.5999 10.7638 15.8421 11.4908C15.582 11.9974 15.6289 12.3758 15.8793 12.6837ZM22.883 13.3832C23.0859 13.2887 23.2268 13.2032 23.299 13.133C23.5313 12.9076 23.6587 12.6087 23.6587 12.2893C23.6587 11.9699 23.5313 11.6709 23.2997 11.4446C23.0611 11.2123 22.7465 11.096 22.4322 11.096C22.1178 11.096 21.8032 11.2124 21.5646 11.4446C21.4925 11.5149 21.4048 11.6519 21.3078 11.8494C21.2123 12.0437 21.1128 12.2859 21.0135 12.5568C20.8355 13.0425 20.6604 13.6148 20.5133 14.1566C21.0698 14.0138 21.6576 13.8434 22.1565 13.6699C22.4347 13.5733 22.6834 13.4763 22.883 13.3832Z" fill="white"/>
<path fill-rule="evenodd" clip-rule="evenodd" d="M10.9283 20.6333V26.5703C10.9283 27.7858 11.9443 28.7754 13.1941 28.7754H26.7892C28.039 28.7754 29.055 27.7858 29.055 26.5703V20.6333H28.1487V26.5703C28.1487 27.2997 27.5387 27.8933 26.7892 27.8933H13.1941C12.4446 27.8933 11.8346 27.2997 11.8346 26.5703V20.6333H10.9283Z" fill="white"/>
<path d="M10.9283 20.6333L10.9283 20.4075H10.6968V20.6327L10.9283 20.6333ZM29.055 20.6333L29.2864 20.6327V20.4075H29.055L29.055 20.6333ZM28.1487 20.6333L28.1486 20.4075H27.9172V20.6327L28.1487 20.6333ZM11.8346 20.6333L12.066 20.6327V20.4075H11.8346L11.8346 20.6333ZM11.1597 26.5697V20.6327H10.6968V26.5697H11.1597ZM13.1941 28.5496C12.0722 28.5496 11.1597 27.6609 11.1597 26.5697H10.6968C10.6968 27.9095 11.8164 29 13.1941 29V28.5496ZM26.7891 28.5496H13.1941V29H26.7891V28.5496ZM28.8236 26.5697C28.8236 27.6609 27.9111 28.5496 26.7891 28.5496V29C28.1668 29 29.2864 27.9095 29.2864 26.5697H28.8236ZM28.8236 20.6327V26.5697H29.2864V20.6327H28.8236ZM29.055 20.4075H28.1486V20.8579H29.055V20.4075ZM28.38 26.5697V20.6327H27.9172V26.5697H28.38ZM26.7891 28.118C27.6665 28.118 28.38 27.4236 28.38 26.5697H27.9172C27.9172 27.1748 27.4109 27.6675 26.7891 27.6675V28.118ZM13.1941 28.118H26.7891V27.6675H13.1941V28.118ZM11.6032 26.5697C11.6032 27.4236 12.3168 28.118 13.1941 28.118V27.6675C12.5724 27.6675 12.066 27.1748 12.066 26.5697H11.6032ZM11.6032 20.6327V26.5697H12.066V20.6327H11.6032ZM11.8346 20.4075H10.9283V20.8579H11.8346V20.4075Z" fill="white"/>
<path fill-rule="evenodd" clip-rule="evenodd" d="M17.2727 20.6303V24.8049C17.2727 24.9742 17.3724 25.1286 17.5292 25.2018C17.6869 25.275 17.8718 25.2538 18.0086 25.1489L19.9917 23.6052L21.9747 25.1498C22.0564 25.2132 22.1569 25.2458 22.2575 25.2458C22.3237 25.2458 22.3908 25.2317 22.4542 25.2026C22.611 25.1286 22.7107 24.9742 22.7107 24.8049V20.6303H21.8043V23.8867L20.2754 22.6959C20.1086 22.5671 19.8757 22.5671 19.7089 22.6959L18.179 23.8867V20.6303H17.2727Z" fill="white"/>
</svg>
