<svg width="22" height="22" viewBox="0 0 22 22" fill="none" xmlns="http://www.w3.org/2000/svg">
<path d="M22 2.52038C22 1.13025 20.8697 0 19.4796 0H2.52038C1.13025 0 0 1.13025 0 2.52038V12.1454C0 13.5355 1.13025 14.6658 2.52038 14.6658H9.88075C10.6865 11.7645 13.3444 9.625 16.5 9.625C18.7495 9.625 20.7446 10.7168 22 12.3929V2.52038ZM5.72962 4.125H3.4375C3.058 4.125 2.75 3.817 2.75 3.4375C2.75 3.058 3.058 2.75 3.4375 2.75H5.72962C6.10912 2.75 6.41712 3.058 6.41712 3.4375C6.41712 3.817 6.10912 4.125 5.72962 4.125ZM11 10.0829C9.48337 10.0829 8.25 8.8495 8.25 7.33288C8.25 5.81625 9.48337 4.58288 11 4.58288C12.5166 4.58288 13.75 5.81625 13.75 7.33288C13.75 8.8495 12.5166 10.0829 11 10.0829Z" fill="#E95927"/>
<path d="M16.5 11C13.4667 11 11 13.4667 11 16.5C11 19.5332 13.4667 22 16.5 22C19.5332 22 22 19.5332 22 16.5C22 13.4667 19.5332 11 16.5 11ZM19.0204 17.4171H17.4158V19.0217C17.4158 19.5277 17.0046 19.9389 16.4986 19.9389C15.9926 19.9389 15.5815 19.5277 15.5815 19.0217V17.4171H13.9769C13.4709 17.4171 13.0597 17.006 13.0597 16.5C13.0597 15.994 13.4709 15.5829 13.9769 15.5829H15.5815V13.9783C15.5815 13.4723 15.9926 13.0611 16.4986 13.0611C17.0046 13.0611 17.4158 13.4723 17.4158 13.9783V15.5829H19.0204C19.5264 15.5829 19.9375 15.994 19.9375 16.5C19.9375 17.006 19.5278 17.4171 19.0204 17.4171Z" fill="#FF9874"/>
</svg>
