<svg width="40" height="40" viewBox="0 0 40 40" fill="none" xmlns="http://www.w3.org/2000/svg">
<path d="M0 6C0 2.68629 2.68629 0 6 0H34C37.3137 0 40 2.68629 40 6V34C40 37.3137 37.3137 40 34 40H6C2.68629 40 0 37.3137 0 34V6Z" fill="#E95927"/>
<path d="M29.5002 10.8136C29.5002 9.28863 28.2771 8.04728 26.7521 8.02288L13.9955 8C12.4522 8 11.2002 9.25203 11.2002 10.7953V29.6032C11.2002 31.148 12.4522 32.4 13.9955 32.4H26.7033C28.2482 32.4 29.5002 31.148 29.5002 29.6047V10.8136ZM17.1782 17.4047H16.405C15.217 17.4047 14.2502 16.4378 14.2502 15.2498C14.2502 14.1808 15.0203 13.3024 16.0299 13.1225V12.3218C16.0299 11.9009 16.3715 11.5593 16.7924 11.5593C17.2133 11.5593 17.5549 11.9009 17.5549 12.3218V13.0843H18.572C18.9929 13.0843 19.3345 13.426 19.3345 13.8468C19.3345 14.2677 18.9929 14.6093 18.572 14.6093H16.4065C16.0588 14.6093 15.7767 14.893 15.7767 15.2392C15.7767 15.596 16.0604 15.8797 16.4065 15.8797H17.1797C18.3677 15.8797 19.3345 16.8465 19.3345 18.0345C19.3345 19.1035 18.5644 19.9819 17.5549 20.1619V20.9625C17.5549 21.3834 17.2133 21.725 16.7924 21.725C16.3715 21.725 16.0299 21.3834 16.0299 20.9625V20.2H15.0127C14.5918 20.2 14.2502 19.8584 14.2502 19.4375C14.2502 19.0166 14.5918 18.675 15.0127 18.675H17.1782C17.5259 18.675 17.808 18.3914 17.808 18.0452C17.808 17.6868 17.5259 17.4047 17.1782 17.4047ZM25.6877 29.35H15.0127C14.5918 29.35 14.2502 29.0084 14.2502 28.5875C14.2502 28.1666 14.5918 27.825 15.0127 27.825H25.6877C26.1086 27.825 26.4502 28.1666 26.4502 28.5875C26.4502 29.0084 26.1086 29.35 25.6877 29.35ZM25.6877 25.2828H15.0127C14.5918 25.2828 14.2502 24.9412 14.2502 24.5203C14.2502 24.0994 14.5918 23.7578 15.0127 23.7578H25.6877C26.1086 23.7578 26.4502 24.0994 26.4502 24.5203C26.4502 24.9412 26.1086 25.2828 25.6877 25.2828ZM25.6877 21.2172H22.1299C21.709 21.2172 21.3674 20.8756 21.3674 20.4547C21.3674 20.0338 21.709 19.6922 22.1299 19.6922H25.6877C26.1086 19.6922 26.4502 20.0338 26.4502 20.4547C26.4502 20.8756 26.1086 21.2172 25.6877 21.2172ZM26.4502 16.3875C26.4502 16.8084 26.1086 17.15 25.6877 17.15H22.1299C21.709 17.15 21.3674 16.8084 21.3674 16.3875C21.3674 15.9666 21.709 15.625 22.1299 15.625H25.6877C26.1086 15.625 26.4502 15.9666 26.4502 16.3875Z" fill="white"/>
</svg>
