<svg width="341" height="75" viewBox="0 0 341 75" fill="none" xmlns="http://www.w3.org/2000/svg">
<path d="M66.2139 39.4365C66.2139 38.999 66.0589 38.6618 65.749 38.4248C65.4437 38.1878 64.89 37.9486 64.0879 37.707C63.2858 37.4655 62.6478 37.1966 62.1738 36.9004C61.2669 36.3307 60.8135 35.5879 60.8135 34.6719C60.8135 33.8698 61.1393 33.209 61.791 32.6895C62.4473 32.1699 63.2972 31.9102 64.3408 31.9102C65.0335 31.9102 65.651 32.0378 66.1934 32.293C66.7357 32.5482 67.1618 32.9128 67.4717 33.3867C67.7816 33.8561 67.9365 34.3779 67.9365 34.9521H66.2139C66.2139 34.4326 66.0498 34.027 65.7217 33.7354C65.3981 33.4391 64.9333 33.291 64.3271 33.291C63.762 33.291 63.3223 33.4118 63.0078 33.6533C62.6979 33.8949 62.543 34.2321 62.543 34.665C62.543 35.0296 62.7116 35.335 63.0488 35.5811C63.3861 35.8226 63.9421 36.0596 64.7168 36.292C65.4915 36.5199 66.1136 36.7819 66.583 37.0781C67.0524 37.3698 67.3965 37.707 67.6152 38.0898C67.834 38.4681 67.9434 38.9124 67.9434 39.4229C67.9434 40.2523 67.6243 40.9131 66.9863 41.4053C66.3529 41.8929 65.4915 42.1367 64.4023 42.1367C63.6823 42.1367 63.0192 42.0046 62.4131 41.7402C61.8115 41.4714 61.3421 41.1022 61.0049 40.6328C60.6722 40.1634 60.5059 39.6165 60.5059 38.9922H62.2354C62.2354 39.5573 62.4222 39.9948 62.7959 40.3047C63.1696 40.6146 63.7051 40.7695 64.4023 40.7695C65.0039 40.7695 65.4551 40.6488 65.7559 40.4072C66.0612 40.1611 66.2139 39.8376 66.2139 39.4365ZM73.9197 42C73.8468 41.8587 73.783 41.6286 73.7283 41.3096C73.1997 41.861 72.5525 42.1367 71.7869 42.1367C71.0441 42.1367 70.438 41.9248 69.9686 41.501C69.4992 41.0771 69.2645 40.5531 69.2645 39.9287C69.2645 39.1403 69.5561 38.5365 70.1395 38.1172C70.7273 37.6934 71.5659 37.4814 72.6551 37.4814H73.6736V36.9961C73.6736 36.6133 73.5665 36.3079 73.3523 36.0801C73.1382 35.8477 72.8123 35.7314 72.3748 35.7314C71.9965 35.7314 71.6867 35.8271 71.4451 36.0186C71.2036 36.2054 71.0828 36.4447 71.0828 36.7363H69.4217C69.4217 36.3307 69.5561 35.9525 69.825 35.6016C70.0939 35.2461 70.4585 34.9681 70.9187 34.7676C71.3836 34.5671 71.9008 34.4668 72.4705 34.4668C73.3364 34.4668 74.0268 34.6855 74.5418 35.123C75.0568 35.556 75.3211 36.1667 75.3348 36.9551V40.291C75.3348 40.9564 75.4282 41.4873 75.615 41.8838V42H73.9197ZM72.0945 40.8037C72.4227 40.8037 72.7303 40.724 73.0174 40.5645C73.309 40.4049 73.5278 40.1908 73.6736 39.9219V38.5273H72.7781C72.1629 38.5273 71.7003 38.6344 71.3904 38.8486C71.0805 39.0628 70.9256 39.3659 70.9256 39.7578C70.9256 40.0768 71.0304 40.332 71.24 40.5234C71.4542 40.7103 71.7391 40.8037 72.0945 40.8037ZM79.773 39.8945L81.3385 34.6035H83.0543L80.4908 42H79.0484L76.4645 34.6035H78.1871L79.773 39.8945ZM86.0639 42H84.4027V34.6035H86.0639V42ZM84.3002 32.6826C84.3002 32.4274 84.3799 32.2155 84.5395 32.0469C84.7035 31.8783 84.9359 31.7939 85.2367 31.7939C85.5375 31.7939 85.7699 31.8783 85.934 32.0469C86.098 32.2155 86.1801 32.4274 86.1801 32.6826C86.1801 32.9333 86.098 33.1429 85.934 33.3115C85.7699 33.4756 85.5375 33.5576 85.2367 33.5576C84.9359 33.5576 84.7035 33.4756 84.5395 33.3115C84.3799 33.1429 84.3002 32.9333 84.3002 32.6826ZM89.6203 34.6035L89.6682 35.458C90.215 34.7972 90.9328 34.4668 91.8215 34.4668C93.3618 34.4668 94.1457 35.3486 94.173 37.1123V42H92.5119V37.208C92.5119 36.7386 92.4094 36.3923 92.2043 36.1689C92.0038 35.9411 91.6734 35.8271 91.2131 35.8271C90.5432 35.8271 90.0441 36.1302 89.716 36.7363V42H88.0549V34.6035H89.6203ZM95.7812 38.2471C95.7812 37.0986 96.0501 36.1826 96.5879 35.499C97.1302 34.8109 97.848 34.4668 98.7412 34.4668C99.5843 34.4668 100.247 34.7607 100.73 35.3486L100.806 34.6035H102.303V41.7744C102.303 42.7451 102 43.5107 101.394 44.0713C100.792 44.6318 99.9785 44.9121 98.9531 44.9121C98.4108 44.9121 97.8799 44.7982 97.3604 44.5703C96.8454 44.347 96.4535 44.0531 96.1846 43.6885L96.9707 42.6904C97.4811 43.2965 98.11 43.5996 98.8574 43.5996C99.4089 43.5996 99.8441 43.4492 100.163 43.1484C100.482 42.8522 100.642 42.4147 100.642 41.8359V41.3369C100.163 41.8701 99.5251 42.1367 98.7275 42.1367C97.8617 42.1367 97.153 41.7926 96.6016 41.1045C96.0547 40.4163 95.7812 39.4639 95.7812 38.2471ZM97.4355 38.3906C97.4355 39.1335 97.5859 39.7191 97.8867 40.1475C98.1921 40.5713 98.6136 40.7832 99.1514 40.7832C99.8213 40.7832 100.318 40.4961 100.642 39.9219V36.668C100.327 36.1074 99.835 35.8271 99.165 35.8271C98.6182 35.8271 98.1921 36.0436 97.8867 36.4766C97.5859 36.9095 97.4355 37.5475 97.4355 38.3906ZM114.399 39.71L115.575 34.6035H117.195L115.178 42H113.811L112.225 36.9209L110.667 42H109.299L107.276 34.6035H108.896L110.092 39.6553L111.61 34.6035H112.861L114.399 39.71ZM122.925 42C122.852 41.8587 122.788 41.6286 122.734 41.3096C122.205 41.861 121.558 42.1367 120.792 42.1367C120.05 42.1367 119.443 41.9248 118.974 41.501C118.505 41.0771 118.27 40.5531 118.27 39.9287C118.27 39.1403 118.562 38.5365 119.145 38.1172C119.733 37.6934 120.571 37.4814 121.661 37.4814H122.679V36.9961C122.679 36.6133 122.572 36.3079 122.358 36.0801C122.144 35.8477 121.818 35.7314 121.38 35.7314C121.002 35.7314 120.692 35.8271 120.451 36.0186C120.209 36.2054 120.088 36.4447 120.088 36.7363H118.427C118.427 36.3307 118.562 35.9525 118.83 35.6016C119.099 35.2461 119.464 34.9681 119.924 34.7676C120.389 34.5671 120.906 34.4668 121.476 34.4668C122.342 34.4668 123.032 34.6855 123.547 35.123C124.062 35.556 124.327 36.1667 124.34 36.9551V40.291C124.34 40.9564 124.434 41.4873 124.621 41.8838V42H122.925ZM121.1 40.8037C121.428 40.8037 121.736 40.724 122.023 40.5645C122.315 40.4049 122.533 40.1908 122.679 39.9219V38.5273H121.784C121.168 38.5273 120.706 38.6344 120.396 38.8486C120.086 39.0628 119.931 39.3659 119.931 39.7578C119.931 40.0768 120.036 40.332 120.246 40.5234C120.46 40.7103 120.745 40.8037 121.1 40.8037ZM128.047 42H126.386V31.5H128.047V42ZM131.829 42H130.168V31.5H131.829V42ZM137.101 42.1367C136.049 42.1367 135.194 41.8063 134.538 41.1455C133.886 40.4801 133.56 39.596 133.56 38.4932V38.2881C133.56 37.5498 133.702 36.8913 133.984 36.3125C134.271 35.7292 134.672 35.2757 135.187 34.9521C135.702 34.6286 136.276 34.4668 136.91 34.4668C137.917 34.4668 138.694 34.7881 139.241 35.4307C139.792 36.0732 140.068 36.9824 140.068 38.1582V38.8281H135.235C135.285 39.4388 135.488 39.9219 135.844 40.2773C136.204 40.6328 136.655 40.8105 137.197 40.8105C137.958 40.8105 138.578 40.5029 139.056 39.8877L139.952 40.7422C139.656 41.1842 139.259 41.5283 138.762 41.7744C138.27 42.016 137.717 42.1367 137.101 42.1367ZM136.903 35.7998C136.447 35.7998 136.078 35.9593 135.796 36.2783C135.518 36.5973 135.34 37.0417 135.262 37.6113H138.428V37.4883C138.391 36.9323 138.243 36.513 137.983 36.2305C137.723 35.9434 137.363 35.7998 136.903 35.7998ZM143.645 32.8057V34.6035H144.951V35.834H143.645V39.9629C143.645 40.2454 143.7 40.4505 143.809 40.5781C143.923 40.7012 144.124 40.7627 144.411 40.7627C144.602 40.7627 144.796 40.7399 144.992 40.6943V41.9795C144.614 42.0843 144.249 42.1367 143.898 42.1367C142.622 42.1367 141.984 41.4326 141.984 40.0244V35.834H140.767V34.6035H141.984V32.8057H143.645ZM150.136 37.9531C150.136 36.9004 150.277 35.9023 150.56 34.959C150.842 34.0111 151.257 33.1657 151.804 32.4229C152.351 31.6755 152.93 31.1514 153.54 30.8506L153.868 31.8213C153.226 32.3089 152.704 33.054 152.303 34.0566C151.906 35.0547 151.69 36.1986 151.654 37.4883L151.647 38.0762C151.647 39.457 151.84 40.6898 152.228 41.7744C152.62 42.8545 153.167 43.6771 153.868 44.2422L153.54 45.165C152.93 44.8643 152.349 44.3379 151.797 43.5859C151.25 42.8385 150.835 41.9954 150.553 41.0566C150.275 40.1133 150.136 39.0788 150.136 37.9531ZM159.011 38.165H157.083V42H155.354V32.0469H158.854C160.002 32.0469 160.888 32.3044 161.513 32.8193C162.137 33.3343 162.449 34.0794 162.449 35.0547C162.449 35.7201 162.287 36.2783 161.964 36.7295C161.645 37.1761 161.198 37.5202 160.624 37.7617L162.859 41.9111V42H161.007L159.011 38.165ZM157.083 36.7773H158.86C159.444 36.7773 159.899 36.6315 160.228 36.3398C160.556 36.0436 160.72 35.6403 160.72 35.1299C160.72 34.5967 160.567 34.1842 160.262 33.8926C159.961 33.6009 159.51 33.4505 158.908 33.4414H157.083V36.7773ZM172.096 39.5391L173.628 32.0469H175.344L173.047 42H171.392L169.499 34.7334L167.564 42H165.903L163.606 32.0469H165.322L166.867 39.5254L168.767 32.0469H170.217L172.096 39.5391ZM182.544 37.7822H178.538V42H176.808V32.0469H183.131V33.4414H178.538V36.4014H182.544V37.7822ZM187.768 38.4385H184.179V37.0986H187.768V38.4385ZM195.72 37.8096C195.72 39.2406 195.451 40.3206 194.913 41.0498C194.38 41.7744 193.567 42.1367 192.473 42.1367C191.397 42.1367 190.586 41.7835 190.039 41.0771C189.497 40.3662 189.219 39.3158 189.205 37.9258V36.2031C189.205 34.7721 189.472 33.6989 190.005 32.9834C190.543 32.2679 191.361 31.9102 192.459 31.9102C193.548 31.9102 194.36 32.2588 194.893 32.9561C195.431 33.6533 195.706 34.6969 195.72 36.0869V37.8096ZM194.059 35.9502C194.059 35.016 193.931 34.3324 193.676 33.8994C193.421 33.4619 193.015 33.2432 192.459 33.2432C191.917 33.2432 191.518 33.4505 191.263 33.8652C191.008 34.2754 190.873 34.918 190.86 35.793V38.0488C190.86 38.9785 190.989 39.6712 191.249 40.127C191.509 40.5827 191.917 40.8105 192.473 40.8105C193.006 40.8105 193.4 40.6009 193.655 40.1816C193.911 39.7578 194.045 39.097 194.059 38.1992V35.9502ZM201.888 42H200.233V34.0088L197.793 34.8428V33.4414L201.676 32.0127H201.888V42ZM208.876 38.4385H205.287V37.0986H208.876V38.4385ZM218.503 42H216.773L212.337 34.9385V42H210.607V32.0469H212.337L216.787 39.1357V32.0469H218.503V42ZM228.375 40.708C228.015 41.1774 227.516 41.5329 226.878 41.7744C226.24 42.016 225.516 42.1367 224.704 42.1367C223.871 42.1367 223.132 41.9476 222.49 41.5693C221.847 41.1911 221.35 40.651 220.999 39.9492C220.653 39.2428 220.473 38.4202 220.459 37.4814V36.7021C220.459 35.1982 220.819 34.0247 221.539 33.1816C222.26 32.334 223.264 31.9102 224.554 31.9102C225.662 31.9102 226.541 32.1836 227.193 32.7305C227.844 33.2773 228.236 34.0658 228.369 35.0957H226.673C226.482 33.8971 225.787 33.2979 224.588 33.2979C223.814 33.2979 223.223 33.5781 222.818 34.1387C222.417 34.6947 222.209 35.5127 222.196 36.5928V37.3584C222.196 38.4339 222.421 39.2702 222.872 39.8672C223.328 40.4596 223.959 40.7559 224.766 40.7559C225.65 40.7559 226.279 40.5553 226.653 40.1543V38.2061H224.602V36.8936H228.375V40.708ZM236.047 39.6826H232.192L231.385 42H229.587L233.347 32.0469H234.899L238.665 42H236.861L236.047 39.6826ZM232.677 38.2881H235.562L234.119 34.1592L232.677 38.2881ZM240 42V32.0469H243.411C244.537 32.0469 245.394 32.2725 245.981 32.7236C246.569 33.1748 246.863 33.847 246.863 34.7402C246.863 35.196 246.74 35.6061 246.494 35.9707C246.248 36.3353 245.888 36.6178 245.414 36.8184C245.952 36.9642 246.367 37.2399 246.658 37.6455C246.954 38.0465 247.103 38.5296 247.103 39.0947C247.103 40.029 246.802 40.7467 246.2 41.248C245.603 41.7493 244.746 42 243.63 42H240ZM241.729 37.5088V40.6191H243.65C244.193 40.6191 244.617 40.4847 244.922 40.2158C245.227 39.9469 245.38 39.5732 245.38 39.0947C245.38 38.0602 244.851 37.5316 243.794 37.5088H241.729ZM241.729 36.2373H243.425C243.963 36.2373 244.382 36.1165 244.683 35.875C244.988 35.6289 245.141 35.2826 245.141 34.8359C245.141 34.3438 244.999 33.9883 244.717 33.7695C244.439 33.5508 244.004 33.4414 243.411 33.4414H241.729V36.2373ZM256.975 37.2832C256.975 38.2585 256.807 39.1152 256.47 39.8535C256.132 40.5872 255.649 41.1523 255.02 41.5488C254.396 41.9408 253.676 42.1367 252.86 42.1367C252.054 42.1367 251.333 41.9408 250.7 41.5488C250.071 41.1523 249.583 40.5895 249.237 39.8604C248.895 39.1312 248.722 38.2904 248.718 37.3379V36.7773C248.718 35.8066 248.888 34.9499 249.23 34.207C249.577 33.4642 250.062 32.8968 250.686 32.5049C251.315 32.1084 252.035 31.9102 252.846 31.9102C253.658 31.9102 254.375 32.1061 255 32.498C255.629 32.8854 256.114 33.446 256.456 34.1797C256.798 34.9089 256.971 35.7588 256.975 36.7295V37.2832ZM255.246 36.7637C255.246 35.6608 255.036 34.8154 254.617 34.2275C254.202 33.6396 253.612 33.3457 252.846 33.3457C252.099 33.3457 251.513 33.6396 251.09 34.2275C250.67 34.8109 250.456 35.638 250.447 36.709V37.2832C250.447 38.377 250.659 39.2223 251.083 39.8193C251.511 40.4163 252.104 40.7148 252.86 40.7148C253.626 40.7148 254.214 40.4232 254.624 39.8398C255.039 39.2565 255.246 38.4043 255.246 37.2832V36.7637ZM261.94 38.0625C261.94 39.0742 261.801 40.0518 261.523 40.9951C261.245 41.9339 260.823 42.7884 260.258 43.5586C259.693 44.3333 259.103 44.8688 258.488 45.165L258.16 44.2422C258.843 43.7135 259.383 42.9069 259.78 41.8223C260.181 40.7331 260.381 39.4912 260.381 38.0967V37.9395C260.381 36.6725 260.208 35.5195 259.862 34.4805C259.516 33.4368 259.019 32.6006 258.372 31.9717L258.16 31.7803L258.488 30.8506C259.071 31.1331 259.636 31.6344 260.183 32.3545C260.73 33.0745 261.149 33.8812 261.441 34.7744C261.733 35.6631 261.897 36.5814 261.933 37.5293L261.94 38.0625Z" fill="#171D33"/>
<path d="M48.6034 32.1348H21.3966C20.0729 32.1348 19 33.2106 19 34.5378V42.6458H51V34.5378C51 33.2106 49.9271 32.1348 48.6034 32.1348Z" fill="#4173CD"/>
<path d="M51 42.6465H19V47.9019H51V42.6465Z" fill="#FFE15A"/>
<path d="M19 50.7568C19 52.0839 20.0729 53.1598 21.3966 53.1598H48.6034C49.927 53.1598 51 52.084 51 50.7568V47.9043H19V50.7568Z" fill="#73AF00"/>
<path d="M47.6386 37.7681L49.897 37.3932L47.6386 37.0184L49.582 35.8055L47.3525 36.3257L48.685 34.4594L46.8238 35.7956L47.3426 33.5601L46.133 35.5087L45.759 33.2441L45.3852 35.5086L44.1755 33.56L44.6943 35.7955L42.8331 34.4593L44.1657 36.3256L41.9362 35.8054L43.8795 37.0183L41.6211 37.3932L43.8795 37.7681L41.9361 38.981L44.1656 38.4608L42.833 40.3271L44.6943 38.9909L44.1755 41.2264L45.3851 39.2778L45.759 41.5423L46.1329 39.2779L47.3425 41.2265L46.8237 38.991L48.685 40.3271L47.3524 38.4609L49.5819 38.9811L47.6386 37.7681ZM45.759 38.7763C44.9972 38.7763 44.3797 38.1571 44.3797 37.3932C44.3797 36.6294 44.9972 36.0102 45.759 36.0102C46.5208 36.0102 47.1383 36.6294 47.1383 37.3932C47.1383 38.1571 46.5208 38.7763 45.759 38.7763Z" fill="#FFE15A"/>
<path d="M45.7591 38.432C46.3304 38.432 46.7936 37.9676 46.7936 37.3947C46.7936 36.8218 46.3304 36.3574 45.7591 36.3574C45.1878 36.3574 44.7246 36.8218 44.7246 37.3947C44.7246 37.9676 45.1878 38.432 45.7591 38.432Z" fill="#FFE15A"/>
<path d="M318.521 51.1064L324.611 45.7205C325.13 45.3049 325.13 44.6317 324.611 44.216C324.093 43.8004 323.254 43.8004 322.736 44.216L317.5 48.8456L312.264 44.216C311.746 43.8004 310.907 43.8004 310.389 44.216C309.871 44.6317 309.871 45.3049 310.389 45.7205L316.479 51.1064C316.759 51.3309 317.133 51.43 317.5 51.4115C317.867 51.4295 318.241 51.3309 318.521 51.1064Z" fill="#C4C4C4"/>
<rect y="17" width="341" height="58" rx="3" fill="#E1E1E1"/>
<rect width="102" height="9" fill="#ECECEC"/>
</svg>
