<svg width="341" height="291" viewBox="0 0 341 291" fill="none" xmlns="http://www.w3.org/2000/svg">
<rect x="1" y="126" width="339" height="1" fill="#EEEEEE"/>
<rect x="1" y="67" width="339" height="1" fill="#EEEEEE"/>
<rect x="1" y="167" width="339" height="1" fill="#EEEEEE"/>
<rect x="1" y="212" width="339" height="1" fill="#EEEEEE"/>
<rect x="1" y="254" width="339" height="1" fill="#EEEEEE"/>
<rect x="2" y="290" width="339" height="1" fill="#EEEEEE"/>
<rect width="92" height="12" fill="#E1E1E1" fill-opacity="0.5"/>
<rect y="20" width="92" height="12" fill="#E1E1E1" fill-opacity="0.5"/>
<rect y="40" width="57" height="12" fill="#E1E1E1" fill-opacity="0.5"/>
<rect y="189" width="92" height="12" fill="#E1E1E1" fill-opacity="0.5"/>
<rect y="226" width="83" height="12" fill="#E1E1E1" fill-opacity="0.5"/>
<rect x="1" y="96" width="57" height="12" fill="#E1E1E1" fill-opacity="0.5"/>
<rect x="1" y="141" width="35" height="12" fill="#E1E1E1" fill-opacity="0.5"/>
<rect x="281" y="141" width="59" height="12" fill="#E1E1E1" fill-opacity="0.5"/>
<rect x="281" y="225" width="59" height="12" fill="#E1E1E1" fill-opacity="0.5"/>
<rect x="265" y="184" width="75" height="12" fill="#E1E1E1" fill-opacity="0.5"/>
<rect x="2" y="267" width="35" height="12" fill="#E1E1E1" fill-opacity="0.5"/>
<rect y="79" width="165" height="12" fill="#E1E1E1" fill-opacity="0.5"/>
</svg>
