<svg width="13" height="13" viewBox="0 0 13 13" fill="none" xmlns="http://www.w3.org/2000/svg">
<path fill-rule="evenodd" clip-rule="evenodd" d="M6.23145 0.910156C6.43036 0.910156 6.62112 0.989174 6.76178 1.12983C6.90243 1.27048 6.98145 1.46124 6.98145 1.66016V6.16016H11.4814C11.6804 6.16016 11.8711 6.23917 12.0118 6.37983C12.1524 6.52048 12.2314 6.71124 12.2314 6.91016C12.2314 7.10907 12.1524 7.29983 12.0118 7.44049C11.8711 7.58114 11.6804 7.66016 11.4814 7.66016H6.98145V12.1602C6.98145 12.3591 6.90243 12.5498 6.76178 12.6905C6.62112 12.8311 6.43036 12.9102 6.23145 12.9102C6.03253 12.9102 5.84177 12.8311 5.70112 12.6905C5.56046 12.5498 5.48145 12.3591 5.48145 12.1602V7.66016H0.981445C0.782533 7.66016 0.591768 7.58114 0.451115 7.44049C0.310463 7.29983 0.231445 7.10907 0.231445 6.91016C0.231445 6.71124 0.310463 6.52048 0.451115 6.37983C0.591768 6.23917 0.782533 6.16016 0.981445 6.16016H5.48145V1.66016C5.48145 1.46124 5.56046 1.27048 5.70112 1.12983C5.84177 0.989174 6.03253 0.910156 6.23145 0.910156Z" fill="#7E8494"/>
</svg>
