<svg width="51" height="51" viewBox="0 0 51 51" fill="none" xmlns="http://www.w3.org/2000/svg">
<rect x="0.958984" y="0.222656" width="50" height="50" rx="25" fill="#16898F"/>
<path d="M42.1364 18.6187L32.5629 9.04511C31.4662 7.94844 29.6818 7.94857 28.5852 9.04511L16.5722 21.0582H13.7716C12.2207 21.0582 10.959 22.32 10.959 23.8708V37.41C10.959 38.9608 12.2207 40.2226 13.7716 40.2226H35.3112C36.8621 40.2226 38.1238 38.9608 38.1238 37.41V26.6089L42.1364 22.5963C43.2331 21.4997 43.2331 19.7154 42.1364 18.6187ZM29.9111 10.371C30.094 10.1882 30.334 10.0968 30.5741 10.0968C30.8142 10.0968 31.0542 10.1882 31.237 10.371L36.17 15.304L30.4158 21.0582H19.2238L29.9111 10.371ZM36.2488 37.41C36.2488 37.9269 35.8282 38.3475 35.3112 38.3475H13.7716C13.2546 38.3475 12.8341 37.9269 12.8341 37.41V23.8708C12.8341 23.3539 13.2546 22.9333 13.7716 22.9333H35.3112C35.8282 22.9333 36.2488 23.3539 36.2488 23.8708V37.41ZM35.6927 21.0848C35.5679 21.0678 35.4407 21.0582 35.3112 21.0582H33.0675L37.4959 16.6298L38.8218 17.9557L35.6927 21.0848ZM40.8106 21.2705L38.1238 23.9572V23.8708C38.1238 23.1582 37.8569 22.507 37.4184 22.0108L40.1477 19.2816L40.8106 19.9445C41.1762 20.3101 41.1762 20.9049 40.8106 21.2705Z" fill="white"/>
<path d="M14.7092 33.6367H18.1981V35.5118H14.7092V33.6367Z" fill="white"/>
<path d="M20.1011 33.6367H23.5899V35.5118H20.1011V33.6367Z" fill="white"/>
<path d="M25.4929 33.6367H28.9818V35.5118H25.4929V33.6367Z" fill="white"/>
<path d="M30.8848 33.6367H34.3736V35.5118H30.8848V33.6367Z" fill="white"/>
<path d="M21.0387 25.7695H14.7092V31.3948H21.0387V25.7695ZM19.1636 29.5197H16.5843V27.6446H19.1636V29.5197Z" fill="white"/>
</svg>
