<svg width="51" height="51" viewBox="0 0 51 51" fill="none" xmlns="http://www.w3.org/2000/svg">
<rect x="0.958984" y="0.222656" width="50" height="50" rx="25" fill="#4F22AF"/>
<path d="M25.959 13.2656C22.642 13.2656 19.9436 15.964 19.9436 19.281C19.9436 22.598 22.642 25.2963 25.959 25.2963C29.2759 25.2963 31.9743 22.598 31.9743 19.281C31.9743 15.964 29.2759 13.2656 25.959 13.2656ZM25.959 23.5271C23.6177 23.5271 21.7128 21.6223 21.7128 19.281C21.7128 16.9397 23.6177 15.0348 25.959 15.0348C28.3002 15.0348 30.2051 16.9397 30.2051 19.281C30.2051 21.6223 28.3002 23.5271 25.959 23.5271Z" fill="white"/>
<path d="M25.959 27.4219C20.6679 27.4219 16.5232 31.709 16.5232 37.1821H18.2924C18.2924 32.6263 21.5885 29.1911 25.959 29.1911C30.3296 29.1911 33.6257 32.6266 33.6257 37.1821H35.3949C35.3949 31.709 31.2502 27.4219 25.959 27.4219Z" fill="white"/>
</svg>
