<svg width="15" height="15" viewBox="0 0 15 15" fill="none" xmlns="http://www.w3.org/2000/svg">
<g clip-path="url(#clip0)">
<path d="M14.042 1.42105L14.0252 1.40568C13.703 1.11134 13.2853 0.949219 12.849 0.949219C12.36 0.949219 11.8905 1.15624 11.5608 1.51715L5.32681 8.34207C5.26999 8.40427 5.22689 8.47767 5.20025 8.55756L4.46722 10.7551C4.38247 11.0091 4.42501 11.2901 4.58099 11.5066C4.73821 11.7248 4.9915 11.8551 5.25859 11.8551H5.25863C5.37416 11.8551 5.48708 11.8314 5.59418 11.7845L7.71656 10.856C7.79373 10.8223 7.86295 10.7727 7.91973 10.7105L14.1537 3.88564C14.8024 3.17549 14.7524 2.06996 14.042 1.42105ZM5.87167 10.3491L6.3018 9.05965L6.33808 9.01992L7.15332 9.76454L7.11705 9.80427L5.87167 10.3491ZM13.2649 3.07373L7.96524 8.87574L7.14999 8.13112L12.4496 2.32907C12.5533 2.21558 12.6951 2.15306 12.8491 2.15306C12.9841 2.15306 13.1134 2.2033 13.2135 2.29472L13.2303 2.31009C13.4504 2.51109 13.4659 2.85366 13.2649 3.07373Z" fill="white"/>
<path d="M12.8327 6.50067C12.5003 6.50067 12.2308 6.77017 12.2308 7.10259V12.2128C12.2308 13.0569 11.5441 13.7436 10.7 13.7436H3.40478C2.56068 13.7436 1.87401 13.0569 1.87401 12.2128V4.9768C1.87401 4.13275 2.56072 3.44603 3.40478 3.44603H8.68513C9.01755 3.44603 9.28705 3.17653 9.28705 2.84411C9.28705 2.51169 9.01755 2.24219 8.68513 2.24219H3.40478C1.89688 2.24219 0.670166 3.46895 0.670166 4.9768V12.2128C0.670166 13.7206 1.89692 14.9474 3.40478 14.9474H10.7C12.2079 14.9474 13.4346 13.7206 13.4346 12.2128V7.10259C13.4347 6.77017 13.1652 6.50067 12.8327 6.50067Z" fill="white"/>
</g>
<defs>
<clipPath id="clip0">
<rect width="14" height="14" fill="white" transform="translate(0.639648 0.949219)"/>
</clipPath>
</defs>
</svg>
