<svg width="251" height="406" viewBox="0 0 251 406" fill="none" xmlns="http://www.w3.org/2000/svg">
<rect x="0.463135" width="250" height="405.439" rx="3" fill="white"/>
<rect x="18.3767" y="194.078" width="214.173" height="1" fill="#E5E5E5"/>
<rect x="18.3767" y="266.078" width="214.173" height="1" fill="#E5E5E5"/>
<rect x="18.3767" y="332.078" width="214.173" height="1" fill="#E5E5E5"/>
<circle cx="124.5" cy="56.5" r="38.5" fill="#F6F6F6"/>
<circle cx="154.5" cy="83.5" r="11.5" fill="#E7E5E5"/>
<rect x="66" y="105" width="127" height="20" fill="#F6F6F6"/>
<rect x="111" y="132" width="31" height="8" fill="#E6E5E5"/>
<rect x="66" y="147" width="127" height="8" fill="#F6F6F6"/>
<rect x="86" y="211" width="82" height="8" fill="#F6F6F6"/>
<rect x="85" y="277" width="82" height="8" fill="#F6F6F6"/>
<rect x="74" y="354" width="111" height="8" fill="#F6F6F6"/>
<rect x="62" y="230" width="131" height="20" fill="#ECECEC"/>
<rect x="61" y="296" width="131" height="20" fill="#F0F0F0"/>
<rect x="89" y="371" width="84" height="11" fill="#ECECEC"/>
<rect x="86" y="168" width="83" height="8" fill="#EFEFEF"/>
</svg>
