<svg width="751" height="553" viewBox="0 0 751 553" fill="none" xmlns="http://www.w3.org/2000/svg">
<rect y="127" width="750" height="426" rx="3" fill="white"/>
<path d="M34.5419 155.488C34.5419 157.728 33.6553 159.175 31.8819 159.828L35.4219 164.828H31.5819L28.4819 160.368H26.3219V164.828H23.2019V150.848H28.5019C30.6753 150.848 32.2219 151.215 33.1419 151.948C34.0753 152.681 34.5419 153.861 34.5419 155.488ZM28.6019 157.668C29.6686 157.668 30.3953 157.495 30.7819 157.148C31.1686 156.801 31.3619 156.255 31.3619 155.508C31.3619 154.748 31.1619 154.228 30.7619 153.948C30.3619 153.668 29.6619 153.528 28.6619 153.528H26.3219V157.668H28.6019ZM46.7532 163.268C45.5399 164.415 44.1132 164.988 42.4732 164.988C40.8465 164.988 39.4999 164.488 38.4332 163.488C37.3665 162.475 36.8332 161.121 36.8332 159.428C36.8332 157.735 37.3732 156.388 38.4532 155.388C39.5465 154.388 40.8332 153.888 42.3132 153.888C43.7932 153.888 45.0465 154.335 46.0732 155.228C47.1132 156.121 47.6332 157.348 47.6332 158.908V160.508H39.7932C39.8865 161.095 40.1932 161.575 40.7132 161.948C41.2332 162.321 41.8199 162.508 42.4732 162.508C43.5265 162.508 44.3932 162.155 45.0732 161.448L46.7532 163.268ZM44.5932 158.368C44.5265 157.728 44.2865 157.235 43.8732 156.888C43.4599 156.541 42.9532 156.368 42.3532 156.368C41.7665 156.368 41.2265 156.548 40.7332 156.908C40.2399 157.268 39.9532 157.755 39.8732 158.368H44.5932ZM53.2788 153.448V154.168H55.8788V156.328H53.2788V164.828H50.2588V156.328H48.9988V154.168H50.2588V153.508C50.2588 152.335 50.6121 151.408 51.3188 150.728C52.0388 150.035 52.9255 149.688 53.9788 149.688C55.0455 149.688 56.0121 150.088 56.8788 150.888L55.7988 152.908C55.3588 152.401 54.8721 152.148 54.3388 152.148C54.0321 152.148 53.7788 152.261 53.5788 152.488C53.3788 152.701 53.2788 153.021 53.2788 153.448ZM67.0657 163.268C65.8524 164.415 64.4257 164.988 62.7857 164.988C61.159 164.988 59.8124 164.488 58.7457 163.488C57.679 162.475 57.1457 161.121 57.1457 159.428C57.1457 157.735 57.6857 156.388 58.7657 155.388C59.859 154.388 61.1457 153.888 62.6257 153.888C64.1057 153.888 65.359 154.335 66.3857 155.228C67.4257 156.121 67.9457 157.348 67.9457 158.908V160.508H60.1057C60.199 161.095 60.5057 161.575 61.0257 161.948C61.5457 162.321 62.1324 162.508 62.7857 162.508C63.839 162.508 64.7057 162.155 65.3857 161.448L67.0657 163.268ZM64.9057 158.368C64.839 157.728 64.599 157.235 64.1857 156.888C63.7724 156.541 63.2657 156.368 62.6657 156.368C62.079 156.368 61.539 156.548 61.0457 156.908C60.5524 157.268 60.2657 157.755 60.1857 158.368H64.9057ZM75.769 156.708C74.8756 156.708 74.209 157.028 73.769 157.668C73.329 158.295 73.109 159.128 73.109 160.168V164.828H70.109V154.068H73.109V155.488C73.4956 155.048 73.9756 154.675 74.549 154.368C75.1356 154.061 75.729 153.901 76.329 153.888L76.349 156.708H75.769ZM83.9916 156.708C83.0983 156.708 82.4316 157.028 81.9916 157.668C81.5516 158.295 81.3316 159.128 81.3316 160.168V164.828H78.3316V154.068H81.3316V155.488C81.7183 155.048 82.1983 154.675 82.7716 154.368C83.3583 154.061 83.9516 153.901 84.5516 153.888L84.5716 156.708H83.9916ZM95.5966 164.828H92.7766V163.528C92.0033 164.501 91.0433 164.988 89.8966 164.988C88.7633 164.988 87.81 164.661 87.0366 164.008C86.2633 163.341 85.8766 162.461 85.8766 161.368C85.8766 160.261 86.2766 159.435 87.0766 158.888C87.8766 158.341 88.97 158.068 90.3566 158.068H92.5966V158.008C92.5966 156.861 91.99 156.288 90.7766 156.288C90.2566 156.288 89.7033 156.395 89.1166 156.608C88.5433 156.808 88.0566 157.061 87.6566 157.368L86.3166 155.428C87.73 154.401 89.3433 153.888 91.1566 153.888C92.4633 153.888 93.53 154.215 94.3566 154.868C95.1833 155.521 95.5966 156.555 95.5966 157.968V164.828ZM92.5766 160.728V160.208H90.6966C89.4966 160.208 88.8966 160.581 88.8966 161.328C88.8966 161.715 89.0366 162.015 89.3166 162.228C89.61 162.428 90.0233 162.528 90.5566 162.528C91.09 162.528 91.5566 162.368 91.9566 162.048C92.37 161.715 92.5766 161.275 92.5766 160.728ZM101.332 164.828H98.3316V149.988H101.332V164.828ZM112.271 161.488C112.271 162.541 111.878 163.388 111.091 164.028C110.318 164.668 109.331 164.988 108.131 164.988C107.331 164.988 106.498 164.848 105.631 164.568C104.765 164.275 103.985 163.848 103.291 163.288L104.611 161.408C105.731 162.275 106.925 162.708 108.191 162.708C108.578 162.708 108.885 162.635 109.111 162.488C109.338 162.328 109.451 162.121 109.451 161.868C109.451 161.615 109.291 161.381 108.971 161.168C108.665 160.955 108.211 160.755 107.611 160.568C107.025 160.381 106.571 160.221 106.251 160.088C105.945 159.955 105.591 159.761 105.191 159.508C104.378 159.001 103.971 158.255 103.971 157.268C103.971 156.268 104.371 155.455 105.171 154.828C105.971 154.201 107.005 153.888 108.271 153.888C109.538 153.888 110.805 154.315 112.071 155.168L110.951 157.168C110.018 156.528 109.085 156.208 108.151 156.208C107.231 156.208 106.771 156.461 106.771 156.968C106.771 157.248 106.918 157.468 107.211 157.628C107.505 157.788 107.991 157.975 108.671 158.188C109.351 158.401 109.831 158.568 110.111 158.688C110.405 158.795 110.751 158.968 111.151 159.208C111.898 159.661 112.271 160.421 112.271 161.488Z" fill="#323556"/>
<rect x="0.188477" y="0.101562" width="367.72" height="109.562" rx="3" fill="#E6E6E6"/>
<rect x="22.4819" y="149.203" width="129.584" height="22.9725" rx="2" fill="#F7F7F7"/>
<rect x="383.165" y="0.101562" width="367.72" height="109.562" rx="3" fill="#E6E6E6"/>
<rect x="21.9609" y="189.766" width="700" height="1" fill="#F2F2F2"/>
<rect x="21.9609" y="257.766" width="700" height="1" fill="#F2F2F2"/>
<rect x="82.6899" y="211.191" width="165.273" height="27.3594" rx="2" fill="#F7F7F7"/>
<rect x="515.027" y="212.613" width="206.935" height="22" rx="2" fill="#F7F7F7"/>
<circle cx="42.4819" cy="223.613" r="20" fill="#F5F5F5"/>
<rect x="82.6899" y="278.191" width="165.273" height="27.3594" rx="2" fill="#F7F7F7"/>
<rect x="515.027" y="279.613" width="206.935" height="22" rx="2" fill="#F7F7F7"/>
<circle cx="42.4819" cy="290.613" r="20" fill="#F5F5F5"/>
<rect x="82.6899" y="346.191" width="165.273" height="27.3594" rx="2" fill="#F7F7F7"/>
<rect x="515.027" y="347.613" width="206.935" height="22" rx="2" fill="#F7F7F7"/>
<circle cx="42.4819" cy="358.613" r="20" fill="#F5F5F5"/>
<rect x="82.6899" y="414.191" width="165.273" height="27.3594" rx="2" fill="#F7F7F7"/>
<rect x="515.027" y="415.613" width="206.935" height="22" rx="2" fill="#F7F7F7"/>
<circle cx="42.4819" cy="426.613" r="20" fill="#F5F5F5"/>
<rect x="82.6899" y="482.191" width="165.273" height="27.3594" rx="2" fill="#F7F7F7"/>
<rect x="515.027" y="483.613" width="206.935" height="22" rx="2" fill="#F7F7F7"/>
<circle cx="42.4819" cy="494.613" r="20" fill="#F5F5F5"/>
<rect x="21.9609" y="257.766" width="700" height="1" fill="#F2F2F2"/>
<rect x="21.9609" y="325.766" width="700" height="1" fill="#F2F2F2"/>
<circle cx="42.4819" cy="291.613" r="20" fill="#F5F5F5"/>
<rect x="21.9609" y="325.766" width="700" height="1" fill="#F2F2F2"/>
<circle cx="42.4819" cy="359.613" r="20" fill="#F5F5F5"/>
<circle cx="42.4819" cy="427.613" r="20" fill="#F5F5F5"/>
<circle cx="42.4819" cy="496.613" r="20" fill="#F5F5F5"/>
</svg>
