<svg width="68" height="71" viewBox="0 0 68 71" fill="none" xmlns="http://www.w3.org/2000/svg">
<path d="M59.9277 58.1235C59.9277 58.1235 61.3435 59.7989 61.4747 60.6983C61.4747 60.6983 61.5082 66.0457 53.6557 66.0039C53.6557 66.0039 46.3171 61.2205 46.4483 60.8602L48.2299 57.8359" fill="#FA6C00"/>
<path d="M54.0104 62.3462C57.3571 62.3462 60.0702 60.7909 60.0702 58.8723C60.0702 56.9537 57.3571 55.3984 54.0104 55.3984C50.6637 55.3984 47.9507 56.9537 47.9507 58.8723C47.9507 60.7909 50.6637 62.3462 54.0104 62.3462Z" fill="#F7DD02"/>
<path d="M36.9232 20.9424C38.202 21.2914 39.4698 22.3024 40.5532 23.0255C41.7374 23.8186 42.8739 24.6704 43.9909 25.5529C44.9766 26.3347 43.586 27.7087 42.6085 26.935C40.9798 25.619 39.2538 24.4277 37.4452 23.3719C36.9957 23.1149 36.3952 22.5091 35.8954 23.034C35.5993 23.344 35.6358 24.0588 35.6469 24.4302C35.7104 25.4044 35.9261 26.3627 36.2864 27.2701C37.6408 30.9731 40.6146 33.7685 43.3989 36.4269C44.3094 37.298 42.927 38.6776 42.0166 37.8092C38.3083 34.2514 34.0692 30.0962 33.7033 24.6508C33.5694 22.7435 34.6108 20.3085 36.9232 20.9424Z" fill="#FA6C00"/>
<path d="M55.482 52.4023C55.482 52.4023 55.2362 54.7452 56.0153 56.1862C56.4134 56.9447 56.867 57.6727 57.3724 58.3644C57.3724 58.3644 57.5791 60.7073 53.9181 60.7073L50.8743 58.4452C52.1961 56.7299 52.6799 54.5124 52.1924 52.4023" fill="#FEC617"/>
<path d="M50.8743 58.4397C52.1944 56.7257 52.6781 54.5106 52.1924 52.4023H53.3093C53.2368 55.1949 53.3876 58.476 55.1776 60.5983C54.7669 60.6757 54.3498 60.7131 53.932 60.7101C50.2654 60.699 50.8743 58.4397 50.8743 58.4397Z" fill="#FFA407"/>
<path d="M67.0206 29.2891V39.2639C67.0206 39.2639 66.8502 52.8969 53.974 52.8969L41.4998 39.1551V29.2891" fill="#FEC617"/>
<path d="M41.497 39.1521V29.2891H48.8693C48.8079 35.7119 49.168 42.8327 53.3373 47.9347C54.7739 49.6708 56.5186 51.127 58.4838 52.2294C57.0253 52.6886 55.503 52.9137 53.9741 52.8969C41.0949 52.8969 41.497 39.1521 41.497 39.1521Z" fill="#FFA407"/>
<path d="M54.256 36.81C61.3026 36.81 67.015 33.4431 67.015 29.2898C67.015 25.1365 61.3026 21.7695 54.256 21.7695C47.2095 21.7695 41.4971 25.1365 41.4971 29.2898C41.4971 33.4431 47.2095 36.81 54.256 36.81Z" fill="#F7DD02"/>
<path d="M53.9684 35.0423C59.846 35.0423 64.6107 32.378 64.6107 29.0915C64.6107 25.8049 59.846 23.1406 53.9684 23.1406C48.0909 23.1406 43.3262 25.8049 43.3262 29.0915C43.3262 32.378 48.0909 35.0423 53.9684 35.0423Z" fill="#FA6C00"/>
<path d="M63.8511 20.6819C64.1052 19.9978 64.3341 19.3054 64.5604 18.6072C64.8787 17.6242 65.239 16.5909 65.3311 15.5354C65.1496 15.0467 64.4932 14.6725 64.0324 14.5635C63.4518 14.424 62.8568 14.6725 62.2704 14.6614C61.5025 14.6614 60.8967 14.3457 60.1816 14.142C59.4428 13.9581 58.6665 13.9939 57.9477 14.2452C56.5513 14.6725 55.1552 14.5245 54.002 13.6115C53.3483 13.092 52.8402 12.6675 52.0164 12.4497C50.7431 12.1146 49.4278 12.352 48.5873 13.4242C47.8304 14.3905 47.6657 15.6583 48.47 16.6523C48.8776 17.1551 49.4751 17.3729 50.0784 17.5459C50.6368 17.7053 51.1674 18.0374 51.7538 18.1409H51.8182C52.3598 18.2303 52.8989 18.1995 53.4433 18.3587C54.1218 18.5596 54.7475 18.8975 55.4148 19.1349C56.2973 19.4504 57.1546 19.3276 58.0621 19.2132C59.2183 19.068 59.8298 19.4253 60.7262 20.0844L60.8881 20.196C61.5205 20.5789 62.2492 20.7727 62.9883 20.7547C63.2774 20.7549 63.5659 20.7307 63.8511 20.6819Z" fill="black"/>
<path d="M42.938 13.1407C42.7369 12.7945 42.5304 12.4231 42.3572 12.0406C42.2927 11.3538 42.2648 10.6639 42.2733 9.97399C42.3209 9.6846 42.3209 9.38943 42.2733 9.10003C42.2657 8.98824 42.2073 8.88616 42.1146 8.82287C42.022 8.75959 41.9056 8.7425 41.7987 8.77599C41.5412 8.88616 41.3645 9.12844 41.3379 9.40721C41.2933 9.63609 41.2596 9.86798 41.2289 10.0996C40.8735 9.4668 40.5647 8.80879 40.3046 8.13091C40.1288 7.70386 39.4417 7.92997 39.6205 8.36003L39.8103 8.8208C39.6378 8.56766 39.4514 8.32446 39.2519 8.09188C39.0117 7.81265 38.4366 7.99141 38.6068 8.4046C38.8378 8.96284 39.1112 9.5026 39.4251 10.0188C39.1681 9.70223 38.9214 9.37826 38.6851 9.04691C38.4059 8.66998 37.8109 9.06654 38.0818 9.44624C38.415 9.91171 38.7659 10.3632 39.1345 10.8006C38.9281 10.7029 38.7186 10.6108 38.5063 10.5214C38.079 10.3426 37.7467 10.9849 38.1767 11.1637C38.6068 11.3424 38.9895 11.524 39.3861 11.7221L39.4082 11.767C40.0281 12.8839 40.6704 13.986 41.3352 15.0732C41.5781 15.4697 42.1729 15.0732 41.9382 14.6738L41.634 14.1713C41.7444 14.141 41.8382 14.0676 41.8936 13.9673C42.0056 14.0412 42.1495 14.0468 42.2669 13.9817C42.3842 13.9165 42.4555 13.7916 42.4521 13.6574C42.5981 13.7244 42.7706 13.6906 42.8805 13.5735C42.9907 13.4567 43.0138 13.2825 42.938 13.1407Z" fill="#FFC285"/>
<path d="M40.8744 10.3191C40.4723 10.7547 40.0758 11.2769 40.2432 11.9051C40.2767 12.0308 40.4751 11.9862 40.4416 11.8578C40.2936 11.2991 40.6594 10.8497 41.0001 10.4614C41.1005 10.372 40.961 10.2353 40.8744 10.3191Z" fill="#6D320B"/>
<path d="M40.408 9.91066C40.1542 9.37945 39.9313 8.83415 39.7405 8.27707C39.7098 8.18492 39.559 8.2184 39.5925 8.31333C39.7862 8.8845 40.0128 9.44389 40.271 9.98896C40.3158 10.0728 40.4498 10 40.408 9.91066Z" fill="#6D320B"/>
<path d="M39.7127 10.2989C39.2972 9.70459 38.963 9.05743 38.7186 8.37471C38.6851 8.28256 38.5371 8.31604 38.5706 8.4112C38.8184 9.10455 39.1574 9.76187 39.5787 10.3658C39.6318 10.4524 39.7686 10.3799 39.7127 10.2989Z" fill="#6D320B"/>
<path d="M39.3747 11.0725C38.9828 10.6265 38.6356 10.1429 38.3388 9.62877C38.2885 9.54493 38.1545 9.62877 38.2046 9.70129C38.5081 10.2265 38.8627 10.7203 39.2631 11.1758C39.3301 11.2513 39.4417 11.1478 39.3747 11.0725Z" fill="#6D320B"/>
<path d="M57.3697 34.722C55.3982 35.0991 52.6225 35.4257 49.8299 34.87C48.1667 34.5229 46.5662 33.9249 45.0827 33.0969C45.0548 30.3043 45.898 27.5118 46.6325 24.8086L52.7481 26.4004C53.1558 26.4618 55.722 30.9885 57.554 34.7136H57.4925C57.4514 34.7079 57.4096 34.7106 57.3697 34.722Z" fill="#E2E2E2"/>
<path d="M52.7983 23.7332C52.4354 21.8763 51.5975 19.7623 52.2957 18.0086C52.2204 17.7658 51.5726 17.7099 51.4887 17.5871L50.3967 17.1736C48.3107 17.0912 46.3357 16.2117 44.8788 14.7162C44.0127 13.8233 43.2545 12.8318 42.6198 11.7617C41.8715 12.2033 41.2044 12.7701 40.6483 13.4374C40.3543 13.7713 40.0845 14.1258 39.8411 14.4984C40.9134 16.7325 42.9688 19.9634 46.2639 21.2005C46.2639 21.2005 46.3812 22.4319 46.4789 25.2887C46.4789 25.2887 48.9447 27.5228 52.8766 26.7352C52.8514 25.6294 52.829 24.8559 52.7983 23.7332Z" fill="#68E1FD"/>
<path d="M51.7597 17.5352C51.7597 17.5352 55.9122 21.7936 63.7534 25.7535C63.7534 25.7535 63.3122 28.2165 62.2761 29.1549C62.2761 29.1549 53.2256 25.0553 51.1426 21.3943" fill="#68E1FD"/>
<path d="M48.6347 14.5868C48.6347 14.5868 47.7635 17.1002 49.372 18.2478C49.372 18.2478 53.1614 17.0052 52.5666 14.7601C51.9719 12.5149 49.6595 12.4255 48.6347 14.5868Z" fill="#FFC285"/>
<path d="M52.779 17.9005C52.5106 17.9597 52.2309 17.8763 52.039 17.68C51.8016 17.4398 51.824 17.0991 51.8212 16.7864C51.8427 16.373 51.6427 15.9794 51.2962 15.7531C50.8745 15.4738 50.344 15.3872 49.9613 15.0355C49.9222 14.9992 49.8832 14.9599 49.8467 14.9181C49.8966 14.9643 49.9509 15.0054 50.0089 15.041C50.6315 15.4179 51.5531 15.5101 51.8434 15.6581C52.1339 15.8062 51.6704 16.9538 52.1898 17.4592C52.709 17.9648 53.935 14.8063 53.2257 13.949C52.5164 13.0919 50.1708 12.0865 49.1543 13.5106C49.182 13.6381 49.2164 13.764 49.2575 13.8876C49.2818 14.273 49.4243 14.6417 49.6654 14.9433C50.0451 15.4152 50.5953 15.5212 51.0951 15.8089C51.4161 15.9699 51.6286 16.2884 51.6535 16.6466C51.6323 16.9432 51.6644 17.2411 51.7485 17.5264C51.9344 17.9384 52.3864 18.1611 52.8264 18.0569C52.9213 18.0234 52.8739 17.8781 52.779 17.9005Z" fill="black"/>
<path d="M67.8279 29.3437C67.3223 29.0127 66.792 28.7215 66.2416 28.4723C66.6307 28.5896 67.017 28.7181 67.4006 28.8578C67.8362 29.0169 68.1126 28.3494 67.6798 28.1875C67.1418 27.9901 66.5973 27.8151 66.0462 27.6625C66.2723 27.6263 66.4959 27.5845 66.722 27.5397C67.1745 27.4447 67.0878 26.7299 66.6326 26.8221C66.1774 26.9142 65.7587 26.984 65.3173 27.0399L65.2755 27.0147C64.7598 26.7558 64.2413 26.5036 63.72 26.2578C63.5375 27.0579 63.2049 27.8159 62.7397 28.4919C63.1666 29.0081 63.5664 29.5458 63.9378 30.1031C64.0595 30.3699 64.2235 30.6152 64.4237 30.8293C64.493 30.9175 64.5992 30.969 64.7115 30.969C64.8237 30.969 64.9297 30.9175 64.999 30.8293C65.1501 30.593 65.1598 30.293 65.0242 30.0474C64.932 29.8352 64.8286 29.6229 64.7253 29.4162C65.3773 29.7423 66.0044 30.1156 66.6019 30.5332C66.9872 30.7874 67.4396 30.2149 67.0375 29.9581L66.6188 29.6788C66.9019 29.7874 67.1909 29.8807 67.4844 29.9581C67.8306 30.0641 68.202 29.5867 67.8279 29.3437Z" fill="#68E1FD"/>
<path d="M65.5042 29.1054C66.0118 29.3964 66.5022 29.7161 66.9731 30.0632C67.0514 30.1219 67.1546 30.0101 67.0763 29.9514C66.5959 29.5925 66.0952 29.2616 65.5769 28.9602C65.4903 28.9211 65.4206 29.0551 65.5042 29.1054Z" fill="#68E1FD"/>
<path d="M65.8616 28.3841C66.5402 28.6402 67.1816 28.9857 67.7689 29.4116C67.847 29.4675 67.9504 29.3557 67.8721 29.2999C67.2758 28.8652 66.624 28.5123 65.9341 28.2499C65.8392 28.222 65.7695 28.3561 65.8616 28.3841Z" fill="#68E1FD"/>
<path d="M65.6997 27.5648C66.2769 27.712 66.8381 27.9159 67.3751 28.1737C67.4645 28.2155 67.5343 28.0815 67.4449 28.0367C66.898 27.7746 66.3266 27.5669 65.7388 27.4168C65.6242 27.3916 65.6048 27.548 65.6997 27.5648Z" fill="#68E1FD"/>
<path d="M67.8279 29.3437C67.3223 29.0127 66.792 28.7215 66.2416 28.4723C66.6307 28.5896 67.017 28.7181 67.4006 28.8578C67.8362 29.0169 68.1126 28.3494 67.6798 28.1875C67.1418 27.9901 66.5973 27.8151 66.0462 27.6625C66.2723 27.6263 66.4959 27.5845 66.722 27.5397C67.1745 27.4447 67.0878 26.7299 66.6326 26.8221C66.1774 26.9142 65.7587 26.984 65.3173 27.0399L65.2755 27.0147C64.7598 26.7558 64.2413 26.5036 63.72 26.2578C63.5375 27.0579 63.2049 27.8159 62.7397 28.4919C63.1666 29.0081 63.5664 29.5458 63.9378 30.1031C64.0595 30.3699 64.2235 30.6152 64.4237 30.8293C64.493 30.9175 64.5992 30.969 64.7115 30.969C64.8237 30.969 64.9297 30.9175 64.999 30.8293C65.1501 30.593 65.1598 30.293 65.0242 30.0474C64.932 29.8352 64.8286 29.6229 64.7253 29.4162C65.3773 29.7423 66.0044 30.1156 66.6019 30.5332C66.9872 30.7874 67.4396 30.2149 67.0375 29.9581L66.6188 29.6788C66.9019 29.7874 67.1909 29.8807 67.4844 29.9581C67.8306 30.0641 68.202 29.5867 67.8279 29.3437Z" fill="#FFC285"/>
<path d="M65.5042 29.1054C66.0118 29.3964 66.5022 29.7161 66.9731 30.0632C67.0514 30.1219 67.1546 30.0101 67.0763 29.9514C66.5959 29.5925 66.0952 29.2616 65.5769 28.9602C65.4903 28.9211 65.4206 29.0551 65.5042 29.1054Z" fill="#6D320B"/>
<path d="M65.8616 28.3841C66.5402 28.6402 67.1816 28.9857 67.7689 29.4116C67.847 29.4675 67.9504 29.3557 67.8721 29.2999C67.2758 28.8652 66.624 28.5123 65.9341 28.2499C65.8392 28.222 65.7695 28.3561 65.8616 28.3841Z" fill="#6D320B"/>
<path d="M65.6997 27.5648C66.2769 27.712 66.8381 27.9159 67.3751 28.1737C67.4645 28.2155 67.5343 28.0815 67.4449 28.0367C66.898 27.7746 66.3266 27.5669 65.7388 27.4168C65.6242 27.3916 65.6048 27.548 65.6997 27.5648Z" fill="#6D320B"/>
<path d="M22.2552 12.8138C22.6071 11.9426 23.2744 10.7446 24.3888 10.8592C24.8306 10.9031 25.2078 11.1978 25.3577 11.6158C25.5531 12.1577 25.3577 12.6854 25.2376 13.2187C25.2069 13.3723 25.0422 13.9197 25.1761 14.0566C25.3103 14.1934 25.5838 13.7439 25.6956 13.5986C25.954 13.1931 26.351 12.8954 26.8125 12.7609C28.0581 12.4817 28.4098 13.9252 28.0888 14.8385C27.8766 15.4445 26.9074 15.1847 27.1197 14.5592C27.1839 14.3749 27.3375 13.9476 27.1421 13.7885C26.9467 13.6294 26.779 13.8527 26.6395 14.0008C26.4342 14.2802 26.2132 14.5477 25.9776 14.8022C25.4833 15.2295 24.7461 15.2796 24.3581 14.6904C23.9698 14.1012 24.1821 13.2942 24.3329 12.6743C24.4137 12.3448 24.5759 11.641 23.9895 11.9482C23.6236 12.1408 23.361 12.7272 23.2187 13.082C22.9868 13.6853 22.015 13.4254 22.2552 12.8138Z" fill="#E54B5D"/>
<path d="M0.653846 32.6732C1.0056 31.802 1.67308 30.604 2.78725 30.7186C3.22931 30.7625 3.60647 31.0572 3.75613 31.4752C3.95176 32.0171 3.75613 32.5448 3.63603 33.0781C3.60531 33.2317 3.44064 33.7791 3.5746 33.9158C3.70879 34.0528 3.98248 33.6031 4.09403 33.458C4.35248 33.0525 4.7495 32.7547 5.2112 32.6201C6.45655 32.3409 6.80853 33.7846 6.48726 34.6978C6.27501 35.3039 5.30612 35.044 5.51838 34.4186C5.58258 34.2343 5.73617 33.807 5.54055 33.6479C5.34515 33.4887 5.17771 33.7121 5.03797 33.8601C4.83265 34.1396 4.61185 34.4071 4.37604 34.6616C3.88178 35.0889 3.14454 35.139 2.75653 34.5498C2.36828 33.9606 2.58053 33.1536 2.73135 32.5337C2.81242 32.2041 2.97433 31.5004 2.38791 31.8076C2.02207 32.0002 1.75946 32.5866 1.61719 32.9414C1.3853 33.5444 0.413645 33.2848 0.653846 32.6732Z" fill="#E54B5D"/>
<path d="M15.4734 0.914062C17.0904 0.914062 17.0932 3.4274 15.4734 3.4274C13.8537 3.4274 13.8509 0.914062 15.4734 0.914062Z" fill="#68E1FD"/>
<path d="M27.2667 27.5858C28.0764 26.7479 29.3555 28.027 28.5455 28.8647C27.1597 30.2888 26.6675 32.3587 27.2639 34.2542C27.6018 35.3713 25.8675 35.8487 25.5185 34.7346C24.7566 32.2111 25.4261 29.4728 27.2667 27.5858Z" fill="#22B573"/>
<path d="M11.7569 55.1873C12.5666 54.3496 13.8457 55.6286 13.0357 56.4663C11.6502 57.8904 11.1578 59.9603 11.7541 61.8558C12.092 62.9728 10.3577 63.4504 10.0087 62.3362C9.24679 59.8127 9.91635 57.0745 11.7569 55.1873Z" fill="#22B573"/>
<path d="M29.1737 46.3999C29.4121 46.1687 29.7297 46.0368 30.0618 46.0312H30.2124C30.5447 46.0356 30.8628 46.1678 31.1004 46.3999C31.5905 46.8904 31.5905 47.6854 31.1004 48.176C30.8621 48.4072 30.5445 48.539 30.2124 48.5446H30.0618C29.7294 48.5402 29.4114 48.4081 29.1737 48.176C28.6836 47.6854 28.6836 46.8904 29.1737 46.3999Z" fill="#FEC617"/>
<path d="M24.2456 67.7124C24.4842 67.4809 24.8015 67.3493 25.1336 67.3438H25.2844C25.6168 67.3481 25.9348 67.48 26.1725 67.7124C26.6626 68.2029 26.6626 68.9977 26.1725 69.4882C25.9341 69.7194 25.6166 69.8513 25.2844 69.8569H25.1336C24.8013 69.8525 24.4835 69.7206 24.2456 69.4882C23.7557 68.9977 23.7557 68.2029 24.2456 67.7124Z" fill="#E54B5D"/>
<path d="M13.2943 23.5092C13.5327 23.278 13.8503 23.1462 14.1824 23.1406H14.333C14.6653 23.145 14.9834 23.2771 15.221 23.5092C15.7111 23.9998 15.7111 24.7948 15.221 25.2853C14.9827 25.5165 14.6651 25.6484 14.333 25.654H14.1824C13.85 25.6496 13.532 25.5175 13.2943 25.2853C12.8042 24.7948 12.8042 23.9998 13.2943 23.5092Z" fill="#E54B5D"/>
<path d="M54.3405 4.9233C54.5791 4.69211 54.8965 4.56023 55.2286 4.55469H55.3794C55.7118 4.55908 56.0296 4.69119 56.2675 4.9233C56.7576 5.41387 56.7576 6.20884 56.2675 6.6994C56.0291 6.9306 55.7115 7.06248 55.3794 7.06802H55.2286C54.8962 7.06363 54.5784 6.93152 54.3405 6.6994C53.8507 6.20884 53.8507 5.41387 54.3405 4.9233Z" fill="#E54B5D"/>
<path d="M27.462 53.8351L31.0364 50.7996C31.5344 50.3272 32.3148 50.3272 32.8125 50.7996C33.2622 51.2492 33.3319 52.1343 32.8125 52.5757L29.2381 55.611C28.7402 56.0833 27.9598 56.0833 27.462 55.611C27.0123 55.1615 26.9426 54.2762 27.462 53.8351Z" fill="#68E1FD"/>
<path d="M5.78259 49.421L9.35696 46.3855C9.85492 45.9132 10.6353 45.9132 11.1331 46.3855C11.5827 46.8349 11.6525 47.7202 11.1331 48.1616L7.55869 51.1969C7.06074 51.6692 6.28031 51.6692 5.78259 51.1969C5.33291 50.7474 5.26316 49.8622 5.78259 49.421Z" fill="#68E1FD"/>
<path d="M13.9038 41.2626C14.0518 41.3436 14.426 41.3827 14.3031 41.1452C14.2613 41.0644 14.1077 41.0085 14.0239 40.9609C13.8015 40.83 13.6024 40.663 13.4347 40.4667C13.1109 40.0971 13.0922 39.5507 13.3901 39.1599C13.7195 38.7495 14.2669 38.6712 14.7583 38.6321C14.9537 38.6153 15.4034 38.6515 15.5401 38.47C15.7748 38.1628 15.3337 37.8614 15.0907 37.7637C14.4512 37.5039 14.7304 36.4512 15.3699 36.7135C16.1351 37.0235 16.8499 37.6716 16.6545 38.5873C16.4395 39.5899 15.4621 39.6206 14.6438 39.7267C14.1412 39.7909 14.3645 39.8775 14.6438 40.0618C14.8177 40.1692 14.9805 40.2937 15.1297 40.4332C15.4097 40.7117 15.524 41.1161 15.4314 41.5C15.1828 42.4188 14.0825 42.6003 13.3453 42.201C12.731 41.8686 13.2811 40.9274 13.9038 41.2626Z" fill="#68E1FD"/>
<path d="M64.2373 57.7936C64.3853 57.8747 64.7595 57.9137 64.6366 57.6766C64.5948 57.5955 64.4412 57.5396 64.3574 57.4922C64.135 57.3611 63.9359 57.1941 63.7682 56.998C63.4444 56.6282 63.4257 56.0818 63.7234 55.691C64.053 55.2805 64.6003 55.2023 65.0918 55.1632C65.2872 55.1464 65.7369 55.1829 65.8736 55.0013C66.1083 54.6941 65.6669 54.3925 65.424 54.2948C64.7847 54.035 65.0639 52.9822 65.7034 53.2448C66.4684 53.5548 67.1834 54.2026 66.9878 55.1186C66.7728 56.121 65.7956 56.1517 64.9773 56.258C64.4747 56.3222 64.698 56.4086 64.9773 56.5929C65.1512 56.7003 65.314 56.8248 65.4632 56.9645C65.7429 57.243 65.8572 57.6472 65.7649 58.0311C65.5161 58.9498 64.416 59.1314 63.6788 58.7321C63.0644 58.3997 63.6146 57.4588 64.2373 57.7936Z" fill="#68E1FD"/>
<path d="M41.0111 35.8427L33.8344 66.1665C33.6614 66.8954 34.7867 67.2081 34.9514 66.4764L42.1366 36.1527C42.3098 35.4237 41.1844 35.111 41.0197 35.8427H41.0111Z" fill="#373EA6"/>
<path d="M47.7521 39.4315L40.5754 69.7552C40.4024 70.4841 41.5277 70.7969 41.6923 70.0652L48.8693 39.7386C49.0422 39.0097 47.917 38.697 47.7521 39.4285V39.4315Z" fill="#373EA6"/>
<path d="M40.2656 40.6258L46.9984 44.3875C47.6546 44.7531 48.2438 43.748 47.5876 43.3794L40.8521 39.6179C40.1959 39.2521 39.6067 40.2572 40.2629 40.6258H40.2656Z" fill="#373EA6"/>
<path d="M39.5617 44.8369L46.0208 48.4448C46.677 48.8106 47.2664 47.8055 46.61 47.4369L40.1509 43.8288C39.4947 43.4632 38.9055 44.4683 39.5617 44.8369Z" fill="#373EA6"/>
<path d="M38.7799 48.2504L45.239 51.8417C45.8952 52.2075 46.4844 51.2021 45.8282 50.8335L39.3774 47.2312C38.7213 46.8653 38.1321 47.8707 38.7883 48.2393L38.7799 48.2504Z" fill="#373EA6"/>
<path d="M37.7663 51.9268L44.1584 55.4984C44.8146 55.8643 45.4038 54.8589 44.7476 54.4903L38.3555 50.9187C37.6993 50.5528 37.1101 51.5582 37.7663 51.9268Z" fill="#373EA6"/>
<path d="M36.8867 55.2901L43.2843 58.8673C43.9407 59.2331 44.5299 58.2277 43.8735 57.8591L37.4675 54.282C36.8114 53.9161 36.2222 54.9215 36.8784 55.2901H36.8867Z" fill="#373EA6"/>
<path d="M35.9093 59.1925L42.6446 62.9539C43.301 63.3198 43.8902 62.3144 43.234 61.9458L36.4984 58.1843C35.8421 57.8185 35.2529 58.8239 35.9093 59.1925Z" fill="#373EA6"/>
</svg>
