<svg width="70" height="70" viewBox="0 0 70 70" fill="none" xmlns="http://www.w3.org/2000/svg">
<path d="M14.7205 45.2383V52.445H26.3829V45.2383" fill="#68E1FD"/>
<path d="M20.5516 48.1054C23.7721 48.1054 26.3828 46.8217 26.3828 45.2382C26.3828 43.6548 23.7721 42.3711 20.5516 42.3711C17.3312 42.3711 14.7205 43.6548 14.7205 45.2382C14.7205 46.8217 17.3312 48.1054 20.5516 48.1054Z" fill="#68E1FD"/>
<g opacity="0.73">
<path opacity="0.73" d="M20.5516 48.1054C23.7721 48.1054 26.3828 46.8217 26.3828 45.2382C26.3828 43.6548 23.7721 42.3711 20.5516 42.3711C17.3312 42.3711 14.7205 43.6548 14.7205 45.2382C14.7205 46.8217 17.3312 48.1054 20.5516 48.1054Z" fill="black"/>
</g>
<path d="M20.5516 55.5937C23.7721 55.5937 26.3828 54.31 26.3828 52.7265C26.3828 51.143 23.7721 49.8594 20.5516 49.8594C17.3312 49.8594 14.7205 51.143 14.7205 52.7265C14.7205 54.31 17.3312 55.5937 20.5516 55.5937Z" fill="#68E1FD"/>
<path d="M27.0801 28.4827C25.85 27.9984 24.1452 26.3033 22.6583 26.3567C22.1677 27.7852 21.865 29.2717 21.7576 30.7785C21.4742 33.2299 21.4174 35.7024 21.588 38.1642C21.6236 38.7131 21.6688 39.2604 21.7236 39.8061C21.7356 39.9745 21.78 40.1389 21.8543 40.2904C21.8543 42.1922 21.8543 44.0939 21.8543 45.9957C21.8543 46.0959 21.9356 46.1772 22.0361 46.1772C22.1363 46.1772 22.2176 46.0959 22.2176 45.9957C22.2176 44.1649 22.2176 42.3358 22.2176 40.5082C22.802 40.3161 23.3627 40.0576 23.8884 39.7382C24.9843 39.0511 25.813 38.0106 26.2375 36.7888C27.1771 34.1685 26.5861 31.2434 27.4773 28.6522C27.3369 28.5843 27.206 28.5361 27.0801 28.4827Z" fill="#297600"/>
<path d="M24.557 24.19C23.8607 24.6009 23.2856 25.1892 22.8911 25.8948C22.7885 26.0474 22.7008 26.2098 22.6294 26.3791L22.5811 26.4907C22.4687 26.7863 22.3749 27.0889 22.3 27.3963C22.4421 27.1658 22.662 26.9937 22.92 26.9119C23.2251 26.7791 23.5648 26.7484 23.8886 26.8249C24.2048 26.9484 24.5041 27.1113 24.7799 27.3092C25.1963 27.5609 25.5984 27.8418 26.0051 28.1035C27.9425 29.3287 30.5094 29.4546 32.0009 27.6674C32.0009 27.5949 32.0397 27.527 32.0494 27.4545C32.2769 26.2338 28.8287 21.7056 24.557 24.19Z" fill="#5FAD00"/>
<path d="M31.1534 28.4322L31.3954 28.2723C31.4026 28.2206 31.3846 28.1684 31.3469 28.1319C30.1799 26.9309 28.9255 25.7588 27.3272 25.168C26.1835 24.7333 24.9449 24.6111 23.7383 24.8144C23.6076 24.9645 23.4914 25.1243 23.3752 25.2987C24.7497 24.9398 26.2055 25.061 27.5016 25.6426C28.9109 26.2431 30.0346 27.3231 31.0903 28.4081C31.1095 28.4201 31.131 28.4285 31.1534 28.4322Z" fill="#297600"/>
<path d="M11.5821 31.043C9.86009 31.9403 8.836 33.775 8.97643 35.7116C9.11223 39.1504 14.7884 35.7941 16.2896 32.8881C17.7911 29.9824 18.0283 34.1279 18.0283 34.1279" fill="#297600"/>
<path d="M16.682 29.8414C15.618 29.8227 14.5576 29.9698 13.5389 30.2773C12.8612 30.4426 12.2092 30.6999 11.6016 31.0424C11.9579 31.2806 12.3376 31.482 12.7349 31.6429C13.4749 31.8628 14.1197 32.3252 14.5655 32.9555C14.6565 33.1199 14.7297 33.2936 14.7835 33.4738C15.1274 34.6069 14.832 35.9776 15.297 37.1158C15.7619 38.2538 16.7111 39.2564 18.0526 39.3388C19.6508 39.4356 20.3821 37.8858 20.6971 36.5733C21.0119 35.2607 21.4429 33.435 20.9391 32.0691C20.3289 30.4854 18.193 29.9139 16.682 29.8414Z" fill="#5FAD00"/>
<path d="M18.784 35.2058C18.1156 33.031 16.6917 30.9824 14.614 30.0234H14.5364L14.4396 30.0525L14.0618 30.1495C16.4834 31.0503 18.0043 33.438 18.6291 35.8788C19.4233 39.0028 19.1568 42.3832 19.1617 45.5651C19.1755 45.6467 19.2462 45.7062 19.3289 45.7062C19.4113 45.7062 19.482 45.6467 19.4959 45.5651C19.4862 42.1702 19.8058 38.5185 18.784 35.2058Z" fill="#297600"/>
<path d="M22.199 57.1472L43.8928 69.42L69.2262 54.6652V44.7461L43.8928 59.4981L22.199 47.1001V57.1472Z" fill="#464646"/>
<path d="M22.199 47.0984L48.0162 32.2852L69.2262 44.7444L43.8928 59.4965L22.199 47.0984Z" fill="#5B5B5B"/>
<path d="M43.8928 59.4981V69.42L69.2262 54.6652V44.7461L43.8928 59.4981Z" fill="#2D2D2D"/>
<path d="M37.8801 18.0117V34.8727L59.6158 44.7472L69.2261 34.7392V24.7089" fill="#D9B720"/>
<g opacity="0.15">
<path opacity="0.15" d="M37.8801 18.0117V34.8727L59.3934 44.6472V30.5128" fill="black"/>
</g>
<path d="M59.3934 30.5127L69.2261 24.7088L47.7826 12.3828L37.8801 18.0116L59.3934 30.5127Z" fill="#FFD200"/>
<path d="M28.0503 33.8555V43.7635L49.7859 56.1311L59.3935 50.5831V40.5527" fill="#DB6A44"/>
<path d="M49.5633 46.3576L59.3935 40.5535L37.9526 28.2305L28.0503 33.8563L49.5633 46.3576Z" fill="#E87E5B"/>
<path d="M49.5632 46.3575V56.1319L69.2262 44.7463V34.7383L49.5632 46.3575Z" fill="#D45D35"/>
<g opacity="0.63">
<path opacity="0.63" d="M43.7483 39.0621C45.3842 37.9826 45.2034 38.5362 46.7254 37.4177C45.7628 36.9142 42.8718 35.1083 42.2736 34.7383L38.8457 36.0739L41.9064 37.863C41.9565 37.8547 43.7204 39.0621 43.7483 39.0621Z" fill="url(#paint0_linear)"/>
</g>
<g opacity="0.63">
<path opacity="0.63" d="M53.7255 27.1676C55.3617 26.0881 55.1808 26.6417 56.7026 25.5231C55.74 25.0196 52.8493 23.214 52.2511 22.8438L48.8342 24.1711L51.8949 25.9601C51.9227 25.9712 53.7006 27.1676 53.7255 27.1676Z" fill="url(#paint1_linear)"/>
</g>
<path d="M43.0832 9.52734L41.7393 16.7059L45.6818 12.1901" fill="#FFEDE1"/>
<path d="M52.7574 22.681C52.432 22.5808 51.0324 22.6586 51.0324 22.6586C51.0324 22.6586 50.9294 20.7724 50.9629 20.7109H49.5718C49.5718 20.7109 49.1403 23.4795 49.1126 23.755C49.0597 24.2613 49.669 24.4839 49.8083 24.4784C49.9101 24.4551 50.0104 24.4253 50.1088 24.3892C50.0831 24.1236 50.0831 23.8564 50.1088 23.5908C50.1282 23.4712 50.1614 23.3876 50.2841 23.3543C50.5037 23.2959 50.885 23.4518 51.0964 23.5157C51.3079 23.5797 51.5945 23.677 51.8449 23.7495C52.4403 23.5102 52.9577 23.2737 52.9995 23.1624C53.1274 22.8868 53.2526 22.8339 52.7574 22.681Z" fill="#FFB3A6"/>
<path d="M53.222 22.8175L53.1913 22.7757C53.0941 22.6589 52.8047 22.6367 52.6684 22.6201C52.1205 22.5665 51.5685 22.5794 51.0239 22.6589C51.0239 22.6589 52.3427 22.6173 52.3679 22.8566C52.3908 23.0508 52.3208 23.2448 52.1785 23.3795C51.5831 23.8051 50.7874 23.1848 50.2895 22.9009L49.3518 22.375L49.2042 23.1681C49.1324 23.53 49.094 23.898 49.0901 24.267C49.1457 24.3867 49.6968 24.7539 49.8248 24.704C49.9527 24.6539 50.3618 24.4647 50.3618 24.4647L50.3867 23.4908C50.3867 23.4908 51.163 23.9278 51.5554 23.8666C51.8531 23.8303 53.5114 23.3072 53.222 22.8175Z" fill="#56403D"/>
<path d="M48.5172 18.7134L48.4059 20.8614C49.4487 21.3457 50.622 21.4739 51.7447 21.2258C51.9784 19.9904 52.4152 17.5281 52.368 16.7017C52.3041 15.5887 52.5403 14.412 51.0407 13.6773C49.8917 13.1209 46.3804 14.4732 46.3804 14.4732L43.74 18.9776C47.1289 20.3216 48.5172 18.7134 48.5172 18.7134Z" fill="#999A1C"/>
<path d="M41.731 34.6231C41.5167 34.5231 41.1968 34.4284 41.0605 34.2141C40.9601 33.9681 40.9367 33.6974 40.9936 33.4378C41.0122 33.1912 41.0373 32.9454 41.0688 32.7006C41.0437 32.6756 41.0305 32.6412 41.0326 32.6059C41.0414 32.4054 41.0635 32.2054 41.0993 32.0077L40.1004 31.8047C40.1004 31.8047 39.4717 33.4741 39.4801 33.6799C39.4801 33.6799 40.3148 35.2881 40.7878 35.4273C40.7878 35.4273 42.6659 35.2825 42.7967 35.11V35.0934C42.4461 34.9432 42.0844 34.7873 41.731 34.6231Z" fill="#FFB3A6"/>
<path d="M40.4123 33.8006C40.4123 33.8006 40.7657 35.5034 40.9465 35.6314C40.9465 35.6314 43.2197 35.3254 42.958 34.908C42.7912 34.6297 41.5669 34.5156 41.4639 34.474C41.4639 34.474 42.0845 34.7521 42.0734 34.8551C42.0621 34.9581 41.2135 35.2475 41.1803 35.1667C41.1468 35.0861 40.4151 33.5502 40.4151 33.5502L39.6164 33.1719L38.7817 34.6159L39.3384 34.9246C39.3384 34.9246 39.4663 35.4032 39.5275 35.4087C39.7539 35.1595 39.9613 34.8935 40.1479 34.6131C40.1636 34.8263 40.2095 35.0362 40.2841 35.2364C40.3594 35.3032 40.9743 35.9291 41.3276 35.5369L40.8269 34.8413" fill="#56403D"/>
<path d="M46.1884 17.919C46.8339 15.8073 46.8505 16.1828 47.2734 14.4411L43.0498 13.3281C40.8963 16.5558 38.8958 32.1425 38.8958 32.1425C38.8958 32.1425 40.9797 33.8119 42.7912 33.3054C42.7912 33.3054 45.2313 20.4482 45.2368 20.4344C45.5819 19.5634 45.5957 19.3964 46.1884 17.919Z" fill="#999A1C"/>
<path d="M45.5233 19.675C45.5233 19.675 44.3851 19.4941 43.7537 18.9766L43.5227 28.637L45.5233 19.675Z" fill="#7A770E"/>
<path d="M45.2117 7.82745C45.2117 7.82745 42.8746 2.56313 42.6076 2.22384C42.6076 2.22384 42.9274 0.175901 42.5602 0.195532L41.7532 1.06626C41.7532 1.06626 40.145 -0.096635 39.572 0.265052L41.3694 3.02782L43.3392 9.54974" fill="#FFB3A6"/>
<path d="M49.3044 6.75567C49.3044 6.75567 54.6272 4.54928 55.0529 4.48808C55.0529 4.48808 56.2296 2.78242 56.4858 3.05241L56.4691 4.24049C56.4691 4.24049 58.4335 4.51856 58.603 5.16133L55.3949 5.92651L49.4714 9.29879" fill="#FFB3A6"/>
<path d="M45.2895 6.19139L43.5199 4.625L42.3457 8.46752L43.8176 10.6266" fill="#B05800"/>
<path d="M48.0525 7.14043H47.8883C47.0397 7.14043 46.102 5.98862 46.102 5.98862C46.102 5.98862 45.8015 3.32863 44.2908 5.47103C43.1778 7.0626 42.8718 11.5645 42.7939 13.743C43.3977 14.1882 44.185 14.3384 44.9195 14.422C45.4075 14.4862 45.8997 14.5102 46.3914 14.4943C46.694 14.4813 46.9905 14.4054 47.2624 14.2716L47.8938 10.752C47.8857 9.54637 47.9386 8.34097 48.0525 7.14043Z" fill="#B05800"/>
<path d="M47.1648 3.09375C47.1648 3.09375 48.6116 5.12206 47.5739 5.87615C47.5739 5.87615 45.5065 5.75374 45.3758 5.50615C45.2451 5.25856 44.9668 3.24411 47.1648 3.09375Z" fill="#FFB3A6"/>
<path d="M47.1927 2.75038C46.5587 2.45821 45.8289 2.45821 45.1949 2.75038C44.6401 2.93769 44.1549 3.28875 43.8038 3.7576C43.6442 3.67884 43.4662 3.64512 43.289 3.66014C42.8479 3.68901 42.4758 3.99919 42.3682 4.42809C42.2839 4.82788 42.4855 5.23322 42.855 5.40737C43.128 5.50252 43.4274 5.48751 43.6897 5.36579V5.41568C43.7842 5.82194 43.4114 6.08639 43.3225 6.4564C43.2671 6.62546 43.2671 6.80769 43.3225 6.97675C43.3865 7.14351 43.6006 7.30495 43.6006 7.47748C43.5906 7.61721 43.5456 7.75209 43.4698 7.86989C43.4054 8.00084 43.3569 8.13919 43.3253 8.28169C44.2071 8.60712 45.2312 8.46253 46.1074 8.15351C47.0618 7.84517 47.8905 7.23613 48.4697 6.41736C48.4173 6.33283 48.3471 6.26077 48.2639 6.20603C48.097 6.12404 47.9214 6.06076 47.7408 6.01664C47.4791 5.91109 47.6713 5.46026 47.6295 5.22375C47.56 4.83158 47.2512 4.70917 46.9061 4.62002C46.6585 4.55604 46.6278 4.41423 46.5915 4.17195C46.5454 3.98741 46.5581 3.79271 46.6278 3.61556C46.7001 3.61533 46.7701 3.58969 46.8253 3.54327C46.9368 3.45296 47.0592 3.37721 47.19 3.31785C47.3237 3.24741 47.3768 3.08319 47.3096 2.94785C47.3084 2.86586 47.2639 2.79079 47.1927 2.75038Z" fill="#56403D"/>
<path d="M46.4608 3.74615C46.8186 3.61496 47.1581 3.43804 47.4708 3.22025C47.4708 3.18422 47.3846 1.80699 45.0334 2.61928C42.6825 3.43181 44.235 6.16132 44.235 6.16132" fill="#56403D"/>
<path d="M46.9812 6.15951C46.9812 6.15951 50.5983 5.66709 51.3967 5.77264L51.6249 8.49939L46.9812 11.24" fill="#B05800"/>
<path d="M14.5662 15.7125C14.9182 14.8413 15.5854 13.6433 16.6996 13.7576C17.1417 13.8017 17.5188 14.0962 17.6687 14.5145C17.8641 15.0563 17.6687 15.5841 17.5486 16.1174C17.5179 16.2709 17.3532 16.8183 17.4872 16.9551C17.6211 17.092 17.8948 16.6423 18.0066 16.4971C18.2651 16.0917 18.6621 15.794 19.1235 15.6594C20.3691 15.3801 20.7209 16.8239 20.3998 17.7371C20.1876 18.3429 19.2185 18.0833 19.4307 17.4579C19.4949 17.2735 19.6485 16.8463 19.4531 16.6871C19.2577 16.5278 19.09 16.7513 18.9505 16.8992C18.7452 17.1786 18.5242 17.4463 18.2886 17.7008C17.7944 18.1279 17.0571 18.1782 16.6689 17.589C16.2809 16.9999 16.4931 16.1929 16.6439 15.5727C16.7248 15.2434 16.8867 14.5396 16.3003 14.8468C15.9346 15.0395 15.672 15.6259 15.5295 15.9806C15.2979 16.5837 14.326 16.3241 14.5662 15.7125Z" fill="#E54B5D"/>
<path d="M13.4649 20.3084C14.2746 19.4707 15.5537 20.7495 14.7437 21.5872C13.3582 23.0116 12.8658 25.0812 13.4621 26.9767C13.8 28.0939 12.0657 28.5713 11.7167 27.4571C10.9548 24.9336 11.6244 22.1954 13.4649 20.3084Z" fill="#22B573"/>
<path d="M8.00039 55.9624C8.23874 55.7312 8.55632 55.5993 8.88844 55.5938H9.03903C9.37138 55.5981 9.68942 55.7302 9.92708 55.9624C10.4172 56.4529 10.4172 57.2477 9.92708 57.7385C9.68872 57.9696 9.37115 58.1015 9.03903 58.1071H8.88844C8.55608 58.1025 8.23805 57.9706 8.00039 57.7385C7.51029 57.2477 7.51029 56.4529 8.00039 55.9624Z" fill="#FEC617"/>
<path d="M24.5084 6.51315C24.7468 6.28195 25.0644 6.15007 25.3965 6.14453H25.5471C25.8794 6.14892 26.1975 6.28103 26.4351 6.51315C26.9252 7.00371 26.9252 7.79845 26.4351 8.28925C26.1968 8.52044 25.8792 8.65232 25.5471 8.65786H25.3965C25.0641 8.65324 24.7461 8.52137 24.5084 8.28925C24.0183 7.79845 24.0183 7.00371 24.5084 6.51315Z" fill="#FEC617"/>
<path d="M0.712303 19.146C0.950656 18.9148 1.26823 18.7829 1.60035 18.7773H1.75117C2.08353 18.7817 2.40133 18.9136 2.63899 19.146C3.12909 19.6365 3.12909 20.4313 2.63899 20.9221C2.40064 21.1533 2.08306 21.2849 1.75117 21.2907H1.60035C1.268 21.2861 0.949964 21.1542 0.712303 20.9221C0.222201 20.4313 0.222201 19.6365 0.712303 19.146Z" fill="#E54B5D"/>
<path d="M60.1428 12.8999C60.3811 12.6687 60.6987 12.5368 61.0308 12.5312H61.1817C61.514 12.5356 61.8318 12.6677 62.0697 12.8999C62.5596 13.3904 62.5596 14.1854 62.0697 14.676C61.8313 14.9072 61.5138 15.039 61.1817 15.0446H61.0308C60.6985 15.0402 60.3807 14.9081 60.1428 14.676C59.6529 14.1854 59.6529 13.3904 60.1428 12.8999Z" fill="#E54B5D"/>
<path d="M2.12894 5.18252L5.70331 2.14721C6.20127 1.67489 6.98169 1.67489 7.47942 2.14721C7.9291 2.59666 7.99885 3.48194 7.47942 3.92331L3.90504 6.95862C3.40732 7.43093 2.62667 7.43093 2.12894 6.95862C1.67949 6.50916 1.60951 5.62388 2.12894 5.18252Z" fill="#68E1FD"/>
<path d="M6.65451 44.618C6.80256 44.6991 7.17672 44.7381 7.05385 44.5007C7.01181 44.4199 6.85822 44.364 6.77461 44.3164C6.5522 44.1854 6.35311 44.0182 6.18543 43.8221C5.86162 43.4526 5.84291 42.9061 6.14062 42.5154C6.4702 42.1047 7.01758 42.0266 7.50907 41.9876C7.70447 41.9707 8.15392 42.007 8.29088 41.8255C8.52554 41.5183 8.08417 41.2169 7.8412 41.119C7.20189 40.8594 7.48113 39.8066 8.12043 40.069C8.88561 40.3789 9.60067 41.0268 9.40504 41.9428C9.19002 42.9454 8.21258 42.9761 7.39452 43.0821C6.89171 43.1463 7.11528 43.233 7.39452 43.4173C7.56843 43.5247 7.73126 43.6489 7.88046 43.7886C8.16016 44.0672 8.27448 44.4716 8.18187 44.8555C7.93335 45.7742 6.83328 45.9558 6.09604 45.5564C5.48168 45.2241 6.03184 44.2829 6.65451 44.618Z" fill="#68E1FD"/>
<path d="M3.26665 54.9726C4.0764 54.1346 5.35547 55.4137 4.54572 56.2514C3.15995 57.6757 2.66776 59.7454 3.26388 61.6409C3.60178 62.7581 1.86771 63.2355 1.5185 62.1213C0.756551 59.5978 1.42611 56.8595 3.26665 54.9726Z" fill="#22B573"/>
<path d="M28.7719 20.5048C28.92 20.5858 29.2941 20.6249 29.1713 20.3874C29.1295 20.3064 28.9759 20.2507 28.892 20.2031C28.6696 20.0719 28.4705 19.9049 28.3029 19.7089C27.979 19.3393 27.9603 18.7929 28.2583 18.4021C28.5876 17.9914 29.135 17.9134 29.6265 17.8741C29.8219 17.8575 30.2716 17.8937 30.4083 17.7122C30.643 17.405 30.2018 17.1034 29.9589 17.0057C29.3193 16.7461 29.5986 15.6933 30.2381 15.9557C31.0033 16.2657 31.7181 16.9135 31.5227 17.8295C31.3077 18.8321 30.3302 18.8628 29.5119 18.9689C29.0094 19.0331 29.2327 19.1197 29.5119 19.304C29.6859 19.4114 29.8487 19.5356 29.9979 19.6754C30.2778 19.9539 30.3921 20.3583 30.2995 20.7422C30.051 21.6607 28.9507 21.8423 28.2135 21.4429C27.5991 21.1108 28.1493 20.1696 28.7719 20.5048Z" fill="#68E1FD"/>
<defs>
<linearGradient id="paint0_linear" x1="38.8457" y1="36.9002" x2="41.5956" y2="41.6087" gradientUnits="userSpaceOnUse">
<stop offset="1" stop-color="#FFB47E" stop-opacity="0.86313"/>
</linearGradient>
<linearGradient id="paint1_linear" x1="48.8342" y1="25.0057" x2="51.5782" y2="29.7105" gradientUnits="userSpaceOnUse">
<stop offset="1" stop-color="#FFB47E" stop-opacity="0.863315"/>
</linearGradient>
</defs>
</svg>
