<svg width="11" height="21" viewBox="0 0 11 21" fill="none" xmlns="http://www.w3.org/2000/svg">
<path fill-rule="evenodd" clip-rule="evenodd" d="M0.405343 0.868722C0.474993 0.798895 0.557736 0.743495 0.64883 0.705695C0.739924 0.667895 0.837581 0.648438 0.936207 0.648438C1.03483 0.648438 1.13249 0.667895 1.22358 0.705695C1.31468 0.743495 1.39742 0.798895 1.46707 0.868722L10.4648 9.86642C10.5346 9.93608 10.59 10.0188 10.6278 10.1099C10.6656 10.201 10.6851 10.2987 10.6851 10.3973C10.6851 10.4959 10.6656 10.5936 10.6278 10.6847C10.59 10.7758 10.5346 10.8585 10.4648 10.9282L1.46707 19.9259C1.32628 20.0667 1.13532 20.1457 0.936207 20.1457C0.737094 20.1457 0.546137 20.0667 0.405343 19.9259C0.264549 19.7851 0.185451 19.5941 0.185451 19.395C0.185451 19.1959 0.264549 19.0049 0.405343 18.8641L8.87368 10.3973L0.405343 1.93045C0.335516 1.8608 0.280115 1.77806 0.242315 1.68696C0.204515 1.59587 0.185059 1.49821 0.185059 1.39959C0.185059 1.30096 0.204515 1.2033 0.242315 1.11221C0.280115 1.02112 0.335516 0.938373 0.405343 0.868722Z" fill="#7E8494"/>
</svg>
