<svg width="27" height="27" viewBox="0 0 27 27" fill="none" xmlns="http://www.w3.org/2000/svg">
<rect x="0.575195" y="0.359375" width="25.793" height="25.793" rx="12.8965" fill="#7E8494"/>
<path d="M13.5106 16.5423C13.4197 16.5423 13.3288 16.5073 13.2595 16.438L10.2868 13.4653C10.1538 13.3323 10.1476 13.1182 10.2729 12.978L12.5009 10.4824C14.0791 8.63558 16.6404 7.42968 18.9002 7.47796C19.0897 7.48259 19.2427 7.63514 19.2468 7.82465C19.2992 10.0721 18.0892 12.6462 16.2362 14.2291L13.7463 16.4519C13.6796 16.5124 13.5948 16.5423 13.5106 16.5423Z" fill="#7E8494"/>
<path d="M12.2268 10.457C10.835 10.457 9.52745 10.9984 8.54393 11.9814L8.52956 11.9957C8.44632 12.0789 8.41708 12.2022 8.45457 12.3142C8.49206 12.4261 8.58913 12.5073 8.70569 12.5237L10.6465 12.8021C10.6614 12.8041 10.6763 12.8052 10.6907 12.8052C10.7791 12.8052 10.8638 12.7677 10.9229 12.7009L12.459 10.9753C12.5406 10.8838 12.5607 10.7529 12.5104 10.6409C12.4605 10.5289 12.3496 10.457 12.2268 10.457Z" fill="#2196F3"/>
<path d="M16.8444 9.88122C16.4397 9.47188 15.7756 9.47188 15.3663 9.88122C14.9616 10.2859 14.9616 10.95 15.3663 11.3593C15.5707 11.5596 15.8382 11.6638 16.1053 11.6638C16.3724 11.6638 16.6395 11.5596 16.8444 11.3593C17.2491 10.95 17.2491 10.2859 16.8444 9.88122Z" fill="#2196F3"/>
<path d="M10.7728 15.9516C10.2232 15.4067 9.27463 15.4067 8.72511 15.9516C8.25774 16.4236 7.65785 18.3655 7.54333 18.7507C7.50688 18.8745 7.5387 19.0069 7.63015 19.0943C7.69434 19.1585 7.78112 19.1949 7.87306 19.1949C7.90488 19.1949 7.93726 19.1903 7.97371 19.1811C8.35838 19.0665 10.3008 18.4667 10.7728 17.9993C11.0429 17.7245 11.1944 17.3625 11.1944 16.9778C11.1944 16.5885 11.0429 16.2269 10.7728 15.9516Z" fill="#FF9800"/>
<path d="M17.911 19.0343C17.8437 19.0343 17.7769 19.0148 17.7194 18.9752L16.2953 18.0066L14.8716 18.9757C14.755 19.0548 14.6004 19.0543 14.4843 18.9732C14.3683 18.892 14.3143 18.7472 14.3493 18.6101L14.7925 16.8603L13.4597 15.7222C13.3539 15.6318 13.3139 15.4859 13.358 15.354C13.4022 15.2219 13.5229 15.1305 13.6621 15.1223L15.3595 15.0263L15.9748 13.3484C16.024 13.2144 16.1519 13.125 16.2947 13.125C16.4375 13.125 16.5654 13.2144 16.6147 13.3484L17.2299 15.0263L18.9274 15.1223C19.0666 15.1305 19.1873 15.2219 19.2314 15.354C19.2756 15.4859 19.2355 15.6318 19.1297 15.7222L17.797 16.8603L18.2402 18.6101C18.2751 18.7472 18.2217 18.8915 18.1051 18.9732C18.0476 19.0138 17.9793 19.0343 17.911 19.0343Z" fill="#FFC107"/>
<path d="M18.1205 19.4149C18.045 19.4149 17.969 19.3928 17.9038 19.3481L16.2952 18.2537L14.6867 19.3481C14.5547 19.4375 14.3801 19.437 14.2491 19.345C14.1176 19.2531 14.057 19.0898 14.0966 18.9352L14.5973 16.9579L13.0915 15.6724C12.9723 15.5702 12.9266 15.4054 12.9764 15.2564C13.0268 15.1075 13.1624 15.0037 13.32 14.995L15.2378 14.8866L15.9331 12.9915C15.9891 12.839 16.134 12.7383 16.2952 12.7383C16.4565 12.7383 16.6013 12.839 16.6568 12.991L17.3522 14.8861L19.2699 14.9945C19.4276 15.0037 19.5632 15.107 19.6135 15.2559C19.6638 15.4054 19.6181 15.5697 19.4985 15.6719L17.9926 16.9574L18.4934 18.9347C18.5329 19.0898 18.4723 19.2531 18.3409 19.3445C18.2746 19.3918 18.1975 19.4149 18.1205 19.4149ZM16.2952 17.4027C16.3707 17.4027 16.4468 17.4248 16.5119 17.4694L17.4975 18.1402L17.1873 16.9153C17.1514 16.7735 17.1986 16.6231 17.3101 16.528L18.2679 15.7099L17.0558 15.6411C16.9023 15.6324 16.7682 15.5332 16.7159 15.3889L16.2952 14.2421L15.8746 15.3889C15.8217 15.5332 15.6882 15.6324 15.5346 15.6411L14.3225 15.7099L15.2804 16.528C15.3918 16.6236 15.4396 16.7735 15.4031 16.9153L15.0929 18.1402L16.0785 17.4694C16.1437 17.4248 16.2197 17.4027 16.2952 17.4027Z" fill="white"/>
<path d="M10.739 13.0895C10.721 13.0895 10.7025 13.0885 10.684 13.0854L8.28195 12.7413C8.13765 12.7207 8.01696 12.6201 7.97126 12.4819C7.92502 12.3438 7.96097 12.1912 8.0647 12.088C9.28139 10.8713 10.9429 10.1836 12.6408 10.1836C12.8534 10.1836 13.0259 10.3562 13.0259 10.5688C13.0259 10.7814 12.8534 10.954 12.6408 10.954C11.4102 10.954 10.2012 11.3643 9.22336 12.0988L10.7939 12.3237C11.0045 12.354 11.1503 12.5487 11.1205 12.7598C11.0918 12.9508 10.9275 13.0895 10.739 13.0895Z" fill="white"/>
<path d="M7.69278 19.4175C7.59209 19.4175 7.49349 19.378 7.42058 19.3045C7.32044 19.2044 7.28294 19.0575 7.32402 18.9214C7.45345 18.4895 8.12574 16.3077 8.6501 15.7834C9.26178 15.1712 10.33 15.1712 10.9422 15.7834C11.5734 16.4151 11.5734 17.4433 10.9422 18.075C10.4179 18.5994 8.23564 19.2716 7.80372 19.401C7.76723 19.4124 7.72973 19.4175 7.69278 19.4175ZM9.79589 16.0792C9.57814 16.0792 9.36039 16.1624 9.1945 16.3278C8.97059 16.5517 8.58487 17.5419 8.28492 18.4396C9.18267 18.1397 10.1734 17.754 10.3968 17.5301C10.728 17.1983 10.728 16.659 10.3968 16.3278C10.2309 16.1624 10.0137 16.0792 9.79589 16.0792ZM10.6695 17.8028H10.6746H10.6695Z" fill="white"/>
<path d="M16.1068 11.8995C15.7637 11.8995 15.4412 11.766 15.1988 11.5236C14.6981 11.0229 14.6981 10.2083 15.1988 9.70757C15.6831 9.22275 16.5285 9.2222 17.0143 9.70757C17.5151 10.2083 17.5151 11.0229 17.0143 11.5236C16.7719 11.766 16.4494 11.8995 16.1068 11.8995ZM16.7421 11.2514H16.7473H16.7421ZM16.1068 10.1025C15.9692 10.1025 15.8403 10.1559 15.7437 10.2525C15.5434 10.4528 15.5434 10.7784 15.7437 10.9792C15.9373 11.1728 16.2763 11.1733 16.4699 10.9792C16.6702 10.7789 16.6702 10.4533 16.4699 10.2525C16.3728 10.1559 16.2434 10.1025 16.1068 10.1025Z" fill="white"/>
<path d="M11.9608 15.4779C11.8622 15.4779 11.7636 15.4404 11.6886 15.3649L9.91157 13.5879C9.76726 13.4436 9.7606 13.2114 9.8967 13.0594L12.3105 10.3528C14.0254 8.34777 16.8121 7.04531 19.2578 7.09101C19.4632 7.09563 19.6291 7.26152 19.6337 7.46698C19.6748 9.20649 19.0369 11.1299 17.883 12.743C17.7597 12.9156 17.5199 12.9567 17.3452 12.8324C17.1721 12.7086 17.1326 12.4683 17.2559 12.2952C18.2306 10.9327 18.8048 9.33846 18.8608 7.86449C16.7351 7.94818 14.3798 9.11917 12.8898 10.8597L10.7133 13.3008L12.233 14.8205C12.3835 14.9709 12.3835 15.2149 12.233 15.3654C12.1575 15.4404 12.0594 15.4779 11.9608 15.4779Z" fill="white"/>
</svg>
