<svg width="51" height="51" viewBox="0 0 51 51" fill="none" xmlns="http://www.w3.org/2000/svg">
<rect x="0.958984" y="0.222656" width="50" height="50" rx="25" fill="#20D386"/>
<path d="M27.691 30.2897C23.5268 30.2897 20.1391 26.902 20.1391 22.7379C20.1391 18.5737 23.5269 15.186 27.691 15.186C31.8551 15.186 35.2428 18.5737 35.2428 22.7379C35.2428 26.902 31.8551 30.2897 27.691 30.2897ZM27.691 16.8831C24.4626 16.8831 21.8362 19.5095 21.8362 22.7379C21.8362 25.9662 24.4626 28.5927 27.691 28.5927C30.9193 28.5927 33.5458 25.9662 33.5458 22.7379C33.5458 19.5095 30.9194 16.8831 27.691 16.8831Z" fill="white"/>
<path d="M35.6439 37.3434H11.6998C10.3723 37.3434 9.29224 36.2634 9.29224 34.9358V23.5095C9.29224 22.182 10.3723 21.102 11.6998 21.102H14.0498C14.5184 21.102 14.8983 21.4819 14.8983 21.9505C14.8983 22.4192 14.5184 22.7991 14.0498 22.7991H11.6998C11.3081 22.7991 10.9893 23.1178 10.9893 23.5095V34.9359C10.9893 35.3276 11.308 35.6464 11.6998 35.6464H35.6439C36.0356 35.6464 36.3543 35.3277 36.3543 34.9359V33.4897C36.3543 33.0211 36.7342 32.6412 37.2029 32.6412C37.6715 32.6412 38.0514 33.0211 38.0514 33.4897V34.9358C38.0514 36.2634 36.9714 37.3434 35.6439 37.3434Z" fill="white"/>
<path d="M39.5527 30.8586H15.6087C14.2811 30.8586 13.2011 29.7785 13.2011 28.451V17.0248C13.2011 15.6973 14.2811 14.6172 15.6087 14.6172H39.5528C40.8803 14.6172 41.9603 15.6973 41.9603 17.0248V18.8101C41.9603 19.2788 41.5804 19.6587 41.1117 19.6587C40.6431 19.6587 40.2632 19.2788 40.2632 18.8101V17.0248C40.2632 16.633 39.9445 16.3143 39.5527 16.3143H15.6087C15.2169 16.3143 14.8982 16.633 14.8982 17.0248V28.4511C14.8982 28.8429 15.2169 29.1616 15.6087 29.1616H39.5528C39.9446 29.1616 40.2633 28.8429 40.2633 28.4511V23.3924C40.2633 22.9237 40.6432 22.5438 41.1118 22.5438C41.5805 22.5438 41.9603 22.9237 41.9603 23.3924V28.4511C41.9603 29.7786 40.8803 30.8586 39.5527 30.8586Z" fill="white"/>
<path d="M23.9292 36.9929C22.024 36.9929 20.2046 36.281 18.8065 34.9886C17.4167 33.7039 16.5642 31.961 16.4062 30.0809C16.3864 29.8444 16.4664 29.6104 16.6272 29.4356C16.7879 29.2607 17.0143 29.1613 17.2517 29.1613H30.6068C30.8443 29.1613 31.0708 29.2608 31.2314 29.4356C31.392 29.6103 31.4722 29.8444 31.4524 30.0809C31.2942 31.961 30.4418 33.7039 29.052 34.9886C27.6538 36.281 25.8345 36.9929 23.9292 36.9929ZM18.2502 30.8583C18.8908 33.4094 21.2272 35.2957 23.9292 35.2957C26.6311 35.2957 28.9675 33.4094 29.6082 30.8583H18.2502Z" fill="white"/>
<path d="M27.3444 25.9622C26.2355 25.9347 25.4016 25.339 25.4016 24.8259C25.4016 24.5692 25.6307 24.1844 25.9148 24.1844C26.263 24.1844 26.538 24.78 27.3444 24.8717V23.048C26.5105 22.7364 25.5666 22.379 25.5666 21.206C25.5666 20.0422 26.428 19.5382 27.3444 19.419V19.1624C27.3444 19.0433 27.4818 18.9333 27.6559 18.9333C27.8118 18.9333 27.9675 19.0433 27.9675 19.1624V19.4007C28.5632 19.419 29.5345 19.5931 29.5345 20.1246C29.5345 20.3353 29.3879 20.7569 29.0489 20.7569C28.7922 20.7569 28.5815 20.4637 27.9675 20.4178V22.0307C28.7831 22.3331 29.6995 22.7455 29.6995 23.9918C29.6995 25.119 28.9939 25.7696 27.9675 25.9346V26.2186C27.9675 26.3378 27.8117 26.4478 27.6559 26.4478C27.4818 26.4478 27.3444 26.3378 27.3444 26.2186V25.9622ZM27.4177 21.8292V20.4454C26.9595 20.5187 26.6846 20.7387 26.6846 21.0869C26.6846 21.4901 26.9961 21.6642 27.4177 21.8292ZM27.8943 23.2679V24.8625C28.2975 24.78 28.5816 24.5417 28.5816 24.1111C28.5816 23.662 28.2882 23.4421 27.8943 23.2679Z" fill="white"/>
</svg>
