<svg width="51" height="51" viewBox="0 0 51 51" fill="none" xmlns="http://www.w3.org/2000/svg">
<rect x="0.958984" y="0.222656" width="50" height="50" rx="25" fill="#0085FF"/>
<path d="M42.9587 19.1968C42.9573 18.9067 42.8162 18.6257 42.584 18.4519L38.9424 15.7207V12.1726C38.9424 11.1179 38.5315 10.126 37.7852 9.37915C37.0388 8.6333 36.0469 8.22266 34.9922 8.22266H18.9258C17.8711 8.22266 16.8792 8.6333 16.1321 9.37964C15.3865 10.126 14.9756 11.1179 14.9756 12.1726V15.7207L11.334 18.4519C11.3323 18.4531 11.3306 18.4548 11.3286 18.4563C11.1001 18.6306 10.9607 18.9087 10.9592 19.1968C10.9592 19.1985 10.959 19.2002 10.959 19.2019V36.2727C10.959 38.4507 12.731 40.2227 14.9089 40.2227H39.009C41.187 40.2227 42.959 38.4507 42.959 36.2727V19.2019C42.959 19.2002 42.9587 19.1985 42.9587 19.1968ZM41.084 36.2727C41.084 36.6616 40.9763 37.0256 40.7893 37.3369C39.5435 36.5063 33.8269 32.6951 30.3025 30.3459L41.084 21.2231V36.2727ZM25.8083 31.1375C26.5073 30.6714 27.4106 30.6714 28.1099 31.1377C30.9341 33.0203 36.5725 36.7793 38.925 38.3477H14.9929C17.3455 36.7791 22.9839 33.0203 25.8083 31.1375ZM40.5178 19.2461L38.9424 20.5791V18.0645L40.5178 19.2461ZM16.8506 12.1726C16.8506 11.6187 17.0667 11.0972 17.458 10.7056C17.8503 10.3135 18.3716 10.0977 18.9258 10.0977H34.9922C35.5464 10.0977 36.0676 10.3135 36.4595 10.7048C36.8513 11.0972 37.0674 11.6187 37.0674 12.1726V21.8794C37.0674 21.9683 37.0806 22.0537 37.1035 22.135L28.6455 29.292C27.5769 28.7854 26.3408 28.7854 25.2725 29.292L16.8145 22.135C16.8374 22.0537 16.8506 21.9683 16.8506 21.8794V12.1726ZM14.9756 20.5791L13.4001 19.2461L14.9756 18.0645V20.5791ZM12.834 21.2231L23.6155 30.3459C20.0911 32.6953 14.3745 36.5063 13.1287 37.3369C12.9417 37.0256 12.834 36.6616 12.834 36.2727V21.2231Z" fill="white"/>
</svg>
