<svg width="9" height="9" viewBox="0 0 9 9" fill="none" xmlns="http://www.w3.org/2000/svg">
<path fill-rule="evenodd" clip-rule="evenodd" d="M3.62324 8.07567C3.62324 8.15247 3.65375 8.22613 3.70806 8.28044C3.76236 8.33475 3.83602 8.36526 3.91283 8.36526H7.75625C7.98667 8.36526 8.20764 8.27373 8.37057 8.1108C8.53349 7.94788 8.62502 7.7269 8.62502 7.49649V1.70471C8.62502 1.47429 8.53349 1.25332 8.37057 1.09039C8.20764 0.927468 7.98667 0.835938 7.75625 0.835938H1.96447C1.73406 0.835938 1.51308 0.927468 1.35016 1.09039C1.18723 1.25332 1.0957 1.47429 1.0957 1.70471V5.54813C1.0957 5.62494 1.12621 5.6986 1.18052 5.7529C1.23483 5.80721 1.30849 5.83772 1.38529 5.83772C1.4621 5.83772 1.53575 5.80721 1.59006 5.7529C1.64437 5.6986 1.67488 5.62494 1.67488 5.54813V1.70471C1.67488 1.6279 1.70539 1.55424 1.7597 1.49993C1.81401 1.44563 1.88767 1.41512 1.96447 1.41512H7.75625C7.83306 1.41512 7.90672 1.44563 7.96103 1.49993C8.01533 1.55424 8.04584 1.6279 8.04584 1.70471V7.49649C8.04584 7.57329 8.01533 7.64695 7.96103 7.70126C7.90672 7.75557 7.83306 7.78608 7.75625 7.78608H3.91283C3.83602 7.78608 3.76236 7.81659 3.70806 7.8709C3.65375 7.92521 3.62324 7.99886 3.62324 8.07567Z" fill="#7E8494"/>
<path fill-rule="evenodd" clip-rule="evenodd" d="M6.30826 3.44193C6.30826 3.36513 6.27775 3.29147 6.22344 3.23716C6.16914 3.18285 6.09548 3.15234 6.01867 3.15234H3.12278C3.04598 3.15234 2.97232 3.18285 2.91801 3.23716C2.8637 3.29147 2.83319 3.36513 2.83319 3.44193C2.83319 3.51874 2.8637 3.59239 2.91801 3.6467C2.97232 3.70101 3.04598 3.73152 3.12278 3.73152H5.3196L0.601039 8.44951C0.546662 8.50389 0.516113 8.57764 0.516113 8.65454C0.516113 8.73144 0.546662 8.80519 0.601039 8.85957C0.655416 8.91394 0.729167 8.94449 0.806068 8.94449C0.882969 8.94449 0.95672 8.91394 1.0111 8.85957L5.72908 4.141V6.33782C5.72908 6.41463 5.75959 6.48829 5.8139 6.5426C5.86821 6.5969 5.94187 6.62741 6.01867 6.62741C6.09548 6.62741 6.16914 6.5969 6.22344 6.5426C6.27775 6.48829 6.30826 6.41463 6.30826 6.33782V3.44193Z" fill="#7E8494"/>
</svg>
