<svg width="12" height="15" viewBox="0 0 12 15" fill="none" xmlns="http://www.w3.org/2000/svg">
<path fill-rule="evenodd" clip-rule="evenodd" d="M0.858887 1.90223C0.858887 1.42674 1.04778 0.970715 1.384 0.63449C1.72023 0.298265 2.17625 0.109375 2.65174 0.109375L7.39653 0.109375C7.63426 0.109426 7.86223 0.203904 8.03031 0.372028L11.3534 3.69508C11.5215 3.86316 11.616 4.09113 11.616 4.32886V12.6594C11.616 13.1349 11.4271 13.5909 11.0909 13.9271C10.7547 14.2633 10.2987 14.4522 9.82316 14.4522H2.65174C2.17625 14.4522 1.72023 14.2633 1.384 13.9271C1.04778 13.5909 0.858887 13.1349 0.858887 12.6594V1.90223ZM7.58209 3.24687V1.45402L10.2714 4.1433H8.47852C8.24077 4.1433 8.01276 4.04885 7.84465 3.88074C7.67654 3.71263 7.58209 3.48462 7.58209 3.24687ZM6.68566 6.38437C6.68566 6.26549 6.63844 6.15149 6.55439 6.06743C6.47033 5.98338 6.35632 5.93615 6.23745 5.93615C6.11858 5.93615 6.00457 5.98338 5.92052 6.06743C5.83646 6.15149 5.78924 6.26549 5.78924 6.38437V7.72901H4.4446C4.32572 7.72901 4.21172 7.77623 4.12766 7.86029C4.04361 7.94434 3.99638 8.05835 3.99638 8.17722C3.99638 8.29609 4.04361 8.4101 4.12766 8.49416C4.21172 8.57821 4.32572 8.62543 4.4446 8.62543H5.78924V9.97008C5.78924 10.0889 5.83646 10.203 5.92052 10.287C6.00457 10.3711 6.11858 10.4183 6.23745 10.4183C6.35632 10.4183 6.47033 10.3711 6.55439 10.287C6.63844 10.203 6.68566 10.0889 6.68566 9.97008V8.62543H8.03031C8.14918 8.62543 8.26318 8.57821 8.34724 8.49416C8.4313 8.4101 8.47852 8.29609 8.47852 8.17722C8.47852 8.05835 8.4313 7.94434 8.34724 7.86029C8.26318 7.77623 8.14918 7.72901 8.03031 7.72901H6.68566V6.38437Z" fill="#a91f23"/>
</svg>
