<svg width="26" height="26" viewBox="0 0 26 26" fill="none" xmlns="http://www.w3.org/2000/svg">
<circle cx="13.0859" cy="13.0391" r="12" fill="white" stroke="#7E8494"/>
<path d="M17.7732 8.03906H8.39867C7.53715 8.03906 6.83594 8.74028 6.83594 9.6018V16.4761C6.83594 17.3377 7.53715 18.0389 8.39867 18.0389H17.7732C18.6347 18.0389 19.3359 17.3377 19.3359 16.4761V9.6018C19.3359 8.73934 18.6347 8.03906 17.7732 8.03906ZM8.39867 9.28869H17.7732C17.9457 9.28869 18.0854 9.42837 18.0854 9.60086V14.0378L16.1111 11.7345C15.902 11.4889 15.5983 11.3576 15.273 11.3501C14.9496 11.352 14.6449 11.4955 14.4377 11.7448L12.1175 14.5309L11.362 13.7753C10.9345 13.3479 10.2389 13.3479 9.81141 13.7753L8.0865 15.5003V9.60086C8.0865 9.42837 8.22618 9.28869 8.39867 9.28869Z" fill="#7E8494"/>
<path d="M11.1293 10.9394C11.1293 11.5057 10.6702 11.9647 10.104 11.9647C9.53767 11.9647 9.07861 11.5057 9.07861 10.9394C9.07861 10.3731 9.53767 9.91406 10.104 9.91406C10.6702 9.91406 11.1293 10.3731 11.1293 10.9394Z" fill="#7E8494"/>
</svg>
