<svg width="11" height="15" viewBox="0 0 11 15" fill="none" xmlns="http://www.w3.org/2000/svg">
<path d="M2.2145 0.296875H6.97234V1.16194H2.2145C1.98507 1.16194 1.76504 1.25308 1.60281 1.41531C1.44058 1.57754 1.34944 1.79757 1.34944 2.027V12.4077C1.34944 12.6372 1.44058 12.8572 1.60281 13.0194C1.76504 13.1817 1.98507 13.2728 2.2145 13.2728H9.135C9.36443 13.2728 9.58446 13.1817 9.74669 13.0194C9.90892 12.8572 10.0001 12.6372 10.0001 12.4077V4.18966H10.8651V12.4077C10.8651 12.8666 10.6828 13.3067 10.3584 13.6311C10.0339 13.9556 9.59385 14.1379 9.135 14.1379H2.2145C1.75564 14.1379 1.31558 13.9556 0.991117 13.6311C0.666655 13.3067 0.484375 12.8666 0.484375 12.4077V2.027C0.484375 1.56814 0.666655 1.12808 0.991117 0.803617C1.31558 0.479155 1.75564 0.296875 2.2145 0.296875V0.296875Z" fill="#7E8494"/>
<path d="M6.97266 2.89206V0.296875L10.8654 4.18966H8.27025C7.92611 4.18966 7.59606 4.05294 7.35271 3.8096C7.10937 3.56625 6.97266 3.2362 6.97266 2.89206Z" fill="#7E8494"/>
<path fill-rule="evenodd" clip-rule="evenodd" d="M5.67541 10.6755C5.79012 10.6755 5.90014 10.63 5.98126 10.5488C6.06237 10.4677 6.10794 10.3577 6.10794 10.243V6.96181L7.0993 7.95404C7.18052 8.03525 7.29067 8.08088 7.40553 8.08088C7.52039 8.08088 7.63055 8.03525 7.71177 7.95404C7.79298 7.87282 7.83861 7.76266 7.83861 7.6478C7.83861 7.53294 7.79298 7.42279 7.71177 7.34157L5.98164 5.61145C5.94146 5.57117 5.89373 5.53921 5.84118 5.5174C5.78864 5.4956 5.7323 5.48438 5.67541 5.48438C5.61852 5.48438 5.56218 5.4956 5.50963 5.5174C5.45709 5.53921 5.40936 5.57117 5.36918 5.61145L3.63905 7.34157C3.55783 7.42279 3.51221 7.53294 3.51221 7.6478C3.51221 7.76266 3.55783 7.87282 3.63905 7.95404C3.72027 8.03525 3.83043 8.08088 3.94528 8.08088C4.06014 8.08088 4.1703 8.03525 4.25152 7.95404L5.24288 6.96181V10.243C5.24288 10.3577 5.28845 10.4677 5.36956 10.5488C5.45068 10.63 5.56069 10.6755 5.67541 10.6755Z" fill="#7E8494"/>
</svg>
