<svg width="29" height="30" viewBox="0 0 29 30" fill="none" xmlns="http://www.w3.org/2000/svg">
<path d="M27.6483 24.2478L23.7669 20.3213C25.0145 18.358 25.7076 16.1142 25.7076 13.5899C25.7076 6.57817 20.1627 0.96875 13.2315 0.96875C6.30031 0.96875 0.755371 6.57817 0.755371 13.5899C0.755371 20.6017 6.30031 26.2111 13.2315 26.2111C15.7267 26.2111 17.9447 25.51 19.8854 24.2478L23.7669 28.1744C24.8759 29.2963 26.5394 29.2963 27.6483 28.1744C28.7573 27.0526 28.7573 25.3697 27.6483 24.2478ZM13.2315 23.4064C7.82517 23.4064 3.52784 19.0591 3.52784 13.5899C3.52784 8.12076 7.82517 3.77346 13.2315 3.77346C18.6378 3.77346 22.9351 8.12076 22.9351 13.5899C22.9351 19.0591 18.4992 23.4064 13.2315 23.4064Z" fill="white"/>
<path d="M18.7764 12.1875H14.6177V7.98048C14.6177 7.13907 14.0632 6.57812 13.2315 6.57812C12.3997 6.57812 11.8452 7.2793 11.8452 7.98048V12.1875H7.68653C6.99341 12.1875 6.30029 12.7485 6.30029 13.5899C6.30029 14.4313 6.85479 14.9923 7.68653 14.9923H11.8452V19.1993C11.8452 20.0407 12.3997 20.6017 13.2315 20.6017C14.0632 20.6017 14.6177 20.0407 14.6177 19.1993V14.9923H18.7764C19.6082 14.9923 20.1627 14.4313 20.1627 13.5899C20.1627 12.7485 19.4695 12.1875 18.7764 12.1875Z" fill="white"/>
</svg>
