<svg width="82" height="88" viewBox="0 0 82 88" fill="none" xmlns="http://www.w3.org/2000/svg">
<path d="M0.231812 30.0698L34.9064 2.14835C38.4635 -0.716117 43.5357 -0.716117 47.0928 2.14835L81.7676 30.0698V78.4354C81.7676 83.7175 77.4857 87.9994 72.2036 87.9994H9.79579C4.51373 87.9994 0.231812 83.7175 0.231812 78.4354V30.0698Z" fill="#FFD064"/>
<path d="M64.6749 87.9998H72.2054C77.4871 87.9998 81.7686 83.7183 81.7686 78.4366V30.0703H74.238V78.4366C74.238 83.7183 69.9568 87.9998 64.6749 87.9998Z" fill="#FEBD17"/>
<path d="M0.231789 30.07L9.62888 37.6373L34.9058 57.9912C38.4632 60.8564 43.536 60.8564 47.0933 57.9912L72.3703 37.6374L81.7676 30.0701L47.0933 2.14887C43.536 -0.716289 38.4632 -0.716289 34.9058 2.14887L0.231789 30.07Z" fill="#FEBD17"/>
<path d="M20.0683 80.7441C20.3607 80.7441 20.6548 80.648 20.9004 80.4504L33.5643 70.253C34.1356 69.7929 34.2259 68.9571 33.7659 68.3858C33.3058 67.8146 32.47 67.7242 31.8987 68.1843L19.2347 78.3817C18.6634 78.8418 18.5732 79.6776 19.0333 80.2489C19.2954 80.5746 19.6802 80.7441 20.0683 80.7441Z" fill="#FEBD17"/>
<path d="M61.9318 80.7441C62.32 80.7441 62.7045 80.5748 62.967 80.2489C63.4271 79.6776 63.3368 78.8416 62.7655 78.3816L50.1016 68.1843C49.5303 67.7242 48.6943 67.8148 48.2344 68.3857C47.7744 68.9569 47.8647 69.7929 48.436 70.253L61.0999 80.4503C61.3452 80.6478 61.6394 80.7441 61.9318 80.7441Z" fill="#FEBD17"/>
<path d="M9.62852 21.3051V37.636L34.9055 57.9898C38.4628 60.8549 43.5357 60.8549 47.093 57.9898L72.3701 37.636V10.9237C72.3701 7.68231 69.7423 5.05469 66.5009 5.05469H25.8791L9.62852 21.3051Z" fill="#F9F6F6"/>
<path d="M9.62871 30.6484V37.6352L34.9057 57.9889C38.463 60.8541 43.5359 60.8541 47.0932 57.9889L72.3701 37.6352V30.6484L47.0932 51.0022C43.5359 53.8674 38.463 53.8674 34.9057 51.0022L9.62871 30.6484Z" fill="#DDDAEC"/>
<path d="M9.62895 21.3058H20.0112C23.2521 21.3058 25.8799 18.678 25.8799 15.4371V5.05469" fill="#DDDAEC"/>
<path d="M39.1071 18.4181L40.9998 20.3108L42.8925 18.4181C44.9187 16.3919 48.2039 16.3919 50.2303 18.4181C52.2566 20.4443 52.2566 23.7296 50.2303 25.756L40.9999 34.9864L31.7696 25.756C29.7433 23.7297 29.7433 20.4445 31.7696 18.4183C33.7956 16.3919 37.0809 16.3919 39.1071 18.4181Z" fill="#F13D3D"/>
<path d="M20.3813 40.3787C20.3813 41.1117 20.9762 41.7066 21.7092 41.7066H60.2912C61.0243 41.7066 61.6191 41.1117 61.6191 40.3787C61.6191 40.0635 61.5093 39.7732 61.3252 39.5447C61.0827 39.2438 60.7091 39.0508 60.2912 39.0508H21.7094C21.2916 39.0508 20.9179 39.2438 20.6754 39.5447C20.4912 39.773 20.3813 40.0635 20.3813 40.3787Z" fill="#B0E3F9"/>
<path d="M26.2998 46.656C26.2998 47.3891 26.893 47.9839 27.6277 47.9839H54.3713C55.1044 47.9839 55.6992 47.3891 55.6992 46.656C55.6992 45.923 55.1044 45.3281 54.3713 45.3281H27.6277C26.893 45.328 26.2998 45.923 26.2998 46.656Z" fill="#B0E3F9"/>
<path d="M61.3254 39.5469L58.6411 41.7087H60.2912C61.0243 41.7087 61.6191 41.1139 61.6191 40.3808C61.6195 40.0658 61.5097 39.7753 61.3254 39.5469Z" fill="#4077FF"/>
<path d="M54.1421 45.332L50.8435 47.988H54.3723C55.1053 47.988 55.7002 47.3932 55.7002 46.6601C55.7002 45.9271 55.1053 45.3322 54.3723 45.3322H54.1421V45.332Z" fill="#4077FF"/>
<path d="M26.3004 46.6601C26.3004 47.3932 26.8935 47.988 27.6283 47.988H31.1572L27.8586 45.332H27.6285C26.8935 45.332 26.3004 45.9271 26.3004 46.6601Z" fill="#4077FF"/>
<path d="M20.3803 40.3808C20.3803 41.1139 20.9752 41.7087 21.7082 41.7087H23.3584L20.6741 39.5469C20.4902 39.7751 20.3803 40.0656 20.3803 40.3808Z" fill="#4077FF"/>
</svg>
