<svg width="159" height="192" viewBox="0 0 159 192" fill="none" xmlns="http://www.w3.org/2000/svg">
<path d="M16.2324 35.271C17.2298 34.2867 17.9253 33.4074 18.2403 32.2788C17.6235 31.5832 17.1117 31.2683 16.403 31.0977C15.9174 32.4231 15.4581 33.1056 14.4082 34.0242C15.34 34.2473 15.8649 34.5229 16.2324 35.271Z" fill="url(#paint0_linear)"/>
<path d="M29.3432 100.086C29.1594 100.545 28.8838 100.9 28.2539 101.175C29.3169 102.448 30.1437 103.117 31.4298 104.023C32.2566 103.524 32.5847 103.065 32.7815 102.711C31.233 102.054 30.4324 101.32 29.3432 100.086Z" fill="url(#paint1_linear)"/>
<path d="M86.7795 120.714C87.9569 121.298 88.897 122.37 89.9746 125.388C91.1894 124.72 92.0544 123.803 92.8235 122.262C91.7049 120.134 90.8662 118.964 89.0187 117.553C88.6121 118.902 88.0381 119.585 86.7795 120.714Z" fill="url(#paint2_linear)"/>
<path d="M66.3905 7.4084C66.7449 7.27717 66.9155 7.02782 67.1779 6.60786C66.2462 6.0698 65.4194 5.21676 64.5532 4.14062C64.3301 4.46872 64.107 4.61307 63.7002 4.77056C64.5532 5.96481 65.1307 6.55537 66.3905 7.4084Z" fill="url(#paint3_linear)"/>
<path d="M152.902 143.278C152.587 144.131 152.783 144.879 153.387 145.982C155.211 145.234 156.379 144.997 158.256 145.024C157.862 144.197 157.862 143.514 158.098 142.176C156.196 142.176 154.739 142.543 152.902 143.278Z" fill="url(#paint4_linear)"/>
<path d="M92.363 160.787C92.985 160.194 93.3976 159.893 94.197 159.539C94.0238 159.153 93.8086 158.839 93.4607 158.645C92.9103 158.837 92.2806 159.213 91.4964 159.812C92.0727 160.068 92.3197 160.295 92.363 160.787Z" fill="url(#paint5_linear)"/>
<path d="M33.4502 180.928C34.0933 181.833 34.277 182.555 33.8964 183.828C35.34 183.566 36.2193 183.054 37.7679 182.03C38.0303 181.02 37.8466 180.456 37.1642 179.484C35.8387 180.351 34.8151 180.889 33.4502 180.928Z" fill="url(#paint6_linear)"/>
<path d="M109.008 103.814C110.336 103.559 111.035 103.493 112.124 103.858C112.172 103.318 112.281 102.992 112.544 102.766C111.393 102.308 110.516 102.269 109.075 102.42C108.933 102.9 108.918 103.353 109.008 103.814Z" fill="url(#paint7_linear)"/>
<path d="M57.5983 153.291C58.9107 153.698 59.7637 153.724 61.273 153.317C60.6824 151.703 60.643 150.653 60.9055 149.485C59.6981 149.013 58.8188 148.908 57.4277 148.895C57.7952 150.404 57.7952 151.545 57.5983 153.291Z" fill="url(#paint8_linear)"/>
<path d="M12.0329 148.631C13.0303 148.303 13.5421 148.015 14.1065 147.043C13.2009 145.547 12.7679 144.602 12.1904 142.988C11.7048 143.395 11.2849 143.566 10.9043 143.644C11.6261 145.469 11.8229 146.689 12.0329 148.631Z" fill="url(#paint9_linear)"/>
<path d="M2.58356 188.5C2.55731 189.287 2.30796 189.72 1.84863 190.298C3.09537 190.587 4.39461 190.718 4.97205 190.6C5.12953 190.009 5.11641 189.471 5.01142 188.736C4.35524 188.881 3.69906 188.749 2.58356 188.5Z" fill="url(#paint10_linear)"/>
<path d="M136.273 11.9116C136.943 11.3079 137.244 10.9142 137.363 9.94301C136.129 9.07685 135.46 8.48629 134.462 7.41016C134.226 7.89573 133.95 8.17132 133.675 8.36817C134.856 9.56242 135.433 10.4417 136.273 11.9116Z" fill="url(#paint11_linear)"/>
<path d="M98.8596 64.6294C98.9514 63.9995 99.1614 63.4614 99.5682 62.7921C97.954 62.6477 96.891 62.4771 95.723 62.0703C95.1062 62.6609 94.9619 63.1071 94.8438 63.7501C95.6837 64.0913 97.1535 64.4326 98.8596 64.6294Z" fill="url(#paint12_linear)"/>
<path d="M104.62 0.375C103.268 0.860573 102.454 1.03117 101.011 1.0443C101.011 1.75297 101.129 2.35666 101.509 2.89473C102.481 2.98659 103.675 2.81599 105.263 2.46165C104.58 1.66111 104.357 1.14929 104.62 0.375Z" fill="url(#paint13_linear)"/>
<path d="M40.2227 62.2567C40.8001 62.8079 41.0232 63.2804 40.9313 64.2253C41.9025 63.8447 42.4537 63.3591 43.3854 62.4273C43.4248 61.6793 43.228 61.3118 42.6112 60.7344C41.8106 61.5218 41.1676 62.0467 40.2227 62.2567Z" fill="url(#paint14_linear)"/>
<path d="M2.42706 71.9531C2.08585 72.3993 1.66589 72.7143 0.891602 72.8193C1.66589 74.5385 2.38769 75.5359 3.51632 76.9401C4.57933 76.6382 5.07803 76.2314 5.41924 75.9033C3.8969 74.7222 3.25385 73.6592 2.42706 71.9531Z" fill="url(#paint15_linear)"/>
<path d="M81.26 190.117C81.1419 190.8 81.1812 191.233 81.4831 191.955C82.2574 191.548 82.7692 191.469 83.3729 191.522C83.5304 190.892 83.5304 190.432 83.4385 189.75C82.7167 190.026 82.1524 190.104 81.26 190.117Z" fill="url(#paint16_linear)"/>
<defs>
<linearGradient id="paint0_linear" x1="17.5079" y1="33.8257" x2="15.368" y2="32.49" gradientUnits="userSpaceOnUse">
<stop stop-color="#FF5C5C"/>
<stop offset="0.3013" stop-color="#F44444"/>
<stop offset="0.935" stop-color="#D60707"/>
<stop offset="1" stop-color="#D30000"/>
</linearGradient>
<linearGradient id="paint1_linear" x1="31.1102" y1="101.268" x2="29.4933" y2="103.218" gradientUnits="userSpaceOnUse">
<stop stop-color="#FF5C5C"/>
<stop offset="0.3013" stop-color="#F44444"/>
<stop offset="0.935" stop-color="#D60707"/>
<stop offset="1" stop-color="#D30000"/>
</linearGradient>
<linearGradient id="paint2_linear" x1="87.3067" y1="123.321" x2="92.3053" y2="119.236" gradientUnits="userSpaceOnUse">
<stop stop-color="#FF5C5C"/>
<stop offset="0.3013" stop-color="#F44444"/>
<stop offset="0.935" stop-color="#D60707"/>
<stop offset="1" stop-color="#D30000"/>
</linearGradient>
<linearGradient id="paint3_linear" x1="64.6491" y1="6.46176" x2="66.0933" y2="5.27109" gradientUnits="userSpaceOnUse">
<stop stop-color="#FF5C5C"/>
<stop offset="0.3013" stop-color="#F44444"/>
<stop offset="0.935" stop-color="#D60707"/>
<stop offset="1" stop-color="#D30000"/>
</linearGradient>
<linearGradient id="paint4_linear" x1="156.028" y1="146.024" x2="155.137" y2="141.896" gradientUnits="userSpaceOnUse">
<stop stop-color="#4D8EFF"/>
<stop offset="0.4282" stop-color="#3F76FF"/>
<stop offset="1" stop-color="#2850FF"/>
</linearGradient>
<linearGradient id="paint5_linear" x1="93.2801" y1="160.231" x2="92.3367" y2="158.892" gradientUnits="userSpaceOnUse">
<stop stop-color="#FC9512"/>
<stop offset="0.00696701" stop-color="#FC9612"/>
<stop offset="0.68" stop-color="#FED319"/>
<stop offset="1" stop-color="#FFEB1C"/>
</linearGradient>
<linearGradient id="paint6_linear" x1="35.1134" y1="180.151" x2="36.3689" y2="183.702" gradientUnits="userSpaceOnUse">
<stop stop-color="#FC9512"/>
<stop offset="0.00696701" stop-color="#FC9612"/>
<stop offset="0.68" stop-color="#FED319"/>
<stop offset="1" stop-color="#FFEB1C"/>
</linearGradient>
<linearGradient id="paint7_linear" x1="110.79" y1="102.047" x2="110.707" y2="104.378" gradientUnits="userSpaceOnUse">
<stop stop-color="#FC9512"/>
<stop offset="0.00696701" stop-color="#FC9612"/>
<stop offset="0.68" stop-color="#FED319"/>
<stop offset="1" stop-color="#FFEB1C"/>
</linearGradient>
<linearGradient id="paint8_linear" x1="57.4888" y1="151.275" x2="61.7628" y2="151.146" gradientUnits="userSpaceOnUse">
<stop stop-color="#FC9512"/>
<stop offset="0.00696701" stop-color="#FC9612"/>
<stop offset="0.68" stop-color="#FED319"/>
<stop offset="1" stop-color="#FFEB1C"/>
</linearGradient>
<linearGradient id="paint9_linear" x1="13.4435" y1="145.158" x2="10.8967" y2="146.494" gradientUnits="userSpaceOnUse">
<stop stop-color="#FC9512"/>
<stop offset="0.00696701" stop-color="#FC9612"/>
<stop offset="0.68" stop-color="#FED319"/>
<stop offset="1" stop-color="#FFEB1C"/>
</linearGradient>
<linearGradient id="paint10_linear" x1="3.71986" y1="188.411" x2="3.34036" y2="191.064" gradientUnits="userSpaceOnUse">
<stop stop-color="#FF3EB9"/>
<stop offset="0.0433" stop-color="#FF44BC"/>
<stop offset="0.7006" stop-color="#FF98E3"/>
<stop offset="1" stop-color="#FFB9F2"/>
</linearGradient>
<linearGradient id="paint11_linear" x1="136.184" y1="8.68764" x2="134.638" y2="10.6164" gradientUnits="userSpaceOnUse">
<stop stop-color="#FF3EB9"/>
<stop offset="0.0433" stop-color="#FF44BC"/>
<stop offset="0.7006" stop-color="#FF98E3"/>
<stop offset="1" stop-color="#FFB9F2"/>
</linearGradient>
<linearGradient id="paint12_linear" x1="97.5988" y1="61.6047" x2="96.8825" y2="64.6615" gradientUnits="userSpaceOnUse">
<stop stop-color="#00EE98"/>
<stop offset="0.2798" stop-color="#00D685"/>
<stop offset="0.8679" stop-color="#009955"/>
<stop offset="1" stop-color="#008A49"/>
</linearGradient>
<linearGradient id="paint13_linear" x1="102.857" y1="0.604338" x2="103.382" y2="3.26718" gradientUnits="userSpaceOnUse">
<stop stop-color="#00EE98"/>
<stop offset="0.2798" stop-color="#00D685"/>
<stop offset="0.8679" stop-color="#009955"/>
<stop offset="1" stop-color="#008A49"/>
</linearGradient>
<linearGradient id="paint14_linear" x1="41.2747" y1="61.4862" x2="42.6483" y2="63.8002" gradientUnits="userSpaceOnUse">
<stop stop-color="#00EE98"/>
<stop offset="0.2798" stop-color="#00D685"/>
<stop offset="0.8679" stop-color="#009955"/>
<stop offset="1" stop-color="#008A49"/>
</linearGradient>
<linearGradient id="paint15_linear" x1="4.01309" y1="73.8085" x2="1.62967" y2="75.461" gradientUnits="userSpaceOnUse">
<stop stop-color="#00EE98"/>
<stop offset="0.2798" stop-color="#00D685"/>
<stop offset="0.8679" stop-color="#009955"/>
<stop offset="1" stop-color="#008A49"/>
</linearGradient>
<linearGradient id="paint16_linear" x1="82.2661" y1="189.927" x2="82.6075" y2="192.053" gradientUnits="userSpaceOnUse">
<stop stop-color="#00EE98"/>
<stop offset="0.2798" stop-color="#00D685"/>
<stop offset="0.8679" stop-color="#009955"/>
<stop offset="1" stop-color="#008A49"/>
</linearGradient>
</defs>
</svg>
