<svg width="161" height="210" viewBox="0 0 161 210" fill="none" xmlns="http://www.w3.org/2000/svg">
<path d="M0.308594 2.09611C1.63408 2.21422 2.3034 2.35858 3.23517 2.98852C3.43203 2.50294 3.61575 2.22735 3.93072 2.08299C2.9727 1.32182 2.15904 1.04622 0.781064 0.796875C0.479221 1.21683 0.347965 1.63679 0.308594 2.09611Z" fill="url(#paint0_linear)"/>
<path d="M72.7703 17.1747C72.9803 18.7889 72.626 19.76 71.8779 21.0986C74.5289 21.2561 77.2061 21.0986 78.361 20.6524C78.4791 19.3794 78.2822 18.2902 77.8098 16.8203C76.5237 17.3453 75.1194 17.319 72.7703 17.1747Z" fill="url(#paint1_linear)"/>
<path d="M30.2392 127.322C31.2891 126.049 32.3127 124.579 32.4308 122.676C31.604 121.574 31.1053 120.786 30.5804 119.461C30.0554 120.563 29.2811 120.891 27.5488 121.062C28.7693 122.768 29.3993 124.697 30.2392 127.322Z" fill="url(#paint2_linear)"/>
<path d="M57.1949 127.688C56.8931 128.593 56.6306 129.092 56.04 129.866C56.4075 130.168 56.775 130.352 57.2212 130.378C57.6674 129.905 58.0873 129.21 58.5598 128.226C57.8511 128.239 57.4836 128.147 57.1949 127.688Z" fill="url(#paint3_linear)"/>
<path d="M9.10899 18.739C8.91214 20.537 8.93838 21.9937 9.55519 23.3717C10.7363 23.5685 11.5238 23.4504 12.3637 23.0436C11.76 21.3113 11.6681 20.2614 11.9568 18.4766C10.8413 19.0278 10.1064 19.1721 9.10899 18.739Z" fill="url(#paint4_linear)"/>
<path d="M117.144 74.3162C115.818 73.8175 115.228 73.1482 114.506 72.0195C113.299 73.9881 112.314 76.0878 112.17 77.1509C113.089 77.7677 114.007 78.0695 115.32 78.3057C115.464 77.0984 116.068 76.0485 117.144 74.3162Z" fill="url(#paint5_linear)"/>
<path d="M101.001 173.546C101.29 173.638 101.526 173.782 101.71 174.15C102.431 173.441 102.799 172.903 103.284 172.089C102.943 171.617 102.641 171.433 102.418 171.328C102.103 172.312 101.697 172.824 101.001 173.546Z" fill="url(#paint6_linear)"/>
<path d="M129.676 45.1423C129.952 44.8273 130.267 44.6173 130.831 44.5779C130.333 43.2787 129.86 42.5175 129.099 41.4414C128.311 41.612 127.918 41.8876 127.655 42.1107C128.718 43.0425 129.151 43.8561 129.676 45.1423Z" fill="url(#paint7_linear)"/>
<path d="M157.906 150.499C158.536 150.814 159.153 150.722 160.058 150.354C159.638 148.871 159.559 147.94 159.743 146.483C159.061 146.719 158.536 146.667 157.512 146.352C157.328 147.835 157.499 149.003 157.906 150.499Z" fill="url(#paint8_linear)"/>
<path d="M135.031 209.016C135.701 208.937 136.094 208.57 136.724 207.94C135.32 206.641 134.218 204.83 133.141 202.625C132.617 203.097 132.183 203.268 131.409 203.386C132.407 205.801 133.181 207.048 135.031 209.016Z" fill="url(#paint9_linear)"/>
<path d="M73.6525 52.6992C72.4582 54.5103 71.9201 55.757 71.4346 57.5025C72.8519 57.7912 73.7837 57.7256 74.6499 57.4631C74.6892 56.3345 75.1486 55.5995 75.9622 54.4972C74.768 54.1559 74.243 53.6835 73.6525 52.6992Z" fill="url(#paint10_linear)"/>
<path d="M149.126 81.8359C148.246 82.9514 147.393 84.2375 147.314 85.878C148.049 86.8098 148.496 87.4922 148.968 88.6208C149.401 87.6628 150.07 87.361 151.553 87.1904C150.477 85.7468 149.887 84.0932 149.126 81.8359Z" fill="url(#paint11_linear)"/>
<path d="M93.1365 120.359C93.9764 119.991 94.9607 119.965 97.0474 120.739C97.2311 119.794 97.1261 118.928 96.6537 117.826C95.0263 117.471 94.0289 117.393 92.4541 117.76C92.9922 118.574 93.0972 119.191 93.1365 120.359Z" fill="url(#paint12_linear)"/>
<path d="M121.094 142.453C121.264 143.53 121.907 144.212 123.18 145.026C124.676 143.175 125.766 142.243 127.761 141.167C126.855 140.524 126.461 139.816 125.936 138.254C123.928 139.369 122.603 140.603 121.094 142.453Z" fill="url(#paint13_linear)"/>
<path d="M54.6093 170.196C55.7904 169.868 57.1159 170.012 59.7538 171.417C60.1737 170.183 60.2 169.015 59.7669 167.453C57.654 166.679 56.3416 166.39 54.1631 166.587C54.7405 167.781 54.7668 168.608 54.6093 170.196Z" fill="url(#paint14_linear)"/>
<defs>
<linearGradient id="paint0_linear" x1="2.45964" y1="0.924168" x2="1.74018" y2="3.09089" gradientUnits="userSpaceOnUse">
<stop stop-color="#00EE98"/>
<stop offset="0.2798" stop-color="#00D685"/>
<stop offset="0.8679" stop-color="#009955"/>
<stop offset="1" stop-color="#008A49"/>
</linearGradient>
<linearGradient id="paint1_linear" x1="75.0593" y1="16.603" x2="75.1807" y2="22.1527" gradientUnits="userSpaceOnUse">
<stop stop-color="#FF5C5C"/>
<stop offset="0.3013" stop-color="#F44444"/>
<stop offset="0.935" stop-color="#D60707"/>
<stop offset="1" stop-color="#D30000"/>
</linearGradient>
<linearGradient id="paint2_linear" x1="28.584" y1="124.383" x2="32.7882" y2="121.792" gradientUnits="userSpaceOnUse">
<stop stop-color="#4D8EFF"/>
<stop offset="0.4282" stop-color="#3F76FF"/>
<stop offset="1" stop-color="#2850FF"/>
</linearGradient>
<linearGradient id="paint3_linear" x1="56.5789" y1="128.704" x2="58.1942" y2="129.538" gradientUnits="userSpaceOnUse">
<stop stop-color="#4D8EFF"/>
<stop offset="0.4282" stop-color="#3F76FF"/>
<stop offset="1" stop-color="#2850FF"/>
</linearGradient>
<linearGradient id="paint4_linear" x1="9.02498" y1="21.2225" x2="12.261" y2="20.8076" gradientUnits="userSpaceOnUse">
<stop stop-color="#4D8EFF"/>
<stop offset="0.4282" stop-color="#3F76FF"/>
<stop offset="1" stop-color="#2850FF"/>
</linearGradient>
<linearGradient id="paint5_linear" x1="116.637" y1="76.289" x2="112.354" y2="74.0987" gradientUnits="userSpaceOnUse">
<stop stop-color="#4D8EFF"/>
<stop offset="0.4282" stop-color="#3F76FF"/>
<stop offset="1" stop-color="#2850FF"/>
</linearGradient>
<linearGradient id="paint6_linear" x1="101.627" y1="172.417" x2="102.889" y2="173.302" gradientUnits="userSpaceOnUse">
<stop stop-color="#4D8EFF"/>
<stop offset="0.4282" stop-color="#3F76FF"/>
<stop offset="1" stop-color="#2850FF"/>
</linearGradient>
<linearGradient id="paint7_linear" x1="128.595" y1="43.7093" x2="130.415" y2="42.605" gradientUnits="userSpaceOnUse">
<stop stop-color="#4D8EFF"/>
<stop offset="0.4282" stop-color="#3F76FF"/>
<stop offset="1" stop-color="#2850FF"/>
</linearGradient>
<linearGradient id="paint8_linear" x1="160.316" y1="148.3" x2="157.026" y2="148.631" gradientUnits="userSpaceOnUse">
<stop stop-color="#FC9512"/>
<stop offset="0.00696701" stop-color="#FC9612"/>
<stop offset="0.68" stop-color="#FED319"/>
<stop offset="1" stop-color="#FFEB1C"/>
</linearGradient>
<linearGradient id="paint9_linear" x1="132.381" y1="206.69" x2="135.35" y2="205.194" gradientUnits="userSpaceOnUse">
<stop stop-color="#FC9512"/>
<stop offset="0.00696701" stop-color="#FC9612"/>
<stop offset="0.68" stop-color="#FED319"/>
<stop offset="1" stop-color="#FFEB1C"/>
</linearGradient>
<linearGradient id="paint10_linear" x1="71.841" y1="54.845" x2="75.4437" y2="56.1904" gradientUnits="userSpaceOnUse">
<stop stop-color="#FF3EB9"/>
<stop offset="0.0433" stop-color="#FF44BC"/>
<stop offset="0.7006" stop-color="#FF98E3"/>
<stop offset="1" stop-color="#FFB9F2"/>
</linearGradient>
<linearGradient id="paint11_linear" x1="150.607" y1="84.3462" x2="147.026" y2="86.6597" gradientUnits="userSpaceOnUse">
<stop stop-color="#FF3EB9"/>
<stop offset="0.0433" stop-color="#FF44BC"/>
<stop offset="0.7006" stop-color="#FF98E3"/>
<stop offset="1" stop-color="#FFB9F2"/>
</linearGradient>
<linearGradient id="paint12_linear" x1="94.7596" y1="121.24" x2="94.8072" y2="116.758" gradientUnits="userSpaceOnUse">
<stop stop-color="#FF3EB9"/>
<stop offset="0.0433" stop-color="#FF44BC"/>
<stop offset="0.7006" stop-color="#FF98E3"/>
<stop offset="1" stop-color="#FFB9F2"/>
</linearGradient>
<linearGradient id="paint13_linear" x1="125.997" y1="143.525" x2="122.653" y2="139.685" gradientUnits="userSpaceOnUse">
<stop stop-color="#00EE98"/>
<stop offset="0.2798" stop-color="#00D685"/>
<stop offset="0.8679" stop-color="#009955"/>
<stop offset="1" stop-color="#008A49"/>
</linearGradient>
<linearGradient id="paint14_linear" x1="56.6089" y1="171.664" x2="57.503" y2="165.689" gradientUnits="userSpaceOnUse">
<stop stop-color="#00EE98"/>
<stop offset="0.2798" stop-color="#00D685"/>
<stop offset="0.8679" stop-color="#009955"/>
<stop offset="1" stop-color="#008A49"/>
</linearGradient>
</defs>
</svg>
