<svg width="64" height="32" viewBox="0 0 64 32" fill="none" xmlns="http://www.w3.org/2000/svg">
<rect width="64" height="32" rx="2" fill="#E0E1E2"/>
<path d="M25.8145 17.7617C25.8145 17.4297 25.6973 17.1758 25.4629 17C25.2285 16.8203 24.8066 16.6328 24.1973 16.4375C23.5879 16.2383 23.1055 16.043 22.75 15.8516C21.7812 15.3281 21.2969 14.623 21.2969 13.7363C21.2969 13.2754 21.4258 12.8652 21.6836 12.5059C21.9453 12.1426 22.3184 11.8594 22.8027 11.6562C23.291 11.4531 23.8379 11.3516 24.4434 11.3516C25.0527 11.3516 25.5957 11.4629 26.0723 11.6855C26.5488 11.9043 26.918 12.2148 27.1797 12.6172C27.4453 13.0195 27.5781 13.4766 27.5781 13.9883H25.8203C25.8203 13.5977 25.6973 13.2949 25.4512 13.0801C25.2051 12.8613 24.8594 12.752 24.4141 12.752C23.9844 12.752 23.6504 12.8438 23.4121 13.0273C23.1738 13.207 23.0547 13.4453 23.0547 13.7422C23.0547 14.0195 23.1934 14.252 23.4707 14.4395C23.752 14.627 24.1641 14.8027 24.707 14.9668C25.707 15.2676 26.4355 15.6406 26.8926 16.0859C27.3496 16.5312 27.5781 17.0859 27.5781 17.75C27.5781 18.4883 27.2988 19.0684 26.7402 19.4902C26.1816 19.9082 25.4297 20.1172 24.4844 20.1172C23.8281 20.1172 23.2305 19.998 22.6914 19.7598C22.1523 19.5176 21.7402 19.1875 21.4551 18.7695C21.1738 18.3516 21.0332 17.8672 21.0332 17.3164H22.7969C22.7969 18.2578 23.3594 18.7285 24.4844 18.7285C24.9023 18.7285 25.2285 18.6445 25.4629 18.4766C25.6973 18.3047 25.8145 18.0664 25.8145 17.7617ZM30.9648 17.457L30.3555 18.0664V20H28.6621V11H30.3555V15.9863L30.6836 15.5645L32.3066 13.6602H34.3398L32.0488 16.3027L34.5391 20H32.5938L30.9648 17.457ZM36.8594 20H35.1602V13.6602H36.8594V20ZM35.0605 12.0195C35.0605 11.7656 35.1445 11.5566 35.3125 11.3926C35.4844 11.2285 35.7168 11.1465 36.0098 11.1465C36.2988 11.1465 36.5293 11.2285 36.7012 11.3926C36.873 11.5566 36.959 11.7656 36.959 12.0195C36.959 12.2773 36.8711 12.4883 36.6953 12.6523C36.5234 12.8164 36.2949 12.8984 36.0098 12.8984C35.7246 12.8984 35.4941 12.8164 35.3184 12.6523C35.1465 12.4883 35.0605 12.2773 35.0605 12.0195ZM43.9668 16.8887C43.9668 17.8652 43.7441 18.6484 43.2988 19.2383C42.8574 19.8242 42.2598 20.1172 41.5059 20.1172C40.8652 20.1172 40.3477 19.8945 39.9531 19.4492V22.4375H38.2598V13.6602H39.8301L39.8887 14.2812C40.2988 13.7891 40.834 13.543 41.4941 13.543C42.2754 13.543 42.8828 13.832 43.3164 14.4102C43.75 14.9883 43.9668 15.7852 43.9668 16.8008V16.8887ZM42.2734 16.7656C42.2734 16.1758 42.168 15.7207 41.957 15.4004C41.75 15.0801 41.4473 14.9199 41.0488 14.9199C40.5176 14.9199 40.1523 15.123 39.9531 15.5293V18.125C40.1602 18.543 40.5293 18.752 41.0605 18.752C41.8691 18.752 42.2734 18.0898 42.2734 16.7656Z" fill="#404040"/>
</svg>
